ISO-10303-21;
HEADER;
/* Generated by software containing ST-Developer
 * from STEP Tools, Inc. (www.steptools.com) 
 */

FILE_DESCRIPTION(
/* description */ (
'Body1.50x1.60x0.45mm. End contacts approximate, based on Vishay28950 
drawing; not manufacturer-supplied CAD.'),
/* implementation_level */ '2;1');

FILE_NAME(
/* name */ 'Vishay_ACAS0606_AT.step',
/* time_stamp */ '2026-09-07T11:01:24+02:00',
/* author */ (''),
/* organization */ (''),
/* preprocessor_version */ 'ST-DEVELOPER v20.2',
/* originating_system */ 'Autodesk Translation Framework v15.15.0.0',
/* authorisation */ '');

FILE_SCHEMA (('AUTOMOTIVE_DESIGN { 1 0 10303 214 3 1 1 }'));
ENDSEC;

DATA;
#10=MECHANICAL_DESIGN_GEOMETRIC_PRESENTATION_REPRESENTATION('',(#13,#14,
#15,#16,#17),#1315);
#11=SHAPE_REPRESENTATION_RELATIONSHIP('SRR','None',#1322,#12);
#12=ADVANCED_BREP_SHAPE_REPRESENTATION('',(#18,#19,#20,#21,#22),#1314);
#13=STYLED_ITEM('',(#1331),#18);
#14=STYLED_ITEM('',(#1331),#19);
#15=STYLED_ITEM('',(#1331),#20);
#16=STYLED_ITEM('',(#1331),#21);
#17=STYLED_ITEM('',(#1331),#22);
#18=MANIFOLD_SOLID_BREP('Nominal insulating body',#819);
#19=MANIFOLD_SOLID_BREP('Approximate contact 1',#820);
#20=MANIFOLD_SOLID_BREP('Approximate contact 2',#821);
#21=MANIFOLD_SOLID_BREP('Approximate contact 3',#822);
#22=MANIFOLD_SOLID_BREP('Approximate contact 4',#823);
#23=FACE_OUTER_BOUND('',#69,.T.);
#24=FACE_OUTER_BOUND('',#70,.T.);
#25=FACE_OUTER_BOUND('',#71,.T.);
#26=FACE_OUTER_BOUND('',#72,.T.);
#27=FACE_OUTER_BOUND('',#73,.T.);
#28=FACE_OUTER_BOUND('',#74,.T.);
#29=FACE_OUTER_BOUND('',#75,.T.);
#30=FACE_OUTER_BOUND('',#76,.T.);
#31=FACE_OUTER_BOUND('',#77,.T.);
#32=FACE_OUTER_BOUND('',#78,.T.);
#33=FACE_OUTER_BOUND('',#79,.T.);
#34=FACE_OUTER_BOUND('',#80,.T.);
#35=FACE_OUTER_BOUND('',#81,.T.);
#36=FACE_OUTER_BOUND('',#82,.T.);
#37=FACE_OUTER_BOUND('',#83,.T.);
#38=FACE_OUTER_BOUND('',#84,.T.);
#39=FACE_OUTER_BOUND('',#85,.T.);
#40=FACE_OUTER_BOUND('',#86,.T.);
#41=FACE_OUTER_BOUND('',#87,.T.);
#42=FACE_OUTER_BOUND('',#88,.T.);
#43=FACE_OUTER_BOUND('',#89,.T.);
#44=FACE_OUTER_BOUND('',#90,.T.);
#45=FACE_OUTER_BOUND('',#91,.T.);
#46=FACE_OUTER_BOUND('',#92,.T.);
#47=FACE_OUTER_BOUND('',#93,.T.);
#48=FACE_OUTER_BOUND('',#94,.T.);
#49=FACE_OUTER_BOUND('',#95,.T.);
#50=FACE_OUTER_BOUND('',#96,.T.);
#51=FACE_OUTER_BOUND('',#97,.T.);
#52=FACE_OUTER_BOUND('',#98,.T.);
#53=FACE_OUTER_BOUND('',#99,.T.);
#54=FACE_OUTER_BOUND('',#100,.T.);
#55=FACE_OUTER_BOUND('',#101,.T.);
#56=FACE_OUTER_BOUND('',#102,.T.);
#57=FACE_OUTER_BOUND('',#103,.T.);
#58=FACE_OUTER_BOUND('',#104,.T.);
#59=FACE_OUTER_BOUND('',#105,.T.);
#60=FACE_OUTER_BOUND('',#106,.T.);
#61=FACE_OUTER_BOUND('',#107,.T.);
#62=FACE_OUTER_BOUND('',#108,.T.);
#63=FACE_OUTER_BOUND('',#109,.T.);
#64=FACE_OUTER_BOUND('',#110,.T.);
#65=FACE_OUTER_BOUND('',#111,.T.);
#66=FACE_OUTER_BOUND('',#112,.T.);
#67=FACE_OUTER_BOUND('',#113,.T.);
#68=FACE_OUTER_BOUND('',#114,.T.);
#69=EDGE_LOOP('',(#511,#512,#513,#514));
#70=EDGE_LOOP('',(#515,#516,#517,#518));
#71=EDGE_LOOP('',(#519,#520,#521,#522));
#72=EDGE_LOOP('',(#523,#524,#525,#526,#527,#528,#529,#530,#531,#532,#533,
#534,#535,#536,#537,#538,#539,#540,#541,#542));
#73=EDGE_LOOP('',(#543,#544,#545,#546));
#74=EDGE_LOOP('',(#547,#548,#549,#550));
#75=EDGE_LOOP('',(#551,#552,#553,#554));
#76=EDGE_LOOP('',(#555,#556,#557,#558));
#77=EDGE_LOOP('',(#559,#560,#561,#562));
#78=EDGE_LOOP('',(#563,#564,#565,#566));
#79=EDGE_LOOP('',(#567,#568,#569,#570));
#80=EDGE_LOOP('',(#571,#572,#573,#574));
#81=EDGE_LOOP('',(#575,#576,#577,#578));
#82=EDGE_LOOP('',(#579,#580,#581,#582));
#83=EDGE_LOOP('',(#583,#584,#585,#586));
#84=EDGE_LOOP('',(#587,#588,#589,#590));
#85=EDGE_LOOP('',(#591,#592,#593,#594));
#86=EDGE_LOOP('',(#595,#596,#597,#598,#599,#600,#601,#602,#603,#604,#605,
#606,#607,#608,#609,#610,#611,#612,#613,#614));
#87=EDGE_LOOP('',(#615,#616,#617,#618));
#88=EDGE_LOOP('',(#619,#620,#621,#622));
#89=EDGE_LOOP('',(#623,#624,#625,#626));
#90=EDGE_LOOP('',(#627,#628,#629,#630));
#91=EDGE_LOOP('',(#631,#632,#633,#634));
#92=EDGE_LOOP('',(#635,#636,#637,#638));
#93=EDGE_LOOP('',(#639,#640,#641,#642));
#94=EDGE_LOOP('',(#643,#644,#645,#646));
#95=EDGE_LOOP('',(#647,#648,#649,#650));
#96=EDGE_LOOP('',(#651,#652,#653,#654));
#97=EDGE_LOOP('',(#655,#656,#657,#658));
#98=EDGE_LOOP('',(#659,#660,#661,#662));
#99=EDGE_LOOP('',(#663,#664,#665,#666));
#100=EDGE_LOOP('',(#667,#668,#669,#670));
#101=EDGE_LOOP('',(#671,#672,#673,#674));
#102=EDGE_LOOP('',(#675,#676,#677,#678));
#103=EDGE_LOOP('',(#679,#680,#681,#682));
#104=EDGE_LOOP('',(#683,#684,#685,#686));
#105=EDGE_LOOP('',(#687,#688,#689,#690));
#106=EDGE_LOOP('',(#691,#692,#693,#694));
#107=EDGE_LOOP('',(#695,#696,#697,#698));
#108=EDGE_LOOP('',(#699,#700,#701,#702));
#109=EDGE_LOOP('',(#703,#704,#705,#706));
#110=EDGE_LOOP('',(#707,#708,#709,#710));
#111=EDGE_LOOP('',(#711,#712,#713,#714));
#112=EDGE_LOOP('',(#715,#716,#717,#718));
#113=EDGE_LOOP('',(#719,#720,#721,#722));
#114=EDGE_LOOP('',(#723,#724,#725,#726));
#115=LINE('',#1089,#223);
#116=LINE('',#1091,#224);
#117=LINE('',#1093,#225);
#118=LINE('',#1094,#226);
#119=LINE('',#1098,#227);
#120=LINE('',#1099,#228);
#121=LINE('',#1100,#229);
#122=LINE('',#1104,#230);
#123=LINE('',#1105,#231);
#124=LINE('',#1106,#232);
#125=LINE('',#1109,#233);
#126=LINE('',#1111,#234);
#127=LINE('',#1113,#235);
#128=LINE('',#1115,#236);
#129=LINE('',#1117,#237);
#130=LINE('',#1119,#238);
#131=LINE('',#1121,#239);
#132=LINE('',#1123,#240);
#133=LINE('',#1125,#241);
#134=LINE('',#1127,#242);
#135=LINE('',#1129,#243);
#136=LINE('',#1131,#244);
#137=LINE('',#1133,#245);
#138=LINE('',#1135,#246);
#139=LINE('',#1137,#247);
#140=LINE('',#1139,#248);
#141=LINE('',#1140,#249);
#142=LINE('',#1143,#250);
#143=LINE('',#1144,#251);
#144=LINE('',#1147,#252);
#145=LINE('',#1148,#253);
#146=LINE('',#1151,#254);
#147=LINE('',#1152,#255);
#148=LINE('',#1155,#256);
#149=LINE('',#1156,#257);
#150=LINE('',#1159,#258);
#151=LINE('',#1160,#259);
#152=LINE('',#1163,#260);
#153=LINE('',#1165,#261);
#154=LINE('',#1166,#262);
#155=LINE('',#1169,#263);
#156=LINE('',#1171,#264);
#157=LINE('',#1172,#265);
#158=LINE('',#1174,#266);
#159=LINE('',#1177,#267);
#160=LINE('',#1178,#268);
#161=LINE('',#1181,#269);
#162=LINE('',#1183,#270);
#163=LINE('',#1184,#271);
#164=LINE('',#1187,#272);
#165=LINE('',#1188,#273);
#166=LINE('',#1190,#274);
#167=LINE('',#1193,#275);
#168=LINE('',#1194,#276);
#169=LINE('',#1197,#277);
#170=LINE('',#1198,#278);
#171=LINE('',#1200,#279);
#172=LINE('',#1201,#280);
#173=LINE('',#1203,#281);
#174=LINE('',#1205,#282);
#175=LINE('',#1211,#283);
#176=LINE('',#1213,#284);
#177=LINE('',#1215,#285);
#178=LINE('',#1216,#286);
#179=LINE('',#1220,#287);
#180=LINE('',#1222,#288);
#181=LINE('',#1224,#289);
#182=LINE('',#1225,#290);
#183=LINE('',#1227,#291);
#184=LINE('',#1228,#292);
#185=LINE('',#1230,#293);
#186=LINE('',#1232,#294);
#187=LINE('',#1237,#295);
#188=LINE('',#1239,#296);
#189=LINE('',#1241,#297);
#190=LINE('',#1242,#298);
#191=LINE('',#1246,#299);
#192=LINE('',#1248,#300);
#193=LINE('',#1250,#301);
#194=LINE('',#1251,#302);
#195=LINE('',#1253,#303);
#196=LINE('',#1254,#304);
#197=LINE('',#1256,#305);
#198=LINE('',#1258,#306);
#199=LINE('',#1263,#307);
#200=LINE('',#1265,#308);
#201=LINE('',#1267,#309);
#202=LINE('',#1268,#310);
#203=LINE('',#1272,#311);
#204=LINE('',#1274,#312);
#205=LINE('',#1276,#313);
#206=LINE('',#1277,#314);
#207=LINE('',#1279,#315);
#208=LINE('',#1280,#316);
#209=LINE('',#1282,#317);
#210=LINE('',#1284,#318);
#211=LINE('',#1289,#319);
#212=LINE('',#1291,#320);
#213=LINE('',#1293,#321);
#214=LINE('',#1294,#322);
#215=LINE('',#1298,#323);
#216=LINE('',#1300,#324);
#217=LINE('',#1302,#325);
#218=LINE('',#1303,#326);
#219=LINE('',#1305,#327);
#220=LINE('',#1306,#328);
#221=LINE('',#1308,#329);
#222=LINE('',#1310,#330);
#223=VECTOR('',#887,10.);
#224=VECTOR('',#888,10.);
#225=VECTOR('',#889,10.);
#226=VECTOR('',#890,10.);
#227=VECTOR('',#893,10.);
#228=VECTOR('',#894,10.);
#229=VECTOR('',#895,10.);
#230=VECTOR('',#898,10.);
#231=VECTOR('',#899,10.);
#232=VECTOR('',#900,10.);
#233=VECTOR('',#903,10.);
#234=VECTOR('',#904,10.);
#235=VECTOR('',#905,10.);
#236=VECTOR('',#906,10.);
#237=VECTOR('',#907,10.);
#238=VECTOR('',#908,10.);
#239=VECTOR('',#909,10.);
#240=VECTOR('',#910,10.);
#241=VECTOR('',#911,10.);
#242=VECTOR('',#912,10.);
#243=VECTOR('',#913,10.);
#244=VECTOR('',#914,10.);
#245=VECTOR('',#915,10.);
#246=VECTOR('',#916,10.);
#247=VECTOR('',#917,10.);
#248=VECTOR('',#918,10.);
#249=VECTOR('',#919,10.);
#250=VECTOR('',#922,10.);
#251=VECTOR('',#923,10.);
#252=VECTOR('',#926,10.);
#253=VECTOR('',#927,10.);
#254=VECTOR('',#930,10.);
#255=VECTOR('',#931,10.);
#256=VECTOR('',#934,10.);
#257=VECTOR('',#935,10.);
#258=VECTOR('',#938,10.);
#259=VECTOR('',#939,10.);
#260=VECTOR('',#942,10.);
#261=VECTOR('',#943,10.);
#262=VECTOR('',#944,10.);
#263=VECTOR('',#947,10.);
#264=VECTOR('',#948,10.);
#265=VECTOR('',#949,10.);
#266=VECTOR('',#952,10.);
#267=VECTOR('',#955,10.);
#268=VECTOR('',#956,10.);
#269=VECTOR('',#959,10.);
#270=VECTOR('',#960,10.);
#271=VECTOR('',#961,10.);
#272=VECTOR('',#964,10.);
#273=VECTOR('',#965,10.);
#274=VECTOR('',#968,10.);
#275=VECTOR('',#971,10.);
#276=VECTOR('',#972,10.);
#277=VECTOR('',#975,10.);
#278=VECTOR('',#976,10.);
#279=VECTOR('',#977,10.);
#280=VECTOR('',#978,10.);
#281=VECTOR('',#981,10.);
#282=VECTOR('',#984,10.);
#283=VECTOR('',#991,10.);
#284=VECTOR('',#992,10.);
#285=VECTOR('',#993,10.);
#286=VECTOR('',#994,10.);
#287=VECTOR('',#997,10.);
#288=VECTOR('',#998,10.);
#289=VECTOR('',#999,10.);
#290=VECTOR('',#1000,10.);
#291=VECTOR('',#1003,10.);
#292=VECTOR('',#1004,10.);
#293=VECTOR('',#1007,10.);
#294=VECTOR('',#1010,10.);
#295=VECTOR('',#1015,10.);
#296=VECTOR('',#1016,10.);
#297=VECTOR('',#1017,10.);
#298=VECTOR('',#1018,10.);
#299=VECTOR('',#1021,10.);
#300=VECTOR('',#1022,10.);
#301=VECTOR('',#1023,10.);
#302=VECTOR('',#1024,10.);
#303=VECTOR('',#1027,10.);
#304=VECTOR('',#1028,10.);
#305=VECTOR('',#1031,10.);
#306=VECTOR('',#1034,10.);
#307=VECTOR('',#1039,10.);
#308=VECTOR('',#1040,10.);
#309=VECTOR('',#1041,10.);
#310=VECTOR('',#1042,10.);
#311=VECTOR('',#1045,10.);
#312=VECTOR('',#1046,10.);
#313=VECTOR('',#1047,10.);
#314=VECTOR('',#1048,10.);
#315=VECTOR('',#1051,10.);
#316=VECTOR('',#1052,10.);
#317=VECTOR('',#1055,10.);
#318=VECTOR('',#1058,10.);
#319=VECTOR('',#1063,10.);
#320=VECTOR('',#1064,10.);
#321=VECTOR('',#1065,10.);
#322=VECTOR('',#1066,10.);
#323=VECTOR('',#1069,10.);
#324=VECTOR('',#1070,10.);
#325=VECTOR('',#1071,10.);
#326=VECTOR('',#1072,10.);
#327=VECTOR('',#1075,10.);
#328=VECTOR('',#1076,10.);
#329=VECTOR('',#1079,10.);
#330=VECTOR('',#1082,10.);
#331=VERTEX_POINT('',#1087);
#332=VERTEX_POINT('',#1088);
#333=VERTEX_POINT('',#1090);
#334=VERTEX_POINT('',#1092);
#335=VERTEX_POINT('',#1096);
#336=VERTEX_POINT('',#1097);
#337=VERTEX_POINT('',#1102);
#338=VERTEX_POINT('',#1103);
#339=VERTEX_POINT('',#1108);
#340=VERTEX_POINT('',#1110);
#341=VERTEX_POINT('',#1112);
#342=VERTEX_POINT('',#1114);
#343=VERTEX_POINT('',#1116);
#344=VERTEX_POINT('',#1118);
#345=VERTEX_POINT('',#1120);
#346=VERTEX_POINT('',#1122);
#347=VERTEX_POINT('',#1124);
#348=VERTEX_POINT('',#1126);
#349=VERTEX_POINT('',#1128);
#350=VERTEX_POINT('',#1130);
#351=VERTEX_POINT('',#1132);
#352=VERTEX_POINT('',#1134);
#353=VERTEX_POINT('',#1136);
#354=VERTEX_POINT('',#1138);
#355=VERTEX_POINT('',#1142);
#356=VERTEX_POINT('',#1146);
#357=VERTEX_POINT('',#1150);
#358=VERTEX_POINT('',#1154);
#359=VERTEX_POINT('',#1158);
#360=VERTEX_POINT('',#1162);
#361=VERTEX_POINT('',#1164);
#362=VERTEX_POINT('',#1168);
#363=VERTEX_POINT('',#1170);
#364=VERTEX_POINT('',#1176);
#365=VERTEX_POINT('',#1180);
#366=VERTEX_POINT('',#1182);
#367=VERTEX_POINT('',#1186);
#368=VERTEX_POINT('',#1192);
#369=VERTEX_POINT('',#1196);
#370=VERTEX_POINT('',#1199);
#371=VERTEX_POINT('',#1209);
#372=VERTEX_POINT('',#1210);
#373=VERTEX_POINT('',#1212);
#374=VERTEX_POINT('',#1214);
#375=VERTEX_POINT('',#1218);
#376=VERTEX_POINT('',#1219);
#377=VERTEX_POINT('',#1221);
#378=VERTEX_POINT('',#1223);
#379=VERTEX_POINT('',#1235);
#380=VERTEX_POINT('',#1236);
#381=VERTEX_POINT('',#1238);
#382=VERTEX_POINT('',#1240);
#383=VERTEX_POINT('',#1244);
#384=VERTEX_POINT('',#1245);
#385=VERTEX_POINT('',#1247);
#386=VERTEX_POINT('',#1249);
#387=VERTEX_POINT('',#1261);
#388=VERTEX_POINT('',#1262);
#389=VERTEX_POINT('',#1264);
#390=VERTEX_POINT('',#1266);
#391=VERTEX_POINT('',#1270);
#392=VERTEX_POINT('',#1271);
#393=VERTEX_POINT('',#1273);
#394=VERTEX_POINT('',#1275);
#395=VERTEX_POINT('',#1287);
#396=VERTEX_POINT('',#1288);
#397=VERTEX_POINT('',#1290);
#398=VERTEX_POINT('',#1292);
#399=VERTEX_POINT('',#1296);
#400=VERTEX_POINT('',#1297);
#401=VERTEX_POINT('',#1299);
#402=VERTEX_POINT('',#1301);
#403=EDGE_CURVE('',#331,#332,#115,.T.);
#404=EDGE_CURVE('',#333,#331,#116,.T.);
#405=EDGE_CURVE('',#334,#333,#117,.T.);
#406=EDGE_CURVE('',#332,#334,#118,.T.);
#407=EDGE_CURVE('',#335,#336,#119,.T.);
#408=EDGE_CURVE('',#331,#335,#120,.T.);
#409=EDGE_CURVE('',#336,#332,#121,.T.);
#410=EDGE_CURVE('',#337,#338,#122,.T.);
#411=EDGE_CURVE('',#335,#337,#123,.T.);
#412=EDGE_CURVE('',#338,#336,#124,.T.);
#413=EDGE_CURVE('',#337,#339,#125,.T.);
#414=EDGE_CURVE('',#339,#340,#126,.T.);
#415=EDGE_CURVE('',#340,#341,#127,.T.);
#416=EDGE_CURVE('',#341,#342,#128,.T.);
#417=EDGE_CURVE('',#342,#343,#129,.T.);
#418=EDGE_CURVE('',#343,#344,#130,.T.);
#419=EDGE_CURVE('',#344,#345,#131,.T.);
#420=EDGE_CURVE('',#345,#346,#132,.T.);
#421=EDGE_CURVE('',#346,#347,#133,.T.);
#422=EDGE_CURVE('',#347,#348,#134,.T.);
#423=EDGE_CURVE('',#348,#349,#135,.T.);
#424=EDGE_CURVE('',#349,#350,#136,.T.);
#425=EDGE_CURVE('',#350,#351,#137,.T.);
#426=EDGE_CURVE('',#351,#352,#138,.T.);
#427=EDGE_CURVE('',#352,#353,#139,.T.);
#428=EDGE_CURVE('',#353,#354,#140,.T.);
#429=EDGE_CURVE('',#354,#333,#141,.T.);
#430=EDGE_CURVE('',#355,#338,#142,.T.);
#431=EDGE_CURVE('',#355,#339,#143,.T.);
#432=EDGE_CURVE('',#340,#356,#144,.T.);
#433=EDGE_CURVE('',#356,#355,#145,.T.);
#434=EDGE_CURVE('',#341,#357,#146,.T.);
#435=EDGE_CURVE('',#357,#356,#147,.T.);
#436=EDGE_CURVE('',#342,#358,#148,.T.);
#437=EDGE_CURVE('',#358,#357,#149,.T.);
#438=EDGE_CURVE('',#359,#358,#150,.T.);
#439=EDGE_CURVE('',#343,#359,#151,.T.);
#440=EDGE_CURVE('',#348,#360,#152,.T.);
#441=EDGE_CURVE('',#347,#361,#153,.T.);
#442=EDGE_CURVE('',#360,#361,#154,.T.);
#443=EDGE_CURVE('',#346,#362,#155,.T.);
#444=EDGE_CURVE('',#363,#345,#156,.T.);
#445=EDGE_CURVE('',#362,#363,#157,.T.);
#446=EDGE_CURVE('',#361,#362,#158,.T.);
#447=EDGE_CURVE('',#364,#360,#159,.T.);
#448=EDGE_CURVE('',#364,#349,#160,.T.);
#449=EDGE_CURVE('',#352,#365,#161,.T.);
#450=EDGE_CURVE('',#351,#366,#162,.T.);
#451=EDGE_CURVE('',#365,#366,#163,.T.);
#452=EDGE_CURVE('',#350,#367,#164,.T.);
#453=EDGE_CURVE('',#367,#364,#165,.T.);
#454=EDGE_CURVE('',#366,#367,#166,.T.);
#455=EDGE_CURVE('',#368,#365,#167,.T.);
#456=EDGE_CURVE('',#353,#368,#168,.T.);
#457=EDGE_CURVE('',#334,#369,#169,.T.);
#458=EDGE_CURVE('',#369,#368,#170,.T.);
#459=EDGE_CURVE('',#363,#370,#171,.T.);
#460=EDGE_CURVE('',#370,#359,#172,.T.);
#461=EDGE_CURVE('',#354,#369,#173,.T.);
#462=EDGE_CURVE('',#344,#370,#174,.T.);
#463=EDGE_CURVE('',#371,#372,#175,.T.);
#464=EDGE_CURVE('',#372,#373,#176,.T.);
#465=EDGE_CURVE('',#373,#374,#177,.T.);
#466=EDGE_CURVE('',#374,#371,#178,.T.);
#467=EDGE_CURVE('',#375,#376,#179,.T.);
#468=EDGE_CURVE('',#376,#377,#180,.T.);
#469=EDGE_CURVE('',#377,#378,#181,.T.);
#470=EDGE_CURVE('',#378,#375,#182,.T.);
#471=EDGE_CURVE('',#374,#377,#183,.T.);
#472=EDGE_CURVE('',#371,#376,#184,.T.);
#473=EDGE_CURVE('',#373,#378,#185,.T.);
#474=EDGE_CURVE('',#372,#375,#186,.T.);
#475=EDGE_CURVE('',#379,#380,#187,.T.);
#476=EDGE_CURVE('',#380,#381,#188,.T.);
#477=EDGE_CURVE('',#381,#382,#189,.T.);
#478=EDGE_CURVE('',#382,#379,#190,.T.);
#479=EDGE_CURVE('',#383,#384,#191,.T.);
#480=EDGE_CURVE('',#384,#385,#192,.T.);
#481=EDGE_CURVE('',#385,#386,#193,.T.);
#482=EDGE_CURVE('',#386,#383,#194,.T.);
#483=EDGE_CURVE('',#382,#385,#195,.T.);
#484=EDGE_CURVE('',#379,#384,#196,.T.);
#485=EDGE_CURVE('',#381,#386,#197,.T.);
#486=EDGE_CURVE('',#380,#383,#198,.T.);
#487=EDGE_CURVE('',#387,#388,#199,.T.);
#488=EDGE_CURVE('',#388,#389,#200,.T.);
#489=EDGE_CURVE('',#389,#390,#201,.T.);
#490=EDGE_CURVE('',#390,#387,#202,.T.);
#491=EDGE_CURVE('',#391,#392,#203,.T.);
#492=EDGE_CURVE('',#392,#393,#204,.T.);
#493=EDGE_CURVE('',#393,#394,#205,.T.);
#494=EDGE_CURVE('',#394,#391,#206,.T.);
#495=EDGE_CURVE('',#390,#393,#207,.T.);
#496=EDGE_CURVE('',#387,#392,#208,.T.);
#497=EDGE_CURVE('',#389,#394,#209,.T.);
#498=EDGE_CURVE('',#388,#391,#210,.T.);
#499=EDGE_CURVE('',#395,#396,#211,.T.);
#500=EDGE_CURVE('',#396,#397,#212,.T.);
#501=EDGE_CURVE('',#397,#398,#213,.T.);
#502=EDGE_CURVE('',#398,#395,#214,.T.);
#503=EDGE_CURVE('',#399,#400,#215,.T.);
#504=EDGE_CURVE('',#400,#401,#216,.T.);
#505=EDGE_CURVE('',#401,#402,#217,.T.);
#506=EDGE_CURVE('',#402,#399,#218,.T.);
#507=EDGE_CURVE('',#398,#401,#219,.T.);
#508=EDGE_CURVE('',#395,#400,#220,.T.);
#509=EDGE_CURVE('',#397,#402,#221,.T.);
#510=EDGE_CURVE('',#396,#399,#222,.T.);
#511=ORIENTED_EDGE('',*,*,#403,.F.);
#512=ORIENTED_EDGE('',*,*,#404,.F.);
#513=ORIENTED_EDGE('',*,*,#405,.F.);
#514=ORIENTED_EDGE('',*,*,#406,.F.);
#515=ORIENTED_EDGE('',*,*,#407,.F.);
#516=ORIENTED_EDGE('',*,*,#408,.F.);
#517=ORIENTED_EDGE('',*,*,#403,.T.);
#518=ORIENTED_EDGE('',*,*,#409,.F.);
#519=ORIENTED_EDGE('',*,*,#410,.F.);
#520=ORIENTED_EDGE('',*,*,#411,.F.);
#521=ORIENTED_EDGE('',*,*,#407,.T.);
#522=ORIENTED_EDGE('',*,*,#412,.F.);
#523=ORIENTED_EDGE('',*,*,#404,.T.);
#524=ORIENTED_EDGE('',*,*,#408,.T.);
#525=ORIENTED_EDGE('',*,*,#411,.T.);
#526=ORIENTED_EDGE('',*,*,#413,.T.);
#527=ORIENTED_EDGE('',*,*,#414,.T.);
#528=ORIENTED_EDGE('',*,*,#415,.T.);
#529=ORIENTED_EDGE('',*,*,#416,.T.);
#530=ORIENTED_EDGE('',*,*,#417,.T.);
#531=ORIENTED_EDGE('',*,*,#418,.T.);
#532=ORIENTED_EDGE('',*,*,#419,.T.);
#533=ORIENTED_EDGE('',*,*,#420,.T.);
#534=ORIENTED_EDGE('',*,*,#421,.T.);
#535=ORIENTED_EDGE('',*,*,#422,.T.);
#536=ORIENTED_EDGE('',*,*,#423,.T.);
#537=ORIENTED_EDGE('',*,*,#424,.T.);
#538=ORIENTED_EDGE('',*,*,#425,.T.);
#539=ORIENTED_EDGE('',*,*,#426,.T.);
#540=ORIENTED_EDGE('',*,*,#427,.T.);
#541=ORIENTED_EDGE('',*,*,#428,.T.);
#542=ORIENTED_EDGE('',*,*,#429,.T.);
#543=ORIENTED_EDGE('',*,*,#410,.T.);
#544=ORIENTED_EDGE('',*,*,#430,.F.);
#545=ORIENTED_EDGE('',*,*,#431,.T.);
#546=ORIENTED_EDGE('',*,*,#413,.F.);
#547=ORIENTED_EDGE('',*,*,#432,.F.);
#548=ORIENTED_EDGE('',*,*,#414,.F.);
#549=ORIENTED_EDGE('',*,*,#431,.F.);
#550=ORIENTED_EDGE('',*,*,#433,.F.);
#551=ORIENTED_EDGE('',*,*,#434,.F.);
#552=ORIENTED_EDGE('',*,*,#415,.F.);
#553=ORIENTED_EDGE('',*,*,#432,.T.);
#554=ORIENTED_EDGE('',*,*,#435,.F.);
#555=ORIENTED_EDGE('',*,*,#436,.F.);
#556=ORIENTED_EDGE('',*,*,#416,.F.);
#557=ORIENTED_EDGE('',*,*,#434,.T.);
#558=ORIENTED_EDGE('',*,*,#437,.F.);
#559=ORIENTED_EDGE('',*,*,#436,.T.);
#560=ORIENTED_EDGE('',*,*,#438,.F.);
#561=ORIENTED_EDGE('',*,*,#439,.F.);
#562=ORIENTED_EDGE('',*,*,#417,.F.);
#563=ORIENTED_EDGE('',*,*,#440,.F.);
#564=ORIENTED_EDGE('',*,*,#422,.F.);
#565=ORIENTED_EDGE('',*,*,#441,.T.);
#566=ORIENTED_EDGE('',*,*,#442,.F.);
#567=ORIENTED_EDGE('',*,*,#443,.F.);
#568=ORIENTED_EDGE('',*,*,#420,.F.);
#569=ORIENTED_EDGE('',*,*,#444,.F.);
#570=ORIENTED_EDGE('',*,*,#445,.F.);
#571=ORIENTED_EDGE('',*,*,#441,.F.);
#572=ORIENTED_EDGE('',*,*,#421,.F.);
#573=ORIENTED_EDGE('',*,*,#443,.T.);
#574=ORIENTED_EDGE('',*,*,#446,.F.);
#575=ORIENTED_EDGE('',*,*,#440,.T.);
#576=ORIENTED_EDGE('',*,*,#447,.F.);
#577=ORIENTED_EDGE('',*,*,#448,.T.);
#578=ORIENTED_EDGE('',*,*,#423,.F.);
#579=ORIENTED_EDGE('',*,*,#449,.F.);
#580=ORIENTED_EDGE('',*,*,#426,.F.);
#581=ORIENTED_EDGE('',*,*,#450,.T.);
#582=ORIENTED_EDGE('',*,*,#451,.F.);
#583=ORIENTED_EDGE('',*,*,#452,.F.);
#584=ORIENTED_EDGE('',*,*,#424,.F.);
#585=ORIENTED_EDGE('',*,*,#448,.F.);
#586=ORIENTED_EDGE('',*,*,#453,.F.);
#587=ORIENTED_EDGE('',*,*,#450,.F.);
#588=ORIENTED_EDGE('',*,*,#425,.F.);
#589=ORIENTED_EDGE('',*,*,#452,.T.);
#590=ORIENTED_EDGE('',*,*,#454,.F.);
#591=ORIENTED_EDGE('',*,*,#449,.T.);
#592=ORIENTED_EDGE('',*,*,#455,.F.);
#593=ORIENTED_EDGE('',*,*,#456,.F.);
#594=ORIENTED_EDGE('',*,*,#427,.F.);
#595=ORIENTED_EDGE('',*,*,#406,.T.);
#596=ORIENTED_EDGE('',*,*,#457,.T.);
#597=ORIENTED_EDGE('',*,*,#458,.T.);
#598=ORIENTED_EDGE('',*,*,#455,.T.);
#599=ORIENTED_EDGE('',*,*,#451,.T.);
#600=ORIENTED_EDGE('',*,*,#454,.T.);
#601=ORIENTED_EDGE('',*,*,#453,.T.);
#602=ORIENTED_EDGE('',*,*,#447,.T.);
#603=ORIENTED_EDGE('',*,*,#442,.T.);
#604=ORIENTED_EDGE('',*,*,#446,.T.);
#605=ORIENTED_EDGE('',*,*,#445,.T.);
#606=ORIENTED_EDGE('',*,*,#459,.T.);
#607=ORIENTED_EDGE('',*,*,#460,.T.);
#608=ORIENTED_EDGE('',*,*,#438,.T.);
#609=ORIENTED_EDGE('',*,*,#437,.T.);
#610=ORIENTED_EDGE('',*,*,#435,.T.);
#611=ORIENTED_EDGE('',*,*,#433,.T.);
#612=ORIENTED_EDGE('',*,*,#430,.T.);
#613=ORIENTED_EDGE('',*,*,#412,.T.);
#614=ORIENTED_EDGE('',*,*,#409,.T.);
#615=ORIENTED_EDGE('',*,*,#456,.T.);
#616=ORIENTED_EDGE('',*,*,#458,.F.);
#617=ORIENTED_EDGE('',*,*,#461,.F.);
#618=ORIENTED_EDGE('',*,*,#428,.F.);
#619=ORIENTED_EDGE('',*,*,#444,.T.);
#620=ORIENTED_EDGE('',*,*,#419,.F.);
#621=ORIENTED_EDGE('',*,*,#462,.T.);
#622=ORIENTED_EDGE('',*,*,#459,.F.);
#623=ORIENTED_EDGE('',*,*,#439,.T.);
#624=ORIENTED_EDGE('',*,*,#460,.F.);
#625=ORIENTED_EDGE('',*,*,#462,.F.);
#626=ORIENTED_EDGE('',*,*,#418,.F.);
#627=ORIENTED_EDGE('',*,*,#405,.T.);
#628=ORIENTED_EDGE('',*,*,#429,.F.);
#629=ORIENTED_EDGE('',*,*,#461,.T.);
#630=ORIENTED_EDGE('',*,*,#457,.F.);
#631=ORIENTED_EDGE('',*,*,#463,.T.);
#632=ORIENTED_EDGE('',*,*,#464,.T.);
#633=ORIENTED_EDGE('',*,*,#465,.T.);
#634=ORIENTED_EDGE('',*,*,#466,.T.);
#635=ORIENTED_EDGE('',*,*,#467,.T.);
#636=ORIENTED_EDGE('',*,*,#468,.T.);
#637=ORIENTED_EDGE('',*,*,#469,.T.);
#638=ORIENTED_EDGE('',*,*,#470,.T.);
#639=ORIENTED_EDGE('',*,*,#471,.T.);
#640=ORIENTED_EDGE('',*,*,#468,.F.);
#641=ORIENTED_EDGE('',*,*,#472,.F.);
#642=ORIENTED_EDGE('',*,*,#466,.F.);
#643=ORIENTED_EDGE('',*,*,#473,.T.);
#644=ORIENTED_EDGE('',*,*,#469,.F.);
#645=ORIENTED_EDGE('',*,*,#471,.F.);
#646=ORIENTED_EDGE('',*,*,#465,.F.);
#647=ORIENTED_EDGE('',*,*,#474,.T.);
#648=ORIENTED_EDGE('',*,*,#470,.F.);
#649=ORIENTED_EDGE('',*,*,#473,.F.);
#650=ORIENTED_EDGE('',*,*,#464,.F.);
#651=ORIENTED_EDGE('',*,*,#472,.T.);
#652=ORIENTED_EDGE('',*,*,#467,.F.);
#653=ORIENTED_EDGE('',*,*,#474,.F.);
#654=ORIENTED_EDGE('',*,*,#463,.F.);
#655=ORIENTED_EDGE('',*,*,#475,.T.);
#656=ORIENTED_EDGE('',*,*,#476,.T.);
#657=ORIENTED_EDGE('',*,*,#477,.T.);
#658=ORIENTED_EDGE('',*,*,#478,.T.);
#659=ORIENTED_EDGE('',*,*,#479,.T.);
#660=ORIENTED_EDGE('',*,*,#480,.T.);
#661=ORIENTED_EDGE('',*,*,#481,.T.);
#662=ORIENTED_EDGE('',*,*,#482,.T.);
#663=ORIENTED_EDGE('',*,*,#483,.T.);
#664=ORIENTED_EDGE('',*,*,#480,.F.);
#665=ORIENTED_EDGE('',*,*,#484,.F.);
#666=ORIENTED_EDGE('',*,*,#478,.F.);
#667=ORIENTED_EDGE('',*,*,#485,.T.);
#668=ORIENTED_EDGE('',*,*,#481,.F.);
#669=ORIENTED_EDGE('',*,*,#483,.F.);
#670=ORIENTED_EDGE('',*,*,#477,.F.);
#671=ORIENTED_EDGE('',*,*,#486,.T.);
#672=ORIENTED_EDGE('',*,*,#482,.F.);
#673=ORIENTED_EDGE('',*,*,#485,.F.);
#674=ORIENTED_EDGE('',*,*,#476,.F.);
#675=ORIENTED_EDGE('',*,*,#484,.T.);
#676=ORIENTED_EDGE('',*,*,#479,.F.);
#677=ORIENTED_EDGE('',*,*,#486,.F.);
#678=ORIENTED_EDGE('',*,*,#475,.F.);
#679=ORIENTED_EDGE('',*,*,#487,.T.);
#680=ORIENTED_EDGE('',*,*,#488,.T.);
#681=ORIENTED_EDGE('',*,*,#489,.T.);
#682=ORIENTED_EDGE('',*,*,#490,.T.);
#683=ORIENTED_EDGE('',*,*,#491,.T.);
#684=ORIENTED_EDGE('',*,*,#492,.T.);
#685=ORIENTED_EDGE('',*,*,#493,.T.);
#686=ORIENTED_EDGE('',*,*,#494,.T.);
#687=ORIENTED_EDGE('',*,*,#495,.T.);
#688=ORIENTED_EDGE('',*,*,#492,.F.);
#689=ORIENTED_EDGE('',*,*,#496,.F.);
#690=ORIENTED_EDGE('',*,*,#490,.F.);
#691=ORIENTED_EDGE('',*,*,#497,.T.);
#692=ORIENTED_EDGE('',*,*,#493,.F.);
#693=ORIENTED_EDGE('',*,*,#495,.F.);
#694=ORIENTED_EDGE('',*,*,#489,.F.);
#695=ORIENTED_EDGE('',*,*,#498,.T.);
#696=ORIENTED_EDGE('',*,*,#494,.F.);
#697=ORIENTED_EDGE('',*,*,#497,.F.);
#698=ORIENTED_EDGE('',*,*,#488,.F.);
#699=ORIENTED_EDGE('',*,*,#496,.T.);
#700=ORIENTED_EDGE('',*,*,#491,.F.);
#701=ORIENTED_EDGE('',*,*,#498,.F.);
#702=ORIENTED_EDGE('',*,*,#487,.F.);
#703=ORIENTED_EDGE('',*,*,#499,.T.);
#704=ORIENTED_EDGE('',*,*,#500,.T.);
#705=ORIENTED_EDGE('',*,*,#501,.T.);
#706=ORIENTED_EDGE('',*,*,#502,.T.);
#707=ORIENTED_EDGE('',*,*,#503,.T.);
#708=ORIENTED_EDGE('',*,*,#504,.T.);
#709=ORIENTED_EDGE('',*,*,#505,.T.);
#710=ORIENTED_EDGE('',*,*,#506,.T.);
#711=ORIENTED_EDGE('',*,*,#507,.T.);
#712=ORIENTED_EDGE('',*,*,#504,.F.);
#713=ORIENTED_EDGE('',*,*,#508,.F.);
#714=ORIENTED_EDGE('',*,*,#502,.F.);
#715=ORIENTED_EDGE('',*,*,#509,.T.);
#716=ORIENTED_EDGE('',*,*,#505,.F.);
#717=ORIENTED_EDGE('',*,*,#507,.F.);
#718=ORIENTED_EDGE('',*,*,#501,.F.);
#719=ORIENTED_EDGE('',*,*,#510,.T.);
#720=ORIENTED_EDGE('',*,*,#506,.F.);
#721=ORIENTED_EDGE('',*,*,#509,.F.);
#722=ORIENTED_EDGE('',*,*,#500,.F.);
#723=ORIENTED_EDGE('',*,*,#508,.T.);
#724=ORIENTED_EDGE('',*,*,#503,.F.);
#725=ORIENTED_EDGE('',*,*,#510,.F.);
#726=ORIENTED_EDGE('',*,*,#499,.F.);
#727=PLANE('',#837);
#728=PLANE('',#838);
#729=PLANE('',#839);
#730=PLANE('',#840);
#731=PLANE('',#841);
#732=PLANE('',#842);
#733=PLANE('',#843);
#734=PLANE('',#844);
#735=PLANE('',#845);
#736=PLANE('',#846);
#737=PLANE('',#847);
#738=PLANE('',#848);
#739=PLANE('',#849);
#740=PLANE('',#850);
#741=PLANE('',#851);
#742=PLANE('',#852);
#743=PLANE('',#853);
#744=PLANE('',#854);
#745=PLANE('',#855);
#746=PLANE('',#856);
#747=PLANE('',#857);
#748=PLANE('',#858);
#749=PLANE('',#859);
#750=PLANE('',#860);
#751=PLANE('',#861);
#752=PLANE('',#862);
#753=PLANE('',#863);
#754=PLANE('',#864);
#755=PLANE('',#865);
#756=PLANE('',#866);
#757=PLANE('',#867);
#758=PLANE('',#868);
#759=PLANE('',#869);
#760=PLANE('',#870);
#761=PLANE('',#871);
#762=PLANE('',#872);
#763=PLANE('',#873);
#764=PLANE('',#874);
#765=PLANE('',#875);
#766=PLANE('',#876);
#767=PLANE('',#877);
#768=PLANE('',#878);
#769=PLANE('',#879);
#770=PLANE('',#880);
#771=PLANE('',#881);
#772=PLANE('',#882);
#773=ADVANCED_FACE('',(#23),#727,.T.);
#774=ADVANCED_FACE('',(#24),#728,.T.);
#775=ADVANCED_FACE('',(#25),#729,.T.);
#776=ADVANCED_FACE('',(#26),#730,.T.);
#777=ADVANCED_FACE('',(#27),#731,.F.);
#778=ADVANCED_FACE('',(#28),#732,.T.);
#779=ADVANCED_FACE('',(#29),#733,.T.);
#780=ADVANCED_FACE('',(#30),#734,.T.);
#781=ADVANCED_FACE('',(#31),#735,.F.);
#782=ADVANCED_FACE('',(#32),#736,.T.);
#783=ADVANCED_FACE('',(#33),#737,.T.);
#784=ADVANCED_FACE('',(#34),#738,.T.);
#785=ADVANCED_FACE('',(#35),#739,.F.);
#786=ADVANCED_FACE('',(#36),#740,.T.);
#787=ADVANCED_FACE('',(#37),#741,.T.);
#788=ADVANCED_FACE('',(#38),#742,.T.);
#789=ADVANCED_FACE('',(#39),#743,.F.);
#790=ADVANCED_FACE('',(#40),#744,.F.);
#791=ADVANCED_FACE('',(#41),#745,.F.);
#792=ADVANCED_FACE('',(#42),#746,.F.);
#793=ADVANCED_FACE('',(#43),#747,.F.);
#794=ADVANCED_FACE('',(#44),#748,.F.);
#795=ADVANCED_FACE('',(#45),#749,.T.);
#796=ADVANCED_FACE('',(#46),#750,.F.);
#797=ADVANCED_FACE('',(#47),#751,.F.);
#798=ADVANCED_FACE('',(#48),#752,.F.);
#799=ADVANCED_FACE('',(#49),#753,.F.);
#800=ADVANCED_FACE('',(#50),#754,.F.);
#801=ADVANCED_FACE('',(#51),#755,.T.);
#802=ADVANCED_FACE('',(#52),#756,.F.);
#803=ADVANCED_FACE('',(#53),#757,.F.);
#804=ADVANCED_FACE('',(#54),#758,.F.);
#805=ADVANCED_FACE('',(#55),#759,.F.);
#806=ADVANCED_FACE('',(#56),#760,.F.);
#807=ADVANCED_FACE('',(#57),#761,.T.);
#808=ADVANCED_FACE('',(#58),#762,.F.);
#809=ADVANCED_FACE('',(#59),#763,.F.);
#810=ADVANCED_FACE('',(#60),#764,.F.);
#811=ADVANCED_FACE('',(#61),#765,.F.);
#812=ADVANCED_FACE('',(#62),#766,.F.);
#813=ADVANCED_FACE('',(#63),#767,.T.);
#814=ADVANCED_FACE('',(#64),#768,.F.);
#815=ADVANCED_FACE('',(#65),#769,.F.);
#816=ADVANCED_FACE('',(#66),#770,.F.);
#817=ADVANCED_FACE('',(#67),#771,.F.);
#818=ADVANCED_FACE('',(#68),#772,.F.);
#819=CLOSED_SHELL('',(#773,#774,#775,#776,#777,#778,#779,#780,#781,#782,
#783,#784,#785,#786,#787,#788,#789,#790,#791,#792,#793,#794));
#820=CLOSED_SHELL('',(#795,#796,#797,#798,#799,#800));
#821=CLOSED_SHELL('',(#801,#802,#803,#804,#805,#806));
#822=CLOSED_SHELL('',(#807,#808,#809,#810,#811,#812));
#823=CLOSED_SHELL('',(#813,#814,#815,#816,#817,#818));
#824=DERIVED_UNIT_ELEMENT(#826,1.);
#825=DERIVED_UNIT_ELEMENT(#1317,-3.);
#826=(
MASS_UNIT()
NAMED_UNIT(*)
SI_UNIT(.KILO.,.GRAM.)
);
#827=DERIVED_UNIT((#824,#825));
#828=MEASURE_REPRESENTATION_ITEM('density measure',
POSITIVE_RATIO_MEASURE(7850.),#827);
#829=PROPERTY_DEFINITION_REPRESENTATION(#834,#831);
#830=PROPERTY_DEFINITION_REPRESENTATION(#835,#832);
#831=REPRESENTATION('material name',(#833),#1314);
#832=REPRESENTATION('density',(#828),#1314);
#833=DESCRIPTIVE_REPRESENTATION_ITEM('Steel','Steel');
#834=PROPERTY_DEFINITION('material property','material name',#1324);
#835=PROPERTY_DEFINITION('material property','density of part',#1324);
#836=AXIS2_PLACEMENT_3D('',#1085,#883,#884);
#837=AXIS2_PLACEMENT_3D('',#1086,#885,#886);
#838=AXIS2_PLACEMENT_3D('',#1095,#891,#892);
#839=AXIS2_PLACEMENT_3D('',#1101,#896,#897);
#840=AXIS2_PLACEMENT_3D('',#1107,#901,#902);
#841=AXIS2_PLACEMENT_3D('',#1141,#920,#921);
#842=AXIS2_PLACEMENT_3D('',#1145,#924,#925);
#843=AXIS2_PLACEMENT_3D('',#1149,#928,#929);
#844=AXIS2_PLACEMENT_3D('',#1153,#932,#933);
#845=AXIS2_PLACEMENT_3D('',#1157,#936,#937);
#846=AXIS2_PLACEMENT_3D('',#1161,#940,#941);
#847=AXIS2_PLACEMENT_3D('',#1167,#945,#946);
#848=AXIS2_PLACEMENT_3D('',#1173,#950,#951);
#849=AXIS2_PLACEMENT_3D('',#1175,#953,#954);
#850=AXIS2_PLACEMENT_3D('',#1179,#957,#958);
#851=AXIS2_PLACEMENT_3D('',#1185,#962,#963);
#852=AXIS2_PLACEMENT_3D('',#1189,#966,#967);
#853=AXIS2_PLACEMENT_3D('',#1191,#969,#970);
#854=AXIS2_PLACEMENT_3D('',#1195,#973,#974);
#855=AXIS2_PLACEMENT_3D('',#1202,#979,#980);
#856=AXIS2_PLACEMENT_3D('',#1204,#982,#983);
#857=AXIS2_PLACEMENT_3D('',#1206,#985,#986);
#858=AXIS2_PLACEMENT_3D('',#1207,#987,#988);
#859=AXIS2_PLACEMENT_3D('',#1208,#989,#990);
#860=AXIS2_PLACEMENT_3D('',#1217,#995,#996);
#861=AXIS2_PLACEMENT_3D('',#1226,#1001,#1002);
#862=AXIS2_PLACEMENT_3D('',#1229,#1005,#1006);
#863=AXIS2_PLACEMENT_3D('',#1231,#1008,#1009);
#864=AXIS2_PLACEMENT_3D('',#1233,#1011,#1012);
#865=AXIS2_PLACEMENT_3D('',#1234,#1013,#1014);
#866=AXIS2_PLACEMENT_3D('',#1243,#1019,#1020);
#867=AXIS2_PLACEMENT_3D('',#1252,#1025,#1026);
#868=AXIS2_PLACEMENT_3D('',#1255,#1029,#1030);
#869=AXIS2_PLACEMENT_3D('',#1257,#1032,#1033);
#870=AXIS2_PLACEMENT_3D('',#1259,#1035,#1036);
#871=AXIS2_PLACEMENT_3D('',#1260,#1037,#1038);
#872=AXIS2_PLACEMENT_3D('',#1269,#1043,#1044);
#873=AXIS2_PLACEMENT_3D('',#1278,#1049,#1050);
#874=AXIS2_PLACEMENT_3D('',#1281,#1053,#1054);
#875=AXIS2_PLACEMENT_3D('',#1283,#1056,#1057);
#876=AXIS2_PLACEMENT_3D('',#1285,#1059,#1060);
#877=AXIS2_PLACEMENT_3D('',#1286,#1061,#1062);
#878=AXIS2_PLACEMENT_3D('',#1295,#1067,#1068);
#879=AXIS2_PLACEMENT_3D('',#1304,#1073,#1074);
#880=AXIS2_PLACEMENT_3D('',#1307,#1077,#1078);
#881=AXIS2_PLACEMENT_3D('',#1309,#1080,#1081);
#882=AXIS2_PLACEMENT_3D('',#1311,#1083,#1084);
#883=DIRECTION('axis',(0.,0.,1.));
#884=DIRECTION('refdir',(1.,0.,0.));
#885=DIRECTION('center_axis',(0.,1.,0.));
#886=DIRECTION('ref_axis',(0.,0.,1.));
#887=DIRECTION('',(0.,0.,-1.));
#888=DIRECTION('',(-1.,0.,0.));
#889=DIRECTION('',(0.,0.,1.));
#890=DIRECTION('',(1.,0.,0.));
#891=DIRECTION('center_axis',(1.,0.,0.));
#892=DIRECTION('ref_axis',(0.,0.,-1.));
#893=DIRECTION('',(0.,0.,-1.));
#894=DIRECTION('',(0.,1.,0.));
#895=DIRECTION('',(0.,-1.,0.));
#896=DIRECTION('center_axis',(0.,-1.,0.));
#897=DIRECTION('ref_axis',(0.,0.,-1.));
#898=DIRECTION('',(0.,0.,-1.));
#899=DIRECTION('',(1.,0.,0.));
#900=DIRECTION('',(-1.,0.,0.));
#901=DIRECTION('center_axis',(0.,0.,1.));
#902=DIRECTION('ref_axis',(1.,0.,0.));
#903=DIRECTION('',(0.,1.,0.));
#904=DIRECTION('',(-1.,0.,0.));
#905=DIRECTION('',(0.,1.,0.));
#906=DIRECTION('',(1.,0.,0.));
#907=DIRECTION('',(0.,1.,0.));
#908=DIRECTION('',(-1.,0.,0.));
#909=DIRECTION('',(0.,-1.,0.));
#910=DIRECTION('',(1.,0.,0.));
#911=DIRECTION('',(0.,-1.,0.));
#912=DIRECTION('',(-1.,0.,0.));
#913=DIRECTION('',(0.,-1.,0.));
#914=DIRECTION('',(1.,0.,0.));
#915=DIRECTION('',(0.,-1.,0.));
#916=DIRECTION('',(-1.,0.,0.));
#917=DIRECTION('',(0.,-1.,0.));
#918=DIRECTION('',(1.,0.,0.));
#919=DIRECTION('',(0.,1.,0.));
#920=DIRECTION('center_axis',(-1.,0.,0.));
#921=DIRECTION('ref_axis',(0.,0.,1.));
#922=DIRECTION('',(0.,-1.,0.));
#923=DIRECTION('',(0.,0.,1.));
#924=DIRECTION('center_axis',(0.,1.,0.));
#925=DIRECTION('ref_axis',(0.,0.,1.));
#926=DIRECTION('',(0.,0.,-1.));
#927=DIRECTION('',(1.,0.,0.));
#928=DIRECTION('center_axis',(1.,0.,0.));
#929=DIRECTION('ref_axis',(0.,0.,-1.));
#930=DIRECTION('',(0.,0.,-1.));
#931=DIRECTION('',(0.,-1.,0.));
#932=DIRECTION('center_axis',(0.,-1.,0.));
#933=DIRECTION('ref_axis',(0.,0.,-1.));
#934=DIRECTION('',(0.,0.,-1.));
#935=DIRECTION('',(-1.,0.,0.));
#936=DIRECTION('center_axis',(-1.,0.,0.));
#937=DIRECTION('ref_axis',(0.,0.,1.));
#938=DIRECTION('',(0.,-1.,0.));
#939=DIRECTION('',(0.,0.,-1.));
#940=DIRECTION('center_axis',(0.,1.,0.));
#941=DIRECTION('ref_axis',(0.,0.,1.));
#942=DIRECTION('',(0.,0.,-1.));
#943=DIRECTION('',(0.,0.,-1.));
#944=DIRECTION('',(1.,0.,0.));
#945=DIRECTION('center_axis',(0.,-1.,0.));
#946=DIRECTION('ref_axis',(0.,0.,-1.));
#947=DIRECTION('',(0.,0.,-1.));
#948=DIRECTION('',(0.,0.,1.));
#949=DIRECTION('',(-1.,0.,0.));
#950=DIRECTION('center_axis',(-1.,0.,0.));
#951=DIRECTION('ref_axis',(0.,0.,1.));
#952=DIRECTION('',(0.,1.,0.));
#953=DIRECTION('center_axis',(1.,0.,0.));
#954=DIRECTION('ref_axis',(0.,0.,-1.));
#955=DIRECTION('',(0.,1.,0.));
#956=DIRECTION('',(0.,0.,1.));
#957=DIRECTION('center_axis',(0.,1.,0.));
#958=DIRECTION('ref_axis',(0.,0.,1.));
#959=DIRECTION('',(0.,0.,-1.));
#960=DIRECTION('',(0.,0.,-1.));
#961=DIRECTION('',(1.,0.,0.));
#962=DIRECTION('center_axis',(0.,-1.,0.));
#963=DIRECTION('ref_axis',(0.,0.,-1.));
#964=DIRECTION('',(0.,0.,-1.));
#965=DIRECTION('',(-1.,0.,0.));
#966=DIRECTION('center_axis',(-1.,0.,0.));
#967=DIRECTION('ref_axis',(0.,0.,1.));
#968=DIRECTION('',(0.,1.,0.));
#969=DIRECTION('center_axis',(1.,0.,0.));
#970=DIRECTION('ref_axis',(0.,0.,-1.));
#971=DIRECTION('',(0.,1.,0.));
#972=DIRECTION('',(0.,0.,-1.));
#973=DIRECTION('center_axis',(0.,0.,1.));
#974=DIRECTION('ref_axis',(1.,0.,0.));
#975=DIRECTION('',(0.,-1.,0.));
#976=DIRECTION('',(-1.,0.,0.));
#977=DIRECTION('',(0.,1.,0.));
#978=DIRECTION('',(1.,0.,0.));
#979=DIRECTION('center_axis',(0.,1.,0.));
#980=DIRECTION('ref_axis',(0.,0.,1.));
#981=DIRECTION('',(0.,0.,-1.));
#982=DIRECTION('center_axis',(1.,0.,0.));
#983=DIRECTION('ref_axis',(0.,0.,-1.));
#984=DIRECTION('',(0.,0.,-1.));
#985=DIRECTION('center_axis',(0.,-1.,0.));
#986=DIRECTION('ref_axis',(0.,0.,-1.));
#987=DIRECTION('center_axis',(-1.,0.,0.));
#988=DIRECTION('ref_axis',(0.,0.,1.));
#989=DIRECTION('center_axis',(0.,0.,1.));
#990=DIRECTION('ref_axis',(1.,0.,0.));
#991=DIRECTION('',(0.,1.,0.));
#992=DIRECTION('',(-1.,0.,0.));
#993=DIRECTION('',(0.,-1.,0.));
#994=DIRECTION('',(1.,0.,0.));
#995=DIRECTION('center_axis',(0.,0.,1.));
#996=DIRECTION('ref_axis',(1.,0.,0.));
#997=DIRECTION('',(0.,-1.,0.));
#998=DIRECTION('',(-1.,0.,0.));
#999=DIRECTION('',(0.,1.,0.));
#1000=DIRECTION('',(1.,0.,0.));
#1001=DIRECTION('center_axis',(0.,1.,0.));
#1002=DIRECTION('ref_axis',(0.,0.,1.));
#1003=DIRECTION('',(0.,0.,-1.));
#1004=DIRECTION('',(0.,0.,-1.));
#1005=DIRECTION('center_axis',(1.,0.,0.));
#1006=DIRECTION('ref_axis',(0.,0.,-1.));
#1007=DIRECTION('',(0.,0.,-1.));
#1008=DIRECTION('center_axis',(0.,-1.,0.));
#1009=DIRECTION('ref_axis',(0.,0.,-1.));
#1010=DIRECTION('',(0.,0.,-1.));
#1011=DIRECTION('center_axis',(-1.,0.,0.));
#1012=DIRECTION('ref_axis',(0.,0.,1.));
#1013=DIRECTION('center_axis',(0.,0.,1.));
#1014=DIRECTION('ref_axis',(1.,0.,0.));
#1015=DIRECTION('',(0.,1.,0.));
#1016=DIRECTION('',(-1.,0.,0.));
#1017=DIRECTION('',(0.,-1.,0.));
#1018=DIRECTION('',(1.,0.,0.));
#1019=DIRECTION('center_axis',(0.,0.,1.));
#1020=DIRECTION('ref_axis',(1.,0.,0.));
#1021=DIRECTION('',(0.,-1.,0.));
#1022=DIRECTION('',(-1.,0.,0.));
#1023=DIRECTION('',(0.,1.,0.));
#1024=DIRECTION('',(1.,0.,0.));
#1025=DIRECTION('center_axis',(0.,1.,0.));
#1026=DIRECTION('ref_axis',(0.,0.,1.));
#1027=DIRECTION('',(0.,0.,-1.));
#1028=DIRECTION('',(0.,0.,-1.));
#1029=DIRECTION('center_axis',(1.,0.,0.));
#1030=DIRECTION('ref_axis',(0.,0.,-1.));
#1031=DIRECTION('',(0.,0.,-1.));
#1032=DIRECTION('center_axis',(0.,-1.,0.));
#1033=DIRECTION('ref_axis',(0.,0.,-1.));
#1034=DIRECTION('',(0.,0.,-1.));
#1035=DIRECTION('center_axis',(-1.,0.,0.));
#1036=DIRECTION('ref_axis',(0.,0.,1.));
#1037=DIRECTION('center_axis',(0.,0.,1.));
#1038=DIRECTION('ref_axis',(1.,0.,0.));
#1039=DIRECTION('',(0.,1.,0.));
#1040=DIRECTION('',(-1.,0.,0.));
#1041=DIRECTION('',(0.,-1.,0.));
#1042=DIRECTION('',(1.,0.,0.));
#1043=DIRECTION('center_axis',(0.,0.,1.));
#1044=DIRECTION('ref_axis',(1.,0.,0.));
#1045=DIRECTION('',(0.,-1.,0.));
#1046=DIRECTION('',(-1.,0.,0.));
#1047=DIRECTION('',(0.,1.,0.));
#1048=DIRECTION('',(1.,0.,0.));
#1049=DIRECTION('center_axis',(0.,1.,0.));
#1050=DIRECTION('ref_axis',(0.,0.,1.));
#1051=DIRECTION('',(0.,0.,-1.));
#1052=DIRECTION('',(0.,0.,-1.));
#1053=DIRECTION('center_axis',(1.,0.,0.));
#1054=DIRECTION('ref_axis',(0.,0.,-1.));
#1055=DIRECTION('',(0.,0.,-1.));
#1056=DIRECTION('center_axis',(0.,-1.,0.));
#1057=DIRECTION('ref_axis',(0.,0.,-1.));
#1058=DIRECTION('',(0.,0.,-1.));
#1059=DIRECTION('center_axis',(-1.,0.,0.));
#1060=DIRECTION('ref_axis',(0.,0.,1.));
#1061=DIRECTION('center_axis',(0.,0.,1.));
#1062=DIRECTION('ref_axis',(1.,0.,0.));
#1063=DIRECTION('',(0.,1.,0.));
#1064=DIRECTION('',(-1.,0.,0.));
#1065=DIRECTION('',(0.,-1.,0.));
#1066=DIRECTION('',(1.,0.,0.));
#1067=DIRECTION('center_axis',(0.,0.,1.));
#1068=DIRECTION('ref_axis',(1.,0.,0.));
#1069=DIRECTION('',(0.,-1.,0.));
#1070=DIRECTION('',(-1.,0.,0.));
#1071=DIRECTION('',(0.,1.,0.));
#1072=DIRECTION('',(1.,0.,0.));
#1073=DIRECTION('center_axis',(0.,1.,0.));
#1074=DIRECTION('ref_axis',(0.,0.,1.));
#1075=DIRECTION('',(0.,0.,-1.));
#1076=DIRECTION('',(0.,0.,-1.));
#1077=DIRECTION('center_axis',(1.,0.,0.));
#1078=DIRECTION('ref_axis',(0.,0.,-1.));
#1079=DIRECTION('',(0.,0.,-1.));
#1080=DIRECTION('center_axis',(0.,-1.,0.));
#1081=DIRECTION('ref_axis',(0.,0.,-1.));
#1082=DIRECTION('',(0.,0.,-1.));
#1083=DIRECTION('center_axis',(-1.,0.,0.));
#1084=DIRECTION('ref_axis',(0.,0.,1.));
#1085=CARTESIAN_POINT('',(0.,0.,0.));
#1086=CARTESIAN_POINT('Origin',(0.6,-0.7,0.225));
#1087=CARTESIAN_POINT('',(0.45,-0.7,0.45));
#1088=CARTESIAN_POINT('',(0.45,-0.7,0.));
#1089=CARTESIAN_POINT('',(0.45,-0.7,0.225));
#1090=CARTESIAN_POINT('',(0.75,-0.7,0.45));
#1091=CARTESIAN_POINT('',(0.3,-0.7,0.45));
#1092=CARTESIAN_POINT('',(0.75,-0.7,0.));
#1093=CARTESIAN_POINT('',(0.75,-0.7,0.225));
#1094=CARTESIAN_POINT('',(0.3,-0.7,0.));
#1095=CARTESIAN_POINT('Origin',(0.45,-0.5,0.225));
#1096=CARTESIAN_POINT('',(0.45,-0.3,0.45));
#1097=CARTESIAN_POINT('',(0.45,-0.3,0.));
#1098=CARTESIAN_POINT('',(0.45,-0.3,0.225));
#1099=CARTESIAN_POINT('',(0.45,-0.25,0.45));
#1100=CARTESIAN_POINT('',(0.45,-0.25,0.));
#1101=CARTESIAN_POINT('Origin',(0.6,-0.3,0.225));
#1102=CARTESIAN_POINT('',(0.75,-0.3,0.45));
#1103=CARTESIAN_POINT('',(0.75,-0.3,0.));
#1104=CARTESIAN_POINT('',(0.75,-0.3,0.225));
#1105=CARTESIAN_POINT('',(0.3,-0.3,0.45));
#1106=CARTESIAN_POINT('',(0.3,-0.3,0.));
#1107=CARTESIAN_POINT('Origin',(0.,0.,0.45));
#1108=CARTESIAN_POINT('',(0.75,0.3,0.45));
#1109=CARTESIAN_POINT('',(0.75,0.,0.45));
#1110=CARTESIAN_POINT('',(0.45,0.3,0.45));
#1111=CARTESIAN_POINT('',(0.3,0.3,0.45));
#1112=CARTESIAN_POINT('',(0.45,0.7,0.45));
#1113=CARTESIAN_POINT('',(0.45,0.25,0.45));
#1114=CARTESIAN_POINT('',(0.75,0.7,0.45));
#1115=CARTESIAN_POINT('',(0.3,0.7,0.45));
#1116=CARTESIAN_POINT('',(0.75,0.8,0.45));
#1117=CARTESIAN_POINT('',(0.75,0.,0.45));
#1118=CARTESIAN_POINT('',(-0.75,0.8,0.45));
#1119=CARTESIAN_POINT('',(0.,0.8,0.45));
#1120=CARTESIAN_POINT('',(-0.75,0.7,0.45));
#1121=CARTESIAN_POINT('',(-0.75,0.,0.45));
#1122=CARTESIAN_POINT('',(-0.45,0.7,0.45));
#1123=CARTESIAN_POINT('',(-0.3,0.7,0.45));
#1124=CARTESIAN_POINT('',(-0.45,0.3,0.45));
#1125=CARTESIAN_POINT('',(-0.45,0.25,0.45));
#1126=CARTESIAN_POINT('',(-0.75,0.3,0.45));
#1127=CARTESIAN_POINT('',(-0.3,0.3,0.45));
#1128=CARTESIAN_POINT('',(-0.75,-0.3,0.45));
#1129=CARTESIAN_POINT('',(-0.75,0.,0.45));
#1130=CARTESIAN_POINT('',(-0.45,-0.3,0.45));
#1131=CARTESIAN_POINT('',(-0.3,-0.3,0.45));
#1132=CARTESIAN_POINT('',(-0.45,-0.7,0.45));
#1133=CARTESIAN_POINT('',(-0.45,-0.25,0.45));
#1134=CARTESIAN_POINT('',(-0.75,-0.7,0.45));
#1135=CARTESIAN_POINT('',(-0.3,-0.7,0.45));
#1136=CARTESIAN_POINT('',(-0.75,-0.8,0.45));
#1137=CARTESIAN_POINT('',(-0.75,0.,0.45));
#1138=CARTESIAN_POINT('',(0.75,-0.8,0.45));
#1139=CARTESIAN_POINT('',(0.,-0.8,0.45));
#1140=CARTESIAN_POINT('',(0.75,0.,0.45));
#1141=CARTESIAN_POINT('Origin',(0.75,0.,0.225));
#1142=CARTESIAN_POINT('',(0.75,0.3,0.));
#1143=CARTESIAN_POINT('',(0.75,0.,0.));
#1144=CARTESIAN_POINT('',(0.75,0.3,0.225));
#1145=CARTESIAN_POINT('Origin',(0.6,0.3,0.225));
#1146=CARTESIAN_POINT('',(0.45,0.3,0.));
#1147=CARTESIAN_POINT('',(0.45,0.3,0.225));
#1148=CARTESIAN_POINT('',(0.3,0.3,0.));
#1149=CARTESIAN_POINT('Origin',(0.45,0.5,0.225));
#1150=CARTESIAN_POINT('',(0.45,0.7,0.));
#1151=CARTESIAN_POINT('',(0.45,0.7,0.225));
#1152=CARTESIAN_POINT('',(0.45,0.25,0.));
#1153=CARTESIAN_POINT('Origin',(0.6,0.7,0.225));
#1154=CARTESIAN_POINT('',(0.75,0.7,0.));
#1155=CARTESIAN_POINT('',(0.75,0.7,0.225));
#1156=CARTESIAN_POINT('',(0.3,0.7,0.));
#1157=CARTESIAN_POINT('Origin',(0.75,0.,0.225));
#1158=CARTESIAN_POINT('',(0.75,0.8,0.));
#1159=CARTESIAN_POINT('',(0.75,0.,0.));
#1160=CARTESIAN_POINT('',(0.75,0.8,0.225));
#1161=CARTESIAN_POINT('Origin',(-0.6,0.3,0.225));
#1162=CARTESIAN_POINT('',(-0.75,0.3,0.));
#1163=CARTESIAN_POINT('',(-0.75,0.3,0.225));
#1164=CARTESIAN_POINT('',(-0.45,0.3,0.));
#1165=CARTESIAN_POINT('',(-0.45,0.3,0.225));
#1166=CARTESIAN_POINT('',(-0.3,0.3,0.));
#1167=CARTESIAN_POINT('Origin',(-0.6,0.7,0.225));
#1168=CARTESIAN_POINT('',(-0.45,0.7,0.));
#1169=CARTESIAN_POINT('',(-0.45,0.7,0.225));
#1170=CARTESIAN_POINT('',(-0.75,0.7,0.));
#1171=CARTESIAN_POINT('',(-0.75,0.7,0.225));
#1172=CARTESIAN_POINT('',(-0.3,0.7,0.));
#1173=CARTESIAN_POINT('Origin',(-0.45,0.5,0.225));
#1174=CARTESIAN_POINT('',(-0.45,0.25,0.));
#1175=CARTESIAN_POINT('Origin',(-0.75,0.,0.225));
#1176=CARTESIAN_POINT('',(-0.75,-0.3,0.));
#1177=CARTESIAN_POINT('',(-0.75,0.,0.));
#1178=CARTESIAN_POINT('',(-0.75,-0.3,0.225));
#1179=CARTESIAN_POINT('Origin',(-0.6,-0.7,0.225));
#1180=CARTESIAN_POINT('',(-0.75,-0.7,0.));
#1181=CARTESIAN_POINT('',(-0.75,-0.7,0.225));
#1182=CARTESIAN_POINT('',(-0.45,-0.7,0.));
#1183=CARTESIAN_POINT('',(-0.45,-0.7,0.225));
#1184=CARTESIAN_POINT('',(-0.3,-0.7,0.));
#1185=CARTESIAN_POINT('Origin',(-0.6,-0.3,0.225));
#1186=CARTESIAN_POINT('',(-0.45,-0.3,0.));
#1187=CARTESIAN_POINT('',(-0.45,-0.3,0.225));
#1188=CARTESIAN_POINT('',(-0.3,-0.3,0.));
#1189=CARTESIAN_POINT('Origin',(-0.45,-0.5,0.225));
#1190=CARTESIAN_POINT('',(-0.45,-0.25,0.));
#1191=CARTESIAN_POINT('Origin',(-0.75,0.,0.225));
#1192=CARTESIAN_POINT('',(-0.75,-0.8,0.));
#1193=CARTESIAN_POINT('',(-0.75,0.,0.));
#1194=CARTESIAN_POINT('',(-0.75,-0.8,0.225));
#1195=CARTESIAN_POINT('Origin',(0.,0.,0.));
#1196=CARTESIAN_POINT('',(0.75,-0.8,0.));
#1197=CARTESIAN_POINT('',(0.75,0.,0.));
#1198=CARTESIAN_POINT('',(0.,-0.8,0.));
#1199=CARTESIAN_POINT('',(-0.75,0.8,0.));
#1200=CARTESIAN_POINT('',(-0.75,0.,0.));
#1201=CARTESIAN_POINT('',(0.,0.8,0.));
#1202=CARTESIAN_POINT('Origin',(0.,-0.8,0.225));
#1203=CARTESIAN_POINT('',(0.75,-0.8,0.225));
#1204=CARTESIAN_POINT('Origin',(-0.75,0.,0.225));
#1205=CARTESIAN_POINT('',(-0.75,0.8,0.225));
#1206=CARTESIAN_POINT('Origin',(0.,0.8,0.225));
#1207=CARTESIAN_POINT('Origin',(0.75,0.,0.225));
#1208=CARTESIAN_POINT('Origin',(-0.6,-0.5,0.45));
#1209=CARTESIAN_POINT('',(-0.45,-0.7,0.45));
#1210=CARTESIAN_POINT('',(-0.45,-0.3,0.45));
#1211=CARTESIAN_POINT('',(-0.45,-0.5,0.45));
#1212=CARTESIAN_POINT('',(-0.75,-0.3,0.45));
#1213=CARTESIAN_POINT('',(-0.6,-0.3,0.45));
#1214=CARTESIAN_POINT('',(-0.75,-0.7,0.45));
#1215=CARTESIAN_POINT('',(-0.75,-0.5,0.45));
#1216=CARTESIAN_POINT('',(-0.6,-0.7,0.45));
#1217=CARTESIAN_POINT('Origin',(-0.6,-0.5,0.));
#1218=CARTESIAN_POINT('',(-0.45,-0.3,0.));
#1219=CARTESIAN_POINT('',(-0.45,-0.7,0.));
#1220=CARTESIAN_POINT('',(-0.45,-0.5,0.));
#1221=CARTESIAN_POINT('',(-0.75,-0.7,0.));
#1222=CARTESIAN_POINT('',(-0.6,-0.7,0.));
#1223=CARTESIAN_POINT('',(-0.75,-0.3,0.));
#1224=CARTESIAN_POINT('',(-0.75,-0.5,0.));
#1225=CARTESIAN_POINT('',(-0.6,-0.3,0.));
#1226=CARTESIAN_POINT('Origin',(-0.6,-0.7,0.225));
#1227=CARTESIAN_POINT('',(-0.75,-0.7,0.225));
#1228=CARTESIAN_POINT('',(-0.45,-0.7,0.225));
#1229=CARTESIAN_POINT('Origin',(-0.75,-0.5,0.225));
#1230=CARTESIAN_POINT('',(-0.75,-0.3,0.225));
#1231=CARTESIAN_POINT('Origin',(-0.6,-0.3,0.225));
#1232=CARTESIAN_POINT('',(-0.45,-0.3,0.225));
#1233=CARTESIAN_POINT('Origin',(-0.45,-0.5,0.225));
#1234=CARTESIAN_POINT('Origin',(-0.6,0.5,0.45));
#1235=CARTESIAN_POINT('',(-0.45,0.3,0.45));
#1236=CARTESIAN_POINT('',(-0.45,0.7,0.45));
#1237=CARTESIAN_POINT('',(-0.45,0.5,0.45));
#1238=CARTESIAN_POINT('',(-0.75,0.7,0.45));
#1239=CARTESIAN_POINT('',(-0.6,0.7,0.45));
#1240=CARTESIAN_POINT('',(-0.75,0.3,0.45));
#1241=CARTESIAN_POINT('',(-0.75,0.5,0.45));
#1242=CARTESIAN_POINT('',(-0.6,0.3,0.45));
#1243=CARTESIAN_POINT('Origin',(-0.6,0.5,0.));
#1244=CARTESIAN_POINT('',(-0.45,0.7,0.));
#1245=CARTESIAN_POINT('',(-0.45,0.3,0.));
#1246=CARTESIAN_POINT('',(-0.45,0.5,0.));
#1247=CARTESIAN_POINT('',(-0.75,0.3,0.));
#1248=CARTESIAN_POINT('',(-0.6,0.3,0.));
#1249=CARTESIAN_POINT('',(-0.75,0.7,0.));
#1250=CARTESIAN_POINT('',(-0.75,0.5,0.));
#1251=CARTESIAN_POINT('',(-0.6,0.7,0.));
#1252=CARTESIAN_POINT('Origin',(-0.6,0.3,0.225));
#1253=CARTESIAN_POINT('',(-0.75,0.3,0.225));
#1254=CARTESIAN_POINT('',(-0.45,0.3,0.225));
#1255=CARTESIAN_POINT('Origin',(-0.75,0.5,0.225));
#1256=CARTESIAN_POINT('',(-0.75,0.7,0.225));
#1257=CARTESIAN_POINT('Origin',(-0.6,0.7,0.225));
#1258=CARTESIAN_POINT('',(-0.45,0.7,0.225));
#1259=CARTESIAN_POINT('Origin',(-0.45,0.5,0.225));
#1260=CARTESIAN_POINT('Origin',(0.6,0.5,0.45));
#1261=CARTESIAN_POINT('',(0.75,0.3,0.45));
#1262=CARTESIAN_POINT('',(0.75,0.7,0.45));
#1263=CARTESIAN_POINT('',(0.75,0.5,0.45));
#1264=CARTESIAN_POINT('',(0.45,0.7,0.45));
#1265=CARTESIAN_POINT('',(0.6,0.7,0.45));
#1266=CARTESIAN_POINT('',(0.45,0.3,0.45));
#1267=CARTESIAN_POINT('',(0.45,0.5,0.45));
#1268=CARTESIAN_POINT('',(0.6,0.3,0.45));
#1269=CARTESIAN_POINT('Origin',(0.6,0.5,0.));
#1270=CARTESIAN_POINT('',(0.75,0.7,0.));
#1271=CARTESIAN_POINT('',(0.75,0.3,0.));
#1272=CARTESIAN_POINT('',(0.75,0.5,0.));
#1273=CARTESIAN_POINT('',(0.45,0.3,0.));
#1274=CARTESIAN_POINT('',(0.6,0.3,0.));
#1275=CARTESIAN_POINT('',(0.45,0.7,0.));
#1276=CARTESIAN_POINT('',(0.45,0.5,0.));
#1277=CARTESIAN_POINT('',(0.6,0.7,0.));
#1278=CARTESIAN_POINT('Origin',(0.6,0.3,0.225));
#1279=CARTESIAN_POINT('',(0.45,0.3,0.225));
#1280=CARTESIAN_POINT('',(0.75,0.3,0.225));
#1281=CARTESIAN_POINT('Origin',(0.45,0.5,0.225));
#1282=CARTESIAN_POINT('',(0.45,0.7,0.225));
#1283=CARTESIAN_POINT('Origin',(0.6,0.7,0.225));
#1284=CARTESIAN_POINT('',(0.75,0.7,0.225));
#1285=CARTESIAN_POINT('Origin',(0.75,0.5,0.225));
#1286=CARTESIAN_POINT('Origin',(0.6,-0.5,0.45));
#1287=CARTESIAN_POINT('',(0.75,-0.7,0.45));
#1288=CARTESIAN_POINT('',(0.75,-0.3,0.45));
#1289=CARTESIAN_POINT('',(0.75,-0.5,0.45));
#1290=CARTESIAN_POINT('',(0.45,-0.3,0.45));
#1291=CARTESIAN_POINT('',(0.6,-0.3,0.45));
#1292=CARTESIAN_POINT('',(0.45,-0.7,0.45));
#1293=CARTESIAN_POINT('',(0.45,-0.5,0.45));
#1294=CARTESIAN_POINT('',(0.6,-0.7,0.45));
#1295=CARTESIAN_POINT('Origin',(0.6,-0.5,0.));
#1296=CARTESIAN_POINT('',(0.75,-0.3,0.));
#1297=CARTESIAN_POINT('',(0.75,-0.7,0.));
#1298=CARTESIAN_POINT('',(0.75,-0.5,0.));
#1299=CARTESIAN_POINT('',(0.45,-0.7,0.));
#1300=CARTESIAN_POINT('',(0.6,-0.7,0.));
#1301=CARTESIAN_POINT('',(0.45,-0.3,0.));
#1302=CARTESIAN_POINT('',(0.45,-0.5,0.));
#1303=CARTESIAN_POINT('',(0.6,-0.3,0.));
#1304=CARTESIAN_POINT('Origin',(0.6,-0.7,0.225));
#1305=CARTESIAN_POINT('',(0.45,-0.7,0.225));
#1306=CARTESIAN_POINT('',(0.75,-0.7,0.225));
#1307=CARTESIAN_POINT('Origin',(0.45,-0.5,0.225));
#1308=CARTESIAN_POINT('',(0.45,-0.3,0.225));
#1309=CARTESIAN_POINT('Origin',(0.6,-0.3,0.225));
#1310=CARTESIAN_POINT('',(0.75,-0.3,0.225));
#1311=CARTESIAN_POINT('Origin',(0.75,-0.5,0.225));
#1312=UNCERTAINTY_MEASURE_WITH_UNIT(LENGTH_MEASURE(0.01),#1316,
'DISTANCE_ACCURACY_VALUE',
'Maximum model space distance between geometric entities at asserted c
onnectivities');
#1313=UNCERTAINTY_MEASURE_WITH_UNIT(LENGTH_MEASURE(0.01),#1316,
'DISTANCE_ACCURACY_VALUE',
'Maximum model space distance between geometric entities at asserted c
onnectivities');
#1314=(
GEOMETRIC_REPRESENTATION_CONTEXT(3)
GLOBAL_UNCERTAINTY_ASSIGNED_CONTEXT((#1312))
GLOBAL_UNIT_ASSIGNED_CONTEXT((#1316,#1318,#1319))
REPRESENTATION_CONTEXT('','3D')
);
#1315=(
GEOMETRIC_REPRESENTATION_CONTEXT(3)
GLOBAL_UNCERTAINTY_ASSIGNED_CONTEXT((#1313))
GLOBAL_UNIT_ASSIGNED_CONTEXT((#1316,#1318,#1319))
REPRESENTATION_CONTEXT('','3D')
);
#1316=(
LENGTH_UNIT()
NAMED_UNIT(*)
SI_UNIT(.MILLI.,.METRE.)
);
#1317=(
LENGTH_UNIT()
NAMED_UNIT(*)
SI_UNIT($,.METRE.)
);
#1318=(
NAMED_UNIT(*)
PLANE_ANGLE_UNIT()
SI_UNIT($,.RADIAN.)
);
#1319=(
NAMED_UNIT(*)
SI_UNIT($,.STERADIAN.)
SOLID_ANGLE_UNIT()
);
#1320=SHAPE_DEFINITION_REPRESENTATION(#1321,#1322);
#1321=PRODUCT_DEFINITION_SHAPE('',$,#1324);
#1322=SHAPE_REPRESENTATION('',(#836),#1314);
#1323=PRODUCT_DEFINITION_CONTEXT('part definition',#1328,'design');
#1324=PRODUCT_DEFINITION('(Unsaved)','(Unsaved)',#1325,#1323);
#1325=PRODUCT_DEFINITION_FORMATION('',$,#1330);
#1326=PRODUCT_RELATED_PRODUCT_CATEGORY('(Unsaved)','(Unsaved)',(#1330));
#1327=APPLICATION_PROTOCOL_DEFINITION('international standard',
'automotive_design',2009,#1328);
#1328=APPLICATION_CONTEXT(
'Core Data for Automotive Mechanical Design Process');
#1329=PRODUCT_CONTEXT('part definition',#1328,'mechanical');
#1330=PRODUCT('(Unsaved)','(Unsaved)',
'Body1.50x1.60x0.45mm. End contacts approximate, based on Vishay28950 
drawing; not manufacturer-supplied CAD.',(#1329));
#1331=PRESENTATION_STYLE_ASSIGNMENT((#1332));
#1332=SURFACE_STYLE_USAGE(.BOTH.,#1333);
#1333=SURFACE_SIDE_STYLE('',(#1334));
#1334=SURFACE_STYLE_FILL_AREA(#1335);
#1335=FILL_AREA_STYLE('Steel - Satin',(#1336));
#1336=FILL_AREA_STYLE_COLOUR('Steel - Satin',#1337);
#1337=COLOUR_RGB('Steel - Satin',0.627450980392157,0.627450980392157,0.627450980392157);
ENDSEC;
END-ISO-10303-21;
