%TF.GenerationSoftware,KiCad,Pcbnew,10.0.6*%
%TF.CreationDate,2026-09-08T02:08:44+02:00*%
%TF.ProjectId,Trimix_Analyzer,5472696d-6978-45f4-916e-616c797a6572,A3-placement-01*%
%TF.SameCoordinates,Original*%
%TF.FileFunction,Copper,L1,Top*%
%TF.FilePolarity,Positive*%
%FSLAX46Y46*%
G04 Gerber Fmt 4.6, Leading zero omitted, Abs format (unit mm)*
G04 Created by KiCad (PCBNEW 10.0.6) date 2026-09-08 02:08:44*
%MOMM*%
%LPD*%
G01*
G04 APERTURE LIST*
G04 Aperture macros list*
%AMRoundRect*
0 Rectangle with rounded corners*
0 $1 Rounding radius*
0 $2 $3 $4 $5 $6 $7 $8 $9 X,Y pos of 4 corners*
0 Add a 4 corners polygon primitive as box body*
4,1,4,$2,$3,$4,$5,$6,$7,$8,$9,$2,$3,0*
0 Add four circle primitives for the rounded corners*
1,1,$1+$1,$2,$3*
1,1,$1+$1,$4,$5*
1,1,$1+$1,$6,$7*
1,1,$1+$1,$8,$9*
0 Add four rect primitives between the rounded corners*
20,1,$1+$1,$2,$3,$4,$5,0*
20,1,$1+$1,$4,$5,$6,$7,0*
20,1,$1+$1,$6,$7,$8,$9,0*
20,1,$1+$1,$8,$9,$2,$3,0*%
%AMFreePoly0*
4,1,29,-0.590000,1.425000,-0.330000,1.425000,-0.330000,2.200000,-0.130000,2.200000,-0.130000,1.425000,0.130000,1.425000,0.130000,2.200000,0.330000,2.200000,0.330000,1.425000,0.590000,1.425000,0.590000,2.200000,0.790000,2.200000,0.790000,-2.200000,0.590000,-2.200000,0.590000,-1.425000,0.330000,-1.425000,0.330000,-2.200000,0.130000,-2.200000,0.130000,-1.425000,-0.130000,-1.425000,
-0.130000,-2.200000,-0.330000,-2.200000,-0.330000,-1.425000,-0.590000,-1.425000,-0.590000,-2.200000,-0.790000,-2.200000,-0.790000,2.200000,-0.590000,2.200000,-0.590000,1.425000,-0.590000,1.425000,$1*%
G04 Aperture macros list end*
%TA.AperFunction,SMDPad,CuDef*%
%ADD10RoundRect,0.225000X-0.225000X-0.250000X0.225000X-0.250000X0.225000X0.250000X-0.225000X0.250000X0*%
%TD*%
%TA.AperFunction,ComponentPad*%
%ADD11RoundRect,0.250000X-0.675000X-0.675000X0.675000X-0.675000X0.675000X0.675000X-0.675000X0.675000X0*%
%TD*%
%TA.AperFunction,ComponentPad*%
%ADD12C,1.850000*%
%TD*%
%TA.AperFunction,SMDPad,CuDef*%
%ADD13RoundRect,0.250000X0.650000X-0.325000X0.650000X0.325000X-0.650000X0.325000X-0.650000X-0.325000X0*%
%TD*%
%TA.AperFunction,SMDPad,CuDef*%
%ADD14RoundRect,0.225000X0.250000X-0.225000X0.250000X0.225000X-0.250000X0.225000X-0.250000X-0.225000X0*%
%TD*%
%TA.AperFunction,SMDPad,CuDef*%
%ADD15RoundRect,0.200000X-0.200000X-0.275000X0.200000X-0.275000X0.200000X0.275000X-0.200000X0.275000X0*%
%TD*%
%TA.AperFunction,SMDPad,CuDef*%
%ADD16C,1.000000*%
%TD*%
%TA.AperFunction,SMDPad,CuDef*%
%ADD17RoundRect,0.135000X-0.135000X-0.185000X0.135000X-0.185000X0.135000X0.185000X-0.135000X0.185000X0*%
%TD*%
%TA.AperFunction,SMDPad,CuDef*%
%ADD18RoundRect,0.200000X0.275000X-0.200000X0.275000X0.200000X-0.275000X0.200000X-0.275000X-0.200000X0*%
%TD*%
%TA.AperFunction,SMDPad,CuDef*%
%ADD19RoundRect,0.250000X1.100000X-0.325000X1.100000X0.325000X-1.100000X0.325000X-1.100000X-0.325000X0*%
%TD*%
%TA.AperFunction,SMDPad,CuDef*%
%ADD20RoundRect,0.250000X0.475000X-0.250000X0.475000X0.250000X-0.475000X0.250000X-0.475000X-0.250000X0*%
%TD*%
%TA.AperFunction,SMDPad,CuDef*%
%ADD21R,0.900000X0.800000*%
%TD*%
%TA.AperFunction,ComponentPad*%
%ADD22R,1.700000X1.700000*%
%TD*%
%TA.AperFunction,ComponentPad*%
%ADD23C,1.700000*%
%TD*%
%TA.AperFunction,ComponentPad*%
%ADD24RoundRect,0.250000X0.600000X0.725000X-0.600000X0.725000X-0.600000X-0.725000X0.600000X-0.725000X0*%
%TD*%
%TA.AperFunction,ComponentPad*%
%ADD25O,1.700000X1.950000*%
%TD*%
%TA.AperFunction,SMDPad,CuDef*%
%ADD26RoundRect,0.250000X-0.250000X-0.475000X0.250000X-0.475000X0.250000X0.475000X-0.250000X0.475000X0*%
%TD*%
%TA.AperFunction,SMDPad,CuDef*%
%ADD27RoundRect,0.150000X-0.587500X-0.150000X0.587500X-0.150000X0.587500X0.150000X-0.587500X0.150000X0*%
%TD*%
%TA.AperFunction,SMDPad,CuDef*%
%ADD28RoundRect,0.150000X0.150000X-0.512500X0.150000X0.512500X-0.150000X0.512500X-0.150000X-0.512500X0*%
%TD*%
%TA.AperFunction,SMDPad,CuDef*%
%ADD29R,3.500000X2.950000*%
%TD*%
%TA.AperFunction,SMDPad,CuDef*%
%ADD30RoundRect,0.135000X-0.185000X0.135000X-0.185000X-0.135000X0.185000X-0.135000X0.185000X0.135000X0*%
%TD*%
%TA.AperFunction,SMDPad,CuDef*%
%ADD31RoundRect,0.200000X0.200000X0.275000X-0.200000X0.275000X-0.200000X-0.275000X0.200000X-0.275000X0*%
%TD*%
%TA.AperFunction,SMDPad,CuDef*%
%ADD32RoundRect,0.135000X0.135000X0.185000X-0.135000X0.185000X-0.135000X-0.185000X0.135000X-0.185000X0*%
%TD*%
%TA.AperFunction,ComponentPad*%
%ADD33C,2.240000*%
%TD*%
%TA.AperFunction,ComponentPad*%
%ADD34C,2.740000*%
%TD*%
%TA.AperFunction,SMDPad,CuDef*%
%ADD35RoundRect,0.225000X0.225000X0.250000X-0.225000X0.250000X-0.225000X-0.250000X0.225000X-0.250000X0*%
%TD*%
%TA.AperFunction,SMDPad,CuDef*%
%ADD36R,0.700000X0.650000*%
%TD*%
%TA.AperFunction,SMDPad,CuDef*%
%ADD37RoundRect,0.050000X-0.375000X-0.050000X0.375000X-0.050000X0.375000X0.050000X-0.375000X0.050000X0*%
%TD*%
%TA.AperFunction,SMDPad,CuDef*%
%ADD38RoundRect,0.050000X-0.050000X-0.275000X0.050000X-0.275000X0.050000X0.275000X-0.050000X0.275000X0*%
%TD*%
%TA.AperFunction,SMDPad,CuDef*%
%ADD39RoundRect,0.087500X-0.250000X-0.087500X0.250000X-0.087500X0.250000X0.087500X-0.250000X0.087500X0*%
%TD*%
%TA.AperFunction,SMDPad,CuDef*%
%ADD40RoundRect,0.250000X0.325000X1.100000X-0.325000X1.100000X-0.325000X-1.100000X0.325000X-1.100000X0*%
%TD*%
%TA.AperFunction,SMDPad,CuDef*%
%ADD41R,0.980000X3.400000*%
%TD*%
%TA.AperFunction,SMDPad,CuDef*%
%ADD42RoundRect,0.150000X0.400000X0.150000X-0.400000X0.150000X-0.400000X-0.150000X0.400000X-0.150000X0*%
%TD*%
%TA.AperFunction,SMDPad,CuDef*%
%ADD43C,0.800000*%
%TD*%
%TA.AperFunction,SMDPad,CuDef*%
%ADD44RoundRect,0.087500X-0.537500X-0.087500X0.537500X-0.087500X0.537500X0.087500X-0.537500X0.087500X0*%
%TD*%
%TA.AperFunction,SMDPad,CuDef*%
%ADD45RoundRect,0.150000X-0.512500X-0.150000X0.512500X-0.150000X0.512500X0.150000X-0.512500X0.150000X0*%
%TD*%
%TA.AperFunction,SMDPad,CuDef*%
%ADD46R,3.400000X0.980000*%
%TD*%
%TA.AperFunction,SMDPad,CuDef*%
%ADD47RoundRect,0.125000X-0.537500X-0.125000X0.537500X-0.125000X0.537500X0.125000X-0.537500X0.125000X0*%
%TD*%
%TA.AperFunction,SMDPad,CuDef*%
%ADD48RoundRect,0.250000X-0.325000X-0.650000X0.325000X-0.650000X0.325000X0.650000X-0.325000X0.650000X0*%
%TD*%
%TA.AperFunction,SMDPad,CuDef*%
%ADD49RoundRect,0.062500X-0.325000X-0.062500X0.325000X-0.062500X0.325000X0.062500X-0.325000X0.062500X0*%
%TD*%
%TA.AperFunction,HeatsinkPad*%
%ADD50R,0.800000X1.200000*%
%TD*%
%TA.AperFunction,SMDPad,CuDef*%
%ADD51O,0.600000X0.240000*%
%TD*%
%TA.AperFunction,ComponentPad*%
%ADD52C,0.400000*%
%TD*%
%TA.AperFunction,SMDPad,CuDef*%
%ADD53FreePoly0,0.000000*%
%TD*%
%TA.AperFunction,SMDPad,CuDef*%
%ADD54RoundRect,0.100000X-0.100000X0.637500X-0.100000X-0.637500X0.100000X-0.637500X0.100000X0.637500X0*%
%TD*%
%TA.AperFunction,SMDPad,CuDef*%
%ADD55RoundRect,0.250000X-0.325000X-1.100000X0.325000X-1.100000X0.325000X1.100000X-0.325000X1.100000X0*%
%TD*%
%TA.AperFunction,SMDPad,CuDef*%
%ADD56RoundRect,0.200000X-0.275000X0.200000X-0.275000X-0.200000X0.275000X-0.200000X0.275000X0.200000X0*%
%TD*%
%TA.AperFunction,SMDPad,CuDef*%
%ADD57RoundRect,0.100000X-0.637500X-0.100000X0.637500X-0.100000X0.637500X0.100000X-0.637500X0.100000X0*%
%TD*%
%TA.AperFunction,SMDPad,CuDef*%
%ADD58RoundRect,0.062500X-0.350000X-0.062500X0.350000X-0.062500X0.350000X0.062500X-0.350000X0.062500X0*%
%TD*%
%TA.AperFunction,SMDPad,CuDef*%
%ADD59RoundRect,0.062500X-0.062500X-0.350000X0.062500X-0.350000X0.062500X0.350000X-0.062500X0.350000X0*%
%TD*%
%TA.AperFunction,HeatsinkPad*%
%ADD60C,0.500000*%
%TD*%
%TA.AperFunction,HeatsinkPad*%
%ADD61R,2.700000X2.700000*%
%TD*%
%TA.AperFunction,ComponentPad*%
%ADD62R,1.300000X1.300000*%
%TD*%
%TA.AperFunction,ComponentPad*%
%ADD63C,1.300000*%
%TD*%
%TA.AperFunction,SMDPad,CuDef*%
%ADD64R,0.650000X0.250000*%
%TD*%
%TA.AperFunction,SMDPad,CuDef*%
%ADD65R,0.250000X0.650000*%
%TD*%
%TA.AperFunction,SMDPad,CuDef*%
%ADD66RoundRect,0.087500X-0.425000X-0.087500X0.425000X-0.087500X0.425000X0.087500X-0.425000X0.087500X0*%
%TD*%
%TA.AperFunction,ViaPad*%
%ADD67C,0.500000*%
%TD*%
%TA.AperFunction,ViaPad*%
%ADD68C,0.600000*%
%TD*%
%TA.AperFunction,ViaPad*%
%ADD69C,0.450000*%
%TD*%
%TA.AperFunction,ViaPad*%
%ADD70C,0.400000*%
%TD*%
%TA.AperFunction,Conductor*%
%ADD71C,0.150000*%
%TD*%
%TA.AperFunction,Conductor*%
%ADD72C,0.200000*%
%TD*%
%TA.AperFunction,Conductor*%
%ADD73C,0.250000*%
%TD*%
%TA.AperFunction,Conductor*%
%ADD74C,0.350000*%
%TD*%
%TA.AperFunction,Conductor*%
%ADD75C,0.300000*%
%TD*%
%TA.AperFunction,Conductor*%
%ADD76C,0.125000*%
%TD*%
%TA.AperFunction,Conductor*%
%ADD77C,0.400000*%
%TD*%
%TA.AperFunction,Conductor*%
%ADD78C,1.000000*%
%TD*%
%TA.AperFunction,Conductor*%
%ADD79C,0.250200*%
%TD*%
%TA.AperFunction,Conductor*%
%ADD80C,0.800000*%
%TD*%
%TA.AperFunction,Conductor*%
%ADD81C,0.600000*%
%TD*%
%TA.AperFunction,Conductor*%
%ADD82C,0.450000*%
%TD*%
%TA.AperFunction,Conductor*%
%ADD83C,0.500000*%
%TD*%
%TA.AperFunction,Conductor*%
%ADD84C,0.650000*%
%TD*%
G04 APERTURE END LIST*
D10*
%TO.P,C403,1*%
%TO.N,O2_A_AIN_P*%
X6125000Y-32299999D03*
%TO.P,C403,2*%
%TO.N,GND*%
X7675000Y-32299999D03*
%TD*%
D11*
%TO.P,J102,1,Pin_1_1*%
%TO.N,PACK_P*%
X14900000Y-93000000D03*
D12*
%TO.P,J102,2,Pin_2_2*%
%TO.N,GND*%
X19100000Y-93000000D03*
%TD*%
D10*
%TO.P,C407,1*%
%TO.N,HOST_3V3*%
X10175000Y-28500000D03*
%TO.P,C407,2*%
%TO.N,GND*%
X11725000Y-28500000D03*
%TD*%
D13*
%TO.P,C107,1*%
%TO.N,/01  CHARGING + BATTERY/BQ_REGN*%
X8000000Y-75975000D03*
%TO.P,C107,2*%
%TO.N,GND*%
X8000000Y-73025000D03*
%TD*%
D14*
%TO.P,C507,1*%
%TO.N,HE_AIN_N*%
X6650000Y-38875000D03*
%TO.P,C507,2*%
%TO.N,GND*%
X6650000Y-37325000D03*
%TD*%
D15*
%TO.P,R504,1*%
%TO.N,HE_3V0*%
X17425000Y-48000000D03*
%TO.P,R504,2*%
%TO.N,HE_EXC_DIV*%
X19075000Y-48000000D03*
%TD*%
D16*
%TO.P,TP1005,1,1_1*%
%TO.N,VOUT_5V*%
X15000000Y-70500000D03*
%TD*%
D10*
%TO.P,C503,1*%
%TO.N,unconnected-(C503-Pad1)*%
X7725000Y-46300000D03*
%TO.P,C503,2*%
%TO.N,GND*%
X9275000Y-46300000D03*
%TD*%
%TO.P,C802,1*%
%TO.N,PB_FILTERED_N*%
X14025000Y-57500000D03*
%TO.P,C802,2*%
%TO.N,GND*%
X15575000Y-57500000D03*
%TD*%
D17*
%TO.P,R101,1*%
%TO.N,/01  CHARGING + BATTERY/BQ_REGN*%
X14340000Y-88950000D03*
%TO.P,R101,2*%
%TO.N,/01  CHARGING + BATTERY/PACK_TS*%
X15360000Y-88950000D03*
%TD*%
D18*
%TO.P,R703,1*%
%TO.N,CO_UART_EN*%
X21000000Y-64075000D03*
%TO.P,R703,2*%
%TO.N,GND*%
X21000000Y-62425000D03*
%TD*%
D16*
%TO.P,TP1001,1,1_1*%
%TO.N,GND*%
X21751277Y-66000000D03*
%TD*%
D19*
%TO.P,C105,1*%
%TO.N,VSYS*%
X8199999Y-87225000D03*
%TO.P,C105,2*%
%TO.N,GND*%
X8199999Y-84275000D03*
%TD*%
D20*
%TO.P,C103,1*%
%TO.N,/01  CHARGING + BATTERY/BQ_SW*%
X19000000Y-83250000D03*
%TO.P,C103,2*%
%TO.N,/01  CHARGING + BATTERY/BQ_BTST*%
X19000000Y-81350000D03*
%TD*%
D15*
%TO.P,R410,1*%
%TO.N,O2_VMID*%
X14675000Y-36400000D03*
%TO.P,R410,2*%
%TO.N,GND*%
X16325000Y-36400000D03*
%TD*%
D14*
%TO.P,C402,1*%
%TO.N,O2_A_AIN_N*%
X1299999Y-27285000D03*
%TO.P,C402,2*%
%TO.N,GND*%
X1299999Y-25735000D03*
%TD*%
D18*
%TO.P,R601,1*%
%TO.N,HOST_3V3*%
X1250000Y-61325000D03*
%TO.P,R601,2*%
%TO.N,BME_VIN*%
X1250000Y-59675000D03*
%TD*%
D21*
%TO.P,Q110,1,G_1*%
%TO.N,USB_PERMISSION_Q*%
X19000000Y-90450000D03*
%TO.P,Q110,2,S_2*%
%TO.N,USB_ILIM_SERIES*%
X19000000Y-88550000D03*
%TO.P,Q110,3,D_3*%
%TO.N,USB_ILIM_BRANCH*%
X17000000Y-89500000D03*
%TD*%
D10*
%TO.P,C509,1*%
%TO.N,HOST_3V3*%
X11475000Y-38400000D03*
%TO.P,C509,2*%
%TO.N,GND*%
X13025000Y-38400000D03*
%TD*%
D18*
%TO.P,R401,1*%
%TO.N,O2_A_RAW_N*%
X8250000Y-26325000D03*
%TO.P,R401,2*%
%TO.N,O2_A_AIN_N*%
X8250000Y-24675000D03*
%TD*%
D10*
%TO.P,C504,1*%
%TO.N,HE_EXC_DIV*%
X7725000Y-48100000D03*
%TO.P,C504,2*%
%TO.N,GND*%
X9275000Y-48100000D03*
%TD*%
D22*
%TO.P,J501,1,Pin_1_1*%
%TO.N,HE_3V0*%
X4000000Y-34960000D03*
D23*
%TO.P,J501,2,Pin_2_2*%
%TO.N,HE_SENSE*%
X4000000Y-37500000D03*
%TO.P,J501,3,Pin_3_3*%
%TO.N,GND*%
X4000000Y-40040000D03*
%TD*%
D24*
%TO.P,J701,1,5.28V_1*%
%TO.N,CO_5V28*%
X26450000Y-29525000D03*
D25*
%TO.P,J701,2,GND_2*%
%TO.N,GND*%
X23950000Y-29525000D03*
%TO.P,J701,3,CO_TX_3*%
%TO.N,CO_TX_CABLE*%
X21450000Y-29525000D03*
%TO.P,J701,4,CO_RX_4*%
%TO.N,CO_RX_CABLE*%
X18950000Y-29525000D03*
%TD*%
D13*
%TO.P,C701,1*%
%TO.N,VOUT_5V*%
X15100000Y-51975000D03*
%TO.P,C701,2*%
%TO.N,GND*%
X15100000Y-49025000D03*
%TD*%
D26*
%TO.P,C803,1*%
%TO.N,Net-(U801-ONT)*%
X11300000Y-69350000D03*
%TO.P,C803,2*%
%TO.N,GND*%
X13200000Y-69350000D03*
%TD*%
D16*
%TO.P,TP1006,1,1_1*%
%TO.N,HOST_3V3*%
X22601277Y-35400000D03*
%TD*%
D18*
%TO.P,R604,1*%
%TO.N,BME_VIN*%
X1250000Y-71075000D03*
%TO.P,R604,2*%
%TO.N,BME_SDA*%
X1250000Y-69425000D03*
%TD*%
D10*
%TO.P,C303,1*%
%TO.N,HOST_5V*%
X11225000Y-49650000D03*
%TO.P,C303,2*%
%TO.N,GND*%
X12775000Y-49650000D03*
%TD*%
%TO.P,C801,1*%
%TO.N,VSYS*%
X4975000Y-58000000D03*
%TO.P,C801,2*%
%TO.N,GND*%
X6525000Y-58000000D03*
%TD*%
D16*
%TO.P,TP1004,1,1_1*%
%TO.N,VSYS*%
X21500000Y-95500000D03*
%TD*%
D26*
%TO.P,C301,1*%
%TO.N,PACK_P*%
X17050000Y-67000000D03*
%TO.P,C301,2*%
%TO.N,GND*%
X18950000Y-67000000D03*
%TD*%
D16*
%TO.P,TP1012,1,1_1*%
%TO.N,O2_VMID*%
X7500000Y-43250000D03*
%TD*%
D10*
%TO.P,C409,1*%
%TO.N,O2_VMID*%
X8325000Y-36300000D03*
%TO.P,C409,2*%
%TO.N,GND*%
X9875000Y-36300000D03*
%TD*%
D18*
%TO.P,R117,1*%
%TO.N,USB_ILIM_AUTH*%
X28200000Y-97825000D03*
%TO.P,R117,2*%
%TO.N,GND*%
X28200000Y-96175000D03*
%TD*%
D16*
%TO.P,TP1003,1,1_1*%
%TO.N,PACK_P*%
X21501277Y-90250000D03*
%TD*%
%TO.P,TP1011,1,1_1*%
%TO.N,HE_SENSE*%
X7801277Y-34200000D03*
%TD*%
D18*
%TO.P,R102,1*%
%TO.N,/01  CHARGING + BATTERY/PACK_TS*%
X10900000Y-89075000D03*
%TO.P,R102,2*%
%TO.N,GND*%
X10900000Y-87425000D03*
%TD*%
%TO.P,R602,1*%
%TO.N,VOUT_5V*%
X1250000Y-64575000D03*
%TO.P,R602,2*%
%TO.N,BME_VIN*%
X1250000Y-62925000D03*
%TD*%
D24*
%TO.P,J601,1,VIN_1*%
%TO.N,BME_VIN*%
X26450000Y-21525000D03*
D25*
%TO.P,J601,2,GND_2*%
%TO.N,GND*%
X23950000Y-21525000D03*
%TO.P,J601,3,SCL_3*%
%TO.N,BME_SCL*%
X21450000Y-21525000D03*
%TO.P,J601,4,SDA_4*%
%TO.N,BME_SDA*%
X18950000Y-21525000D03*
%TD*%
D27*
%TO.P,Q601,1,G_1*%
%TO.N,HOST_3V3*%
X18562500Y-34050000D03*
%TO.P,Q601,2,S_2*%
%TO.N,I2C_SCL*%
X18562500Y-35950000D03*
%TO.P,Q601,3,D_3*%
%TO.N,BME_SCL*%
X20437500Y-35000000D03*
%TD*%
D15*
%TO.P,R201,1*%
%TO.N,VOUT_5V*%
X7975000Y-59750000D03*
%TO.P,R201,2*%
%TO.N,/02  SWITCHED 5 V/TPS_FB*%
X9625000Y-59750000D03*
%TD*%
D26*
%TO.P,C705,1*%
%TO.N,CO_LOGIC_3V0*%
X3050000Y-60500000D03*
%TO.P,C705,2*%
%TO.N,GND*%
X4950000Y-60500000D03*
%TD*%
D10*
%TO.P,C404,1*%
%TO.N,O2_B_AIN_N*%
X11825000Y-33000000D03*
%TO.P,C404,2*%
%TO.N,O2_B_AIN_P*%
X13375000Y-33000000D03*
%TD*%
D14*
%TO.P,C113,1*%
%TO.N,HOST_3V3*%
X28250000Y-81975000D03*
%TO.P,C113,2*%
%TO.N,GND*%
X28250000Y-80425000D03*
%TD*%
D28*
%TO.P,U501,1,IN_1*%
%TO.N,VOUT_5V*%
X3050000Y-46837500D03*
%TO.P,U501,2,GND_2*%
%TO.N,GND*%
X4000000Y-46837500D03*
%TO.P,U501,3,EN_3*%
%TO.N,HE_ENABLE*%
X4950000Y-46837500D03*
%TO.P,U501,4,NC_4*%
%TO.N,unconnected-(U501-NC-Pad4)*%
X4950000Y-44562500D03*
%TO.P,U501,5,OUT_5*%
%TO.N,HE_3V0*%
X3050000Y-44562500D03*
%TD*%
D10*
%TO.P,C502,1*%
%TO.N,HE_3V0*%
X3225000Y-48700000D03*
%TO.P,C502,2*%
%TO.N,GND*%
X4775000Y-48700000D03*
%TD*%
D27*
%TO.P,Q602,1,G_1*%
%TO.N,HOST_3V3*%
X19562500Y-38250000D03*
%TO.P,Q602,2,S_2*%
%TO.N,I2C_SDA*%
X19562500Y-40150000D03*
%TO.P,Q602,3,D_3*%
%TO.N,BME_SDA*%
X21437500Y-39200000D03*
%TD*%
D29*
%TO.P,L101,1,1_1*%
%TO.N,/01  CHARGING + BATTERY/BQ_SW*%
X13500000Y-79225000D03*
%TO.P,L101,2,2_2*%
%TO.N,VSYS*%
X13500000Y-73775000D03*
%TD*%
D27*
%TO.P,Q101,1,G_1*%
%TO.N,CHARGE_ARM*%
X19062500Y-77800000D03*
%TO.P,Q101,2,S_2*%
%TO.N,GND*%
X19062500Y-79700000D03*
%TO.P,Q101,3,D_3*%
%TO.N,/01  CHARGING + BATTERY/CHG_CE_N*%
X20937500Y-78750000D03*
%TD*%
D15*
%TO.P,R103,1*%
%TO.N,BQ_ILIM*%
X13675000Y-87550000D03*
%TO.P,R103,2*%
%TO.N,GND*%
X15325000Y-87550000D03*
%TD*%
D18*
%TO.P,R406,1*%
%TO.N,O2_B_RAW_P*%
X1300000Y-37125000D03*
%TO.P,R406,2*%
%TO.N,O2_B_AIN_P*%
X1300000Y-35475000D03*
%TD*%
%TO.P,R505,1*%
%TO.N,HE_EXC_DIV*%
X22000000Y-45575000D03*
%TO.P,R505,2*%
%TO.N,GND*%
X22000000Y-43925000D03*
%TD*%
D15*
%TO.P,R702,1*%
%TO.N,CO_FB*%
X17675000Y-58650000D03*
%TO.P,R702,2*%
%TO.N,GND*%
X19325000Y-58650000D03*
%TD*%
D16*
%TO.P,TP1008,1,1_1*%
%TO.N,I2C_SCL*%
X24851277Y-35400000D03*
%TD*%
D14*
%TO.P,C505,1*%
%TO.N,HE_AIN_P*%
X9200000Y-52275000D03*
%TO.P,C505,2*%
%TO.N,HE_AIN_N*%
X9200000Y-50725000D03*
%TD*%
D15*
%TO.P,R507,1*%
%TO.N,HE_SENSE*%
X2925000Y-32250000D03*
%TO.P,R507,2*%
%TO.N,HE_AIN_N*%
X4575000Y-32250000D03*
%TD*%
D16*
%TO.P,TP1010,1,1_1*%
%TO.N,HE_3V0*%
X1101277Y-46200000D03*
%TD*%
D15*
%TO.P,R408,1*%
%TO.N,O2_VMID*%
X13325000Y-30250000D03*
%TO.P,R408,2*%
%TO.N,O2_B_AIN_P*%
X14975000Y-30250000D03*
%TD*%
%TO.P,R409,1*%
%TO.N,HOST_3V3*%
X11425000Y-36300000D03*
%TO.P,R409,2*%
%TO.N,O2_VMID*%
X13075000Y-36300000D03*
%TD*%
D10*
%TO.P,C804,1*%
%TO.N,Net-(U801-PDT)*%
X16225000Y-65000000D03*
%TO.P,C804,2*%
%TO.N,GND*%
X17775000Y-65000000D03*
%TD*%
D22*
%TO.P,J801,1,Pin_1_1*%
%TO.N,Net-(J801-Pin_1)*%
X3724999Y-51500000D03*
D23*
%TO.P,J801,2,Pin_2_2*%
%TO.N,GND*%
X6264999Y-51500000D03*
%TD*%
D26*
%TO.P,C706,1*%
%TO.N,unconnected-(C706-Pad1)*%
X3050000Y-62750000D03*
%TO.P,C706,2*%
%TO.N,GND*%
X4950000Y-62750000D03*
%TD*%
D15*
%TO.P,R402,1*%
%TO.N,O2_A_RAW_P*%
X11675000Y-18500000D03*
%TO.P,R402,2*%
%TO.N,O2_A_AIN_P*%
X13325000Y-18500000D03*
%TD*%
D30*
%TO.P,R115,1*%
%TO.N,HOST_3V3*%
X21400000Y-82790000D03*
%TO.P,R115,2*%
%TO.N,USB_PERMISSION_CLR_N*%
X21400000Y-83810000D03*
%TD*%
D14*
%TO.P,C401,1*%
%TO.N,O2_A_AIN_N*%
X1299999Y-24075000D03*
%TO.P,C401,2*%
%TO.N,O2_A_AIN_P*%
X1299999Y-22525000D03*
%TD*%
D31*
%TO.P,R107,1*%
%TO.N,HOST_3V3*%
X24325000Y-75000000D03*
%TO.P,R107,2*%
%TO.N,CHG_INT_N*%
X22675000Y-75000000D03*
%TD*%
D32*
%TO.P,R118,1*%
%TO.N,USB_PERMISSION_Q*%
X11260000Y-91950000D03*
%TO.P,R118,2*%
%TO.N,GND*%
X10240000Y-91950000D03*
%TD*%
D15*
%TO.P,R120,1*%
%TO.N,HOST_3V3*%
X1100000Y-92750000D03*
%TO.P,R120,2*%
%TO.N,USB_LIMIT_FAULT_N*%
X2750000Y-92750000D03*
%TD*%
D33*
%TO.P,J402,1,In_1*%
%TO.N,O2_B_RAW_P*%
X4450000Y-16600000D03*
D34*
%TO.P,J402,2,Ext_2*%
%TO.N,O2_B_RAW_N*%
X1910000Y-14060000D03*
X1910000Y-19140000D03*
X6990000Y-14060000D03*
X6990000Y-19140000D03*
%TD*%
D16*
%TO.P,TP1009,1,1_1*%
%TO.N,I2C_SDA*%
X27101277Y-35400000D03*
%TD*%
D18*
%TO.P,R804,1*%
%TO.N,VOUT_5V*%
X1250000Y-77575000D03*
%TO.P,R804,2*%
%TO.N,BUTTON_LED_A*%
X1250000Y-75925000D03*
%TD*%
%TO.P,R105,1*%
%TO.N,CHARGE_ARM*%
X5750000Y-85075000D03*
%TO.P,R105,2*%
%TO.N,GND*%
X5750000Y-83425000D03*
%TD*%
D15*
%TO.P,R704,1*%
%TO.N,CO_TX_3V0*%
X23925000Y-33400000D03*
%TO.P,R704,2*%
%TO.N,CO_TX_CABLE*%
X25575000Y-33400000D03*
%TD*%
D22*
%TO.P,J103,1,Pin_1_1*%
%TO.N,/01  CHARGING + BATTERY/PACK_TS*%
X4000000Y-77725000D03*
D23*
%TO.P,J103,2,Pin_2_2*%
%TO.N,GND*%
X4000000Y-80265000D03*
%TD*%
D10*
%TO.P,C203,1*%
%TO.N,/02  SWITCHED 5 V/TPS_VINA*%
X11025000Y-57700000D03*
%TO.P,C203,2*%
%TO.N,GND*%
X12575000Y-57700000D03*
%TD*%
D35*
%TO.P,C101,1*%
%TO.N,USB_CHG_5V*%
X9075000Y-82300000D03*
%TO.P,C101,2*%
%TO.N,GND*%
X7525000Y-82300000D03*
%TD*%
D36*
%TO.P,RN501,1,R1.1_1*%
%TO.N,HE_3V0*%
X6550000Y-40400000D03*
%TO.P,RN501,2,R2.1_2*%
%TO.N,HE_REF*%
X6550000Y-41400000D03*
%TO.P,RN501,3,R2.2_3*%
%TO.N,GND*%
X7850000Y-41400000D03*
%TO.P,RN501,4,R1.2_4*%
%TO.N,HE_REF*%
X7850000Y-40400000D03*
%TD*%
D10*
%TO.P,C508,1*%
%TO.N,HOST_3V3*%
X14725000Y-38400000D03*
%TO.P,C508,2*%
%TO.N,GND*%
X16275000Y-38400000D03*
%TD*%
D15*
%TO.P,R202,1*%
%TO.N,/02  SWITCHED 5 V/TPS_FB*%
X7975000Y-58050000D03*
%TO.P,R202,2*%
%TO.N,GND*%
X9625000Y-58050000D03*
%TD*%
D37*
%TO.P,U110,1,CC1_1*%
%TO.N,USB_CC1*%
X24475000Y-77200000D03*
%TO.P,U110,2,CC2_2*%
%TO.N,USB_CC2*%
X24475000Y-77600000D03*
D38*
%TO.P,U110,3,PORT_3*%
%TO.N,GND*%
X24600000Y-78225000D03*
%TO.P,U110,4,VBUS_DET_4*%
%TO.N,USB_VBUS_DET*%
X25000000Y-78225000D03*
%TO.P,U110,5,ADDR_5*%
%TO.N,GND*%
X25400000Y-78225000D03*
%TO.P,U110,6,INT_N_6*%
%TO.N,USB_CC_INT_N*%
X25800000Y-78225000D03*
D37*
%TO.P,U110,7,SDA_7*%
%TO.N,I2C_SDA*%
X25925000Y-77600000D03*
%TO.P,U110,8,SCL_8*%
%TO.N,I2C_SCL*%
X25925000Y-77200000D03*
D38*
%TO.P,U110,9,ID_9*%
%TO.N,unconnected-(U110-ID-Pad9)*%
X25800000Y-76575000D03*
%TO.P,U110,10,GND_10*%
%TO.N,GND*%
X25400000Y-76575000D03*
%TO.P,U110,11,EN_N_11*%
X25000000Y-76575000D03*
%TO.P,U110,12,VDD_12*%
%TO.N,HOST_3V3*%
X24600000Y-76575000D03*
%TD*%
D10*
%TO.P,C408,1*%
%TO.N,HOST_3V3*%
X13375000Y-28500000D03*
%TO.P,C408,2*%
%TO.N,GND*%
X14925000Y-28500000D03*
%TD*%
D22*
%TO.P,J104,1,A_1*%
%TO.N,VSYS*%
X4000000Y-69725000D03*
D23*
%TO.P,J104,2,B_2*%
%TO.N,CHARGE_ARM*%
X4000000Y-72265000D03*
%TD*%
D20*
%TO.P,C704,1*%
%TO.N,VOUT_5V*%
X2250000Y-57950000D03*
%TO.P,C704,2*%
%TO.N,GND*%
X2250000Y-56050000D03*
%TD*%
D39*
%TO.P,U701,1,FB_1*%
%TO.N,CO_FB*%
X18787500Y-55800000D03*
%TO.P,U701,2,EN_2*%
%TO.N,VOUT_5V*%
X18787500Y-56300000D03*
%TO.P,U701,3,VIN_3*%
X18787500Y-56800000D03*
%TO.P,U701,4,GND_4*%
%TO.N,GND*%
X20212500Y-56800000D03*
%TO.P,U701,5,SW_5*%
%TO.N,CO_SW*%
X20212500Y-56300000D03*
%TO.P,U701,6,VOUT_6*%
%TO.N,CO_5V28*%
X20212500Y-55800000D03*
%TD*%
D26*
%TO.P,C708,1*%
%TO.N,CO_LOGIC_3V0*%
X3050000Y-65000000D03*
%TO.P,C708,2*%
%TO.N,GND*%
X4950000Y-65000000D03*
%TD*%
D18*
%TO.P,R802,1*%
%TO.N,HOST_3V3*%
X1250000Y-74325000D03*
%TO.P,R802,2*%
%TO.N,POWER_INT_N*%
X1250000Y-72675000D03*
%TD*%
D15*
%TO.P,R407,1*%
%TO.N,O2_B_AIN_N*%
X10125000Y-30250000D03*
%TO.P,R407,2*%
%TO.N,O2_VMID*%
X11775000Y-30250000D03*
%TD*%
D40*
%TO.P,C206,1*%
%TO.N,VOUT_5V*%
X9625000Y-68900000D03*
%TO.P,C206,2*%
%TO.N,GND*%
X6675000Y-68900000D03*
%TD*%
D31*
%TO.P,R110,1*%
%TO.N,USB_5V*%
X24325000Y-73500000D03*
%TO.P,R110,2*%
%TO.N,USB_VBUS_DET*%
X22675000Y-73500000D03*
%TD*%
D41*
%TO.P,L201,1,1_1*%
%TO.N,Net-(L201-Pad1)*%
X14185000Y-66000000D03*
%TO.P,L201,2,2_2*%
%TO.N,Net-(L201-Pad2)*%
X11815000Y-66000000D03*
%TD*%
D42*
%TO.P,U114,1,ON_1*%
%TO.N,USB_OVP_5V*%
X8850000Y-91450000D03*
%TO.P,U114,2,VIN_2*%
X8850000Y-90500000D03*
%TO.P,U114,3,GND_3*%
%TO.N,GND*%
X8850000Y-89550000D03*
%TO.P,U114,4,ILIM_4*%
%TO.N,USB_LIMIT_SET*%
X6150000Y-89550000D03*
%TO.P,U114,5,VOUT_5*%
%TO.N,USB_CHG_5V*%
X6150000Y-90500000D03*
%TO.P,U114,6,FLT_6*%
%TO.N,USB_LIMIT_FAULT_N*%
X6150000Y-91450000D03*
%TD*%
D18*
%TO.P,R403,1*%
%TO.N,O2_A_AIN_N*%
X1300000Y-30584999D03*
%TO.P,R403,2*%
%TO.N,O2_VMID*%
X1300000Y-28934999D03*
%TD*%
%TO.P,R405,1*%
%TO.N,O2_B_RAW_N*%
X15000000Y-33825000D03*
%TO.P,R405,2*%
%TO.N,O2_B_AIN_N*%
X15000000Y-32175000D03*
%TD*%
%TO.P,R303,1*%
%TO.N,HOST_3V3*%
X19500000Y-65325000D03*
%TO.P,R303,2*%
%TO.N,I2C_SDA*%
X19500000Y-63675000D03*
%TD*%
D43*
%TO.P,TP1014,1*%
%TO.N,/01  CHARGING + BATTERY/BQ_QON_N*%
X15100000Y-86400000D03*
%TD*%
D15*
%TO.P,R116,1*%
%TO.N,USB_LIMIT_SET*%
X6925000Y-94750000D03*
%TO.P,R116,2*%
%TO.N,USB_ILIM_BRANCH*%
X8575000Y-94750000D03*
%TD*%
D14*
%TO.P,C108,1*%
%TO.N,VSYS*%
X16900000Y-83875000D03*
%TO.P,C108,2*%
%TO.N,GND*%
X16900000Y-82325000D03*
%TD*%
D44*
%TO.P,U703,1,B2_1*%
%TO.N,CO_TX_3V0*%
X11600000Y-45350000D03*
%TO.P,U703,2,GND_2*%
%TO.N,GND*%
X11600000Y-45850000D03*
%TO.P,U703,3,VCCA_3*%
%TO.N,HOST_3V3*%
X11600000Y-46350000D03*
%TO.P,U703,4,A2Y_4*%
%TO.N,CO_UART_RX*%
X11600000Y-46850000D03*
%TO.P,U703,5,A1_5*%
%TO.N,CO_UART_TX*%
X14400000Y-46850000D03*
%TO.P,U703,6,OE_6*%
%TO.N,CO_UART_EN*%
X14400000Y-46350000D03*
%TO.P,U703,7,VCCB_7*%
%TO.N,CO_LOGIC_3V0*%
X14400000Y-45850000D03*
%TO.P,U703,8,B1Y_8*%
%TO.N,CO_RX_3V0*%
X14400000Y-45350000D03*
%TD*%
D15*
%TO.P,R301,1*%
%TO.N,HOST_3V3*%
X11125000Y-71150000D03*
%TO.P,R301,2*%
%TO.N,GAUGE_ALERT_N*%
X12775000Y-71150000D03*
%TD*%
D45*
%TO.P,U113,1,RESET_1*%
%TO.N,USB_PERMISSION_CLR_N*%
X23862500Y-84850000D03*
%TO.P,U113,2,GND_2*%
%TO.N,GND*%
X23862500Y-85800000D03*
%TO.P,U113,3,MR_3*%
%TO.N,USB_CC_INT_N*%
X23862500Y-86750000D03*
%TO.P,U113,4,CT_4*%
%TO.N,unconnected-(U113-CT-Pad4)*%
X26137500Y-86750000D03*
%TO.P,U113,5,SENSE_5*%
%TO.N,USB_VBUS_SENSE*%
X26137500Y-85800000D03*
%TO.P,U113,6,VDD_6*%
%TO.N,HOST_3V3*%
X26137500Y-84850000D03*
%TD*%
D46*
%TO.P,L701,1,1_1*%
%TO.N,VOUT_5V*%
X19500000Y-50015000D03*
%TO.P,L701,2,2_2*%
%TO.N,CO_SW*%
X19500000Y-52385000D03*
%TD*%
D15*
%TO.P,R506,1*%
%TO.N,HE_REF*%
X8175000Y-38400000D03*
%TO.P,R506,2*%
%TO.N,HE_AIN_P*%
X9825000Y-38400000D03*
%TD*%
D47*
%TO.P,U801,1,VIN_1*%
%TO.N,VSYS*%
X12462500Y-54025000D03*
%TO.P,U801,2,~{PB}_2*%
%TO.N,PB_FILTERED_N*%
X12462500Y-54675000D03*
%TO.P,U801,3,ONT_3*%
%TO.N,Net-(U801-ONT)*%
X12462500Y-55325000D03*
%TO.P,U801,4,GND_4*%
%TO.N,GND*%
X12462500Y-55975000D03*
%TO.P,U801,5,~{INT}_5*%
%TO.N,POWER_INT_N*%
X14737500Y-55975000D03*
%TO.P,U801,6,EN_6*%
%TO.N,POWER_EN*%
X14737500Y-55325000D03*
%TO.P,U801,7,PDT_7*%
%TO.N,Net-(U801-PDT)*%
X14737500Y-54675000D03*
%TO.P,U801,8,~{KILL}_8*%
%TO.N,POWER_KILL_N*%
X14737500Y-54025000D03*
%TD*%
D20*
%TO.P,C707,1*%
%TO.N,HOST_3V3*%
X21700000Y-69875000D03*
%TO.P,C707,2*%
%TO.N,GND*%
X21700000Y-67975000D03*
%TD*%
D18*
%TO.P,R112,1*%
%TO.N,HOST_3V3*%
X29000000Y-77575000D03*
%TO.P,R112,2*%
%TO.N,USB_BC_INT_N*%
X29000000Y-75925000D03*
%TD*%
D14*
%TO.P,C506,1*%
%TO.N,HE_AIN_P*%
X16649999Y-34800000D03*
%TO.P,C506,2*%
%TO.N,GND*%
X16649999Y-33250000D03*
%TD*%
D48*
%TO.P,C106,1*%
%TO.N,PACK_P*%
X1475000Y-90750000D03*
%TO.P,C106,2*%
%TO.N,GND*%
X4425000Y-90750000D03*
%TD*%
D18*
%TO.P,R701,1*%
%TO.N,CO_5V28*%
X17050000Y-57025000D03*
%TO.P,R701,2*%
%TO.N,CO_FB*%
X17050000Y-55375000D03*
%TD*%
D10*
%TO.P,C501,1*%
%TO.N,VOUT_5V*%
X3225000Y-42700000D03*
%TO.P,C501,2*%
%TO.N,GND*%
X4775000Y-42700000D03*
%TD*%
D19*
%TO.P,C102,1*%
%TO.N,/01  CHARGING + BATTERY/BQ_PMID*%
X8100000Y-80575000D03*
%TO.P,C102,2*%
%TO.N,GND*%
X8100000Y-77625000D03*
%TD*%
D20*
%TO.P,C703,1*%
%TO.N,CO_5V28*%
X19250000Y-62250000D03*
%TO.P,C703,2*%
%TO.N,GND*%
X19250000Y-60350000D03*
%TD*%
D15*
%TO.P,R203,1*%
%TO.N,VSYS*%
X3425000Y-67000000D03*
%TO.P,R203,2*%
%TO.N,POWER_EN*%
X5075000Y-67000000D03*
%TD*%
D45*
%TO.P,U702,1,IN_1*%
%TO.N,VOUT_5V*%
X17862500Y-44450000D03*
%TO.P,U702,2,GND_2*%
%TO.N,GND*%
X17862500Y-45400000D03*
%TO.P,U702,3,EN_3*%
%TO.N,VOUT_5V*%
X17862500Y-46350000D03*
%TO.P,U702,4,NC_4*%
%TO.N,unconnected-(U702-NC-Pad4)*%
X20137500Y-46350000D03*
%TO.P,U702,5,OUT_5*%
%TO.N,CO_LOGIC_3V0*%
X20137500Y-44450000D03*
%TD*%
D22*
%TO.P,J802,1,Pin_1_1*%
%TO.N,BUTTON_LED_A*%
X5725000Y-55300000D03*
D23*
%TO.P,J802,2,Pin_2_2*%
%TO.N,GND*%
X8265000Y-55300000D03*
%TD*%
D22*
%TO.P,J301,1,Pin_1_1*%
%TO.N,HOST_3V3*%
X27265000Y-69245000D03*
D23*
%TO.P,J301,2,Pin_2_2*%
%TO.N,HOST_5V*%
X24725000Y-69245000D03*
%TO.P,J301,3,Pin_3_3*%
%TO.N,HOST_3V3*%
X27265000Y-66705000D03*
%TO.P,J301,4,Pin_4_4*%
%TO.N,HOST_5V*%
X24725000Y-66705000D03*
%TO.P,J301,5,Pin_5_5*%
%TO.N,GND*%
X27265000Y-64165000D03*
%TO.P,J301,6,Pin_6_6*%
X24725000Y-64165000D03*
%TO.P,J301,7,Pin_7_7*%
%TO.N,unconnected-(J301-Pin_7-Pad7)*%
X27265000Y-61625000D03*
%TO.P,J301,8,Pin_8_8*%
%TO.N,POWER_KILL_N*%
X24725000Y-61625000D03*
%TO.P,J301,9,Pin_9_9*%
%TO.N,CO_UART_EN*%
X27265000Y-59085000D03*
%TO.P,J301,10,Pin_10_10*%
%TO.N,CO_UART_RX*%
X24725000Y-59085000D03*
%TO.P,J301,11,Pin_11_11*%
%TO.N,USB_ILIM_AUTH*%
X27265000Y-56545000D03*
%TO.P,J301,12,Pin_12_12*%
%TO.N,CO_UART_TX*%
X24725000Y-56545000D03*
%TO.P,J301,13,Pin_13_13*%
%TO.N,CHG_INT_N*%
X27265000Y-54005000D03*
%TO.P,J301,14,Pin_14_14*%
%TO.N,I2C_SCL*%
X24725000Y-54005000D03*
%TO.P,J301,15,Pin_15_15*%
%TO.N,unconnected-(J301-Pin_15-Pad15)*%
X27265000Y-51465000D03*
%TO.P,J301,16,Pin_16_16*%
%TO.N,GND*%
X24725000Y-51465000D03*
%TO.P,J301,17,Pin_17_17*%
%TO.N,HE_ENABLE*%
X27265000Y-48925000D03*
%TO.P,J301,18,Pin_18_18*%
%TO.N,HOST_3V3*%
X24725000Y-48925000D03*
%TO.P,J301,19,Pin_19_19*%
%TO.N,POWER_INT_N*%
X27265000Y-46385000D03*
%TO.P,J301,20,Pin_20_20*%
%TO.N,unconnected-(J301-Pin_20-Pad20)*%
X24725000Y-46385000D03*
%TO.P,J301,21,Pin_21_21*%
%TO.N,I2C_SDA*%
X27265000Y-43845000D03*
%TO.P,J301,22,Pin_22_22*%
%TO.N,unconnected-(J301-Pin_22-Pad22)*%
X24725000Y-43845000D03*
%TO.P,J301,23,Pin_23_23*%
%TO.N,unconnected-(J301-Pin_23-Pad23)*%
X27265000Y-41305000D03*
%TO.P,J301,24,Pin_24_24*%
%TO.N,unconnected-(J301-Pin_24-Pad24)*%
X24725000Y-41305000D03*
%TO.P,J301,25,Pin_25_25*%
%TO.N,unconnected-(J301-Pin_25-Pad25)*%
X27265000Y-38765000D03*
%TO.P,J301,26,Pin_26_26*%
%TO.N,unconnected-(J301-Pin_26-Pad26)*%
X24725000Y-38765000D03*
%TD*%
D49*
%TO.P,U301,1,CTG_1*%
%TO.N,GND*%
X17012500Y-69050000D03*
%TO.P,U301,2,CELL_2*%
%TO.N,PACK_P*%
X17012500Y-69550000D03*
%TO.P,U301,3,VDD_3*%
X17012500Y-70050000D03*
%TO.P,U301,4,GND_4*%
%TO.N,GND*%
X17012500Y-70550000D03*
%TO.P,U301,5,ALRT_5*%
%TO.N,GAUGE_ALERT_N*%
X18987500Y-70550000D03*
%TO.P,U301,6,QSTRT_6*%
%TO.N,GND*%
X18987500Y-70050000D03*
%TO.P,U301,7,SCL_7*%
%TO.N,I2C_SCL*%
X18987500Y-69550000D03*
%TO.P,U301,8,SDA_8*%
%TO.N,I2C_SDA*%
X18987500Y-69050000D03*
D50*
%TO.P,U301,9,EP_9*%
%TO.N,GND*%
X18000000Y-69800000D03*
%TD*%
D14*
%TO.P,C112,1*%
%TO.N,HOST_3V3*%
X28000000Y-86775000D03*
%TO.P,C112,2*%
%TO.N,GND*%
X28000000Y-85225000D03*
%TD*%
D40*
%TO.P,C204,1*%
%TO.N,VOUT_5V*%
X9625000Y-62100000D03*
%TO.P,C204,2*%
%TO.N,GND*%
X6675000Y-62100000D03*
%TD*%
D26*
%TO.P,C601,1*%
%TO.N,BME_VIN*%
X18550000Y-42100000D03*
%TO.P,C601,2*%
%TO.N,GND*%
X20450000Y-42100000D03*
%TD*%
D18*
%TO.P,R803,1*%
%TO.N,HOST_3V3*%
X1250000Y-82075000D03*
%TO.P,R803,2*%
%TO.N,POWER_KILL_N*%
X1250000Y-80425000D03*
%TD*%
D14*
%TO.P,C110,1*%
%TO.N,HOST_3V3*%
X22700000Y-78175000D03*
%TO.P,C110,2*%
%TO.N,GND*%
X22700000Y-76625000D03*
%TD*%
D40*
%TO.P,C205,1*%
%TO.N,VOUT_5V*%
X9625000Y-65500000D03*
%TO.P,C205,2*%
%TO.N,GND*%
X6675000Y-65500000D03*
%TD*%
D51*
%TO.P,U201,1,VINA_1*%
%TO.N,/02  SWITCHED 5 V/TPS_VINA*%
X11600000Y-59500000D03*
%TO.P,U201,2,GND_2*%
%TO.N,GND*%
X11600000Y-60000000D03*
%TO.P,U201,3,FB_3*%
%TO.N,/02  SWITCHED 5 V/TPS_FB*%
X11600000Y-60500000D03*
%TO.P,U201,4,VOUT_4*%
%TO.N,VOUT_5V*%
X11600000Y-61000000D03*
%TO.P,U201,5,VOUT_5*%
X11600000Y-61500000D03*
%TO.P,U201,6,L2_6*%
%TO.N,Net-(L201-Pad2)*%
X11600000Y-62000000D03*
%TO.P,U201,7,L2_7*%
X11600000Y-62500000D03*
%TO.P,U201,8,L1_8*%
%TO.N,Net-(L201-Pad1)*%
X14400000Y-62500000D03*
%TO.P,U201,9,L1_9*%
X14400000Y-62000000D03*
%TO.P,U201,10,VIN_10*%
%TO.N,VSYS*%
X14400000Y-61500000D03*
%TO.P,U201,11,VIN_11*%
X14400000Y-61000000D03*
%TO.P,U201,12,EN_12*%
%TO.N,POWER_EN*%
X14400000Y-60500000D03*
%TO.P,U201,13,PS/SYNC_13*%
%TO.N,VSYS*%
X14400000Y-60000000D03*
%TO.P,U201,14,PG_14*%
%TO.N,unconnected-(U201-PG-Pad14)*%
X14400000Y-59500000D03*
D52*
%TO.P,U201,15,PGND/EP_15*%
%TO.N,GND*%
X12500000Y-60000000D03*
X12500000Y-60500000D03*
X12500000Y-61000000D03*
X12500000Y-61500000D03*
X12500000Y-62000000D03*
X13000000Y-60000000D03*
X13000000Y-60500000D03*
X13000000Y-61000000D03*
D53*
X13000000Y-61000000D03*
D52*
X13000000Y-61500000D03*
X13000000Y-62000000D03*
X13500000Y-60000000D03*
X13500000Y-60500000D03*
X13500000Y-61000000D03*
X13500000Y-61500000D03*
X13500000Y-62000000D03*
%TD*%
D27*
%TO.P,Q111,1,G_1*%
%TO.N,USB_ILIM_AUTH*%
X19062500Y-85050000D03*
%TO.P,Q111,2,S_2*%
%TO.N,GND*%
X19062500Y-86950000D03*
%TO.P,Q111,3,D_3*%
%TO.N,USB_ILIM_SERIES*%
X20937500Y-86000000D03*
%TD*%
D54*
%TO.P,U401,1,A0_1*%
%TO.N,GND*%
X14875000Y-20337500D03*
%TO.P,U401,2,A1_2*%
X14225000Y-20337500D03*
%TO.P,U401,3,~{RESET}_3*%
%TO.N,HOST_3V3*%
X13575000Y-20337500D03*
%TO.P,U401,4,DGND_4*%
%TO.N,GND*%
X12925000Y-20337500D03*
%TO.P,U401,5,AVSS_5*%
X12275000Y-20337500D03*
%TO.P,U401,6,AIN3_6*%
%TO.N,O2_B_AIN_N*%
X11625000Y-20337500D03*
%TO.P,U401,7,AIN2_7*%
%TO.N,O2_B_AIN_P*%
X10975000Y-20337500D03*
%TO.P,U401,8,REFN_8*%
%TO.N,unconnected-(U401-REFN-Pad8)*%
X10325000Y-20337500D03*
%TO.P,U401,9,REFP_9*%
%TO.N,unconnected-(U401-REFP-Pad9)*%
X10325000Y-26062500D03*
%TO.P,U401,10,AIN1_10*%
%TO.N,O2_A_AIN_N*%
X10975000Y-26062500D03*
%TO.P,U401,11,AIN0_11*%
%TO.N,O2_A_AIN_P*%
X11625000Y-26062500D03*
%TO.P,U401,12,AVDD_12*%
%TO.N,HOST_3V3*%
X12275000Y-26062500D03*
%TO.P,U401,13,DVDD_13*%
X12925000Y-26062500D03*
%TO.P,U401,14,~{DRDY}_14*%
%TO.N,unconnected-(U401-~{DRDY}-Pad14)*%
X13575000Y-26062500D03*
%TO.P,U401,15,SDA_15*%
%TO.N,I2C_SDA*%
X14225000Y-26062500D03*
%TO.P,U401,16,SCL_16*%
%TO.N,I2C_SCL*%
X14875000Y-26062500D03*
%TD*%
D15*
%TO.P,R705,1*%
%TO.N,CO_RX_3V0*%
X27175000Y-33400000D03*
%TO.P,R705,2*%
%TO.N,CO_RX_CABLE*%
X28825000Y-33400000D03*
%TD*%
D55*
%TO.P,C104,1*%
%TO.N,VSYS*%
X18125000Y-75250000D03*
%TO.P,C104,2*%
%TO.N,GND*%
X21075000Y-75250000D03*
%TD*%
D27*
%TO.P,Q112,1,G_1*%
%TO.N,USB_PERMISSION_Q_N*%
X23812500Y-95800000D03*
%TO.P,Q112,2,S_2*%
%TO.N,GND*%
X23812500Y-97700000D03*
%TO.P,Q112,3,D_3*%
%TO.N,CHG_INT_N*%
X25687500Y-96750000D03*
%TD*%
D44*
%TO.P,U112,1,CLK_1*%
%TO.N,USB_ILIM_AUTH*%
X23800000Y-79750000D03*
%TO.P,U112,2,D_2*%
%TO.N,HOST_3V3*%
X23800000Y-80250000D03*
%TO.P,U112,3,Q_N_3*%
%TO.N,USB_PERMISSION_Q_N*%
X23800000Y-80750000D03*
%TO.P,U112,4,GND_4*%
%TO.N,GND*%
X23800000Y-81250000D03*
%TO.P,U112,5,Q_5*%
%TO.N,USB_PERMISSION_Q*%
X26600000Y-81250000D03*
%TO.P,U112,6,CLR_N_6*%
%TO.N,USB_PERMISSION_CLR_N*%
X26600000Y-80750000D03*
%TO.P,U112,7,PRE_N_7*%
%TO.N,HOST_3V3*%
X26600000Y-80250000D03*
%TO.P,U112,8,VCC_8*%
X26600000Y-79750000D03*
%TD*%
D15*
%TO.P,R302,1*%
%TO.N,HOST_3V3*%
X2575000Y-83500000D03*
%TO.P,R302,2*%
%TO.N,I2C_SCL*%
X4225000Y-83500000D03*
%TD*%
D18*
%TO.P,R114,1*%
%TO.N,USB_VBUS_SENSE*%
X21750000Y-93575000D03*
%TO.P,R114,2*%
%TO.N,GND*%
X21750000Y-91925000D03*
%TD*%
D56*
%TO.P,R111,1*%
%TO.N,HOST_3V3*%
X27500000Y-76725000D03*
%TO.P,R111,2*%
%TO.N,USB_CC_INT_N*%
X27500000Y-78375000D03*
%TD*%
D57*
%TO.P,U502,1,A0_1*%
%TO.N,HOST_3V3*%
X9737500Y-39725000D03*
%TO.P,U502,2,A1_2*%
%TO.N,GND*%
X9737500Y-40375000D03*
%TO.P,U502,3,~{RESET}_3*%
%TO.N,HOST_3V3*%
X9737500Y-41025000D03*
%TO.P,U502,4,DGND_4*%
%TO.N,GND*%
X9737500Y-41675000D03*
%TO.P,U502,5,AVSS_5*%
X9737500Y-42325000D03*
%TO.P,U502,6,AIN3_6*%
%TO.N,O2_VMID*%
X9737500Y-42975000D03*
%TO.P,U502,7,AIN2_7*%
%TO.N,HE_EXC_DIV*%
X9737500Y-43625000D03*
%TO.P,U502,8,REFN_8*%
%TO.N,unconnected-(U502-REFN-Pad8)*%
X9737500Y-44275000D03*
%TO.P,U502,9,REFP_9*%
%TO.N,unconnected-(U502-REFP-Pad9)*%
X15462500Y-44275000D03*
%TO.P,U502,10,AIN1_10*%
%TO.N,HE_AIN_N*%
X15462500Y-43625000D03*
%TO.P,U502,11,AIN0_11*%
%TO.N,HE_AIN_P*%
X15462500Y-42975000D03*
%TO.P,U502,12,AVDD_12*%
%TO.N,HOST_3V3*%
X15462500Y-42325000D03*
%TO.P,U502,13,DVDD_13*%
X15462500Y-41675000D03*
%TO.P,U502,14,~{DRDY}_14*%
%TO.N,unconnected-(U502-~{DRDY}-Pad14)*%
X15462500Y-41025000D03*
%TO.P,U502,15,SDA_15*%
%TO.N,I2C_SDA*%
X15462500Y-40375000D03*
%TO.P,U502,16,SCL_16*%
%TO.N,I2C_SCL*%
X15462500Y-39725000D03*
%TD*%
D16*
%TO.P,TP1002,1,1_1*%
%TO.N,USB_5V*%
X23001277Y-83000000D03*
%TD*%
D10*
%TO.P,C302,1*%
%TO.N,VOUT_5V*%
X10725000Y-48100000D03*
%TO.P,C302,2*%
%TO.N,GND*%
X12275000Y-48100000D03*
%TD*%
D15*
%TO.P,R501,1*%
%TO.N,HE_ENABLE*%
X1375000Y-54200000D03*
%TO.P,R501,2*%
%TO.N,GND*%
X3025000Y-54200000D03*
%TD*%
D58*
%TO.P,U101,1,VBUS_1*%
%TO.N,USB_CHG_5V*%
X11037500Y-82750000D03*
%TO.P,U101,2,D+_2*%
%TO.N,unconnected-(U101-D+-Pad2)*%
X11037500Y-83250000D03*
%TO.P,U101,3,D-_3*%
%TO.N,unconnected-(U101-D--Pad3)*%
X11037500Y-83750000D03*
%TO.P,U101,4,STAT_4*%
%TO.N,/01  CHARGING + BATTERY/CHG_STAT_N*%
X11037500Y-84250000D03*
%TO.P,U101,5,SCL_5*%
%TO.N,I2C_SCL*%
X11037500Y-84750000D03*
%TO.P,U101,6,SDA_6*%
%TO.N,I2C_SDA*%
X11037500Y-85250000D03*
D59*
%TO.P,U101,7,~{INT}_7*%
%TO.N,CHG_INT_N*%
X11750000Y-85962500D03*
%TO.P,U101,8,OTG_8*%
%TO.N,GND*%
X12250000Y-85962500D03*
%TO.P,U101,9,~{CE}_9*%
%TO.N,/01  CHARGING + BATTERY/CHG_CE_N*%
X12750000Y-85962500D03*
%TO.P,U101,10,ILIM_10*%
%TO.N,BQ_ILIM*%
X13250000Y-85962500D03*
%TO.P,U101,11,TS_11*%
%TO.N,/01  CHARGING + BATTERY/PACK_TS*%
X13750000Y-85962500D03*
%TO.P,U101,12,~{QON}_12*%
%TO.N,/01  CHARGING + BATTERY/BQ_QON_N*%
X14250000Y-85962500D03*
D58*
%TO.P,U101,13,BAT_13*%
%TO.N,PACK_P*%
X14962500Y-85250000D03*
%TO.P,U101,14,BAT_14*%
X14962500Y-84750000D03*
%TO.P,U101,15,SYS_15*%
%TO.N,VSYS*%
X14962500Y-84250000D03*
%TO.P,U101,16,SYS_16*%
X14962500Y-83750000D03*
%TO.P,U101,17,PGND_17*%
%TO.N,GND*%
X14962500Y-83250000D03*
%TO.P,U101,18,PGND_18*%
X14962500Y-82750000D03*
D59*
%TO.P,U101,19,SW_19*%
%TO.N,/01  CHARGING + BATTERY/BQ_SW*%
X14250000Y-82037500D03*
%TO.P,U101,20,SW_20*%
X13750000Y-82037500D03*
%TO.P,U101,21,BTST_21*%
%TO.N,/01  CHARGING + BATTERY/BQ_BTST*%
X13250000Y-82037500D03*
%TO.P,U101,22,REGN_22*%
%TO.N,/01  CHARGING + BATTERY/BQ_REGN*%
X12750000Y-82037500D03*
%TO.P,U101,23,PMID_23*%
%TO.N,/01  CHARGING + BATTERY/BQ_PMID*%
X12250000Y-82037500D03*
%TO.P,U101,24,DSEL_24*%
%TO.N,unconnected-(U101-DSEL-Pad24)*%
X11750000Y-82037500D03*
D60*
%TO.P,U101,25,PGND_25*%
%TO.N,GND*%
X11900000Y-82900000D03*
X11900000Y-84000000D03*
X11900000Y-85100000D03*
X13000000Y-82900000D03*
X13000000Y-84000000D03*
D61*
X13000000Y-84000000D03*
D60*
X13000000Y-85100000D03*
X14100000Y-82900000D03*
X14100000Y-84000000D03*
X14100000Y-85100000D03*
%TD*%
D18*
%TO.P,R603,1*%
%TO.N,BME_VIN*%
X1250000Y-67825000D03*
%TO.P,R603,2*%
%TO.N,BME_SCL*%
X1250000Y-66175000D03*
%TD*%
D13*
%TO.P,C201,1*%
%TO.N,VSYS*%
X17000000Y-63225000D03*
%TO.P,C201,2*%
%TO.N,GND*%
X17000000Y-60275000D03*
%TD*%
D31*
%TO.P,R104,1*%
%TO.N,VSYS*%
X5825000Y-93000000D03*
%TO.P,R104,2*%
%TO.N,/01  CHARGING + BATTERY/CHG_CE_N*%
X4175000Y-93000000D03*
%TD*%
D62*
%TO.P,J101,1,1_1*%
%TO.N,USB_5V*%
X10250000Y-97000000D03*
D63*
%TO.P,J101,2,2_2*%
%TO.N,GND*%
X12050000Y-97000000D03*
%TO.P,J101,3,3_3*%
%TO.N,USB_CC1*%
X13850000Y-97000000D03*
%TO.P,J101,4,4_4*%
%TO.N,USB_CC2*%
X15650000Y-97000000D03*
%TO.P,J101,5,5_5*%
%TO.N,USB_D_P*%
X17450000Y-97000000D03*
%TO.P,J101,6,6_6*%
%TO.N,USB_D_M*%
X19250000Y-97000000D03*
%TD*%
D48*
%TO.P,C202,1*%
%TO.N,VSYS*%
X18225000Y-72250000D03*
%TO.P,C202,2*%
%TO.N,GND*%
X21175000Y-72250000D03*
%TD*%
D10*
%TO.P,C405,1*%
%TO.N,O2_B_AIN_N*%
X11825000Y-34600000D03*
%TO.P,C405,2*%
%TO.N,GND*%
X13375000Y-34600000D03*
%TD*%
D18*
%TO.P,R404,1*%
%TO.N,O2_VMID*%
X1300000Y-33825000D03*
%TO.P,R404,2*%
%TO.N,O2_A_AIN_P*%
X1300000Y-32175000D03*
%TD*%
D15*
%TO.P,R113,1*%
%TO.N,USB_OVP_5V*%
X25175000Y-83250000D03*
%TO.P,R113,2*%
%TO.N,USB_VBUS_SENSE*%
X26825000Y-83250000D03*
%TD*%
D14*
%TO.P,C406,1*%
%TO.N,O2_B_AIN_P*%
X10200000Y-33775000D03*
%TO.P,C406,2*%
%TO.N,GND*%
X10200000Y-32225000D03*
%TD*%
D64*
%TO.P,U111,1,USB+_1*%
%TO.N,unconnected-(U111-USB+-Pad1)*%
X25625000Y-73850000D03*
%TO.P,U111,2,USB-_2*%
%TO.N,unconnected-(U111-USB--Pad2)*%
X25625000Y-74250000D03*
D65*
%TO.P,U111,3,SCL_3*%
%TO.N,I2C_SCL*%
X25850000Y-74875000D03*
%TO.P,U111,4,SDA_4*%
%TO.N,I2C_SDA*%
X26250000Y-74875000D03*
%TO.P,U111,5,INTB_5*%
%TO.N,USB_BC_INT_N*%
X26650000Y-74875000D03*
%TO.P,U111,6,NC_6*%
%TO.N,unconnected-(U111-NC-Pad6)*%
X27050000Y-74875000D03*
D64*
%TO.P,U111,7,D-_7*%
%TO.N,USB_D_M*%
X27275000Y-74250000D03*
%TO.P,U111,8,D+_8*%
%TO.N,USB_D_P*%
X27275000Y-73850000D03*
D65*
%TO.P,U111,9,GND_9*%
%TO.N,GND*%
X27050000Y-73225000D03*
%TO.P,U111,10,ADDR_10*%
X26650000Y-73225000D03*
%TO.P,U111,11,ENB_11*%
X26250000Y-73225000D03*
%TO.P,U111,12,VDD_12*%
%TO.N,HOST_3V3*%
X25850000Y-73225000D03*
%TD*%
D66*
%TO.P,U302,1,VIN_1*%
%TO.N,VOUT_5V*%
X11162500Y-50850000D03*
%TO.P,U302,2,GND_2*%
%TO.N,GND*%
X11162500Y-51500000D03*
%TO.P,U302,3,CE_3*%
%TO.N,HOST_5V*%
X11162500Y-52150000D03*
%TO.P,U302,4,NC_4*%
%TO.N,unconnected-(U302-NC-Pad4)*%
X12837500Y-52150000D03*
%TO.P,U302,5,ST_5*%
%TO.N,GND*%
X12837500Y-51500000D03*
%TO.P,U302,6,VOUT_6*%
%TO.N,HOST_5V*%
X12837500Y-50850000D03*
%TD*%
D15*
%TO.P,R801,1*%
%TO.N,Net-(J801-Pin_1)*%
X3925000Y-75000000D03*
%TO.P,R801,2*%
%TO.N,PB_FILTERED_N*%
X5575000Y-75000000D03*
%TD*%
D22*
%TO.P,J401,1,Pin_1_1*%
%TO.N,O2_A_RAW_P*%
X4900000Y-24460000D03*
D23*
%TO.P,J401,2,Pin_2_2*%
%TO.N,O2_A_RAW_N*%
X4900000Y-27000000D03*
%TO.P,J401,3,Pin_3_3*%
%TO.N,unconnected-(J401-Pin_3-Pad3)*%
X4900000Y-29540000D03*
%TD*%
D14*
%TO.P,C111,1*%
%TO.N,HOST_3V3*%
X29025000Y-73875000D03*
%TO.P,C111,2*%
%TO.N,GND*%
X29025000Y-72325000D03*
%TD*%
D20*
%TO.P,C702,1*%
%TO.N,CO_5V28*%
X21900000Y-56150000D03*
%TO.P,C702,2*%
%TO.N,GND*%
X21900000Y-54250000D03*
%TD*%
D67*
%TO.N,GND*%
X12800000Y-93950000D03*
X11146600Y-86280800D03*
D68*
X5750000Y-82425000D03*
X2100000Y-25735000D03*
X4775000Y-49700000D03*
D67*
X24200000Y-79100000D03*
D68*
X13025000Y-39400000D03*
X20500000Y-66800000D03*
X9275000Y-49100000D03*
X19825000Y-75250000D03*
X6200000Y-79525000D03*
X11100000Y-91100000D03*
X7675000Y-31300000D03*
X28000000Y-84225000D03*
X22000000Y-62425000D03*
X20750000Y-88300000D03*
X13200000Y-68250000D03*
X17275000Y-38400000D03*
X7750000Y-85525000D03*
X19062500Y-85950000D03*
X20462500Y-57800000D03*
X23350000Y-54250000D03*
X15925000Y-28500000D03*
X1000000Y-56050000D03*
X4950000Y-59250000D03*
X19062500Y-78700000D03*
X5350000Y-62100000D03*
X15775000Y-58500000D03*
D67*
X15925000Y-83575000D03*
D68*
X8000000Y-71775000D03*
D69*
X25400000Y-79200000D03*
D68*
X10450000Y-90500000D03*
X19925000Y-72250000D03*
X12775000Y-46900000D03*
X27200000Y-96175000D03*
X10462500Y-56475000D03*
X14375000Y-34850000D03*
D67*
X20300000Y-87850000D03*
D68*
X20750000Y-91925000D03*
X22000000Y-42925000D03*
D69*
X25200000Y-75900000D03*
D67*
X28200000Y-71950000D03*
D68*
X23812500Y-96700000D03*
X6900000Y-92450000D03*
X16325000Y-37400000D03*
D67*
X26650000Y-72400000D03*
D68*
X4025000Y-54200000D03*
X12600000Y-21400000D03*
X9275000Y-45300000D03*
X20450000Y-43350000D03*
X20450000Y-59600000D03*
X17512500Y-68300000D03*
X18800000Y-45400000D03*
X24300000Y-82000000D03*
X11075000Y-55950000D03*
X18275000Y-64000000D03*
X22612500Y-85800000D03*
X4950000Y-63875000D03*
X15100000Y-47775000D03*
X6525000Y-57000000D03*
X28500000Y-79425000D03*
X18950000Y-68250000D03*
X16650000Y-32250000D03*
X4000000Y-45587500D03*
X9200000Y-32225000D03*
X16700000Y-59025000D03*
X3175000Y-90750000D03*
X22000000Y-77125000D03*
X5350000Y-68900000D03*
X3700000Y-87750000D03*
%TO.N,PACK_P*%
X1278600Y-89113100D03*
X16027100Y-72901400D03*
D69*
X16950000Y-85200000D03*
D68*
X20695000Y-86827600D03*
D67*
%TO.N,HOST_3V3*%
X23628700Y-78649800D03*
X16679000Y-40953700D03*
X19750000Y-68650000D03*
X19990500Y-70860100D03*
X7700000Y-74900000D03*
X1200000Y-62050000D03*
D69*
X24500000Y-75980000D03*
D67*
X17935400Y-37802900D03*
X22000000Y-83250000D03*
X20452700Y-65492600D03*
X11850000Y-70750000D03*
X25469000Y-80301100D03*
X27825000Y-72975000D03*
X2450000Y-74000000D03*
X26000000Y-83750000D03*
%TO.N,/01  CHARGING + BATTERY/BQ_REGN*%
X9704500Y-76253600D03*
D69*
X12790000Y-81150000D03*
D67*
X1100000Y-83000000D03*
X3800000Y-88500000D03*
X3400000Y-81600000D03*
D68*
%TO.N,HE_AIN_N*%
X5771300Y-44323200D03*
X13987500Y-44356300D03*
X5610800Y-33774600D03*
%TO.N,HE_3V0*%
X2792000Y-41149700D03*
X19022000Y-46858100D03*
X7037400Y-42266500D03*
%TO.N,HE_EXC_DIV*%
X18233100Y-48957800D03*
X6769000Y-47603700D03*
%TO.N,VOUT_5V*%
X10250000Y-51000000D03*
X8529500Y-67549700D03*
X1250000Y-78486100D03*
X13178100Y-52977600D03*
X2212800Y-48218100D03*
D67*
X10400000Y-48900000D03*
D68*
X1309600Y-56992700D03*
X14204900Y-69351200D03*
X8496900Y-60958100D03*
X2263600Y-66260300D03*
%TO.N,PB_FILTERED_N*%
X6729800Y-71458900D03*
X7458500Y-57002700D03*
D67*
%TO.N,/01  CHARGING + BATTERY/PACK_TS*%
X10840800Y-82142200D03*
X10150000Y-89075000D03*
D69*
X13750000Y-86600000D03*
D68*
%TO.N,CO_UART_EN*%
X23177500Y-58366400D03*
X15415900Y-50136400D03*
%TO.N,VSYS*%
X19345000Y-71511800D03*
X11400000Y-54025000D03*
X7772400Y-95949100D03*
X15705600Y-61605600D03*
X20486900Y-95757000D03*
D67*
X14950000Y-95600000D03*
D68*
X15200000Y-59900000D03*
D69*
X15840000Y-84250000D03*
D68*
X3374100Y-93761400D03*
X7050700Y-88804800D03*
X21000000Y-80589200D03*
X4157100Y-57182100D03*
D69*
%TO.N,/01  CHARGING + BATTERY/BQ_BTST*%
X13500000Y-81200000D03*
D68*
X20100000Y-81350000D03*
%TO.N,O2_VMID*%
X15235100Y-37324900D03*
X11755100Y-31308200D03*
X5377000Y-37025700D03*
X2323400Y-29050100D03*
X8067100Y-44101500D03*
X7370100Y-36377800D03*
%TO.N,BME_VIN*%
X5610800Y-71796000D03*
D67*
X1250000Y-58900000D03*
X1250000Y-63650000D03*
X2300000Y-69775000D03*
D68*
X20618500Y-40797000D03*
%TO.N,USB_PERMISSION_Q*%
X16182700Y-91701700D03*
X22042700Y-87173200D03*
X25950700Y-82058300D03*
D67*
%TO.N,USB_ILIM_BRANCH*%
X16274999Y-93725000D03*
X22075000Y-86400000D03*
X17800000Y-89500000D03*
D68*
%TO.N,CO_5V28*%
X20212500Y-54929600D03*
X22820300Y-51437200D03*
%TO.N,CO_RX_CABLE*%
X28825000Y-31842300D03*
%TO.N,Net-(U801-ONT)*%
X8531600Y-69336000D03*
D67*
X10269900Y-70714500D03*
D68*
X10218500Y-55326200D03*
%TO.N,BME_SDA*%
X1968300Y-68614000D03*
X23315800Y-37123200D03*
X6844400Y-44400500D03*
%TO.N,HOST_5V*%
X10000000Y-49650000D03*
X10250000Y-52150000D03*
X14000000Y-50850000D03*
%TO.N,USB_ILIM_AUTH*%
X28807500Y-69147700D03*
X20870200Y-85165700D03*
X28065700Y-89325400D03*
X22499700Y-79998600D03*
%TO.N,BME_SCL*%
X2156700Y-67081700D03*
X8045700Y-50136000D03*
X5876500Y-48741500D03*
D67*
%TO.N,I2C_SCL*%
X15750000Y-79550000D03*
X19250000Y-74750000D03*
X6358100Y-87583200D03*
D69*
X26600000Y-76700000D03*
D67*
X25300000Y-75125000D03*
X18200000Y-77100000D03*
X20500000Y-69600000D03*
X25356300Y-71812800D03*
X24457400Y-36479800D03*
D68*
X4290500Y-85299500D03*
D67*
X25998400Y-62778000D03*
X19400000Y-72800000D03*
D69*
X9980000Y-84750000D03*
D67*
X18959700Y-31702400D03*
D68*
%TO.N,CO_LOGIC_3V0*%
X13960200Y-47651700D03*
X17069700Y-43188500D03*
X2849900Y-53058400D03*
X13191200Y-45278500D03*
%TO.N,O2_B_AIN_N*%
X14171300Y-31451500D03*
X11635200Y-23174200D03*
%TO.N,O2_B_AIN_P*%
X9209600Y-33835600D03*
X13357300Y-31529100D03*
X10098600Y-23013100D03*
X2312600Y-38549000D03*
%TO.N,HE_ENABLE*%
X10076400Y-53888800D03*
X18639900Y-53887600D03*
D67*
%TO.N,I2C_SDA*%
X28157800Y-62959300D03*
X25955100Y-71362000D03*
D69*
X26650000Y-77750000D03*
D67*
X17800000Y-78519300D03*
X26450000Y-74050000D03*
X23012500Y-63524100D03*
X16800000Y-79519300D03*
D69*
X10200000Y-85500000D03*
D68*
%TO.N,CHARGE_ARM*%
X17741000Y-77735500D03*
X6100000Y-80617600D03*
D67*
%TO.N,/01  CHARGING + BATTERY/CHG_CE_N*%
X17167000Y-80894500D03*
X3240300Y-91502200D03*
X6400000Y-88350000D03*
D69*
X12750000Y-86650000D03*
D68*
%TO.N,O2_B_RAW_P*%
X1278600Y-38037000D03*
%TO.N,CO_FB*%
X17719200Y-62085300D03*
X16463500Y-54485900D03*
X19026500Y-54952900D03*
%TO.N,HE_AIN_P*%
X13161400Y-42753100D03*
X9900600Y-37287600D03*
X7678000Y-51847100D03*
%TO.N,Net-(U801-PDT)*%
X14597200Y-68204100D03*
X14873700Y-53121300D03*
X13161400Y-66668700D03*
%TO.N,Net-(J801-Pin_1)*%
X3014600Y-74819400D03*
%TO.N,O2_A_RAW_P*%
X8686700Y-21152900D03*
D69*
%TO.N,CHG_INT_N*%
X11750000Y-86800000D03*
D67*
X20150000Y-82800000D03*
X18300000Y-82300000D03*
X19950000Y-74300000D03*
X17850000Y-85250000D03*
X22150000Y-98200000D03*
X9100000Y-97100000D03*
X8450000Y-98200000D03*
%TO.N,USB_LIMIT_FAULT_N*%
X6000000Y-92050000D03*
X2047900Y-93452100D03*
D68*
%TO.N,O2_B_RAW_N*%
X15184500Y-34732600D03*
%TO.N,BUTTON_LED_A*%
X5508800Y-69953700D03*
X2260900Y-75873500D03*
%TO.N,CO_TX_3V0*%
X11600000Y-41532500D03*
X23346100Y-38724100D03*
%TO.N,USB_CHG_5V*%
X7100000Y-90350000D03*
X10100000Y-82750000D03*
D69*
%TO.N,USB_CC1*%
X23600000Y-77150000D03*
%TO.N,USB_CC2*%
X23600000Y-77850000D03*
D67*
X25100000Y-88600000D03*
X15650000Y-95500000D03*
%TO.N,USB_VBUS_DET*%
X22050000Y-70850000D03*
X24900000Y-79675000D03*
D69*
%TO.N,USB_CC_INT_N*%
X26100000Y-78900000D03*
D70*
X13600000Y-89775000D03*
D67*
X25074500Y-87211800D03*
X16700000Y-90360000D03*
X22200000Y-88350000D03*
D68*
%TO.N,POWER_INT_N*%
X22368900Y-66830800D03*
X15922200Y-56365000D03*
X5736000Y-73232000D03*
%TO.N,USB_5V*%
X23911500Y-72521000D03*
X13000000Y-91650000D03*
X22250900Y-80985500D03*
D67*
X20350000Y-97200000D03*
D68*
X1693900Y-85246400D03*
X2444500Y-86951300D03*
D67*
X22000000Y-82000000D03*
X17600000Y-79600000D03*
X16399999Y-80800000D03*
%TO.N,USB_OVP_5V*%
X18350000Y-94600000D03*
X14800000Y-91600000D03*
D68*
X13300000Y-92400000D03*
X8000000Y-88550000D03*
D67*
X20000000Y-94300000D03*
D68*
X24412700Y-84033400D03*
D67*
%TO.N,USB_LIMIT_SET*%
X7125000Y-91100000D03*
X5925000Y-94025000D03*
X4950000Y-88850000D03*
D68*
%TO.N,CO_UART_RX*%
X10123100Y-47191500D03*
%TO.N,CO_UART_TX*%
X15704600Y-46835100D03*
%TO.N,CO_RX_3V0*%
X15553500Y-45110100D03*
X28807500Y-40094000D03*
D67*
%TO.N,GAUGE_ALERT_N*%
X17190000Y-72035000D03*
X11950000Y-71650000D03*
X9700000Y-72150000D03*
X11250000Y-73900000D03*
D68*
%TO.N,USB_VBUS_SENSE*%
X22218000Y-89102200D03*
X20535300Y-92822800D03*
%TO.N,POWER_EN*%
X7893100Y-66484000D03*
X21254900Y-59272300D03*
X14702200Y-58411600D03*
%TO.N,POWER_KILL_N*%
X16268700Y-53058300D03*
X2334600Y-81733200D03*
%TO.N,USB_PERMISSION_Q_N*%
X22653500Y-96916600D03*
X22765600Y-81879400D03*
D69*
%TO.N,/01  CHARGING + BATTERY/CHG_STAT_N*%
X10150000Y-84000000D03*
D67*
%TO.N,USB_D_P*%
X1000000Y-84800000D03*
D69*
X28050000Y-73750000D03*
D67*
X6800000Y-96700000D03*
X23400000Y-68900000D03*
X5000000Y-92300000D03*
X9500000Y-95000000D03*
%TO.N,USB_D_M*%
X23500000Y-94600000D03*
X27950000Y-75200000D03*
X28900000Y-78700000D03*
D69*
%TO.N,USB_OVP_SET*%
X12200000Y-87800000D03*
X12400000Y-90300000D03*
D67*
%TO.N,USB_OVP_UVLO*%
X17950000Y-87925000D03*
X13600000Y-91000000D03*
%TD*%
%TO.N,O2_A_AIN_P*%
D71*
X10058800Y-19255200D02*
X12569800Y-19255200D01*
X6125000Y-31460300D02*
X2014700Y-31460300D01*
X6125000Y-31460300D02*
X6125000Y-32300000D01*
X10048000Y-27353500D02*
X10976500Y-27353500D01*
X10976500Y-27353500D02*
X11625000Y-26705000D01*
X6125000Y-31460300D02*
X6125000Y-31276500D01*
X11625000Y-26705000D02*
X11625000Y-26062500D01*
X8919500Y-22649500D02*
X11625000Y-25355000D01*
X11625000Y-25355000D02*
X11625000Y-26062500D01*
X9271100Y-22173400D02*
X9271100Y-20042900D01*
X8919500Y-22525000D02*
X9271100Y-22173400D01*
X9271100Y-20042900D02*
X10058800Y-19255200D01*
X2014700Y-31460300D02*
X1300000Y-32175000D01*
X12569800Y-19255200D02*
X13325000Y-18500000D01*
X8919500Y-22525000D02*
X8919500Y-22649500D01*
X6125000Y-31276500D02*
X10048000Y-27353500D01*
X1300000Y-22525000D02*
X8919500Y-22525000D01*
%TO.N,GND*%
X17512500Y-68300000D02*
X18000000Y-68787500D01*
D72*
X8970300Y-40375000D02*
X8512400Y-40832900D01*
D71*
X25200000Y-75900000D02*
X25200000Y-75980000D01*
D72*
X12925000Y-20337500D02*
X12925000Y-19626700D01*
X9200000Y-32225000D02*
X9200000Y-29955300D01*
D73*
X4775000Y-48700000D02*
X4775000Y-49700000D01*
D72*
X12775000Y-49650000D02*
X12000000Y-50425000D01*
D71*
X25200000Y-75980000D02*
X25400000Y-75980000D01*
D73*
X23862500Y-85800000D02*
X22612500Y-85800000D01*
D72*
X7850000Y-41400000D02*
X8500600Y-41400000D01*
D73*
X19062500Y-79700000D02*
X19062500Y-78700000D01*
X13200000Y-69500000D02*
X13200000Y-69350000D01*
D71*
X25400000Y-76575000D02*
X25000000Y-76575000D01*
D73*
X15775000Y-58000000D02*
X15775000Y-58500000D01*
D72*
X8655800Y-39252500D02*
X8932300Y-38976000D01*
D74*
X6675000Y-62100000D02*
X5350000Y-62100000D01*
D73*
X18950000Y-67000000D02*
X18950000Y-68250000D01*
D74*
X21900000Y-54250000D02*
X23350000Y-54250000D01*
D72*
X4775000Y-40815000D02*
X4775000Y-42700000D01*
X10777100Y-42663900D02*
X10438200Y-42325000D01*
X8932300Y-37242700D02*
X9875000Y-36300000D01*
X26750000Y-73225000D02*
X26650000Y-73225000D01*
D71*
X19025000Y-86975000D02*
X19062500Y-86950000D01*
D72*
X12000000Y-50425000D02*
X12000000Y-51500000D01*
X17012500Y-70550000D02*
X17400000Y-70550000D01*
X14700000Y-82800000D02*
X14400000Y-82800000D01*
D73*
X16325000Y-36400000D02*
X16325000Y-37400000D01*
D72*
X8932300Y-38976000D02*
X8932300Y-37242700D01*
X10652900Y-44939300D02*
X10777100Y-44815100D01*
D73*
X9275000Y-48100000D02*
X9275000Y-49100000D01*
D71*
X26250000Y-72650000D02*
X26650000Y-72650000D01*
D72*
X9625000Y-57316800D02*
X9625000Y-58050000D01*
D73*
X21000000Y-68050000D02*
X20500000Y-66800000D01*
X3025000Y-54200000D02*
X4025000Y-54200000D01*
D74*
X17862500Y-45400000D02*
X18800000Y-45400000D01*
D73*
X8850000Y-89550000D02*
X9200000Y-89550000D01*
X12775000Y-48099700D02*
X12775000Y-46900000D01*
D72*
X10652900Y-45850000D02*
X11600000Y-45850000D01*
X17700000Y-70350000D02*
X18000000Y-69800000D01*
D71*
X25400000Y-75980000D02*
X25400000Y-76575000D01*
X24600000Y-78225000D02*
X24600000Y-78700000D01*
D73*
X19062500Y-86950000D02*
X19062500Y-85950000D01*
D75*
X16900000Y-82325000D02*
X15925000Y-82325000D01*
D71*
X22887500Y-76487500D02*
X22837500Y-76487500D01*
D72*
X8512400Y-41388200D02*
X8500600Y-41400000D01*
D73*
X23800000Y-81250000D02*
X24300000Y-82000000D01*
D74*
X7525000Y-83900000D02*
X8199999Y-84275000D01*
D72*
X11252300Y-28972700D02*
X11252300Y-28137400D01*
X14400000Y-82800000D02*
X14100000Y-82800000D01*
D73*
X20450000Y-42100000D02*
X20450000Y-43350000D01*
X13200000Y-69350000D02*
X13200000Y-68250000D01*
D76*
X27050000Y-73225000D02*
X27050000Y-72650000D01*
X26250000Y-73225000D02*
X26250000Y-72650000D01*
D73*
X15775000Y-57500000D02*
X15775000Y-58000000D01*
D72*
X11252300Y-28972700D02*
X11725000Y-28500000D01*
D73*
X21175000Y-72250000D02*
X19925000Y-72250000D01*
D72*
X9737500Y-41675000D02*
X9737500Y-42325000D01*
X8970300Y-40375000D02*
X8655800Y-40060500D01*
X9737500Y-40375000D02*
X8970300Y-40375000D01*
D73*
X9275000Y-46300000D02*
X9275000Y-45850000D01*
X4950000Y-60500000D02*
X4950000Y-59250000D01*
X4000000Y-46837500D02*
X4000000Y-45587500D01*
D72*
X10652900Y-45850000D02*
X10652900Y-44939300D01*
X9200000Y-29955300D02*
X9709900Y-29445400D01*
D73*
X14400000Y-83250000D02*
X14100000Y-83250000D01*
D72*
X21000000Y-68050000D02*
X21751300Y-67298700D01*
X10468200Y-56473600D02*
X9625000Y-57316800D01*
D73*
X21750000Y-91925000D02*
X20750000Y-91925000D01*
X10200000Y-32225000D02*
X9200000Y-32225000D01*
D71*
X15575000Y-57800000D02*
X15575000Y-57500000D01*
X10900000Y-86527400D02*
X10900000Y-87425000D01*
X25000000Y-76156100D02*
X25000000Y-76575000D01*
D74*
X8100000Y-77625000D02*
X6200000Y-79525000D01*
D73*
X5750000Y-83425000D02*
X5750000Y-82425000D01*
D72*
X11900000Y-85100000D02*
X11900000Y-84454100D01*
D73*
X15100000Y-49025000D02*
X15100000Y-47775000D01*
D71*
X14400000Y-82800000D02*
X14400000Y-83250000D01*
D73*
X22500000Y-76875000D02*
X22000000Y-77125000D01*
D71*
X25000000Y-76575000D02*
X25000000Y-76156100D01*
D72*
X4950000Y-60500000D02*
X4950000Y-62750000D01*
D73*
X12775000Y-49650000D02*
X12775000Y-48099700D01*
X16275000Y-38400000D02*
X17275000Y-38400000D01*
D72*
X9275000Y-45850000D02*
X10652900Y-45850000D01*
D71*
X11146600Y-86280800D02*
X10900000Y-86527400D01*
X29025000Y-72325000D02*
X28575000Y-72325000D01*
D72*
X8512400Y-40832900D02*
X8512400Y-41388200D01*
D73*
X13025000Y-38400000D02*
X13025000Y-39400000D01*
X12575000Y-57700000D02*
X11337500Y-56256200D01*
D72*
X12275000Y-21075000D02*
X12600000Y-21400000D01*
X10779600Y-29445400D02*
X11252300Y-28972700D01*
D73*
X28250000Y-80425000D02*
X28500000Y-79425000D01*
X11337500Y-56256200D02*
X10468200Y-56473600D01*
D72*
X12500000Y-60000000D02*
X11600000Y-60000000D01*
D73*
X8750000Y-84275000D02*
X8250000Y-84900000D01*
D71*
X8250000Y-84900000D02*
X8200000Y-84850000D01*
D73*
X17775000Y-65000000D02*
X18275000Y-64000000D01*
D72*
X13264000Y-19287700D02*
X13872700Y-19287700D01*
D73*
X21075000Y-75250000D02*
X19825000Y-75250000D01*
X8250000Y-84900000D02*
X7750000Y-85525000D01*
D74*
X7525000Y-82300000D02*
X7525000Y-83900000D01*
D73*
X2250000Y-56050000D02*
X1000000Y-56050000D01*
D72*
X12000000Y-51500000D02*
X12837500Y-51500000D01*
D71*
X8200000Y-84850000D02*
X8200000Y-84275000D01*
D72*
X10438200Y-42325000D02*
X9737500Y-42325000D01*
D73*
X23812500Y-97700000D02*
X23812500Y-96700000D01*
X17012500Y-69050000D02*
X17512500Y-68300000D01*
D71*
X25000000Y-76156100D02*
X25000000Y-75980000D01*
D72*
X12925000Y-19626700D02*
X13264000Y-19287700D01*
D71*
X28575000Y-72325000D02*
X28200000Y-71950000D01*
D73*
X28200000Y-96175000D02*
X27200000Y-96175000D01*
D71*
X14100000Y-82900000D02*
X14100000Y-82800000D01*
D73*
X7675000Y-32300000D02*
X7675000Y-31300000D01*
D71*
X22837500Y-76487500D02*
X22700000Y-76625000D01*
D72*
X12775000Y-48099700D02*
X12275300Y-48099700D01*
D74*
X4950000Y-65000000D02*
X4950000Y-63875000D01*
D72*
X19325000Y-59300000D02*
X19325000Y-58650000D01*
D73*
X17000000Y-60275000D02*
X16700000Y-59025000D01*
D74*
X6675000Y-65500000D02*
X5350000Y-65500000D01*
D72*
X14875000Y-20337500D02*
X14225000Y-20337500D01*
D71*
X26650000Y-72650000D02*
X27050000Y-72650000D01*
X24600000Y-78700000D02*
X24200000Y-79100000D01*
D72*
X12208800Y-84145400D02*
X12250000Y-84186600D01*
D71*
X25000000Y-75980000D02*
X25200000Y-75980000D01*
D72*
X12275000Y-20337500D02*
X12275000Y-21075000D01*
D74*
X6675000Y-68900000D02*
X5350000Y-68900000D01*
D72*
X9709900Y-29445400D02*
X10779600Y-29445400D01*
X8775600Y-41675000D02*
X9737500Y-41675000D01*
D71*
X16524999Y-87125000D02*
X17500000Y-87125000D01*
X18000000Y-68787500D02*
X18000000Y-69800000D01*
D72*
X13872700Y-19287700D02*
X14225000Y-19640000D01*
D73*
X8000000Y-73025000D02*
X8000000Y-71775000D01*
D72*
X18250000Y-70050000D02*
X18987500Y-70050000D01*
D71*
X25400000Y-78225000D02*
X25400000Y-79200000D01*
D72*
X18000000Y-69800000D02*
X18250000Y-70050000D01*
X11162500Y-51500000D02*
X12000000Y-51500000D01*
X17400000Y-70550000D02*
X17700000Y-70350000D01*
D71*
X18150000Y-87100000D02*
X18275000Y-86975000D01*
D76*
X26650000Y-73225000D02*
X26650000Y-72650000D01*
D72*
X12275300Y-48099700D02*
X12275000Y-48100000D01*
D73*
X14925000Y-28500000D02*
X15925000Y-28500000D01*
D72*
X10777100Y-44815100D02*
X10777100Y-42663900D01*
X8500600Y-41400000D02*
X8775600Y-41675000D01*
D73*
X4425000Y-90750000D02*
X3175000Y-90750000D01*
D71*
X11100000Y-91100000D02*
X11100000Y-90830100D01*
D72*
X6650000Y-37390000D02*
X6650000Y-37325000D01*
D73*
X21000000Y-62425000D02*
X22000000Y-62425000D01*
D71*
X10240000Y-91950000D02*
X10450000Y-90500000D01*
X16100000Y-87550000D02*
X16524999Y-87125000D01*
X17500000Y-87125000D02*
X17525000Y-87100000D01*
D72*
X14962500Y-82750000D02*
X14700000Y-82800000D01*
X27050000Y-73225000D02*
X26750000Y-73225000D01*
X8655800Y-40060500D02*
X8655800Y-39252500D01*
X4000000Y-40040000D02*
X4775000Y-40815000D01*
D71*
X17525000Y-87100000D02*
X18150000Y-87100000D01*
D73*
X28000000Y-85225000D02*
X28000000Y-84225000D01*
D71*
X15325000Y-87550000D02*
X16100000Y-87550000D01*
D73*
X16650000Y-33250000D02*
X16650000Y-32250000D01*
X20212500Y-56800000D02*
X20462500Y-57800000D01*
X11337500Y-56256200D02*
X11075000Y-55950000D01*
D72*
X12275000Y-20337500D02*
X12925000Y-20337500D01*
D73*
X9275000Y-45850000D02*
X9275000Y-45300000D01*
D72*
X4950000Y-62750000D02*
X4950000Y-65000000D01*
D73*
X9200000Y-89550000D02*
X10450000Y-90500000D01*
X6525000Y-58000000D02*
X6525000Y-57000000D01*
D71*
X18275000Y-86975000D02*
X19025000Y-86975000D01*
D72*
X14225000Y-19640000D02*
X14225000Y-20337500D01*
D73*
X14962500Y-83250000D02*
X14400000Y-83250000D01*
X19900000Y-59875000D02*
X20450000Y-59600000D01*
D72*
X11900000Y-84454100D02*
X12208700Y-84145400D01*
D71*
X15775000Y-58000000D02*
X15575000Y-57800000D01*
D73*
X10468200Y-56473600D02*
X10462500Y-56475000D01*
D71*
X22500000Y-76875000D02*
X22887500Y-76487500D01*
D72*
X26750000Y-73225000D02*
X26650000Y-73225000D01*
X4000000Y-40040000D02*
X6650000Y-37390000D01*
X12250000Y-84186600D02*
X12250000Y-85962500D01*
D73*
X12462500Y-55975000D02*
X11337500Y-56256200D01*
X19250000Y-60350000D02*
X19900000Y-59875000D01*
D72*
X1299999Y-25735000D02*
X2100000Y-25735000D01*
X12208700Y-84145400D02*
X12208800Y-84145400D01*
X19900000Y-59875000D02*
X19325000Y-59300000D01*
D73*
X13375000Y-34600000D02*
X14375000Y-34850000D01*
X23000000Y-76625000D02*
X22500000Y-76875000D01*
D75*
X15925000Y-82325000D02*
X15925000Y-83575000D01*
D73*
X22000000Y-43925000D02*
X22000000Y-42925000D01*
D72*
X21751300Y-67298700D02*
X21751300Y-66000000D01*
%TO.N,PACK_P*%
D77*
X21501300Y-90250000D02*
X20200000Y-90250000D01*
D74*
X15462500Y-85250000D02*
X16950000Y-85200000D01*
D77*
X16127100Y-69647500D02*
X16127100Y-72751400D01*
X20200000Y-91400000D02*
X17700000Y-91400000D01*
D78*
X15632400Y-68417600D02*
X15632400Y-69136300D01*
X17050000Y-67000000D02*
X15632400Y-68417600D01*
D79*
X14962500Y-85250000D02*
X14962500Y-84750000D01*
D77*
X16127099Y-72751400D02*
X16027100Y-72901400D01*
D79*
X16046100Y-69550000D02*
X16224600Y-69550000D01*
X17012500Y-69550000D02*
X17012500Y-70050000D01*
D77*
X20200000Y-90250000D02*
X20200000Y-91400000D01*
X1475000Y-90750000D02*
X1278600Y-90553600D01*
D79*
X15632400Y-69136300D02*
X16046100Y-69550000D01*
X16224600Y-69550000D02*
X17012500Y-69550000D01*
D77*
X21501300Y-87633900D02*
X20695000Y-86827600D01*
X16133500Y-93000000D02*
X14900000Y-93000000D01*
X1278600Y-90553600D02*
X1278600Y-89113100D01*
X21501300Y-90250000D02*
X21501300Y-87633900D01*
X16224600Y-69550000D02*
X16127100Y-69647500D01*
X15462500Y-85250000D02*
X14962500Y-85250000D01*
X17700000Y-91400000D02*
X16133500Y-93000000D01*
%TO.N,HOST_3V3*%
D71*
X9737500Y-39725000D02*
X10829900Y-39725000D01*
X14198900Y-29323900D02*
X13375000Y-28500000D01*
X12925000Y-26062500D02*
X12925000Y-28050000D01*
X26850000Y-79750000D02*
X28150000Y-78900000D01*
X28150000Y-78900000D02*
X28500000Y-78350000D01*
X20806700Y-45047700D02*
X19422100Y-45047700D01*
X2575000Y-83500000D02*
X3114100Y-83581436D01*
X24435000Y-45004400D02*
X25159100Y-45004400D01*
X11125000Y-71150000D02*
X11325000Y-70950000D01*
X1100000Y-92750000D02*
X1218300Y-92750000D01*
X22372400Y-35628900D02*
X22601300Y-35400000D01*
X29025000Y-73075000D02*
X27925000Y-73075000D01*
X23650000Y-75450000D02*
X23850000Y-75700000D01*
X21228300Y-44626100D02*
X20806700Y-45047700D01*
X3586900Y-76263800D02*
X4659600Y-76263800D01*
X16485200Y-41731000D02*
X16256300Y-41502100D01*
X12925000Y-28050000D02*
X13375000Y-28500000D01*
X26899700Y-81975000D02*
X28250000Y-81975000D01*
D76*
X25850000Y-73225000D02*
X25850000Y-72650000D01*
D71*
X12925000Y-23412200D02*
X12925000Y-26062500D01*
X25191800Y-42718300D02*
X24258300Y-42718300D01*
X23418500Y-75000000D02*
X24325000Y-75000000D01*
X18562500Y-34050000D02*
X18562500Y-32686300D01*
X27925000Y-73075000D02*
X27825000Y-72975000D01*
X11538900Y-40628200D02*
X10829900Y-40628200D01*
X11425000Y-37631700D02*
X13547800Y-37631700D01*
X29025000Y-73875000D02*
X29025000Y-73075000D01*
X11325000Y-70950000D02*
X11650000Y-70950000D01*
X1561900Y-82386900D02*
X3114100Y-82386900D01*
X10829900Y-39725000D02*
X10829900Y-40628200D01*
X23418500Y-75000000D02*
X23418500Y-75275100D01*
X22050000Y-70300000D02*
X22300000Y-70350000D01*
X24123400Y-75980000D02*
X24500000Y-75980000D01*
X3474800Y-82386900D02*
X3114100Y-82386900D01*
X2350700Y-91617600D02*
X2350700Y-90715700D01*
X11425000Y-38400000D02*
X11425000Y-39129900D01*
X27500000Y-76725000D02*
X28100000Y-77575000D01*
X6850000Y-75250000D02*
X6825000Y-75275000D01*
X19617800Y-35628900D02*
X22372400Y-35628900D01*
X11650000Y-70950000D02*
X11850000Y-70750000D01*
X3114100Y-89952300D02*
X3114100Y-82386900D01*
X6825000Y-75350000D02*
X6800000Y-75375000D01*
X24600000Y-76575000D02*
X24500000Y-75980000D01*
X23174800Y-78649800D02*
X23628700Y-78649800D01*
X25159100Y-45004400D02*
X25851700Y-44311800D01*
X7075000Y-75100000D02*
X7050000Y-75125000D01*
X11425000Y-39129900D02*
X10829900Y-39725000D01*
X1648100Y-74325000D02*
X3586900Y-76263800D01*
X29000000Y-77575000D02*
X28100000Y-77575000D01*
X18944800Y-44194600D02*
X18599500Y-43849300D01*
X28500000Y-78350000D02*
X29000000Y-77575000D01*
X14414500Y-41266600D02*
X14822900Y-41675000D01*
X16485200Y-43430600D02*
X16485200Y-41731000D01*
X23850000Y-75700000D02*
X24500000Y-75980000D01*
X2350700Y-90715700D02*
X3114100Y-89952300D01*
X11425000Y-37631700D02*
X11425000Y-36300000D01*
X22550000Y-70600000D02*
X23400000Y-73300000D01*
X7700000Y-74900000D02*
X7500000Y-75100000D01*
X23400000Y-73300000D02*
X23650000Y-75450000D01*
X1775000Y-74000000D02*
X1450000Y-74325000D01*
X10926100Y-27748900D02*
X11207300Y-27748900D01*
X23160300Y-43816300D02*
X23160300Y-43933100D01*
X22300000Y-70350000D02*
X22550000Y-70600000D01*
X14447900Y-38677100D02*
X14447900Y-41281300D01*
X26137500Y-84850000D02*
X26137500Y-82737200D01*
X6825000Y-75275000D02*
X6825000Y-75350000D01*
X16679000Y-41079400D02*
X16679000Y-40953700D01*
X5251100Y-76855300D02*
X5251100Y-77750000D01*
X23160300Y-43933100D02*
X22467300Y-44626100D01*
X26000000Y-83750000D02*
X26137500Y-82737200D01*
X1250000Y-74325000D02*
X1648100Y-74325000D01*
X1450000Y-74325000D02*
X1250000Y-74325000D01*
X14447900Y-41281300D02*
X14668700Y-41502100D01*
X25850000Y-72226700D02*
X27265000Y-70811700D01*
X22467300Y-44626100D02*
X21228300Y-44626100D01*
X18562500Y-34591900D02*
X18562500Y-34050000D01*
X11600000Y-46350000D02*
X12245900Y-46350000D01*
X1200000Y-61375000D02*
X1200000Y-62050000D01*
X19562500Y-38250000D02*
X19617800Y-38194700D01*
X19617800Y-35628900D02*
X18580900Y-34592000D01*
X28250000Y-81975000D02*
X28774000Y-82499000D01*
X14520600Y-38604400D02*
X14447900Y-38677100D01*
X11381700Y-27574500D02*
X11493500Y-27574500D01*
X11425000Y-38400000D02*
X11425000Y-37631700D01*
X10175000Y-28500000D02*
X10926100Y-27748900D01*
X12275000Y-26793000D02*
X12275000Y-26062500D01*
X14520600Y-38604400D02*
X14414500Y-38710500D01*
X15200100Y-29323900D02*
X14198900Y-29323900D01*
X4659600Y-76263800D02*
X5251100Y-76855300D01*
X26850000Y-79750000D02*
X26600000Y-79750000D01*
X16903900Y-43849300D02*
X16485200Y-43430600D01*
X12245900Y-46350000D02*
X12514400Y-46081500D01*
X17538000Y-37405500D02*
X17935400Y-37802900D01*
X18562500Y-34591900D02*
X17538000Y-35616400D01*
X19422100Y-45047700D02*
X18944800Y-44570400D01*
X14725000Y-38400000D02*
X14520600Y-38604400D01*
X28774000Y-82499000D02*
X28774000Y-86001000D01*
X7050000Y-75125000D02*
X6975000Y-75125000D01*
X26137500Y-82737200D02*
X26899700Y-81975000D01*
X23597200Y-45842200D02*
X24435000Y-45004400D01*
X27775000Y-81975000D02*
X28250000Y-81975000D01*
X22700000Y-78175000D02*
X23174800Y-78649800D01*
X11425000Y-38400000D02*
X11475000Y-38400000D01*
X24258300Y-42718300D02*
X23160300Y-43816300D01*
X20285100Y-65325000D02*
X20452700Y-65492600D01*
X5251100Y-77750000D02*
X5251100Y-80610600D01*
X28774000Y-86001000D02*
X28000000Y-86775000D01*
X11493500Y-27574500D02*
X12275000Y-26793000D01*
X18580900Y-34592000D02*
X18580900Y-34591900D01*
X10433100Y-41025000D02*
X9737500Y-41025000D01*
X26600000Y-79750000D02*
X26600000Y-80250000D01*
X18944800Y-44570400D02*
X18944800Y-44194600D01*
X23800000Y-80250000D02*
X25469000Y-80250000D01*
X19500000Y-65325000D02*
X20285100Y-65325000D01*
X6850000Y-75225000D02*
X6850000Y-75250000D01*
X25851700Y-43378200D02*
X25191800Y-42718300D01*
X12514400Y-41603700D02*
X11538900Y-40628200D01*
X5251100Y-80610600D02*
X3474800Y-82386900D01*
X27265000Y-70811700D02*
X27265000Y-70371700D01*
X16256300Y-41502100D02*
X16679000Y-41079400D01*
X19990500Y-70860100D02*
X22050000Y-70300000D01*
X19617800Y-38194700D02*
X19617800Y-35628900D01*
X23418500Y-75275100D02*
X24123400Y-75980000D01*
X14822900Y-41675000D02*
X15462500Y-41675000D01*
X14414500Y-38710500D02*
X14414500Y-41266600D01*
X6800000Y-75375000D02*
X5251100Y-76855300D01*
X14668700Y-41502100D02*
X16256300Y-41502100D01*
X17538000Y-35616400D02*
X17538000Y-37405500D01*
X12275000Y-26062500D02*
X12925000Y-26062500D01*
X25850000Y-72650000D02*
X25850000Y-72226700D01*
X26600000Y-79750000D02*
X27500000Y-79750000D01*
X12514400Y-46081500D02*
X12514400Y-41603700D01*
X11207300Y-27748900D02*
X11381700Y-27574500D01*
X13547800Y-37631700D02*
X14520600Y-38604400D01*
X25469000Y-80301100D02*
X25469000Y-80250000D01*
X25469000Y-80250000D02*
X26600000Y-80250000D01*
X6925000Y-75150000D02*
X6850000Y-75225000D01*
X1218300Y-92750000D02*
X2350700Y-91617600D01*
X6975000Y-75125000D02*
X6950000Y-75150000D01*
X15462500Y-41675000D02*
X15462500Y-42325000D01*
X10829900Y-40628200D02*
X10433100Y-41025000D01*
X7500000Y-75100000D02*
X7075000Y-75100000D01*
X18580900Y-34591900D02*
X18562500Y-34591900D01*
X27500000Y-79750000D02*
X27500000Y-81700000D01*
X25851700Y-44311800D02*
X25851700Y-43378200D01*
X1250000Y-61325000D02*
X1200000Y-61375000D01*
X27265000Y-66705000D02*
X27265000Y-69245000D01*
X24725000Y-48925000D02*
X23597200Y-47797200D01*
X27500000Y-81700000D02*
X27775000Y-81975000D01*
X13575000Y-20337500D02*
X13575000Y-22762200D01*
X21400000Y-82790000D02*
X22000000Y-83250000D01*
X1250000Y-82075000D02*
X1561900Y-82386900D01*
X27265000Y-69245000D02*
X27265000Y-70371700D01*
X23597200Y-47797200D02*
X23597200Y-45842200D01*
X18599500Y-43849300D02*
X16903900Y-43849300D01*
X18562500Y-32686300D02*
X15200100Y-29323900D01*
X6950000Y-75150000D02*
X6925000Y-75150000D01*
X13575000Y-22762200D02*
X12925000Y-23412200D01*
X2450000Y-74000000D02*
X1775000Y-74000000D01*
%TO.N,/01  CHARGING + BATTERY/BQ_REGN*%
X7500000Y-86100000D02*
X7650000Y-86100000D01*
X12450000Y-87350000D02*
X12475000Y-87350000D01*
X11950000Y-87350000D02*
X11975000Y-87325000D01*
X10350000Y-88100000D02*
X10400000Y-88150000D01*
D72*
X12750000Y-82037500D02*
X12750000Y-81500000D01*
D71*
X12375000Y-87300000D02*
X12400000Y-87325000D01*
X10100000Y-87850000D02*
X10150000Y-87900000D01*
X9704500Y-76253600D02*
X9425900Y-75975000D01*
X11925000Y-87350000D02*
X11950000Y-87350000D01*
X9425900Y-75975000D02*
X8000000Y-75975000D01*
X7450000Y-86050000D02*
X7500000Y-86100000D01*
X11675000Y-88150000D02*
X11675000Y-87550000D01*
X7400000Y-86050000D02*
X7450000Y-86050000D01*
X12000000Y-87300000D02*
X12400000Y-87300000D01*
X11675000Y-87575000D02*
X11875000Y-87375000D01*
X11675000Y-88150000D02*
X11675000Y-87575000D01*
X7700000Y-86150000D02*
X9500000Y-86150000D01*
X12025000Y-87300000D02*
X12125000Y-87300000D01*
X7650000Y-86100000D02*
X7700000Y-86150000D01*
X12400000Y-87325000D02*
X12425000Y-87325000D01*
D72*
X12750000Y-81500000D02*
X12790000Y-81150000D01*
D71*
X10250000Y-88100000D02*
X10350000Y-88100000D01*
X6700000Y-85400000D02*
X6750000Y-85400000D01*
X12150000Y-87275000D02*
X12250000Y-87275000D01*
X12500000Y-87375000D02*
X12525000Y-87375000D01*
X9500000Y-86150000D02*
X10100000Y-86750000D01*
X11975000Y-87325000D02*
X12000000Y-87325000D01*
X12425000Y-87325000D02*
X12450000Y-87350000D01*
X12000000Y-87325000D02*
X12025000Y-87300000D01*
X11900000Y-87375000D02*
X11925000Y-87350000D01*
X10150000Y-88000000D02*
X10250000Y-88100000D01*
X12275000Y-87300000D02*
X12375000Y-87300000D01*
X11875000Y-87375000D02*
X11900000Y-87375000D01*
X12250000Y-87275000D02*
X12275000Y-87300000D01*
X11675000Y-87550000D02*
X12000000Y-87300000D01*
X12475000Y-87350000D02*
X12500000Y-87375000D01*
X12125000Y-87300000D02*
X12150000Y-87275000D01*
X10100000Y-86750000D02*
X10100000Y-87850000D01*
X13975000Y-88900000D02*
X14340000Y-88950000D01*
X10150000Y-87900000D02*
X10150000Y-88000000D01*
X12525000Y-87375000D02*
X12850000Y-87700000D01*
X6700000Y-85400000D02*
X3800000Y-88500000D01*
X10400000Y-88150000D02*
X11675000Y-88150000D01*
X6750000Y-85400000D02*
X7400000Y-86050000D01*
X12850000Y-87700000D02*
X13050000Y-88100000D01*
X13050000Y-88100000D02*
X13975000Y-88900000D01*
%TO.N,HE_AIN_N*%
X14718800Y-43625000D02*
X13987500Y-44356300D01*
X4575000Y-32738800D02*
X5610800Y-33774600D01*
X7909100Y-49559300D02*
X8284600Y-49559300D01*
X5771300Y-44323200D02*
X5771300Y-47421500D01*
X8284600Y-49559300D02*
X9200000Y-50474700D01*
X15462500Y-43625000D02*
X14718800Y-43625000D01*
X4575000Y-32250000D02*
X4575000Y-32738800D01*
X6650000Y-38875000D02*
X5547000Y-39978000D01*
X5547000Y-44098900D02*
X5771300Y-44323200D01*
X5771300Y-47421500D02*
X7909100Y-49559300D01*
X9200000Y-50474700D02*
X9200000Y-50725000D01*
X5547000Y-39978000D02*
X5547000Y-44098900D01*
%TO.N,HE_3V0*%
X6350000Y-42266400D02*
X7037400Y-42266400D01*
X3225000Y-48700000D02*
X3073100Y-48851900D01*
X1101300Y-43615500D02*
X1101300Y-46200000D01*
X1985100Y-48851900D02*
X1101300Y-47968100D01*
X3073100Y-48851900D02*
X1985100Y-48851900D01*
X2792000Y-41924800D02*
X2792000Y-41149700D01*
X6550000Y-40400000D02*
X5923300Y-40400000D01*
X17880100Y-48000000D02*
X17425000Y-48000000D01*
X19022000Y-46858100D02*
X17880100Y-48000000D01*
X7037400Y-42266400D02*
X7037400Y-42266500D01*
X1101300Y-47968100D02*
X1101300Y-46200000D01*
X3050000Y-44562500D02*
X4043100Y-43569400D01*
X2792000Y-41924800D02*
X1101300Y-43615500D01*
X4043100Y-42299000D02*
X3668900Y-41924800D01*
X5923300Y-40400000D02*
X5923300Y-41839700D01*
X5923300Y-41839700D02*
X6350000Y-42266400D01*
X3668900Y-41924800D02*
X2792000Y-41924800D01*
X4043100Y-43569400D02*
X4043100Y-42299000D01*
%TO.N,HE_EXC_DIV*%
X19075000Y-48115900D02*
X19075000Y-48000000D01*
X22000000Y-45575000D02*
X22000000Y-45839400D01*
X7725000Y-48100000D02*
X8500000Y-47325000D01*
X7228700Y-47603700D02*
X6769000Y-47603700D01*
X9031100Y-43625000D02*
X9737500Y-43625000D01*
X22000000Y-45839400D02*
X19839400Y-48000000D01*
X8643800Y-44012300D02*
X9031100Y-43625000D01*
X7725000Y-48100000D02*
X7228700Y-47603700D01*
X18233100Y-48957800D02*
X19075000Y-48115900D01*
X8643800Y-44373300D02*
X8643800Y-44012300D01*
X19839400Y-48000000D02*
X19075000Y-48000000D01*
X8500000Y-47325000D02*
X8500000Y-44517100D01*
X8500000Y-44517100D02*
X8643800Y-44373300D01*
%TO.N,VOUT_5V*%
D77*
X14919300Y-70580700D02*
X15000000Y-70500000D01*
D72*
X11600000Y-61000000D02*
X10500000Y-61000000D01*
X10725000Y-48575000D02*
X10725000Y-48100000D01*
D77*
X13236700Y-52977600D02*
X13178100Y-52977600D01*
X2263600Y-65861500D02*
X2263600Y-66260300D01*
X16102200Y-51899500D02*
X16102200Y-50496700D01*
X3050000Y-47380900D02*
X2212800Y-48218100D01*
D72*
X17850000Y-56800000D02*
X18787500Y-56800000D01*
X10400000Y-48900000D02*
X10725000Y-48575000D01*
D77*
X15175500Y-51899500D02*
X15100000Y-51975000D01*
X16583900Y-50015000D02*
X19500000Y-50015000D01*
D80*
X9625000Y-67980500D02*
X9625000Y-68900000D01*
D72*
X18787500Y-56300000D02*
X17850000Y-56300000D01*
D77*
X1250000Y-64847900D02*
X2263600Y-65861500D01*
D80*
X10500000Y-61500000D02*
X9625000Y-62375000D01*
D77*
X8960300Y-67980500D02*
X8529500Y-67549700D01*
X9625000Y-67980500D02*
X8960300Y-67980500D01*
X2315800Y-46103300D02*
X3050000Y-46837500D01*
X3050000Y-46837500D02*
X3050000Y-47380900D01*
X14239300Y-51975000D02*
X13236700Y-52977600D01*
X15100000Y-51975000D02*
X14239300Y-51975000D01*
D72*
X11600000Y-61500000D02*
X10500000Y-61500000D01*
D78*
X9625000Y-61803100D02*
X8496900Y-60675000D01*
D77*
X14919300Y-70580700D02*
X14204900Y-69866300D01*
X3225000Y-42700000D02*
X2315800Y-43609200D01*
X16102200Y-51899500D02*
X15175500Y-51899500D01*
X1250000Y-64575000D02*
X1250000Y-64847900D01*
D78*
X8496900Y-60675000D02*
X7975000Y-60153100D01*
D72*
X10500000Y-61000000D02*
X10500000Y-61500000D01*
D77*
X8496900Y-60675000D02*
X8496900Y-60958100D01*
X2315800Y-43609200D02*
X2315800Y-46103300D01*
X17850000Y-53647300D02*
X16102200Y-51899500D01*
X14838600Y-70661400D02*
X14919300Y-70580700D01*
X16102200Y-50496700D02*
X16583900Y-50015000D01*
D75*
X11162500Y-50850000D02*
X10400000Y-50850000D01*
D77*
X16750000Y-46350000D02*
X17862500Y-46350000D01*
D72*
X17850000Y-56550000D02*
X17850000Y-56800000D01*
D77*
X9625000Y-67437000D02*
X10337000Y-68149000D01*
X16583900Y-46516100D02*
X16750000Y-46350000D01*
D78*
X9625000Y-62375000D02*
X9625000Y-62100000D01*
D72*
X17850000Y-56300000D02*
X17850000Y-56550000D01*
D80*
X9625000Y-62375000D02*
X9625000Y-62614400D01*
D75*
X10400000Y-50850000D02*
X10250000Y-51000000D01*
D77*
X1250000Y-77575000D02*
X1250000Y-78486100D01*
D72*
X17850000Y-56550000D02*
X17850000Y-56300000D01*
D77*
X2250000Y-57933100D02*
X1309600Y-56992700D01*
X17862500Y-44450000D02*
X16750000Y-44450000D01*
D78*
X9625000Y-62100000D02*
X9625000Y-61803100D01*
D77*
X2250000Y-57950000D02*
X2250000Y-57933100D01*
D78*
X9625000Y-62614400D02*
X9625000Y-62375000D01*
X7975000Y-60153100D02*
X7975000Y-59750000D01*
D80*
X9625000Y-67437000D02*
X9625000Y-67980500D01*
D77*
X14204900Y-69866300D02*
X14204900Y-69351200D01*
D80*
X9625000Y-62614400D02*
X9625000Y-65500000D01*
D77*
X17850000Y-54400000D02*
X17850000Y-53647300D01*
D80*
X9625000Y-65500000D02*
X9625000Y-67437000D01*
D77*
X16583900Y-50015000D02*
X16583900Y-46516100D01*
D72*
X17850000Y-56300000D02*
X17850000Y-54400000D01*
D77*
X16750000Y-44450000D02*
X16750000Y-46350000D01*
%TO.N,PB_FILTERED_N*%
D71*
X9536400Y-55655600D02*
X8189400Y-57002600D01*
X13060900Y-54675000D02*
X12462500Y-54675000D01*
X7458500Y-57002600D02*
X7458500Y-57002700D01*
X12462500Y-54675000D02*
X10007000Y-54675000D01*
X10007000Y-54675000D02*
X9536400Y-55145600D01*
X5575000Y-75000000D02*
X6729800Y-73845200D01*
X13419800Y-56894800D02*
X13419800Y-55033900D01*
X9536400Y-55145600D02*
X9536400Y-55655600D01*
X14025000Y-57500000D02*
X13419800Y-56894800D01*
X13419800Y-55033900D02*
X13060900Y-54675000D01*
X8189400Y-57002600D02*
X7458500Y-57002600D01*
X6729800Y-73845200D02*
X6729800Y-71458900D01*
%TO.N,/01  CHARGING + BATTERY/PACK_TS*%
X13750000Y-85962500D02*
X13750000Y-86600000D01*
X13950000Y-86650000D02*
X13750000Y-86600000D01*
X14350000Y-87100000D02*
X14300000Y-87000000D01*
X10150000Y-89075000D02*
X10900000Y-89075000D01*
X15360000Y-88950000D02*
X14400000Y-87825000D01*
X14400000Y-87825000D02*
X14350000Y-87100000D01*
X14300000Y-87000000D02*
X13950000Y-86650000D01*
%TO.N,CO_UART_EN*%
X13383500Y-46720800D02*
X13383500Y-49027500D01*
X13839700Y-49483700D02*
X13839700Y-49581800D01*
X21669100Y-64075000D02*
X23538100Y-62206000D01*
X23538100Y-60275600D02*
X26074400Y-60275600D01*
X23177500Y-58366400D02*
X23177500Y-59915000D01*
X13754300Y-46350000D02*
X13383500Y-46720800D01*
X14400000Y-46350000D02*
X13754300Y-46350000D01*
X13383500Y-49027500D02*
X13839700Y-49483700D01*
X26074400Y-60275600D02*
X27265000Y-59085000D01*
X23177500Y-59915000D02*
X23538100Y-60275600D01*
X14394300Y-50136400D02*
X15415900Y-50136400D01*
X13839700Y-49581800D02*
X14394300Y-50136400D01*
X23538100Y-62206000D02*
X23538100Y-60275600D01*
X21000000Y-64075000D02*
X21669100Y-64075000D01*
%TO.N,VSYS*%
D77*
X5825000Y-93000000D02*
X6580100Y-93755100D01*
D72*
X14400000Y-61000000D02*
X15100000Y-61000000D01*
D77*
X5061400Y-70661600D02*
X4000000Y-69600200D01*
X7772400Y-94224800D02*
X7772400Y-95949100D01*
X7050700Y-88374300D02*
X7050700Y-88804800D01*
X8750000Y-87225000D02*
X8750000Y-87229700D01*
D78*
X4000000Y-68173300D02*
X3425000Y-67598300D01*
D77*
X15840000Y-84250000D02*
X17000000Y-84250000D01*
D73*
X15462500Y-84250000D02*
X15840000Y-84250000D01*
D78*
X4157100Y-57182100D02*
X4975000Y-58000000D01*
D77*
X7302700Y-93755100D02*
X7772400Y-94224800D01*
D78*
X13500000Y-73775000D02*
X13650000Y-73925000D01*
D77*
X8750000Y-87229700D02*
X8745300Y-87225000D01*
D78*
X4000000Y-69600200D02*
X4000000Y-68173300D01*
X4000000Y-69725000D02*
X4000000Y-69600200D01*
D72*
X15100000Y-61000000D02*
X15600000Y-61500000D01*
D78*
X13650000Y-73925000D02*
X16649999Y-73925000D01*
D79*
X15462500Y-84250000D02*
X14962500Y-84250000D01*
D77*
X13500000Y-73775000D02*
X13500000Y-72323600D01*
D78*
X17808400Y-74933400D02*
X18125000Y-75250000D01*
X3425000Y-67598300D02*
X3425000Y-67000000D01*
D77*
X9133500Y-70661600D02*
X5061400Y-70661600D01*
X4947500Y-93877500D02*
X3490200Y-93877500D01*
D72*
X14400000Y-61500000D02*
X15600000Y-61500000D01*
D81*
X15705600Y-61605600D02*
X16700000Y-62600000D01*
D77*
X8745300Y-87225000D02*
X8200000Y-87225000D01*
D78*
X17958400Y-74783400D02*
X17958400Y-72666600D01*
X17958400Y-72666600D02*
X18225000Y-72250000D01*
X16649999Y-73925000D02*
X17808400Y-74933400D01*
D77*
X18963200Y-71511800D02*
X19345000Y-71511800D01*
D81*
X15600000Y-61500000D02*
X15705600Y-61605600D01*
D77*
X17000000Y-84250000D02*
X17000000Y-83775000D01*
X20743900Y-95500000D02*
X20486900Y-95757000D01*
X10107300Y-71635400D02*
X9133500Y-70661600D01*
X10795500Y-72323600D02*
X10107300Y-71635400D01*
X21000000Y-80504500D02*
X21000000Y-80589200D01*
X13500000Y-72323600D02*
X10795500Y-72323600D01*
X8200000Y-87225000D02*
X7050700Y-88374300D01*
X3490200Y-93877500D02*
X3374100Y-93761400D01*
X21500000Y-95500000D02*
X20743900Y-95500000D01*
D81*
X16700000Y-62600000D02*
X17000000Y-63225000D01*
D77*
X5825000Y-93000000D02*
X4947500Y-93877500D01*
X6580100Y-93755100D02*
X7302700Y-93755100D01*
D75*
X12462500Y-54025000D02*
X11400000Y-54025000D01*
X14400000Y-60000000D02*
X14700000Y-60000000D01*
D79*
X14962500Y-84250000D02*
X14962500Y-83750000D01*
D77*
X18225000Y-72250000D02*
X18963200Y-71511800D01*
D75*
X14700000Y-60000000D02*
X15200000Y-59900000D01*
D78*
X17808400Y-74933400D02*
X17958400Y-74783400D01*
D77*
X8750000Y-87229700D02*
X8750000Y-87723300D01*
%TO.N,/01  CHARGING + BATTERY/BQ_SW*%
D82*
X14250000Y-80100000D02*
X14250000Y-79225000D01*
D72*
X17700000Y-83250000D02*
X19000000Y-83250000D01*
X15710000Y-80100000D02*
X15710000Y-81500000D01*
D82*
X14250000Y-79225000D02*
X13500000Y-79225000D01*
D72*
X17700000Y-81500000D02*
X17700000Y-83250000D01*
D73*
X13750000Y-82037500D02*
X14250000Y-82037500D01*
D82*
X14250000Y-82037500D02*
X14250000Y-80100000D01*
D72*
X15710000Y-81500000D02*
X17700000Y-81500000D01*
X14250000Y-80100000D02*
X15710000Y-80100000D01*
%TO.N,/01  CHARGING + BATTERY/BQ_BTST*%
X13250000Y-82037500D02*
X13250000Y-81700000D01*
X13250000Y-81700000D02*
X13500000Y-81200000D01*
D73*
X19000000Y-81350000D02*
X20100000Y-81350000D01*
%TO.N,O2_VMID*%
D71*
X1300000Y-28935000D02*
X2208300Y-28935000D01*
X4533200Y-38654200D02*
X3557300Y-38654200D01*
X8247300Y-36377700D02*
X7370100Y-36377700D01*
X13175000Y-36400000D02*
X14675000Y-36400000D01*
X2274000Y-34799000D02*
X1300000Y-33825000D01*
X13075000Y-36300000D02*
X13175000Y-36400000D01*
X9737500Y-42975000D02*
X8220600Y-42975000D01*
X11775000Y-31288300D02*
X11755100Y-31308200D01*
X7945600Y-43980000D02*
X8067100Y-44101500D01*
X2873300Y-37970200D02*
X2873300Y-36535500D01*
X8325000Y-36300000D02*
X8247300Y-36377700D01*
X2208300Y-28935000D02*
X2323400Y-29050100D01*
X2873300Y-36535500D02*
X2274000Y-35936200D01*
X13325000Y-30250000D02*
X11775000Y-30250000D01*
X5377000Y-37025700D02*
X5377000Y-37810400D01*
X2274000Y-35936200D02*
X2274000Y-34799000D01*
X14675000Y-36400000D02*
X14675000Y-36764800D01*
X3557300Y-38654200D02*
X2873300Y-37970200D01*
X5377000Y-37810400D02*
X4533200Y-38654200D01*
X8220600Y-42975000D02*
X7945600Y-43250000D01*
X11775000Y-30250000D02*
X11775000Y-31288300D01*
X7945600Y-43250000D02*
X7945600Y-43980000D01*
X14675000Y-36764800D02*
X15235100Y-37324900D01*
X7370100Y-36377700D02*
X7370100Y-36377800D01*
X7945600Y-43250000D02*
X7500000Y-43250000D01*
%TO.N,O2_A_AIN_N*%
X2900100Y-29289000D02*
X2900100Y-28187600D01*
X1300000Y-27285000D02*
X1997500Y-27285000D01*
X9362400Y-26373700D02*
X7548500Y-28187600D01*
X10975000Y-25422600D02*
X10566100Y-25013700D01*
X7318900Y-25606100D02*
X2831100Y-25606100D01*
X8250000Y-24675000D02*
X7318900Y-25606100D01*
X9023700Y-24675000D02*
X8250000Y-24675000D01*
X9362400Y-25013700D02*
X9023700Y-24675000D01*
X7548500Y-28187600D02*
X2900100Y-28187600D01*
X10975000Y-26062500D02*
X10975000Y-25422600D01*
X1300000Y-30585000D02*
X1604100Y-30585000D01*
X10566100Y-25013700D02*
X9362400Y-25013700D01*
X1604100Y-30585000D02*
X2900100Y-29289000D01*
X1997500Y-27285000D02*
X2900100Y-28187600D01*
X2831100Y-25606100D02*
X1300000Y-24075000D01*
X9362400Y-25013700D02*
X9362400Y-26373700D01*
%TO.N,BME_VIN*%
X5610800Y-71796000D02*
X4953100Y-71138300D01*
X20618500Y-40797000D02*
X19853000Y-40797000D01*
X1250000Y-62925000D02*
X1250000Y-63650000D01*
X3259300Y-71138300D02*
X2734200Y-70613200D01*
X2272400Y-71075000D02*
X1250000Y-71075000D01*
X2009800Y-67825000D02*
X1250000Y-67825000D01*
X2300000Y-69775000D02*
X2734200Y-69775000D01*
X2734200Y-70613200D02*
X2272400Y-71075000D01*
X2734200Y-70613200D02*
X2734200Y-68549400D01*
X2734200Y-68549400D02*
X2009800Y-67825000D01*
X19853000Y-40797000D02*
X18550000Y-42100000D01*
X1250000Y-59675000D02*
X1250000Y-58900000D01*
X4953100Y-71138300D02*
X3259300Y-71138300D01*
%TO.N,USB_PERMISSION_Q*%
X13400000Y-90500000D02*
X13600000Y-90450000D01*
X25950700Y-82058300D02*
X25950700Y-81899300D01*
X13850000Y-90525000D02*
X16182700Y-91701700D01*
X13600000Y-90450000D02*
X13850000Y-90525000D01*
X18937500Y-90450000D02*
X17450000Y-90975000D01*
X11260000Y-91950000D02*
X13400000Y-90500000D01*
X17450000Y-90975000D02*
X16182700Y-91701700D01*
X25950700Y-81899300D02*
X26600000Y-81250000D01*
%TO.N,USB_ILIM_SERIES*%
X20600000Y-86150000D02*
X20937500Y-86000000D01*
X20125000Y-86650000D02*
X20250000Y-86450000D01*
X20250000Y-86450000D02*
X20600000Y-86150000D01*
X20100000Y-87250000D02*
X20125000Y-86650000D01*
X18937500Y-88550000D02*
X20100000Y-87250000D01*
%TO.N,USB_ILIM_BRANCH*%
X9225000Y-94450000D02*
X8575000Y-94750000D01*
X16274999Y-93725000D02*
X15875000Y-94125000D01*
X15875000Y-94125000D02*
X15675000Y-94200000D01*
X12575000Y-94500000D02*
X9225000Y-94450000D01*
X17000000Y-89500000D02*
X17800000Y-89500000D01*
X15675000Y-94200000D02*
X12575000Y-94500000D01*
%TO.N,O2_A_RAW_N*%
X7575000Y-27000000D02*
X8250000Y-26325000D01*
X4900000Y-27000000D02*
X7575000Y-27000000D01*
%TO.N,HE_SENSE*%
X2832200Y-32342800D02*
X2925000Y-32250000D01*
X4665200Y-36920200D02*
X4000000Y-36920200D01*
X4000000Y-36920200D02*
X3855100Y-36920200D01*
X2832200Y-35897300D02*
X2832200Y-32342800D01*
X4000000Y-36920200D02*
X4000000Y-37500000D01*
X7385400Y-34200000D02*
X4665200Y-36920200D01*
X7801300Y-34200000D02*
X7385400Y-34200000D01*
X3855100Y-36920200D02*
X2832200Y-35897300D01*
%TO.N,CO_5V28*%
X21845700Y-58471100D02*
X21758200Y-58383600D01*
X19326500Y-57490400D02*
X19326500Y-57298300D01*
X19854500Y-55800000D02*
X19598000Y-56056500D01*
X21758200Y-58383600D02*
X20219700Y-58383600D01*
X20212500Y-55800000D02*
X19854500Y-55800000D01*
X20219700Y-58383600D02*
X19326500Y-57490400D01*
X17323300Y-57298300D02*
X17050000Y-57025000D01*
X21845700Y-61027000D02*
X21845700Y-58471100D01*
X19607800Y-61592200D02*
X21280500Y-61592200D01*
X21900000Y-56150000D02*
X21758200Y-56291800D01*
X20212500Y-55800000D02*
X20212500Y-54929600D01*
X21758200Y-56291800D02*
X21758200Y-58383600D01*
X19250000Y-62250000D02*
X19607800Y-61592200D01*
X19598000Y-56056500D02*
X19598000Y-57026800D01*
X21280500Y-61592200D02*
X21845700Y-61027000D01*
X19598000Y-57026800D02*
X19326500Y-57298300D01*
X19326500Y-57298300D02*
X17323300Y-57298300D01*
%TO.N,CO_TX_CABLE*%
X22576700Y-30401700D02*
X25575000Y-33400000D01*
X22576700Y-29525000D02*
X22576700Y-30401700D01*
X21450000Y-29525000D02*
X22576700Y-29525000D01*
%TO.N,CO_RX_CABLE*%
X28825000Y-33400000D02*
X28825000Y-31842300D01*
%TO.N,Net-(U801-ONT)*%
X11300000Y-69350000D02*
X11300000Y-69684400D01*
X11300000Y-69684400D02*
X10269900Y-70714500D01*
X12462500Y-55325000D02*
X10219700Y-55325000D01*
X10219700Y-55325000D02*
X10218500Y-55326200D01*
%TO.N,BME_SDA*%
X1250000Y-69425000D02*
X1968300Y-68706700D01*
X23315800Y-37321700D02*
X23315800Y-37123200D01*
X21437500Y-39200000D02*
X23315800Y-37321700D01*
X1968300Y-68706700D02*
X1968300Y-68614000D01*
%TO.N,HOST_5V*%
D75*
X11162500Y-52150000D02*
X10250000Y-52150000D01*
D77*
X24725000Y-66705000D02*
X24725000Y-69245000D01*
D75*
X12837500Y-50850000D02*
X14000000Y-50850000D01*
X11225000Y-49650000D02*
X10000000Y-49650000D01*
%TO.N,USB_ILIM_AUTH*%
D71*
X28807500Y-69147700D02*
X28807500Y-58087500D01*
X28991400Y-97033600D02*
X28200000Y-97825000D01*
X28065700Y-89325400D02*
X28991400Y-90251100D01*
X19178200Y-85165700D02*
X19062500Y-85050000D01*
X28991400Y-90251100D02*
X28991400Y-97033600D01*
X20870200Y-85165700D02*
X19178200Y-85165700D01*
X22748300Y-79750000D02*
X22499700Y-79998600D01*
X23800000Y-79750000D02*
X22748300Y-79750000D01*
X28807500Y-58087500D02*
X27265000Y-56545000D01*
%TO.N,BME_SCL*%
X1250000Y-66175000D02*
X2156700Y-67081700D01*
X20323300Y-21525000D02*
X20323300Y-34885800D01*
X20323300Y-34885800D02*
X20437500Y-35000000D01*
X21450000Y-21525000D02*
X20323300Y-21525000D01*
%TO.N,I2C_SCL*%
X18747200Y-38860700D02*
X18502500Y-38616000D01*
X24660600Y-71117100D02*
X25356300Y-71812800D01*
X18987500Y-69550000D02*
X19650300Y-69550000D01*
X16501700Y-29244400D02*
X18959700Y-31702400D01*
X17393500Y-39725000D02*
X15462500Y-39725000D01*
X11037500Y-84750000D02*
X9980000Y-84750000D01*
X18502500Y-38616000D02*
X17393500Y-39725000D01*
X25998400Y-62778000D02*
X25998400Y-69589900D01*
X22732900Y-69000000D02*
X22899100Y-69166200D01*
X25250000Y-75150000D02*
X25300000Y-75125000D01*
X25998400Y-69589900D02*
X24660600Y-70927700D01*
X22770200Y-36479800D02*
X20389300Y-38860700D01*
X16501700Y-27689200D02*
X16501700Y-29244400D01*
X20389300Y-38860700D02*
X18747200Y-38860700D01*
X26500000Y-77200000D02*
X26600000Y-76700000D01*
X20200300Y-69000000D02*
X22732900Y-69000000D01*
X4225000Y-83500000D02*
X4290500Y-85299500D01*
X19650300Y-69550000D02*
X20034100Y-69166200D01*
X19400000Y-72800000D02*
X19250000Y-74750000D01*
X25850000Y-75200000D02*
X25300000Y-75200000D01*
X24851300Y-35400000D02*
X24851300Y-36085900D01*
X18502500Y-36010000D02*
X18562500Y-35950000D01*
X25300000Y-75200000D02*
X25250000Y-75150000D01*
X20034100Y-69166200D02*
X20200300Y-69000000D01*
X25925000Y-77200000D02*
X26500000Y-77200000D01*
X24660600Y-70927700D02*
X24660600Y-71117100D01*
X24851300Y-36085900D02*
X24457400Y-36479800D01*
X24457400Y-36479800D02*
X22770200Y-36479800D01*
X18502500Y-38616000D02*
X18502500Y-36010000D01*
D76*
X25850000Y-74875000D02*
X25850000Y-75200000D01*
D71*
X20034100Y-69166200D02*
X20500000Y-69600000D01*
X14875000Y-26062500D02*
X16501700Y-27689200D01*
X22899100Y-69166200D02*
X24660600Y-70927700D01*
%TO.N,/02  SWITCHED 5 V/TPS_FB*%
X11600000Y-60500000D02*
X10375000Y-60500000D01*
X9625000Y-59750000D02*
X7975000Y-58100000D01*
X10375000Y-60500000D02*
X9625000Y-59750000D01*
X7975000Y-58100000D02*
X7975000Y-58050000D01*
%TO.N,CO_LOGIC_3V0*%
X2977700Y-55216800D02*
X2885800Y-55216800D01*
X20137500Y-44450000D02*
X18876000Y-43188500D01*
X3252800Y-55491900D02*
X2977700Y-55216800D01*
X3252800Y-60297200D02*
X3252800Y-55491900D01*
X2342500Y-53565800D02*
X2849900Y-53058400D01*
X3831400Y-61281400D02*
X3831400Y-64218600D01*
X18876000Y-43188500D02*
X17069700Y-43188500D01*
X3050000Y-60500000D02*
X3252800Y-60297200D01*
X2342500Y-54673500D02*
X2342500Y-53565800D01*
X3050000Y-60500000D02*
X3831400Y-61281400D01*
X13191200Y-45409100D02*
X13632100Y-45850000D01*
X13191200Y-45278500D02*
X13191200Y-45409100D01*
X2885800Y-55216800D02*
X2342500Y-54673500D01*
X13632100Y-45850000D02*
X14400000Y-45850000D01*
X3831400Y-64218600D02*
X3050000Y-65000000D01*
%TO.N,O2_B_AIN_N*%
X14894800Y-32175000D02*
X14171300Y-31451500D01*
X11825000Y-34600000D02*
X11825000Y-33000000D01*
X13787600Y-33800000D02*
X12625000Y-33800000D01*
X12625000Y-33800000D02*
X11825000Y-34600000D01*
X10125000Y-30250000D02*
X10125000Y-30493600D01*
X11825000Y-32193600D02*
X11825000Y-33000000D01*
X11625000Y-20337500D02*
X11625000Y-23164000D01*
X15000000Y-32175000D02*
X15000000Y-32587600D01*
X15000000Y-32175000D02*
X14894800Y-32175000D01*
X15000000Y-32587600D02*
X13787600Y-33800000D01*
X11625000Y-23164000D02*
X11635200Y-23174200D01*
X10125000Y-30493600D02*
X11825000Y-32193600D01*
%TO.N,O2_B_AIN_P*%
X10975000Y-22136700D02*
X10098600Y-23013100D01*
X13375000Y-31432300D02*
X13375000Y-31529100D01*
X13375000Y-31529100D02*
X13375000Y-33000000D01*
X1300000Y-35475000D02*
X2312600Y-36487600D01*
X14557300Y-30250000D02*
X13375000Y-31432300D01*
X10975000Y-20337500D02*
X10975000Y-22136700D01*
X13357300Y-31529100D02*
X13375000Y-31529100D01*
X14975000Y-30250000D02*
X14557300Y-30250000D01*
X10200000Y-33775000D02*
X10139400Y-33835600D01*
X10139400Y-33835600D02*
X9209600Y-33835600D01*
X2312600Y-36487600D02*
X2312600Y-38549000D01*
%TO.N,HE_ENABLE*%
X3980000Y-49210400D02*
X3692600Y-49497800D01*
X4471400Y-50276700D02*
X4598200Y-50276700D01*
X4950000Y-47331800D02*
X3980000Y-48301800D01*
X4871100Y-50549600D02*
X4871100Y-51717100D01*
X4871100Y-51717100D02*
X7042800Y-53888800D01*
X3408500Y-49781900D02*
X3326700Y-49781900D01*
X1375000Y-51733600D02*
X1375000Y-54200000D01*
X3692600Y-49497800D02*
X4471400Y-50276700D01*
X4950000Y-46837500D02*
X4950000Y-47331800D01*
X7042800Y-53888800D02*
X10076400Y-53888800D01*
X3980000Y-48301800D02*
X3980000Y-49210400D01*
X3326700Y-49781900D02*
X1375000Y-51733600D01*
X4598200Y-50276700D02*
X4871100Y-50549600D01*
X3692600Y-49497800D02*
X3408500Y-49781900D01*
%TO.N,I2C_SDA*%
X18711100Y-68826700D02*
X18172300Y-68287900D01*
X23010100Y-63524100D02*
X23012500Y-63524100D01*
X26500000Y-77600000D02*
X26650000Y-77750000D01*
X26092500Y-40150000D02*
X26092500Y-36408800D01*
X11037500Y-85250000D02*
X10200000Y-85500000D01*
X18764200Y-68826700D02*
X18711100Y-68826700D01*
X25122000Y-27224900D02*
X25122000Y-30671700D01*
X26092500Y-42672500D02*
X26092500Y-40150000D01*
X19500000Y-63804500D02*
X19500000Y-63675000D01*
X18747500Y-65731300D02*
X18747500Y-64927100D01*
X20461500Y-64766000D02*
X21768200Y-64766000D01*
X18469000Y-20260100D02*
X21950300Y-20260100D01*
X26490200Y-34788900D02*
X27101300Y-35400000D01*
X21768200Y-64766000D02*
X23010100Y-63524100D01*
X18747500Y-64927100D02*
X19685100Y-63989500D01*
X14225000Y-24504100D02*
X18469000Y-20260100D01*
X27265000Y-43845000D02*
X26092500Y-42672500D01*
X19337500Y-40375000D02*
X15462500Y-40375000D01*
X21950300Y-20260100D02*
X22751700Y-21061500D01*
X25122000Y-30671700D02*
X26490200Y-32039900D01*
X19685100Y-63989500D02*
X19500000Y-63804500D01*
X26490200Y-32039900D02*
X26490200Y-34788900D01*
X26450000Y-74150000D02*
X26450000Y-74050000D01*
X19685100Y-63989500D02*
X20461500Y-64766000D01*
X14225000Y-26062500D02*
X14225000Y-24504100D01*
X22751700Y-24854600D02*
X25122000Y-27224900D01*
X25925000Y-77600000D02*
X26500000Y-77600000D01*
X22751700Y-21061500D02*
X22751700Y-24854600D01*
D76*
X26250000Y-74875000D02*
X26250000Y-74350000D01*
D71*
X16800000Y-79519300D02*
X17800000Y-78519300D01*
X18172300Y-68287900D02*
X18172300Y-66306500D01*
X18172300Y-66306500D02*
X18747500Y-65731300D01*
X18987500Y-69050000D02*
X18764200Y-68826700D01*
X26092500Y-36408800D02*
X27101300Y-35400000D01*
X19562500Y-40150000D02*
X19337500Y-40375000D01*
X26250000Y-74350000D02*
X26450000Y-74150000D01*
X19562500Y-40150000D02*
X26092500Y-40150000D01*
%TO.N,CHARGE_ARM*%
X4951100Y-82099500D02*
X4951100Y-84276100D01*
X18998000Y-77735500D02*
X17741000Y-77735500D01*
X19062500Y-77800000D02*
X18998000Y-77735500D01*
X4951100Y-84276100D02*
X5750000Y-85075000D01*
X6100000Y-80617600D02*
X4951100Y-82099500D01*
%TO.N,/01  CHARGING + BATTERY/CHG_CE_N*%
X20937500Y-79172200D02*
X19653500Y-80456200D01*
X20937500Y-78750000D02*
X20937500Y-79172200D01*
X4175000Y-92436900D02*
X3240300Y-91502200D01*
X19653500Y-80456200D02*
X17605300Y-80456200D01*
X4175000Y-93000000D02*
X4175000Y-92436900D01*
X17605300Y-80456200D02*
X17167000Y-80894500D01*
X12750000Y-85962500D02*
X12750000Y-86650000D01*
%TO.N,BQ_ILIM*%
X13625000Y-87200000D02*
X13625000Y-87500000D01*
X13250000Y-85962500D02*
X13250000Y-86825000D01*
X13250000Y-86825000D02*
X13625000Y-87200000D01*
X13625000Y-87500000D02*
X13675000Y-87550000D01*
%TO.N,O2_B_RAW_P*%
X1300000Y-38015600D02*
X1278600Y-38037000D01*
X1300000Y-37125000D02*
X1300000Y-38015600D01*
%TO.N,CO_FB*%
X18787500Y-55800000D02*
X18787500Y-55191900D01*
X17975000Y-59100000D02*
X17975000Y-59275000D01*
X17918200Y-58893200D02*
X17925000Y-59050000D01*
X18787500Y-55191900D02*
X19026500Y-54952900D01*
X17975000Y-59275000D02*
X18000000Y-59300000D01*
X18200000Y-60975000D02*
X18075000Y-61100000D01*
X18050000Y-61150000D02*
X18050000Y-61750000D01*
X18000000Y-59300000D02*
X18000000Y-59375000D01*
X18000000Y-59375000D02*
X18150000Y-59525000D01*
X17675000Y-58650000D02*
X17918200Y-58893200D01*
X18150000Y-59525000D02*
X18150000Y-59550000D01*
X17050000Y-55375000D02*
X16463500Y-54788500D01*
X18200000Y-59675000D02*
X18200000Y-60975000D01*
X17925000Y-59050000D02*
X17975000Y-59100000D01*
X17918200Y-61886300D02*
X17719200Y-62085300D01*
X18175000Y-59575000D02*
X18175000Y-59650000D01*
X18175000Y-59650000D02*
X18200000Y-59675000D01*
X18075000Y-61125000D02*
X18050000Y-61150000D01*
X16463500Y-54788500D02*
X16463500Y-54485900D01*
X18150000Y-59550000D02*
X18175000Y-59575000D01*
X18050000Y-61750000D02*
X17918200Y-61886300D01*
X18075000Y-61100000D02*
X18075000Y-61125000D01*
%TO.N,HE_AIN_P*%
X9900600Y-37287600D02*
X10102000Y-37287600D01*
X10667700Y-35842200D02*
X11009200Y-35500700D01*
X10102000Y-37287600D02*
X10667700Y-36721900D01*
X13383300Y-42975000D02*
X13161400Y-42753100D01*
X9900600Y-37287600D02*
X9825000Y-37363200D01*
X9825000Y-37363200D02*
X9825000Y-38400000D01*
X15949300Y-35500700D02*
X16650000Y-34800000D01*
X11009200Y-35500700D02*
X15949300Y-35500700D01*
X10667700Y-36721900D02*
X10667700Y-35842200D01*
X8105900Y-52275000D02*
X7678000Y-51847100D01*
X9200000Y-52275000D02*
X8105900Y-52275000D01*
X15462500Y-42975000D02*
X13383300Y-42975000D01*
%TO.N,Net-(U801-PDT)*%
X14873700Y-53121400D02*
X14873700Y-53121300D01*
X14737500Y-54675000D02*
X14126800Y-54675000D01*
X13797800Y-53676000D02*
X14352400Y-53121400D01*
X16225000Y-65000000D02*
X16225000Y-66576300D01*
X16225000Y-66576300D02*
X14597200Y-68204100D01*
X13797800Y-54346000D02*
X13797800Y-53676000D01*
X14126800Y-54675000D02*
X13797800Y-54346000D01*
X14352400Y-53121400D02*
X14873700Y-53121400D01*
%TO.N,Net-(J801-Pin_1)*%
X3925000Y-75000000D02*
X3744400Y-74819400D01*
X3744400Y-74819400D02*
X3014600Y-74819400D01*
%TO.N,O2_A_RAW_P*%
X10244500Y-18500000D02*
X11675000Y-18500000D01*
X8686700Y-20057800D02*
X10244500Y-18500000D01*
X8686700Y-21152900D02*
X8686700Y-20057800D01*
%TO.N,USB_PERMISSION_CLR_N*%
X25944900Y-80750000D02*
X26600000Y-80750000D01*
X23862500Y-84850000D02*
X23478000Y-84465500D01*
X24885300Y-82237500D02*
X24885300Y-81809600D01*
X24885300Y-81809600D02*
X25944900Y-80750000D01*
X21400000Y-84467100D02*
X23476400Y-84467100D01*
X23476400Y-84467100D02*
X23478000Y-84465500D01*
X23478000Y-84465500D02*
X23478000Y-83644800D01*
X21400000Y-83810000D02*
X21400000Y-84467100D01*
X23478000Y-83644800D02*
X24885300Y-82237500D01*
%TO.N,CHG_INT_N*%
X21800000Y-73800000D02*
X21650000Y-73650000D01*
X20550000Y-73600000D02*
X20000000Y-73800000D01*
X17850000Y-85250000D02*
X18100000Y-84650000D01*
X19900000Y-83850000D02*
X20050000Y-83500000D01*
X21650000Y-73650000D02*
X21250000Y-73600000D01*
X25687500Y-96750000D02*
X25687500Y-96333100D01*
X18100000Y-84650000D02*
X18850000Y-84050000D01*
X23035000Y-95149600D02*
X20986900Y-97197700D01*
X20000000Y-73800000D02*
X19950000Y-74300000D01*
X18850000Y-84050000D02*
X19600000Y-84050000D01*
X20000000Y-82800000D02*
X19600000Y-82350000D01*
X24504000Y-95149600D02*
X23035000Y-95149600D01*
X20050000Y-83500000D02*
X20000000Y-82800000D01*
X21250000Y-73600000D02*
X20550000Y-73600000D01*
X19600000Y-84050000D02*
X19900000Y-83850000D01*
X19600000Y-82350000D02*
X18300000Y-82300000D01*
X20986900Y-97197700D02*
X22150000Y-98200000D01*
X11750000Y-85962500D02*
X11750000Y-86800000D01*
X20000000Y-82800000D02*
X20150000Y-82800000D01*
X22675000Y-75000000D02*
X21800000Y-73800000D01*
X25687500Y-96333100D02*
X24504000Y-95149600D01*
X8450000Y-98200000D02*
X9100000Y-97100000D01*
%TO.N,USB_LIMIT_FAULT_N*%
X2750000Y-92750000D02*
X2047900Y-93452100D01*
X6150000Y-91450000D02*
X6000000Y-92050000D01*
%TO.N,O2_B_RAW_N*%
X15000000Y-34548100D02*
X15184500Y-34732600D01*
X6990000Y-19140000D02*
X6990000Y-14060000D01*
X1910000Y-19140000D02*
X1910000Y-14060000D01*
X15000000Y-33825000D02*
X15000000Y-34548100D01*
%TO.N,BUTTON_LED_A*%
X1250000Y-75925000D02*
X2209400Y-75925000D01*
X2209400Y-75925000D02*
X2260900Y-75873500D01*
%TO.N,CO_TX_3V0*%
X11600000Y-45350000D02*
X11600000Y-41532500D01*
X23925000Y-33400000D02*
X24030400Y-33400000D01*
X23346100Y-38476200D02*
X23346100Y-38724100D01*
X25675000Y-36147300D02*
X23346100Y-38476200D01*
X24030400Y-33400000D02*
X25675000Y-35044600D01*
X25675000Y-35044600D02*
X25675000Y-36147300D01*
%TO.N,/02  SWITCHED 5 V/TPS_VINA*%
X11023300Y-59500000D02*
X11023300Y-57701700D01*
X11023300Y-57701700D02*
X11025000Y-57700000D01*
X11600000Y-59500000D02*
X11023300Y-59500000D01*
%TO.N,USB_CHG_5V*%
D77*
X9075000Y-82300000D02*
X9500000Y-82300000D01*
X10500000Y-82750000D02*
X10100000Y-82750000D01*
X6150000Y-90500000D02*
X7100000Y-90350000D01*
X9500000Y-82300000D02*
X10100000Y-82750000D01*
D73*
X11037500Y-82750000D02*
X10500000Y-82750000D01*
%TO.N,HE_REF*%
D71*
X7176700Y-40446600D02*
X7223300Y-40400000D01*
X6550000Y-41400000D02*
X7176700Y-41400000D01*
X7223300Y-40400000D02*
X7850000Y-40400000D01*
X7850000Y-38725000D02*
X8175000Y-38400000D01*
X7850000Y-40400000D02*
X7850000Y-38725000D01*
X7176700Y-41400000D02*
X7176700Y-40446600D01*
%TO.N,USB_CC1*%
X24475000Y-77200000D02*
X23600000Y-77150000D01*
%TO.N,USB_CC2*%
X22250000Y-94300000D02*
X21050000Y-94300000D01*
X22550000Y-94000000D02*
X22500000Y-94050000D01*
X25100000Y-88600000D02*
X22550000Y-91150000D01*
X16200000Y-96050000D02*
X15650000Y-95500000D01*
X22400000Y-94250000D02*
X22300000Y-94250000D01*
X24475000Y-77600000D02*
X23600000Y-77850000D01*
X19750000Y-95800000D02*
X19550000Y-96000000D01*
X19550000Y-96000000D02*
X19500000Y-96000000D01*
X19450000Y-96050000D02*
X16200000Y-96050000D01*
X19750000Y-95750000D02*
X19750000Y-95800000D01*
X22300000Y-94250000D02*
X22250000Y-94300000D01*
X19800000Y-95550000D02*
X19800000Y-95700000D01*
X22550000Y-91150000D02*
X22550000Y-94000000D01*
X19500000Y-96000000D02*
X19450000Y-96050000D01*
X21050000Y-94300000D02*
X19800000Y-95550000D01*
X22500000Y-94050000D02*
X22500000Y-94150000D01*
X22500000Y-94150000D02*
X22400000Y-94250000D01*
X19800000Y-95700000D02*
X19750000Y-95750000D01*
%TO.N,USB_VBUS_DET*%
X24900000Y-78950000D02*
X24900000Y-79675000D01*
X25000000Y-78850000D02*
X24900000Y-78950000D01*
X25000000Y-78225000D02*
X25000000Y-78850000D01*
X22675000Y-73500000D02*
X22050000Y-70850000D01*
%TO.N,USB_CC_INT_N*%
X25800000Y-78225000D02*
X26100000Y-78900000D01*
X23200000Y-87650000D02*
X25074500Y-87211800D01*
X22200000Y-88350000D02*
X23200000Y-87650000D01*
X27500000Y-78375000D02*
X26100000Y-78900000D01*
X13600000Y-89775000D02*
X16700000Y-90360000D01*
X25074500Y-87211800D02*
X24612700Y-86750000D01*
X24612700Y-86750000D02*
X23862500Y-86750000D01*
%TO.N,CO_SW*%
D72*
X20860000Y-56300000D02*
X20860000Y-53400000D01*
X20860000Y-53400000D02*
X19500000Y-52385000D01*
X20212500Y-56300000D02*
X20860000Y-56300000D01*
%TO.N,POWER_INT_N*%
D71*
X26796200Y-60498300D02*
X25995000Y-61299500D01*
X2015500Y-73440500D02*
X1250000Y-72675000D01*
X27002500Y-57958300D02*
X27743400Y-57958300D01*
X26067500Y-56066600D02*
X26067500Y-57023300D01*
X27265000Y-46385000D02*
X28406400Y-47526400D01*
X5527500Y-73440500D02*
X2015500Y-73440500D01*
X28406400Y-47526400D02*
X28406400Y-54531800D01*
X24322700Y-62895000D02*
X23598300Y-63619400D01*
X26859100Y-55275000D02*
X26067500Y-56066600D01*
X23598300Y-63619400D02*
X23598300Y-65601400D01*
X28406400Y-54531800D02*
X27663200Y-55275000D01*
X15922200Y-56365000D02*
X15532200Y-55975000D01*
X23598300Y-65601400D02*
X22368900Y-66830800D01*
X27663200Y-55275000D02*
X26859100Y-55275000D01*
X25130900Y-62895000D02*
X24322700Y-62895000D01*
X5736000Y-73232000D02*
X5527500Y-73440500D01*
X28423800Y-59563200D02*
X27488700Y-60498300D01*
X27743400Y-57958300D02*
X28423800Y-58638700D01*
X25995000Y-62030900D02*
X25130900Y-62895000D01*
X25995000Y-61299500D02*
X25995000Y-62030900D01*
X15532200Y-55975000D02*
X14737500Y-55975000D01*
X26067500Y-57023300D02*
X27002500Y-57958300D01*
X28423800Y-58638700D02*
X28423800Y-59563200D01*
X27488700Y-60498300D02*
X26796200Y-60498300D01*
%TO.N,USB_5V*%
D77*
X10998300Y-97435600D02*
X11614400Y-98051700D01*
X10250000Y-95948300D02*
X11073700Y-95948300D01*
X23911500Y-71020300D02*
X23602000Y-70710800D01*
X24325000Y-72934500D02*
X23911500Y-72521000D01*
X1693900Y-86200700D02*
X2444500Y-86951300D01*
X11305600Y-96180200D02*
X11305600Y-96257100D01*
X22063900Y-81172500D02*
X22063900Y-82169900D01*
X11305600Y-96257100D02*
X10998300Y-96564400D01*
X10998300Y-96564400D02*
X10998300Y-97435600D01*
X1693900Y-85246400D02*
X1693900Y-86200700D01*
X11073700Y-95948300D02*
X11305600Y-96180200D01*
X11614400Y-98051700D02*
X19685700Y-98051700D01*
X22894000Y-83000000D02*
X23001300Y-83000000D01*
X10250000Y-97000000D02*
X10250000Y-95948300D01*
D71*
X23600000Y-72200000D02*
X23911500Y-72521000D01*
D77*
X19685700Y-98051700D02*
X20301700Y-97435700D01*
X24325000Y-73500000D02*
X24325000Y-72934500D01*
D71*
X22000000Y-82000000D02*
X23001277Y-83000000D01*
X17600000Y-79600000D02*
X16399999Y-80800000D01*
X20301700Y-97435700D02*
X20350000Y-97200000D01*
D77*
X22250900Y-80985500D02*
X22063900Y-81172500D01*
X22063900Y-82169900D02*
X22894000Y-83000000D01*
X23911500Y-72521000D02*
X23911500Y-71020300D01*
D71*
X23602000Y-70710800D02*
X23600000Y-72200000D01*
%TO.N,Net-(L201-Pad1)*%
D83*
X14800000Y-64700000D02*
X14185000Y-65315000D01*
X14800000Y-62500000D02*
X14800000Y-64700000D01*
D72*
X14400000Y-62500000D02*
X14800000Y-62500000D01*
D83*
X14800000Y-62300000D02*
X14800000Y-62500000D01*
X14185000Y-65315000D02*
X14185000Y-66000000D01*
D72*
X14400000Y-62000000D02*
X14800000Y-62000000D01*
X14800000Y-62000000D02*
X14800000Y-62300000D01*
%TO.N,Net-(L201-Pad2)*%
X11600000Y-62500000D02*
X11100000Y-62500000D01*
D83*
X11100000Y-62300000D02*
X11100000Y-62500000D01*
D72*
X11600000Y-62000000D02*
X11100000Y-62000000D01*
X11100000Y-62000000D02*
X11100000Y-62300000D01*
D83*
X11815000Y-65365000D02*
X11815000Y-66000000D01*
X11100000Y-64650000D02*
X11815000Y-65365000D01*
X11100000Y-62500000D02*
X11100000Y-64650000D01*
%TO.N,USB_OVP_5V*%
D77*
X8100000Y-92150000D02*
X8050000Y-92100000D01*
D71*
X19575000Y-95150000D02*
X19775000Y-94875000D01*
D77*
X7950000Y-92050000D02*
X7950000Y-92000000D01*
X8000000Y-92100000D02*
X7950000Y-92050000D01*
X11500000Y-92750000D02*
X9450000Y-92750000D01*
D71*
X18350000Y-94600000D02*
X19000000Y-95200000D01*
D77*
X25175000Y-83250000D02*
X24412700Y-84012300D01*
D71*
X19000000Y-95200000D02*
X19300000Y-95250000D01*
D75*
X14100000Y-91600000D02*
X13300000Y-92400000D01*
D77*
X11600000Y-92700000D02*
X11550000Y-92700000D01*
X24412700Y-84012300D02*
X24412700Y-84033400D01*
X7950000Y-92000000D02*
X7900000Y-91950000D01*
X9350000Y-92700000D02*
X8850000Y-92200000D01*
X8850000Y-90500000D02*
X8850000Y-91450000D01*
X8250000Y-92200000D02*
X8199999Y-92150000D01*
X11550000Y-92700000D02*
X11500000Y-92750000D01*
D71*
X19300000Y-95250000D02*
X19575000Y-95150000D01*
D77*
X11900000Y-92400000D02*
X11600000Y-92700000D01*
X8850000Y-91450000D02*
X8850000Y-92200000D01*
X8199999Y-92150000D02*
X8100000Y-92150000D01*
X8850000Y-92200000D02*
X8250000Y-92200000D01*
X9450000Y-92750000D02*
X9400000Y-92700000D01*
X14800000Y-91600000D02*
X14100000Y-91600000D01*
X7900000Y-91850000D02*
X7850000Y-91800000D01*
D71*
X19775000Y-94875000D02*
X20000000Y-94300000D01*
D77*
X8050000Y-92100000D02*
X8000000Y-92100000D01*
X7850000Y-91800000D02*
X7850000Y-88700000D01*
X7850000Y-88700000D02*
X8000000Y-88550000D01*
X13300000Y-92400000D02*
X11900000Y-92400000D01*
X9400000Y-92700000D02*
X9350000Y-92700000D01*
X8000000Y-89040900D02*
X8000000Y-88550000D01*
X7900000Y-91950000D02*
X7900000Y-91850000D01*
%TO.N,USB_LIMIT_SET*%
D71*
X6925000Y-94750000D02*
X5925000Y-94025000D01*
X4950000Y-88850000D02*
X6150000Y-89550000D01*
%TO.N,/01  CHARGING + BATTERY/BQ_QON_N*%
X14800000Y-86400000D02*
X15100000Y-86400000D01*
X14250000Y-85962500D02*
X14400000Y-86100000D01*
X14400000Y-86100000D02*
X14800000Y-86400000D01*
%TO.N,CO_UART_RX*%
X11600000Y-46850000D02*
X11258500Y-47191500D01*
X11258500Y-47191500D02*
X10123100Y-47191500D01*
%TO.N,CO_UART_TX*%
X14414900Y-46835100D02*
X15704600Y-46835100D01*
X14400000Y-46850000D02*
X14414900Y-46835100D01*
%TO.N,CO_RX_3V0*%
X14400000Y-45350000D02*
X14639900Y-45110100D01*
X14639900Y-45110100D02*
X15553500Y-45110100D01*
X27175000Y-33400000D02*
X28807500Y-35032500D01*
X28807500Y-35032500D02*
X28807500Y-40094000D01*
%TO.N,GAUGE_ALERT_N*%
X18987500Y-70550000D02*
X18987500Y-70975000D01*
X18987500Y-70975000D02*
X17190000Y-70975000D01*
X11950000Y-71650000D02*
X12775000Y-71150000D01*
X11250000Y-73900000D02*
X9700000Y-72150000D01*
X17190000Y-70975000D02*
X17190000Y-72035000D01*
%TO.N,USB_VBUS_SENSE*%
X23298700Y-88021500D02*
X22218000Y-89102200D01*
X27077300Y-87090700D02*
X26146500Y-88021500D01*
X26146500Y-88021500D02*
X23298700Y-88021500D01*
X21287500Y-93575000D02*
X20535300Y-92822800D01*
X27077300Y-85212700D02*
X26490000Y-85800000D01*
X27077300Y-86387300D02*
X27077300Y-87090700D01*
X26490000Y-85800000D02*
X27077300Y-86387300D01*
X27077300Y-83502300D02*
X27077300Y-85212700D01*
X21750000Y-93575000D02*
X21287500Y-93575000D01*
X26490000Y-85800000D02*
X26137500Y-85800000D01*
X26825000Y-83250000D02*
X27077300Y-83502300D01*
%TO.N,POWER_EN*%
X14109900Y-55325000D02*
X13797800Y-55637100D01*
X14737500Y-55325000D02*
X14109900Y-55325000D01*
X14390000Y-56677200D02*
X14774800Y-57062000D01*
X13797800Y-55637100D02*
X13797800Y-56324000D01*
X15800000Y-60500000D02*
X14400000Y-60500000D01*
X14151000Y-56677200D02*
X14390000Y-56677200D01*
X13797800Y-56324000D02*
X14151000Y-56677200D01*
X7249400Y-67127700D02*
X7893100Y-66484000D01*
X14702200Y-58411600D02*
X14774800Y-58411600D01*
X14774800Y-58411600D02*
X15800000Y-59436800D01*
X5075000Y-67000000D02*
X5202700Y-67127700D01*
X15800000Y-59436800D02*
X15800000Y-60500000D01*
X5202700Y-67127700D02*
X7249400Y-67127700D01*
X14774800Y-57062000D02*
X14774800Y-58411600D01*
%TO.N,POWER_KILL_N*%
X14737500Y-54025000D02*
X15302000Y-54025000D01*
X1250000Y-80425000D02*
X2334600Y-81509600D01*
X2334600Y-81509600D02*
X2334600Y-81733200D01*
X15302000Y-54025000D02*
X16268700Y-53058300D01*
%TO.N,USB_BC_INT_N*%
D76*
X26650000Y-74875000D02*
X26650000Y-75800000D01*
X26650000Y-74875000D02*
X26650000Y-75800000D01*
D71*
X26775000Y-75925000D02*
X29000000Y-75925000D01*
X26650000Y-75800000D02*
X26775000Y-75925000D01*
%TO.N,/01  CHARGING + BATTERY/BQ_PMID*%
D84*
X10400000Y-81200000D02*
X8100000Y-81200000D01*
D73*
X12250000Y-82037500D02*
X12250000Y-81300000D01*
D84*
X10500000Y-81300000D02*
X10400000Y-81200000D01*
X8100000Y-81200000D02*
X8100000Y-80575000D01*
D73*
X12250000Y-81300000D02*
X10500000Y-81300000D01*
%TO.N,USB_PERMISSION_Q_N*%
D71*
X22897900Y-81747100D02*
X22765600Y-81879400D01*
X23800000Y-80750000D02*
X23159300Y-80750000D01*
X23812500Y-95800000D02*
X23770100Y-95800000D01*
X23159300Y-80750000D02*
X22897900Y-81011400D01*
X23770100Y-95800000D02*
X22653500Y-96916600D01*
X22897900Y-81011400D02*
X22897900Y-81747100D01*
%TO.N,/01  CHARGING + BATTERY/CHG_STAT_N*%
X10550000Y-84250000D02*
X10150000Y-84000000D01*
X11037500Y-84250000D02*
X10550000Y-84250000D01*
%TO.N,USB_D_P*%
D76*
X27275000Y-73850000D02*
X27800000Y-73850000D01*
X27800000Y-73850000D02*
X28050000Y-73750000D01*
%TO.N,USB_D_M*%
X27950000Y-74250000D02*
X27950000Y-75200000D01*
X27275000Y-74250000D02*
X27950000Y-74250000D01*
%TO.N,USB_OVP_SET*%
D71*
X12400000Y-90300000D02*
X12450000Y-88300000D01*
X12450000Y-88300000D02*
X12200000Y-87800000D01*
%TD*%
M02*
