%TF.GenerationSoftware,KiCad,Pcbnew,10.0.6*%
%TF.CreationDate,2026-09-08T02:08:44+02:00*%
%TF.ProjectId,Trimix_Analyzer,5472696d-6978-45f4-916e-616c797a6572,A3-placement-01*%
%TF.SameCoordinates,Original*%
%TF.FileFunction,Legend,Top*%
%TF.FilePolarity,Positive*%
%FSLAX46Y46*%
G04 Gerber Fmt 4.6, Leading zero omitted, Abs format (unit mm)*
G04 Created by KiCad (PCBNEW 10.0.6) date 2026-09-08 02:08:44*
%MOMM*%
%LPD*%
G01*
G04 APERTURE LIST*
%ADD10C,0.150000*%
%ADD11C,0.120000*%
%ADD12C,0.130000*%
G04 APERTURE END LIST*
D10*
X1728571Y-1499999D02*
X2299999Y-1499999D01*
X2014285Y-2499999D02*
X2014285Y-1499999D01*
X2633333Y-2499999D02*
X2633333Y-1499999D01*
X2633333Y-1499999D02*
X2966666Y-2214284D01*
X2966666Y-2214284D02*
X3299999Y-1499999D01*
X3299999Y-1499999D02*
X3299999Y-2499999D01*
X3680952Y-1499999D02*
X4347618Y-2499999D01*
X4347618Y-1499999D02*
X3680952Y-2499999D01*
X5442857Y-2214284D02*
X5919047Y-2214284D01*
X5347619Y-2499999D02*
X5680952Y-1499999D01*
X5680952Y-1499999D02*
X6014285Y-2499999D01*
X6252381Y-1499999D02*
X6871428Y-1499999D01*
X6871428Y-1499999D02*
X6538095Y-1880951D01*
X6538095Y-1880951D02*
X6680952Y-1880951D01*
X6680952Y-1880951D02*
X6776190Y-1928570D01*
X6776190Y-1928570D02*
X6823809Y-1976189D01*
X6823809Y-1976189D02*
X6871428Y-2071427D01*
X6871428Y-2071427D02*
X6871428Y-2309522D01*
X6871428Y-2309522D02*
X6823809Y-2404760D01*
X6823809Y-2404760D02*
X6776190Y-2452380D01*
X6776190Y-2452380D02*
X6680952Y-2499999D01*
X6680952Y-2499999D02*
X6395238Y-2499999D01*
X6395238Y-2499999D02*
X6300000Y-2452380D01*
X6300000Y-2452380D02*
X6252381Y-2404760D01*
X13952380Y-91650057D02*
X13857142Y-91602438D01*
X13857142Y-91602438D02*
X13761904Y-91507200D01*
X13761904Y-91507200D02*
X13619047Y-91364342D01*
X13619047Y-91364342D02*
X13523809Y-91316723D01*
X13523809Y-91316723D02*
X13428571Y-91316723D01*
X13476190Y-91554819D02*
X13380952Y-91507200D01*
X13380952Y-91507200D02*
X13285714Y-91411961D01*
X13285714Y-91411961D02*
X13238095Y-91221485D01*
X13238095Y-91221485D02*
X13238095Y-90888152D01*
X13238095Y-90888152D02*
X13285714Y-90697676D01*
X13285714Y-90697676D02*
X13380952Y-90602438D01*
X13380952Y-90602438D02*
X13476190Y-90554819D01*
X13476190Y-90554819D02*
X13666666Y-90554819D01*
X13666666Y-90554819D02*
X13761904Y-90602438D01*
X13761904Y-90602438D02*
X13857142Y-90697676D01*
X13857142Y-90697676D02*
X13904761Y-90888152D01*
X13904761Y-90888152D02*
X13904761Y-91221485D01*
X13904761Y-91221485D02*
X13857142Y-91411961D01*
X13857142Y-91411961D02*
X13761904Y-91507200D01*
X13761904Y-91507200D02*
X13666666Y-91554819D01*
X13666666Y-91554819D02*
X13476190Y-91554819D01*
X14857142Y-91554819D02*
X14285714Y-91554819D01*
X14571428Y-91554819D02*
X14571428Y-90554819D01*
X14571428Y-90554819D02*
X14476190Y-90697676D01*
X14476190Y-90697676D02*
X14380952Y-90792914D01*
X14380952Y-90792914D02*
X14285714Y-90840533D01*
X15809523Y-91554819D02*
X15238095Y-91554819D01*
X15523809Y-91554819D02*
X15523809Y-90554819D01*
X15523809Y-90554819D02*
X15428571Y-90697676D01*
X15428571Y-90697676D02*
X15333333Y-90792914D01*
X15333333Y-90792914D02*
X15238095Y-90840533D01*
X16428571Y-90554819D02*
X16523809Y-90554819D01*
X16523809Y-90554819D02*
X16619047Y-90602438D01*
X16619047Y-90602438D02*
X16666666Y-90650057D01*
X16666666Y-90650057D02*
X16714285Y-90745295D01*
X16714285Y-90745295D02*
X16761904Y-90935771D01*
X16761904Y-90935771D02*
X16761904Y-91173866D01*
X16761904Y-91173866D02*
X16714285Y-91364342D01*
X16714285Y-91364342D02*
X16666666Y-91459580D01*
X16666666Y-91459580D02*
X16619047Y-91507200D01*
X16619047Y-91507200D02*
X16523809Y-91554819D01*
X16523809Y-91554819D02*
X16428571Y-91554819D01*
X16428571Y-91554819D02*
X16333333Y-91507200D01*
X16333333Y-91507200D02*
X16285714Y-91459580D01*
X16285714Y-91459580D02*
X16238095Y-91364342D01*
X16238095Y-91364342D02*
X16190476Y-91173866D01*
X16190476Y-91173866D02*
X16190476Y-90935771D01*
X16190476Y-90935771D02*
X16238095Y-90745295D01*
X16238095Y-90745295D02*
X16285714Y-90650057D01*
X16285714Y-90650057D02*
X16333333Y-90602438D01*
X16333333Y-90602438D02*
X16428571Y-90554819D01*
X14794114Y-94523809D02*
X15365542Y-94523809D01*
X15079828Y-95523809D02*
X15079828Y-94523809D01*
X15698876Y-95523809D02*
X15698876Y-94523809D01*
X15698876Y-94523809D02*
X16079828Y-94523809D01*
X16079828Y-94523809D02*
X16175066Y-94571428D01*
X16175066Y-94571428D02*
X16222685Y-94619047D01*
X16222685Y-94619047D02*
X16270304Y-94714285D01*
X16270304Y-94714285D02*
X16270304Y-94857142D01*
X16270304Y-94857142D02*
X16222685Y-94952380D01*
X16222685Y-94952380D02*
X16175066Y-94999999D01*
X16175066Y-94999999D02*
X16079828Y-95047618D01*
X16079828Y-95047618D02*
X15698876Y-95047618D01*
X17222685Y-95523809D02*
X16651257Y-95523809D01*
X16936971Y-95523809D02*
X16936971Y-94523809D01*
X16936971Y-94523809D02*
X16841733Y-94666666D01*
X16841733Y-94666666D02*
X16746495Y-94761904D01*
X16746495Y-94761904D02*
X16651257Y-94809523D01*
X17841733Y-94523809D02*
X17936971Y-94523809D01*
X17936971Y-94523809D02*
X18032209Y-94571428D01*
X18032209Y-94571428D02*
X18079828Y-94619047D01*
X18079828Y-94619047D02*
X18127447Y-94714285D01*
X18127447Y-94714285D02*
X18175066Y-94904761D01*
X18175066Y-94904761D02*
X18175066Y-95142856D01*
X18175066Y-95142856D02*
X18127447Y-95333332D01*
X18127447Y-95333332D02*
X18079828Y-95428570D01*
X18079828Y-95428570D02*
X18032209Y-95476190D01*
X18032209Y-95476190D02*
X17936971Y-95523809D01*
X17936971Y-95523809D02*
X17841733Y-95523809D01*
X17841733Y-95523809D02*
X17746495Y-95476190D01*
X17746495Y-95476190D02*
X17698876Y-95428570D01*
X17698876Y-95428570D02*
X17651257Y-95333332D01*
X17651257Y-95333332D02*
X17603638Y-95142856D01*
X17603638Y-95142856D02*
X17603638Y-94904761D01*
X17603638Y-94904761D02*
X17651257Y-94714285D01*
X17651257Y-94714285D02*
X17698876Y-94619047D01*
X17698876Y-94619047D02*
X17746495Y-94571428D01*
X17746495Y-94571428D02*
X17841733Y-94523809D01*
X18794114Y-94523809D02*
X18889352Y-94523809D01*
X18889352Y-94523809D02*
X18984590Y-94571428D01*
X18984590Y-94571428D02*
X19032209Y-94619047D01*
X19032209Y-94619047D02*
X19079828Y-94714285D01*
X19079828Y-94714285D02*
X19127447Y-94904761D01*
X19127447Y-94904761D02*
X19127447Y-95142856D01*
X19127447Y-95142856D02*
X19079828Y-95333332D01*
X19079828Y-95333332D02*
X19032209Y-95428570D01*
X19032209Y-95428570D02*
X18984590Y-95476190D01*
X18984590Y-95476190D02*
X18889352Y-95523809D01*
X18889352Y-95523809D02*
X18794114Y-95523809D01*
X18794114Y-95523809D02*
X18698876Y-95476190D01*
X18698876Y-95476190D02*
X18651257Y-95428570D01*
X18651257Y-95428570D02*
X18603638Y-95333332D01*
X18603638Y-95333332D02*
X18556019Y-95142856D01*
X18556019Y-95142856D02*
X18556019Y-94904761D01*
X18556019Y-94904761D02*
X18603638Y-94714285D01*
X18603638Y-94714285D02*
X18651257Y-94619047D01*
X18651257Y-94619047D02*
X18698876Y-94571428D01*
X18698876Y-94571428D02*
X18794114Y-94523809D01*
X19984590Y-94857142D02*
X19984590Y-95523809D01*
X19746495Y-94476190D02*
X19508400Y-95190475D01*
X19508400Y-95190475D02*
X20127447Y-95190475D01*
X20107142Y-87999999D02*
X20678570Y-87999999D01*
X20392856Y-88999999D02*
X20392856Y-87999999D01*
X21011904Y-88999999D02*
X21011904Y-87999999D01*
X21011904Y-87999999D02*
X21392856Y-87999999D01*
X21392856Y-87999999D02*
X21488094Y-88047618D01*
X21488094Y-88047618D02*
X21535713Y-88095237D01*
X21535713Y-88095237D02*
X21583332Y-88190475D01*
X21583332Y-88190475D02*
X21583332Y-88333332D01*
X21583332Y-88333332D02*
X21535713Y-88428570D01*
X21535713Y-88428570D02*
X21488094Y-88476189D01*
X21488094Y-88476189D02*
X21392856Y-88523808D01*
X21392856Y-88523808D02*
X21011904Y-88523808D01*
X22535713Y-88999999D02*
X21964285Y-88999999D01*
X22249999Y-88999999D02*
X22249999Y-87999999D01*
X22249999Y-87999999D02*
X22154761Y-88142856D01*
X22154761Y-88142856D02*
X22059523Y-88238094D01*
X22059523Y-88238094D02*
X21964285Y-88285713D01*
X23154761Y-87999999D02*
X23249999Y-87999999D01*
X23249999Y-87999999D02*
X23345237Y-88047618D01*
X23345237Y-88047618D02*
X23392856Y-88095237D01*
X23392856Y-88095237D02*
X23440475Y-88190475D01*
X23440475Y-88190475D02*
X23488094Y-88380951D01*
X23488094Y-88380951D02*
X23488094Y-88619046D01*
X23488094Y-88619046D02*
X23440475Y-88809522D01*
X23440475Y-88809522D02*
X23392856Y-88904760D01*
X23392856Y-88904760D02*
X23345237Y-88952380D01*
X23345237Y-88952380D02*
X23249999Y-88999999D01*
X23249999Y-88999999D02*
X23154761Y-88999999D01*
X23154761Y-88999999D02*
X23059523Y-88952380D01*
X23059523Y-88952380D02*
X23011904Y-88904760D01*
X23011904Y-88904760D02*
X22964285Y-88809522D01*
X22964285Y-88809522D02*
X22916666Y-88619046D01*
X22916666Y-88619046D02*
X22916666Y-88380951D01*
X22916666Y-88380951D02*
X22964285Y-88190475D01*
X22964285Y-88190475D02*
X23011904Y-88095237D01*
X23011904Y-88095237D02*
X23059523Y-88047618D01*
X23059523Y-88047618D02*
X23154761Y-87999999D01*
X24107142Y-87999999D02*
X24202380Y-87999999D01*
X24202380Y-87999999D02*
X24297618Y-88047618D01*
X24297618Y-88047618D02*
X24345237Y-88095237D01*
X24345237Y-88095237D02*
X24392856Y-88190475D01*
X24392856Y-88190475D02*
X24440475Y-88380951D01*
X24440475Y-88380951D02*
X24440475Y-88619046D01*
X24440475Y-88619046D02*
X24392856Y-88809522D01*
X24392856Y-88809522D02*
X24345237Y-88904760D01*
X24345237Y-88904760D02*
X24297618Y-88952380D01*
X24297618Y-88952380D02*
X24202380Y-88999999D01*
X24202380Y-88999999D02*
X24107142Y-88999999D01*
X24107142Y-88999999D02*
X24011904Y-88952380D01*
X24011904Y-88952380D02*
X23964285Y-88904760D01*
X23964285Y-88904760D02*
X23916666Y-88809522D01*
X23916666Y-88809522D02*
X23869047Y-88619046D01*
X23869047Y-88619046D02*
X23869047Y-88380951D01*
X23869047Y-88380951D02*
X23916666Y-88190475D01*
X23916666Y-88190475D02*
X23964285Y-88095237D01*
X23964285Y-88095237D02*
X24011904Y-88047618D01*
X24011904Y-88047618D02*
X24107142Y-87999999D01*
X24773809Y-87999999D02*
X25392856Y-87999999D01*
X25392856Y-87999999D02*
X25059523Y-88380951D01*
X25059523Y-88380951D02*
X25202380Y-88380951D01*
X25202380Y-88380951D02*
X25297618Y-88428570D01*
X25297618Y-88428570D02*
X25345237Y-88476189D01*
X25345237Y-88476189D02*
X25392856Y-88571427D01*
X25392856Y-88571427D02*
X25392856Y-88809522D01*
X25392856Y-88809522D02*
X25345237Y-88904760D01*
X25345237Y-88904760D02*
X25297618Y-88952380D01*
X25297618Y-88952380D02*
X25202380Y-88999999D01*
X25202380Y-88999999D02*
X24916666Y-88999999D01*
X24916666Y-88999999D02*
X24821428Y-88952380D01*
X24821428Y-88952380D02*
X24773809Y-88904760D01*
X18547618Y-39879522D02*
X18499999Y-39974760D01*
X18499999Y-39974760D02*
X18404761Y-40069998D01*
X18404761Y-40069998D02*
X18261903Y-40212855D01*
X18261903Y-40212855D02*
X18214284Y-40308093D01*
X18214284Y-40308093D02*
X18214284Y-40403331D01*
X18452380Y-40355712D02*
X18404761Y-40450950D01*
X18404761Y-40450950D02*
X18309522Y-40546188D01*
X18309522Y-40546188D02*
X18119046Y-40593807D01*
X18119046Y-40593807D02*
X17785713Y-40593807D01*
X17785713Y-40593807D02*
X17595237Y-40546188D01*
X17595237Y-40546188D02*
X17499999Y-40450950D01*
X17499999Y-40450950D02*
X17452380Y-40355712D01*
X17452380Y-40355712D02*
X17452380Y-40165236D01*
X17452380Y-40165236D02*
X17499999Y-40069998D01*
X17499999Y-40069998D02*
X17595237Y-39974760D01*
X17595237Y-39974760D02*
X17785713Y-39927141D01*
X17785713Y-39927141D02*
X18119046Y-39927141D01*
X18119046Y-39927141D02*
X18309522Y-39974760D01*
X18309522Y-39974760D02*
X18404761Y-40069998D01*
X18404761Y-40069998D02*
X18452380Y-40165236D01*
X18452380Y-40165236D02*
X18452380Y-40355712D01*
X17452380Y-39069998D02*
X17452380Y-39260474D01*
X17452380Y-39260474D02*
X17499999Y-39355712D01*
X17499999Y-39355712D02*
X17547618Y-39403331D01*
X17547618Y-39403331D02*
X17690475Y-39498569D01*
X17690475Y-39498569D02*
X17880951Y-39546188D01*
X17880951Y-39546188D02*
X18261903Y-39546188D01*
X18261903Y-39546188D02*
X18357141Y-39498569D01*
X18357141Y-39498569D02*
X18404761Y-39450950D01*
X18404761Y-39450950D02*
X18452380Y-39355712D01*
X18452380Y-39355712D02*
X18452380Y-39165236D01*
X18452380Y-39165236D02*
X18404761Y-39069998D01*
X18404761Y-39069998D02*
X18357141Y-39022379D01*
X18357141Y-39022379D02*
X18261903Y-38974760D01*
X18261903Y-38974760D02*
X18023808Y-38974760D01*
X18023808Y-38974760D02*
X17928570Y-39022379D01*
X17928570Y-39022379D02*
X17880951Y-39069998D01*
X17880951Y-39069998D02*
X17833332Y-39165236D01*
X17833332Y-39165236D02*
X17833332Y-39355712D01*
X17833332Y-39355712D02*
X17880951Y-39450950D01*
X17880951Y-39450950D02*
X17928570Y-39498569D01*
X17928570Y-39498569D02*
X18023808Y-39546188D01*
X17452380Y-38355712D02*
X17452380Y-38260474D01*
X17452380Y-38260474D02*
X17499999Y-38165236D01*
X17499999Y-38165236D02*
X17547618Y-38117617D01*
X17547618Y-38117617D02*
X17642856Y-38069998D01*
X17642856Y-38069998D02*
X17833332Y-38022379D01*
X17833332Y-38022379D02*
X18071427Y-38022379D01*
X18071427Y-38022379D02*
X18261903Y-38069998D01*
X18261903Y-38069998D02*
X18357141Y-38117617D01*
X18357141Y-38117617D02*
X18404761Y-38165236D01*
X18404761Y-38165236D02*
X18452380Y-38260474D01*
X18452380Y-38260474D02*
X18452380Y-38355712D01*
X18452380Y-38355712D02*
X18404761Y-38450950D01*
X18404761Y-38450950D02*
X18357141Y-38498569D01*
X18357141Y-38498569D02*
X18261903Y-38546188D01*
X18261903Y-38546188D02*
X18071427Y-38593807D01*
X18071427Y-38593807D02*
X17833332Y-38593807D01*
X17833332Y-38593807D02*
X17642856Y-38546188D01*
X17642856Y-38546188D02*
X17547618Y-38498569D01*
X17547618Y-38498569D02*
X17499999Y-38450950D01*
X17499999Y-38450950D02*
X17452380Y-38355712D01*
X18452380Y-37069998D02*
X18452380Y-37641426D01*
X18452380Y-37355712D02*
X17452380Y-37355712D01*
X17452380Y-37355712D02*
X17595237Y-37450950D01*
X17595237Y-37450950D02*
X17690475Y-37546188D01*
X17690475Y-37546188D02*
X17738094Y-37641426D01*
X5999999Y-47938094D02*
X6809522Y-47938094D01*
X6809522Y-47938094D02*
X6904760Y-47890475D01*
X6904760Y-47890475D02*
X6952380Y-47842856D01*
X6952380Y-47842856D02*
X6999999Y-47747618D01*
X6999999Y-47747618D02*
X6999999Y-47557142D01*
X6999999Y-47557142D02*
X6952380Y-47461904D01*
X6952380Y-47461904D02*
X6904760Y-47414285D01*
X6904760Y-47414285D02*
X6809522Y-47366666D01*
X6809522Y-47366666D02*
X5999999Y-47366666D01*
X5999999Y-46414285D02*
X5999999Y-46890475D01*
X5999999Y-46890475D02*
X6476189Y-46938094D01*
X6476189Y-46938094D02*
X6428570Y-46890475D01*
X6428570Y-46890475D02*
X6380951Y-46795237D01*
X6380951Y-46795237D02*
X6380951Y-46557142D01*
X6380951Y-46557142D02*
X6428570Y-46461904D01*
X6428570Y-46461904D02*
X6476189Y-46414285D01*
X6476189Y-46414285D02*
X6571427Y-46366666D01*
X6571427Y-46366666D02*
X6809522Y-46366666D01*
X6809522Y-46366666D02*
X6904760Y-46414285D01*
X6904760Y-46414285D02*
X6952380Y-46461904D01*
X6952380Y-46461904D02*
X6999999Y-46557142D01*
X6999999Y-46557142D02*
X6999999Y-46795237D01*
X6999999Y-46795237D02*
X6952380Y-46890475D01*
X6952380Y-46890475D02*
X6904760Y-46938094D01*
X5999999Y-45747618D02*
X5999999Y-45652380D01*
X5999999Y-45652380D02*
X6047618Y-45557142D01*
X6047618Y-45557142D02*
X6095237Y-45509523D01*
X6095237Y-45509523D02*
X6190475Y-45461904D01*
X6190475Y-45461904D02*
X6380951Y-45414285D01*
X6380951Y-45414285D02*
X6619046Y-45414285D01*
X6619046Y-45414285D02*
X6809522Y-45461904D01*
X6809522Y-45461904D02*
X6904760Y-45509523D01*
X6904760Y-45509523D02*
X6952380Y-45557142D01*
X6952380Y-45557142D02*
X6999999Y-45652380D01*
X6999999Y-45652380D02*
X6999999Y-45747618D01*
X6999999Y-45747618D02*
X6952380Y-45842856D01*
X6952380Y-45842856D02*
X6904760Y-45890475D01*
X6904760Y-45890475D02*
X6809522Y-45938094D01*
X6809522Y-45938094D02*
X6619046Y-45985713D01*
X6619046Y-45985713D02*
X6380951Y-45985713D01*
X6380951Y-45985713D02*
X6190475Y-45938094D01*
X6190475Y-45938094D02*
X6095237Y-45890475D01*
X6095237Y-45890475D02*
X6047618Y-45842856D01*
X6047618Y-45842856D02*
X5999999Y-45747618D01*
X6999999Y-44461904D02*
X6999999Y-45033332D01*
X6999999Y-44747618D02*
X5999999Y-44747618D01*
X5999999Y-44747618D02*
X6142856Y-44842856D01*
X6142856Y-44842856D02*
X6238094Y-44938094D01*
X6238094Y-44938094D02*
X6285713Y-45033332D01*
X599998Y-44828727D02*
X599998Y-44257299D01*
X1599998Y-44543013D02*
X599998Y-44543013D01*
X1599998Y-43923965D02*
X599998Y-43923965D01*
X599998Y-43923965D02*
X599998Y-43543013D01*
X599998Y-43543013D02*
X647617Y-43447775D01*
X647617Y-43447775D02*
X695236Y-43400156D01*
X695236Y-43400156D02*
X790474Y-43352537D01*
X790474Y-43352537D02*
X933331Y-43352537D01*
X933331Y-43352537D02*
X1028569Y-43400156D01*
X1028569Y-43400156D02*
X1076188Y-43447775D01*
X1076188Y-43447775D02*
X1123807Y-43543013D01*
X1123807Y-43543013D02*
X1123807Y-43923965D01*
X1599998Y-42400156D02*
X1599998Y-42971584D01*
X1599998Y-42685870D02*
X599998Y-42685870D01*
X599998Y-42685870D02*
X742855Y-42781108D01*
X742855Y-42781108D02*
X838093Y-42876346D01*
X838093Y-42876346D02*
X885712Y-42971584D01*
X599998Y-41781108D02*
X599998Y-41685870D01*
X599998Y-41685870D02*
X647617Y-41590632D01*
X647617Y-41590632D02*
X695236Y-41543013D01*
X695236Y-41543013D02*
X790474Y-41495394D01*
X790474Y-41495394D02*
X980950Y-41447775D01*
X980950Y-41447775D02*
X1219045Y-41447775D01*
X1219045Y-41447775D02*
X1409521Y-41495394D01*
X1409521Y-41495394D02*
X1504759Y-41543013D01*
X1504759Y-41543013D02*
X1552379Y-41590632D01*
X1552379Y-41590632D02*
X1599998Y-41685870D01*
X1599998Y-41685870D02*
X1599998Y-41781108D01*
X1599998Y-41781108D02*
X1552379Y-41876346D01*
X1552379Y-41876346D02*
X1504759Y-41923965D01*
X1504759Y-41923965D02*
X1409521Y-41971584D01*
X1409521Y-41971584D02*
X1219045Y-42019203D01*
X1219045Y-42019203D02*
X980950Y-42019203D01*
X980950Y-42019203D02*
X790474Y-41971584D01*
X790474Y-41971584D02*
X695236Y-41923965D01*
X695236Y-41923965D02*
X647617Y-41876346D01*
X647617Y-41876346D02*
X599998Y-41781108D01*
X1599998Y-40495394D02*
X1599998Y-41066822D01*
X1599998Y-40781108D02*
X599998Y-40781108D01*
X599998Y-40781108D02*
X742855Y-40876346D01*
X742855Y-40876346D02*
X838093Y-40971584D01*
X838093Y-40971584D02*
X885712Y-41066822D01*
X599998Y-39876346D02*
X599998Y-39781108D01*
X599998Y-39781108D02*
X647617Y-39685870D01*
X647617Y-39685870D02*
X695236Y-39638251D01*
X695236Y-39638251D02*
X790474Y-39590632D01*
X790474Y-39590632D02*
X980950Y-39543013D01*
X980950Y-39543013D02*
X1219045Y-39543013D01*
X1219045Y-39543013D02*
X1409521Y-39590632D01*
X1409521Y-39590632D02*
X1504759Y-39638251D01*
X1504759Y-39638251D02*
X1552379Y-39685870D01*
X1552379Y-39685870D02*
X1599998Y-39781108D01*
X1599998Y-39781108D02*
X1599998Y-39876346D01*
X1599998Y-39876346D02*
X1552379Y-39971584D01*
X1552379Y-39971584D02*
X1504759Y-40019203D01*
X1504759Y-40019203D02*
X1409521Y-40066822D01*
X1409521Y-40066822D02*
X1219045Y-40114441D01*
X1219045Y-40114441D02*
X980950Y-40114441D01*
X980950Y-40114441D02*
X790474Y-40066822D01*
X790474Y-40066822D02*
X695236Y-40019203D01*
X695236Y-40019203D02*
X647617Y-39971584D01*
X647617Y-39971584D02*
X599998Y-39876346D01*
X584998Y-52761904D02*
X1299283Y-52761904D01*
X1299283Y-52761904D02*
X1442140Y-52809523D01*
X1442140Y-52809523D02*
X1537379Y-52904761D01*
X1537379Y-52904761D02*
X1584998Y-53047618D01*
X1584998Y-53047618D02*
X1584998Y-53142856D01*
X1013569Y-52142856D02*
X965950Y-52238094D01*
X965950Y-52238094D02*
X918331Y-52285713D01*
X918331Y-52285713D02*
X823093Y-52333332D01*
X823093Y-52333332D02*
X775474Y-52333332D01*
X775474Y-52333332D02*
X680236Y-52285713D01*
X680236Y-52285713D02*
X632617Y-52238094D01*
X632617Y-52238094D02*
X584998Y-52142856D01*
X584998Y-52142856D02*
X584998Y-51952380D01*
X584998Y-51952380D02*
X632617Y-51857142D01*
X632617Y-51857142D02*
X680236Y-51809523D01*
X680236Y-51809523D02*
X775474Y-51761904D01*
X775474Y-51761904D02*
X823093Y-51761904D01*
X823093Y-51761904D02*
X918331Y-51809523D01*
X918331Y-51809523D02*
X965950Y-51857142D01*
X965950Y-51857142D02*
X1013569Y-51952380D01*
X1013569Y-51952380D02*
X1013569Y-52142856D01*
X1013569Y-52142856D02*
X1061188Y-52238094D01*
X1061188Y-52238094D02*
X1108807Y-52285713D01*
X1108807Y-52285713D02*
X1204045Y-52333332D01*
X1204045Y-52333332D02*
X1394521Y-52333332D01*
X1394521Y-52333332D02*
X1489759Y-52285713D01*
X1489759Y-52285713D02*
X1537379Y-52238094D01*
X1537379Y-52238094D02*
X1584998Y-52142856D01*
X1584998Y-52142856D02*
X1584998Y-51952380D01*
X1584998Y-51952380D02*
X1537379Y-51857142D01*
X1537379Y-51857142D02*
X1489759Y-51809523D01*
X1489759Y-51809523D02*
X1394521Y-51761904D01*
X1394521Y-51761904D02*
X1204045Y-51761904D01*
X1204045Y-51761904D02*
X1108807Y-51809523D01*
X1108807Y-51809523D02*
X1061188Y-51857142D01*
X1061188Y-51857142D02*
X1013569Y-51952380D01*
X584998Y-51142856D02*
X584998Y-51047618D01*
X584998Y-51047618D02*
X632617Y-50952380D01*
X632617Y-50952380D02*
X680236Y-50904761D01*
X680236Y-50904761D02*
X775474Y-50857142D01*
X775474Y-50857142D02*
X965950Y-50809523D01*
X965950Y-50809523D02*
X1204045Y-50809523D01*
X1204045Y-50809523D02*
X1394521Y-50857142D01*
X1394521Y-50857142D02*
X1489759Y-50904761D01*
X1489759Y-50904761D02*
X1537379Y-50952380D01*
X1537379Y-50952380D02*
X1584998Y-51047618D01*
X1584998Y-51047618D02*
X1584998Y-51142856D01*
X1584998Y-51142856D02*
X1537379Y-51238094D01*
X1537379Y-51238094D02*
X1489759Y-51285713D01*
X1489759Y-51285713D02*
X1394521Y-51333332D01*
X1394521Y-51333332D02*
X1204045Y-51380951D01*
X1204045Y-51380951D02*
X965950Y-51380951D01*
X965950Y-51380951D02*
X775474Y-51333332D01*
X775474Y-51333332D02*
X680236Y-51285713D01*
X680236Y-51285713D02*
X632617Y-51238094D01*
X632617Y-51238094D02*
X584998Y-51142856D01*
X1584998Y-49857142D02*
X1584998Y-50428570D01*
X1584998Y-50142856D02*
X584998Y-50142856D01*
X584998Y-50142856D02*
X727855Y-50238094D01*
X727855Y-50238094D02*
X823093Y-50333332D01*
X823093Y-50333332D02*
X870712Y-50428570D01*
X9880952Y-94154819D02*
X9547619Y-93678628D01*
X9309524Y-94154819D02*
X9309524Y-93154819D01*
X9309524Y-93154819D02*
X9690476Y-93154819D01*
X9690476Y-93154819D02*
X9785714Y-93202438D01*
X9785714Y-93202438D02*
X9833333Y-93250057D01*
X9833333Y-93250057D02*
X9880952Y-93345295D01*
X9880952Y-93345295D02*
X9880952Y-93488152D01*
X9880952Y-93488152D02*
X9833333Y-93583390D01*
X9833333Y-93583390D02*
X9785714Y-93631009D01*
X9785714Y-93631009D02*
X9690476Y-93678628D01*
X9690476Y-93678628D02*
X9309524Y-93678628D01*
X10833333Y-94154819D02*
X10261905Y-94154819D01*
X10547619Y-94154819D02*
X10547619Y-93154819D01*
X10547619Y-93154819D02*
X10452381Y-93297676D01*
X10452381Y-93297676D02*
X10357143Y-93392914D01*
X10357143Y-93392914D02*
X10261905Y-93440533D01*
X11785714Y-94154819D02*
X11214286Y-94154819D01*
X11500000Y-94154819D02*
X11500000Y-93154819D01*
X11500000Y-93154819D02*
X11404762Y-93297676D01*
X11404762Y-93297676D02*
X11309524Y-93392914D01*
X11309524Y-93392914D02*
X11214286Y-93440533D01*
X12357143Y-93583390D02*
X12261905Y-93535771D01*
X12261905Y-93535771D02*
X12214286Y-93488152D01*
X12214286Y-93488152D02*
X12166667Y-93392914D01*
X12166667Y-93392914D02*
X12166667Y-93345295D01*
X12166667Y-93345295D02*
X12214286Y-93250057D01*
X12214286Y-93250057D02*
X12261905Y-93202438D01*
X12261905Y-93202438D02*
X12357143Y-93154819D01*
X12357143Y-93154819D02*
X12547619Y-93154819D01*
X12547619Y-93154819D02*
X12642857Y-93202438D01*
X12642857Y-93202438D02*
X12690476Y-93250057D01*
X12690476Y-93250057D02*
X12738095Y-93345295D01*
X12738095Y-93345295D02*
X12738095Y-93392914D01*
X12738095Y-93392914D02*
X12690476Y-93488152D01*
X12690476Y-93488152D02*
X12642857Y-93535771D01*
X12642857Y-93535771D02*
X12547619Y-93583390D01*
X12547619Y-93583390D02*
X12357143Y-93583390D01*
X12357143Y-93583390D02*
X12261905Y-93631009D01*
X12261905Y-93631009D02*
X12214286Y-93678628D01*
X12214286Y-93678628D02*
X12166667Y-93773866D01*
X12166667Y-93773866D02*
X12166667Y-93964342D01*
X12166667Y-93964342D02*
X12214286Y-94059580D01*
X12214286Y-94059580D02*
X12261905Y-94107200D01*
X12261905Y-94107200D02*
X12357143Y-94154819D01*
X12357143Y-94154819D02*
X12547619Y-94154819D01*
X12547619Y-94154819D02*
X12642857Y-94107200D01*
X12642857Y-94107200D02*
X12690476Y-94059580D01*
X12690476Y-94059580D02*
X12738095Y-93964342D01*
X12738095Y-93964342D02*
X12738095Y-93773866D01*
X12738095Y-93773866D02*
X12690476Y-93678628D01*
X12690476Y-93678628D02*
X12642857Y-93631009D01*
X12642857Y-93631009D02*
X12547619Y-93583390D01*
X3188094Y-21267619D02*
X3188094Y-21981904D01*
X3188094Y-21981904D02*
X3140475Y-22124761D01*
X3140475Y-22124761D02*
X3045237Y-22220000D01*
X3045237Y-22220000D02*
X2902380Y-22267619D01*
X2902380Y-22267619D02*
X2807142Y-22267619D01*
X4092856Y-21600952D02*
X4092856Y-22267619D01*
X3854761Y-21220000D02*
X3616666Y-21934285D01*
X3616666Y-21934285D02*
X4235713Y-21934285D01*
X4807142Y-21267619D02*
X4902380Y-21267619D01*
X4902380Y-21267619D02*
X4997618Y-21315238D01*
X4997618Y-21315238D02*
X5045237Y-21362857D01*
X5045237Y-21362857D02*
X5092856Y-21458095D01*
X5092856Y-21458095D02*
X5140475Y-21648571D01*
X5140475Y-21648571D02*
X5140475Y-21886666D01*
X5140475Y-21886666D02*
X5092856Y-22077142D01*
X5092856Y-22077142D02*
X5045237Y-22172380D01*
X5045237Y-22172380D02*
X4997618Y-22220000D01*
X4997618Y-22220000D02*
X4902380Y-22267619D01*
X4902380Y-22267619D02*
X4807142Y-22267619D01*
X4807142Y-22267619D02*
X4711904Y-22220000D01*
X4711904Y-22220000D02*
X4664285Y-22172380D01*
X4664285Y-22172380D02*
X4616666Y-22077142D01*
X4616666Y-22077142D02*
X4569047Y-21886666D01*
X4569047Y-21886666D02*
X4569047Y-21648571D01*
X4569047Y-21648571D02*
X4616666Y-21458095D01*
X4616666Y-21458095D02*
X4664285Y-21362857D01*
X4664285Y-21362857D02*
X4711904Y-21315238D01*
X4711904Y-21315238D02*
X4807142Y-21267619D01*
X5521428Y-21362857D02*
X5569047Y-21315238D01*
X5569047Y-21315238D02*
X5664285Y-21267619D01*
X5664285Y-21267619D02*
X5902380Y-21267619D01*
X5902380Y-21267619D02*
X5997618Y-21315238D01*
X5997618Y-21315238D02*
X6045237Y-21362857D01*
X6045237Y-21362857D02*
X6092856Y-21458095D01*
X6092856Y-21458095D02*
X6092856Y-21553333D01*
X6092856Y-21553333D02*
X6045237Y-21696190D01*
X6045237Y-21696190D02*
X5473809Y-22267619D01*
X5473809Y-22267619D02*
X6092856Y-22267619D01*
X17011904Y-53799999D02*
X17011904Y-54609522D01*
X17011904Y-54609522D02*
X17059523Y-54704760D01*
X17059523Y-54704760D02*
X17107142Y-54752380D01*
X17107142Y-54752380D02*
X17202380Y-54799999D01*
X17202380Y-54799999D02*
X17392856Y-54799999D01*
X17392856Y-54799999D02*
X17488094Y-54752380D01*
X17488094Y-54752380D02*
X17535713Y-54704760D01*
X17535713Y-54704760D02*
X17583332Y-54609522D01*
X17583332Y-54609522D02*
X17583332Y-53799999D01*
X17964285Y-53799999D02*
X18630951Y-53799999D01*
X18630951Y-53799999D02*
X18202380Y-54799999D01*
X19202380Y-53799999D02*
X19297618Y-53799999D01*
X19297618Y-53799999D02*
X19392856Y-53847618D01*
X19392856Y-53847618D02*
X19440475Y-53895237D01*
X19440475Y-53895237D02*
X19488094Y-53990475D01*
X19488094Y-53990475D02*
X19535713Y-54180951D01*
X19535713Y-54180951D02*
X19535713Y-54419046D01*
X19535713Y-54419046D02*
X19488094Y-54609522D01*
X19488094Y-54609522D02*
X19440475Y-54704760D01*
X19440475Y-54704760D02*
X19392856Y-54752380D01*
X19392856Y-54752380D02*
X19297618Y-54799999D01*
X19297618Y-54799999D02*
X19202380Y-54799999D01*
X19202380Y-54799999D02*
X19107142Y-54752380D01*
X19107142Y-54752380D02*
X19059523Y-54704760D01*
X19059523Y-54704760D02*
X19011904Y-54609522D01*
X19011904Y-54609522D02*
X18964285Y-54419046D01*
X18964285Y-54419046D02*
X18964285Y-54180951D01*
X18964285Y-54180951D02*
X19011904Y-53990475D01*
X19011904Y-53990475D02*
X19059523Y-53895237D01*
X19059523Y-53895237D02*
X19107142Y-53847618D01*
X19107142Y-53847618D02*
X19202380Y-53799999D01*
X20488094Y-54799999D02*
X19916666Y-54799999D01*
X20202380Y-54799999D02*
X20202380Y-53799999D01*
X20202380Y-53799999D02*
X20107142Y-53942856D01*
X20107142Y-53942856D02*
X20011904Y-54038094D01*
X20011904Y-54038094D02*
X19916666Y-54085713D01*
X9223809Y-30916666D02*
X8747618Y-31249999D01*
X9223809Y-31488094D02*
X8223809Y-31488094D01*
X8223809Y-31488094D02*
X8223809Y-31107142D01*
X8223809Y-31107142D02*
X8271428Y-31011904D01*
X8271428Y-31011904D02*
X8319047Y-30964285D01*
X8319047Y-30964285D02*
X8414285Y-30916666D01*
X8414285Y-30916666D02*
X8557142Y-30916666D01*
X8557142Y-30916666D02*
X8652380Y-30964285D01*
X8652380Y-30964285D02*
X8699999Y-31011904D01*
X8699999Y-31011904D02*
X8747618Y-31107142D01*
X8747618Y-31107142D02*
X8747618Y-31488094D01*
X8557142Y-30059523D02*
X9223809Y-30059523D01*
X8176190Y-30297618D02*
X8890475Y-30535713D01*
X8890475Y-30535713D02*
X8890475Y-29916666D01*
X8223809Y-29345237D02*
X8223809Y-29249999D01*
X8223809Y-29249999D02*
X8271428Y-29154761D01*
X8271428Y-29154761D02*
X8319047Y-29107142D01*
X8319047Y-29107142D02*
X8414285Y-29059523D01*
X8414285Y-29059523D02*
X8604761Y-29011904D01*
X8604761Y-29011904D02*
X8842856Y-29011904D01*
X8842856Y-29011904D02*
X9033332Y-29059523D01*
X9033332Y-29059523D02*
X9128570Y-29107142D01*
X9128570Y-29107142D02*
X9176190Y-29154761D01*
X9176190Y-29154761D02*
X9223809Y-29249999D01*
X9223809Y-29249999D02*
X9223809Y-29345237D01*
X9223809Y-29345237D02*
X9176190Y-29440475D01*
X9176190Y-29440475D02*
X9128570Y-29488094D01*
X9128570Y-29488094D02*
X9033332Y-29535713D01*
X9033332Y-29535713D02*
X8842856Y-29583332D01*
X8842856Y-29583332D02*
X8604761Y-29583332D01*
X8604761Y-29583332D02*
X8414285Y-29535713D01*
X8414285Y-29535713D02*
X8319047Y-29488094D01*
X8319047Y-29488094D02*
X8271428Y-29440475D01*
X8271428Y-29440475D02*
X8223809Y-29345237D01*
X8223809Y-28678570D02*
X8223809Y-28011904D01*
X8223809Y-28011904D02*
X9223809Y-28440475D01*
X25761904Y-87799999D02*
X25761904Y-88609522D01*
X25761904Y-88609522D02*
X25809523Y-88704760D01*
X25809523Y-88704760D02*
X25857142Y-88752380D01*
X25857142Y-88752380D02*
X25952380Y-88799999D01*
X25952380Y-88799999D02*
X26142856Y-88799999D01*
X26142856Y-88799999D02*
X26238094Y-88752380D01*
X26238094Y-88752380D02*
X26285713Y-88704760D01*
X26285713Y-88704760D02*
X26333332Y-88609522D01*
X26333332Y-88609522D02*
X26333332Y-87799999D01*
X27333332Y-88799999D02*
X26761904Y-88799999D01*
X27047618Y-88799999D02*
X27047618Y-87799999D01*
X27047618Y-87799999D02*
X26952380Y-87942856D01*
X26952380Y-87942856D02*
X26857142Y-88038094D01*
X26857142Y-88038094D02*
X26761904Y-88085713D01*
X28285713Y-88799999D02*
X27714285Y-88799999D01*
X27999999Y-88799999D02*
X27999999Y-87799999D01*
X27999999Y-87799999D02*
X27904761Y-87942856D01*
X27904761Y-87942856D02*
X27809523Y-88038094D01*
X27809523Y-88038094D02*
X27714285Y-88085713D01*
X28619047Y-87799999D02*
X29238094Y-87799999D01*
X29238094Y-87799999D02*
X28904761Y-88180951D01*
X28904761Y-88180951D02*
X29047618Y-88180951D01*
X29047618Y-88180951D02*
X29142856Y-88228570D01*
X29142856Y-88228570D02*
X29190475Y-88276189D01*
X29190475Y-88276189D02*
X29238094Y-88371427D01*
X29238094Y-88371427D02*
X29238094Y-88609522D01*
X29238094Y-88609522D02*
X29190475Y-88704760D01*
X29190475Y-88704760D02*
X29142856Y-88752380D01*
X29142856Y-88752380D02*
X29047618Y-88799999D01*
X29047618Y-88799999D02*
X28761904Y-88799999D01*
X28761904Y-88799999D02*
X28666666Y-88752380D01*
X28666666Y-88752380D02*
X28619047Y-88704760D01*
X22090360Y-50104762D02*
X22090360Y-49628572D01*
X22090360Y-49628572D02*
X23090360Y-49628572D01*
X23090360Y-50342858D02*
X23090360Y-51009524D01*
X23090360Y-51009524D02*
X22090360Y-50580953D01*
X23090360Y-51580953D02*
X23090360Y-51676191D01*
X23090360Y-51676191D02*
X23042741Y-51771429D01*
X23042741Y-51771429D02*
X22995122Y-51819048D01*
X22995122Y-51819048D02*
X22899884Y-51866667D01*
X22899884Y-51866667D02*
X22709408Y-51914286D01*
X22709408Y-51914286D02*
X22471313Y-51914286D01*
X22471313Y-51914286D02*
X22280837Y-51866667D01*
X22280837Y-51866667D02*
X22185599Y-51819048D01*
X22185599Y-51819048D02*
X22137980Y-51771429D01*
X22137980Y-51771429D02*
X22090360Y-51676191D01*
X22090360Y-51676191D02*
X22090360Y-51580953D01*
X22090360Y-51580953D02*
X22137980Y-51485715D01*
X22137980Y-51485715D02*
X22185599Y-51438096D01*
X22185599Y-51438096D02*
X22280837Y-51390477D01*
X22280837Y-51390477D02*
X22471313Y-51342858D01*
X22471313Y-51342858D02*
X22709408Y-51342858D01*
X22709408Y-51342858D02*
X22899884Y-51390477D01*
X22899884Y-51390477D02*
X22995122Y-51438096D01*
X22995122Y-51438096D02*
X23042741Y-51485715D01*
X23042741Y-51485715D02*
X23090360Y-51580953D01*
X22090360Y-52866667D02*
X22090360Y-52295239D01*
X22090360Y-52580953D02*
X23090360Y-52580953D01*
X23090360Y-52580953D02*
X22947503Y-52485715D01*
X22947503Y-52485715D02*
X22852265Y-52390477D01*
X22852265Y-52390477D02*
X22804646Y-52295239D01*
X10414999Y-56061904D02*
X11129284Y-56061904D01*
X11129284Y-56061904D02*
X11272141Y-56109523D01*
X11272141Y-56109523D02*
X11367380Y-56204761D01*
X11367380Y-56204761D02*
X11414999Y-56347618D01*
X11414999Y-56347618D02*
X11414999Y-56442856D01*
X10843570Y-55442856D02*
X10795951Y-55538094D01*
X10795951Y-55538094D02*
X10748332Y-55585713D01*
X10748332Y-55585713D02*
X10653094Y-55633332D01*
X10653094Y-55633332D02*
X10605475Y-55633332D01*
X10605475Y-55633332D02*
X10510237Y-55585713D01*
X10510237Y-55585713D02*
X10462618Y-55538094D01*
X10462618Y-55538094D02*
X10414999Y-55442856D01*
X10414999Y-55442856D02*
X10414999Y-55252380D01*
X10414999Y-55252380D02*
X10462618Y-55157142D01*
X10462618Y-55157142D02*
X10510237Y-55109523D01*
X10510237Y-55109523D02*
X10605475Y-55061904D01*
X10605475Y-55061904D02*
X10653094Y-55061904D01*
X10653094Y-55061904D02*
X10748332Y-55109523D01*
X10748332Y-55109523D02*
X10795951Y-55157142D01*
X10795951Y-55157142D02*
X10843570Y-55252380D01*
X10843570Y-55252380D02*
X10843570Y-55442856D01*
X10843570Y-55442856D02*
X10891189Y-55538094D01*
X10891189Y-55538094D02*
X10938808Y-55585713D01*
X10938808Y-55585713D02*
X11034046Y-55633332D01*
X11034046Y-55633332D02*
X11224522Y-55633332D01*
X11224522Y-55633332D02*
X11319760Y-55585713D01*
X11319760Y-55585713D02*
X11367380Y-55538094D01*
X11367380Y-55538094D02*
X11414999Y-55442856D01*
X11414999Y-55442856D02*
X11414999Y-55252380D01*
X11414999Y-55252380D02*
X11367380Y-55157142D01*
X11367380Y-55157142D02*
X11319760Y-55109523D01*
X11319760Y-55109523D02*
X11224522Y-55061904D01*
X11224522Y-55061904D02*
X11034046Y-55061904D01*
X11034046Y-55061904D02*
X10938808Y-55109523D01*
X10938808Y-55109523D02*
X10891189Y-55157142D01*
X10891189Y-55157142D02*
X10843570Y-55252380D01*
X10414999Y-54442856D02*
X10414999Y-54347618D01*
X10414999Y-54347618D02*
X10462618Y-54252380D01*
X10462618Y-54252380D02*
X10510237Y-54204761D01*
X10510237Y-54204761D02*
X10605475Y-54157142D01*
X10605475Y-54157142D02*
X10795951Y-54109523D01*
X10795951Y-54109523D02*
X11034046Y-54109523D01*
X11034046Y-54109523D02*
X11224522Y-54157142D01*
X11224522Y-54157142D02*
X11319760Y-54204761D01*
X11319760Y-54204761D02*
X11367380Y-54252380D01*
X11367380Y-54252380D02*
X11414999Y-54347618D01*
X11414999Y-54347618D02*
X11414999Y-54442856D01*
X11414999Y-54442856D02*
X11367380Y-54538094D01*
X11367380Y-54538094D02*
X11319760Y-54585713D01*
X11319760Y-54585713D02*
X11224522Y-54633332D01*
X11224522Y-54633332D02*
X11034046Y-54680951D01*
X11034046Y-54680951D02*
X10795951Y-54680951D01*
X10795951Y-54680951D02*
X10605475Y-54633332D01*
X10605475Y-54633332D02*
X10510237Y-54585713D01*
X10510237Y-54585713D02*
X10462618Y-54538094D01*
X10462618Y-54538094D02*
X10414999Y-54442856D01*
X10510237Y-53728570D02*
X10462618Y-53680951D01*
X10462618Y-53680951D02*
X10414999Y-53585713D01*
X10414999Y-53585713D02*
X10414999Y-53347618D01*
X10414999Y-53347618D02*
X10462618Y-53252380D01*
X10462618Y-53252380D02*
X10510237Y-53204761D01*
X10510237Y-53204761D02*
X10605475Y-53157142D01*
X10605475Y-53157142D02*
X10700713Y-53157142D01*
X10700713Y-53157142D02*
X10843570Y-53204761D01*
X10843570Y-53204761D02*
X11414999Y-53776189D01*
X11414999Y-53776189D02*
X11414999Y-53157142D01*
X11488094Y-94499999D02*
X11488094Y-95214284D01*
X11488094Y-95214284D02*
X11440475Y-95357141D01*
X11440475Y-95357141D02*
X11345237Y-95452380D01*
X11345237Y-95452380D02*
X11202380Y-95499999D01*
X11202380Y-95499999D02*
X11107142Y-95499999D01*
X12488094Y-95499999D02*
X11916666Y-95499999D01*
X12202380Y-95499999D02*
X12202380Y-94499999D01*
X12202380Y-94499999D02*
X12107142Y-94642856D01*
X12107142Y-94642856D02*
X12011904Y-94738094D01*
X12011904Y-94738094D02*
X11916666Y-94785713D01*
X13107142Y-94499999D02*
X13202380Y-94499999D01*
X13202380Y-94499999D02*
X13297618Y-94547618D01*
X13297618Y-94547618D02*
X13345237Y-94595237D01*
X13345237Y-94595237D02*
X13392856Y-94690475D01*
X13392856Y-94690475D02*
X13440475Y-94880951D01*
X13440475Y-94880951D02*
X13440475Y-95119046D01*
X13440475Y-95119046D02*
X13392856Y-95309522D01*
X13392856Y-95309522D02*
X13345237Y-95404760D01*
X13345237Y-95404760D02*
X13297618Y-95452380D01*
X13297618Y-95452380D02*
X13202380Y-95499999D01*
X13202380Y-95499999D02*
X13107142Y-95499999D01*
X13107142Y-95499999D02*
X13011904Y-95452380D01*
X13011904Y-95452380D02*
X12964285Y-95404760D01*
X12964285Y-95404760D02*
X12916666Y-95309522D01*
X12916666Y-95309522D02*
X12869047Y-95119046D01*
X12869047Y-95119046D02*
X12869047Y-94880951D01*
X12869047Y-94880951D02*
X12916666Y-94690475D01*
X12916666Y-94690475D02*
X12964285Y-94595237D01*
X12964285Y-94595237D02*
X13011904Y-94547618D01*
X13011904Y-94547618D02*
X13107142Y-94499999D01*
X14392856Y-95499999D02*
X13821428Y-95499999D01*
X14107142Y-95499999D02*
X14107142Y-94499999D01*
X14107142Y-94499999D02*
X14011904Y-94642856D01*
X14011904Y-94642856D02*
X13916666Y-94738094D01*
X13916666Y-94738094D02*
X13821428Y-94785713D01*
X6749999Y-73642857D02*
X6273808Y-73976190D01*
X6749999Y-74214285D02*
X5749999Y-74214285D01*
X5749999Y-74214285D02*
X5749999Y-73833333D01*
X5749999Y-73833333D02*
X5797618Y-73738095D01*
X5797618Y-73738095D02*
X5845237Y-73690476D01*
X5845237Y-73690476D02*
X5940475Y-73642857D01*
X5940475Y-73642857D02*
X6083332Y-73642857D01*
X6083332Y-73642857D02*
X6178570Y-73690476D01*
X6178570Y-73690476D02*
X6226189Y-73738095D01*
X6226189Y-73738095D02*
X6273808Y-73833333D01*
X6273808Y-73833333D02*
X6273808Y-74214285D01*
X6178570Y-73071428D02*
X6130951Y-73166666D01*
X6130951Y-73166666D02*
X6083332Y-73214285D01*
X6083332Y-73214285D02*
X5988094Y-73261904D01*
X5988094Y-73261904D02*
X5940475Y-73261904D01*
X5940475Y-73261904D02*
X5845237Y-73214285D01*
X5845237Y-73214285D02*
X5797618Y-73166666D01*
X5797618Y-73166666D02*
X5749999Y-73071428D01*
X5749999Y-73071428D02*
X5749999Y-72880952D01*
X5749999Y-72880952D02*
X5797618Y-72785714D01*
X5797618Y-72785714D02*
X5845237Y-72738095D01*
X5845237Y-72738095D02*
X5940475Y-72690476D01*
X5940475Y-72690476D02*
X5988094Y-72690476D01*
X5988094Y-72690476D02*
X6083332Y-72738095D01*
X6083332Y-72738095D02*
X6130951Y-72785714D01*
X6130951Y-72785714D02*
X6178570Y-72880952D01*
X6178570Y-72880952D02*
X6178570Y-73071428D01*
X6178570Y-73071428D02*
X6226189Y-73166666D01*
X6226189Y-73166666D02*
X6273808Y-73214285D01*
X6273808Y-73214285D02*
X6369046Y-73261904D01*
X6369046Y-73261904D02*
X6559522Y-73261904D01*
X6559522Y-73261904D02*
X6654760Y-73214285D01*
X6654760Y-73214285D02*
X6702380Y-73166666D01*
X6702380Y-73166666D02*
X6749999Y-73071428D01*
X6749999Y-73071428D02*
X6749999Y-72880952D01*
X6749999Y-72880952D02*
X6702380Y-72785714D01*
X6702380Y-72785714D02*
X6654760Y-72738095D01*
X6654760Y-72738095D02*
X6559522Y-72690476D01*
X6559522Y-72690476D02*
X6369046Y-72690476D01*
X6369046Y-72690476D02*
X6273808Y-72738095D01*
X6273808Y-72738095D02*
X6226189Y-72785714D01*
X6226189Y-72785714D02*
X6178570Y-72880952D01*
X5749999Y-72071428D02*
X5749999Y-71976190D01*
X5749999Y-71976190D02*
X5797618Y-71880952D01*
X5797618Y-71880952D02*
X5845237Y-71833333D01*
X5845237Y-71833333D02*
X5940475Y-71785714D01*
X5940475Y-71785714D02*
X6130951Y-71738095D01*
X6130951Y-71738095D02*
X6369046Y-71738095D01*
X6369046Y-71738095D02*
X6559522Y-71785714D01*
X6559522Y-71785714D02*
X6654760Y-71833333D01*
X6654760Y-71833333D02*
X6702380Y-71880952D01*
X6702380Y-71880952D02*
X6749999Y-71976190D01*
X6749999Y-71976190D02*
X6749999Y-72071428D01*
X6749999Y-72071428D02*
X6702380Y-72166666D01*
X6702380Y-72166666D02*
X6654760Y-72214285D01*
X6654760Y-72214285D02*
X6559522Y-72261904D01*
X6559522Y-72261904D02*
X6369046Y-72309523D01*
X6369046Y-72309523D02*
X6130951Y-72309523D01*
X6130951Y-72309523D02*
X5940475Y-72261904D01*
X5940475Y-72261904D02*
X5845237Y-72214285D01*
X5845237Y-72214285D02*
X5797618Y-72166666D01*
X5797618Y-72166666D02*
X5749999Y-72071428D01*
X6749999Y-70785714D02*
X6749999Y-71357142D01*
X6749999Y-71071428D02*
X5749999Y-71071428D01*
X5749999Y-71071428D02*
X5892856Y-71166666D01*
X5892856Y-71166666D02*
X5988094Y-71261904D01*
X5988094Y-71261904D02*
X6035713Y-71357142D01*
X6673809Y-30011904D02*
X7388094Y-30011904D01*
X7388094Y-30011904D02*
X7530951Y-30059523D01*
X7530951Y-30059523D02*
X7626190Y-30154761D01*
X7626190Y-30154761D02*
X7673809Y-30297618D01*
X7673809Y-30297618D02*
X7673809Y-30392856D01*
X7007142Y-29107142D02*
X7673809Y-29107142D01*
X6626190Y-29345237D02*
X7340475Y-29583332D01*
X7340475Y-29583332D02*
X7340475Y-28964285D01*
X6673809Y-28392856D02*
X6673809Y-28297618D01*
X6673809Y-28297618D02*
X6721428Y-28202380D01*
X6721428Y-28202380D02*
X6769047Y-28154761D01*
X6769047Y-28154761D02*
X6864285Y-28107142D01*
X6864285Y-28107142D02*
X7054761Y-28059523D01*
X7054761Y-28059523D02*
X7292856Y-28059523D01*
X7292856Y-28059523D02*
X7483332Y-28107142D01*
X7483332Y-28107142D02*
X7578570Y-28154761D01*
X7578570Y-28154761D02*
X7626190Y-28202380D01*
X7626190Y-28202380D02*
X7673809Y-28297618D01*
X7673809Y-28297618D02*
X7673809Y-28392856D01*
X7673809Y-28392856D02*
X7626190Y-28488094D01*
X7626190Y-28488094D02*
X7578570Y-28535713D01*
X7578570Y-28535713D02*
X7483332Y-28583332D01*
X7483332Y-28583332D02*
X7292856Y-28630951D01*
X7292856Y-28630951D02*
X7054761Y-28630951D01*
X7054761Y-28630951D02*
X6864285Y-28583332D01*
X6864285Y-28583332D02*
X6769047Y-28535713D01*
X6769047Y-28535713D02*
X6721428Y-28488094D01*
X6721428Y-28488094D02*
X6673809Y-28392856D01*
X7673809Y-27107142D02*
X7673809Y-27678570D01*
X7673809Y-27392856D02*
X6673809Y-27392856D01*
X6673809Y-27392856D02*
X6816666Y-27488094D01*
X6816666Y-27488094D02*
X6911904Y-27583332D01*
X6911904Y-27583332D02*
X6959523Y-27678570D01*
%TO.C,C403*%
D11*
X6759420Y-31789999D02*
X7040580Y-31789999D01*
X6759420Y-32809999D02*
X7040580Y-32809999D01*
%TO.C,C407*%
X10809420Y-27990000D02*
X11090580Y-27990000D01*
X10809420Y-29010000D02*
X11090580Y-29010000D01*
%TO.C,C107*%
X7090000Y-75211252D02*
X7090000Y-73788748D01*
X8910000Y-75211252D02*
X8910000Y-73788748D01*
%TO.C,C507*%
X6140000Y-38240580D02*
X6140000Y-37959420D01*
X7160000Y-38240580D02*
X7160000Y-37959420D01*
%TO.C,R504*%
X18012742Y-47477500D02*
X18487258Y-47477500D01*
X18012742Y-48522500D02*
X18487258Y-48522500D01*
%TO.C,TP1005*%
X15700000Y-70500000D02*
G75*
G02*
X14300000Y-70500000I-700000J0D01*
G01*
X14300000Y-70500000D02*
G75*
G02*
X15700000Y-70500000I700000J0D01*
G01*
%TO.C,C503*%
X8359420Y-45790000D02*
X8640580Y-45790000D01*
X8359420Y-46810000D02*
X8640580Y-46810000D01*
%TO.C,C802*%
X14659420Y-56990000D02*
X14940580Y-56990000D01*
X14659420Y-58010000D02*
X14940580Y-58010000D01*
%TO.C,R101*%
X14696359Y-88570000D02*
X15003641Y-88570000D01*
X14696359Y-89330000D02*
X15003641Y-89330000D01*
%TO.C,R703*%
X20477500Y-63487258D02*
X20477500Y-63012742D01*
X21522500Y-63487258D02*
X21522500Y-63012742D01*
%TO.C,TP1001*%
X22451277Y-66000000D02*
G75*
G02*
X21051277Y-66000000I-700000J0D01*
G01*
X21051277Y-66000000D02*
G75*
G02*
X22451277Y-66000000I700000J0D01*
G01*
%TO.C,C105*%
X6839999Y-86461252D02*
X6839999Y-85038748D01*
X9559999Y-86461252D02*
X9559999Y-85038748D01*
%TO.C,C103*%
X18265000Y-82561252D02*
X18265000Y-82038748D01*
X19735000Y-82561252D02*
X19735000Y-82038748D01*
%TO.C,R410*%
X15262742Y-35877500D02*
X15737258Y-35877500D01*
X15262742Y-36922500D02*
X15737258Y-36922500D01*
%TO.C,C402*%
X789999Y-26650580D02*
X789999Y-26369420D01*
X1809999Y-26650580D02*
X1809999Y-26369420D01*
%TO.C,R601*%
X727500Y-60737258D02*
X727500Y-60262742D01*
X1772500Y-60737258D02*
X1772500Y-60262742D01*
%TO.C,Q110*%
X17240000Y-87940000D02*
X18760000Y-87940000D01*
X17240000Y-88940000D02*
X17240000Y-87940000D01*
X17240000Y-91060000D02*
X17240000Y-90060000D01*
X18760000Y-87940000D02*
X18760000Y-87990000D01*
X18760000Y-89110000D02*
X18760000Y-89890000D01*
X18760000Y-91010000D02*
X18760000Y-91060000D01*
X18760000Y-91060000D02*
X17240000Y-91060000D01*
X19300000Y-89880000D02*
X19060000Y-89550000D01*
X19540000Y-89550000D01*
X19300000Y-89880000D01*
G36*
X19300000Y-89880000D02*
G01*
X19060000Y-89550000D01*
X19540000Y-89550000D01*
X19300000Y-89880000D01*
G37*
%TO.C,C509*%
X12109420Y-37890000D02*
X12390580Y-37890000D01*
X12109420Y-38910000D02*
X12390580Y-38910000D01*
%TO.C,R401*%
X7727500Y-25737258D02*
X7727500Y-25262742D01*
X8772500Y-25737258D02*
X8772500Y-25262742D01*
%TO.C,C504*%
X8359420Y-47590000D02*
X8640580Y-47590000D01*
X8359420Y-48610000D02*
X8640580Y-48610000D01*
%TO.C,J501*%
X2620000Y-33580000D02*
X4000000Y-33580000D01*
X2620000Y-34960000D02*
X2620000Y-33580000D01*
X2620000Y-36230000D02*
X2620000Y-41420000D01*
X2620000Y-36230000D02*
X5380000Y-36230000D01*
X2620000Y-41420000D02*
X5380000Y-41420000D01*
X5380000Y-36230000D02*
X5380000Y-41420000D01*
%TO.C,J701*%
X16400000Y-29725000D02*
X17150000Y-29725000D01*
X17150000Y-26775000D02*
X22700000Y-26775000D01*
X17150000Y-29725000D02*
X17150000Y-26775000D01*
X28050000Y-32275000D02*
X29300000Y-32275000D01*
X28250000Y-26775000D02*
X22700000Y-26775000D01*
X28250000Y-29725000D02*
X28250000Y-26775000D01*
X29000000Y-29725000D02*
X28250000Y-29725000D01*
X29300000Y-32275000D02*
X29300000Y-31025000D01*
X16400000Y-31225000D02*
X18200000Y-31225000D01*
X18200000Y-31975000D01*
X16400000Y-31975000D01*
X16400000Y-31225000D01*
X19700000Y-31225000D02*
X25700000Y-31225000D01*
X25700000Y-31975000D01*
X19700000Y-31975000D01*
X19700000Y-31225000D01*
X27200000Y-31225000D02*
X29000000Y-31225000D01*
X29000000Y-31975000D01*
X27200000Y-31975000D01*
X27200000Y-31225000D01*
X16390000Y-26015000D02*
X29010000Y-26015000D01*
X29010000Y-31985000D01*
X16390000Y-31985000D01*
X16390000Y-26015000D01*
%TO.C,C701*%
X14190000Y-51211252D02*
X14190000Y-49788748D01*
X16010000Y-51211252D02*
X16010000Y-49788748D01*
%TO.C,C803*%
X11988748Y-68615000D02*
X12511252Y-68615000D01*
X11988748Y-70085000D02*
X12511252Y-70085000D01*
%TO.C,TP1006*%
X23301277Y-35400000D02*
G75*
G02*
X21901277Y-35400000I-700000J0D01*
G01*
X21901277Y-35400000D02*
G75*
G02*
X23301277Y-35400000I700000J0D01*
G01*
%TO.C,R604*%
X727500Y-70487258D02*
X727500Y-70012742D01*
X1772500Y-70487258D02*
X1772500Y-70012742D01*
%TO.C,C303*%
X11859420Y-49140000D02*
X12140580Y-49140000D01*
X11859420Y-50160000D02*
X12140580Y-50160000D01*
%TO.C,C801*%
X5609420Y-57490000D02*
X5890580Y-57490000D01*
X5609420Y-58510000D02*
X5890580Y-58510000D01*
%TO.C,TP1004*%
X22200000Y-95500000D02*
G75*
G02*
X20800000Y-95500000I-700000J0D01*
G01*
X20800000Y-95500000D02*
G75*
G02*
X22200000Y-95500000I700000J0D01*
G01*
%TO.C,C301*%
X17738748Y-66265000D02*
X18261252Y-66265000D01*
X17738748Y-67735000D02*
X18261252Y-67735000D01*
%TO.C,TP1012*%
X8200000Y-43250000D02*
G75*
G02*
X6800000Y-43250000I-700000J0D01*
G01*
X6800000Y-43250000D02*
G75*
G02*
X8200000Y-43250000I700000J0D01*
G01*
%TO.C,C409*%
X8959420Y-35790000D02*
X9240580Y-35790000D01*
X8959420Y-36810000D02*
X9240580Y-36810000D01*
%TO.C,R117*%
X27677500Y-97237258D02*
X27677500Y-96762742D01*
X28722500Y-97237258D02*
X28722500Y-96762742D01*
%TO.C,TP1003*%
X22201277Y-90250000D02*
G75*
G02*
X20801277Y-90250000I-700000J0D01*
G01*
X20801277Y-90250000D02*
G75*
G02*
X22201277Y-90250000I700000J0D01*
G01*
%TO.C,TP1011*%
X8501277Y-34200000D02*
G75*
G02*
X7101277Y-34200000I-700000J0D01*
G01*
X7101277Y-34200000D02*
G75*
G02*
X8501277Y-34200000I700000J0D01*
G01*
%TO.C,R102*%
X10377500Y-88487258D02*
X10377500Y-88012742D01*
X11422500Y-88487258D02*
X11422500Y-88012742D01*
%TO.C,R602*%
X727500Y-63987258D02*
X727500Y-63512742D01*
X1772500Y-63987258D02*
X1772500Y-63512742D01*
%TO.C,J601*%
X16400000Y-21725000D02*
X17150000Y-21725000D01*
X17150000Y-18775000D02*
X22700000Y-18775000D01*
X17150000Y-21725000D02*
X17150000Y-18775000D01*
X28050000Y-24275000D02*
X29300000Y-24275000D01*
X28250000Y-18775000D02*
X22700000Y-18775000D01*
X28250000Y-21725000D02*
X28250000Y-18775000D01*
X29000000Y-21725000D02*
X28250000Y-21725000D01*
X29300000Y-24275000D02*
X29300000Y-23025000D01*
X16400000Y-23225000D02*
X18200000Y-23225000D01*
X18200000Y-23975000D01*
X16400000Y-23975000D01*
X16400000Y-23225000D01*
X19700000Y-23225000D02*
X25700000Y-23225000D01*
X25700000Y-23975000D01*
X19700000Y-23975000D01*
X19700000Y-23225000D01*
X27200000Y-23225000D02*
X29000000Y-23225000D01*
X29000000Y-23975000D01*
X27200000Y-23975000D01*
X27200000Y-23225000D01*
X16390000Y-18015000D02*
X29010000Y-18015000D01*
X29010000Y-23985000D01*
X16390000Y-23985000D01*
X16390000Y-18015000D01*
%TO.C,Q601*%
X18740000Y-33440000D02*
X20260000Y-33440000D01*
X18740000Y-33490000D02*
X18740000Y-33440000D01*
X18740000Y-35390000D02*
X18740000Y-34610000D01*
X18740000Y-36560000D02*
X18740000Y-36510000D01*
X20260000Y-33440000D02*
X20260000Y-34440000D01*
X20260000Y-35560000D02*
X20260000Y-36560000D01*
X20260000Y-36560000D02*
X18740000Y-36560000D01*
X18200000Y-34620000D02*
X18440000Y-34950000D01*
X17960000Y-34950000D01*
X18200000Y-34620000D01*
G36*
X18440000Y-34950000D02*
G01*
X17960000Y-34950000D01*
X18200000Y-34620000D01*
X18440000Y-34950000D01*
G37*
%TO.C,R201*%
X8562742Y-59227500D02*
X9037258Y-59227500D01*
X8562742Y-60272500D02*
X9037258Y-60272500D01*
%TO.C,C705*%
X3738748Y-59765000D02*
X4261252Y-59765000D01*
X3738748Y-61235000D02*
X4261252Y-61235000D01*
%TO.C,C404*%
X12459420Y-32490000D02*
X12740580Y-32490000D01*
X12459420Y-33510000D02*
X12740580Y-33510000D01*
%TO.C,C113*%
X27740000Y-81340580D02*
X27740000Y-81059420D01*
X28760000Y-81340580D02*
X28760000Y-81059420D01*
%TO.C,U501*%
X2440000Y-44790000D02*
X2490000Y-44790000D01*
X2440000Y-46610000D02*
X2440000Y-44790000D01*
X2490000Y-46610000D02*
X2440000Y-46610000D01*
X3610000Y-44790000D02*
X4390000Y-44790000D01*
X5510000Y-44790000D02*
X5560000Y-44790000D01*
X5560000Y-44790000D02*
X5560000Y-46610000D01*
X5560000Y-46610000D02*
X5510000Y-46610000D01*
X2490000Y-47150000D02*
X2160000Y-47390000D01*
X2160000Y-46910000D01*
X2490000Y-47150000D01*
G36*
X2490000Y-47150000D02*
G01*
X2160000Y-47390000D01*
X2160000Y-46910000D01*
X2490000Y-47150000D01*
G37*
%TO.C,C502*%
X3859420Y-48190000D02*
X4140580Y-48190000D01*
X3859420Y-49210000D02*
X4140580Y-49210000D01*
%TO.C,Q602*%
X19740000Y-37640000D02*
X21260000Y-37640000D01*
X19740000Y-37690000D02*
X19740000Y-37640000D01*
X19740000Y-39590000D02*
X19740000Y-38810000D01*
X19740000Y-40760000D02*
X19740000Y-40710000D01*
X21260000Y-37640000D02*
X21260000Y-38640000D01*
X21260000Y-39760000D02*
X21260000Y-40760000D01*
X21260000Y-40760000D02*
X19740000Y-40760000D01*
X19200000Y-38820000D02*
X19440000Y-39150000D01*
X18960000Y-39150000D01*
X19200000Y-38820000D01*
G36*
X19440000Y-39150000D02*
G01*
X18960000Y-39150000D01*
X19200000Y-38820000D01*
X19440000Y-39150000D01*
G37*
%TO.C,Q101*%
X19240000Y-77190000D02*
X20760000Y-77190000D01*
X19240000Y-77240000D02*
X19240000Y-77190000D01*
X19240000Y-79140000D02*
X19240000Y-78360000D01*
X19240000Y-80310000D02*
X19240000Y-80260000D01*
X20760000Y-77190000D02*
X20760000Y-78190000D01*
X20760000Y-79310000D02*
X20760000Y-80310000D01*
X20760000Y-80310000D02*
X19240000Y-80310000D01*
X18700000Y-78370000D02*
X18940000Y-78700000D01*
X18460000Y-78700000D01*
X18700000Y-78370000D01*
G36*
X18940000Y-78700000D02*
G01*
X18460000Y-78700000D01*
X18700000Y-78370000D01*
X18940000Y-78700000D01*
G37*
%TO.C,R103*%
X14262742Y-87027500D02*
X14737258Y-87027500D01*
X14262742Y-88072500D02*
X14737258Y-88072500D01*
%TO.C,R406*%
X777500Y-36537258D02*
X777500Y-36062742D01*
X1822500Y-36537258D02*
X1822500Y-36062742D01*
%TO.C,R505*%
X21477500Y-44987258D02*
X21477500Y-44512742D01*
X22522500Y-44987258D02*
X22522500Y-44512742D01*
%TO.C,R702*%
X18262742Y-58127500D02*
X18737258Y-58127500D01*
X18262742Y-59172500D02*
X18737258Y-59172500D01*
%TO.C,TP1008*%
X25551277Y-35400000D02*
G75*
G02*
X24151277Y-35400000I-700000J0D01*
G01*
X24151277Y-35400000D02*
G75*
G02*
X25551277Y-35400000I700000J0D01*
G01*
%TO.C,C505*%
X8690000Y-51640580D02*
X8690000Y-51359420D01*
X9710000Y-51640580D02*
X9710000Y-51359420D01*
%TO.C,R507*%
X3512742Y-31727500D02*
X3987258Y-31727500D01*
X3512742Y-32772500D02*
X3987258Y-32772500D01*
%TO.C,TP1010*%
X1801277Y-46200000D02*
G75*
G02*
X401277Y-46200000I-700000J0D01*
G01*
X401277Y-46200000D02*
G75*
G02*
X1801277Y-46200000I700000J0D01*
G01*
%TO.C,R408*%
X13912742Y-29727500D02*
X14387258Y-29727500D01*
X13912742Y-30772500D02*
X14387258Y-30772500D01*
%TO.C,R409*%
X12012742Y-35777500D02*
X12487258Y-35777500D01*
X12012742Y-36822500D02*
X12487258Y-36822500D01*
%TO.C,C804*%
X16859420Y-64490000D02*
X17140580Y-64490000D01*
X16859420Y-65510000D02*
X17140580Y-65510000D01*
%TO.C,J801*%
X2344999Y-52880000D02*
X2344999Y-51500000D01*
X3724999Y-52880000D02*
X2344999Y-52880000D01*
X4994999Y-50120000D02*
X7644999Y-50120000D01*
X4994999Y-52880000D02*
X4994999Y-50120000D01*
X4994999Y-52880000D02*
X7644999Y-52880000D01*
X7644999Y-52880000D02*
X7644999Y-50120000D01*
%TO.C,C706*%
X3738748Y-62015000D02*
X4261252Y-62015000D01*
X3738748Y-63485000D02*
X4261252Y-63485000D01*
%TO.C,R402*%
X12262742Y-17977500D02*
X12737258Y-17977500D01*
X12262742Y-19022500D02*
X12737258Y-19022500D01*
%TO.C,R115*%
X21020000Y-83146359D02*
X21020000Y-83453641D01*
X21780000Y-83146359D02*
X21780000Y-83453641D01*
%TO.C,C401*%
X789999Y-23440580D02*
X789999Y-23159420D01*
X1809999Y-23440580D02*
X1809999Y-23159420D01*
%TO.C,R107*%
X23737258Y-74477500D02*
X23262742Y-74477500D01*
X23737258Y-75522500D02*
X23262742Y-75522500D01*
%TO.C,R118*%
X10903641Y-91570000D02*
X10596359Y-91570000D01*
X10903641Y-92330000D02*
X10596359Y-92330000D01*
%TO.C,R120*%
X1687742Y-92227500D02*
X2162258Y-92227500D01*
X1687742Y-93272500D02*
X2162258Y-93272500D01*
%TO.C,J402*%
X944800Y-17600000D02*
X944800Y-15600000D01*
X3450000Y-13094800D02*
X5450000Y-13094800D01*
X5450000Y-20105200D02*
X3450000Y-20105200D01*
X7955200Y-15600000D02*
X7955200Y-17600000D01*
%TO.C,TP1009*%
X27801277Y-35400000D02*
G75*
G02*
X26401277Y-35400000I-700000J0D01*
G01*
X26401277Y-35400000D02*
G75*
G02*
X27801277Y-35400000I700000J0D01*
G01*
%TO.C,R804*%
X727500Y-76987258D02*
X727500Y-76512742D01*
X1772500Y-76987258D02*
X1772500Y-76512742D01*
%TO.C,R105*%
X5227500Y-84487258D02*
X5227500Y-84012742D01*
X6272500Y-84487258D02*
X6272500Y-84012742D01*
%TO.C,R704*%
X24512742Y-32877500D02*
X24987258Y-32877500D01*
X24512742Y-33922500D02*
X24987258Y-33922500D01*
%TO.C,J103*%
X2620000Y-76345000D02*
X4000000Y-76345000D01*
X2620000Y-77725000D02*
X2620000Y-76345000D01*
X2620000Y-78995000D02*
X2620000Y-81645000D01*
X2620000Y-78995000D02*
X5380000Y-78995000D01*
X2620000Y-81645000D02*
X5380000Y-81645000D01*
X5380000Y-78995000D02*
X5380000Y-81645000D01*
%TO.C,C203*%
X11659420Y-57190000D02*
X11940580Y-57190000D01*
X11659420Y-58210000D02*
X11940580Y-58210000D01*
%TO.C,C101*%
X8440580Y-81790000D02*
X8159420Y-81790000D01*
X8440580Y-82810000D02*
X8159420Y-82810000D01*
%TO.C,C508*%
X15359420Y-37890000D02*
X15640580Y-37890000D01*
X15359420Y-38910000D02*
X15640580Y-38910000D01*
%TO.C,R202*%
X8562742Y-57527500D02*
X9037258Y-57527500D01*
X8562742Y-58572500D02*
X9037258Y-58572500D01*
%TO.C,U110*%
X24240000Y-78310000D02*
X24240000Y-77960000D01*
X26160000Y-76490000D02*
X26160000Y-76840000D01*
X26160000Y-77960000D02*
X26160000Y-78310000D01*
X24150000Y-76830000D02*
X24010000Y-76640000D01*
X24290000Y-76640000D01*
X24150000Y-76830000D01*
G36*
X24150000Y-76830000D02*
G01*
X24010000Y-76640000D01*
X24290000Y-76640000D01*
X24150000Y-76830000D01*
G37*
%TO.C,C408*%
X14009420Y-27990000D02*
X14290580Y-27990000D01*
X14009420Y-29010000D02*
X14290580Y-29010000D01*
%TO.C,J104*%
X2620000Y-68345000D02*
X4000000Y-68345000D01*
X2620000Y-69725000D02*
X2620000Y-68345000D01*
X2620000Y-70995000D02*
X2620000Y-73645000D01*
X2620000Y-70995000D02*
X5380000Y-70995000D01*
X2620000Y-73645000D02*
X5380000Y-73645000D01*
X5380000Y-70995000D02*
X5380000Y-73645000D01*
%TO.C,C704*%
X1515000Y-57261252D02*
X1515000Y-56738748D01*
X2985000Y-57261252D02*
X2985000Y-56738748D01*
%TO.C,U701*%
X19074432Y-55365000D02*
X20210000Y-55365000D01*
X20210000Y-57235000D02*
X18790000Y-57235000D01*
X18780000Y-55360000D02*
X18640000Y-55170000D01*
X18920000Y-55170000D01*
X18780000Y-55360000D01*
G36*
X18780000Y-55360000D02*
G01*
X18640000Y-55170000D01*
X18920000Y-55170000D01*
X18780000Y-55360000D01*
G37*
%TO.C,C708*%
X3738748Y-64265000D02*
X4261252Y-64265000D01*
X3738748Y-65735000D02*
X4261252Y-65735000D01*
%TO.C,R802*%
X727500Y-73737258D02*
X727500Y-73262742D01*
X1772500Y-73737258D02*
X1772500Y-73262742D01*
%TO.C,R407*%
X10712742Y-29727500D02*
X11187258Y-29727500D01*
X10712742Y-30772500D02*
X11187258Y-30772500D01*
%TO.C,C206*%
X8861252Y-67540000D02*
X7438748Y-67540000D01*
X8861252Y-70260000D02*
X7438748Y-70260000D01*
%TO.C,R110*%
X23737258Y-72977500D02*
X23262742Y-72977500D01*
X23737258Y-74022500D02*
X23262742Y-74022500D01*
%TO.C,L201*%
X10846000Y-63846000D02*
X15154000Y-63846000D01*
X15154000Y-68154000D02*
X10846000Y-68154000D01*
%TO.C,U114*%
X6590000Y-88940000D02*
X8410000Y-88940000D01*
X6590000Y-88990000D02*
X6590000Y-88940000D01*
X6590000Y-92060000D02*
X6590000Y-92010000D01*
X8410000Y-88940000D02*
X8410000Y-88990000D01*
X8410000Y-92010000D02*
X8410000Y-92060000D01*
X8410000Y-92060000D02*
X6590000Y-92060000D01*
X8950000Y-92010000D02*
X9190000Y-92340000D01*
X8710000Y-92340000D01*
X8950000Y-92010000D01*
G36*
X9190000Y-92340000D02*
G01*
X8710000Y-92340000D01*
X8950000Y-92010000D01*
X9190000Y-92340000D01*
G37*
%TO.C,R403*%
X777500Y-29997257D02*
X777500Y-29522741D01*
X1822500Y-29997257D02*
X1822500Y-29522741D01*
%TO.C,R405*%
X14477500Y-33237258D02*
X14477500Y-32762742D01*
X15522500Y-33237258D02*
X15522500Y-32762742D01*
%TO.C,R303*%
X18977500Y-64737258D02*
X18977500Y-64262742D01*
X20022500Y-64737258D02*
X20022500Y-64262742D01*
%TO.C,R116*%
X7512742Y-94227500D02*
X7987258Y-94227500D01*
X7512742Y-95272500D02*
X7987258Y-95272500D01*
%TO.C,C108*%
X16390000Y-83240580D02*
X16390000Y-82959420D01*
X17410000Y-83240580D02*
X17410000Y-82959420D01*
%TO.C,U703*%
X11894432Y-44915000D02*
X14260000Y-44915000D01*
X14260000Y-47285000D02*
X11740000Y-47285000D01*
%TO.C,R301*%
X11712742Y-70627500D02*
X12187258Y-70627500D01*
X11712742Y-71672500D02*
X12187258Y-71672500D01*
%TO.C,U113*%
X24090000Y-84240000D02*
X25910000Y-84240000D01*
X24090000Y-84290000D02*
X24090000Y-84240000D01*
X24090000Y-87360000D02*
X24090000Y-87310000D01*
X25910000Y-84240000D02*
X25910000Y-84290000D01*
X25910000Y-87310000D02*
X25910000Y-87360000D01*
X25910000Y-87360000D02*
X24090000Y-87360000D01*
X23550000Y-84290000D02*
X23310000Y-83960000D01*
X23790000Y-83960000D01*
X23550000Y-84290000D01*
G36*
X23550000Y-84290000D02*
G01*
X23310000Y-83960000D01*
X23790000Y-83960000D01*
X23550000Y-84290000D01*
G37*
%TO.C,L701*%
X17346000Y-53354000D02*
X17346000Y-49046000D01*
X21654000Y-49046000D02*
X21654000Y-53354000D01*
%TO.C,R506*%
X8762742Y-37877500D02*
X9237258Y-37877500D01*
X8762742Y-38922500D02*
X9237258Y-38922500D01*
%TO.C,U801*%
X12690000Y-53440000D02*
X14510000Y-53440000D01*
X12690000Y-53515000D02*
X12690000Y-53440000D01*
X12690000Y-56560000D02*
X12690000Y-56485000D01*
X14510000Y-53440000D02*
X14510000Y-53515000D01*
X14510000Y-56485000D02*
X14510000Y-56560000D01*
X14510000Y-56560000D02*
X12690000Y-56560000D01*
X12150000Y-53510000D02*
X11910000Y-53180000D01*
X12390000Y-53180000D01*
X12150000Y-53510000D01*
G36*
X12150000Y-53510000D02*
G01*
X11910000Y-53180000D01*
X12390000Y-53180000D01*
X12150000Y-53510000D01*
G37*
%TO.C,C707*%
X20965000Y-69186252D02*
X20965000Y-68663748D01*
X22435000Y-69186252D02*
X22435000Y-68663748D01*
%TO.C,R112*%
X28477500Y-76987258D02*
X28477500Y-76512742D01*
X29522500Y-76987258D02*
X29522500Y-76512742D01*
%TO.C,C506*%
X16139999Y-34165580D02*
X16139999Y-33884420D01*
X17159999Y-34165580D02*
X17159999Y-33884420D01*
%TO.C,C106*%
X2238748Y-89840000D02*
X3661252Y-89840000D01*
X2238748Y-91660000D02*
X3661252Y-91660000D01*
%TO.C,R701*%
X16527500Y-56437258D02*
X16527500Y-55962742D01*
X17572500Y-56437258D02*
X17572500Y-55962742D01*
%TO.C,C501*%
X3859420Y-42190000D02*
X4140580Y-42190000D01*
X3859420Y-43210000D02*
X4140580Y-43210000D01*
%TO.C,C102*%
X6740000Y-79811252D02*
X6740000Y-78388748D01*
X9460000Y-79811252D02*
X9460000Y-78388748D01*
%TO.C,C703*%
X18515000Y-61561252D02*
X18515000Y-61038748D01*
X19985000Y-61561252D02*
X19985000Y-61038748D01*
%TO.C,R203*%
X4012742Y-66477500D02*
X4487258Y-66477500D01*
X4012742Y-67522500D02*
X4487258Y-67522500D01*
%TO.C,U702*%
X18090000Y-43840000D02*
X19910000Y-43840000D01*
X18090000Y-43890000D02*
X18090000Y-43840000D01*
X18090000Y-46960000D02*
X18090000Y-46910000D01*
X19910000Y-43840000D02*
X19910000Y-43890000D01*
X19910000Y-45010000D02*
X19910000Y-45790000D01*
X19910000Y-46910000D02*
X19910000Y-46960000D01*
X19910000Y-46960000D02*
X18090000Y-46960000D01*
X17550000Y-43890000D02*
X17310000Y-43560000D01*
X17790000Y-43560000D01*
X17550000Y-43890000D01*
G36*
X17550000Y-43890000D02*
G01*
X17310000Y-43560000D01*
X17790000Y-43560000D01*
X17550000Y-43890000D01*
G37*
%TO.C,J802*%
X4345000Y-56680000D02*
X4345000Y-55300000D01*
X5725000Y-56680000D02*
X4345000Y-56680000D01*
X6995000Y-53920000D02*
X9645000Y-53920000D01*
X6995000Y-56680000D02*
X6995000Y-53920000D01*
X6995000Y-56680000D02*
X9645000Y-56680000D01*
X9645000Y-56680000D02*
X9645000Y-53920000D01*
%TO.C,J301*%
X23345000Y-70625000D02*
X23345000Y-37385000D01*
X25995000Y-67975000D02*
X25995000Y-70625000D01*
X25995000Y-70625000D02*
X23345000Y-70625000D01*
X28645000Y-37385000D02*
X23345000Y-37385000D01*
X28645000Y-67975000D02*
X25995000Y-67975000D01*
X28645000Y-67975000D02*
X28645000Y-37385000D01*
X28645000Y-69245000D02*
X28645000Y-70625000D01*
X28645000Y-70625000D02*
X27265000Y-70625000D01*
%TO.C,U301*%
X17304432Y-68665000D02*
X19110000Y-68665000D01*
X19110000Y-70935000D02*
X16890000Y-70935000D01*
X17010000Y-68660000D02*
X16870000Y-68470000D01*
X17150000Y-68470000D01*
X17010000Y-68660000D01*
G36*
X17010000Y-68660000D02*
G01*
X16870000Y-68470000D01*
X17150000Y-68470000D01*
X17010000Y-68660000D01*
G37*
%TO.C,C112*%
X27490000Y-86140580D02*
X27490000Y-85859420D01*
X28510000Y-86140580D02*
X28510000Y-85859420D01*
%TO.C,C204*%
X8861252Y-60740000D02*
X7438748Y-60740000D01*
X8861252Y-63460000D02*
X7438748Y-63460000D01*
%TO.C,C601*%
X19238748Y-41365000D02*
X19761252Y-41365000D01*
X19238748Y-42835000D02*
X19761252Y-42835000D01*
%TO.C,R803*%
X727500Y-81487258D02*
X727500Y-81012742D01*
X1772500Y-81487258D02*
X1772500Y-81012742D01*
%TO.C,C110*%
X22190000Y-77540580D02*
X22190000Y-77259420D01*
X23210000Y-77540580D02*
X23210000Y-77259420D01*
%TO.C,C205*%
X8861252Y-64140000D02*
X7438748Y-64140000D01*
X8861252Y-66860000D02*
X7438748Y-66860000D01*
%TO.C,U201*%
X11220000Y-58850000D02*
X11800000Y-58850000D01*
X11220000Y-63150000D02*
X11800000Y-63150000D01*
X14780000Y-58850000D02*
X14200000Y-58850000D01*
X14780000Y-63150000D02*
X14200000Y-63150000D01*
D12*
X11165000Y-59100000D02*
G75*
G02*
X11035000Y-59100000I-65000J0D01*
G01*
X11035000Y-59100000D02*
G75*
G02*
X11165000Y-59100000I65000J0D01*
G01*
%TO.C,Q111*%
D11*
X19240000Y-84440000D02*
X20760000Y-84440000D01*
X19240000Y-84490000D02*
X19240000Y-84440000D01*
X19240000Y-86390000D02*
X19240000Y-85610000D01*
X19240000Y-87560000D02*
X19240000Y-87510000D01*
X20760000Y-84440000D02*
X20760000Y-85440000D01*
X20760000Y-86560000D02*
X20760000Y-87560000D01*
X20760000Y-87560000D02*
X19240000Y-87560000D01*
X18700000Y-85620000D02*
X18940000Y-85950000D01*
X18460000Y-85950000D01*
X18700000Y-85620000D01*
G36*
X18940000Y-85950000D02*
G01*
X18460000Y-85950000D01*
X18700000Y-85620000D01*
X18940000Y-85950000D01*
G37*
%TO.C,U401*%
X9865000Y-25510000D02*
X9865000Y-20890000D01*
X15335000Y-20890000D02*
X15335000Y-25510000D01*
X14880000Y-19340000D02*
X14640000Y-19010000D01*
X15120000Y-19010000D01*
X14880000Y-19340000D01*
G36*
X14880000Y-19340000D02*
G01*
X14640000Y-19010000D01*
X15120000Y-19010000D01*
X14880000Y-19340000D01*
G37*
%TO.C,R705*%
X27762742Y-32877500D02*
X28237258Y-32877500D01*
X27762742Y-33922500D02*
X28237258Y-33922500D01*
%TO.C,C104*%
X18888748Y-73890000D02*
X20311252Y-73890000D01*
X18888748Y-76610000D02*
X20311252Y-76610000D01*
%TO.C,Q112*%
X23990000Y-95190000D02*
X25510000Y-95190000D01*
X23990000Y-95240000D02*
X23990000Y-95190000D01*
X23990000Y-97140000D02*
X23990000Y-96360000D01*
X23990000Y-98310000D02*
X23990000Y-98260000D01*
X25510000Y-95190000D02*
X25510000Y-96190000D01*
X25510000Y-97310000D02*
X25510000Y-98310000D01*
X25510000Y-98310000D02*
X23990000Y-98310000D01*
X23450000Y-96370000D02*
X23690000Y-96700000D01*
X23210000Y-96700000D01*
X23450000Y-96370000D01*
G36*
X23690000Y-96700000D02*
G01*
X23210000Y-96700000D01*
X23450000Y-96370000D01*
X23690000Y-96700000D01*
G37*
%TO.C,U112*%
X24094432Y-79315000D02*
X26460000Y-79315000D01*
X26460000Y-81685000D02*
X23940000Y-81685000D01*
X23800000Y-79310000D02*
X23660000Y-79120000D01*
X23940000Y-79120000D01*
X23800000Y-79310000D01*
G36*
X23800000Y-79310000D02*
G01*
X23660000Y-79120000D01*
X23940000Y-79120000D01*
X23800000Y-79310000D01*
G37*
%TO.C,R302*%
X3162742Y-82977500D02*
X3637258Y-82977500D01*
X3162742Y-84022500D02*
X3637258Y-84022500D01*
%TO.C,R114*%
X21227500Y-92987258D02*
X21227500Y-92512742D01*
X22272500Y-92987258D02*
X22272500Y-92512742D01*
%TO.C,R111*%
X26977500Y-77312742D02*
X26977500Y-77787258D01*
X28022500Y-77312742D02*
X28022500Y-77787258D01*
%TO.C,U502*%
X10290000Y-39265000D02*
X14910000Y-39265000D01*
X14910000Y-44735000D02*
X10290000Y-44735000D01*
X8740000Y-39720000D02*
X8410000Y-39960000D01*
X8410000Y-39480000D01*
X8740000Y-39720000D01*
G36*
X8740000Y-39720000D02*
G01*
X8410000Y-39960000D01*
X8410000Y-39480000D01*
X8740000Y-39720000D01*
G37*
%TO.C,TP1002*%
X23701277Y-83000000D02*
G75*
G02*
X22301277Y-83000000I-700000J0D01*
G01*
X22301277Y-83000000D02*
G75*
G02*
X23701277Y-83000000I700000J0D01*
G01*
%TO.C,C302*%
X11359420Y-47590000D02*
X11640580Y-47590000D01*
X11359420Y-48610000D02*
X11640580Y-48610000D01*
%TO.C,R501*%
X1962742Y-53677500D02*
X2437258Y-53677500D01*
X1962742Y-54722500D02*
X2437258Y-54722500D01*
%TO.C,U101*%
X10890000Y-81890000D02*
X11365000Y-81890000D01*
X10890000Y-82365000D02*
X10890000Y-81890000D01*
X10890000Y-86110000D02*
X10890000Y-85635000D01*
X11365000Y-86110000D02*
X10890000Y-86110000D01*
X14635000Y-81890000D02*
X15110000Y-81890000D01*
X15110000Y-81890000D02*
X15110000Y-82365000D01*
X10360000Y-82750000D02*
X10030000Y-82990000D01*
X10030000Y-82510000D01*
X10360000Y-82750000D01*
G36*
X10360000Y-82750000D02*
G01*
X10030000Y-82990000D01*
X10030000Y-82510000D01*
X10360000Y-82750000D01*
G37*
%TO.C,R603*%
X727500Y-67237258D02*
X727500Y-66762742D01*
X1772500Y-67237258D02*
X1772500Y-66762742D01*
%TO.C,C201*%
X16090000Y-62461252D02*
X16090000Y-61038748D01*
X17910000Y-62461252D02*
X17910000Y-61038748D01*
%TO.C,R104*%
X5237258Y-92477500D02*
X4762742Y-92477500D01*
X5237258Y-93522500D02*
X4762742Y-93522500D01*
%TO.C,C202*%
X18988748Y-71340000D02*
X20411252Y-71340000D01*
X18988748Y-73160000D02*
X20411252Y-73160000D01*
%TO.C,C405*%
X12459420Y-34090000D02*
X12740580Y-34090000D01*
X12459420Y-35110000D02*
X12740580Y-35110000D01*
%TO.C,R404*%
X777500Y-33237258D02*
X777500Y-32762742D01*
X1822500Y-33237258D02*
X1822500Y-32762742D01*
%TO.C,R113*%
X25762742Y-82727500D02*
X26237258Y-82727500D01*
X25762742Y-83772500D02*
X26237258Y-83772500D01*
%TO.C,C406*%
X9690000Y-33140580D02*
X9690000Y-32859420D01*
X10710000Y-33140580D02*
X10710000Y-32859420D01*
%TO.C,U302*%
X11265000Y-50390000D02*
X12735000Y-50390000D01*
X11265000Y-50415000D02*
X11265000Y-50390000D01*
X11265000Y-52610000D02*
X11265000Y-52585000D01*
X12735000Y-50390000D02*
X12735000Y-50415000D01*
X12735000Y-52585000D02*
X12735000Y-52610000D01*
X12735000Y-52610000D02*
X11265000Y-52610000D01*
X10820000Y-50410000D02*
X10680000Y-50220000D01*
X10960000Y-50220000D01*
X10820000Y-50410000D01*
G36*
X10820000Y-50410000D02*
G01*
X10680000Y-50220000D01*
X10960000Y-50220000D01*
X10820000Y-50410000D01*
G37*
%TO.C,R801*%
X4512742Y-74477500D02*
X4987258Y-74477500D01*
X4512742Y-75522500D02*
X4987258Y-75522500D01*
%TO.C,J401*%
X3520000Y-23080000D02*
X4900000Y-23080000D01*
X3520000Y-24460000D02*
X3520000Y-23080000D01*
X3520000Y-25730000D02*
X3520000Y-30920000D01*
X3520000Y-25730000D02*
X6280000Y-25730000D01*
X3520000Y-30920000D02*
X6280000Y-30920000D01*
X6280000Y-25730000D02*
X6280000Y-30920000D01*
%TO.C,C111*%
X28515000Y-73240580D02*
X28515000Y-72959420D01*
X29535000Y-73240580D02*
X29535000Y-72959420D01*
%TO.C,C702*%
X21165000Y-55461252D02*
X21165000Y-54938748D01*
X22635000Y-55461252D02*
X22635000Y-54938748D01*
%TD*%
M02*
