%TF.GenerationSoftware,KiCad,Pcbnew,10.0.6*%
%TF.CreationDate,2026-09-08T00:55:51+02:00*%
%TF.ProjectId,Trimix_Analyzer,5472696d-6978-45f4-916e-616c797a6572,A3-placement-01*%
%TF.SameCoordinates,Original*%
%TF.FileFunction,Soldermask,Bot*%
%TF.FilePolarity,Negative*%
%FSLAX46Y46*%
G04 Gerber Fmt 4.6, Leading zero omitted, Abs format (unit mm)*
G04 Created by KiCad (PCBNEW 10.0.6) date 2026-09-08 00:55:51*
%MOMM*%
%LPD*%
G01*
G04 APERTURE LIST*
G04 Aperture macros list*
%AMRoundRect*
0 Rectangle with rounded corners*
0 $1 Rounding radius*
0 $2 $3 $4 $5 $6 $7 $8 $9 X,Y pos of 4 corners*
0 Add a 4 corners polygon primitive as box body*
4,1,4,$2,$3,$4,$5,$6,$7,$8,$9,$2,$3,0*
0 Add four circle primitives for the rounded corners*
1,1,$1+$1,$2,$3*
1,1,$1+$1,$4,$5*
1,1,$1+$1,$6,$7*
1,1,$1+$1,$8,$9*
0 Add four rect primitives between the rounded corners*
20,1,$1+$1,$2,$3,$4,$5,0*
20,1,$1+$1,$4,$5,$6,$7,0*
20,1,$1+$1,$6,$7,$8,$9,0*
20,1,$1+$1,$8,$9,$2,$3,0*%
G04 Aperture macros list end*
%ADD10RoundRect,0.250000X-0.675000X-0.675000X0.675000X-0.675000X0.675000X0.675000X-0.675000X0.675000X0*%
%ADD11C,1.850000*%
%ADD12R,1.700000X1.700000*%
%ADD13C,1.700000*%
%ADD14RoundRect,0.250000X0.600000X0.725000X-0.600000X0.725000X-0.600000X-0.725000X0.600000X-0.725000X0*%
%ADD15O,1.700000X1.950000*%
%ADD16C,2.240000*%
%ADD17C,2.740000*%
%ADD18R,1.300000X1.300000*%
%ADD19C,1.300000*%
%ADD20RoundRect,0.200000X0.275000X-0.200000X0.275000X0.200000X-0.275000X0.200000X-0.275000X-0.200000X0*%
%ADD21C,0.800000*%
%ADD22RoundRect,0.135000X-0.135000X-0.185000X0.135000X-0.185000X0.135000X0.185000X-0.135000X0.185000X0*%
%ADD23C,1.000000*%
%ADD24RoundRect,0.225000X-0.250000X0.225000X-0.250000X-0.225000X0.250000X-0.225000X0.250000X0.225000X0*%
%ADD25RoundRect,0.200000X-0.200000X-0.275000X0.200000X-0.275000X0.200000X0.275000X-0.200000X0.275000X0*%
%ADD26RoundRect,0.140000X-0.170000X0.140000X-0.170000X-0.140000X0.170000X-0.140000X0.170000X0.140000X0*%
%ADD27RoundRect,0.250000X-0.325000X-0.650000X0.325000X-0.650000X0.325000X0.650000X-0.325000X0.650000X0*%
%ADD28RoundRect,0.050000X-0.250000X-0.100000X0.250000X-0.100000X0.250000X0.100000X-0.250000X0.100000X0*%
%ADD29RoundRect,0.050000X-0.075000X-0.275000X0.075000X-0.275000X0.075000X0.275000X-0.075000X0.275000X0*%
%ADD30RoundRect,0.050000X-0.250000X-0.075000X0.250000X-0.075000X0.250000X0.075000X-0.250000X0.075000X0*%
%ADD31RoundRect,0.050000X-0.100000X-1.150000X0.100000X-1.150000X0.100000X1.150000X-0.100000X1.150000X0*%
%ADD32C,0.400000*%
G04 APERTURE END LIST*
D10*
%TO.C,J102*%
X14900000Y-93000000D03*
D11*
X19100000Y-93000000D03*
%TD*%
D12*
%TO.C,J501*%
X4000000Y-34960000D03*
D13*
X4000000Y-37500000D03*
X4000000Y-40040000D03*
%TD*%
D14*
%TO.C,J701*%
X26450000Y-29525000D03*
D15*
X23950000Y-29525000D03*
X21450000Y-29525000D03*
X18950000Y-29525000D03*
%TD*%
D14*
%TO.C,J601*%
X26450000Y-21525000D03*
D15*
X23950000Y-21525000D03*
X21450000Y-21525000D03*
X18950000Y-21525000D03*
%TD*%
D12*
%TO.C,J801*%
X3724999Y-51500000D03*
D13*
X6264999Y-51500000D03*
%TD*%
D16*
%TO.C,J402*%
X4450000Y-16600000D03*
D17*
X1910000Y-14060000D03*
X1910000Y-19140000D03*
X6990000Y-14060000D03*
X6990000Y-19140000D03*
%TD*%
D12*
%TO.C,J103*%
X4000000Y-77725000D03*
D13*
X4000000Y-80265000D03*
%TD*%
D12*
%TO.C,J104*%
X4000000Y-69725000D03*
D13*
X4000000Y-72265000D03*
%TD*%
D12*
%TO.C,J802*%
X5725000Y-55300000D03*
D13*
X8265000Y-55300000D03*
%TD*%
D12*
%TO.C,J301*%
X27265000Y-69245000D03*
D13*
X24725000Y-69245000D03*
X27265000Y-66705000D03*
X24725000Y-66705000D03*
X27265000Y-64165000D03*
X24725000Y-64165000D03*
X27265000Y-61625000D03*
X24725000Y-61625000D03*
X27265000Y-59085000D03*
X24725000Y-59085000D03*
X27265000Y-56545000D03*
X24725000Y-56545000D03*
X27265000Y-54005000D03*
X24725000Y-54005000D03*
X27265000Y-51465000D03*
X24725000Y-51465000D03*
X27265000Y-48925000D03*
X24725000Y-48925000D03*
X27265000Y-46385000D03*
X24725000Y-46385000D03*
X27265000Y-43845000D03*
X24725000Y-43845000D03*
X27265000Y-41305000D03*
X24725000Y-41305000D03*
X27265000Y-38765000D03*
X24725000Y-38765000D03*
%TD*%
D18*
%TO.C,J101*%
X10250000Y-97000000D03*
D19*
X12050000Y-97000000D03*
X13850000Y-97000000D03*
X15650000Y-97000000D03*
X17450000Y-97000000D03*
X19250000Y-97000000D03*
%TD*%
D12*
%TO.C,J401*%
X4900000Y-24460000D03*
D13*
X4900000Y-27000000D03*
X4900000Y-29540000D03*
%TD*%
D20*
%TO.C,R121*%
X8750000Y-85625000D03*
X8750000Y-83975000D03*
%TD*%
D21*
%TO.C,TP1013*%
X10150000Y-83900000D03*
%TD*%
D22*
%TO.C,R119*%
X4640000Y-88150000D03*
X5660000Y-88150000D03*
%TD*%
D23*
%TO.C,TP1007*%
X21001277Y-60750000D03*
%TD*%
D20*
%TO.C,R126*%
X18750000Y-90825000D03*
X18750000Y-89175000D03*
%TD*%
D24*
%TO.C,C115*%
X12000000Y-91975000D03*
X12000000Y-93525000D03*
%TD*%
D25*
%TO.C,R122*%
X9625000Y-87800000D03*
X11275000Y-87800000D03*
%TD*%
D20*
%TO.C,R124*%
X16000000Y-87175000D03*
X16000000Y-85525000D03*
%TD*%
D26*
%TO.C,C116*%
X16500000Y-88570000D03*
X16500000Y-89530000D03*
%TD*%
D25*
%TO.C,R123*%
X12900000Y-87600000D03*
X14550000Y-87600000D03*
%TD*%
D27*
%TO.C,C114*%
X8425000Y-90000000D03*
X11375000Y-90000000D03*
%TD*%
D20*
%TO.C,R128*%
X8500000Y-93575000D03*
X8500000Y-91925000D03*
%TD*%
%TO.C,R125*%
X17750000Y-87775000D03*
X17750000Y-86125000D03*
%TD*%
%TO.C,R127*%
X10250000Y-93575000D03*
X10250000Y-91925000D03*
%TD*%
D28*
%TO.C,U115*%
X13600000Y-90700000D03*
D29*
X13775000Y-90875000D03*
D30*
X13600000Y-90225000D03*
X13600000Y-89775000D03*
D28*
X13600000Y-89300000D03*
D29*
X13775000Y-89125000D03*
D31*
X14250000Y-90000000D03*
X14750000Y-90000000D03*
D29*
X15225000Y-89125000D03*
D28*
X15400000Y-89300000D03*
D30*
X15400000Y-89775000D03*
X15400000Y-90225000D03*
D29*
X15225000Y-90875000D03*
D28*
X15400000Y-90700000D03*
%TD*%
D32*
X13600000Y-89775000D03*
M02*
