%TF.GenerationSoftware,KiCad,Pcbnew,10.0.6*%
%TF.CreationDate,2026-09-07T15:38:33+02:00*%
%TF.ProjectId,Trimix_USB_Input,5472696d-6978-45f5-9553-425f496e7075,A3-USB6-ESD*%
%TF.SameCoordinates,Original*%
%TF.FileFunction,Copper,L1,Top*%
%TF.FilePolarity,Positive*%
%FSLAX46Y46*%
G04 Gerber Fmt 4.6, Leading zero omitted, Abs format (unit mm)*
G04 Created by KiCad (PCBNEW 10.0.6) date 2026-09-07 15:38:33*
%MOMM*%
%LPD*%
G01*
G04 APERTURE LIST*
G04 Aperture macros list*
%AMRoundRect*
0 Rectangle with rounded corners*
0 $1 Rounding radius*
0 $2 $3 $4 $5 $6 $7 $8 $9 X,Y pos of 4 corners*
0 Add a 4 corners polygon primitive as box body*
4,1,4,$2,$3,$4,$5,$6,$7,$8,$9,$2,$3,0*
0 Add four circle primitives for the rounded corners*
1,1,$1+$1,$2,$3*
1,1,$1+$1,$4,$5*
1,1,$1+$1,$6,$7*
1,1,$1+$1,$8,$9*
0 Add four rect primitives between the rounded corners*
20,1,$1+$1,$2,$3,$4,$5,0*
20,1,$1+$1,$4,$5,$6,$7,0*
20,1,$1+$1,$6,$7,$8,$9,0*
20,1,$1+$1,$8,$9,$2,$3,0*%
G04 Aperture macros list end*
%TA.AperFunction,SMDPad,CuDef*%
%ADD10RoundRect,0.050000X-0.285000X-0.150000X0.285000X-0.150000X0.285000X0.150000X-0.285000X0.150000X0*%
%TD*%
%TA.AperFunction,ComponentPad*%
%ADD11C,0.800000*%
%TD*%
%TA.AperFunction,SMDPad,CuDef*%
%ADD12R,0.650000X0.800000*%
%TD*%
%TA.AperFunction,SMDPad,CuDef*%
%ADD13R,0.300000X0.800000*%
%TD*%
%TA.AperFunction,ComponentPad*%
%ADD14O,1.000000X2.150000*%
%TD*%
%TA.AperFunction,SMDPad,CuDef*%
%ADD15RoundRect,0.050000X0.050000X-0.232500X0.050000X0.232500X-0.050000X0.232500X-0.050000X-0.232500X0*%
%TD*%
%TA.AperFunction,SMDPad,CuDef*%
%ADD16RoundRect,0.050000X0.100000X-0.232500X0.100000X0.232500X-0.100000X0.232500X-0.100000X-0.232500X0*%
%TD*%
%TA.AperFunction,SMDPad,CuDef*%
%ADD17RoundRect,0.050000X0.150000X-0.350000X0.150000X0.350000X-0.150000X0.350000X-0.150000X-0.350000X0*%
%TD*%
%TA.AperFunction,ComponentPad*%
%ADD18R,1.300000X1.300000*%
%TD*%
%TA.AperFunction,ComponentPad*%
%ADD19C,1.300000*%
%TD*%
%TA.AperFunction,ViaPad*%
%ADD20C,0.600000*%
%TD*%
%TA.AperFunction,ViaPad*%
%ADD21C,0.450000*%
%TD*%
%TA.AperFunction,Conductor*%
%ADD22C,0.600000*%
%TD*%
%TA.AperFunction,Conductor*%
%ADD23C,0.300000*%
%TD*%
%TA.AperFunction,Conductor*%
%ADD24C,0.200000*%
%TD*%
%TA.AperFunction,Conductor*%
%ADD25C,0.150000*%
%TD*%
G04 APERTURE END LIST*
D10*
%TO.P,D901,1*%
%TO.N,USB_5V*%
X3260000Y-8000000D03*
%TO.P,D901,2*%
%TO.N,GND*%
X4740000Y-8000000D03*
%TD*%
D11*
%TO.P,J901,A1*%
%TO.N,GND*%
X3900000Y-10140000D03*
D12*
X4720000Y-10190000D03*
%TO.P,J901,A4*%
%TO.N,USB_5V*%
X5570000Y-10190000D03*
D13*
%TO.P,J901,A5*%
%TO.N,USB_CC1*%
X6750000Y-10190000D03*
%TO.P,J901,A6*%
%TO.N,USB_D_P*%
X7750000Y-10190000D03*
%TO.P,J901,A7*%
%TO.N,USB_D_M*%
X8250000Y-10190000D03*
%TO.P,J901,A8*%
%TO.N,unconnected-(J901-SBU1-PadA8)*%
X9250000Y-10190000D03*
D12*
%TO.P,J901,A9*%
%TO.N,USB_5V*%
X10430000Y-10190000D03*
%TO.P,J901,A12*%
%TO.N,GND*%
X11280000Y-10190000D03*
%TO.P,J901,B1*%
X11280000Y-10190000D03*
D11*
X12100000Y-10140000D03*
D12*
%TO.P,J901,B4*%
%TO.N,USB_5V*%
X10430000Y-10190000D03*
D13*
%TO.P,J901,B5*%
%TO.N,USB_CC2*%
X9750000Y-10190000D03*
%TO.P,J901,B6*%
%TO.N,USB_D_P*%
X8750000Y-10190000D03*
%TO.P,J901,B7*%
%TO.N,USB_D_M*%
X7250000Y-10190000D03*
%TO.P,J901,B8*%
%TO.N,unconnected-(J901-SBU2-PadB8)*%
X6250000Y-10190000D03*
D12*
%TO.P,J901,B9*%
%TO.N,USB_5V*%
X5570000Y-10190000D03*
%TO.P,J901,B12*%
%TO.N,GND*%
X4720000Y-10190000D03*
D14*
%TO.P,J901,SH*%
X2350000Y-10440000D03*
X2350000Y-14440000D03*
X13650000Y-10440000D03*
X13650000Y-14440000D03*
%TD*%
D15*
%TO.P,U901,1*%
%TO.N,USB_CC1*%
X8500000Y-7217500D03*
%TO.P,U901,2*%
%TO.N,USB_CC2*%
X9000000Y-7217500D03*
D16*
%TO.P,U901,3*%
%TO.N,GND*%
X9500000Y-7217500D03*
D17*
X9500000Y-6800000D03*
D15*
%TO.P,U901,4*%
%TO.N,USB_D_P*%
X10000000Y-7217500D03*
%TO.P,U901,5*%
%TO.N,USB_D_M*%
X10500000Y-7217500D03*
%TO.P,U901,6*%
X10500000Y-6382500D03*
%TO.P,U901,7*%
%TO.N,USB_D_P*%
X10000000Y-6382500D03*
D16*
%TO.P,U901,8*%
%TO.N,GND*%
X9500000Y-6382500D03*
D15*
%TO.P,U901,9*%
%TO.N,USB_CC2*%
X9000000Y-6382500D03*
%TO.P,U901,10*%
%TO.N,USB_CC1*%
X8500000Y-6382500D03*
%TD*%
D18*
%TO.P,J902,1*%
%TO.N,USB_5V*%
X3500000Y-4500000D03*
D19*
%TO.P,J902,2*%
%TO.N,GND*%
X5300000Y-4500000D03*
%TO.P,J902,3*%
%TO.N,USB_CC1*%
X7100000Y-4500000D03*
%TO.P,J902,4*%
%TO.N,USB_CC2*%
X8900000Y-4500000D03*
%TO.P,J902,5*%
%TO.N,USB_D_P*%
X10700000Y-4500000D03*
%TO.P,J902,6*%
%TO.N,USB_D_M*%
X12500000Y-4500000D03*
%TD*%
D20*
%TO.N,GND*%
X11280000Y-9250000D03*
X5250000Y-8000000D03*
X4720000Y-9250000D03*
D21*
X9500000Y-5600000D03*
%TO.N,USB_CC1*%
X8125000Y-7275000D03*
X6750000Y-9300000D03*
%TO.N,USB_D_P*%
X7750000Y-9300000D03*
X8750000Y-9300000D03*
X10350000Y-7900000D03*
%TO.N,USB_D_M*%
X10825000Y-8300000D03*
X7250000Y-8900000D03*
X8250000Y-8900000D03*
%TO.N,USB_CC2*%
X8925000Y-5825000D03*
X9750000Y-9300000D03*
%TD*%
%TO.N,USB_5V*%
D22*
X10425000Y-10100000D02*
X10425000Y-9450000D01*
D23*
X5575000Y-9225000D02*
X5575000Y-10200000D01*
D22*
X3500000Y-4700000D02*
X3500000Y-4500000D01*
D23*
X10430000Y-10190000D02*
X10430000Y-10100000D01*
D22*
X6025000Y-8325000D02*
X6025000Y-7225000D01*
D23*
X3900000Y-8650000D02*
X5000000Y-8650000D01*
D22*
X5570000Y-10100000D02*
X5575000Y-10100000D01*
D23*
X3260000Y-8000000D02*
X3250000Y-8000000D01*
X5570000Y-10190000D02*
X5570000Y-10100000D01*
D22*
X5575000Y-10100000D02*
X5575000Y-8775000D01*
D23*
X5000000Y-8650000D02*
X5575000Y-9225000D01*
D22*
X10425000Y-9450000D02*
X10450000Y-9425000D01*
X3500000Y-4700000D02*
X3500000Y-4500000D01*
X6775000Y-7975000D02*
X3500000Y-4700000D01*
D23*
X3250000Y-8000000D02*
X3900000Y-8650000D01*
D22*
X10450000Y-9000000D02*
X9425000Y-7975000D01*
X5575000Y-8775000D02*
X6025000Y-8325000D01*
X10430000Y-10100000D02*
X10425000Y-10100000D01*
D23*
X5575000Y-10200000D02*
X5570000Y-10190000D01*
D22*
X10450000Y-9425000D02*
X10450000Y-9000000D01*
X6025000Y-7225000D02*
X3500000Y-4700000D01*
X9425000Y-7975000D02*
X6775000Y-7975000D01*
%TO.N,GND*%
D24*
X9500000Y-6382500D02*
X9500000Y-5600000D01*
D23*
X11280000Y-10190000D02*
X11280000Y-9250000D01*
X4720000Y-10190000D02*
X4720000Y-9250000D01*
X4740000Y-8000000D02*
X5250000Y-8000000D01*
%TO.N,USB_CC1*%
D25*
X8125000Y-7275000D02*
X8450000Y-7275000D01*
X8500000Y-7225000D02*
X8500000Y-7217500D01*
X6750000Y-10190000D02*
X6750000Y-9300000D01*
X7100000Y-4975000D02*
X7100000Y-4500000D01*
X8450000Y-7275000D02*
X8500000Y-7225000D01*
X8500000Y-6375000D02*
X7100000Y-4975000D01*
X8500000Y-6382500D02*
X8500000Y-6375000D01*
X8500000Y-7217500D02*
X8500000Y-6382500D01*
%TO.N,USB_D_P*%
X10000000Y-7225000D02*
X10000000Y-7217500D01*
X10350000Y-7900000D02*
X10000000Y-7550000D01*
X10000000Y-6375000D02*
X10000000Y-5200000D01*
X10000000Y-5200000D02*
X10700000Y-4500000D01*
X8750000Y-10190000D02*
X8750000Y-9300000D01*
X10000000Y-7550000D02*
X10000000Y-7225000D01*
X10000000Y-6382500D02*
X10000000Y-6375000D01*
X10000000Y-7217500D02*
X10000000Y-6382500D01*
X7750000Y-10190000D02*
X7750000Y-9300000D01*
X10000000Y-7225000D02*
X10000000Y-7217500D01*
X10000000Y-7550000D02*
X10000000Y-7225000D01*
X10350000Y-7900000D02*
X10000000Y-7550000D01*
%TO.N,USB_D_M*%
X10500000Y-6382500D02*
X10500000Y-6375000D01*
X12375000Y-4500000D02*
X12500000Y-4500000D01*
X7250000Y-10190000D02*
X7250000Y-8900000D01*
X10500000Y-7225000D02*
X10500000Y-7217500D01*
X8250000Y-10190000D02*
X8250000Y-8900000D01*
X10825000Y-8300000D02*
X10825000Y-7550000D01*
X10825000Y-7550000D02*
X10500000Y-7225000D01*
X10825000Y-7550000D02*
X10500000Y-7225000D01*
X10825000Y-8300000D02*
X10825000Y-7550000D01*
X10500000Y-6375000D02*
X12375000Y-4500000D01*
X10500000Y-7225000D02*
X10500000Y-7217500D01*
X10500000Y-7217500D02*
X10500000Y-6382500D01*
%TO.N,USB_CC2*%
X9000000Y-7217500D02*
X9000000Y-6382500D01*
X8925000Y-7150000D02*
X9000000Y-7225000D01*
X9000000Y-4600000D02*
X8900000Y-4500000D01*
X8925000Y-5825000D02*
X8925000Y-7150000D01*
X9000000Y-7225000D02*
X9000000Y-7217500D01*
X9000000Y-6382500D02*
X9000000Y-6375000D01*
X9750000Y-10190000D02*
X9750000Y-9300000D01*
X9000000Y-6375000D02*
X9000000Y-4600000D01*
%TD*%
%TA.AperFunction,Conductor*%
%TO.N,GND*%
G36*
X13209749Y-222174D02*
G01*
X13230531Y-263046D01*
X13276702Y-557805D01*
X13365848Y-913188D01*
X13486711Y-1259072D01*
X13638304Y-1592633D01*
X13819390Y-1911148D01*
X14028490Y-2212015D01*
X14028494Y-2212020D01*
X14028495Y-2212021D01*
X14263883Y-2492763D01*
X14263891Y-2492771D01*
X14263897Y-2492778D01*
X14523683Y-2751139D01*
X14523695Y-2751150D01*
X14805734Y-2984997D01*
X14805737Y-2984999D01*
X14805741Y-2985002D01*
X15107753Y-3192444D01*
X15107756Y-3192445D01*
X15107758Y-3192447D01*
X15107765Y-3192451D01*
X15427247Y-3371769D01*
X15427256Y-3371773D01*
X15427259Y-3371775D01*
X15427265Y-3371777D01*
X15427274Y-3371782D01*
X15755746Y-3518889D01*
X15794643Y-3560057D01*
X15799500Y-3586425D01*
X15799500Y-11125500D01*
X15777826Y-11177826D01*
X15725500Y-11199500D01*
X14260118Y-11199500D01*
X14186428Y-11230022D01*
X14130022Y-11286428D01*
X14099500Y-11360116D01*
X14099500Y-15445500D01*
X14077826Y-15497826D01*
X14025500Y-15519500D01*
X13225148Y-15519500D01*
X13172822Y-15497826D01*
X13158037Y-15476680D01*
X12732389Y-14560525D01*
X12725500Y-14529345D01*
X12725500Y-11387156D01*
X12747174Y-11334830D01*
X12762498Y-11323071D01*
X12801613Y-11300489D01*
X12885489Y-11216613D01*
X12944799Y-11113886D01*
X12975499Y-10999311D01*
X12975500Y-10999311D01*
X12975500Y-10880689D01*
X12975499Y-10880688D01*
X12944800Y-10766117D01*
X12944798Y-10766112D01*
X12885491Y-10663390D01*
X12885490Y-10663389D01*
X12885489Y-10663387D01*
X12801613Y-10579511D01*
X12801610Y-10579509D01*
X12801609Y-10579508D01*
X12698887Y-10520201D01*
X12698882Y-10520199D01*
X12584311Y-10489500D01*
X12584309Y-10489500D01*
X12564882Y-10489500D01*
X10979500Y-10489500D01*
X10927174Y-10467826D01*
X10905500Y-10415500D01*
X10905500Y-9775180D01*
X10896767Y-9731278D01*
X10887970Y-9718112D01*
X10875500Y-9677001D01*
X10875500Y-9587350D01*
X10878022Y-9568197D01*
X10900499Y-9484311D01*
X10900500Y-9484311D01*
X10900500Y-8940689D01*
X10900499Y-8940688D01*
X10900295Y-8939928D01*
X10877639Y-8855372D01*
X10872321Y-8835525D01*
X10872320Y-8835522D01*
X10872320Y-8835523D01*
X10869799Y-8826114D01*
X10869799Y-8826113D01*
X10843331Y-8780270D01*
X10835939Y-8724120D01*
X10870417Y-8679186D01*
X10888259Y-8671795D01*
X10969938Y-8649910D01*
X11055562Y-8600475D01*
X11125475Y-8530562D01*
X11174910Y-8444938D01*
X11200499Y-8349437D01*
X11200500Y-8349437D01*
X11200500Y-8250563D01*
X11200499Y-8250562D01*
X11174911Y-8155065D01*
X11174909Y-8155060D01*
X11161663Y-8132117D01*
X11125475Y-8069438D01*
X11072174Y-8016137D01*
X11050500Y-7963811D01*
X11050500Y-7505145D01*
X11050499Y-7505143D01*
X11016171Y-7422266D01*
X11016169Y-7422263D01*
X10772174Y-7178268D01*
X10750500Y-7125942D01*
X10750500Y-6965253D01*
X10742511Y-6925090D01*
X10738867Y-6906769D01*
X10738866Y-6906767D01*
X10737971Y-6905427D01*
X10737039Y-6902356D01*
X10736078Y-6900035D01*
X10736306Y-6899940D01*
X10725500Y-6864316D01*
X10725500Y-6735683D01*
X10736306Y-6700058D01*
X10736078Y-6699964D01*
X10737040Y-6697640D01*
X10737972Y-6694570D01*
X10738867Y-6693231D01*
X10750500Y-6634748D01*
X10750500Y-6474057D01*
X10772174Y-6421731D01*
X11319470Y-5874435D01*
X11996167Y-5197737D01*
X12048492Y-5176064D01*
X12089605Y-5188536D01*
X12120820Y-5209394D01*
X12239384Y-5258504D01*
X12266503Y-5269737D01*
X12421158Y-5300500D01*
X12421160Y-5300500D01*
X12578840Y-5300500D01*
X12578842Y-5300500D01*
X12733497Y-5269737D01*
X12879179Y-5209394D01*
X13010289Y-5121789D01*
X13121789Y-5010289D01*
X13209394Y-4879179D01*
X13269737Y-4733497D01*
X13300500Y-4578842D01*
X13300500Y-4421158D01*
X13269737Y-4266503D01*
X13209394Y-4120821D01*
X13121789Y-3989711D01*
X13010289Y-3878211D01*
X12879179Y-3790606D01*
X12879175Y-3790604D01*
X12879173Y-3790603D01*
X12879174Y-3790603D01*
X12733501Y-3730264D01*
X12733491Y-3730261D01*
X12622745Y-3708233D01*
X12578842Y-3699500D01*
X12421158Y-3699500D01*
X12377315Y-3708220D01*
X12266508Y-3730261D01*
X12266498Y-3730264D01*
X12120825Y-3790603D01*
X11989711Y-3878210D01*
X11989710Y-3878212D01*
X11878212Y-3989710D01*
X11878210Y-3989711D01*
X11790603Y-4120825D01*
X11730264Y-4266498D01*
X11730261Y-4266508D01*
X11699500Y-4421159D01*
X11699500Y-4578840D01*
X11730262Y-4733496D01*
X11730264Y-4733502D01*
X11738384Y-4753105D01*
X11738384Y-4809742D01*
X11722343Y-4833749D01*
X10628038Y-5928055D01*
X10575712Y-5949729D01*
X10571041Y-5949500D01*
X10569748Y-5949500D01*
X10430252Y-5949500D01*
X10401010Y-5955316D01*
X10371767Y-5961133D01*
X10340612Y-5981951D01*
X10285063Y-5993000D01*
X10237971Y-5961534D01*
X10225500Y-5920422D01*
X10225500Y-5324056D01*
X10247172Y-5271732D01*
X10277861Y-5241043D01*
X10330185Y-5219369D01*
X10358499Y-5225000D01*
X10466503Y-5269737D01*
X10621158Y-5300500D01*
X10621160Y-5300500D01*
X10778840Y-5300500D01*
X10778842Y-5300500D01*
X10933497Y-5269737D01*
X11079179Y-5209394D01*
X11210289Y-5121789D01*
X11321789Y-5010289D01*
X11409394Y-4879179D01*
X11469737Y-4733497D01*
X11500500Y-4578842D01*
X11500500Y-4421158D01*
X11469737Y-4266503D01*
X11409394Y-4120821D01*
X11321789Y-3989711D01*
X11210289Y-3878211D01*
X11079179Y-3790606D01*
X11079175Y-3790604D01*
X11079173Y-3790603D01*
X11079174Y-3790603D01*
X10933501Y-3730264D01*
X10933491Y-3730261D01*
X10822745Y-3708233D01*
X10778842Y-3699500D01*
X10621158Y-3699500D01*
X10577315Y-3708220D01*
X10466508Y-3730261D01*
X10466498Y-3730264D01*
X10320825Y-3790603D01*
X10189711Y-3878210D01*
X10189710Y-3878212D01*
X10078212Y-3989710D01*
X10078210Y-3989711D01*
X9990603Y-4120825D01*
X9930264Y-4266498D01*
X9930261Y-4266508D01*
X9899500Y-4421159D01*
X9899500Y-4578840D01*
X9930261Y-4733491D01*
X9930264Y-4733501D01*
X9974996Y-4841494D01*
X9974996Y-4898131D01*
X9958955Y-4922138D01*
X9872265Y-5008829D01*
X9808830Y-5072264D01*
X9803197Y-5085863D01*
X9774499Y-5155144D01*
X9774499Y-5253466D01*
X9774500Y-5253475D01*
X9774500Y-6029316D01*
X9763693Y-6064940D01*
X9763922Y-6065035D01*
X9762960Y-6067356D01*
X9762029Y-6070427D01*
X9761133Y-6071767D01*
X9761133Y-6071769D01*
X9749500Y-6130252D01*
X9749500Y-6634748D01*
X9761133Y-6693231D01*
X9762028Y-6694570D01*
X9762959Y-6697640D01*
X9763922Y-6699964D01*
X9763693Y-6700058D01*
X9774500Y-6735683D01*
X9774500Y-6864316D01*
X9763693Y-6899940D01*
X9763922Y-6900035D01*
X9762960Y-6902356D01*
X9762029Y-6905427D01*
X9761133Y-6906767D01*
X9749500Y-6965253D01*
X9749500Y-7469747D01*
X9756381Y-7504343D01*
X9745331Y-7559892D01*
X9698239Y-7591357D01*
X9646803Y-7582865D01*
X9598891Y-7555203D01*
X9598889Y-7555202D01*
X9598887Y-7555201D01*
X9597585Y-7554852D01*
X9574674Y-7548712D01*
X9574674Y-7548713D01*
X9484309Y-7524500D01*
X9324500Y-7524500D01*
X9272174Y-7502826D01*
X9250500Y-7450500D01*
X9250500Y-6965253D01*
X9242511Y-6925090D01*
X9238867Y-6906769D01*
X9238866Y-6906767D01*
X9237971Y-6905427D01*
X9237039Y-6902356D01*
X9236078Y-6900035D01*
X9236306Y-6899940D01*
X9225500Y-6864316D01*
X9225500Y-6735683D01*
X9236306Y-6700058D01*
X9236078Y-6699964D01*
X9237040Y-6697640D01*
X9237972Y-6694570D01*
X9238867Y-6693231D01*
X9250500Y-6634748D01*
X9250500Y-6130252D01*
X9238867Y-6071769D01*
X9238471Y-6069777D01*
X9246963Y-6018341D01*
X9274910Y-5969938D01*
X9300499Y-5874437D01*
X9300500Y-5874437D01*
X9300500Y-5775563D01*
X9300499Y-5775562D01*
X9274911Y-5680065D01*
X9274909Y-5680060D01*
X9235414Y-5611652D01*
X9225500Y-5574652D01*
X9225500Y-5281073D01*
X9247174Y-5228747D01*
X9271183Y-5212705D01*
X9279179Y-5209394D01*
X9410289Y-5121789D01*
X9521789Y-5010289D01*
X9609394Y-4879179D01*
X9669737Y-4733497D01*
X9700500Y-4578842D01*
X9700500Y-4421158D01*
X9669737Y-4266503D01*
X9609394Y-4120821D01*
X9521789Y-3989711D01*
X9410289Y-3878211D01*
X9279179Y-3790606D01*
X9279175Y-3790604D01*
X9279173Y-3790603D01*
X9279174Y-3790603D01*
X9133501Y-3730264D01*
X9133491Y-3730261D01*
X9022745Y-3708233D01*
X8978842Y-3699500D01*
X8821158Y-3699500D01*
X8777315Y-3708220D01*
X8666508Y-3730261D01*
X8666498Y-3730264D01*
X8520825Y-3790603D01*
X8389711Y-3878210D01*
X8389710Y-3878212D01*
X8278212Y-3989710D01*
X8278210Y-3989711D01*
X8190603Y-4120825D01*
X8130264Y-4266498D01*
X8130261Y-4266508D01*
X8099500Y-4421159D01*
X8099500Y-4578840D01*
X8130261Y-4733491D01*
X8130264Y-4733501D01*
X8190603Y-4879174D01*
X8190605Y-4879177D01*
X8190606Y-4879179D01*
X8278211Y-5010289D01*
X8389711Y-5121789D01*
X8520821Y-5209394D01*
X8520826Y-5209396D01*
X8520825Y-5209396D01*
X8639384Y-5258504D01*
X8666503Y-5269737D01*
X8705002Y-5277395D01*
X8714936Y-5279371D01*
X8762029Y-5310837D01*
X8774500Y-5351949D01*
X8774500Y-5435577D01*
X8752826Y-5487903D01*
X8737500Y-5499663D01*
X8694437Y-5524525D01*
X8624525Y-5594437D01*
X8575090Y-5680060D01*
X8575088Y-5680065D01*
X8549500Y-5775562D01*
X8549500Y-5875500D01*
X8527826Y-5927826D01*
X8475500Y-5949500D01*
X8426617Y-5949500D01*
X8426617Y-5947885D01*
X8377327Y-5932920D01*
X8371960Y-5928055D01*
X7640317Y-5196412D01*
X7618643Y-5144086D01*
X7640316Y-5091761D01*
X7721789Y-5010289D01*
X7809394Y-4879179D01*
X7869737Y-4733497D01*
X7900500Y-4578842D01*
X7900500Y-4421158D01*
X7869737Y-4266503D01*
X7809394Y-4120821D01*
X7721789Y-3989711D01*
X7610289Y-3878211D01*
X7479179Y-3790606D01*
X7479175Y-3790604D01*
X7479173Y-3790603D01*
X7479174Y-3790603D01*
X7333501Y-3730264D01*
X7333491Y-3730261D01*
X7222745Y-3708233D01*
X7178842Y-3699500D01*
X7021158Y-3699500D01*
X6977315Y-3708220D01*
X6866508Y-3730261D01*
X6866498Y-3730264D01*
X6720825Y-3790603D01*
X6589711Y-3878210D01*
X6589710Y-3878212D01*
X6478212Y-3989710D01*
X6478210Y-3989711D01*
X6390603Y-4120825D01*
X6330264Y-4266498D01*
X6330261Y-4266508D01*
X6299500Y-4421159D01*
X6299500Y-4578840D01*
X6330261Y-4733491D01*
X6330264Y-4733501D01*
X6390603Y-4879174D01*
X6390605Y-4879177D01*
X6390606Y-4879179D01*
X6478211Y-5010289D01*
X6589711Y-5121789D01*
X6720821Y-5209394D01*
X6720826Y-5209396D01*
X6720825Y-5209396D01*
X6839384Y-5258504D01*
X6866503Y-5269737D01*
X7021158Y-5300500D01*
X7075943Y-5300500D01*
X7128269Y-5322174D01*
X8227826Y-6421731D01*
X8249500Y-6474057D01*
X8249500Y-6634748D01*
X8261133Y-6693231D01*
X8262028Y-6694570D01*
X8262959Y-6697640D01*
X8263922Y-6699964D01*
X8263693Y-6700058D01*
X8274500Y-6735683D01*
X8274500Y-6829873D01*
X8252826Y-6882199D01*
X8200500Y-6903873D01*
X8181350Y-6901352D01*
X8174437Y-6899500D01*
X8174435Y-6899500D01*
X8075565Y-6899500D01*
X8075563Y-6899500D01*
X7980065Y-6925088D01*
X7980060Y-6925090D01*
X7894437Y-6974525D01*
X7824525Y-7044437D01*
X7775090Y-7130060D01*
X7775088Y-7130065D01*
X7749500Y-7225562D01*
X7749500Y-7324437D01*
X7775088Y-7419934D01*
X7776020Y-7422183D01*
X7776019Y-7423409D01*
X7776345Y-7424623D01*
X7776019Y-7424710D01*
X7776018Y-7478820D01*
X7735969Y-7518868D01*
X7707652Y-7524500D01*
X6992255Y-7524500D01*
X6939929Y-7502826D01*
X4322174Y-4885071D01*
X4300500Y-4832745D01*
X4300500Y-3835180D01*
X4291767Y-3791278D01*
X4258504Y-3741496D01*
X4241692Y-3730263D01*
X4208722Y-3708233D01*
X4164820Y-3699500D01*
X2835180Y-3699500D01*
X2813229Y-3703866D01*
X2791277Y-3708233D01*
X2741496Y-3741495D01*
X2741495Y-3741496D01*
X2708233Y-3791277D01*
X2699500Y-3835180D01*
X2699500Y-5164819D01*
X2708233Y-5208722D01*
X2738135Y-5253475D01*
X2741496Y-5258504D01*
X2791278Y-5291767D01*
X2835180Y-5300500D01*
X3432745Y-5300500D01*
X3485071Y-5322174D01*
X5552826Y-7389929D01*
X5574500Y-7442255D01*
X5574500Y-8107745D01*
X5552826Y-8160071D01*
X5296260Y-8416637D01*
X5243934Y-8438311D01*
X5191608Y-8416637D01*
X5184511Y-8409540D01*
X5115990Y-8369979D01*
X5115985Y-8369977D01*
X5039564Y-8349500D01*
X5039562Y-8349500D01*
X4055123Y-8349500D01*
X4002797Y-8327826D01*
X3767174Y-8092203D01*
X3745500Y-8039877D01*
X3745500Y-7830253D01*
X3745500Y-7830252D01*
X3733867Y-7771769D01*
X3689552Y-7705448D01*
X3648079Y-7677736D01*
X3623232Y-7661133D01*
X3623233Y-7661133D01*
X3593989Y-7655316D01*
X3564748Y-7649500D01*
X2955252Y-7649500D01*
X2926010Y-7655316D01*
X2896767Y-7661133D01*
X2830449Y-7705447D01*
X2830447Y-7705449D01*
X2786133Y-7771767D01*
X2774500Y-7830253D01*
X2774500Y-8169746D01*
X2786133Y-8228232D01*
X2801054Y-8250562D01*
X2830448Y-8294552D01*
X2857463Y-8312603D01*
X2896767Y-8338866D01*
X2896768Y-8338866D01*
X2896769Y-8338867D01*
X2955252Y-8350500D01*
X3144877Y-8350500D01*
X3197203Y-8372174D01*
X3659540Y-8834511D01*
X3715489Y-8890460D01*
X3784011Y-8930021D01*
X3784012Y-8930021D01*
X3784014Y-8930022D01*
X3820984Y-8939928D01*
X3860435Y-8950499D01*
X3860436Y-8950500D01*
X3860438Y-8950500D01*
X3939562Y-8950500D01*
X4844877Y-8950500D01*
X4897203Y-8972174D01*
X5102826Y-9177797D01*
X5124500Y-9230123D01*
X5124500Y-9677001D01*
X5112030Y-9718112D01*
X5103233Y-9731278D01*
X5094500Y-9775180D01*
X5094500Y-10415500D01*
X5072826Y-10467826D01*
X5020500Y-10489500D01*
X3415689Y-10489500D01*
X3301117Y-10520199D01*
X3301112Y-10520201D01*
X3198390Y-10579508D01*
X3114508Y-10663390D01*
X3055201Y-10766112D01*
X3055199Y-10766117D01*
X3024500Y-10880688D01*
X3024500Y-10999311D01*
X3055199Y-11113882D01*
X3055201Y-11113887D01*
X3114508Y-11216609D01*
X3114509Y-11216610D01*
X3114511Y-11216613D01*
X3198387Y-11300489D01*
X3237499Y-11323070D01*
X3271978Y-11368002D01*
X3274500Y-11387156D01*
X3274500Y-14529345D01*
X3267611Y-14560525D01*
X2841963Y-15476680D01*
X2800259Y-15515002D01*
X2774852Y-15519500D01*
X1974500Y-15519500D01*
X1922174Y-15497826D01*
X1900500Y-15445500D01*
X1900500Y-11360118D01*
X1900499Y-11360116D01*
X1869977Y-11286428D01*
X1869975Y-11286425D01*
X1813575Y-11230025D01*
X1813571Y-11230022D01*
X1739882Y-11199500D01*
X274500Y-11199500D01*
X222174Y-11177826D01*
X200500Y-11125500D01*
X200500Y-3586425D01*
X222174Y-3534099D01*
X244254Y-3518889D01*
X572725Y-3371783D01*
X572741Y-3371776D01*
X572754Y-3371769D01*
X758461Y-3267535D01*
X892247Y-3192444D01*
X1194259Y-2985002D01*
X1476313Y-2751144D01*
X1736103Y-2492778D01*
X1971510Y-2212015D01*
X2180609Y-1911148D01*
X2361696Y-1592633D01*
X2513289Y-1259072D01*
X2634152Y-913188D01*
X2723297Y-557805D01*
X2769467Y-263046D01*
X2798978Y-214707D01*
X2842576Y-200500D01*
X13157423Y-200500D01*
X13209749Y-222174D01*
G37*
%TD.AperFunction*%
%TD*%
M02*
