%TF.GenerationSoftware,KiCad,Pcbnew,10.0.6*%
%TF.CreationDate,2026-09-07T15:38:33+02:00*%
%TF.ProjectId,Trimix_USB_Input,5472696d-6978-45f5-9553-425f496e7075,A3-USB6-ESD*%
%TF.SameCoordinates,Original*%
%TF.FileFunction,Soldermask,Top*%
%TF.FilePolarity,Negative*%
%FSLAX46Y46*%
G04 Gerber Fmt 4.6, Leading zero omitted, Abs format (unit mm)*
G04 Created by KiCad (PCBNEW 10.0.6) date 2026-09-07 15:38:33*
%MOMM*%
%LPD*%
G01*
G04 APERTURE LIST*
G04 Aperture macros list*
%AMRoundRect*
0 Rectangle with rounded corners*
0 $1 Rounding radius*
0 $2 $3 $4 $5 $6 $7 $8 $9 X,Y pos of 4 corners*
0 Add a 4 corners polygon primitive as box body*
4,1,4,$2,$3,$4,$5,$6,$7,$8,$9,$2,$3,0*
0 Add four circle primitives for the rounded corners*
1,1,$1+$1,$2,$3*
1,1,$1+$1,$4,$5*
1,1,$1+$1,$6,$7*
1,1,$1+$1,$8,$9*
0 Add four rect primitives between the rounded corners*
20,1,$1+$1,$2,$3,$4,$5,0*
20,1,$1+$1,$4,$5,$6,$7,0*
20,1,$1+$1,$6,$7,$8,$9,0*
20,1,$1+$1,$8,$9,$2,$3,0*%
G04 Aperture macros list end*
%ADD10RoundRect,0.050000X-0.285000X-0.150000X0.285000X-0.150000X0.285000X0.150000X-0.285000X0.150000X0*%
%ADD11C,0.800000*%
%ADD12R,0.650000X0.800000*%
%ADD13R,0.300000X0.800000*%
%ADD14O,1.000000X2.150000*%
%ADD15RoundRect,0.050000X0.050000X-0.232500X0.050000X0.232500X-0.050000X0.232500X-0.050000X-0.232500X0*%
%ADD16RoundRect,0.050000X0.100000X-0.232500X0.100000X0.232500X-0.100000X0.232500X-0.100000X-0.232500X0*%
%ADD17RoundRect,0.050000X0.150000X-0.350000X0.150000X0.350000X-0.150000X0.350000X-0.150000X-0.350000X0*%
%ADD18R,1.300000X1.300000*%
%ADD19C,1.300000*%
G04 APERTURE END LIST*
D10*
%TO.C,D901*%
X3260000Y-8000000D03*
X4740000Y-8000000D03*
%TD*%
D11*
%TO.C,J901*%
X3900000Y-10140000D03*
D12*
X4720000Y-10190000D03*
X5570000Y-10190000D03*
D13*
X6750000Y-10190000D03*
X7750000Y-10190000D03*
X8250000Y-10190000D03*
X9250000Y-10190000D03*
D12*
X10430000Y-10190000D03*
X11280000Y-10190000D03*
X11280000Y-10190000D03*
D11*
X12100000Y-10140000D03*
D12*
X10430000Y-10190000D03*
D13*
X9750000Y-10190000D03*
X8750000Y-10190000D03*
X7250000Y-10190000D03*
X6250000Y-10190000D03*
D12*
X5570000Y-10190000D03*
X4720000Y-10190000D03*
D14*
X2350000Y-10440000D03*
X2350000Y-14440000D03*
X13650000Y-10440000D03*
X13650000Y-14440000D03*
%TD*%
D15*
%TO.C,U901*%
X8500000Y-7217500D03*
X9000000Y-7217500D03*
D16*
X9500000Y-7217500D03*
D17*
X9500000Y-6800000D03*
D15*
X10000000Y-7217500D03*
X10500000Y-7217500D03*
X10500000Y-6382500D03*
X10000000Y-6382500D03*
D16*
X9500000Y-6382500D03*
D15*
X9000000Y-6382500D03*
X8500000Y-6382500D03*
%TD*%
D18*
%TO.C,J902*%
X3500000Y-4500000D03*
D19*
X5300000Y-4500000D03*
X7100000Y-4500000D03*
X8900000Y-4500000D03*
X10700000Y-4500000D03*
X12500000Y-4500000D03*
%TD*%
M02*
