%TF.GenerationSoftware,KiCad,Pcbnew,10.0.6*%
%TF.CreationDate,2026-09-07T15:38:33+02:00*%
%TF.ProjectId,Trimix_USB_Input,5472696d-6978-45f5-9553-425f496e7075,A3-USB6-ESD*%
%TF.SameCoordinates,Original*%
%TF.FileFunction,Copper,L2,Bot*%
%TF.FilePolarity,Positive*%
%FSLAX46Y46*%
G04 Gerber Fmt 4.6, Leading zero omitted, Abs format (unit mm)*
G04 Created by KiCad (PCBNEW 10.0.6) date 2026-09-07 15:38:33*
%MOMM*%
%LPD*%
G01*
G04 APERTURE LIST*
%TA.AperFunction,ComponentPad*%
%ADD10C,0.800000*%
%TD*%
%TA.AperFunction,ComponentPad*%
%ADD11O,1.000000X2.150000*%
%TD*%
%TA.AperFunction,ComponentPad*%
%ADD12R,1.300000X1.300000*%
%TD*%
%TA.AperFunction,ComponentPad*%
%ADD13C,1.300000*%
%TD*%
%TA.AperFunction,ViaPad*%
%ADD14C,0.600000*%
%TD*%
%TA.AperFunction,ViaPad*%
%ADD15C,0.450000*%
%TD*%
%TA.AperFunction,Conductor*%
%ADD16C,0.150000*%
%TD*%
G04 APERTURE END LIST*
D10*
%TO.P,J901,A1*%
%TO.N,GND*%
X3900000Y-10140000D03*
%TO.P,J901,B1*%
X12100000Y-10140000D03*
D11*
%TO.P,J901,SH*%
X2350000Y-10440000D03*
X2350000Y-14440000D03*
X13650000Y-10440000D03*
X13650000Y-14440000D03*
%TD*%
D12*
%TO.P,J902,1*%
%TO.N,USB_5V*%
X3500000Y-4500000D03*
D13*
%TO.P,J902,2*%
%TO.N,GND*%
X5300000Y-4500000D03*
%TO.P,J902,3*%
%TO.N,USB_CC1*%
X7100000Y-4500000D03*
%TO.P,J902,4*%
%TO.N,USB_CC2*%
X8900000Y-4500000D03*
%TO.P,J902,5*%
%TO.N,USB_D_P*%
X10700000Y-4500000D03*
%TO.P,J902,6*%
%TO.N,USB_D_M*%
X12500000Y-4500000D03*
%TD*%
D14*
%TO.N,GND*%
X11280000Y-9250000D03*
X5250000Y-8000000D03*
X4720000Y-9250000D03*
D15*
X9500000Y-5600000D03*
%TO.N,USB_CC1*%
X8125000Y-7275000D03*
X6750000Y-9300000D03*
%TO.N,USB_D_P*%
X7750000Y-9300000D03*
X8750000Y-9300000D03*
X10350000Y-7900000D03*
%TO.N,USB_D_M*%
X10825000Y-8300000D03*
X7250000Y-8900000D03*
X8250000Y-8900000D03*
%TO.N,USB_CC2*%
X8925000Y-5825000D03*
X9750000Y-9300000D03*
%TD*%
%TO.N,USB_CC1*%
D16*
X6750000Y-8650000D02*
X8125000Y-7275000D01*
X6750000Y-9300000D02*
X6750000Y-8650000D01*
%TO.N,USB_D_P*%
X10350000Y-9375000D02*
X10350000Y-7900000D01*
X9950000Y-9775000D02*
X10350000Y-9375000D01*
X9225000Y-9775000D02*
X9950000Y-9775000D01*
X8750000Y-9300000D02*
X9225000Y-9775000D01*
X7750000Y-9300000D02*
X8225000Y-9775000D01*
X9950000Y-9775000D02*
X10350000Y-9375000D01*
X8225000Y-9775000D02*
X9950000Y-9775000D01*
X10350000Y-9375000D02*
X10350000Y-7900000D01*
%TO.N,USB_D_M*%
X7550000Y-8825000D02*
X7275000Y-9100000D01*
X10750000Y-9475000D02*
X10750000Y-8375000D01*
X7275000Y-8925000D02*
X7275000Y-9500000D01*
X10750000Y-9475000D02*
X10750000Y-8375000D01*
X7275000Y-9100000D02*
X7275000Y-9500000D01*
X8175000Y-8825000D02*
X7550000Y-8825000D01*
X10125000Y-10100000D02*
X10750000Y-9475000D01*
X7875000Y-10100000D02*
X10125000Y-10100000D01*
X8250000Y-8900000D02*
X8175000Y-8825000D01*
X7250000Y-8900000D02*
X7275000Y-8925000D01*
X10750000Y-8375000D02*
X10825000Y-8300000D01*
X7875000Y-10100000D02*
X10125000Y-10100000D01*
X7275000Y-9500000D02*
X7875000Y-10100000D01*
X10750000Y-8375000D02*
X10825000Y-8300000D01*
X10125000Y-10100000D02*
X10750000Y-9475000D01*
X7275000Y-9500000D02*
X7875000Y-10100000D01*
%TO.N,USB_CC2*%
X9750000Y-6650000D02*
X8925000Y-5825000D01*
X9750000Y-9300000D02*
X9750000Y-6650000D01*
%TD*%
%TA.AperFunction,Conductor*%
%TO.N,GND*%
G36*
X13209749Y-222174D02*
G01*
X13230531Y-263046D01*
X13276702Y-557805D01*
X13365848Y-913188D01*
X13486711Y-1259072D01*
X13638304Y-1592633D01*
X13819390Y-1911148D01*
X14028490Y-2212015D01*
X14028494Y-2212020D01*
X14028495Y-2212021D01*
X14263883Y-2492763D01*
X14263891Y-2492771D01*
X14263897Y-2492778D01*
X14523683Y-2751139D01*
X14523695Y-2751150D01*
X14805734Y-2984997D01*
X14805737Y-2984999D01*
X14805741Y-2985002D01*
X15107753Y-3192444D01*
X15107756Y-3192445D01*
X15107758Y-3192447D01*
X15107765Y-3192451D01*
X15427247Y-3371769D01*
X15427256Y-3371773D01*
X15427259Y-3371775D01*
X15427265Y-3371777D01*
X15427274Y-3371782D01*
X15755746Y-3518889D01*
X15794643Y-3560057D01*
X15799500Y-3586425D01*
X15799500Y-11125500D01*
X15777826Y-11177826D01*
X15725500Y-11199500D01*
X14260118Y-11199500D01*
X14186428Y-11230022D01*
X14130022Y-11286428D01*
X14099500Y-11360116D01*
X14099500Y-15445500D01*
X14077826Y-15497826D01*
X14025500Y-15519500D01*
X13225148Y-15519500D01*
X13172822Y-15497826D01*
X13158037Y-15476680D01*
X12732389Y-14560525D01*
X12725500Y-14529345D01*
X12725500Y-11387156D01*
X12747174Y-11334830D01*
X12762498Y-11323071D01*
X12801613Y-11300489D01*
X12885489Y-11216613D01*
X12944799Y-11113886D01*
X12975499Y-10999311D01*
X12975500Y-10999311D01*
X12975500Y-10880689D01*
X12975499Y-10880688D01*
X12944800Y-10766117D01*
X12944798Y-10766112D01*
X12885491Y-10663390D01*
X12885490Y-10663389D01*
X12885489Y-10663387D01*
X12801613Y-10579511D01*
X12801610Y-10579509D01*
X12801609Y-10579508D01*
X12698887Y-10520201D01*
X12698882Y-10520199D01*
X12584311Y-10489500D01*
X12584309Y-10489500D01*
X12564882Y-10489500D01*
X3514882Y-10489500D01*
X3475000Y-10489500D01*
X3415691Y-10489500D01*
X3415689Y-10489500D01*
X3301117Y-10520199D01*
X3301112Y-10520201D01*
X3198390Y-10579508D01*
X3114508Y-10663390D01*
X3055201Y-10766112D01*
X3055199Y-10766117D01*
X3024500Y-10880688D01*
X3024500Y-10999311D01*
X3055199Y-11113882D01*
X3055201Y-11113887D01*
X3114508Y-11216609D01*
X3114509Y-11216610D01*
X3114511Y-11216613D01*
X3198387Y-11300489D01*
X3237499Y-11323070D01*
X3271978Y-11368002D01*
X3274500Y-11387156D01*
X3274500Y-14529345D01*
X3267611Y-14560525D01*
X2841963Y-15476680D01*
X2800259Y-15515002D01*
X2774852Y-15519500D01*
X1974500Y-15519500D01*
X1922174Y-15497826D01*
X1900500Y-15445500D01*
X1900500Y-11360118D01*
X1900499Y-11360116D01*
X1869977Y-11286428D01*
X1869975Y-11286425D01*
X1813575Y-11230025D01*
X1813571Y-11230022D01*
X1739882Y-11199500D01*
X274500Y-11199500D01*
X222174Y-11177826D01*
X200500Y-11125500D01*
X200500Y-9250562D01*
X6374500Y-9250562D01*
X6374500Y-9349437D01*
X6400088Y-9444934D01*
X6400090Y-9444939D01*
X6425382Y-9488745D01*
X6449525Y-9530562D01*
X6519438Y-9600475D01*
X6568870Y-9629014D01*
X6605058Y-9649908D01*
X6605060Y-9649908D01*
X6605062Y-9649910D01*
X6605063Y-9649910D01*
X6605065Y-9649911D01*
X6652813Y-9662705D01*
X6700562Y-9675499D01*
X6700563Y-9675500D01*
X6700565Y-9675500D01*
X6799437Y-9675500D01*
X6799437Y-9675499D01*
X6894938Y-9649910D01*
X6894940Y-9649908D01*
X6894942Y-9649908D01*
X6915486Y-9638046D01*
X6980562Y-9600475D01*
X6980564Y-9600472D01*
X6981913Y-9599694D01*
X7038066Y-9592300D01*
X7080443Y-9622667D01*
X7083829Y-9627735D01*
X7157671Y-9701577D01*
X7157673Y-9701578D01*
X7679609Y-10223514D01*
X7679612Y-10223518D01*
X7683830Y-10227736D01*
X7747264Y-10291170D01*
X7830145Y-10325500D01*
X7919855Y-10325500D01*
X10071525Y-10325500D01*
X10071533Y-10325501D01*
X10080145Y-10325501D01*
X10169854Y-10325501D01*
X10169855Y-10325501D01*
X10228460Y-10301225D01*
X10252736Y-10291170D01*
X10316170Y-10227736D01*
X10316170Y-10227735D01*
X10326575Y-10217330D01*
X10326576Y-10217327D01*
X10941170Y-9602736D01*
X10975500Y-9519855D01*
X10975500Y-9430146D01*
X10975500Y-8689422D01*
X10997174Y-8637096D01*
X11012501Y-8625336D01*
X11021827Y-8619951D01*
X11055562Y-8600475D01*
X11125475Y-8530562D01*
X11174910Y-8444938D01*
X11200499Y-8349437D01*
X11200500Y-8349437D01*
X11200500Y-8250563D01*
X11200499Y-8250562D01*
X11174911Y-8155065D01*
X11174909Y-8155060D01*
X11125474Y-8069437D01*
X11055562Y-7999525D01*
X10969939Y-7950090D01*
X10969934Y-7950088D01*
X10874437Y-7924500D01*
X10874435Y-7924500D01*
X10799500Y-7924500D01*
X10747174Y-7902826D01*
X10727446Y-7855199D01*
X10726133Y-7855372D01*
X10725500Y-7850569D01*
X10725500Y-7850565D01*
X10699910Y-7755062D01*
X10650475Y-7669438D01*
X10580562Y-7599525D01*
X10494939Y-7550090D01*
X10494934Y-7550088D01*
X10399437Y-7524500D01*
X10399435Y-7524500D01*
X10300565Y-7524500D01*
X10300563Y-7524500D01*
X10205065Y-7550088D01*
X10205060Y-7550090D01*
X10119437Y-7599525D01*
X10101826Y-7617137D01*
X10049500Y-7638811D01*
X9997174Y-7617137D01*
X9975500Y-7564811D01*
X9975500Y-6605145D01*
X9975499Y-6605143D01*
X9941171Y-6522266D01*
X9941169Y-6522263D01*
X9873521Y-6454615D01*
X9873514Y-6454609D01*
X9322174Y-5903269D01*
X9300500Y-5850943D01*
X9300500Y-5775563D01*
X9300499Y-5775562D01*
X9274911Y-5680065D01*
X9274909Y-5680060D01*
X9225474Y-5594437D01*
X9155562Y-5524525D01*
X9069939Y-5475090D01*
X9069934Y-5475088D01*
X8974437Y-5449500D01*
X8974435Y-5449500D01*
X8875565Y-5449500D01*
X8875563Y-5449500D01*
X8780065Y-5475088D01*
X8780060Y-5475090D01*
X8694437Y-5524525D01*
X8624525Y-5594437D01*
X8575090Y-5680060D01*
X8575088Y-5680065D01*
X8549500Y-5775562D01*
X8549500Y-5874437D01*
X8575088Y-5969934D01*
X8575090Y-5969939D01*
X8624525Y-6055562D01*
X8694438Y-6125475D01*
X8780062Y-6174910D01*
X8780063Y-6174910D01*
X8780065Y-6174911D01*
X8827813Y-6187705D01*
X8875562Y-6200499D01*
X8875563Y-6200500D01*
X8950943Y-6200500D01*
X9003269Y-6222174D01*
X9502826Y-6721731D01*
X9524500Y-6774057D01*
X9524500Y-8963811D01*
X9502826Y-9016137D01*
X9449525Y-9069437D01*
X9400090Y-9155060D01*
X9400088Y-9155065D01*
X9374500Y-9250562D01*
X9374500Y-9349434D01*
X9396782Y-9432593D01*
X9389389Y-9488745D01*
X9344455Y-9523224D01*
X9288303Y-9515831D01*
X9272977Y-9504071D01*
X9147174Y-9378268D01*
X9125500Y-9325942D01*
X9125500Y-9250563D01*
X9125499Y-9250562D01*
X9099911Y-9155065D01*
X9099909Y-9155060D01*
X9050474Y-9069437D01*
X8980562Y-8999525D01*
X8894939Y-8950090D01*
X8894934Y-8950088D01*
X8799437Y-8924500D01*
X8799435Y-8924500D01*
X8700565Y-8924500D01*
X8699500Y-8924500D01*
X8647174Y-8902826D01*
X8627446Y-8855199D01*
X8626133Y-8855372D01*
X8625500Y-8850569D01*
X8625500Y-8850565D01*
X8599910Y-8755062D01*
X8550475Y-8669438D01*
X8480562Y-8599525D01*
X8463347Y-8589586D01*
X8394939Y-8550090D01*
X8394934Y-8550088D01*
X8299437Y-8524500D01*
X8299435Y-8524500D01*
X8200565Y-8524500D01*
X8200563Y-8524500D01*
X8105065Y-8550088D01*
X8105060Y-8550090D01*
X8047433Y-8583361D01*
X8036655Y-8589585D01*
X8036653Y-8589586D01*
X7999653Y-8599500D01*
X7603475Y-8599500D01*
X7603467Y-8599499D01*
X7594855Y-8599499D01*
X7505146Y-8599499D01*
X7500345Y-8599499D01*
X7463345Y-8589585D01*
X7394939Y-8550090D01*
X7394934Y-8550088D01*
X7340403Y-8535477D01*
X7295470Y-8500999D01*
X7288078Y-8444846D01*
X7307228Y-8411675D01*
X8046730Y-7672174D01*
X8099056Y-7650500D01*
X8174437Y-7650500D01*
X8174437Y-7650499D01*
X8269938Y-7624910D01*
X8355562Y-7575475D01*
X8425475Y-7505562D01*
X8474910Y-7419938D01*
X8500499Y-7324437D01*
X8500500Y-7324437D01*
X8500500Y-7225563D01*
X8500499Y-7225562D01*
X8474911Y-7130065D01*
X8474909Y-7130060D01*
X8425474Y-7044437D01*
X8355562Y-6974525D01*
X8269939Y-6925090D01*
X8269934Y-6925088D01*
X8174437Y-6899500D01*
X8174435Y-6899500D01*
X8075565Y-6899500D01*
X8075563Y-6899500D01*
X7980065Y-6925088D01*
X7980060Y-6925090D01*
X7894437Y-6974525D01*
X7824525Y-7044437D01*
X7775090Y-7130060D01*
X7775088Y-7130065D01*
X7749500Y-7225562D01*
X7749500Y-7300942D01*
X7727826Y-7353268D01*
X6558831Y-8522263D01*
X6558830Y-8522265D01*
X6524499Y-8605144D01*
X6524499Y-8703466D01*
X6524500Y-8703475D01*
X6524500Y-8963811D01*
X6502826Y-9016137D01*
X6449525Y-9069437D01*
X6400090Y-9155060D01*
X6400088Y-9155065D01*
X6374500Y-9250562D01*
X200500Y-9250562D01*
X200500Y-3835180D01*
X2699500Y-3835180D01*
X2699500Y-5164820D01*
X2708233Y-5208722D01*
X2741496Y-5258504D01*
X2791278Y-5291767D01*
X2835180Y-5300500D01*
X2835181Y-5300500D01*
X4164819Y-5300500D01*
X4164820Y-5300500D01*
X4208722Y-5291767D01*
X4258504Y-5258504D01*
X4291767Y-5208722D01*
X4300500Y-5164820D01*
X4300500Y-4421159D01*
X6299500Y-4421159D01*
X6299500Y-4578840D01*
X6330261Y-4733491D01*
X6330264Y-4733501D01*
X6390603Y-4879174D01*
X6390605Y-4879177D01*
X6390606Y-4879179D01*
X6478211Y-5010289D01*
X6589711Y-5121789D01*
X6720821Y-5209394D01*
X6720826Y-5209396D01*
X6720825Y-5209396D01*
X6839384Y-5258504D01*
X6866503Y-5269737D01*
X7021158Y-5300500D01*
X7021160Y-5300500D01*
X7178840Y-5300500D01*
X7178842Y-5300500D01*
X7333497Y-5269737D01*
X7479179Y-5209394D01*
X7610289Y-5121789D01*
X7721789Y-5010289D01*
X7809394Y-4879179D01*
X7869737Y-4733497D01*
X7900500Y-4578842D01*
X7900500Y-4421159D01*
X8099500Y-4421159D01*
X8099500Y-4578840D01*
X8130261Y-4733491D01*
X8130264Y-4733501D01*
X8190603Y-4879174D01*
X8190605Y-4879177D01*
X8190606Y-4879179D01*
X8278211Y-5010289D01*
X8389711Y-5121789D01*
X8520821Y-5209394D01*
X8520826Y-5209396D01*
X8520825Y-5209396D01*
X8639384Y-5258504D01*
X8666503Y-5269737D01*
X8821158Y-5300500D01*
X8821160Y-5300500D01*
X8978840Y-5300500D01*
X8978842Y-5300500D01*
X9133497Y-5269737D01*
X9279179Y-5209394D01*
X9410289Y-5121789D01*
X9521789Y-5010289D01*
X9609394Y-4879179D01*
X9669737Y-4733497D01*
X9700500Y-4578842D01*
X9700500Y-4421159D01*
X9899500Y-4421159D01*
X9899500Y-4578840D01*
X9930261Y-4733491D01*
X9930264Y-4733501D01*
X9990603Y-4879174D01*
X9990605Y-4879177D01*
X9990606Y-4879179D01*
X10078211Y-5010289D01*
X10189711Y-5121789D01*
X10320821Y-5209394D01*
X10320826Y-5209396D01*
X10320825Y-5209396D01*
X10439384Y-5258504D01*
X10466503Y-5269737D01*
X10621158Y-5300500D01*
X10621160Y-5300500D01*
X10778840Y-5300500D01*
X10778842Y-5300500D01*
X10933497Y-5269737D01*
X11079179Y-5209394D01*
X11210289Y-5121789D01*
X11321789Y-5010289D01*
X11409394Y-4879179D01*
X11469737Y-4733497D01*
X11500500Y-4578842D01*
X11500500Y-4421159D01*
X11699500Y-4421159D01*
X11699500Y-4578840D01*
X11730261Y-4733491D01*
X11730264Y-4733501D01*
X11790603Y-4879174D01*
X11790605Y-4879177D01*
X11790606Y-4879179D01*
X11878211Y-5010289D01*
X11989711Y-5121789D01*
X12120821Y-5209394D01*
X12120826Y-5209396D01*
X12120825Y-5209396D01*
X12239384Y-5258504D01*
X12266503Y-5269737D01*
X12421158Y-5300500D01*
X12421160Y-5300500D01*
X12578840Y-5300500D01*
X12578842Y-5300500D01*
X12733497Y-5269737D01*
X12879179Y-5209394D01*
X13010289Y-5121789D01*
X13121789Y-5010289D01*
X13209394Y-4879179D01*
X13269737Y-4733497D01*
X13300500Y-4578842D01*
X13300500Y-4421158D01*
X13269737Y-4266503D01*
X13209394Y-4120821D01*
X13121789Y-3989711D01*
X13010289Y-3878211D01*
X12879179Y-3790606D01*
X12879175Y-3790604D01*
X12879173Y-3790603D01*
X12879174Y-3790603D01*
X12733501Y-3730264D01*
X12733491Y-3730261D01*
X12622745Y-3708233D01*
X12578842Y-3699500D01*
X12421158Y-3699500D01*
X12377315Y-3708220D01*
X12266508Y-3730261D01*
X12266498Y-3730264D01*
X12120825Y-3790603D01*
X11989711Y-3878210D01*
X11989710Y-3878212D01*
X11878212Y-3989710D01*
X11878210Y-3989711D01*
X11790603Y-4120825D01*
X11730264Y-4266498D01*
X11730261Y-4266508D01*
X11699500Y-4421159D01*
X11500500Y-4421159D01*
X11500500Y-4421158D01*
X11469737Y-4266503D01*
X11409394Y-4120821D01*
X11321789Y-3989711D01*
X11210289Y-3878211D01*
X11079179Y-3790606D01*
X11079175Y-3790604D01*
X11079173Y-3790603D01*
X11079174Y-3790603D01*
X10933501Y-3730264D01*
X10933491Y-3730261D01*
X10822745Y-3708233D01*
X10778842Y-3699500D01*
X10621158Y-3699500D01*
X10577315Y-3708220D01*
X10466508Y-3730261D01*
X10466498Y-3730264D01*
X10320825Y-3790603D01*
X10189711Y-3878210D01*
X10189710Y-3878212D01*
X10078212Y-3989710D01*
X10078210Y-3989711D01*
X9990603Y-4120825D01*
X9930264Y-4266498D01*
X9930261Y-4266508D01*
X9899500Y-4421159D01*
X9700500Y-4421159D01*
X9700500Y-4421158D01*
X9669737Y-4266503D01*
X9609394Y-4120821D01*
X9521789Y-3989711D01*
X9410289Y-3878211D01*
X9279179Y-3790606D01*
X9279175Y-3790604D01*
X9279173Y-3790603D01*
X9279174Y-3790603D01*
X9133501Y-3730264D01*
X9133491Y-3730261D01*
X9022745Y-3708233D01*
X8978842Y-3699500D01*
X8821158Y-3699500D01*
X8777315Y-3708220D01*
X8666508Y-3730261D01*
X8666498Y-3730264D01*
X8520825Y-3790603D01*
X8389711Y-3878210D01*
X8389710Y-3878212D01*
X8278212Y-3989710D01*
X8278210Y-3989711D01*
X8190603Y-4120825D01*
X8130264Y-4266498D01*
X8130261Y-4266508D01*
X8099500Y-4421159D01*
X7900500Y-4421159D01*
X7900500Y-4421158D01*
X7869737Y-4266503D01*
X7809394Y-4120821D01*
X7721789Y-3989711D01*
X7610289Y-3878211D01*
X7479179Y-3790606D01*
X7479175Y-3790604D01*
X7479173Y-3790603D01*
X7479174Y-3790603D01*
X7333501Y-3730264D01*
X7333491Y-3730261D01*
X7222745Y-3708233D01*
X7178842Y-3699500D01*
X7021158Y-3699500D01*
X6977315Y-3708220D01*
X6866508Y-3730261D01*
X6866498Y-3730264D01*
X6720825Y-3790603D01*
X6589711Y-3878210D01*
X6589710Y-3878212D01*
X6478212Y-3989710D01*
X6478210Y-3989711D01*
X6390603Y-4120825D01*
X6330264Y-4266498D01*
X6330261Y-4266508D01*
X6299500Y-4421159D01*
X4300500Y-4421159D01*
X4300500Y-3835180D01*
X4291767Y-3791278D01*
X4258504Y-3741496D01*
X4241692Y-3730263D01*
X4208722Y-3708233D01*
X4164820Y-3699500D01*
X2835180Y-3699500D01*
X2813229Y-3703866D01*
X2791277Y-3708233D01*
X2741496Y-3741495D01*
X2741495Y-3741496D01*
X2708233Y-3791277D01*
X2708233Y-3791278D01*
X2699500Y-3835180D01*
X200500Y-3835180D01*
X200500Y-3586425D01*
X222174Y-3534099D01*
X244254Y-3518889D01*
X572725Y-3371783D01*
X572741Y-3371776D01*
X572754Y-3371769D01*
X758461Y-3267535D01*
X892247Y-3192444D01*
X1194259Y-2985002D01*
X1476313Y-2751144D01*
X1736103Y-2492778D01*
X1971510Y-2212015D01*
X2180609Y-1911148D01*
X2361696Y-1592633D01*
X2513289Y-1259072D01*
X2634152Y-913188D01*
X2723297Y-557805D01*
X2769467Y-263046D01*
X2798978Y-214707D01*
X2842576Y-200500D01*
X13157423Y-200500D01*
X13209749Y-222174D01*
G37*
%TD.AperFunction*%
%TD*%
M02*
