M48
; DRILL file KiCad 10.0.6 date 2026-09-07T15:38:33
; FORMAT={-:-/ absolute / metric / decimal}
; #@! TF.CreationDate,2026-09-07T15:38:33+02:00
; #@! TF.GenerationSoftware,Kicad,Pcbnew,10.0.6
; #@! TF.FileFunction,Plated,1,2,PTH
FMAT,2
METRIC
; #@! TA.AperFunction,Plated,PTH,ViaDrill
T1C0.200
; #@! TA.AperFunction,Plated,PTH,ViaDrill
T2C0.300
; #@! TA.AperFunction,Plated,PTH,ComponentDrill
T3C0.500
; #@! TA.AperFunction,Plated,PTH,ComponentDrill
T4C0.800
%
G90
G05
T1
X6.75Y-9.3
X7.25Y-8.9
X7.75Y-9.3
X8.125Y-7.275
X8.25Y-8.9
X8.75Y-9.3
X8.925Y-5.825
X9.5Y-5.6
X9.75Y-9.3
X10.35Y-7.9
X10.825Y-8.3
T2
X4.72Y-9.25
X5.25Y-8.0
X11.28Y-9.25
T3
X3.9Y-10.14
X12.1Y-10.14
T4
X3.5Y-4.5
X5.3Y-4.5
X7.1Y-4.5
X8.9Y-4.5
X10.7Y-4.5
X12.5Y-4.5
T3
G00X2.35Y-9.865
M15
G01X2.35Y-11.015
M16
G05
G00X2.35Y-13.865
M15
G01X2.35Y-15.015
M16
G05
G00X13.65Y-9.865
M15
G01X13.65Y-11.015
M16
G05
G00X13.65Y-13.865
M15
G01X13.65Y-15.015
M16
G05
M30
