%TF.GenerationSoftware,KiCad,Pcbnew,10.0.6*%
%TF.CreationDate,2026-09-07T17:04:02+02:00*%
%TF.ProjectId,Trimix_Analyzer,5472696d-6978-45f4-916e-616c797a6572,A3-placement-01*%
%TF.SameCoordinates,Original*%
%TF.FileFunction,Copper,L2,Inr*%
%TF.FilePolarity,Positive*%
%FSLAX46Y46*%
G04 Gerber Fmt 4.6, Leading zero omitted, Abs format (unit mm)*
G04 Created by KiCad (PCBNEW 10.0.6) date 2026-09-07 17:04:02*
%MOMM*%
%LPD*%
G01*
G04 APERTURE LIST*
G04 Aperture macros list*
%AMRoundRect*
0 Rectangle with rounded corners*
0 $1 Rounding radius*
0 $2 $3 $4 $5 $6 $7 $8 $9 X,Y pos of 4 corners*
0 Add a 4 corners polygon primitive as box body*
4,1,4,$2,$3,$4,$5,$6,$7,$8,$9,$2,$3,0*
0 Add four circle primitives for the rounded corners*
1,1,$1+$1,$2,$3*
1,1,$1+$1,$4,$5*
1,1,$1+$1,$6,$7*
1,1,$1+$1,$8,$9*
0 Add four rect primitives between the rounded corners*
20,1,$1+$1,$2,$3,$4,$5,0*
20,1,$1+$1,$4,$5,$6,$7,0*
20,1,$1+$1,$6,$7,$8,$9,0*
20,1,$1+$1,$8,$9,$2,$3,0*%
G04 Aperture macros list end*
%TA.AperFunction,ComponentPad*%
%ADD10RoundRect,0.250000X-0.675000X-0.675000X0.675000X-0.675000X0.675000X0.675000X-0.675000X0.675000X0*%
%TD*%
%TA.AperFunction,ComponentPad*%
%ADD11C,1.850000*%
%TD*%
%TA.AperFunction,ComponentPad*%
%ADD12R,1.700000X1.700000*%
%TD*%
%TA.AperFunction,ComponentPad*%
%ADD13C,1.700000*%
%TD*%
%TA.AperFunction,ComponentPad*%
%ADD14RoundRect,0.250000X0.600000X0.725000X-0.600000X0.725000X-0.600000X-0.725000X0.600000X-0.725000X0*%
%TD*%
%TA.AperFunction,ComponentPad*%
%ADD15O,1.700000X1.950000*%
%TD*%
%TA.AperFunction,ComponentPad*%
%ADD16C,2.240000*%
%TD*%
%TA.AperFunction,ComponentPad*%
%ADD17C,2.740000*%
%TD*%
%TA.AperFunction,ComponentPad*%
%ADD18C,0.400000*%
%TD*%
%TA.AperFunction,HeatsinkPad*%
%ADD19C,0.500000*%
%TD*%
%TA.AperFunction,ComponentPad*%
%ADD20R,1.300000X1.300000*%
%TD*%
%TA.AperFunction,ComponentPad*%
%ADD21C,1.300000*%
%TD*%
%TA.AperFunction,ViaPad*%
%ADD22C,0.600000*%
%TD*%
G04 APERTURE END LIST*
D10*
%TO.N,PACK_P*%
%TO.C,J102*%
X14900000Y-93000000D03*
D11*
%TO.N,GND*%
X19100000Y-93000000D03*
%TD*%
D12*
%TO.N,HE_3V0*%
%TO.C,J501*%
X4000000Y-34960000D03*
D13*
%TO.N,HE_SENSE*%
X4000000Y-37500000D03*
%TO.N,GND*%
X4000000Y-40040000D03*
%TD*%
D14*
%TO.N,CO_5V28*%
%TO.C,J701*%
X26450000Y-29525000D03*
D15*
%TO.N,GND*%
X23950000Y-29525000D03*
%TO.N,CO_TX_CABLE*%
X21450000Y-29525000D03*
%TO.N,CO_RX_CABLE*%
X18950000Y-29525000D03*
%TD*%
D14*
%TO.N,BME_VIN*%
%TO.C,J601*%
X26450000Y-21525000D03*
D15*
%TO.N,GND*%
X23950000Y-21525000D03*
%TO.N,BME_SCL*%
X21450000Y-21525000D03*
%TO.N,BME_SDA*%
X18950000Y-21525000D03*
%TD*%
D12*
%TO.N,Net-(J801-Pin_1)*%
%TO.C,J801*%
X3724999Y-51500000D03*
D13*
%TO.N,GND*%
X6264999Y-51500000D03*
%TD*%
D16*
%TO.N,O2_B_RAW_P*%
%TO.C,J402*%
X4450000Y-16600000D03*
D17*
%TO.N,O2_B_RAW_N*%
X1910000Y-14060000D03*
X1910000Y-19140000D03*
X6990000Y-14060000D03*
X6990000Y-19140000D03*
%TD*%
D12*
%TO.N,/01  CHARGING + BATTERY/PACK_TS*%
%TO.C,J103*%
X4000000Y-77725000D03*
D13*
%TO.N,GND*%
X4000000Y-80265000D03*
%TD*%
D12*
%TO.N,VSYS*%
%TO.C,J104*%
X4000000Y-69725000D03*
D13*
%TO.N,CHARGE_ARM*%
X4000000Y-72265000D03*
%TD*%
D12*
%TO.N,BUTTON_LED_A*%
%TO.C,J802*%
X5725000Y-55300000D03*
D13*
%TO.N,GND*%
X8265000Y-55300000D03*
%TD*%
D12*
%TO.N,HOST_3V3*%
%TO.C,J301*%
X27265000Y-69245000D03*
D13*
%TO.N,HOST_5V*%
X24725000Y-69245000D03*
%TO.N,HOST_3V3*%
X27265000Y-66705000D03*
%TO.N,HOST_5V*%
X24725000Y-66705000D03*
%TO.N,GND*%
X27265000Y-64165000D03*
X24725000Y-64165000D03*
%TO.N,POWER_KILL_N*%
X24725000Y-61625000D03*
%TO.N,CO_UART_EN*%
X27265000Y-59085000D03*
%TO.N,CO_UART_RX*%
X24725000Y-59085000D03*
%TO.N,USB_ILIM_AUTH*%
X27265000Y-56545000D03*
%TO.N,CO_UART_TX*%
X24725000Y-56545000D03*
%TO.N,CHG_INT_N*%
X27265000Y-54005000D03*
%TO.N,I2C_SCL*%
X24725000Y-54005000D03*
%TO.N,unconnected-(J301-Pin_15-Pad15)*%
X27265000Y-51465000D03*
%TO.N,GND*%
X24725000Y-51465000D03*
%TO.N,HE_ENABLE*%
X27265000Y-48925000D03*
%TO.N,HOST_3V3*%
X24725000Y-48925000D03*
%TO.N,POWER_INT_N*%
X27265000Y-46385000D03*
%TO.N,unconnected-(J301-Pin_20-Pad20)*%
X24725000Y-46385000D03*
%TO.N,I2C_SDA*%
X27265000Y-43845000D03*
%TO.N,unconnected-(J301-Pin_22-Pad22)*%
X24725000Y-43845000D03*
%TO.N,unconnected-(J301-Pin_23-Pad23)*%
X27265000Y-41305000D03*
%TO.N,unconnected-(J301-Pin_24-Pad24)*%
X24725000Y-41305000D03*
%TO.N,unconnected-(J301-Pin_25-Pad25)*%
X27265000Y-38765000D03*
%TO.N,unconnected-(J301-Pin_26-Pad26)*%
X24725000Y-38765000D03*
%TD*%
D18*
%TO.N,GND*%
%TO.C,U201*%
X12500000Y-60000000D03*
X12500000Y-60500000D03*
X12500000Y-61000000D03*
X12500000Y-61500000D03*
X12500000Y-62000000D03*
X13000000Y-60000000D03*
X13000000Y-60500000D03*
X13000000Y-61000000D03*
X13000000Y-61500000D03*
X13000000Y-62000000D03*
X13500000Y-60000000D03*
X13500000Y-60500000D03*
X13500000Y-61000000D03*
X13500000Y-61500000D03*
X13500000Y-62000000D03*
%TD*%
D19*
%TO.N,GND*%
%TO.C,U101*%
X11900000Y-82900000D03*
X11900000Y-84000000D03*
X11900000Y-85100000D03*
X13000000Y-82900000D03*
X13000000Y-84000000D03*
X13000000Y-85100000D03*
X14100000Y-82900000D03*
X14100000Y-84000000D03*
X14100000Y-85100000D03*
%TD*%
D20*
%TO.N,USB_5V*%
%TO.C,J101*%
X10250000Y-97000000D03*
D21*
%TO.N,GND*%
X12050000Y-97000000D03*
%TO.N,USB_CC1*%
X13850000Y-97000000D03*
%TO.N,USB_CC2*%
X15650000Y-97000000D03*
%TO.N,USB_D_P*%
X17450000Y-97000000D03*
%TO.N,USB_D_M*%
X19250000Y-97000000D03*
%TD*%
D12*
%TO.N,O2_A_RAW_P*%
%TO.C,J401*%
X4900000Y-24460000D03*
D13*
%TO.N,O2_A_RAW_N*%
X4900000Y-27000000D03*
%TO.N,unconnected-(J401-Pin_3-Pad3)*%
X4900000Y-29540000D03*
%TD*%
D22*
%TO.N,GND*%
X20450000Y-54250000D03*
X24300000Y-82000000D03*
X17275000Y-38400000D03*
X9275000Y-45300000D03*
X9275000Y-49100000D03*
X5750000Y-82425000D03*
X8575000Y-95750000D03*
X19062500Y-85950000D03*
X16612500Y-45400000D03*
X9200000Y-32225000D03*
X8375000Y-68900000D03*
X19062500Y-78700000D03*
X16649999Y-32250000D03*
X4025000Y-54200000D03*
X3700000Y-87750000D03*
X8000000Y-71775000D03*
X16325000Y-37400000D03*
X11075000Y-55950000D03*
X19925000Y-72250000D03*
X28300000Y-71725000D03*
X8100000Y-80775000D03*
X6900000Y-92450000D03*
X20450000Y-59600000D03*
X1000000Y-56050000D03*
X8375000Y-62350000D03*
X10500000Y-88425000D03*
X8375000Y-65500000D03*
X13025000Y-39400000D03*
X28500000Y-79425000D03*
X20450000Y-43350000D03*
X4000000Y-45587500D03*
X20462500Y-57800000D03*
X12775000Y-46900000D03*
X22000000Y-62425000D03*
X7750000Y-85525000D03*
X13200000Y-68250000D03*
X20500000Y-66800000D03*
X15212500Y-81250000D03*
X4950000Y-59250000D03*
X15775000Y-58500000D03*
X7675000Y-31300000D03*
X27200000Y-96175000D03*
X23812500Y-96700000D03*
X15925000Y-28500000D03*
X17512500Y-68300000D03*
X22000000Y-42925000D03*
X19825000Y-75250000D03*
X22000000Y-77125000D03*
X14375000Y-34850000D03*
X3950000Y-82750000D03*
X27500000Y-72175000D03*
X18275000Y-64000000D03*
X10425000Y-90500000D03*
X6525000Y-57000000D03*
X15100000Y-47775000D03*
X18950000Y-68250000D03*
X15212500Y-82000000D03*
X20750000Y-91925000D03*
X3175000Y-90750000D03*
X10462500Y-56475000D03*
X4775000Y-49700000D03*
X22612500Y-85800000D03*
X28000000Y-84225000D03*
X16700000Y-59025000D03*
%TO.N,VOUT_5V*%
X6675000Y-60250000D03*
X6675000Y-59550000D03*
X10800000Y-61250000D03*
%TD*%
%TA.AperFunction,Conductor*%
%TO.N,GND*%
G36*
X8358691Y-519407D02*
G01*
X8394655Y-568907D01*
X8399500Y-599500D01*
X8399500Y-13023426D01*
X8380593Y-13081617D01*
X8331093Y-13117581D01*
X8269907Y-13117581D01*
X8220408Y-13081617D01*
X8187910Y-13036888D01*
X8013112Y-12862090D01*
X7813121Y-12716788D01*
X7813120Y-12716787D01*
X7813118Y-12716786D01*
X7592863Y-12604561D01*
X7357755Y-12528169D01*
X7113604Y-12489500D01*
X7113601Y-12489500D01*
X6866399Y-12489500D01*
X6866396Y-12489500D01*
X6622244Y-12528169D01*
X6387136Y-12604561D01*
X6166881Y-12716786D01*
X5966889Y-12862089D01*
X5792089Y-13036889D01*
X5646786Y-13236881D01*
X5534561Y-13457136D01*
X5458169Y-13692244D01*
X5419500Y-13936395D01*
X5419500Y-14183604D01*
X5458169Y-14427755D01*
X5458171Y-14427760D01*
X5534561Y-14662863D01*
X5646788Y-14883121D01*
X5792090Y-15083112D01*
X5966888Y-15257910D01*
X6166879Y-15403212D01*
X6387137Y-15515439D01*
X6622240Y-15591829D01*
X6622241Y-15591829D01*
X6622244Y-15591830D01*
X6866396Y-15630500D01*
X6866399Y-15630500D01*
X7113604Y-15630500D01*
X7357755Y-15591830D01*
X7357756Y-15591829D01*
X7357760Y-15591829D01*
X7592863Y-15515439D01*
X7813121Y-15403212D01*
X8013112Y-15257910D01*
X8187910Y-15083112D01*
X8220408Y-15038382D01*
X8269906Y-15002419D01*
X8331092Y-15002418D01*
X8380592Y-15038382D01*
X8399500Y-15096572D01*
X8399500Y-16934108D01*
X8399500Y-17065892D01*
X8410485Y-17106889D01*
X8433609Y-17193190D01*
X8499496Y-17307309D01*
X8499498Y-17307311D01*
X8499500Y-17307314D01*
X8592686Y-17400500D01*
X8592688Y-17400501D01*
X8592690Y-17400503D01*
X8706810Y-17466390D01*
X8706808Y-17466390D01*
X8706812Y-17466391D01*
X8706814Y-17466392D01*
X8834108Y-17500500D01*
X29400500Y-17500500D01*
X29458691Y-17519407D01*
X29494655Y-17568907D01*
X29499500Y-17599500D01*
X29499500Y-98400500D01*
X29480593Y-98458691D01*
X29431093Y-98494655D01*
X29400500Y-98499500D01*
X6399500Y-98499500D01*
X6341309Y-98480593D01*
X6305345Y-98431093D01*
X6300500Y-98400500D01*
X6300500Y-96330253D01*
X9399500Y-96330253D01*
X9399500Y-97669746D01*
X9399501Y-97669758D01*
X9411132Y-97728227D01*
X9411133Y-97728231D01*
X9455448Y-97794552D01*
X9521769Y-97838867D01*
X9566231Y-97847711D01*
X9580241Y-97850498D01*
X9580246Y-97850498D01*
X9580252Y-97850500D01*
X9580253Y-97850500D01*
X10919747Y-97850500D01*
X10919748Y-97850500D01*
X10978231Y-97838867D01*
X11044552Y-97794552D01*
X11088867Y-97728231D01*
X11100500Y-97669748D01*
X11100500Y-96916230D01*
X12999500Y-96916230D01*
X12999500Y-97083769D01*
X13032183Y-97248079D01*
X13032185Y-97248085D01*
X13096296Y-97402862D01*
X13096297Y-97402863D01*
X13189374Y-97542162D01*
X13307838Y-97660626D01*
X13447137Y-97753703D01*
X13601918Y-97817816D01*
X13766233Y-97850500D01*
X13766234Y-97850500D01*
X13933766Y-97850500D01*
X13933767Y-97850500D01*
X14098082Y-97817816D01*
X14252863Y-97753703D01*
X14392162Y-97660626D01*
X14510626Y-97542162D01*
X14603703Y-97402863D01*
X14658536Y-97270484D01*
X14698273Y-97223960D01*
X14757768Y-97209676D01*
X14814295Y-97233091D01*
X14841464Y-97270485D01*
X14896296Y-97402862D01*
X14896297Y-97402863D01*
X14989374Y-97542162D01*
X15107838Y-97660626D01*
X15247137Y-97753703D01*
X15401918Y-97817816D01*
X15566233Y-97850500D01*
X15566234Y-97850500D01*
X15733766Y-97850500D01*
X15733767Y-97850500D01*
X15898082Y-97817816D01*
X16052863Y-97753703D01*
X16192162Y-97660626D01*
X16310626Y-97542162D01*
X16403703Y-97402863D01*
X16458536Y-97270484D01*
X16498273Y-97223960D01*
X16557768Y-97209676D01*
X16614295Y-97233091D01*
X16641464Y-97270485D01*
X16696296Y-97402862D01*
X16696297Y-97402863D01*
X16789374Y-97542162D01*
X16907838Y-97660626D01*
X17047137Y-97753703D01*
X17201918Y-97817816D01*
X17366233Y-97850500D01*
X17366234Y-97850500D01*
X17533766Y-97850500D01*
X17533767Y-97850500D01*
X17698082Y-97817816D01*
X17852863Y-97753703D01*
X17992162Y-97660626D01*
X18110626Y-97542162D01*
X18203703Y-97402863D01*
X18258536Y-97270484D01*
X18298273Y-97223960D01*
X18357768Y-97209676D01*
X18414295Y-97233091D01*
X18441464Y-97270485D01*
X18496296Y-97402862D01*
X18496297Y-97402863D01*
X18589374Y-97542162D01*
X18707838Y-97660626D01*
X18847137Y-97753703D01*
X19001918Y-97817816D01*
X19166233Y-97850500D01*
X19166234Y-97850500D01*
X19333766Y-97850500D01*
X19333767Y-97850500D01*
X19498082Y-97817816D01*
X19652863Y-97753703D01*
X19792162Y-97660626D01*
X19910626Y-97542162D01*
X20003703Y-97402863D01*
X20067816Y-97248082D01*
X20100500Y-97083767D01*
X20100500Y-96916233D01*
X20067816Y-96751918D01*
X20003703Y-96597137D01*
X19910626Y-96457838D01*
X19792162Y-96339374D01*
X19652863Y-96246297D01*
X19652864Y-96246297D01*
X19652862Y-96246296D01*
X19498085Y-96182185D01*
X19498079Y-96182183D01*
X19333769Y-96149500D01*
X19333767Y-96149500D01*
X19166233Y-96149500D01*
X19166230Y-96149500D01*
X19001920Y-96182183D01*
X19001914Y-96182185D01*
X18847137Y-96246296D01*
X18707838Y-96339374D01*
X18707834Y-96339377D01*
X18589377Y-96457834D01*
X18589374Y-96457838D01*
X18496296Y-96597137D01*
X18441464Y-96729514D01*
X18401727Y-96776040D01*
X18342232Y-96790323D01*
X18285704Y-96766908D01*
X18258536Y-96729514D01*
X18203703Y-96597137D01*
X18110626Y-96457838D01*
X17992162Y-96339374D01*
X17852863Y-96246297D01*
X17852864Y-96246297D01*
X17852862Y-96246296D01*
X17698085Y-96182185D01*
X17698079Y-96182183D01*
X17533769Y-96149500D01*
X17533767Y-96149500D01*
X17366233Y-96149500D01*
X17366230Y-96149500D01*
X17201920Y-96182183D01*
X17201914Y-96182185D01*
X17047137Y-96246296D01*
X16907838Y-96339374D01*
X16907834Y-96339377D01*
X16789377Y-96457834D01*
X16789374Y-96457838D01*
X16696296Y-96597137D01*
X16641464Y-96729514D01*
X16601727Y-96776040D01*
X16542232Y-96790323D01*
X16485704Y-96766908D01*
X16458536Y-96729514D01*
X16403703Y-96597137D01*
X16310626Y-96457838D01*
X16192162Y-96339374D01*
X16052863Y-96246297D01*
X16052864Y-96246297D01*
X16052862Y-96246296D01*
X15898085Y-96182185D01*
X15898079Y-96182183D01*
X15733769Y-96149500D01*
X15733767Y-96149500D01*
X15566233Y-96149500D01*
X15566230Y-96149500D01*
X15401920Y-96182183D01*
X15401914Y-96182185D01*
X15247137Y-96246296D01*
X15107838Y-96339374D01*
X15107834Y-96339377D01*
X14989377Y-96457834D01*
X14989374Y-96457838D01*
X14896296Y-96597137D01*
X14841464Y-96729514D01*
X14801727Y-96776040D01*
X14742232Y-96790323D01*
X14685704Y-96766908D01*
X14658536Y-96729514D01*
X14603703Y-96597137D01*
X14510626Y-96457838D01*
X14392162Y-96339374D01*
X14252863Y-96246297D01*
X14252864Y-96246297D01*
X14252862Y-96246296D01*
X14098085Y-96182185D01*
X14098079Y-96182183D01*
X13933769Y-96149500D01*
X13933767Y-96149500D01*
X13766233Y-96149500D01*
X13766230Y-96149500D01*
X13601920Y-96182183D01*
X13601914Y-96182185D01*
X13447137Y-96246296D01*
X13307838Y-96339374D01*
X13307834Y-96339377D01*
X13189377Y-96457834D01*
X13189374Y-96457838D01*
X13096296Y-96597137D01*
X13032185Y-96751914D01*
X13032183Y-96751920D01*
X12999500Y-96916230D01*
X11100500Y-96916230D01*
X11100500Y-96330252D01*
X11088867Y-96271769D01*
X11044552Y-96205448D01*
X11044548Y-96205445D01*
X10978233Y-96161134D01*
X10978231Y-96161133D01*
X10978228Y-96161132D01*
X10978227Y-96161132D01*
X10919758Y-96149501D01*
X10919748Y-96149500D01*
X9580252Y-96149500D01*
X9580251Y-96149500D01*
X9580241Y-96149501D01*
X9521772Y-96161132D01*
X9521766Y-96161134D01*
X9455451Y-96205445D01*
X9455445Y-96205451D01*
X9411134Y-96271766D01*
X9411132Y-96271772D01*
X9399501Y-96330241D01*
X9399500Y-96330253D01*
X6300500Y-96330253D01*
X6300500Y-94734109D01*
X6300500Y-94734108D01*
X6266392Y-94606814D01*
X6266390Y-94606811D01*
X6266390Y-94606809D01*
X6200503Y-94492690D01*
X6200501Y-94492688D01*
X6200500Y-94492686D01*
X6107314Y-94399500D01*
X6107311Y-94399498D01*
X6107309Y-94399496D01*
X5993189Y-94333609D01*
X5993191Y-94333609D01*
X5940392Y-94319462D01*
X5865892Y-94299500D01*
X5865890Y-94299500D01*
X599500Y-94299500D01*
X541309Y-94280593D01*
X505345Y-94231093D01*
X500500Y-94200500D01*
X500500Y-92270725D01*
X13774500Y-92270725D01*
X13774500Y-93729274D01*
X13777353Y-93759694D01*
X13777355Y-93759703D01*
X13822207Y-93887883D01*
X13902845Y-93997144D01*
X13902847Y-93997146D01*
X13902850Y-93997150D01*
X13902853Y-93997152D01*
X13902855Y-93997154D01*
X14012116Y-94077792D01*
X14012117Y-94077792D01*
X14012118Y-94077793D01*
X14140301Y-94122646D01*
X14170725Y-94125499D01*
X14170727Y-94125500D01*
X14170734Y-94125500D01*
X15629273Y-94125500D01*
X15629273Y-94125499D01*
X15659699Y-94122646D01*
X15787882Y-94077793D01*
X15897150Y-93997150D01*
X15977793Y-93887882D01*
X16022646Y-93759699D01*
X16025499Y-93729273D01*
X16025500Y-93729273D01*
X16025500Y-92270727D01*
X16025499Y-92270725D01*
X16022646Y-92240305D01*
X16022646Y-92240301D01*
X15977793Y-92112118D01*
X15977792Y-92112116D01*
X15937239Y-92057168D01*
X15897154Y-92002855D01*
X15897152Y-92002853D01*
X15897150Y-92002850D01*
X15897146Y-92002847D01*
X15897144Y-92002845D01*
X15893288Y-91999999D01*
X23198714Y-91999999D01*
X23198714Y-92000000D01*
X23203854Y-92157044D01*
X23203855Y-92157061D01*
X23219257Y-92313433D01*
X23244853Y-92468465D01*
X23244855Y-92468474D01*
X23280536Y-92621499D01*
X23326144Y-92771849D01*
X23326147Y-92771859D01*
X23326150Y-92771867D01*
X23381501Y-92918932D01*
X23446352Y-93062061D01*
X23446357Y-93062072D01*
X23520421Y-93200636D01*
X23603398Y-93334074D01*
X23603411Y-93334094D01*
X23694930Y-93461809D01*
X23694931Y-93461810D01*
X23794617Y-93583277D01*
X23902034Y-93697965D01*
X24016722Y-93805382D01*
X24138189Y-93905068D01*
X24265917Y-93996596D01*
X24396491Y-94077792D01*
X24399362Y-94079577D01*
X24537926Y-94153641D01*
X24537931Y-94153643D01*
X24537938Y-94153647D01*
X24681067Y-94218498D01*
X24828132Y-94273849D01*
X24978501Y-94319463D01*
X25131532Y-94355145D01*
X25286569Y-94380742D01*
X25424019Y-94394279D01*
X25442937Y-94396143D01*
X25442939Y-94396143D01*
X25442948Y-94396144D01*
X25577564Y-94400550D01*
X25599999Y-94401285D01*
X25599999Y-94401284D01*
X25600000Y-94401285D01*
X25757051Y-94396144D01*
X25913430Y-94380742D01*
X26068467Y-94355145D01*
X26221498Y-94319463D01*
X26371867Y-94273849D01*
X26518932Y-94218498D01*
X26662061Y-94153647D01*
X26800642Y-94079574D01*
X26934082Y-93996596D01*
X27061810Y-93905068D01*
X27183277Y-93805382D01*
X27297965Y-93697965D01*
X27405382Y-93583277D01*
X27505068Y-93461810D01*
X27596596Y-93334082D01*
X27679574Y-93200642D01*
X27753647Y-93062061D01*
X27818498Y-92918932D01*
X27873849Y-92771867D01*
X27919463Y-92621498D01*
X27955145Y-92468467D01*
X27980742Y-92313430D01*
X27996144Y-92157051D01*
X28001285Y-92000000D01*
X27996144Y-91842948D01*
X27980742Y-91686569D01*
X27955145Y-91531532D01*
X27919463Y-91378501D01*
X27873849Y-91228132D01*
X27818498Y-91081067D01*
X27753647Y-90937938D01*
X27679574Y-90799357D01*
X27596596Y-90665917D01*
X27505068Y-90538189D01*
X27405382Y-90416722D01*
X27297965Y-90302034D01*
X27183277Y-90194617D01*
X27061810Y-90094931D01*
X27061809Y-90094930D01*
X26934094Y-90003411D01*
X26934074Y-90003398D01*
X26800636Y-89920421D01*
X26662072Y-89846357D01*
X26662061Y-89846352D01*
X26518932Y-89781501D01*
X26518925Y-89781498D01*
X26518922Y-89781497D01*
X26472076Y-89763866D01*
X26371867Y-89726150D01*
X26371859Y-89726147D01*
X26371849Y-89726144D01*
X26221499Y-89680536D01*
X26068474Y-89644855D01*
X26068465Y-89644853D01*
X25913433Y-89619257D01*
X25757061Y-89603855D01*
X25757044Y-89603854D01*
X25600000Y-89598714D01*
X25442954Y-89603854D01*
X25442937Y-89603855D01*
X25286565Y-89619257D01*
X25131533Y-89644853D01*
X25131524Y-89644855D01*
X24978499Y-89680536D01*
X24828149Y-89726144D01*
X24828135Y-89726149D01*
X24681076Y-89781497D01*
X24537926Y-89846357D01*
X24399362Y-89920421D01*
X24265924Y-90003398D01*
X24265904Y-90003411D01*
X24138189Y-90094930D01*
X24059207Y-90159750D01*
X24016722Y-90194617D01*
X23902034Y-90302034D01*
X23794617Y-90416722D01*
X23759750Y-90459207D01*
X23694930Y-90538189D01*
X23603411Y-90665904D01*
X23603398Y-90665924D01*
X23520421Y-90799362D01*
X23446357Y-90937926D01*
X23381497Y-91081076D01*
X23326149Y-91228135D01*
X23326144Y-91228149D01*
X23280536Y-91378499D01*
X23244855Y-91531524D01*
X23244853Y-91531533D01*
X23219257Y-91686565D01*
X23203855Y-91842937D01*
X23203854Y-91842954D01*
X23198714Y-91999999D01*
X15893288Y-91999999D01*
X15787883Y-91922207D01*
X15659703Y-91877355D01*
X15659694Y-91877353D01*
X15629274Y-91874500D01*
X15629266Y-91874500D01*
X14170734Y-91874500D01*
X14170725Y-91874500D01*
X14140305Y-91877353D01*
X14140296Y-91877355D01*
X14012116Y-91922207D01*
X13902855Y-92002845D01*
X13902845Y-92002855D01*
X13822207Y-92112116D01*
X13777355Y-92240296D01*
X13777353Y-92240305D01*
X13774500Y-92270725D01*
X500500Y-92270725D01*
X500500Y-76855253D01*
X2949500Y-76855253D01*
X2949500Y-78594746D01*
X2949501Y-78594758D01*
X2961132Y-78653227D01*
X2961133Y-78653231D01*
X3005448Y-78719552D01*
X3071769Y-78763867D01*
X3116231Y-78772711D01*
X3130241Y-78775498D01*
X3130246Y-78775498D01*
X3130252Y-78775500D01*
X3130253Y-78775500D01*
X4869747Y-78775500D01*
X4869748Y-78775500D01*
X4928231Y-78763867D01*
X4994552Y-78719552D01*
X5038867Y-78653231D01*
X5050500Y-78594748D01*
X5050500Y-76855252D01*
X5038867Y-76796769D01*
X4994552Y-76730448D01*
X4994548Y-76730445D01*
X4928233Y-76686134D01*
X4928231Y-76686133D01*
X4928228Y-76686132D01*
X4928227Y-76686132D01*
X4869758Y-76674501D01*
X4869748Y-76674500D01*
X3130252Y-76674500D01*
X3130251Y-76674500D01*
X3130241Y-76674501D01*
X3071772Y-76686132D01*
X3071766Y-76686134D01*
X3005451Y-76730445D01*
X3005445Y-76730451D01*
X2961134Y-76796766D01*
X2961132Y-76796772D01*
X2949501Y-76855241D01*
X2949500Y-76855253D01*
X500500Y-76855253D01*
X500500Y-72161532D01*
X2949500Y-72161532D01*
X2949500Y-72368467D01*
X2989869Y-72571418D01*
X3069058Y-72762597D01*
X3069059Y-72762598D01*
X3184023Y-72934655D01*
X3330345Y-73080977D01*
X3502402Y-73195941D01*
X3693580Y-73275130D01*
X3896535Y-73315500D01*
X3896536Y-73315500D01*
X4103464Y-73315500D01*
X4103465Y-73315500D01*
X4306420Y-73275130D01*
X4497598Y-73195941D01*
X4669655Y-73080977D01*
X4815977Y-72934655D01*
X4930941Y-72762598D01*
X5010130Y-72571420D01*
X5050500Y-72368465D01*
X5050500Y-72161535D01*
X5010130Y-71958580D01*
X4930941Y-71767402D01*
X4815977Y-71595345D01*
X4669655Y-71449023D01*
X4497598Y-71334059D01*
X4497599Y-71334059D01*
X4497597Y-71334058D01*
X4306418Y-71254869D01*
X4103467Y-71214500D01*
X4103465Y-71214500D01*
X3896535Y-71214500D01*
X3896532Y-71214500D01*
X3693581Y-71254869D01*
X3502402Y-71334058D01*
X3330348Y-71449020D01*
X3184020Y-71595348D01*
X3069058Y-71767402D01*
X2989869Y-71958581D01*
X2949500Y-72161532D01*
X500500Y-72161532D01*
X500500Y-68855253D01*
X2949500Y-68855253D01*
X2949500Y-70594746D01*
X2949501Y-70594758D01*
X2961132Y-70653227D01*
X2961133Y-70653231D01*
X3005448Y-70719552D01*
X3071769Y-70763867D01*
X3116231Y-70772711D01*
X3130241Y-70775498D01*
X3130246Y-70775498D01*
X3130252Y-70775500D01*
X3130253Y-70775500D01*
X4869747Y-70775500D01*
X4869748Y-70775500D01*
X4928231Y-70763867D01*
X4994552Y-70719552D01*
X5038867Y-70653231D01*
X5050500Y-70594748D01*
X5050500Y-69141532D01*
X23674500Y-69141532D01*
X23674500Y-69348467D01*
X23714869Y-69551418D01*
X23794058Y-69742597D01*
X23794059Y-69742598D01*
X23909023Y-69914655D01*
X24055345Y-70060977D01*
X24227402Y-70175941D01*
X24418580Y-70255130D01*
X24621535Y-70295500D01*
X24621536Y-70295500D01*
X24828464Y-70295500D01*
X24828465Y-70295500D01*
X25031420Y-70255130D01*
X25222598Y-70175941D01*
X25394655Y-70060977D01*
X25540977Y-69914655D01*
X25655941Y-69742598D01*
X25735130Y-69551420D01*
X25775500Y-69348465D01*
X25775500Y-69141535D01*
X25735130Y-68938580D01*
X25655941Y-68747402D01*
X25540977Y-68575345D01*
X25394655Y-68429023D01*
X25314182Y-68375253D01*
X26214500Y-68375253D01*
X26214500Y-70114746D01*
X26214501Y-70114758D01*
X26226132Y-70173227D01*
X26226134Y-70173233D01*
X26270445Y-70239548D01*
X26270448Y-70239552D01*
X26336769Y-70283867D01*
X26381231Y-70292711D01*
X26395241Y-70295498D01*
X26395246Y-70295498D01*
X26395252Y-70295500D01*
X26395253Y-70295500D01*
X28134747Y-70295500D01*
X28134748Y-70295500D01*
X28193231Y-70283867D01*
X28259552Y-70239552D01*
X28303867Y-70173231D01*
X28315500Y-70114748D01*
X28315500Y-68375252D01*
X28303867Y-68316769D01*
X28259552Y-68250448D01*
X28259548Y-68250445D01*
X28193233Y-68206134D01*
X28193231Y-68206133D01*
X28193228Y-68206132D01*
X28193227Y-68206132D01*
X28134758Y-68194501D01*
X28134748Y-68194500D01*
X26395252Y-68194500D01*
X26395251Y-68194500D01*
X26395241Y-68194501D01*
X26336772Y-68206132D01*
X26336766Y-68206134D01*
X26270451Y-68250445D01*
X26270445Y-68250451D01*
X26226134Y-68316766D01*
X26226132Y-68316772D01*
X26214501Y-68375241D01*
X26214500Y-68375253D01*
X25314182Y-68375253D01*
X25222597Y-68314058D01*
X25031418Y-68234869D01*
X24828467Y-68194500D01*
X24828465Y-68194500D01*
X24621535Y-68194500D01*
X24621532Y-68194500D01*
X24418581Y-68234869D01*
X24227402Y-68314058D01*
X24055348Y-68429020D01*
X23909020Y-68575348D01*
X23794058Y-68747402D01*
X23714869Y-68938581D01*
X23674500Y-69141532D01*
X5050500Y-69141532D01*
X5050500Y-68855252D01*
X5038867Y-68796769D01*
X4994552Y-68730448D01*
X4994548Y-68730445D01*
X4928233Y-68686134D01*
X4928231Y-68686133D01*
X4928228Y-68686132D01*
X4928227Y-68686132D01*
X4869758Y-68674501D01*
X4869748Y-68674500D01*
X3130252Y-68674500D01*
X3130251Y-68674500D01*
X3130241Y-68674501D01*
X3071772Y-68686132D01*
X3071766Y-68686134D01*
X3005451Y-68730445D01*
X3005445Y-68730451D01*
X2961134Y-68796766D01*
X2961132Y-68796772D01*
X2949501Y-68855241D01*
X2949500Y-68855253D01*
X500500Y-68855253D01*
X500500Y-66601532D01*
X23674500Y-66601532D01*
X23674500Y-66808467D01*
X23714869Y-67011418D01*
X23794058Y-67202597D01*
X23794059Y-67202598D01*
X23909023Y-67374655D01*
X24055345Y-67520977D01*
X24227402Y-67635941D01*
X24418580Y-67715130D01*
X24621535Y-67755500D01*
X24621536Y-67755500D01*
X24828464Y-67755500D01*
X24828465Y-67755500D01*
X25031420Y-67715130D01*
X25222598Y-67635941D01*
X25394655Y-67520977D01*
X25540977Y-67374655D01*
X25655941Y-67202598D01*
X25735130Y-67011420D01*
X25775500Y-66808465D01*
X25775500Y-66601535D01*
X25775499Y-66601532D01*
X26214500Y-66601532D01*
X26214500Y-66808467D01*
X26254869Y-67011418D01*
X26334058Y-67202597D01*
X26334059Y-67202598D01*
X26449023Y-67374655D01*
X26595345Y-67520977D01*
X26767402Y-67635941D01*
X26958580Y-67715130D01*
X27161535Y-67755500D01*
X27161536Y-67755500D01*
X27368464Y-67755500D01*
X27368465Y-67755500D01*
X27571420Y-67715130D01*
X27762598Y-67635941D01*
X27934655Y-67520977D01*
X28080977Y-67374655D01*
X28195941Y-67202598D01*
X28275130Y-67011420D01*
X28315500Y-66808465D01*
X28315500Y-66601535D01*
X28275130Y-66398580D01*
X28195941Y-66207402D01*
X28080977Y-66035345D01*
X27934655Y-65889023D01*
X27762598Y-65774059D01*
X27762599Y-65774059D01*
X27762597Y-65774058D01*
X27571418Y-65694869D01*
X27368467Y-65654500D01*
X27368465Y-65654500D01*
X27161535Y-65654500D01*
X27161532Y-65654500D01*
X26958581Y-65694869D01*
X26767402Y-65774058D01*
X26595348Y-65889020D01*
X26449020Y-66035348D01*
X26334058Y-66207402D01*
X26254869Y-66398581D01*
X26214500Y-66601532D01*
X25775499Y-66601532D01*
X25735130Y-66398580D01*
X25655941Y-66207402D01*
X25540977Y-66035345D01*
X25394655Y-65889023D01*
X25222598Y-65774059D01*
X25222599Y-65774059D01*
X25222597Y-65774058D01*
X25031418Y-65694869D01*
X24828467Y-65654500D01*
X24828465Y-65654500D01*
X24621535Y-65654500D01*
X24621532Y-65654500D01*
X24418581Y-65694869D01*
X24227402Y-65774058D01*
X24055348Y-65889020D01*
X23909020Y-66035348D01*
X23794058Y-66207402D01*
X23714869Y-66398581D01*
X23674500Y-66601532D01*
X500500Y-66601532D01*
X500500Y-61184108D01*
X10299500Y-61184108D01*
X10299500Y-61315892D01*
X10300221Y-61318581D01*
X10333609Y-61443190D01*
X10399496Y-61557309D01*
X10399498Y-61557311D01*
X10399500Y-61557314D01*
X10492686Y-61650500D01*
X10492688Y-61650501D01*
X10492690Y-61650503D01*
X10606810Y-61716390D01*
X10606808Y-61716390D01*
X10606812Y-61716391D01*
X10606814Y-61716392D01*
X10734108Y-61750500D01*
X10734110Y-61750500D01*
X10865890Y-61750500D01*
X10865892Y-61750500D01*
X10993186Y-61716392D01*
X10993188Y-61716390D01*
X10993190Y-61716390D01*
X11107309Y-61650503D01*
X11107309Y-61650502D01*
X11107314Y-61650500D01*
X11200500Y-61557314D01*
X11200503Y-61557309D01*
X11221159Y-61521532D01*
X23674500Y-61521532D01*
X23674500Y-61728467D01*
X23714869Y-61931418D01*
X23794058Y-62122597D01*
X23794059Y-62122598D01*
X23909023Y-62294655D01*
X24055345Y-62440977D01*
X24227402Y-62555941D01*
X24418580Y-62635130D01*
X24621535Y-62675500D01*
X24621536Y-62675500D01*
X24828464Y-62675500D01*
X24828465Y-62675500D01*
X25031420Y-62635130D01*
X25222598Y-62555941D01*
X25394655Y-62440977D01*
X25540977Y-62294655D01*
X25655941Y-62122598D01*
X25735130Y-61931420D01*
X25775500Y-61728465D01*
X25775500Y-61521535D01*
X25735130Y-61318580D01*
X25655941Y-61127402D01*
X25540977Y-60955345D01*
X25394655Y-60809023D01*
X25356620Y-60783609D01*
X25222597Y-60694058D01*
X25031418Y-60614869D01*
X24828467Y-60574500D01*
X24828465Y-60574500D01*
X24621535Y-60574500D01*
X24621532Y-60574500D01*
X24418581Y-60614869D01*
X24227402Y-60694058D01*
X24055348Y-60809020D01*
X23909020Y-60955348D01*
X23794058Y-61127402D01*
X23714869Y-61318581D01*
X23674500Y-61521532D01*
X11221159Y-61521532D01*
X11252545Y-61467171D01*
X11266390Y-61443190D01*
X11266390Y-61443188D01*
X11266392Y-61443186D01*
X11300500Y-61315892D01*
X11300500Y-61184108D01*
X11266392Y-61056814D01*
X11266390Y-61056811D01*
X11266390Y-61056809D01*
X11200503Y-60942690D01*
X11200501Y-60942688D01*
X11200500Y-60942686D01*
X11107314Y-60849500D01*
X11107311Y-60849498D01*
X11107309Y-60849496D01*
X10993189Y-60783609D01*
X10993191Y-60783609D01*
X10943799Y-60770375D01*
X10865892Y-60749500D01*
X10734108Y-60749500D01*
X10656200Y-60770375D01*
X10606809Y-60783609D01*
X10492690Y-60849496D01*
X10399496Y-60942690D01*
X10333609Y-61056809D01*
X10333608Y-61056814D01*
X10299500Y-61184108D01*
X500500Y-61184108D01*
X500500Y-59484108D01*
X6174500Y-59484108D01*
X6174500Y-59615892D01*
X6204579Y-59728151D01*
X6208609Y-59743190D01*
X6270565Y-59850500D01*
X6283287Y-59910348D01*
X6270565Y-59949500D01*
X6208609Y-60056809D01*
X6208608Y-60056814D01*
X6174500Y-60184108D01*
X6174500Y-60315892D01*
X6204579Y-60428151D01*
X6208609Y-60443190D01*
X6274496Y-60557309D01*
X6274498Y-60557311D01*
X6274500Y-60557314D01*
X6367686Y-60650500D01*
X6367688Y-60650501D01*
X6367690Y-60650503D01*
X6481810Y-60716390D01*
X6481808Y-60716390D01*
X6481812Y-60716391D01*
X6481814Y-60716392D01*
X6609108Y-60750500D01*
X6609110Y-60750500D01*
X6740890Y-60750500D01*
X6740892Y-60750500D01*
X6868186Y-60716392D01*
X6868188Y-60716390D01*
X6868190Y-60716390D01*
X6982309Y-60650503D01*
X6982309Y-60650502D01*
X6982314Y-60650500D01*
X7075500Y-60557314D01*
X7141392Y-60443186D01*
X7175500Y-60315892D01*
X7175500Y-60184108D01*
X7141392Y-60056814D01*
X7079433Y-59949499D01*
X7066712Y-59889652D01*
X7079434Y-59850500D01*
X7141392Y-59743186D01*
X7175500Y-59615892D01*
X7175500Y-59484108D01*
X7141392Y-59356814D01*
X7141390Y-59356811D01*
X7141390Y-59356809D01*
X7075503Y-59242690D01*
X7075501Y-59242688D01*
X7075500Y-59242686D01*
X6982314Y-59149500D01*
X6982311Y-59149498D01*
X6982309Y-59149496D01*
X6868189Y-59083609D01*
X6868191Y-59083609D01*
X6852315Y-59079355D01*
X6740892Y-59049500D01*
X6609108Y-59049500D01*
X6531200Y-59070375D01*
X6481809Y-59083609D01*
X6367690Y-59149496D01*
X6274496Y-59242690D01*
X6208609Y-59356809D01*
X6208608Y-59356814D01*
X6174500Y-59484108D01*
X500500Y-59484108D01*
X500500Y-58981532D01*
X23674500Y-58981532D01*
X23674500Y-59188467D01*
X23714869Y-59391418D01*
X23794058Y-59582597D01*
X23901361Y-59743188D01*
X23909023Y-59754655D01*
X24055345Y-59900977D01*
X24227402Y-60015941D01*
X24418580Y-60095130D01*
X24621535Y-60135500D01*
X24621536Y-60135500D01*
X24828464Y-60135500D01*
X24828465Y-60135500D01*
X25031420Y-60095130D01*
X25222598Y-60015941D01*
X25394655Y-59900977D01*
X25540977Y-59754655D01*
X25655941Y-59582598D01*
X25735130Y-59391420D01*
X25775500Y-59188465D01*
X25775500Y-58981535D01*
X25775499Y-58981532D01*
X26214500Y-58981532D01*
X26214500Y-59188467D01*
X26254869Y-59391418D01*
X26334058Y-59582597D01*
X26441361Y-59743188D01*
X26449023Y-59754655D01*
X26595345Y-59900977D01*
X26767402Y-60015941D01*
X26958580Y-60095130D01*
X27161535Y-60135500D01*
X27161536Y-60135500D01*
X27368464Y-60135500D01*
X27368465Y-60135500D01*
X27571420Y-60095130D01*
X27762598Y-60015941D01*
X27934655Y-59900977D01*
X28080977Y-59754655D01*
X28195941Y-59582598D01*
X28275130Y-59391420D01*
X28315500Y-59188465D01*
X28315500Y-58981535D01*
X28275130Y-58778580D01*
X28195941Y-58587402D01*
X28080977Y-58415345D01*
X27934655Y-58269023D01*
X27762598Y-58154059D01*
X27762599Y-58154059D01*
X27762597Y-58154058D01*
X27571418Y-58074869D01*
X27368467Y-58034500D01*
X27368465Y-58034500D01*
X27161535Y-58034500D01*
X27161532Y-58034500D01*
X26958581Y-58074869D01*
X26767402Y-58154058D01*
X26595348Y-58269020D01*
X26449020Y-58415348D01*
X26334058Y-58587402D01*
X26254869Y-58778581D01*
X26214500Y-58981532D01*
X25775499Y-58981532D01*
X25735130Y-58778580D01*
X25655941Y-58587402D01*
X25540977Y-58415345D01*
X25394655Y-58269023D01*
X25222598Y-58154059D01*
X25222599Y-58154059D01*
X25222597Y-58154058D01*
X25031418Y-58074869D01*
X24828467Y-58034500D01*
X24828465Y-58034500D01*
X24621535Y-58034500D01*
X24621532Y-58034500D01*
X24418581Y-58074869D01*
X24227402Y-58154058D01*
X24055348Y-58269020D01*
X23909020Y-58415348D01*
X23794058Y-58587402D01*
X23714869Y-58778581D01*
X23674500Y-58981532D01*
X500500Y-58981532D01*
X500500Y-56441532D01*
X23674500Y-56441532D01*
X23674500Y-56648467D01*
X23714869Y-56851418D01*
X23794058Y-57042597D01*
X23794059Y-57042598D01*
X23909023Y-57214655D01*
X24055345Y-57360977D01*
X24227402Y-57475941D01*
X24418580Y-57555130D01*
X24621535Y-57595500D01*
X24621536Y-57595500D01*
X24828464Y-57595500D01*
X24828465Y-57595500D01*
X25031420Y-57555130D01*
X25222598Y-57475941D01*
X25394655Y-57360977D01*
X25540977Y-57214655D01*
X25655941Y-57042598D01*
X25735130Y-56851420D01*
X25775500Y-56648465D01*
X25775500Y-56441535D01*
X25775499Y-56441532D01*
X26214500Y-56441532D01*
X26214500Y-56648467D01*
X26254869Y-56851418D01*
X26334058Y-57042597D01*
X26334059Y-57042598D01*
X26449023Y-57214655D01*
X26595345Y-57360977D01*
X26767402Y-57475941D01*
X26958580Y-57555130D01*
X27161535Y-57595500D01*
X27161536Y-57595500D01*
X27368464Y-57595500D01*
X27368465Y-57595500D01*
X27571420Y-57555130D01*
X27762598Y-57475941D01*
X27934655Y-57360977D01*
X28080977Y-57214655D01*
X28195941Y-57042598D01*
X28275130Y-56851420D01*
X28315500Y-56648465D01*
X28315500Y-56441535D01*
X28275130Y-56238580D01*
X28195941Y-56047402D01*
X28080977Y-55875345D01*
X27934655Y-55729023D01*
X27762598Y-55614059D01*
X27762599Y-55614059D01*
X27762597Y-55614058D01*
X27571418Y-55534869D01*
X27368467Y-55494500D01*
X27368465Y-55494500D01*
X27161535Y-55494500D01*
X27161532Y-55494500D01*
X26958581Y-55534869D01*
X26767402Y-55614058D01*
X26595348Y-55729020D01*
X26449020Y-55875348D01*
X26334058Y-56047402D01*
X26254869Y-56238581D01*
X26214500Y-56441532D01*
X25775499Y-56441532D01*
X25735130Y-56238580D01*
X25655941Y-56047402D01*
X25540977Y-55875345D01*
X25394655Y-55729023D01*
X25222598Y-55614059D01*
X25222599Y-55614059D01*
X25222597Y-55614058D01*
X25031418Y-55534869D01*
X24828467Y-55494500D01*
X24828465Y-55494500D01*
X24621535Y-55494500D01*
X24621532Y-55494500D01*
X24418581Y-55534869D01*
X24227402Y-55614058D01*
X24055348Y-55729020D01*
X23909020Y-55875348D01*
X23794058Y-56047402D01*
X23714869Y-56238581D01*
X23674500Y-56441532D01*
X500500Y-56441532D01*
X500500Y-54430253D01*
X4674500Y-54430253D01*
X4674500Y-56169746D01*
X4674501Y-56169758D01*
X4686132Y-56228227D01*
X4686134Y-56228233D01*
X4730445Y-56294548D01*
X4730448Y-56294552D01*
X4796769Y-56338867D01*
X4841231Y-56347711D01*
X4855241Y-56350498D01*
X4855246Y-56350498D01*
X4855252Y-56350500D01*
X4855253Y-56350500D01*
X6594747Y-56350500D01*
X6594748Y-56350500D01*
X6653231Y-56338867D01*
X6719552Y-56294552D01*
X6763867Y-56228231D01*
X6775500Y-56169748D01*
X6775500Y-54430252D01*
X6763867Y-54371769D01*
X6719552Y-54305448D01*
X6719548Y-54305445D01*
X6653233Y-54261134D01*
X6653231Y-54261133D01*
X6653228Y-54261132D01*
X6653227Y-54261132D01*
X6594758Y-54249501D01*
X6594748Y-54249500D01*
X4855252Y-54249500D01*
X4855251Y-54249500D01*
X4855241Y-54249501D01*
X4796772Y-54261132D01*
X4796766Y-54261134D01*
X4730451Y-54305445D01*
X4730445Y-54305451D01*
X4686134Y-54371766D01*
X4686132Y-54371772D01*
X4674501Y-54430241D01*
X4674500Y-54430253D01*
X500500Y-54430253D01*
X500500Y-53901532D01*
X23674500Y-53901532D01*
X23674500Y-54108467D01*
X23714869Y-54311418D01*
X23794058Y-54502597D01*
X23794059Y-54502598D01*
X23909023Y-54674655D01*
X24055345Y-54820977D01*
X24227402Y-54935941D01*
X24418580Y-55015130D01*
X24621535Y-55055500D01*
X24621536Y-55055500D01*
X24828464Y-55055500D01*
X24828465Y-55055500D01*
X25031420Y-55015130D01*
X25222598Y-54935941D01*
X25394655Y-54820977D01*
X25540977Y-54674655D01*
X25655941Y-54502598D01*
X25735130Y-54311420D01*
X25775500Y-54108465D01*
X25775500Y-53901535D01*
X25775499Y-53901532D01*
X26214500Y-53901532D01*
X26214500Y-54108467D01*
X26254869Y-54311418D01*
X26334058Y-54502597D01*
X26334059Y-54502598D01*
X26449023Y-54674655D01*
X26595345Y-54820977D01*
X26767402Y-54935941D01*
X26958580Y-55015130D01*
X27161535Y-55055500D01*
X27161536Y-55055500D01*
X27368464Y-55055500D01*
X27368465Y-55055500D01*
X27571420Y-55015130D01*
X27762598Y-54935941D01*
X27934655Y-54820977D01*
X28080977Y-54674655D01*
X28195941Y-54502598D01*
X28275130Y-54311420D01*
X28315500Y-54108465D01*
X28315500Y-53901535D01*
X28275130Y-53698580D01*
X28195941Y-53507402D01*
X28080977Y-53335345D01*
X27934655Y-53189023D01*
X27762598Y-53074059D01*
X27762599Y-53074059D01*
X27762597Y-53074058D01*
X27571418Y-52994869D01*
X27368467Y-52954500D01*
X27368465Y-52954500D01*
X27161535Y-52954500D01*
X27161532Y-52954500D01*
X26958581Y-52994869D01*
X26767402Y-53074058D01*
X26595348Y-53189020D01*
X26449020Y-53335348D01*
X26334058Y-53507402D01*
X26254869Y-53698581D01*
X26214500Y-53901532D01*
X25775499Y-53901532D01*
X25735130Y-53698580D01*
X25655941Y-53507402D01*
X25540977Y-53335345D01*
X25394655Y-53189023D01*
X25222598Y-53074059D01*
X25222599Y-53074059D01*
X25222597Y-53074058D01*
X25031418Y-52994869D01*
X24828467Y-52954500D01*
X24828465Y-52954500D01*
X24621535Y-52954500D01*
X24621532Y-52954500D01*
X24418581Y-52994869D01*
X24227402Y-53074058D01*
X24055348Y-53189020D01*
X23909020Y-53335348D01*
X23794058Y-53507402D01*
X23714869Y-53698581D01*
X23674500Y-53901532D01*
X500500Y-53901532D01*
X500500Y-50630253D01*
X2674499Y-50630253D01*
X2674499Y-52369746D01*
X2674500Y-52369758D01*
X2686131Y-52428227D01*
X2686132Y-52428231D01*
X2730447Y-52494552D01*
X2796768Y-52538867D01*
X2841230Y-52547711D01*
X2855240Y-52550498D01*
X2855245Y-52550498D01*
X2855251Y-52550500D01*
X2855252Y-52550500D01*
X4594746Y-52550500D01*
X4594747Y-52550500D01*
X4653230Y-52538867D01*
X4719551Y-52494552D01*
X4763866Y-52428231D01*
X4775499Y-52369748D01*
X4775499Y-51361532D01*
X26214500Y-51361532D01*
X26214500Y-51568467D01*
X26254869Y-51771418D01*
X26334058Y-51962597D01*
X26334059Y-51962598D01*
X26449023Y-52134655D01*
X26595345Y-52280977D01*
X26767402Y-52395941D01*
X26958580Y-52475130D01*
X27161535Y-52515500D01*
X27161536Y-52515500D01*
X27368464Y-52515500D01*
X27368465Y-52515500D01*
X27571420Y-52475130D01*
X27762598Y-52395941D01*
X27934655Y-52280977D01*
X28080977Y-52134655D01*
X28195941Y-51962598D01*
X28275130Y-51771420D01*
X28315500Y-51568465D01*
X28315500Y-51361535D01*
X28275130Y-51158580D01*
X28195941Y-50967402D01*
X28080977Y-50795345D01*
X27934655Y-50649023D01*
X27906564Y-50630253D01*
X27762597Y-50534058D01*
X27571418Y-50454869D01*
X27368467Y-50414500D01*
X27368465Y-50414500D01*
X27161535Y-50414500D01*
X27161532Y-50414500D01*
X26958581Y-50454869D01*
X26767402Y-50534058D01*
X26595348Y-50649020D01*
X26449020Y-50795348D01*
X26334058Y-50967402D01*
X26254869Y-51158581D01*
X26214500Y-51361532D01*
X4775499Y-51361532D01*
X4775499Y-50630252D01*
X4763866Y-50571769D01*
X4719551Y-50505448D01*
X4719547Y-50505445D01*
X4653232Y-50461134D01*
X4653230Y-50461133D01*
X4653227Y-50461132D01*
X4653226Y-50461132D01*
X4594757Y-50449501D01*
X4594747Y-50449500D01*
X2855251Y-50449500D01*
X2855250Y-50449500D01*
X2855240Y-50449501D01*
X2796771Y-50461132D01*
X2796765Y-50461134D01*
X2730450Y-50505445D01*
X2730444Y-50505451D01*
X2686133Y-50571766D01*
X2686131Y-50571772D01*
X2674500Y-50630241D01*
X2674499Y-50630253D01*
X500500Y-50630253D01*
X500500Y-48821532D01*
X23674500Y-48821532D01*
X23674500Y-49028467D01*
X23714869Y-49231418D01*
X23794058Y-49422597D01*
X23794059Y-49422598D01*
X23909023Y-49594655D01*
X24055345Y-49740977D01*
X24227402Y-49855941D01*
X24418580Y-49935130D01*
X24621535Y-49975500D01*
X24621536Y-49975500D01*
X24828464Y-49975500D01*
X24828465Y-49975500D01*
X25031420Y-49935130D01*
X25222598Y-49855941D01*
X25394655Y-49740977D01*
X25540977Y-49594655D01*
X25655941Y-49422598D01*
X25735130Y-49231420D01*
X25775500Y-49028465D01*
X25775500Y-48821535D01*
X25775499Y-48821532D01*
X26214500Y-48821532D01*
X26214500Y-49028467D01*
X26254869Y-49231418D01*
X26334058Y-49422597D01*
X26334059Y-49422598D01*
X26449023Y-49594655D01*
X26595345Y-49740977D01*
X26767402Y-49855941D01*
X26958580Y-49935130D01*
X27161535Y-49975500D01*
X27161536Y-49975500D01*
X27368464Y-49975500D01*
X27368465Y-49975500D01*
X27571420Y-49935130D01*
X27762598Y-49855941D01*
X27934655Y-49740977D01*
X28080977Y-49594655D01*
X28195941Y-49422598D01*
X28275130Y-49231420D01*
X28315500Y-49028465D01*
X28315500Y-48821535D01*
X28275130Y-48618580D01*
X28195941Y-48427402D01*
X28080977Y-48255345D01*
X27934655Y-48109023D01*
X27762598Y-47994059D01*
X27762599Y-47994059D01*
X27762597Y-47994058D01*
X27571418Y-47914869D01*
X27368467Y-47874500D01*
X27368465Y-47874500D01*
X27161535Y-47874500D01*
X27161532Y-47874500D01*
X26958581Y-47914869D01*
X26767402Y-47994058D01*
X26595348Y-48109020D01*
X26449020Y-48255348D01*
X26334058Y-48427402D01*
X26254869Y-48618581D01*
X26214500Y-48821532D01*
X25775499Y-48821532D01*
X25735130Y-48618580D01*
X25655941Y-48427402D01*
X25540977Y-48255345D01*
X25394655Y-48109023D01*
X25222598Y-47994059D01*
X25222599Y-47994059D01*
X25222597Y-47994058D01*
X25031418Y-47914869D01*
X24828467Y-47874500D01*
X24828465Y-47874500D01*
X24621535Y-47874500D01*
X24621532Y-47874500D01*
X24418581Y-47914869D01*
X24227402Y-47994058D01*
X24055348Y-48109020D01*
X23909020Y-48255348D01*
X23794058Y-48427402D01*
X23714869Y-48618581D01*
X23674500Y-48821532D01*
X500500Y-48821532D01*
X500500Y-46281532D01*
X23674500Y-46281532D01*
X23674500Y-46488467D01*
X23714869Y-46691418D01*
X23794058Y-46882597D01*
X23794059Y-46882598D01*
X23909023Y-47054655D01*
X24055345Y-47200977D01*
X24227402Y-47315941D01*
X24418580Y-47395130D01*
X24621535Y-47435500D01*
X24621536Y-47435500D01*
X24828464Y-47435500D01*
X24828465Y-47435500D01*
X25031420Y-47395130D01*
X25222598Y-47315941D01*
X25394655Y-47200977D01*
X25540977Y-47054655D01*
X25655941Y-46882598D01*
X25735130Y-46691420D01*
X25775500Y-46488465D01*
X25775500Y-46281535D01*
X25775499Y-46281532D01*
X26214500Y-46281532D01*
X26214500Y-46488467D01*
X26254869Y-46691418D01*
X26334058Y-46882597D01*
X26334059Y-46882598D01*
X26449023Y-47054655D01*
X26595345Y-47200977D01*
X26767402Y-47315941D01*
X26958580Y-47395130D01*
X27161535Y-47435500D01*
X27161536Y-47435500D01*
X27368464Y-47435500D01*
X27368465Y-47435500D01*
X27571420Y-47395130D01*
X27762598Y-47315941D01*
X27934655Y-47200977D01*
X28080977Y-47054655D01*
X28195941Y-46882598D01*
X28275130Y-46691420D01*
X28315500Y-46488465D01*
X28315500Y-46281535D01*
X28275130Y-46078580D01*
X28195941Y-45887402D01*
X28080977Y-45715345D01*
X27934655Y-45569023D01*
X27762598Y-45454059D01*
X27762599Y-45454059D01*
X27762597Y-45454058D01*
X27571418Y-45374869D01*
X27368467Y-45334500D01*
X27368465Y-45334500D01*
X27161535Y-45334500D01*
X27161532Y-45334500D01*
X26958581Y-45374869D01*
X26767402Y-45454058D01*
X26595348Y-45569020D01*
X26449020Y-45715348D01*
X26334058Y-45887402D01*
X26254869Y-46078581D01*
X26214500Y-46281532D01*
X25775499Y-46281532D01*
X25735130Y-46078580D01*
X25655941Y-45887402D01*
X25540977Y-45715345D01*
X25394655Y-45569023D01*
X25222598Y-45454059D01*
X25222599Y-45454059D01*
X25222597Y-45454058D01*
X25031418Y-45374869D01*
X24828467Y-45334500D01*
X24828465Y-45334500D01*
X24621535Y-45334500D01*
X24621532Y-45334500D01*
X24418581Y-45374869D01*
X24227402Y-45454058D01*
X24055348Y-45569020D01*
X23909020Y-45715348D01*
X23794058Y-45887402D01*
X23714869Y-46078581D01*
X23674500Y-46281532D01*
X500500Y-46281532D01*
X500500Y-43741532D01*
X23674500Y-43741532D01*
X23674500Y-43948467D01*
X23714869Y-44151418D01*
X23794058Y-44342597D01*
X23794059Y-44342598D01*
X23909023Y-44514655D01*
X24055345Y-44660977D01*
X24227402Y-44775941D01*
X24418580Y-44855130D01*
X24621535Y-44895500D01*
X24621536Y-44895500D01*
X24828464Y-44895500D01*
X24828465Y-44895500D01*
X25031420Y-44855130D01*
X25222598Y-44775941D01*
X25394655Y-44660977D01*
X25540977Y-44514655D01*
X25655941Y-44342598D01*
X25735130Y-44151420D01*
X25775500Y-43948465D01*
X25775500Y-43741535D01*
X25775499Y-43741532D01*
X26214500Y-43741532D01*
X26214500Y-43948467D01*
X26254869Y-44151418D01*
X26334058Y-44342597D01*
X26334059Y-44342598D01*
X26449023Y-44514655D01*
X26595345Y-44660977D01*
X26767402Y-44775941D01*
X26958580Y-44855130D01*
X27161535Y-44895500D01*
X27161536Y-44895500D01*
X27368464Y-44895500D01*
X27368465Y-44895500D01*
X27571420Y-44855130D01*
X27762598Y-44775941D01*
X27934655Y-44660977D01*
X28080977Y-44514655D01*
X28195941Y-44342598D01*
X28275130Y-44151420D01*
X28315500Y-43948465D01*
X28315500Y-43741535D01*
X28275130Y-43538580D01*
X28195941Y-43347402D01*
X28080977Y-43175345D01*
X27934655Y-43029023D01*
X27762598Y-42914059D01*
X27762599Y-42914059D01*
X27762597Y-42914058D01*
X27571418Y-42834869D01*
X27368467Y-42794500D01*
X27368465Y-42794500D01*
X27161535Y-42794500D01*
X27161532Y-42794500D01*
X26958581Y-42834869D01*
X26767402Y-42914058D01*
X26595348Y-43029020D01*
X26449020Y-43175348D01*
X26334058Y-43347402D01*
X26254869Y-43538581D01*
X26214500Y-43741532D01*
X25775499Y-43741532D01*
X25735130Y-43538580D01*
X25655941Y-43347402D01*
X25540977Y-43175345D01*
X25394655Y-43029023D01*
X25222598Y-42914059D01*
X25222599Y-42914059D01*
X25222597Y-42914058D01*
X25031418Y-42834869D01*
X24828467Y-42794500D01*
X24828465Y-42794500D01*
X24621535Y-42794500D01*
X24621532Y-42794500D01*
X24418581Y-42834869D01*
X24227402Y-42914058D01*
X24055348Y-43029020D01*
X23909020Y-43175348D01*
X23794058Y-43347402D01*
X23714869Y-43538581D01*
X23674500Y-43741532D01*
X500500Y-43741532D01*
X500500Y-41201532D01*
X23674500Y-41201532D01*
X23674500Y-41408467D01*
X23714869Y-41611418D01*
X23794058Y-41802597D01*
X23794059Y-41802598D01*
X23909023Y-41974655D01*
X24055345Y-42120977D01*
X24227402Y-42235941D01*
X24418580Y-42315130D01*
X24621535Y-42355500D01*
X24621536Y-42355500D01*
X24828464Y-42355500D01*
X24828465Y-42355500D01*
X25031420Y-42315130D01*
X25222598Y-42235941D01*
X25394655Y-42120977D01*
X25540977Y-41974655D01*
X25655941Y-41802598D01*
X25735130Y-41611420D01*
X25775500Y-41408465D01*
X25775500Y-41201535D01*
X25775499Y-41201532D01*
X26214500Y-41201532D01*
X26214500Y-41408467D01*
X26254869Y-41611418D01*
X26334058Y-41802597D01*
X26334059Y-41802598D01*
X26449023Y-41974655D01*
X26595345Y-42120977D01*
X26767402Y-42235941D01*
X26958580Y-42315130D01*
X27161535Y-42355500D01*
X27161536Y-42355500D01*
X27368464Y-42355500D01*
X27368465Y-42355500D01*
X27571420Y-42315130D01*
X27762598Y-42235941D01*
X27934655Y-42120977D01*
X28080977Y-41974655D01*
X28195941Y-41802598D01*
X28275130Y-41611420D01*
X28315500Y-41408465D01*
X28315500Y-41201535D01*
X28275130Y-40998580D01*
X28195941Y-40807402D01*
X28080977Y-40635345D01*
X27934655Y-40489023D01*
X27762598Y-40374059D01*
X27762599Y-40374059D01*
X27762597Y-40374058D01*
X27571418Y-40294869D01*
X27368467Y-40254500D01*
X27368465Y-40254500D01*
X27161535Y-40254500D01*
X27161532Y-40254500D01*
X26958581Y-40294869D01*
X26767402Y-40374058D01*
X26595348Y-40489020D01*
X26449020Y-40635348D01*
X26334058Y-40807402D01*
X26254869Y-40998581D01*
X26214500Y-41201532D01*
X25775499Y-41201532D01*
X25735130Y-40998580D01*
X25655941Y-40807402D01*
X25540977Y-40635345D01*
X25394655Y-40489023D01*
X25222598Y-40374059D01*
X25222599Y-40374059D01*
X25222597Y-40374058D01*
X25031418Y-40294869D01*
X24828467Y-40254500D01*
X24828465Y-40254500D01*
X24621535Y-40254500D01*
X24621532Y-40254500D01*
X24418581Y-40294869D01*
X24227402Y-40374058D01*
X24055348Y-40489020D01*
X23909020Y-40635348D01*
X23794058Y-40807402D01*
X23714869Y-40998581D01*
X23674500Y-41201532D01*
X500500Y-41201532D01*
X500500Y-38661532D01*
X23674500Y-38661532D01*
X23674500Y-38868467D01*
X23714869Y-39071418D01*
X23794058Y-39262597D01*
X23794059Y-39262598D01*
X23909023Y-39434655D01*
X24055345Y-39580977D01*
X24227402Y-39695941D01*
X24418580Y-39775130D01*
X24621535Y-39815500D01*
X24621536Y-39815500D01*
X24828464Y-39815500D01*
X24828465Y-39815500D01*
X25031420Y-39775130D01*
X25222598Y-39695941D01*
X25394655Y-39580977D01*
X25540977Y-39434655D01*
X25655941Y-39262598D01*
X25735130Y-39071420D01*
X25775500Y-38868465D01*
X25775500Y-38661535D01*
X25775499Y-38661532D01*
X26214500Y-38661532D01*
X26214500Y-38868467D01*
X26254869Y-39071418D01*
X26334058Y-39262597D01*
X26334059Y-39262598D01*
X26449023Y-39434655D01*
X26595345Y-39580977D01*
X26767402Y-39695941D01*
X26958580Y-39775130D01*
X27161535Y-39815500D01*
X27161536Y-39815500D01*
X27368464Y-39815500D01*
X27368465Y-39815500D01*
X27571420Y-39775130D01*
X27762598Y-39695941D01*
X27934655Y-39580977D01*
X28080977Y-39434655D01*
X28195941Y-39262598D01*
X28275130Y-39071420D01*
X28315500Y-38868465D01*
X28315500Y-38661535D01*
X28275130Y-38458580D01*
X28195941Y-38267402D01*
X28080977Y-38095345D01*
X27934655Y-37949023D01*
X27762598Y-37834059D01*
X27762599Y-37834059D01*
X27762597Y-37834058D01*
X27571418Y-37754869D01*
X27368467Y-37714500D01*
X27368465Y-37714500D01*
X27161535Y-37714500D01*
X27161532Y-37714500D01*
X26958581Y-37754869D01*
X26767402Y-37834058D01*
X26595348Y-37949020D01*
X26449020Y-38095348D01*
X26334058Y-38267402D01*
X26254869Y-38458581D01*
X26214500Y-38661532D01*
X25775499Y-38661532D01*
X25735130Y-38458580D01*
X25655941Y-38267402D01*
X25540977Y-38095345D01*
X25394655Y-37949023D01*
X25222598Y-37834059D01*
X25222599Y-37834059D01*
X25222597Y-37834058D01*
X25031418Y-37754869D01*
X24828467Y-37714500D01*
X24828465Y-37714500D01*
X24621535Y-37714500D01*
X24621532Y-37714500D01*
X24418581Y-37754869D01*
X24227402Y-37834058D01*
X24055348Y-37949020D01*
X23909020Y-38095348D01*
X23794058Y-38267402D01*
X23714869Y-38458581D01*
X23674500Y-38661532D01*
X500500Y-38661532D01*
X500500Y-37396532D01*
X2949500Y-37396532D01*
X2949500Y-37603467D01*
X2989869Y-37806418D01*
X3069058Y-37997597D01*
X3069059Y-37997598D01*
X3184023Y-38169655D01*
X3330345Y-38315977D01*
X3502402Y-38430941D01*
X3693580Y-38510130D01*
X3896535Y-38550500D01*
X3896536Y-38550500D01*
X4103464Y-38550500D01*
X4103465Y-38550500D01*
X4306420Y-38510130D01*
X4497598Y-38430941D01*
X4669655Y-38315977D01*
X4815977Y-38169655D01*
X4930941Y-37997598D01*
X5010130Y-37806420D01*
X5050500Y-37603465D01*
X5050500Y-37396535D01*
X5010130Y-37193580D01*
X4930941Y-37002402D01*
X4815977Y-36830345D01*
X4669655Y-36684023D01*
X4497598Y-36569059D01*
X4497599Y-36569059D01*
X4497597Y-36569058D01*
X4306418Y-36489869D01*
X4103467Y-36449500D01*
X4103465Y-36449500D01*
X3896535Y-36449500D01*
X3896532Y-36449500D01*
X3693581Y-36489869D01*
X3502402Y-36569058D01*
X3330348Y-36684020D01*
X3184020Y-36830348D01*
X3069058Y-37002402D01*
X2989869Y-37193581D01*
X2949500Y-37396532D01*
X500500Y-37396532D01*
X500500Y-34090253D01*
X2949500Y-34090253D01*
X2949500Y-35829746D01*
X2949501Y-35829758D01*
X2961132Y-35888227D01*
X2961133Y-35888231D01*
X3005448Y-35954552D01*
X3071769Y-35998867D01*
X3116231Y-36007711D01*
X3130241Y-36010498D01*
X3130246Y-36010498D01*
X3130252Y-36010500D01*
X3130253Y-36010500D01*
X4869747Y-36010500D01*
X4869748Y-36010500D01*
X4928231Y-35998867D01*
X4994552Y-35954552D01*
X5038867Y-35888231D01*
X5050500Y-35829748D01*
X5050500Y-34090252D01*
X5038867Y-34031769D01*
X4994552Y-33965448D01*
X4994548Y-33965445D01*
X4928233Y-33921134D01*
X4928231Y-33921133D01*
X4928228Y-33921132D01*
X4928227Y-33921132D01*
X4869758Y-33909501D01*
X4869748Y-33909500D01*
X3130252Y-33909500D01*
X3130251Y-33909500D01*
X3130241Y-33909501D01*
X3071772Y-33921132D01*
X3071766Y-33921134D01*
X3005451Y-33965445D01*
X3005445Y-33965451D01*
X2961134Y-34031766D01*
X2961132Y-34031772D01*
X2949501Y-34090241D01*
X2949500Y-34090253D01*
X500500Y-34090253D01*
X500500Y-29436532D01*
X3849500Y-29436532D01*
X3849500Y-29643467D01*
X3889869Y-29846418D01*
X3969058Y-30037597D01*
X3969059Y-30037598D01*
X4084023Y-30209655D01*
X4230345Y-30355977D01*
X4402402Y-30470941D01*
X4593580Y-30550130D01*
X4796535Y-30590500D01*
X4796536Y-30590500D01*
X5003464Y-30590500D01*
X5003465Y-30590500D01*
X5206420Y-30550130D01*
X5397598Y-30470941D01*
X5569655Y-30355977D01*
X5715977Y-30209655D01*
X5830941Y-30037598D01*
X5910130Y-29846420D01*
X5950500Y-29643465D01*
X5950500Y-29436535D01*
X5922652Y-29296535D01*
X5922651Y-29296532D01*
X17899500Y-29296532D01*
X17899500Y-29753467D01*
X17939869Y-29956418D01*
X18019058Y-30147597D01*
X18134020Y-30319651D01*
X18134023Y-30319655D01*
X18280345Y-30465977D01*
X18452402Y-30580941D01*
X18643580Y-30660130D01*
X18846535Y-30700500D01*
X18846536Y-30700500D01*
X19053464Y-30700500D01*
X19053465Y-30700500D01*
X19256420Y-30660130D01*
X19447598Y-30580941D01*
X19619655Y-30465977D01*
X19765977Y-30319655D01*
X19880941Y-30147598D01*
X19960130Y-29956420D01*
X20000500Y-29753465D01*
X20000500Y-29296535D01*
X20000499Y-29296532D01*
X20399500Y-29296532D01*
X20399500Y-29753467D01*
X20439869Y-29956418D01*
X20519058Y-30147597D01*
X20634020Y-30319651D01*
X20634023Y-30319655D01*
X20780345Y-30465977D01*
X20952402Y-30580941D01*
X21143580Y-30660130D01*
X21346535Y-30700500D01*
X21346536Y-30700500D01*
X21553464Y-30700500D01*
X21553465Y-30700500D01*
X21756420Y-30660130D01*
X21947598Y-30580941D01*
X22119655Y-30465977D01*
X22265977Y-30319655D01*
X22380941Y-30147598D01*
X22460130Y-29956420D01*
X22500500Y-29753465D01*
X22500500Y-29296535D01*
X22460130Y-29093580D01*
X22380941Y-28902402D01*
X22276254Y-28745725D01*
X25399500Y-28745725D01*
X25399500Y-30304274D01*
X25402353Y-30334694D01*
X25402355Y-30334703D01*
X25447207Y-30462883D01*
X25527845Y-30572144D01*
X25527847Y-30572146D01*
X25527850Y-30572150D01*
X25527853Y-30572152D01*
X25527855Y-30572154D01*
X25637116Y-30652792D01*
X25637117Y-30652792D01*
X25637118Y-30652793D01*
X25765301Y-30697646D01*
X25795725Y-30700499D01*
X25795727Y-30700500D01*
X25795734Y-30700500D01*
X27104273Y-30700500D01*
X27104273Y-30700499D01*
X27134699Y-30697646D01*
X27262882Y-30652793D01*
X27372150Y-30572150D01*
X27452793Y-30462882D01*
X27497646Y-30334699D01*
X27500499Y-30304273D01*
X27500500Y-30304273D01*
X27500500Y-28745727D01*
X27500499Y-28745725D01*
X27498464Y-28724023D01*
X27497646Y-28715301D01*
X27452793Y-28587118D01*
X27410542Y-28529870D01*
X27372154Y-28477855D01*
X27372152Y-28477853D01*
X27372150Y-28477850D01*
X27372146Y-28477847D01*
X27372144Y-28477845D01*
X27262883Y-28397207D01*
X27134703Y-28352355D01*
X27134694Y-28352353D01*
X27104274Y-28349500D01*
X27104266Y-28349500D01*
X25795734Y-28349500D01*
X25795725Y-28349500D01*
X25765305Y-28352353D01*
X25765296Y-28352355D01*
X25637116Y-28397207D01*
X25527855Y-28477845D01*
X25527845Y-28477855D01*
X25447207Y-28587116D01*
X25402355Y-28715296D01*
X25402353Y-28715305D01*
X25399500Y-28745725D01*
X22276254Y-28745725D01*
X22265977Y-28730345D01*
X22119655Y-28584023D01*
X22038609Y-28529870D01*
X21947597Y-28469058D01*
X21756418Y-28389869D01*
X21553467Y-28349500D01*
X21553465Y-28349500D01*
X21346535Y-28349500D01*
X21346532Y-28349500D01*
X21143581Y-28389869D01*
X20952402Y-28469058D01*
X20780348Y-28584020D01*
X20634020Y-28730348D01*
X20519058Y-28902402D01*
X20439869Y-29093581D01*
X20399500Y-29296532D01*
X20000499Y-29296532D01*
X19960130Y-29093580D01*
X19880941Y-28902402D01*
X19765977Y-28730345D01*
X19619655Y-28584023D01*
X19538609Y-28529870D01*
X19447597Y-28469058D01*
X19256418Y-28389869D01*
X19053467Y-28349500D01*
X19053465Y-28349500D01*
X18846535Y-28349500D01*
X18846532Y-28349500D01*
X18643581Y-28389869D01*
X18452402Y-28469058D01*
X18280348Y-28584020D01*
X18134020Y-28730348D01*
X18019058Y-28902402D01*
X17939869Y-29093581D01*
X17899500Y-29296532D01*
X5922651Y-29296532D01*
X5910130Y-29233581D01*
X5830941Y-29042402D01*
X5715979Y-28870348D01*
X5715977Y-28870345D01*
X5569655Y-28724023D01*
X5569651Y-28724020D01*
X5397597Y-28609058D01*
X5206418Y-28529869D01*
X5003467Y-28489500D01*
X5003465Y-28489500D01*
X4796535Y-28489500D01*
X4796532Y-28489500D01*
X4593581Y-28529869D01*
X4402402Y-28609058D01*
X4230348Y-28724020D01*
X4084020Y-28870348D01*
X3969058Y-29042402D01*
X3889869Y-29233581D01*
X3849500Y-29436532D01*
X500500Y-29436532D01*
X500500Y-26896532D01*
X3849500Y-26896532D01*
X3849500Y-27103467D01*
X3889869Y-27306418D01*
X3969058Y-27497597D01*
X3969059Y-27497598D01*
X4084023Y-27669655D01*
X4230345Y-27815977D01*
X4402402Y-27930941D01*
X4593580Y-28010130D01*
X4796535Y-28050500D01*
X4796536Y-28050500D01*
X5003464Y-28050500D01*
X5003465Y-28050500D01*
X5206420Y-28010130D01*
X5397598Y-27930941D01*
X5569655Y-27815977D01*
X5715977Y-27669655D01*
X5830941Y-27497598D01*
X5910130Y-27306420D01*
X5950500Y-27103465D01*
X5950500Y-26896535D01*
X5910130Y-26693580D01*
X5830941Y-26502402D01*
X5715977Y-26330345D01*
X5569655Y-26184023D01*
X5397598Y-26069059D01*
X5397599Y-26069059D01*
X5397597Y-26069058D01*
X5206418Y-25989869D01*
X5003467Y-25949500D01*
X5003465Y-25949500D01*
X4796535Y-25949500D01*
X4796532Y-25949500D01*
X4593581Y-25989869D01*
X4402402Y-26069058D01*
X4230348Y-26184020D01*
X4084020Y-26330348D01*
X3969058Y-26502402D01*
X3889869Y-26693581D01*
X3849500Y-26896532D01*
X500500Y-26896532D01*
X500500Y-23590253D01*
X3849500Y-23590253D01*
X3849500Y-25329746D01*
X3849501Y-25329758D01*
X3861132Y-25388227D01*
X3861133Y-25388231D01*
X3905448Y-25454552D01*
X3971769Y-25498867D01*
X4016231Y-25507711D01*
X4030241Y-25510498D01*
X4030246Y-25510498D01*
X4030252Y-25510500D01*
X4030253Y-25510500D01*
X5769747Y-25510500D01*
X5769748Y-25510500D01*
X5828231Y-25498867D01*
X5894552Y-25454552D01*
X5938867Y-25388231D01*
X5950500Y-25329748D01*
X5950500Y-23590252D01*
X5938867Y-23531769D01*
X5894552Y-23465448D01*
X5894548Y-23465445D01*
X5828233Y-23421134D01*
X5828231Y-23421133D01*
X5828228Y-23421132D01*
X5828227Y-23421132D01*
X5769758Y-23409501D01*
X5769748Y-23409500D01*
X4030252Y-23409500D01*
X4030251Y-23409500D01*
X4030241Y-23409501D01*
X3971772Y-23421132D01*
X3971766Y-23421134D01*
X3905451Y-23465445D01*
X3905445Y-23465451D01*
X3861134Y-23531766D01*
X3861132Y-23531772D01*
X3849501Y-23590241D01*
X3849500Y-23590253D01*
X500500Y-23590253D01*
X500500Y-21296532D01*
X17899500Y-21296532D01*
X17899500Y-21753467D01*
X17939869Y-21956418D01*
X18019058Y-22147597D01*
X18134020Y-22319651D01*
X18134023Y-22319655D01*
X18280345Y-22465977D01*
X18452402Y-22580941D01*
X18643580Y-22660130D01*
X18846535Y-22700500D01*
X18846536Y-22700500D01*
X19053464Y-22700500D01*
X19053465Y-22700500D01*
X19256420Y-22660130D01*
X19447598Y-22580941D01*
X19619655Y-22465977D01*
X19765977Y-22319655D01*
X19880941Y-22147598D01*
X19960130Y-21956420D01*
X20000500Y-21753465D01*
X20000500Y-21296535D01*
X20000499Y-21296532D01*
X20399500Y-21296532D01*
X20399500Y-21753467D01*
X20439869Y-21956418D01*
X20519058Y-22147597D01*
X20634020Y-22319651D01*
X20634023Y-22319655D01*
X20780345Y-22465977D01*
X20952402Y-22580941D01*
X21143580Y-22660130D01*
X21346535Y-22700500D01*
X21346536Y-22700500D01*
X21553464Y-22700500D01*
X21553465Y-22700500D01*
X21756420Y-22660130D01*
X21947598Y-22580941D01*
X22119655Y-22465977D01*
X22265977Y-22319655D01*
X22380941Y-22147598D01*
X22460130Y-21956420D01*
X22500500Y-21753465D01*
X22500500Y-21296535D01*
X22460130Y-21093580D01*
X22380941Y-20902402D01*
X22276254Y-20745725D01*
X25399500Y-20745725D01*
X25399500Y-22304274D01*
X25402353Y-22334694D01*
X25402355Y-22334703D01*
X25447207Y-22462883D01*
X25527845Y-22572144D01*
X25527847Y-22572146D01*
X25527850Y-22572150D01*
X25527853Y-22572152D01*
X25527855Y-22572154D01*
X25637116Y-22652792D01*
X25637117Y-22652792D01*
X25637118Y-22652793D01*
X25765301Y-22697646D01*
X25795725Y-22700499D01*
X25795727Y-22700500D01*
X25795734Y-22700500D01*
X27104273Y-22700500D01*
X27104273Y-22700499D01*
X27134699Y-22697646D01*
X27262882Y-22652793D01*
X27372150Y-22572150D01*
X27452793Y-22462882D01*
X27497646Y-22334699D01*
X27500499Y-22304273D01*
X27500500Y-22304273D01*
X27500500Y-20745727D01*
X27500499Y-20745725D01*
X27497646Y-20715305D01*
X27497646Y-20715301D01*
X27452793Y-20587118D01*
X27376107Y-20483212D01*
X27372154Y-20477855D01*
X27372152Y-20477853D01*
X27372150Y-20477850D01*
X27372146Y-20477847D01*
X27372144Y-20477845D01*
X27262883Y-20397207D01*
X27134703Y-20352355D01*
X27134694Y-20352353D01*
X27104274Y-20349500D01*
X27104266Y-20349500D01*
X25795734Y-20349500D01*
X25795725Y-20349500D01*
X25765305Y-20352353D01*
X25765296Y-20352355D01*
X25637116Y-20397207D01*
X25527855Y-20477845D01*
X25527845Y-20477855D01*
X25447207Y-20587116D01*
X25402355Y-20715296D01*
X25402353Y-20715305D01*
X25399500Y-20745725D01*
X22276254Y-20745725D01*
X22265977Y-20730345D01*
X22119655Y-20584023D01*
X22119651Y-20584020D01*
X21947597Y-20469058D01*
X21756418Y-20389869D01*
X21553467Y-20349500D01*
X21553465Y-20349500D01*
X21346535Y-20349500D01*
X21346532Y-20349500D01*
X21143581Y-20389869D01*
X20952402Y-20469058D01*
X20780348Y-20584020D01*
X20634020Y-20730348D01*
X20519058Y-20902402D01*
X20439869Y-21093581D01*
X20399500Y-21296532D01*
X20000499Y-21296532D01*
X19960130Y-21093580D01*
X19880941Y-20902402D01*
X19765977Y-20730345D01*
X19619655Y-20584023D01*
X19619651Y-20584020D01*
X19447597Y-20469058D01*
X19256418Y-20389869D01*
X19053467Y-20349500D01*
X19053465Y-20349500D01*
X18846535Y-20349500D01*
X18846532Y-20349500D01*
X18643581Y-20389869D01*
X18452402Y-20469058D01*
X18280348Y-20584020D01*
X18134020Y-20730348D01*
X18019058Y-20902402D01*
X17939869Y-21093581D01*
X17899500Y-21296532D01*
X500500Y-21296532D01*
X500500Y-20176573D01*
X519407Y-20118382D01*
X568907Y-20082418D01*
X630093Y-20082418D01*
X679590Y-20118380D01*
X712090Y-20163112D01*
X886888Y-20337910D01*
X1086879Y-20483212D01*
X1307137Y-20595439D01*
X1542240Y-20671829D01*
X1542241Y-20671829D01*
X1542244Y-20671830D01*
X1786396Y-20710500D01*
X1786399Y-20710500D01*
X2033604Y-20710500D01*
X2277755Y-20671830D01*
X2277756Y-20671829D01*
X2277760Y-20671829D01*
X2512863Y-20595439D01*
X2733121Y-20483212D01*
X2933112Y-20337910D01*
X3107910Y-20163112D01*
X3253212Y-19963121D01*
X3365439Y-19742863D01*
X3441829Y-19507760D01*
X3480500Y-19263601D01*
X3480500Y-19016399D01*
X3480500Y-19016395D01*
X5419500Y-19016395D01*
X5419500Y-19263604D01*
X5458169Y-19507755D01*
X5458171Y-19507760D01*
X5534561Y-19742863D01*
X5646788Y-19963121D01*
X5792090Y-20163112D01*
X5966888Y-20337910D01*
X6166879Y-20483212D01*
X6387137Y-20595439D01*
X6622240Y-20671829D01*
X6622241Y-20671829D01*
X6622244Y-20671830D01*
X6866396Y-20710500D01*
X6866399Y-20710500D01*
X7113604Y-20710500D01*
X7357755Y-20671830D01*
X7357756Y-20671829D01*
X7357760Y-20671829D01*
X7592863Y-20595439D01*
X7813121Y-20483212D01*
X8013112Y-20337910D01*
X8187910Y-20163112D01*
X8333212Y-19963121D01*
X8445439Y-19742863D01*
X8521829Y-19507760D01*
X8560500Y-19263601D01*
X8560500Y-19016399D01*
X8560500Y-19016395D01*
X8521830Y-18772244D01*
X8521829Y-18772240D01*
X8445439Y-18537137D01*
X8333212Y-18316879D01*
X8187910Y-18116888D01*
X8013112Y-17942090D01*
X7813121Y-17796788D01*
X7813120Y-17796787D01*
X7813118Y-17796786D01*
X7592863Y-17684561D01*
X7357755Y-17608169D01*
X7113604Y-17569500D01*
X7113601Y-17569500D01*
X6866399Y-17569500D01*
X6866396Y-17569500D01*
X6622244Y-17608169D01*
X6387136Y-17684561D01*
X6166881Y-17796786D01*
X5966889Y-17942089D01*
X5792089Y-18116889D01*
X5646786Y-18316881D01*
X5534561Y-18537136D01*
X5458169Y-18772244D01*
X5419500Y-19016395D01*
X3480500Y-19016395D01*
X3441830Y-18772244D01*
X3441829Y-18772240D01*
X3365439Y-18537137D01*
X3253212Y-18316879D01*
X3107910Y-18116888D01*
X2933112Y-17942090D01*
X2733121Y-17796788D01*
X2733120Y-17796787D01*
X2733118Y-17796786D01*
X2512863Y-17684561D01*
X2277755Y-17608169D01*
X2033604Y-17569500D01*
X2033601Y-17569500D01*
X1786399Y-17569500D01*
X1786396Y-17569500D01*
X1542244Y-17608169D01*
X1307136Y-17684561D01*
X1086881Y-17796786D01*
X961357Y-17887985D01*
X886888Y-17942090D01*
X712090Y-18116888D01*
X679591Y-18161617D01*
X630093Y-18197581D01*
X568907Y-18197581D01*
X519407Y-18161617D01*
X500500Y-18103426D01*
X500500Y-16496070D01*
X3129500Y-16496070D01*
X3129500Y-16703929D01*
X3162014Y-16909219D01*
X3162015Y-16909223D01*
X3226241Y-17106889D01*
X3226243Y-17106892D01*
X3270211Y-17193186D01*
X3320607Y-17292093D01*
X3442779Y-17460248D01*
X3589752Y-17607221D01*
X3757907Y-17729393D01*
X3943104Y-17823755D01*
X3943106Y-17823755D01*
X3943107Y-17823756D01*
X3943110Y-17823758D01*
X4140776Y-17887984D01*
X4140780Y-17887985D01*
X4346071Y-17920500D01*
X4346074Y-17920500D01*
X4553929Y-17920500D01*
X4759219Y-17887985D01*
X4759223Y-17887984D01*
X4956889Y-17823758D01*
X4956891Y-17823756D01*
X4956896Y-17823755D01*
X5142093Y-17729393D01*
X5310248Y-17607221D01*
X5457221Y-17460248D01*
X5579393Y-17292093D01*
X5673755Y-17106896D01*
X5673756Y-17106891D01*
X5673758Y-17106889D01*
X5737984Y-16909223D01*
X5737985Y-16909219D01*
X5770500Y-16703929D01*
X5770500Y-16496070D01*
X5737985Y-16290780D01*
X5737984Y-16290776D01*
X5673758Y-16093110D01*
X5673756Y-16093107D01*
X5673755Y-16093106D01*
X5673755Y-16093104D01*
X5579393Y-15907907D01*
X5457221Y-15739752D01*
X5310248Y-15592779D01*
X5142093Y-15470607D01*
X5142092Y-15470606D01*
X5142090Y-15470605D01*
X4956892Y-15376243D01*
X4956889Y-15376241D01*
X4759223Y-15312015D01*
X4759219Y-15312014D01*
X4553929Y-15279500D01*
X4553926Y-15279500D01*
X4346074Y-15279500D01*
X4346071Y-15279500D01*
X4140780Y-15312014D01*
X4140776Y-15312015D01*
X3943110Y-15376241D01*
X3943107Y-15376243D01*
X3757909Y-15470605D01*
X3589753Y-15592778D01*
X3442778Y-15739753D01*
X3320605Y-15907909D01*
X3226243Y-16093107D01*
X3226241Y-16093110D01*
X3162015Y-16290776D01*
X3162014Y-16290780D01*
X3129500Y-16496070D01*
X500500Y-16496070D01*
X500500Y-15096573D01*
X519407Y-15038382D01*
X568907Y-15002418D01*
X630093Y-15002418D01*
X679590Y-15038380D01*
X712090Y-15083112D01*
X886888Y-15257910D01*
X1086879Y-15403212D01*
X1307137Y-15515439D01*
X1542240Y-15591829D01*
X1542241Y-15591829D01*
X1542244Y-15591830D01*
X1786396Y-15630500D01*
X1786399Y-15630500D01*
X2033604Y-15630500D01*
X2277755Y-15591830D01*
X2277756Y-15591829D01*
X2277760Y-15591829D01*
X2512863Y-15515439D01*
X2733121Y-15403212D01*
X2933112Y-15257910D01*
X3107910Y-15083112D01*
X3253212Y-14883121D01*
X3365439Y-14662863D01*
X3441829Y-14427760D01*
X3480500Y-14183601D01*
X3480500Y-13936399D01*
X3480500Y-13936395D01*
X3441830Y-13692244D01*
X3441829Y-13692240D01*
X3365439Y-13457137D01*
X3253212Y-13236879D01*
X3107910Y-13036888D01*
X2933112Y-12862090D01*
X2733121Y-12716788D01*
X2733120Y-12716787D01*
X2733118Y-12716786D01*
X2512863Y-12604561D01*
X2277755Y-12528169D01*
X2033604Y-12489500D01*
X2033601Y-12489500D01*
X1786399Y-12489500D01*
X1786396Y-12489500D01*
X1542244Y-12528169D01*
X1307136Y-12604561D01*
X1086881Y-12716786D01*
X886889Y-12862089D01*
X886888Y-12862090D01*
X712090Y-13036888D01*
X679591Y-13081617D01*
X630093Y-13117581D01*
X568907Y-13117581D01*
X519407Y-13081617D01*
X500500Y-13023426D01*
X500500Y-5999999D01*
X1998714Y-5999999D01*
X1998714Y-6000000D01*
X2003854Y-6157044D01*
X2003855Y-6157061D01*
X2019257Y-6313433D01*
X2044853Y-6468465D01*
X2044855Y-6468474D01*
X2080536Y-6621499D01*
X2126144Y-6771849D01*
X2126147Y-6771859D01*
X2126150Y-6771867D01*
X2181501Y-6918932D01*
X2246352Y-7062061D01*
X2246357Y-7062072D01*
X2320421Y-7200636D01*
X2403398Y-7334074D01*
X2403411Y-7334094D01*
X2494930Y-7461809D01*
X2494931Y-7461810D01*
X2594617Y-7583277D01*
X2702034Y-7697965D01*
X2816722Y-7805382D01*
X2938189Y-7905068D01*
X3065917Y-7996596D01*
X3199357Y-8079574D01*
X3199362Y-8079577D01*
X3337926Y-8153641D01*
X3337931Y-8153643D01*
X3337938Y-8153647D01*
X3481067Y-8218498D01*
X3628132Y-8273849D01*
X3778501Y-8319463D01*
X3931532Y-8355145D01*
X4086569Y-8380742D01*
X4224019Y-8394279D01*
X4242937Y-8396143D01*
X4242939Y-8396143D01*
X4242948Y-8396144D01*
X4377564Y-8400550D01*
X4399999Y-8401285D01*
X4399999Y-8401284D01*
X4400000Y-8401285D01*
X4557051Y-8396144D01*
X4713430Y-8380742D01*
X4868467Y-8355145D01*
X5021498Y-8319463D01*
X5171867Y-8273849D01*
X5318932Y-8218498D01*
X5462061Y-8153647D01*
X5600642Y-8079574D01*
X5734082Y-7996596D01*
X5861810Y-7905068D01*
X5983277Y-7805382D01*
X6097965Y-7697965D01*
X6205382Y-7583277D01*
X6305068Y-7461810D01*
X6396596Y-7334082D01*
X6479574Y-7200642D01*
X6553647Y-7062061D01*
X6618498Y-6918932D01*
X6673849Y-6771867D01*
X6719463Y-6621498D01*
X6755145Y-6468467D01*
X6780742Y-6313430D01*
X6796144Y-6157051D01*
X6801285Y-6000000D01*
X6796144Y-5842948D01*
X6780742Y-5686569D01*
X6755145Y-5531532D01*
X6719463Y-5378501D01*
X6673849Y-5228132D01*
X6618498Y-5081067D01*
X6553647Y-4937938D01*
X6479574Y-4799357D01*
X6396596Y-4665917D01*
X6305068Y-4538189D01*
X6205382Y-4416722D01*
X6097965Y-4302034D01*
X5983277Y-4194617D01*
X5861810Y-4094931D01*
X5861809Y-4094930D01*
X5734094Y-4003411D01*
X5734074Y-4003398D01*
X5600636Y-3920421D01*
X5462072Y-3846357D01*
X5462061Y-3846352D01*
X5318932Y-3781501D01*
X5318925Y-3781498D01*
X5318922Y-3781497D01*
X5272076Y-3763866D01*
X5171867Y-3726150D01*
X5171859Y-3726147D01*
X5171849Y-3726144D01*
X5021499Y-3680536D01*
X4868474Y-3644855D01*
X4868465Y-3644853D01*
X4713433Y-3619257D01*
X4557061Y-3603855D01*
X4557044Y-3603854D01*
X4400000Y-3598714D01*
X4242954Y-3603854D01*
X4242937Y-3603855D01*
X4086565Y-3619257D01*
X3931533Y-3644853D01*
X3931524Y-3644855D01*
X3778499Y-3680536D01*
X3628149Y-3726144D01*
X3628135Y-3726149D01*
X3481076Y-3781497D01*
X3337926Y-3846357D01*
X3199362Y-3920421D01*
X3065924Y-4003398D01*
X3065904Y-4003411D01*
X2938189Y-4094930D01*
X2859207Y-4159750D01*
X2816722Y-4194617D01*
X2702034Y-4302034D01*
X2594617Y-4416722D01*
X2559750Y-4459207D01*
X2494930Y-4538189D01*
X2403411Y-4665904D01*
X2403398Y-4665924D01*
X2320421Y-4799362D01*
X2246357Y-4937926D01*
X2181497Y-5081076D01*
X2126149Y-5228135D01*
X2126144Y-5228149D01*
X2080536Y-5378499D01*
X2044855Y-5531524D01*
X2044853Y-5531533D01*
X2019257Y-5686565D01*
X2003855Y-5842937D01*
X2003854Y-5842954D01*
X1998714Y-5999999D01*
X500500Y-5999999D01*
X500500Y-599500D01*
X519407Y-541309D01*
X568907Y-505345D01*
X599500Y-500500D01*
X8300500Y-500500D01*
X8358691Y-519407D01*
G37*
%TD.AperFunction*%
%TD*%
M02*
