M48
; DRILL file KiCad 10.0.6 date 2026-09-07T17:04:24
; FORMAT={-:-/ absolute / metric / decimal}
; #@! TF.CreationDate,2026-09-07T17:04:24+02:00
; #@! TF.GenerationSoftware,Kicad,Pcbnew,10.0.6
; #@! TF.FileFunction,Plated,1,4,PTH
FMAT,2
METRIC
; #@! TA.AperFunction,Plated,PTH,ComponentDrill
T1C0.200
; #@! TA.AperFunction,Plated,PTH,ViaDrill
T2C0.300
; #@! TA.AperFunction,Plated,PTH,ComponentDrill
T3C0.800
; #@! TA.AperFunction,Plated,PTH,ComponentDrill
T4C0.950
; #@! TA.AperFunction,Plated,PTH,ComponentDrill
T5C1.000
; #@! TA.AperFunction,Plated,PTH,ComponentDrill
T6C1.020
; #@! TA.AperFunction,Plated,PTH,ComponentDrill
T7C1.200
; #@! TA.AperFunction,Plated,PTH,ComponentDrill
T8C1.700
%
G90
G05
T1
X11.9Y-82.9
X11.9Y-84.0
X11.9Y-85.1
X12.5Y-60.0
X12.5Y-60.5
X12.5Y-61.0
X12.5Y-61.5
X12.5Y-62.0
X13.0Y-60.0
X13.0Y-60.5
X13.0Y-61.0
X13.0Y-61.5
X13.0Y-62.0
X13.0Y-82.9
X13.0Y-84.0
X13.0Y-85.1
X13.5Y-60.0
X13.5Y-60.5
X13.5Y-61.0
X13.5Y-61.5
X13.5Y-62.0
X14.1Y-82.9
X14.1Y-84.0
X14.1Y-85.1
T2
X1.0Y-56.05
X3.175Y-90.75
X3.7Y-87.75
X3.95Y-82.75
X4.0Y-45.587
X4.025Y-54.2
X4.775Y-49.7
X4.95Y-59.25
X5.75Y-82.425
X6.525Y-57.0
X6.675Y-59.55
X6.675Y-60.25
X6.9Y-92.45
X7.675Y-31.3
X7.75Y-85.525
X8.0Y-71.775
X8.1Y-80.775
X8.375Y-62.35
X8.375Y-65.5
X8.375Y-68.9
X8.575Y-95.75
X9.2Y-32.225
X9.275Y-45.3
X9.275Y-49.1
X10.425Y-90.5
X10.463Y-56.475
X10.5Y-88.425
X10.8Y-61.25
X11.075Y-55.95
X12.775Y-46.9
X13.025Y-39.4
X13.2Y-68.25
X14.375Y-34.85
X15.1Y-47.775
X15.212Y-81.25
X15.212Y-82.0
X15.775Y-58.5
X15.925Y-28.5
X16.325Y-37.4
X16.613Y-45.4
X16.65Y-32.25
X16.7Y-59.025
X17.275Y-38.4
X17.512Y-68.3
X18.275Y-64.0
X18.95Y-68.25
X19.062Y-78.7
X19.062Y-85.95
X19.825Y-75.25
X19.925Y-72.25
X20.45Y-43.35
X20.45Y-54.25
X20.45Y-59.6
X20.462Y-57.8
X20.5Y-66.8
X20.75Y-91.925
X22.0Y-42.925
X22.0Y-62.425
X22.0Y-77.125
X22.613Y-85.8
X23.812Y-96.7
X24.3Y-82.0
X27.2Y-96.175
X27.5Y-72.175
X28.0Y-84.225
X28.3Y-71.725
X28.5Y-79.425
T3
X10.25Y-97.0
X12.05Y-97.0
X13.85Y-97.0
X15.65Y-97.0
X17.45Y-97.0
X19.25Y-97.0
T4
X18.95Y-21.525
X18.95Y-29.525
X21.45Y-21.525
X21.45Y-29.525
X23.95Y-21.525
X23.95Y-29.525
X26.45Y-21.525
X26.45Y-29.525
T5
X3.725Y-51.5
X4.0Y-34.96
X4.0Y-37.5
X4.0Y-40.04
X4.0Y-69.725
X4.0Y-72.265
X4.0Y-77.725
X4.0Y-80.265
X4.9Y-24.46
X4.9Y-27.0
X4.9Y-29.54
X5.725Y-55.3
X6.265Y-51.5
X8.265Y-55.3
X14.9Y-93.0
X19.1Y-93.0
T6
X24.725Y-38.765
X24.725Y-41.305
X24.725Y-43.845
X24.725Y-46.385
X24.725Y-48.925
X24.725Y-51.465
X24.725Y-54.005
X24.725Y-56.545
X24.725Y-59.085
X24.725Y-61.625
X24.725Y-64.165
X24.725Y-66.705
X24.725Y-69.245
X27.265Y-38.765
X27.265Y-41.305
X27.265Y-43.845
X27.265Y-46.385
X27.265Y-48.925
X27.265Y-51.465
X27.265Y-54.005
X27.265Y-56.545
X27.265Y-59.085
X27.265Y-64.165
X27.265Y-66.705
X27.265Y-69.245
T7
X4.45Y-16.6
T8
X1.91Y-14.06
X1.91Y-19.14
X6.99Y-14.06
X6.99Y-19.14
M30
