%TF.GenerationSoftware,KiCad,Pcbnew,10.0.6*%
%TF.CreationDate,2026-09-07T17:04:02+02:00*%
%TF.ProjectId,Trimix_Analyzer,5472696d-6978-45f4-916e-616c797a6572,A3-placement-01*%
%TF.SameCoordinates,Original*%
%TF.FileFunction,Copper,L1,Top*%
%TF.FilePolarity,Positive*%
%FSLAX46Y46*%
G04 Gerber Fmt 4.6, Leading zero omitted, Abs format (unit mm)*
G04 Created by KiCad (PCBNEW 10.0.6) date 2026-09-07 17:04:02*
%MOMM*%
%LPD*%
G01*
G04 APERTURE LIST*
G04 Aperture macros list*
%AMRoundRect*
0 Rectangle with rounded corners*
0 $1 Rounding radius*
0 $2 $3 $4 $5 $6 $7 $8 $9 X,Y pos of 4 corners*
0 Add a 4 corners polygon primitive as box body*
4,1,4,$2,$3,$4,$5,$6,$7,$8,$9,$2,$3,0*
0 Add four circle primitives for the rounded corners*
1,1,$1+$1,$2,$3*
1,1,$1+$1,$4,$5*
1,1,$1+$1,$6,$7*
1,1,$1+$1,$8,$9*
0 Add four rect primitives between the rounded corners*
20,1,$1+$1,$2,$3,$4,$5,0*
20,1,$1+$1,$4,$5,$6,$7,0*
20,1,$1+$1,$6,$7,$8,$9,0*
20,1,$1+$1,$8,$9,$2,$3,0*%
%AMFreePoly0*
4,1,29,-0.590000,1.425000,-0.330000,1.425000,-0.330000,2.200000,-0.130000,2.200000,-0.130000,1.425000,0.130000,1.425000,0.130000,2.200000,0.330000,2.200000,0.330000,1.425000,0.590000,1.425000,0.590000,2.200000,0.790000,2.200000,0.790000,-2.200000,0.590000,-2.200000,0.590000,-1.425000,0.330000,-1.425000,0.330000,-2.200000,0.130000,-2.200000,0.130000,-1.425000,-0.130000,-1.425000,
-0.130000,-2.200000,-0.330000,-2.200000,-0.330000,-1.425000,-0.590000,-1.425000,-0.590000,-2.200000,-0.790000,-2.200000,-0.790000,2.200000,-0.590000,2.200000,-0.590000,1.425000,-0.590000,1.425000,$1*%
G04 Aperture macros list end*
%TA.AperFunction,SMDPad,CuDef*%
%ADD10RoundRect,0.225000X-0.225000X-0.250000X0.225000X-0.250000X0.225000X0.250000X-0.225000X0.250000X0*%
%TD*%
%TA.AperFunction,ComponentPad*%
%ADD11RoundRect,0.250000X-0.675000X-0.675000X0.675000X-0.675000X0.675000X0.675000X-0.675000X0.675000X0*%
%TD*%
%TA.AperFunction,ComponentPad*%
%ADD12C,1.850000*%
%TD*%
%TA.AperFunction,SMDPad,CuDef*%
%ADD13RoundRect,0.250000X0.650000X-0.325000X0.650000X0.325000X-0.650000X0.325000X-0.650000X-0.325000X0*%
%TD*%
%TA.AperFunction,SMDPad,CuDef*%
%ADD14RoundRect,0.225000X0.250000X-0.225000X0.250000X0.225000X-0.250000X0.225000X-0.250000X-0.225000X0*%
%TD*%
%TA.AperFunction,SMDPad,CuDef*%
%ADD15RoundRect,0.200000X-0.200000X-0.275000X0.200000X-0.275000X0.200000X0.275000X-0.200000X0.275000X0*%
%TD*%
%TA.AperFunction,SMDPad,CuDef*%
%ADD16C,1.000000*%
%TD*%
%TA.AperFunction,SMDPad,CuDef*%
%ADD17RoundRect,0.200000X0.275000X-0.200000X0.275000X0.200000X-0.275000X0.200000X-0.275000X-0.200000X0*%
%TD*%
%TA.AperFunction,SMDPad,CuDef*%
%ADD18RoundRect,0.200000X0.200000X0.275000X-0.200000X0.275000X-0.200000X-0.275000X0.200000X-0.275000X0*%
%TD*%
%TA.AperFunction,SMDPad,CuDef*%
%ADD19RoundRect,0.250000X1.100000X-0.325000X1.100000X0.325000X-1.100000X0.325000X-1.100000X-0.325000X0*%
%TD*%
%TA.AperFunction,SMDPad,CuDef*%
%ADD20RoundRect,0.250000X0.475000X-0.250000X0.475000X0.250000X-0.475000X0.250000X-0.475000X-0.250000X0*%
%TD*%
%TA.AperFunction,SMDPad,CuDef*%
%ADD21RoundRect,0.150000X-0.587500X-0.150000X0.587500X-0.150000X0.587500X0.150000X-0.587500X0.150000X0*%
%TD*%
%TA.AperFunction,ComponentPad*%
%ADD22R,1.700000X1.700000*%
%TD*%
%TA.AperFunction,ComponentPad*%
%ADD23C,1.700000*%
%TD*%
%TA.AperFunction,ComponentPad*%
%ADD24RoundRect,0.250000X0.600000X0.725000X-0.600000X0.725000X-0.600000X-0.725000X0.600000X-0.725000X0*%
%TD*%
%TA.AperFunction,ComponentPad*%
%ADD25O,1.700000X1.950000*%
%TD*%
%TA.AperFunction,SMDPad,CuDef*%
%ADD26R,0.900000X1.700000*%
%TD*%
%TA.AperFunction,SMDPad,CuDef*%
%ADD27RoundRect,0.250000X-0.250000X-0.475000X0.250000X-0.475000X0.250000X0.475000X-0.250000X0.475000X0*%
%TD*%
%TA.AperFunction,SMDPad,CuDef*%
%ADD28RoundRect,0.150000X0.150000X-0.512500X0.150000X0.512500X-0.150000X0.512500X-0.150000X-0.512500X0*%
%TD*%
%TA.AperFunction,SMDPad,CuDef*%
%ADD29R,3.500000X2.950000*%
%TD*%
%TA.AperFunction,SMDPad,CuDef*%
%ADD30RoundRect,0.243750X0.456250X-0.243750X0.456250X0.243750X-0.456250X0.243750X-0.456250X-0.243750X0*%
%TD*%
%TA.AperFunction,ComponentPad*%
%ADD31C,2.240000*%
%TD*%
%TA.AperFunction,ComponentPad*%
%ADD32C,2.740000*%
%TD*%
%TA.AperFunction,SMDPad,CuDef*%
%ADD33R,0.700000X0.650000*%
%TD*%
%TA.AperFunction,SMDPad,CuDef*%
%ADD34RoundRect,0.050000X-0.375000X-0.050000X0.375000X-0.050000X0.375000X0.050000X-0.375000X0.050000X0*%
%TD*%
%TA.AperFunction,SMDPad,CuDef*%
%ADD35RoundRect,0.050000X-0.050000X-0.275000X0.050000X-0.275000X0.050000X0.275000X-0.050000X0.275000X0*%
%TD*%
%TA.AperFunction,SMDPad,CuDef*%
%ADD36RoundRect,0.087500X-0.250000X-0.087500X0.250000X-0.087500X0.250000X0.087500X-0.250000X0.087500X0*%
%TD*%
%TA.AperFunction,SMDPad,CuDef*%
%ADD37RoundRect,0.250000X-0.325000X-1.100000X0.325000X-1.100000X0.325000X1.100000X-0.325000X1.100000X0*%
%TD*%
%TA.AperFunction,SMDPad,CuDef*%
%ADD38R,0.980000X3.400000*%
%TD*%
%TA.AperFunction,SMDPad,CuDef*%
%ADD39RoundRect,0.150000X-0.400000X-0.150000X0.400000X-0.150000X0.400000X0.150000X-0.400000X0.150000X0*%
%TD*%
%TA.AperFunction,SMDPad,CuDef*%
%ADD40RoundRect,0.087500X-0.537500X-0.087500X0.537500X-0.087500X0.537500X0.087500X-0.537500X0.087500X0*%
%TD*%
%TA.AperFunction,SMDPad,CuDef*%
%ADD41RoundRect,0.150000X-0.512500X-0.150000X0.512500X-0.150000X0.512500X0.150000X-0.512500X0.150000X0*%
%TD*%
%TA.AperFunction,SMDPad,CuDef*%
%ADD42R,3.400000X0.980000*%
%TD*%
%TA.AperFunction,SMDPad,CuDef*%
%ADD43RoundRect,0.125000X-0.537500X-0.125000X0.537500X-0.125000X0.537500X0.125000X-0.537500X0.125000X0*%
%TD*%
%TA.AperFunction,SMDPad,CuDef*%
%ADD44RoundRect,0.250000X-0.325000X-0.650000X0.325000X-0.650000X0.325000X0.650000X-0.325000X0.650000X0*%
%TD*%
%TA.AperFunction,SMDPad,CuDef*%
%ADD45RoundRect,0.062500X-0.325000X-0.062500X0.325000X-0.062500X0.325000X0.062500X-0.325000X0.062500X0*%
%TD*%
%TA.AperFunction,HeatsinkPad*%
%ADD46R,0.800000X1.200000*%
%TD*%
%TA.AperFunction,SMDPad,CuDef*%
%ADD47O,0.600000X0.240000*%
%TD*%
%TA.AperFunction,ComponentPad*%
%ADD48C,0.400000*%
%TD*%
%TA.AperFunction,SMDPad,CuDef*%
%ADD49FreePoly0,0.000000*%
%TD*%
%TA.AperFunction,SMDPad,CuDef*%
%ADD50RoundRect,0.100000X-0.100000X0.637500X-0.100000X-0.637500X0.100000X-0.637500X0.100000X0.637500X0*%
%TD*%
%TA.AperFunction,SMDPad,CuDef*%
%ADD51RoundRect,0.100000X-0.637500X-0.100000X0.637500X-0.100000X0.637500X0.100000X-0.637500X0.100000X0*%
%TD*%
%TA.AperFunction,SMDPad,CuDef*%
%ADD52RoundRect,0.062500X-0.350000X-0.062500X0.350000X-0.062500X0.350000X0.062500X-0.350000X0.062500X0*%
%TD*%
%TA.AperFunction,SMDPad,CuDef*%
%ADD53RoundRect,0.062500X-0.062500X-0.350000X0.062500X-0.350000X0.062500X0.350000X-0.062500X0.350000X0*%
%TD*%
%TA.AperFunction,HeatsinkPad*%
%ADD54C,0.500000*%
%TD*%
%TA.AperFunction,HeatsinkPad*%
%ADD55R,2.700000X2.700000*%
%TD*%
%TA.AperFunction,ComponentPad*%
%ADD56R,1.300000X1.300000*%
%TD*%
%TA.AperFunction,ComponentPad*%
%ADD57C,1.300000*%
%TD*%
%TA.AperFunction,SMDPad,CuDef*%
%ADD58R,0.650000X0.250000*%
%TD*%
%TA.AperFunction,SMDPad,CuDef*%
%ADD59R,0.250000X0.650000*%
%TD*%
%TA.AperFunction,SMDPad,CuDef*%
%ADD60RoundRect,0.087500X-0.425000X-0.087500X0.425000X-0.087500X0.425000X0.087500X-0.425000X0.087500X0*%
%TD*%
%TA.AperFunction,ViaPad*%
%ADD61C,0.600000*%
%TD*%
%TA.AperFunction,Conductor*%
%ADD62C,0.200000*%
%TD*%
%TA.AperFunction,Conductor*%
%ADD63C,0.250000*%
%TD*%
%TA.AperFunction,Conductor*%
%ADD64C,0.600000*%
%TD*%
%TA.AperFunction,Conductor*%
%ADD65C,1.000000*%
%TD*%
%TA.AperFunction,Conductor*%
%ADD66C,0.500000*%
%TD*%
G04 APERTURE END LIST*
D10*
%TO.P,C403,1*%
%TO.N,O2_A_AIN_P*%
X6125000Y-32299999D03*
%TO.P,C403,2*%
%TO.N,GND*%
X7675000Y-32299999D03*
%TD*%
D11*
%TO.P,J102,1,Pin_1_1*%
%TO.N,PACK_P*%
X14900000Y-93000000D03*
D12*
%TO.P,J102,2,Pin_2_2*%
%TO.N,GND*%
X19100000Y-93000000D03*
%TD*%
D10*
%TO.P,C407,1*%
%TO.N,HOST_3V3*%
X10175000Y-28500000D03*
%TO.P,C407,2*%
%TO.N,GND*%
X11725000Y-28500000D03*
%TD*%
D13*
%TO.P,C107,1*%
%TO.N,/01  CHARGING + BATTERY/BQ_REGN*%
X8000000Y-75975000D03*
%TO.P,C107,2*%
%TO.N,GND*%
X8000000Y-73025000D03*
%TD*%
D14*
%TO.P,C507,1*%
%TO.N,HE_AIN_N*%
X6650000Y-38875000D03*
%TO.P,C507,2*%
%TO.N,GND*%
X6650000Y-37325000D03*
%TD*%
D15*
%TO.P,R504,1*%
%TO.N,HE_3V0*%
X17425000Y-48000000D03*
%TO.P,R504,2*%
%TO.N,HE_EXC_DIV*%
X19075000Y-48000000D03*
%TD*%
D16*
%TO.P,TP1005,1,1_1*%
%TO.N,VOUT_5V*%
X15000000Y-70500000D03*
%TD*%
D10*
%TO.P,C503,1*%
%TO.N,unconnected-(C503-Pad1)*%
X7725000Y-46300000D03*
%TO.P,C503,2*%
%TO.N,GND*%
X9275000Y-46300000D03*
%TD*%
%TO.P,C802,1*%
%TO.N,PB_FILTERED_N*%
X14225000Y-57500000D03*
%TO.P,C802,2*%
%TO.N,GND*%
X15775000Y-57500000D03*
%TD*%
D15*
%TO.P,R101,1*%
%TO.N,/01  CHARGING + BATTERY/BQ_REGN*%
X13175000Y-87500000D03*
%TO.P,R101,2*%
%TO.N,/01  CHARGING + BATTERY/PACK_TS*%
X14825000Y-87500000D03*
%TD*%
D17*
%TO.P,R703,1*%
%TO.N,CO_UART_EN*%
X21000000Y-64075000D03*
%TO.P,R703,2*%
%TO.N,GND*%
X21000000Y-62425000D03*
%TD*%
D18*
%TO.P,R119,1*%
%TO.N,USB_LIMIT_SET*%
X12075000Y-91500000D03*
%TO.P,R119,2*%
%TO.N,GND*%
X10425000Y-91500000D03*
%TD*%
D16*
%TO.P,TP1001,1,1_1*%
%TO.N,GND*%
X21751277Y-66000000D03*
%TD*%
D19*
%TO.P,C105,1*%
%TO.N,VSYS*%
X8750000Y-87225000D03*
%TO.P,C105,2*%
%TO.N,GND*%
X8750000Y-84275000D03*
%TD*%
D20*
%TO.P,C103,1*%
%TO.N,/01  CHARGING + BATTERY/BQ_SW*%
X19000000Y-83250000D03*
%TO.P,C103,2*%
%TO.N,/01  CHARGING + BATTERY/BQ_BTST*%
X19000000Y-81350000D03*
%TD*%
D16*
%TO.P,TP1007,1,1_1*%
%TO.N,POWER_EN*%
X21001277Y-60750000D03*
%TD*%
D15*
%TO.P,R410,1*%
%TO.N,O2_VMID*%
X14675000Y-36400000D03*
%TO.P,R410,2*%
%TO.N,GND*%
X16325000Y-36400000D03*
%TD*%
D14*
%TO.P,C402,1*%
%TO.N,O2_A_AIN_N*%
X1299999Y-27285000D03*
%TO.P,C402,2*%
%TO.N,GND*%
X1299999Y-25735000D03*
%TD*%
D17*
%TO.P,R601,1*%
%TO.N,HOST_3V3*%
X1250000Y-61325000D03*
%TO.P,R601,2*%
%TO.N,BME_VIN*%
X1250000Y-59675000D03*
%TD*%
D21*
%TO.P,Q110,1,G_1*%
%TO.N,USB_PERMISSION_Q*%
X17062500Y-88550000D03*
%TO.P,Q110,2,S_2*%
%TO.N,USB_ILIM_SERIES*%
X17062500Y-90450000D03*
%TO.P,Q110,3,D_3*%
%TO.N,USB_ILIM_BRANCH*%
X18937500Y-89500000D03*
%TD*%
D10*
%TO.P,C509,1*%
%TO.N,HOST_3V3*%
X11475000Y-38400000D03*
%TO.P,C509,2*%
%TO.N,GND*%
X13025000Y-38400000D03*
%TD*%
D17*
%TO.P,R401,1*%
%TO.N,O2_A_RAW_N*%
X8250000Y-26325000D03*
%TO.P,R401,2*%
%TO.N,O2_A_AIN_N*%
X8250000Y-24675000D03*
%TD*%
D10*
%TO.P,C504,1*%
%TO.N,HE_EXC_DIV*%
X7725000Y-48100000D03*
%TO.P,C504,2*%
%TO.N,GND*%
X9275000Y-48100000D03*
%TD*%
D22*
%TO.P,J501,1,Pin_1_1*%
%TO.N,HE_3V0*%
X4000000Y-34960000D03*
D23*
%TO.P,J501,2,Pin_2_2*%
%TO.N,HE_SENSE*%
X4000000Y-37500000D03*
%TO.P,J501,3,Pin_3_3*%
%TO.N,GND*%
X4000000Y-40040000D03*
%TD*%
D24*
%TO.P,J701,1,5.28V_1*%
%TO.N,CO_5V28*%
X26450000Y-29525000D03*
D25*
%TO.P,J701,2,GND_2*%
%TO.N,GND*%
X23950000Y-29525000D03*
%TO.P,J701,3,CO_TX_3*%
%TO.N,CO_TX_CABLE*%
X21450000Y-29525000D03*
%TO.P,J701,4,CO_RX_4*%
%TO.N,CO_RX_CABLE*%
X18950000Y-29525000D03*
%TD*%
D13*
%TO.P,C701,1*%
%TO.N,VOUT_5V*%
X15100000Y-51975000D03*
%TO.P,C701,2*%
%TO.N,GND*%
X15100000Y-49025000D03*
%TD*%
D26*
%TO.P,SW101,1,1_1*%
%TO.N,/01  CHARGING + BATTERY/BQ_QON_N*%
X1300000Y-87750000D03*
%TO.P,SW101,2,2_2*%
%TO.N,GND*%
X4700000Y-87750000D03*
%TD*%
D27*
%TO.P,C803,1*%
%TO.N,Net-(U801-ONT)*%
X11300000Y-69500000D03*
%TO.P,C803,2*%
%TO.N,GND*%
X13200000Y-69500000D03*
%TD*%
D16*
%TO.P,TP1006,1,1_1*%
%TO.N,HOST_3V3*%
X22601277Y-35400000D03*
%TD*%
D17*
%TO.P,R604,1*%
%TO.N,BME_VIN*%
X1250000Y-71075000D03*
%TO.P,R604,2*%
%TO.N,BME_SDA*%
X1250000Y-69425000D03*
%TD*%
D10*
%TO.P,C303,1*%
%TO.N,HOST_5V*%
X11225000Y-49650000D03*
%TO.P,C303,2*%
%TO.N,GND*%
X12775000Y-49650000D03*
%TD*%
%TO.P,C801,1*%
%TO.N,VSYS*%
X4975000Y-58000000D03*
%TO.P,C801,2*%
%TO.N,GND*%
X6525000Y-58000000D03*
%TD*%
D16*
%TO.P,TP1004,1,1_1*%
%TO.N,VSYS*%
X21500000Y-95500000D03*
%TD*%
D27*
%TO.P,C301,1*%
%TO.N,PACK_P*%
X17050000Y-67000000D03*
%TO.P,C301,2*%
%TO.N,GND*%
X18950000Y-67000000D03*
%TD*%
D16*
%TO.P,TP1012,1,1_1*%
%TO.N,O2_VMID*%
X7500000Y-43250000D03*
%TD*%
D10*
%TO.P,C409,1*%
%TO.N,O2_VMID*%
X8325000Y-36300000D03*
%TO.P,C409,2*%
%TO.N,GND*%
X9875000Y-36300000D03*
%TD*%
D17*
%TO.P,R117,1*%
%TO.N,USB_ILIM_AUTH*%
X28200000Y-97825000D03*
%TO.P,R117,2*%
%TO.N,GND*%
X28200000Y-96175000D03*
%TD*%
D16*
%TO.P,TP1003,1,1_1*%
%TO.N,PACK_P*%
X21501277Y-90250000D03*
%TD*%
%TO.P,TP1011,1,1_1*%
%TO.N,HE_SENSE*%
X7801277Y-34200000D03*
%TD*%
D17*
%TO.P,R102,1*%
%TO.N,/01  CHARGING + BATTERY/PACK_TS*%
X11500000Y-89075000D03*
%TO.P,R102,2*%
%TO.N,GND*%
X11500000Y-87425000D03*
%TD*%
%TO.P,R602,1*%
%TO.N,VOUT_5V*%
X1250000Y-64575000D03*
%TO.P,R602,2*%
%TO.N,BME_VIN*%
X1250000Y-62925000D03*
%TD*%
D24*
%TO.P,J601,1,VIN_1*%
%TO.N,BME_VIN*%
X26450000Y-21525000D03*
D25*
%TO.P,J601,2,GND_2*%
%TO.N,GND*%
X23950000Y-21525000D03*
%TO.P,J601,3,SCL_3*%
%TO.N,BME_SCL*%
X21450000Y-21525000D03*
%TO.P,J601,4,SDA_4*%
%TO.N,BME_SDA*%
X18950000Y-21525000D03*
%TD*%
D21*
%TO.P,Q601,1,G_1*%
%TO.N,HOST_3V3*%
X18562500Y-34050000D03*
%TO.P,Q601,2,S_2*%
%TO.N,I2C_SCL*%
X18562500Y-35950000D03*
%TO.P,Q601,3,D_3*%
%TO.N,BME_SCL*%
X20437500Y-35000000D03*
%TD*%
D15*
%TO.P,R201,1*%
%TO.N,VOUT_5V*%
X7975000Y-59750000D03*
%TO.P,R201,2*%
%TO.N,/02  SWITCHED 5 V/TPS_FB*%
X9625000Y-59750000D03*
%TD*%
D27*
%TO.P,C705,1*%
%TO.N,CO_LOGIC_3V0*%
X3050000Y-60500000D03*
%TO.P,C705,2*%
%TO.N,GND*%
X4950000Y-60500000D03*
%TD*%
D10*
%TO.P,C404,1*%
%TO.N,O2_B_AIN_N*%
X11825000Y-33000000D03*
%TO.P,C404,2*%
%TO.N,O2_B_AIN_P*%
X13375000Y-33000000D03*
%TD*%
D14*
%TO.P,C113,1*%
%TO.N,HOST_3V3*%
X28250000Y-81975000D03*
%TO.P,C113,2*%
%TO.N,GND*%
X28250000Y-80425000D03*
%TD*%
D28*
%TO.P,U501,1,IN_1*%
%TO.N,VOUT_5V*%
X3050000Y-46837500D03*
%TO.P,U501,2,GND_2*%
%TO.N,GND*%
X4000000Y-46837500D03*
%TO.P,U501,3,EN_3*%
%TO.N,HE_ENABLE*%
X4950000Y-46837500D03*
%TO.P,U501,4,NC_4*%
%TO.N,unconnected-(U501-NC-Pad4)*%
X4950000Y-44562500D03*
%TO.P,U501,5,OUT_5*%
%TO.N,HE_3V0*%
X3050000Y-44562500D03*
%TD*%
D10*
%TO.P,C502,1*%
%TO.N,HE_3V0*%
X3225000Y-48700000D03*
%TO.P,C502,2*%
%TO.N,GND*%
X4775000Y-48700000D03*
%TD*%
D21*
%TO.P,Q602,1,G_1*%
%TO.N,HOST_3V3*%
X19562500Y-38250000D03*
%TO.P,Q602,2,S_2*%
%TO.N,I2C_SDA*%
X19562500Y-40150000D03*
%TO.P,Q602,3,D_3*%
%TO.N,BME_SDA*%
X21437500Y-39200000D03*
%TD*%
D29*
%TO.P,L101,1,1_1*%
%TO.N,/01  CHARGING + BATTERY/BQ_SW*%
X13500000Y-79225000D03*
%TO.P,L101,2,2_2*%
%TO.N,VSYS*%
X13500000Y-73775000D03*
%TD*%
D21*
%TO.P,Q101,1,G_1*%
%TO.N,CHARGE_ARM*%
X19062500Y-77800000D03*
%TO.P,Q101,2,S_2*%
%TO.N,GND*%
X19062500Y-79700000D03*
%TO.P,Q101,3,D_3*%
%TO.N,/01  CHARGING + BATTERY/CHG_CE_N*%
X20937500Y-78750000D03*
%TD*%
D18*
%TO.P,R103,1*%
%TO.N,BQ_ILIM*%
X14575000Y-89150000D03*
%TO.P,R103,2*%
%TO.N,GND*%
X12925000Y-89150000D03*
%TD*%
D17*
%TO.P,R406,1*%
%TO.N,O2_B_RAW_P*%
X1300000Y-37125000D03*
%TO.P,R406,2*%
%TO.N,O2_B_AIN_P*%
X1300000Y-35475000D03*
%TD*%
%TO.P,R505,1*%
%TO.N,HE_EXC_DIV*%
X22000000Y-45575000D03*
%TO.P,R505,2*%
%TO.N,GND*%
X22000000Y-43925000D03*
%TD*%
D15*
%TO.P,R702,1*%
%TO.N,CO_FB*%
X17675000Y-58650000D03*
%TO.P,R702,2*%
%TO.N,GND*%
X19325000Y-58650000D03*
%TD*%
D16*
%TO.P,TP1008,1,1_1*%
%TO.N,I2C_SCL*%
X24851277Y-35400000D03*
%TD*%
D14*
%TO.P,C505,1*%
%TO.N,HE_AIN_P*%
X9700000Y-52275000D03*
%TO.P,C505,2*%
%TO.N,HE_AIN_N*%
X9700000Y-50725000D03*
%TD*%
D15*
%TO.P,R507,1*%
%TO.N,HE_SENSE*%
X2925000Y-32250000D03*
%TO.P,R507,2*%
%TO.N,HE_AIN_N*%
X4575000Y-32250000D03*
%TD*%
D30*
%TO.P,D101,1,K_1*%
%TO.N,/01  CHARGING + BATTERY/CHG_STAT_N*%
X16750000Y-83937500D03*
%TO.P,D101,2,A_2*%
%TO.N,Net-(D101-A)*%
X16750000Y-82062500D03*
%TD*%
D16*
%TO.P,TP1010,1,1_1*%
%TO.N,HE_3V0*%
X1101277Y-46200000D03*
%TD*%
D15*
%TO.P,R408,1*%
%TO.N,O2_VMID*%
X13325000Y-30250000D03*
%TO.P,R408,2*%
%TO.N,O2_B_AIN_P*%
X14975000Y-30250000D03*
%TD*%
%TO.P,R409,1*%
%TO.N,HOST_3V3*%
X11425000Y-36300000D03*
%TO.P,R409,2*%
%TO.N,O2_VMID*%
X13075000Y-36300000D03*
%TD*%
D10*
%TO.P,C804,1*%
%TO.N,Net-(U801-PDT)*%
X16225000Y-65000000D03*
%TO.P,C804,2*%
%TO.N,GND*%
X17775000Y-65000000D03*
%TD*%
D22*
%TO.P,J801,1,Pin_1_1*%
%TO.N,Net-(J801-Pin_1)*%
X3724999Y-51500000D03*
D23*
%TO.P,J801,2,Pin_2_2*%
%TO.N,GND*%
X6264999Y-51500000D03*
%TD*%
D27*
%TO.P,C706,1*%
%TO.N,unconnected-(C706-Pad1)*%
X3050000Y-62750000D03*
%TO.P,C706,2*%
%TO.N,GND*%
X4950000Y-62750000D03*
%TD*%
D15*
%TO.P,R402,1*%
%TO.N,O2_A_RAW_P*%
X11675000Y-18500000D03*
%TO.P,R402,2*%
%TO.N,O2_A_AIN_P*%
X13325000Y-18500000D03*
%TD*%
%TO.P,R115,1*%
%TO.N,HOST_3V3*%
X10175000Y-93250000D03*
%TO.P,R115,2*%
%TO.N,USB_PERMISSION_CLR_N*%
X11825000Y-93250000D03*
%TD*%
D14*
%TO.P,C401,1*%
%TO.N,O2_A_AIN_N*%
X1299999Y-24075000D03*
%TO.P,C401,2*%
%TO.N,O2_A_AIN_P*%
X1299999Y-22525000D03*
%TD*%
D15*
%TO.P,R107,1*%
%TO.N,HOST_3V3*%
X7175000Y-77750000D03*
%TO.P,R107,2*%
%TO.N,CHG_INT_N*%
X8825000Y-77750000D03*
%TD*%
%TO.P,R118,1*%
%TO.N,USB_PERMISSION_Q*%
X6925000Y-94750000D03*
%TO.P,R118,2*%
%TO.N,GND*%
X8575000Y-94750000D03*
%TD*%
%TO.P,R120,1*%
%TO.N,HOST_3V3*%
X1100000Y-92750000D03*
%TO.P,R120,2*%
%TO.N,USB_LIMIT_FAULT_N*%
X2750000Y-92750000D03*
%TD*%
D31*
%TO.P,J402,1,In_1*%
%TO.N,O2_B_RAW_P*%
X4450000Y-16600000D03*
D32*
%TO.P,J402,2,Ext_2*%
%TO.N,O2_B_RAW_N*%
X1910000Y-14060000D03*
X1910000Y-19140000D03*
X6990000Y-14060000D03*
X6990000Y-19140000D03*
%TD*%
D16*
%TO.P,TP1009,1,1_1*%
%TO.N,I2C_SDA*%
X27101277Y-35400000D03*
%TD*%
D17*
%TO.P,R804,1*%
%TO.N,VOUT_5V*%
X1250000Y-77575000D03*
%TO.P,R804,2*%
%TO.N,BUTTON_LED_A*%
X1250000Y-75925000D03*
%TD*%
%TO.P,R105,1*%
%TO.N,CHARGE_ARM*%
X5750000Y-85075000D03*
%TO.P,R105,2*%
%TO.N,GND*%
X5750000Y-83425000D03*
%TD*%
D15*
%TO.P,R704,1*%
%TO.N,CO_TX_3V0*%
X23925000Y-33400000D03*
%TO.P,R704,2*%
%TO.N,CO_TX_CABLE*%
X25575000Y-33400000D03*
%TD*%
D22*
%TO.P,J103,1,Pin_1_1*%
%TO.N,/01  CHARGING + BATTERY/PACK_TS*%
X4000000Y-77725000D03*
D23*
%TO.P,J103,2,Pin_2_2*%
%TO.N,GND*%
X4000000Y-80265000D03*
%TD*%
D10*
%TO.P,C203,1*%
%TO.N,/02  SWITCHED 5 V/TPS_VINA*%
X11025000Y-57700000D03*
%TO.P,C203,2*%
%TO.N,GND*%
X12575000Y-57700000D03*
%TD*%
D27*
%TO.P,C101,1*%
%TO.N,USB_CHG_5V*%
X2050000Y-84000000D03*
%TO.P,C101,2*%
%TO.N,GND*%
X3950000Y-84000000D03*
%TD*%
D33*
%TO.P,RN501,1,R1.1_1*%
%TO.N,HE_3V0*%
X6550000Y-40400000D03*
%TO.P,RN501,2,R2.1_2*%
%TO.N,HE_REF*%
X6550000Y-41400000D03*
%TO.P,RN501,3,R2.2_3*%
%TO.N,GND*%
X7850000Y-41400000D03*
%TO.P,RN501,4,R1.2_4*%
%TO.N,HE_REF*%
X7850000Y-40400000D03*
%TD*%
D10*
%TO.P,C508,1*%
%TO.N,HOST_3V3*%
X14725000Y-38400000D03*
%TO.P,C508,2*%
%TO.N,GND*%
X16275000Y-38400000D03*
%TD*%
D15*
%TO.P,R202,1*%
%TO.N,/02  SWITCHED 5 V/TPS_FB*%
X7975000Y-58050000D03*
%TO.P,R202,2*%
%TO.N,GND*%
X9625000Y-58050000D03*
%TD*%
D34*
%TO.P,U110,1,CC1_1*%
%TO.N,USB_CC1*%
X24475000Y-77200000D03*
%TO.P,U110,2,CC2_2*%
%TO.N,USB_CC2*%
X24475000Y-77600000D03*
D35*
%TO.P,U110,3,PORT_3*%
%TO.N,GND*%
X24600000Y-78225000D03*
%TO.P,U110,4,VBUS_DET_4*%
%TO.N,USB_VBUS_DET*%
X25000000Y-78225000D03*
%TO.P,U110,5,ADDR_5*%
%TO.N,GND*%
X25400000Y-78225000D03*
%TO.P,U110,6,INT_N_6*%
%TO.N,USB_CC_INT_N*%
X25800000Y-78225000D03*
D34*
%TO.P,U110,7,SDA_7*%
%TO.N,I2C_SDA*%
X25925000Y-77600000D03*
%TO.P,U110,8,SCL_8*%
%TO.N,I2C_SCL*%
X25925000Y-77200000D03*
D35*
%TO.P,U110,9,ID_9*%
%TO.N,unconnected-(U110-ID-Pad9)*%
X25800000Y-76575000D03*
%TO.P,U110,10,GND_10*%
%TO.N,GND*%
X25400000Y-76575000D03*
%TO.P,U110,11,EN_N_11*%
X25000000Y-76575000D03*
%TO.P,U110,12,VDD_12*%
%TO.N,HOST_3V3*%
X24600000Y-76575000D03*
%TD*%
D10*
%TO.P,C408,1*%
%TO.N,HOST_3V3*%
X13375000Y-28500000D03*
%TO.P,C408,2*%
%TO.N,GND*%
X14925000Y-28500000D03*
%TD*%
D22*
%TO.P,J104,1,A_1*%
%TO.N,VSYS*%
X4000000Y-69725000D03*
D23*
%TO.P,J104,2,B_2*%
%TO.N,CHARGE_ARM*%
X4000000Y-72265000D03*
%TD*%
D20*
%TO.P,C704,1*%
%TO.N,VOUT_5V*%
X2250000Y-57950000D03*
%TO.P,C704,2*%
%TO.N,GND*%
X2250000Y-56050000D03*
%TD*%
D36*
%TO.P,U701,1,FB_1*%
%TO.N,CO_FB*%
X18787500Y-55800000D03*
%TO.P,U701,2,EN_2*%
%TO.N,VOUT_5V*%
X18787500Y-56300000D03*
%TO.P,U701,3,VIN_3*%
X18787500Y-56800000D03*
%TO.P,U701,4,GND_4*%
%TO.N,GND*%
X20212500Y-56800000D03*
%TO.P,U701,5,SW_5*%
%TO.N,CO_SW*%
X20212500Y-56300000D03*
%TO.P,U701,6,VOUT_6*%
%TO.N,CO_5V28*%
X20212500Y-55800000D03*
%TD*%
D27*
%TO.P,C708,1*%
%TO.N,CO_LOGIC_3V0*%
X3050000Y-65000000D03*
%TO.P,C708,2*%
%TO.N,GND*%
X4950000Y-65000000D03*
%TD*%
D17*
%TO.P,R802,1*%
%TO.N,HOST_3V3*%
X1250000Y-74325000D03*
%TO.P,R802,2*%
%TO.N,POWER_INT_N*%
X1250000Y-72675000D03*
%TD*%
D15*
%TO.P,R407,1*%
%TO.N,O2_B_AIN_N*%
X10125000Y-30250000D03*
%TO.P,R407,2*%
%TO.N,O2_VMID*%
X11775000Y-30250000D03*
%TD*%
D37*
%TO.P,C206,1*%
%TO.N,VOUT_5V*%
X6675000Y-68900000D03*
%TO.P,C206,2*%
%TO.N,GND*%
X9625000Y-68900000D03*
%TD*%
D18*
%TO.P,R110,1*%
%TO.N,USB_5V*%
X24325000Y-73500000D03*
%TO.P,R110,2*%
%TO.N,USB_VBUS_DET*%
X22675000Y-73500000D03*
%TD*%
D38*
%TO.P,L201,1,1_1*%
%TO.N,Net-(L201-Pad1)*%
X14185000Y-66000000D03*
%TO.P,L201,2,2_2*%
%TO.N,Net-(L201-Pad2)*%
X11815000Y-66000000D03*
%TD*%
D39*
%TO.P,U114,1,ON_1*%
%TO.N,USB_OVP_5V*%
X6150000Y-89550000D03*
%TO.P,U114,2,VIN_2*%
X6150000Y-90500000D03*
%TO.P,U114,3,GND_3*%
%TO.N,GND*%
X6150000Y-91450000D03*
%TO.P,U114,4,ILIM_4*%
%TO.N,USB_LIMIT_SET*%
X8850000Y-91450000D03*
%TO.P,U114,5,VOUT_5*%
%TO.N,USB_CHG_5V*%
X8850000Y-90500000D03*
%TO.P,U114,6,FLT_6*%
%TO.N,USB_LIMIT_FAULT_N*%
X8850000Y-89550000D03*
%TD*%
D17*
%TO.P,R403,1*%
%TO.N,O2_A_AIN_N*%
X1300000Y-30584999D03*
%TO.P,R403,2*%
%TO.N,O2_VMID*%
X1300000Y-28934999D03*
%TD*%
%TO.P,R405,1*%
%TO.N,O2_B_RAW_N*%
X15000000Y-33825000D03*
%TO.P,R405,2*%
%TO.N,O2_B_AIN_N*%
X15000000Y-32175000D03*
%TD*%
%TO.P,R303,1*%
%TO.N,HOST_3V3*%
X19500000Y-65325000D03*
%TO.P,R303,2*%
%TO.N,I2C_SDA*%
X19500000Y-63675000D03*
%TD*%
D15*
%TO.P,R116,1*%
%TO.N,USB_LIMIT_SET*%
X13675000Y-90750000D03*
%TO.P,R116,2*%
%TO.N,USB_ILIM_BRANCH*%
X15325000Y-90750000D03*
%TD*%
D40*
%TO.P,U703,1,B2_1*%
%TO.N,CO_TX_3V0*%
X11600000Y-45350000D03*
%TO.P,U703,2,GND_2*%
%TO.N,GND*%
X11600000Y-45850000D03*
%TO.P,U703,3,VCCA_3*%
%TO.N,HOST_3V3*%
X11600000Y-46350000D03*
%TO.P,U703,4,A2Y_4*%
%TO.N,CO_UART_RX*%
X11600000Y-46850000D03*
%TO.P,U703,5,A1_5*%
%TO.N,CO_UART_TX*%
X14400000Y-46850000D03*
%TO.P,U703,6,OE_6*%
%TO.N,CO_UART_EN*%
X14400000Y-46350000D03*
%TO.P,U703,7,VCCB_7*%
%TO.N,CO_LOGIC_3V0*%
X14400000Y-45850000D03*
%TO.P,U703,8,B1Y_8*%
%TO.N,CO_RX_3V0*%
X14400000Y-45350000D03*
%TD*%
D15*
%TO.P,R301,1*%
%TO.N,HOST_3V3*%
X24925000Y-72000000D03*
%TO.P,R301,2*%
%TO.N,GAUGE_ALERT_N*%
X26575000Y-72000000D03*
%TD*%
D41*
%TO.P,U113,1,RESET_1*%
%TO.N,USB_PERMISSION_CLR_N*%
X23862500Y-84850000D03*
%TO.P,U113,2,GND_2*%
%TO.N,GND*%
X23862500Y-85800000D03*
%TO.P,U113,3,MR_3*%
%TO.N,USB_CC_INT_N*%
X23862500Y-86750000D03*
%TO.P,U113,4,CT_4*%
%TO.N,unconnected-(U113-CT-Pad4)*%
X26137500Y-86750000D03*
%TO.P,U113,5,SENSE_5*%
%TO.N,USB_VBUS_SENSE*%
X26137500Y-85800000D03*
%TO.P,U113,6,VDD_6*%
%TO.N,HOST_3V3*%
X26137500Y-84850000D03*
%TD*%
D42*
%TO.P,L701,1,1_1*%
%TO.N,VOUT_5V*%
X19500000Y-52385000D03*
%TO.P,L701,2,2_2*%
%TO.N,CO_SW*%
X19500000Y-50015000D03*
%TD*%
D15*
%TO.P,R506,1*%
%TO.N,HE_REF*%
X8175000Y-38400000D03*
%TO.P,R506,2*%
%TO.N,HE_AIN_P*%
X9825000Y-38400000D03*
%TD*%
D43*
%TO.P,U801,1,VIN_1*%
%TO.N,VSYS*%
X12462500Y-54025000D03*
%TO.P,U801,2,~{PB}_2*%
%TO.N,PB_FILTERED_N*%
X12462500Y-54675000D03*
%TO.P,U801,3,ONT_3*%
%TO.N,Net-(U801-ONT)*%
X12462500Y-55325000D03*
%TO.P,U801,4,GND_4*%
%TO.N,GND*%
X12462500Y-55975000D03*
%TO.P,U801,5,~{INT}_5*%
%TO.N,POWER_INT_N*%
X14737500Y-55975000D03*
%TO.P,U801,6,EN_6*%
%TO.N,POWER_EN*%
X14737500Y-55325000D03*
%TO.P,U801,7,PDT_7*%
%TO.N,Net-(U801-PDT)*%
X14737500Y-54675000D03*
%TO.P,U801,8,~{KILL}_8*%
%TO.N,POWER_KILL_N*%
X14737500Y-54025000D03*
%TD*%
D20*
%TO.P,C707,1*%
%TO.N,HOST_3V3*%
X21000000Y-69950000D03*
%TO.P,C707,2*%
%TO.N,GND*%
X21000000Y-68050000D03*
%TD*%
D17*
%TO.P,R112,1*%
%TO.N,HOST_3V3*%
X29000000Y-77575000D03*
%TO.P,R112,2*%
%TO.N,USB_BC_INT_N*%
X29000000Y-75925000D03*
%TD*%
D14*
%TO.P,C506,1*%
%TO.N,HE_AIN_P*%
X16649999Y-34800000D03*
%TO.P,C506,2*%
%TO.N,GND*%
X16649999Y-33250000D03*
%TD*%
D44*
%TO.P,C106,1*%
%TO.N,PACK_P*%
X1475000Y-90750000D03*
%TO.P,C106,2*%
%TO.N,GND*%
X4425000Y-90750000D03*
%TD*%
D17*
%TO.P,R701,1*%
%TO.N,CO_5V28*%
X17350000Y-57125000D03*
%TO.P,R701,2*%
%TO.N,CO_FB*%
X17350000Y-55475000D03*
%TD*%
D10*
%TO.P,C501,1*%
%TO.N,VOUT_5V*%
X3225000Y-42700000D03*
%TO.P,C501,2*%
%TO.N,GND*%
X4775000Y-42700000D03*
%TD*%
D19*
%TO.P,C102,1*%
%TO.N,/01  CHARGING + BATTERY/BQ_PMID*%
X8100000Y-82475000D03*
%TO.P,C102,2*%
%TO.N,GND*%
X8100000Y-79525000D03*
%TD*%
D20*
%TO.P,C703,1*%
%TO.N,CO_5V28*%
X18950000Y-62250000D03*
%TO.P,C703,2*%
%TO.N,GND*%
X18950000Y-60350000D03*
%TD*%
D15*
%TO.P,R203,1*%
%TO.N,VSYS*%
X3425000Y-67000000D03*
%TO.P,R203,2*%
%TO.N,POWER_EN*%
X5075000Y-67000000D03*
%TD*%
D41*
%TO.P,U702,1,IN_1*%
%TO.N,VOUT_5V*%
X17862500Y-44450000D03*
%TO.P,U702,2,GND_2*%
%TO.N,GND*%
X17862500Y-45400000D03*
%TO.P,U702,3,EN_3*%
%TO.N,VOUT_5V*%
X17862500Y-46350000D03*
%TO.P,U702,4,NC_4*%
%TO.N,unconnected-(U702-NC-Pad4)*%
X20137500Y-46350000D03*
%TO.P,U702,5,OUT_5*%
%TO.N,CO_LOGIC_3V0*%
X20137500Y-44450000D03*
%TD*%
D22*
%TO.P,J802,1,Pin_1_1*%
%TO.N,BUTTON_LED_A*%
X5725000Y-55300000D03*
D23*
%TO.P,J802,2,Pin_2_2*%
%TO.N,GND*%
X8265000Y-55300000D03*
%TD*%
D22*
%TO.P,J301,1,Pin_1_1*%
%TO.N,HOST_3V3*%
X27265000Y-69245000D03*
D23*
%TO.P,J301,2,Pin_2_2*%
%TO.N,HOST_5V*%
X24725000Y-69245000D03*
%TO.P,J301,3,Pin_3_3*%
%TO.N,HOST_3V3*%
X27265000Y-66705000D03*
%TO.P,J301,4,Pin_4_4*%
%TO.N,HOST_5V*%
X24725000Y-66705000D03*
%TO.P,J301,5,Pin_5_5*%
%TO.N,GND*%
X27265000Y-64165000D03*
%TO.P,J301,6,Pin_6_6*%
X24725000Y-64165000D03*
%TO.P,J301,8,Pin_8_8*%
%TO.N,POWER_KILL_N*%
X24725000Y-61625000D03*
%TO.P,J301,9,Pin_9_9*%
%TO.N,CO_UART_EN*%
X27265000Y-59085000D03*
%TO.P,J301,10,Pin_10_10*%
%TO.N,CO_UART_RX*%
X24725000Y-59085000D03*
%TO.P,J301,11,Pin_11_11*%
%TO.N,USB_ILIM_AUTH*%
X27265000Y-56545000D03*
%TO.P,J301,12,Pin_12_12*%
%TO.N,CO_UART_TX*%
X24725000Y-56545000D03*
%TO.P,J301,13,Pin_13_13*%
%TO.N,CHG_INT_N*%
X27265000Y-54005000D03*
%TO.P,J301,14,Pin_14_14*%
%TO.N,I2C_SCL*%
X24725000Y-54005000D03*
%TO.P,J301,15,Pin_15_15*%
%TO.N,unconnected-(J301-Pin_15-Pad15)*%
X27265000Y-51465000D03*
%TO.P,J301,16,Pin_16_16*%
%TO.N,GND*%
X24725000Y-51465000D03*
%TO.P,J301,17,Pin_17_17*%
%TO.N,HE_ENABLE*%
X27265000Y-48925000D03*
%TO.P,J301,18,Pin_18_18*%
%TO.N,HOST_3V3*%
X24725000Y-48925000D03*
%TO.P,J301,19,Pin_19_19*%
%TO.N,POWER_INT_N*%
X27265000Y-46385000D03*
%TO.P,J301,20,Pin_20_20*%
%TO.N,unconnected-(J301-Pin_20-Pad20)*%
X24725000Y-46385000D03*
%TO.P,J301,21,Pin_21_21*%
%TO.N,I2C_SDA*%
X27265000Y-43845000D03*
%TO.P,J301,22,Pin_22_22*%
%TO.N,unconnected-(J301-Pin_22-Pad22)*%
X24725000Y-43845000D03*
%TO.P,J301,23,Pin_23_23*%
%TO.N,unconnected-(J301-Pin_23-Pad23)*%
X27265000Y-41305000D03*
%TO.P,J301,24,Pin_24_24*%
%TO.N,unconnected-(J301-Pin_24-Pad24)*%
X24725000Y-41305000D03*
%TO.P,J301,25,Pin_25_25*%
%TO.N,unconnected-(J301-Pin_25-Pad25)*%
X27265000Y-38765000D03*
%TO.P,J301,26,Pin_26_26*%
%TO.N,unconnected-(J301-Pin_26-Pad26)*%
X24725000Y-38765000D03*
%TD*%
D45*
%TO.P,U301,1,CTG_1*%
%TO.N,GND*%
X17012500Y-69050000D03*
%TO.P,U301,2,CELL_2*%
%TO.N,PACK_P*%
X17012500Y-69550000D03*
%TO.P,U301,3,VDD_3*%
X17012500Y-70050000D03*
%TO.P,U301,4,GND_4*%
%TO.N,GND*%
X17012500Y-70550000D03*
%TO.P,U301,5,ALRT_5*%
%TO.N,GAUGE_ALERT_N*%
X18987500Y-70550000D03*
%TO.P,U301,6,QSTRT_6*%
%TO.N,GND*%
X18987500Y-70050000D03*
%TO.P,U301,7,SCL_7*%
%TO.N,I2C_SCL*%
X18987500Y-69550000D03*
%TO.P,U301,8,SDA_8*%
%TO.N,I2C_SDA*%
X18987500Y-69050000D03*
D46*
%TO.P,U301,9,EP_9*%
%TO.N,GND*%
X18000000Y-69800000D03*
%TD*%
D14*
%TO.P,C112,1*%
%TO.N,HOST_3V3*%
X28000000Y-86775000D03*
%TO.P,C112,2*%
%TO.N,GND*%
X28000000Y-85225000D03*
%TD*%
D37*
%TO.P,C204,1*%
%TO.N,VOUT_5V*%
X6675000Y-62100000D03*
%TO.P,C204,2*%
%TO.N,GND*%
X9625000Y-62100000D03*
%TD*%
D17*
%TO.P,R106,1*%
%TO.N,Net-(D101-A)*%
X21000000Y-83575000D03*
%TO.P,R106,2*%
%TO.N,VSYS*%
X21000000Y-81925000D03*
%TD*%
D27*
%TO.P,C601,1*%
%TO.N,BME_VIN*%
X18550000Y-42100000D03*
%TO.P,C601,2*%
%TO.N,GND*%
X20450000Y-42100000D03*
%TD*%
D17*
%TO.P,R803,1*%
%TO.N,HOST_3V3*%
X1250000Y-82075000D03*
%TO.P,R803,2*%
%TO.N,POWER_KILL_N*%
X1250000Y-80425000D03*
%TD*%
D14*
%TO.P,C110,1*%
%TO.N,HOST_3V3*%
X23000000Y-78175000D03*
%TO.P,C110,2*%
%TO.N,GND*%
X23000000Y-76625000D03*
%TD*%
D37*
%TO.P,C205,1*%
%TO.N,VOUT_5V*%
X6675000Y-65500000D03*
%TO.P,C205,2*%
%TO.N,GND*%
X9625000Y-65500000D03*
%TD*%
D47*
%TO.P,U201,1,VINA_1*%
%TO.N,/02  SWITCHED 5 V/TPS_VINA*%
X11600000Y-59500000D03*
%TO.P,U201,2,GND_2*%
%TO.N,GND*%
X11600000Y-60000000D03*
%TO.P,U201,3,FB_3*%
%TO.N,/02  SWITCHED 5 V/TPS_FB*%
X11600000Y-60500000D03*
%TO.P,U201,4,VOUT_4*%
%TO.N,VOUT_5V*%
X11600000Y-61000000D03*
%TO.P,U201,5,VOUT_5*%
X11600000Y-61500000D03*
%TO.P,U201,6,L2_6*%
%TO.N,Net-(L201-Pad2)*%
X11600000Y-62000000D03*
%TO.P,U201,7,L2_7*%
X11600000Y-62500000D03*
%TO.P,U201,8,L1_8*%
%TO.N,Net-(L201-Pad1)*%
X14400000Y-62500000D03*
%TO.P,U201,9,L1_9*%
X14400000Y-62000000D03*
%TO.P,U201,10,VIN_10*%
%TO.N,VSYS*%
X14400000Y-61500000D03*
%TO.P,U201,11,VIN_11*%
X14400000Y-61000000D03*
%TO.P,U201,12,EN_12*%
%TO.N,POWER_EN*%
X14400000Y-60500000D03*
%TO.P,U201,13,PS/SYNC_13*%
%TO.N,VSYS*%
X14400000Y-60000000D03*
%TO.P,U201,14,PG_14*%
%TO.N,unconnected-(U201-PG-Pad14)*%
X14400000Y-59500000D03*
D48*
%TO.P,U201,15,PGND/EP_15*%
%TO.N,GND*%
X12500000Y-60000000D03*
X12500000Y-60500000D03*
X12500000Y-61000000D03*
X12500000Y-61500000D03*
X12500000Y-62000000D03*
X13000000Y-60000000D03*
X13000000Y-60500000D03*
X13000000Y-61000000D03*
D49*
X13000000Y-61000000D03*
D48*
X13000000Y-61500000D03*
X13000000Y-62000000D03*
X13500000Y-60000000D03*
X13500000Y-60500000D03*
X13500000Y-61000000D03*
X13500000Y-61500000D03*
X13500000Y-62000000D03*
%TD*%
D21*
%TO.P,Q111,1,G_1*%
%TO.N,USB_ILIM_AUTH*%
X19062500Y-85050000D03*
%TO.P,Q111,2,S_2*%
%TO.N,GND*%
X19062500Y-86950000D03*
%TO.P,Q111,3,D_3*%
%TO.N,USB_ILIM_SERIES*%
X20937500Y-86000000D03*
%TD*%
D50*
%TO.P,U401,1,A0_1*%
%TO.N,GND*%
X14875000Y-20337500D03*
%TO.P,U401,2,A1_2*%
X14225000Y-20337500D03*
%TO.P,U401,3,~{RESET}_3*%
%TO.N,HOST_3V3*%
X13575000Y-20337500D03*
%TO.P,U401,4,DGND_4*%
%TO.N,GND*%
X12925000Y-20337500D03*
%TO.P,U401,5,AVSS_5*%
X12275000Y-20337500D03*
%TO.P,U401,6,AIN3_6*%
%TO.N,O2_B_AIN_N*%
X11625000Y-20337500D03*
%TO.P,U401,7,AIN2_7*%
%TO.N,O2_B_AIN_P*%
X10975000Y-20337500D03*
%TO.P,U401,8,REFN_8*%
%TO.N,unconnected-(U401-REFN-Pad8)*%
X10325000Y-20337500D03*
%TO.P,U401,9,REFP_9*%
%TO.N,unconnected-(U401-REFP-Pad9)*%
X10325000Y-26062500D03*
%TO.P,U401,10,AIN1_10*%
%TO.N,O2_A_AIN_N*%
X10975000Y-26062500D03*
%TO.P,U401,11,AIN0_11*%
%TO.N,O2_A_AIN_P*%
X11625000Y-26062500D03*
%TO.P,U401,12,AVDD_12*%
%TO.N,HOST_3V3*%
X12275000Y-26062500D03*
%TO.P,U401,13,DVDD_13*%
X12925000Y-26062500D03*
%TO.P,U401,14,~{DRDY}_14*%
%TO.N,unconnected-(U401-~{DRDY}-Pad14)*%
X13575000Y-26062500D03*
%TO.P,U401,15,SDA_15*%
%TO.N,I2C_SDA*%
X14225000Y-26062500D03*
%TO.P,U401,16,SCL_16*%
%TO.N,I2C_SCL*%
X14875000Y-26062500D03*
%TD*%
D15*
%TO.P,R705,1*%
%TO.N,CO_RX_3V0*%
X27175000Y-33400000D03*
%TO.P,R705,2*%
%TO.N,CO_RX_CABLE*%
X28825000Y-33400000D03*
%TD*%
D37*
%TO.P,C104,1*%
%TO.N,VSYS*%
X18125000Y-75250000D03*
%TO.P,C104,2*%
%TO.N,GND*%
X21075000Y-75250000D03*
%TD*%
D21*
%TO.P,Q112,1,G_1*%
%TO.N,USB_PERMISSION_Q_N*%
X23812500Y-95800000D03*
%TO.P,Q112,2,S_2*%
%TO.N,GND*%
X23812500Y-97700000D03*
%TO.P,Q112,3,D_3*%
%TO.N,CHG_INT_N*%
X25687500Y-96750000D03*
%TD*%
D40*
%TO.P,U112,1,CLK_1*%
%TO.N,USB_ILIM_AUTH*%
X23800000Y-79750000D03*
%TO.P,U112,2,D_2*%
%TO.N,HOST_3V3*%
X23800000Y-80250000D03*
%TO.P,U112,3,Q_N_3*%
%TO.N,USB_PERMISSION_Q_N*%
X23800000Y-80750000D03*
%TO.P,U112,4,GND_4*%
%TO.N,GND*%
X23800000Y-81250000D03*
%TO.P,U112,5,Q_5*%
%TO.N,USB_PERMISSION_Q*%
X26600000Y-81250000D03*
%TO.P,U112,6,CLR_N_6*%
%TO.N,USB_PERMISSION_CLR_N*%
X26600000Y-80750000D03*
%TO.P,U112,7,PRE_N_7*%
%TO.N,HOST_3V3*%
X26600000Y-80250000D03*
%TO.P,U112,8,VCC_8*%
X26600000Y-79750000D03*
%TD*%
D15*
%TO.P,R302,1*%
%TO.N,HOST_3V3*%
X22675000Y-75000000D03*
%TO.P,R302,2*%
%TO.N,I2C_SCL*%
X24325000Y-75000000D03*
%TD*%
D17*
%TO.P,R114,1*%
%TO.N,USB_VBUS_SENSE*%
X21750000Y-93575000D03*
%TO.P,R114,2*%
%TO.N,GND*%
X21750000Y-91925000D03*
%TD*%
%TO.P,R111,1*%
%TO.N,HOST_3V3*%
X27500000Y-78575000D03*
%TO.P,R111,2*%
%TO.N,USB_CC_INT_N*%
X27500000Y-76925000D03*
%TD*%
D51*
%TO.P,U502,1,A0_1*%
%TO.N,HOST_3V3*%
X9737500Y-39725000D03*
%TO.P,U502,2,A1_2*%
%TO.N,GND*%
X9737500Y-40375000D03*
%TO.P,U502,3,~{RESET}_3*%
%TO.N,HOST_3V3*%
X9737500Y-41025000D03*
%TO.P,U502,4,DGND_4*%
%TO.N,GND*%
X9737500Y-41675000D03*
%TO.P,U502,5,AVSS_5*%
X9737500Y-42325000D03*
%TO.P,U502,6,AIN3_6*%
%TO.N,O2_VMID*%
X9737500Y-42975000D03*
%TO.P,U502,7,AIN2_7*%
%TO.N,HE_EXC_DIV*%
X9737500Y-43625000D03*
%TO.P,U502,8,REFN_8*%
%TO.N,unconnected-(U502-REFN-Pad8)*%
X9737500Y-44275000D03*
%TO.P,U502,9,REFP_9*%
%TO.N,unconnected-(U502-REFP-Pad9)*%
X15462500Y-44275000D03*
%TO.P,U502,10,AIN1_10*%
%TO.N,HE_AIN_N*%
X15462500Y-43625000D03*
%TO.P,U502,11,AIN0_11*%
%TO.N,HE_AIN_P*%
X15462500Y-42975000D03*
%TO.P,U502,12,AVDD_12*%
%TO.N,HOST_3V3*%
X15462500Y-42325000D03*
%TO.P,U502,13,DVDD_13*%
X15462500Y-41675000D03*
%TO.P,U502,14,~{DRDY}_14*%
%TO.N,unconnected-(U502-~{DRDY}-Pad14)*%
X15462500Y-41025000D03*
%TO.P,U502,15,SDA_15*%
%TO.N,I2C_SDA*%
X15462500Y-40375000D03*
%TO.P,U502,16,SCL_16*%
%TO.N,I2C_SCL*%
X15462500Y-39725000D03*
%TD*%
D16*
%TO.P,TP1002,1,1_1*%
%TO.N,USB_5V*%
X23001277Y-83000000D03*
%TD*%
D10*
%TO.P,C302,1*%
%TO.N,VOUT_5V*%
X10725000Y-48100000D03*
%TO.P,C302,2*%
%TO.N,GND*%
X12275000Y-48100000D03*
%TD*%
D15*
%TO.P,R501,1*%
%TO.N,HE_ENABLE*%
X1375000Y-54200000D03*
%TO.P,R501,2*%
%TO.N,GND*%
X3025000Y-54200000D03*
%TD*%
D52*
%TO.P,U101,1,VBUS_1*%
%TO.N,USB_CHG_5V*%
X11037500Y-82750000D03*
%TO.P,U101,2,D+_2*%
%TO.N,unconnected-(U101-D+-Pad2)*%
X11037500Y-83250000D03*
%TO.P,U101,3,D-_3*%
%TO.N,unconnected-(U101-D--Pad3)*%
X11037500Y-83750000D03*
%TO.P,U101,4,STAT_4*%
%TO.N,/01  CHARGING + BATTERY/CHG_STAT_N*%
X11037500Y-84250000D03*
%TO.P,U101,5,SCL_5*%
%TO.N,I2C_SCL*%
X11037500Y-84750000D03*
%TO.P,U101,6,SDA_6*%
%TO.N,I2C_SDA*%
X11037500Y-85250000D03*
D53*
%TO.P,U101,7,~{INT}_7*%
%TO.N,CHG_INT_N*%
X11750000Y-85962500D03*
%TO.P,U101,8,OTG_8*%
%TO.N,GND*%
X12250000Y-85962500D03*
%TO.P,U101,9,~{CE}_9*%
%TO.N,/01  CHARGING + BATTERY/CHG_CE_N*%
X12750000Y-85962500D03*
%TO.P,U101,10,ILIM_10*%
%TO.N,BQ_ILIM*%
X13250000Y-85962500D03*
%TO.P,U101,11,TS_11*%
%TO.N,/01  CHARGING + BATTERY/PACK_TS*%
X13750000Y-85962500D03*
%TO.P,U101,12,~{QON}_12*%
%TO.N,/01  CHARGING + BATTERY/BQ_QON_N*%
X14250000Y-85962500D03*
D52*
%TO.P,U101,13,BAT_13*%
%TO.N,PACK_P*%
X14962500Y-85250000D03*
%TO.P,U101,14,BAT_14*%
X14962500Y-84750000D03*
%TO.P,U101,15,SYS_15*%
%TO.N,VSYS*%
X14962500Y-84250000D03*
%TO.P,U101,16,SYS_16*%
X14962500Y-83750000D03*
%TO.P,U101,17,PGND_17*%
%TO.N,GND*%
X14962500Y-83250000D03*
%TO.P,U101,18,PGND_18*%
X14962500Y-82750000D03*
D53*
%TO.P,U101,19,SW_19*%
%TO.N,/01  CHARGING + BATTERY/BQ_SW*%
X14250000Y-82037500D03*
%TO.P,U101,20,SW_20*%
X13750000Y-82037500D03*
%TO.P,U101,21,BTST_21*%
%TO.N,/01  CHARGING + BATTERY/BQ_BTST*%
X13250000Y-82037500D03*
%TO.P,U101,22,REGN_22*%
%TO.N,/01  CHARGING + BATTERY/BQ_REGN*%
X12750000Y-82037500D03*
%TO.P,U101,23,PMID_23*%
%TO.N,/01  CHARGING + BATTERY/BQ_PMID*%
X12250000Y-82037500D03*
%TO.P,U101,24,DSEL_24*%
%TO.N,unconnected-(U101-DSEL-Pad24)*%
X11750000Y-82037500D03*
D54*
%TO.P,U101,25,PGND_25*%
%TO.N,GND*%
X11900000Y-82900000D03*
X11900000Y-84000000D03*
X11900000Y-85100000D03*
X13000000Y-82900000D03*
X13000000Y-84000000D03*
D55*
X13000000Y-84000000D03*
D54*
X13000000Y-85100000D03*
X14100000Y-82900000D03*
X14100000Y-84000000D03*
X14100000Y-85100000D03*
%TD*%
D17*
%TO.P,R603,1*%
%TO.N,BME_VIN*%
X1250000Y-67825000D03*
%TO.P,R603,2*%
%TO.N,BME_SCL*%
X1250000Y-66175000D03*
%TD*%
D13*
%TO.P,C201,1*%
%TO.N,VSYS*%
X16700000Y-63225000D03*
%TO.P,C201,2*%
%TO.N,GND*%
X16700000Y-60275000D03*
%TD*%
D18*
%TO.P,R104,1*%
%TO.N,VSYS*%
X5825000Y-93000000D03*
%TO.P,R104,2*%
%TO.N,/01  CHARGING + BATTERY/CHG_CE_N*%
X4175000Y-93000000D03*
%TD*%
D56*
%TO.P,J101,1,1_1*%
%TO.N,USB_5V*%
X10250000Y-97000000D03*
D57*
%TO.P,J101,2,2_2*%
%TO.N,GND*%
X12050000Y-97000000D03*
%TO.P,J101,3,3_3*%
%TO.N,USB_CC1*%
X13850000Y-97000000D03*
%TO.P,J101,4,4_4*%
%TO.N,USB_CC2*%
X15650000Y-97000000D03*
%TO.P,J101,5,5_5*%
%TO.N,USB_D_P*%
X17450000Y-97000000D03*
%TO.P,J101,6,6_6*%
%TO.N,USB_D_M*%
X19250000Y-97000000D03*
%TD*%
D44*
%TO.P,C202,1*%
%TO.N,VSYS*%
X18225000Y-72250000D03*
%TO.P,C202,2*%
%TO.N,GND*%
X21175000Y-72250000D03*
%TD*%
D10*
%TO.P,C405,1*%
%TO.N,O2_B_AIN_N*%
X11825000Y-34600000D03*
%TO.P,C405,2*%
%TO.N,GND*%
X13375000Y-34600000D03*
%TD*%
D17*
%TO.P,R404,1*%
%TO.N,O2_VMID*%
X1300000Y-33825000D03*
%TO.P,R404,2*%
%TO.N,O2_A_AIN_P*%
X1300000Y-32175000D03*
%TD*%
D15*
%TO.P,R113,1*%
%TO.N,USB_OVP_5V*%
X25175000Y-83250000D03*
%TO.P,R113,2*%
%TO.N,USB_VBUS_SENSE*%
X26825000Y-83250000D03*
%TD*%
D14*
%TO.P,C406,1*%
%TO.N,O2_B_AIN_P*%
X10200000Y-33775000D03*
%TO.P,C406,2*%
%TO.N,GND*%
X10200000Y-32225000D03*
%TD*%
D58*
%TO.P,U111,1,USB+_1*%
%TO.N,unconnected-(U111-USB+-Pad1)*%
X25625000Y-73850000D03*
%TO.P,U111,2,USB-_2*%
%TO.N,unconnected-(U111-USB--Pad2)*%
X25625000Y-74250000D03*
D59*
%TO.P,U111,3,SCL_3*%
%TO.N,I2C_SCL*%
X25850000Y-74875000D03*
%TO.P,U111,4,SDA_4*%
%TO.N,I2C_SDA*%
X26250000Y-74875000D03*
%TO.P,U111,5,INTB_5*%
%TO.N,USB_BC_INT_N*%
X26650000Y-74875000D03*
%TO.P,U111,6,NC_6*%
%TO.N,unconnected-(U111-NC-Pad6)*%
X27050000Y-74875000D03*
D58*
%TO.P,U111,7,D-_7*%
%TO.N,USB_D_M*%
X27275000Y-74250000D03*
%TO.P,U111,8,D+_8*%
%TO.N,USB_D_P*%
X27275000Y-73850000D03*
D59*
%TO.P,U111,9,GND_9*%
%TO.N,GND*%
X27050000Y-73225000D03*
%TO.P,U111,10,ADDR_10*%
X26650000Y-73225000D03*
%TO.P,U111,11,ENB_11*%
X26250000Y-73225000D03*
%TO.P,U111,12,VDD_12*%
%TO.N,HOST_3V3*%
X25850000Y-73225000D03*
%TD*%
D60*
%TO.P,U302,1,VIN_1*%
%TO.N,VOUT_5V*%
X11162500Y-50850000D03*
%TO.P,U302,2,GND_2*%
%TO.N,GND*%
X11162500Y-51500000D03*
%TO.P,U302,3,CE_3*%
%TO.N,HOST_5V*%
X11162500Y-52150000D03*
%TO.P,U302,4,NC_4*%
%TO.N,unconnected-(U302-NC-Pad4)*%
X12837500Y-52150000D03*
%TO.P,U302,5,ST_5*%
%TO.N,GND*%
X12837500Y-51500000D03*
%TO.P,U302,6,VOUT_6*%
%TO.N,HOST_5V*%
X12837500Y-50850000D03*
%TD*%
D15*
%TO.P,R801,1*%
%TO.N,Net-(J801-Pin_1)*%
X3925000Y-75000000D03*
%TO.P,R801,2*%
%TO.N,PB_FILTERED_N*%
X5575000Y-75000000D03*
%TD*%
D22*
%TO.P,J401,1,Pin_1_1*%
%TO.N,O2_A_RAW_P*%
X4900000Y-24460000D03*
D23*
%TO.P,J401,2,Pin_2_2*%
%TO.N,O2_A_RAW_N*%
X4900000Y-27000000D03*
%TO.P,J401,3,Pin_3_3*%
%TO.N,unconnected-(J401-Pin_3-Pad3)*%
X4900000Y-29540000D03*
%TD*%
D14*
%TO.P,C111,1*%
%TO.N,HOST_3V3*%
X28500000Y-74475000D03*
%TO.P,C111,2*%
%TO.N,GND*%
X28500000Y-72925000D03*
%TD*%
D20*
%TO.P,C702,1*%
%TO.N,CO_5V28*%
X21700000Y-56150000D03*
%TO.P,C702,2*%
%TO.N,GND*%
X21700000Y-54250000D03*
%TD*%
D61*
%TO.N,GND*%
X20450000Y-54250000D03*
X24300000Y-82000000D03*
X17275000Y-38400000D03*
X9275000Y-45300000D03*
X9275000Y-49100000D03*
X5750000Y-82425000D03*
X8575000Y-95750000D03*
X19062500Y-85950000D03*
X16612500Y-45400000D03*
X9200000Y-32225000D03*
X8375000Y-68900000D03*
X19062500Y-78700000D03*
X16649999Y-32250000D03*
X4025000Y-54200000D03*
X3700000Y-87750000D03*
X8000000Y-71775000D03*
X16325000Y-37400000D03*
X11075000Y-55950000D03*
X19925000Y-72250000D03*
X28300000Y-71725000D03*
X8100000Y-80775000D03*
X6900000Y-92450000D03*
X20450000Y-59600000D03*
X1000000Y-56050000D03*
X8375000Y-62350000D03*
X10500000Y-88425000D03*
X8375000Y-65500000D03*
X13025000Y-39400000D03*
X28500000Y-79425000D03*
X20450000Y-43350000D03*
X4000000Y-45587500D03*
X20462500Y-57800000D03*
X12775000Y-46900000D03*
X22000000Y-62425000D03*
X7750000Y-85525000D03*
X13200000Y-68250000D03*
X20500000Y-66800000D03*
X15212500Y-81250000D03*
X4950000Y-59250000D03*
X15775000Y-58500000D03*
X7675000Y-31300000D03*
X27200000Y-96175000D03*
X23812500Y-96700000D03*
X15925000Y-28500000D03*
X17512500Y-68300000D03*
X22000000Y-42925000D03*
X19825000Y-75250000D03*
X22000000Y-77125000D03*
X14375000Y-34850000D03*
X3950000Y-82750000D03*
X27500000Y-72175000D03*
X18275000Y-64000000D03*
X10425000Y-90500000D03*
X6525000Y-57000000D03*
X15100000Y-47775000D03*
X18950000Y-68250000D03*
X15212500Y-82000000D03*
X20750000Y-91925000D03*
X3175000Y-90750000D03*
X10462500Y-56475000D03*
X4775000Y-49700000D03*
X22612500Y-85800000D03*
X28000000Y-84225000D03*
X16700000Y-59025000D03*
%TO.N,VOUT_5V*%
X6675000Y-60250000D03*
X6675000Y-59550000D03*
X10800000Y-61250000D03*
%TD*%
%TO.N,O2_A_AIN_P*%
D62*
X6100000Y-32300000D02*
X5300000Y-33100000D01*
X5300000Y-33100000D02*
X2200000Y-33100000D01*
X15300000Y-21400000D02*
X15400000Y-21400000D01*
X6125000Y-32299999D02*
X6100000Y-32300000D01*
X2200000Y-33100000D02*
X1300000Y-32200000D01*
X15400000Y-21400000D02*
X15400000Y-19200000D01*
X13300000Y-18500000D02*
X13325000Y-18500000D01*
X11625000Y-26062500D02*
X11600000Y-26100000D01*
X1300000Y-32200000D02*
X1300000Y-32174999D01*
X11600000Y-26100000D02*
X11600000Y-25100000D01*
X15400000Y-19200000D02*
X14000000Y-19200000D01*
X14000000Y-19200000D02*
X13300000Y-18500000D01*
X11600000Y-25100000D02*
X15300000Y-21400000D01*
%TO.N,GND*%
D63*
X21750000Y-91925000D02*
X20750000Y-91925000D01*
X20450000Y-42100000D02*
X20450000Y-43350000D01*
X10425000Y-91500000D02*
X10425000Y-90500000D01*
X19062500Y-86950000D02*
X19062500Y-85950000D01*
X27050000Y-73225000D02*
X28300000Y-71725000D01*
X15100000Y-49025000D02*
X15100000Y-47775000D01*
X16274999Y-38400000D02*
X17275000Y-38400000D01*
X4950000Y-60500000D02*
X4950000Y-59250000D01*
X7675000Y-32299999D02*
X7675000Y-31300000D01*
X14962500Y-82750000D02*
X15212500Y-81250000D01*
X6525000Y-58000000D02*
X6525000Y-57000000D01*
X23862500Y-85800000D02*
X22612500Y-85800000D01*
X9625000Y-68900000D02*
X8375000Y-68900000D01*
X17012500Y-69050000D02*
X17512500Y-68300000D01*
X4425000Y-90750000D02*
X3175000Y-90750000D01*
X28200000Y-96175000D02*
X27200000Y-96175000D01*
X17862500Y-45400000D02*
X16612500Y-45400000D01*
X13025000Y-38400000D02*
X13025000Y-39400000D01*
X14925000Y-28500000D02*
X15925000Y-28500000D01*
X16700000Y-60275000D02*
X16700000Y-59025000D01*
X23800000Y-81250000D02*
X24300000Y-82000000D01*
X11500000Y-87425000D02*
X10500000Y-88425000D01*
X12575000Y-57700000D02*
X11075000Y-55950000D01*
X2250000Y-56050000D02*
X1000000Y-56050000D01*
X14962500Y-83250000D02*
X15212500Y-82000000D01*
X28000000Y-85225000D02*
X28000000Y-84225000D01*
X9625000Y-65500000D02*
X8375000Y-65500000D01*
X15775000Y-57500000D02*
X15775000Y-58500000D01*
X18950000Y-67000000D02*
X18950000Y-68250000D01*
X9275000Y-48100000D02*
X9275000Y-49100000D01*
X9275000Y-46300000D02*
X9275000Y-45300000D01*
X28250000Y-80425000D02*
X28500000Y-79425000D01*
X21000000Y-62425000D02*
X22000000Y-62425000D01*
X4775000Y-48700000D02*
X4775000Y-49700000D01*
X3025000Y-54200000D02*
X4025000Y-54200000D01*
X8750000Y-84275000D02*
X7750000Y-85525000D01*
X20212500Y-56800000D02*
X20462500Y-57800000D01*
X16325000Y-36400000D02*
X16325000Y-37400000D01*
X9625000Y-62100000D02*
X8375000Y-62350000D01*
X6150000Y-91450000D02*
X6900000Y-92450000D01*
X12775000Y-49650000D02*
X12775000Y-46900000D01*
X28500000Y-72925000D02*
X27500000Y-72175000D01*
X19062500Y-79700000D02*
X19062500Y-78700000D01*
X17775000Y-65000000D02*
X18275000Y-64000000D01*
X4000000Y-46837500D02*
X4000000Y-45587500D01*
X12462500Y-55975000D02*
X10462500Y-56475000D01*
X21175000Y-72250000D02*
X19925000Y-72250000D01*
X13200000Y-69500000D02*
X13200000Y-68250000D01*
X23000000Y-76625000D02*
X22000000Y-77125000D01*
X18950000Y-60350000D02*
X20450000Y-59600000D01*
X8100000Y-79525000D02*
X8100000Y-80775000D01*
X21075000Y-75250000D02*
X19825000Y-75250000D01*
X21700000Y-54250000D02*
X20450000Y-54250000D01*
X10200000Y-32225000D02*
X9200000Y-32225000D01*
X23812500Y-97700000D02*
X23812500Y-96700000D01*
X5750000Y-83425000D02*
X5750000Y-82425000D01*
X8000000Y-73025000D02*
X8000000Y-71775000D01*
X8575000Y-94750000D02*
X8575000Y-95750000D01*
X22000000Y-43925000D02*
X22000000Y-42925000D01*
X13375000Y-34600000D02*
X14375000Y-34850000D01*
X21000000Y-68050000D02*
X20500000Y-66800000D01*
X16649999Y-33250000D02*
X16649999Y-32250000D01*
X4700000Y-87750000D02*
X3700000Y-87750000D01*
X3950000Y-84000000D02*
X3950000Y-82750000D01*
%TO.N,HE_AIN_N*%
D62*
X14400000Y-43700000D02*
X13400000Y-44700000D01*
X13700000Y-48900000D02*
X13700000Y-52700000D01*
X8900000Y-51500000D02*
X9700000Y-50700000D01*
X10900000Y-52700000D02*
X10500000Y-53100000D01*
X9700000Y-50700000D02*
X9700000Y-50725000D01*
X13400000Y-48600000D02*
X13700000Y-48900000D01*
X13700000Y-52700000D02*
X10900000Y-52700000D01*
X8900000Y-53100000D02*
X8900000Y-51500000D01*
X15462500Y-43625000D02*
X15500000Y-43600000D01*
X13400000Y-44700000D02*
X13400000Y-48600000D01*
X15500000Y-43600000D02*
X15400000Y-43700000D01*
X10500000Y-53100000D02*
X8900000Y-53100000D01*
X15400000Y-43700000D02*
X14400000Y-43700000D01*
%TO.N,HE_EXC_DIV*%
X21200000Y-47000000D02*
X22000000Y-46200000D01*
X22000000Y-45600000D02*
X22000000Y-45575000D01*
X19100000Y-48000000D02*
X17900000Y-49200000D01*
X17400000Y-49200000D02*
X16400000Y-50200000D01*
X14500000Y-52900000D02*
X14000000Y-53400000D01*
X8500000Y-43800000D02*
X8700000Y-43600000D01*
X16400000Y-52900000D02*
X14500000Y-52900000D01*
X20100000Y-47000000D02*
X21200000Y-47000000D01*
X9700000Y-43600000D02*
X9600000Y-43700000D01*
X11400000Y-53600000D02*
X8400000Y-53600000D01*
X19100000Y-48000000D02*
X20100000Y-47000000D01*
X8500000Y-45500000D02*
X8500000Y-47300000D01*
X9700000Y-43600000D02*
X9737500Y-43625000D01*
X8400000Y-53600000D02*
X8400000Y-47200000D01*
X17900000Y-49200000D02*
X17400000Y-49200000D01*
X19075000Y-48000000D02*
X19100000Y-48000000D01*
X8600000Y-43700000D02*
X8600000Y-45400000D01*
X8700000Y-43600000D02*
X9700000Y-43600000D01*
X8500000Y-47100000D02*
X8500000Y-43800000D01*
X7700000Y-48100000D02*
X7725000Y-48100000D01*
X9737500Y-43625000D02*
X9700000Y-43600000D01*
X8400000Y-47200000D02*
X8500000Y-47100000D01*
X14000000Y-53400000D02*
X11400000Y-53400000D01*
X11400000Y-53400000D02*
X11400000Y-53600000D01*
X9600000Y-43700000D02*
X8600000Y-43700000D01*
X22000000Y-46200000D02*
X22000000Y-45600000D01*
X16400000Y-50200000D02*
X16400000Y-52900000D01*
X8500000Y-47300000D02*
X7700000Y-48100000D01*
X8600000Y-45400000D02*
X8500000Y-45500000D01*
%TO.N,VOUT_5V*%
X10800000Y-61000000D02*
X10800000Y-61250000D01*
X10800000Y-61500000D02*
X10800000Y-61250000D01*
D64*
X6675000Y-59550000D02*
X6675000Y-68900000D01*
D62*
X11600000Y-61500000D02*
X10800000Y-61500000D01*
X11600000Y-61000000D02*
X10800000Y-61000000D01*
%TO.N,PB_FILTERED_N*%
X14225000Y-57500000D02*
X14200000Y-57500000D01*
X13500000Y-54700000D02*
X12500000Y-54700000D01*
X14200000Y-57500000D02*
X13500000Y-56800000D01*
X13500000Y-56800000D02*
X13500000Y-54700000D01*
X12500000Y-54700000D02*
X12462500Y-54675000D01*
%TO.N,VSYS*%
D65*
X13500000Y-73775000D02*
X16649999Y-73775000D01*
D64*
X15600000Y-61500000D02*
X16700000Y-62600000D01*
X16700000Y-62600000D02*
X16700000Y-63225000D01*
D62*
X14400000Y-61000000D02*
X15100000Y-61000000D01*
D65*
X16649999Y-73775000D02*
X18125000Y-75250000D01*
D62*
X15100000Y-61000000D02*
X15600000Y-61500000D01*
X14400000Y-61500000D02*
X15600000Y-61500000D01*
%TO.N,/01  CHARGING + BATTERY/BQ_SW*%
D64*
X13500000Y-79350000D02*
X13500000Y-79225000D01*
X14250000Y-81200000D02*
X14250000Y-80100000D01*
X14250000Y-80100000D02*
X13500000Y-79350000D01*
X13750000Y-81200000D02*
X14250000Y-81200000D01*
D62*
X13750000Y-82037500D02*
X13750000Y-81200000D01*
X14250000Y-82037500D02*
X14250000Y-81200000D01*
%TO.N,O2_VMID*%
X10800000Y-39200000D02*
X10800000Y-42900000D01*
X12200000Y-37100000D02*
X9100000Y-37100000D01*
X8324999Y-36300000D02*
X8300000Y-36300000D01*
X9737500Y-42975000D02*
X9700000Y-43000000D01*
X11800000Y-30200000D02*
X11775000Y-30250000D01*
X7700000Y-43000000D02*
X7500000Y-43200000D01*
X10700000Y-39200000D02*
X10800000Y-39200000D01*
X2800000Y-41300000D02*
X2800000Y-35300000D01*
X13300000Y-30200000D02*
X11800000Y-30200000D01*
X6600000Y-42900000D02*
X5000000Y-41300000D01*
X5000000Y-41300000D02*
X2800000Y-41300000D01*
X10800000Y-42900000D02*
X6600000Y-42900000D01*
X8300000Y-36300000D02*
X8324999Y-36300000D01*
X10600000Y-37600000D02*
X10600000Y-39100000D01*
X9800000Y-42900000D02*
X9700000Y-43000000D01*
X7500000Y-43200000D02*
X7500000Y-43250000D01*
X13100000Y-36300000D02*
X13000000Y-36300000D01*
X8300000Y-36300000D02*
X9600000Y-37600000D01*
X9600000Y-37600000D02*
X10600000Y-37600000D01*
X1300000Y-33800000D02*
X1300000Y-33825000D01*
X9700000Y-43000000D02*
X9737500Y-42975000D01*
X13200000Y-36400000D02*
X13100000Y-36300000D01*
X13000000Y-36300000D02*
X12200000Y-37100000D01*
X13075000Y-36300000D02*
X13100000Y-36300000D01*
X13325000Y-30250000D02*
X13300000Y-30200000D01*
X2800000Y-35300000D02*
X1300000Y-33800000D01*
X10800000Y-42900000D02*
X9800000Y-42900000D01*
X14700000Y-36400000D02*
X13200000Y-36400000D01*
X10600000Y-39100000D02*
X10700000Y-39200000D01*
X9700000Y-43000000D02*
X7700000Y-43000000D01*
X14675000Y-36400000D02*
X14700000Y-36400000D01*
X13100000Y-36300000D02*
X13075000Y-36300000D01*
X9100000Y-37100000D02*
X8300000Y-36300000D01*
%TO.N,O2_A_AIN_N*%
X1300000Y-24100000D02*
X2800000Y-24100000D01*
X8200000Y-24700000D02*
X8250000Y-24675000D01*
X2100000Y-26600000D02*
X2100000Y-24900000D01*
X6700000Y-23200000D02*
X8200000Y-24700000D01*
X8250000Y-24675000D02*
X8200000Y-24700000D01*
X8200000Y-24700000D02*
X8500000Y-25000000D01*
X2100000Y-29800000D02*
X1300000Y-30600000D01*
X2000000Y-26600000D02*
X2100000Y-26600000D01*
X1300000Y-24100000D02*
X1299999Y-24075000D01*
X11000000Y-26100000D02*
X10975000Y-26062500D01*
X1300000Y-27300000D02*
X1300000Y-27400000D01*
X1300000Y-27400000D02*
X2100000Y-28200000D01*
X1299999Y-27285000D02*
X1300000Y-27300000D01*
X1300000Y-27300000D02*
X2000000Y-26600000D01*
X2100000Y-28200000D02*
X2100000Y-29800000D01*
X8500000Y-25000000D02*
X10900000Y-25000000D01*
X1300000Y-30600000D02*
X1300000Y-30584999D01*
X3700000Y-23200000D02*
X6700000Y-23200000D01*
X10900000Y-25000000D02*
X10900000Y-26000000D01*
X10900000Y-26000000D02*
X11000000Y-26100000D01*
X1299999Y-24075000D02*
X1300000Y-24100000D01*
X2100000Y-24900000D02*
X1300000Y-24100000D01*
X2800000Y-24100000D02*
X3700000Y-23200000D01*
%TO.N,BME_VIN*%
X2100000Y-60600000D02*
X2100000Y-62100000D01*
X1200000Y-62900000D02*
X2100000Y-63800000D01*
X2100000Y-66900000D02*
X1200000Y-67800000D01*
X1300000Y-62900000D02*
X1200000Y-62900000D01*
X1200000Y-59700000D02*
X2100000Y-60600000D01*
X2100000Y-62100000D02*
X1300000Y-62900000D01*
X1250000Y-59675000D02*
X1200000Y-59700000D01*
X2100000Y-63800000D02*
X2100000Y-66900000D01*
X1200000Y-62900000D02*
X1250000Y-62925000D01*
X1200000Y-67800000D02*
X1250000Y-67825000D01*
X1250000Y-62925000D02*
X1200000Y-62900000D01*
%TO.N,O2_A_RAW_N*%
X8250000Y-26325000D02*
X8200000Y-26300000D01*
X8200000Y-26300000D02*
X5600000Y-26300000D01*
X5600000Y-26300000D02*
X4900000Y-27000000D01*
%TO.N,HE_SENSE*%
X7800000Y-34200000D02*
X6900000Y-33300000D01*
X3700000Y-31400000D02*
X2900000Y-32200000D01*
X7801277Y-34200000D02*
X7800000Y-34200000D01*
X4000000Y-37500000D02*
X7300000Y-34200000D01*
X5400000Y-31500000D02*
X5300000Y-31400000D01*
X5300000Y-31400000D02*
X3700000Y-31400000D01*
X7300000Y-34200000D02*
X7800000Y-34200000D01*
X6900000Y-33300000D02*
X6900000Y-31500000D01*
X6900000Y-31500000D02*
X5400000Y-31500000D01*
X2900000Y-32200000D02*
X2925000Y-32250000D01*
X7800000Y-34200000D02*
X7801277Y-34200000D01*
%TO.N,CO_TX_CABLE*%
X24800000Y-32600000D02*
X25600000Y-33400000D01*
X22700000Y-30800000D02*
X22700000Y-30900000D01*
X21400000Y-29500000D02*
X22700000Y-30800000D01*
X24400000Y-32600000D02*
X24800000Y-32600000D01*
X25600000Y-33400000D02*
X25575000Y-33400000D01*
X22700000Y-30900000D02*
X24400000Y-32600000D01*
X21450000Y-29525000D02*
X21400000Y-29500000D01*
%TO.N,CO_RX_CABLE*%
X23200000Y-34200000D02*
X28000000Y-34200000D01*
X18900000Y-29500000D02*
X20200000Y-30800000D01*
X18950000Y-29525000D02*
X18900000Y-29500000D01*
X28800000Y-33400000D02*
X28825000Y-33400000D01*
X20200000Y-31200000D02*
X23200000Y-34200000D01*
X20200000Y-30800000D02*
X20200000Y-31200000D01*
X28000000Y-34200000D02*
X28800000Y-33400000D01*
%TO.N,BME_SCL*%
X17700000Y-31400000D02*
X19700000Y-33400000D01*
X19700000Y-33400000D02*
X19700000Y-34700000D01*
X21400000Y-21500000D02*
X20200000Y-22700000D01*
X17700000Y-28200000D02*
X17700000Y-31400000D01*
X20200000Y-22700000D02*
X20200000Y-25700000D01*
X20100000Y-34700000D02*
X20400000Y-35000000D01*
X20400000Y-35000000D02*
X20437500Y-35000000D01*
X20200000Y-25700000D02*
X17700000Y-28200000D01*
X21450000Y-21525000D02*
X21400000Y-21500000D01*
X19700000Y-34700000D02*
X20100000Y-34700000D01*
%TO.N,/02  SWITCHED 5 V/TPS_FB*%
X10900000Y-60500000D02*
X11600000Y-60500000D01*
X9600000Y-59800000D02*
X10200000Y-59800000D01*
X9625000Y-59750000D02*
X9600000Y-59800000D01*
X9600000Y-59800000D02*
X8000000Y-58200000D01*
X8000000Y-58200000D02*
X8000000Y-58000000D01*
X8000000Y-58000000D02*
X7975000Y-58050000D01*
X10200000Y-59800000D02*
X10900000Y-60500000D01*
%TO.N,O2_B_AIN_N*%
X11000000Y-32200000D02*
X11000000Y-31100000D01*
X11800000Y-33000000D02*
X11800000Y-31900000D01*
X11800000Y-34600000D02*
X11825000Y-34600000D01*
X15700000Y-31500000D02*
X15000000Y-32200000D01*
X11000000Y-31100000D02*
X11000000Y-29400000D01*
X11000000Y-31100000D02*
X10100000Y-30200000D01*
X11825000Y-33000000D02*
X11800000Y-33000000D01*
X11800000Y-31900000D02*
X11000000Y-31100000D01*
X11800000Y-33000000D02*
X11000000Y-32200000D01*
X11000000Y-29400000D02*
X15700000Y-29400000D01*
X15700000Y-29400000D02*
X15700000Y-31500000D01*
X11800000Y-33000000D02*
X11800000Y-34600000D01*
X15000000Y-32200000D02*
X15000000Y-32174999D01*
X10100000Y-30200000D02*
X10125000Y-30250000D01*
%TO.N,O2_B_AIN_P*%
X11000000Y-35400000D02*
X10200000Y-34600000D01*
X13375000Y-33000000D02*
X13400000Y-33000000D01*
X10200000Y-33800000D02*
X10200000Y-33775000D01*
X15000000Y-30200000D02*
X14975000Y-30250000D01*
X13400000Y-33000000D02*
X14200000Y-32200000D01*
X12600000Y-35400000D02*
X11000000Y-35400000D01*
X10200000Y-34600000D02*
X10200000Y-33800000D01*
X12600000Y-33800000D02*
X12600000Y-35400000D01*
X14200000Y-32200000D02*
X14200000Y-31000000D01*
X14200000Y-31000000D02*
X15000000Y-30200000D01*
X13400000Y-33000000D02*
X12600000Y-33800000D01*
%TO.N,CO_FB*%
X19500000Y-55800000D02*
X18800000Y-55800000D01*
X18787500Y-55800000D02*
X18800000Y-55800000D01*
X17400000Y-55500000D02*
X17350000Y-55475000D01*
X18800000Y-55800000D02*
X17700000Y-55800000D01*
X19500000Y-57300000D02*
X19500000Y-55800000D01*
X18800000Y-55800000D02*
X18787500Y-55800000D01*
X17675000Y-58650000D02*
X17700000Y-58600000D01*
X19000000Y-57300000D02*
X19500000Y-57300000D01*
X17700000Y-58600000D02*
X19000000Y-57300000D01*
X17700000Y-55800000D02*
X17400000Y-55500000D01*
%TO.N,Net-(U801-PDT)*%
X20100000Y-68900000D02*
X22100000Y-68900000D01*
X14700000Y-54700000D02*
X14737500Y-54675000D01*
X22100000Y-68900000D02*
X22100000Y-67400000D01*
X23500000Y-65500000D02*
X23600000Y-65400000D01*
X23500000Y-66000000D02*
X23500000Y-65500000D01*
X22800000Y-55300000D02*
X18800000Y-55300000D01*
X16300000Y-71000000D02*
X19700000Y-71000000D01*
X19700000Y-69300000D02*
X20100000Y-68900000D01*
X19700000Y-71000000D02*
X19700000Y-69300000D01*
X16200000Y-70900000D02*
X16300000Y-71000000D01*
X22100000Y-67400000D02*
X23500000Y-66000000D01*
X16225000Y-65000000D02*
X16200000Y-65000000D01*
X18200000Y-54700000D02*
X14700000Y-54700000D01*
X22800000Y-57100000D02*
X22800000Y-55300000D01*
X23600000Y-57900000D02*
X22800000Y-57100000D01*
X18800000Y-55300000D02*
X18200000Y-54700000D01*
X23600000Y-65400000D02*
X25900000Y-65400000D01*
X25900000Y-57900000D02*
X23600000Y-57900000D01*
X16200000Y-65000000D02*
X16200000Y-70900000D01*
X25900000Y-65400000D02*
X25900000Y-57900000D01*
%TO.N,O2_A_RAW_P*%
X11675000Y-18500000D02*
X11700000Y-18500000D01*
X15400000Y-27200000D02*
X9800000Y-27200000D01*
X6000000Y-25600000D02*
X4900000Y-24500000D01*
X12600000Y-17700000D02*
X14900000Y-17700000D01*
X15900000Y-18700000D02*
X15900000Y-26700000D01*
X4900000Y-24500000D02*
X4900000Y-24460000D01*
X11800000Y-18500000D02*
X12600000Y-17700000D01*
X14900000Y-17700000D02*
X15900000Y-18700000D01*
X9800000Y-27200000D02*
X9100000Y-26500000D01*
X9100000Y-26500000D02*
X9100000Y-25600000D01*
X15900000Y-26700000D02*
X15400000Y-27200000D01*
X9100000Y-25600000D02*
X6000000Y-25600000D01*
X11700000Y-18500000D02*
X11800000Y-18500000D01*
%TO.N,O2_B_RAW_N*%
X1900000Y-14100000D02*
X1900000Y-19100000D01*
X7000000Y-19100000D02*
X6990000Y-19140000D01*
X7000000Y-14100000D02*
X6990000Y-14060000D01*
X1910000Y-14060000D02*
X1900000Y-14100000D01*
X1900000Y-14100000D02*
X7000000Y-14100000D01*
X1900000Y-19100000D02*
X7000000Y-19100000D01*
X1910000Y-19140000D02*
X1900000Y-19100000D01*
X1900000Y-19100000D02*
X1910000Y-19140000D01*
%TO.N,/02  SWITCHED 5 V/TPS_VINA*%
X11025000Y-57700000D02*
X11000000Y-57700000D01*
X11000000Y-57700000D02*
X11000000Y-58900000D01*
X11000000Y-58900000D02*
X11600000Y-59500000D01*
%TO.N,HE_REF*%
X8600000Y-42100000D02*
X8600000Y-40700000D01*
X7100000Y-42100000D02*
X8600000Y-42100000D01*
X8600000Y-40700000D02*
X8100000Y-40700000D01*
X6600000Y-41400000D02*
X7100000Y-41900000D01*
X7800000Y-40400000D02*
X7800000Y-38800000D01*
X7100000Y-41900000D02*
X7100000Y-42100000D01*
X7800000Y-40400000D02*
X7850000Y-40400000D01*
X7850000Y-40400000D02*
X7800000Y-40400000D01*
X6550000Y-41400000D02*
X6600000Y-41400000D01*
X8200000Y-38400000D02*
X8175000Y-38400000D01*
X7800000Y-38800000D02*
X8200000Y-38400000D01*
X8100000Y-40700000D02*
X7800000Y-40400000D01*
%TO.N,Net-(L201-Pad1)*%
X14400000Y-62000000D02*
X14800000Y-62000000D01*
X14800000Y-62000000D02*
X14800000Y-62300000D01*
D66*
X14800000Y-64700000D02*
X14185000Y-65315000D01*
X14800000Y-62300000D02*
X14800000Y-64700000D01*
D62*
X14400000Y-62500000D02*
X14800000Y-62500000D01*
D66*
X14185000Y-65315000D02*
X14185000Y-66000000D01*
%TO.N,Net-(L201-Pad2)*%
X11100000Y-62300000D02*
X11100000Y-64650000D01*
D62*
X11600000Y-62000000D02*
X11100000Y-62000000D01*
D66*
X11815000Y-65364999D02*
X11815000Y-66000000D01*
X11100000Y-64650000D02*
X11815000Y-65364999D01*
D62*
X11600000Y-62500000D02*
X11100000Y-62500000D01*
X11100000Y-62000000D02*
X11100000Y-62300000D01*
%TD*%
M02*
