%TF.GenerationSoftware,KiCad,Pcbnew,10.0.6*%
%TF.CreationDate,2026-09-07T17:04:02+02:00*%
%TF.ProjectId,Trimix_Analyzer,5472696d-6978-45f4-916e-616c797a6572,A3-placement-01*%
%TF.SameCoordinates,Original*%
%TF.FileFunction,Copper,L3,Inr*%
%TF.FilePolarity,Positive*%
%FSLAX46Y46*%
G04 Gerber Fmt 4.6, Leading zero omitted, Abs format (unit mm)*
G04 Created by KiCad (PCBNEW 10.0.6) date 2026-09-07 17:04:02*
%MOMM*%
%LPD*%
G01*
G04 APERTURE LIST*
G04 Aperture macros list*
%AMRoundRect*
0 Rectangle with rounded corners*
0 $1 Rounding radius*
0 $2 $3 $4 $5 $6 $7 $8 $9 X,Y pos of 4 corners*
0 Add a 4 corners polygon primitive as box body*
4,1,4,$2,$3,$4,$5,$6,$7,$8,$9,$2,$3,0*
0 Add four circle primitives for the rounded corners*
1,1,$1+$1,$2,$3*
1,1,$1+$1,$4,$5*
1,1,$1+$1,$6,$7*
1,1,$1+$1,$8,$9*
0 Add four rect primitives between the rounded corners*
20,1,$1+$1,$2,$3,$4,$5,0*
20,1,$1+$1,$4,$5,$6,$7,0*
20,1,$1+$1,$6,$7,$8,$9,0*
20,1,$1+$1,$8,$9,$2,$3,0*%
G04 Aperture macros list end*
%TA.AperFunction,ComponentPad*%
%ADD10RoundRect,0.250000X-0.675000X-0.675000X0.675000X-0.675000X0.675000X0.675000X-0.675000X0.675000X0*%
%TD*%
%TA.AperFunction,ComponentPad*%
%ADD11C,1.850000*%
%TD*%
%TA.AperFunction,ComponentPad*%
%ADD12R,1.700000X1.700000*%
%TD*%
%TA.AperFunction,ComponentPad*%
%ADD13C,1.700000*%
%TD*%
%TA.AperFunction,ComponentPad*%
%ADD14RoundRect,0.250000X0.600000X0.725000X-0.600000X0.725000X-0.600000X-0.725000X0.600000X-0.725000X0*%
%TD*%
%TA.AperFunction,ComponentPad*%
%ADD15O,1.700000X1.950000*%
%TD*%
%TA.AperFunction,ComponentPad*%
%ADD16C,2.240000*%
%TD*%
%TA.AperFunction,ComponentPad*%
%ADD17C,2.740000*%
%TD*%
%TA.AperFunction,ComponentPad*%
%ADD18C,0.400000*%
%TD*%
%TA.AperFunction,HeatsinkPad*%
%ADD19C,0.500000*%
%TD*%
%TA.AperFunction,ComponentPad*%
%ADD20R,1.300000X1.300000*%
%TD*%
%TA.AperFunction,ComponentPad*%
%ADD21C,1.300000*%
%TD*%
%TA.AperFunction,ViaPad*%
%ADD22C,0.600000*%
%TD*%
%TA.AperFunction,Conductor*%
%ADD23C,0.800000*%
%TD*%
G04 APERTURE END LIST*
D10*
%TO.N,PACK_P*%
%TO.C,J102*%
X14900000Y-93000000D03*
D11*
%TO.N,GND*%
X19100000Y-93000000D03*
%TD*%
D12*
%TO.N,HE_3V0*%
%TO.C,J501*%
X4000000Y-34960000D03*
D13*
%TO.N,HE_SENSE*%
X4000000Y-37500000D03*
%TO.N,GND*%
X4000000Y-40040000D03*
%TD*%
D14*
%TO.N,CO_5V28*%
%TO.C,J701*%
X26450000Y-29525000D03*
D15*
%TO.N,GND*%
X23950000Y-29525000D03*
%TO.N,CO_TX_CABLE*%
X21450000Y-29525000D03*
%TO.N,CO_RX_CABLE*%
X18950000Y-29525000D03*
%TD*%
D14*
%TO.N,BME_VIN*%
%TO.C,J601*%
X26450000Y-21525000D03*
D15*
%TO.N,GND*%
X23950000Y-21525000D03*
%TO.N,BME_SCL*%
X21450000Y-21525000D03*
%TO.N,BME_SDA*%
X18950000Y-21525000D03*
%TD*%
D12*
%TO.N,Net-(J801-Pin_1)*%
%TO.C,J801*%
X3724999Y-51500000D03*
D13*
%TO.N,GND*%
X6264999Y-51500000D03*
%TD*%
D16*
%TO.N,O2_B_RAW_P*%
%TO.C,J402*%
X4450000Y-16600000D03*
D17*
%TO.N,O2_B_RAW_N*%
X1910000Y-14060000D03*
X1910000Y-19140000D03*
X6990000Y-14060000D03*
X6990000Y-19140000D03*
%TD*%
D12*
%TO.N,/01  CHARGING + BATTERY/PACK_TS*%
%TO.C,J103*%
X4000000Y-77725000D03*
D13*
%TO.N,GND*%
X4000000Y-80265000D03*
%TD*%
D12*
%TO.N,VSYS*%
%TO.C,J104*%
X4000000Y-69725000D03*
D13*
%TO.N,CHARGE_ARM*%
X4000000Y-72265000D03*
%TD*%
D12*
%TO.N,BUTTON_LED_A*%
%TO.C,J802*%
X5725000Y-55300000D03*
D13*
%TO.N,GND*%
X8265000Y-55300000D03*
%TD*%
D12*
%TO.N,HOST_3V3*%
%TO.C,J301*%
X27265000Y-69245000D03*
D13*
%TO.N,HOST_5V*%
X24725000Y-69245000D03*
%TO.N,HOST_3V3*%
X27265000Y-66705000D03*
%TO.N,HOST_5V*%
X24725000Y-66705000D03*
%TO.N,GND*%
X27265000Y-64165000D03*
X24725000Y-64165000D03*
%TO.N,POWER_KILL_N*%
X24725000Y-61625000D03*
%TO.N,CO_UART_EN*%
X27265000Y-59085000D03*
%TO.N,CO_UART_RX*%
X24725000Y-59085000D03*
%TO.N,USB_ILIM_AUTH*%
X27265000Y-56545000D03*
%TO.N,CO_UART_TX*%
X24725000Y-56545000D03*
%TO.N,CHG_INT_N*%
X27265000Y-54005000D03*
%TO.N,I2C_SCL*%
X24725000Y-54005000D03*
%TO.N,unconnected-(J301-Pin_15-Pad15)*%
X27265000Y-51465000D03*
%TO.N,GND*%
X24725000Y-51465000D03*
%TO.N,HE_ENABLE*%
X27265000Y-48925000D03*
%TO.N,HOST_3V3*%
X24725000Y-48925000D03*
%TO.N,POWER_INT_N*%
X27265000Y-46385000D03*
%TO.N,unconnected-(J301-Pin_20-Pad20)*%
X24725000Y-46385000D03*
%TO.N,I2C_SDA*%
X27265000Y-43845000D03*
%TO.N,unconnected-(J301-Pin_22-Pad22)*%
X24725000Y-43845000D03*
%TO.N,unconnected-(J301-Pin_23-Pad23)*%
X27265000Y-41305000D03*
%TO.N,unconnected-(J301-Pin_24-Pad24)*%
X24725000Y-41305000D03*
%TO.N,unconnected-(J301-Pin_25-Pad25)*%
X27265000Y-38765000D03*
%TO.N,unconnected-(J301-Pin_26-Pad26)*%
X24725000Y-38765000D03*
%TD*%
D18*
%TO.N,GND*%
%TO.C,U201*%
X12500000Y-60000000D03*
X12500000Y-60500000D03*
X12500000Y-61000000D03*
X12500000Y-61500000D03*
X12500000Y-62000000D03*
X13000000Y-60000000D03*
X13000000Y-60500000D03*
X13000000Y-61000000D03*
X13000000Y-61500000D03*
X13000000Y-62000000D03*
X13500000Y-60000000D03*
X13500000Y-60500000D03*
X13500000Y-61000000D03*
X13500000Y-61500000D03*
X13500000Y-62000000D03*
%TD*%
D19*
%TO.N,GND*%
%TO.C,U101*%
X11900000Y-82900000D03*
X11900000Y-84000000D03*
X11900000Y-85100000D03*
X13000000Y-82900000D03*
X13000000Y-84000000D03*
X13000000Y-85100000D03*
X14100000Y-82900000D03*
X14100000Y-84000000D03*
X14100000Y-85100000D03*
%TD*%
D20*
%TO.N,USB_5V*%
%TO.C,J101*%
X10250000Y-97000000D03*
D21*
%TO.N,GND*%
X12050000Y-97000000D03*
%TO.N,USB_CC1*%
X13850000Y-97000000D03*
%TO.N,USB_CC2*%
X15650000Y-97000000D03*
%TO.N,USB_D_P*%
X17450000Y-97000000D03*
%TO.N,USB_D_M*%
X19250000Y-97000000D03*
%TD*%
D12*
%TO.N,O2_A_RAW_P*%
%TO.C,J401*%
X4900000Y-24460000D03*
D13*
%TO.N,O2_A_RAW_N*%
X4900000Y-27000000D03*
%TO.N,unconnected-(J401-Pin_3-Pad3)*%
X4900000Y-29540000D03*
%TD*%
D22*
%TO.N,GND*%
X20450000Y-54250000D03*
X24300000Y-82000000D03*
X17275000Y-38400000D03*
X9275000Y-45300000D03*
X9275000Y-49100000D03*
X5750000Y-82425000D03*
X8575000Y-95750000D03*
X19062500Y-85950000D03*
X16612500Y-45400000D03*
X9200000Y-32225000D03*
X8375000Y-68900000D03*
X19062500Y-78700000D03*
X16649999Y-32250000D03*
X4025000Y-54200000D03*
X3700000Y-87750000D03*
X8000000Y-71775000D03*
X16325000Y-37400000D03*
X11075000Y-55950000D03*
X19925000Y-72250000D03*
X28300000Y-71725000D03*
X8100000Y-80775000D03*
X6900000Y-92450000D03*
X20450000Y-59600000D03*
X1000000Y-56050000D03*
X8375000Y-62350000D03*
X10500000Y-88425000D03*
X8375000Y-65500000D03*
X13025000Y-39400000D03*
X28500000Y-79425000D03*
X20450000Y-43350000D03*
X4000000Y-45587500D03*
X20462500Y-57800000D03*
X12775000Y-46900000D03*
X22000000Y-62425000D03*
X7750000Y-85525000D03*
X13200000Y-68250000D03*
X20500000Y-66800000D03*
X15212500Y-81250000D03*
X4950000Y-59250000D03*
X15775000Y-58500000D03*
X7675000Y-31300000D03*
X27200000Y-96175000D03*
X23812500Y-96700000D03*
X15925000Y-28500000D03*
X17512500Y-68300000D03*
X22000000Y-42925000D03*
X19825000Y-75250000D03*
X22000000Y-77125000D03*
X14375000Y-34850000D03*
X3950000Y-82750000D03*
X27500000Y-72175000D03*
X18275000Y-64000000D03*
X10425000Y-90500000D03*
X6525000Y-57000000D03*
X15100000Y-47775000D03*
X18950000Y-68250000D03*
X15212500Y-82000000D03*
X20750000Y-91925000D03*
X3175000Y-90750000D03*
X10462500Y-56475000D03*
X4775000Y-49700000D03*
X22612500Y-85800000D03*
X28000000Y-84225000D03*
X16700000Y-59025000D03*
%TO.N,VOUT_5V*%
X6675000Y-60250000D03*
X6675000Y-59550000D03*
X10800000Y-61250000D03*
%TD*%
%TO.N,VOUT_5V*%
D23*
X7675000Y-61250000D02*
X6675000Y-60250000D01*
X10800000Y-61250000D02*
X7675000Y-61250000D01*
X6675000Y-60250000D02*
X6675000Y-59550000D01*
%TD*%
M02*
