ISO-10303-21;
HEADER;
/* Generated by software containing ST-Developer
 * from STEP Tools, Inc. (www.steptools.com) 
 */

FILE_DESCRIPTION(
/* description */ (
'Manufacturer Rev B mounting dimensions; no scaled SMA. Undimensioned 
mating barrel/internal details are visual references. See provenance J
SON.'),
/* implementation_level */ '2;1');

FILE_NAME(
/* name */ 'Amphenol_RF_142138_Drawing_Reconstruction.step',
/* time_stamp */ '2026-09-07T14:38:51+02:00',
/* author */ (''),
/* organization */ (''),
/* preprocessor_version */ 'ST-DEVELOPER v20.2',
/* originating_system */ 'Autodesk Translation Framework v15.15.0.0',
/* authorisation */ '');

FILE_SCHEMA (('AUTOMOTIVE_DESIGN { 1 0 10303 214 3 1 1 }'));
ENDSEC;

DATA;
#10=MECHANICAL_DESIGN_GEOMETRIC_PRESENTATION_REPRESENTATION('',(#13,#14,
#15),#1027);
#11=SHAPE_REPRESENTATION_RELATIONSHIP('SRR','None',#1034,#12);
#12=ADVANCED_BREP_SHAPE_REPRESENTATION('',(#16,#17,#18),#1026);
#13=STYLED_ITEM('',(#1044),#16);
#14=STYLED_ITEM('',(#1044),#17);
#15=STYLED_ITEM('',(#1045),#18);
#16=MANIFOLD_SOLID_BREP(
'Brass shell and four 1.02 mm square tails - barrel profile reference',
#621);
#17=MANIFOLD_SOLID_BREP(
'Signal contact - exact solder tail; mating end reference',#622);
#18=MANIFOLD_SOLID_BREP(
'PTFE insulator reference - internal dimensions unverified',#623);
#19=FACE_BOUND('',#102,.T.);
#20=FACE_BOUND('',#128,.T.);
#21=FACE_BOUND('',#130,.T.);
#22=FACE_BOUND('',#131,.T.);
#23=FACE_BOUND('',#132,.T.);
#24=FACE_BOUND('',#133,.T.);
#25=FACE_BOUND('',#134,.T.);
#26=FACE_BOUND('',#139,.T.);
#27=FACE_BOUND('',#144,.T.);
#28=FACE_BOUND('',#146,.T.);
#29=PLANE('',#643);
#30=PLANE('',#644);
#31=PLANE('',#645);
#32=PLANE('',#646);
#33=PLANE('',#647);
#34=PLANE('',#648);
#35=PLANE('',#649);
#36=PLANE('',#650);
#37=PLANE('',#651);
#38=PLANE('',#652);
#39=PLANE('',#653);
#40=PLANE('',#654);
#41=PLANE('',#655);
#42=PLANE('',#656);
#43=PLANE('',#657);
#44=PLANE('',#658);
#45=PLANE('',#659);
#46=PLANE('',#660);
#47=PLANE('',#661);
#48=PLANE('',#662);
#49=PLANE('',#663);
#50=PLANE('',#664);
#51=PLANE('',#665);
#52=PLANE('',#666);
#53=PLANE('',#667);
#54=PLANE('',#668);
#55=PLANE('',#669);
#56=PLANE('',#673);
#57=PLANE('',#677);
#58=PLANE('',#678);
#59=PLANE('',#685);
#60=PLANE('',#686);
#61=FACE_OUTER_BOUND('',#99,.T.);
#62=FACE_OUTER_BOUND('',#100,.T.);
#63=FACE_OUTER_BOUND('',#101,.T.);
#64=FACE_OUTER_BOUND('',#103,.T.);
#65=FACE_OUTER_BOUND('',#104,.T.);
#66=FACE_OUTER_BOUND('',#105,.T.);
#67=FACE_OUTER_BOUND('',#106,.T.);
#68=FACE_OUTER_BOUND('',#107,.T.);
#69=FACE_OUTER_BOUND('',#108,.T.);
#70=FACE_OUTER_BOUND('',#109,.T.);
#71=FACE_OUTER_BOUND('',#110,.T.);
#72=FACE_OUTER_BOUND('',#111,.T.);
#73=FACE_OUTER_BOUND('',#112,.T.);
#74=FACE_OUTER_BOUND('',#113,.T.);
#75=FACE_OUTER_BOUND('',#114,.T.);
#76=FACE_OUTER_BOUND('',#115,.T.);
#77=FACE_OUTER_BOUND('',#116,.T.);
#78=FACE_OUTER_BOUND('',#117,.T.);
#79=FACE_OUTER_BOUND('',#118,.T.);
#80=FACE_OUTER_BOUND('',#119,.T.);
#81=FACE_OUTER_BOUND('',#120,.T.);
#82=FACE_OUTER_BOUND('',#121,.T.);
#83=FACE_OUTER_BOUND('',#122,.T.);
#84=FACE_OUTER_BOUND('',#123,.T.);
#85=FACE_OUTER_BOUND('',#124,.T.);
#86=FACE_OUTER_BOUND('',#125,.T.);
#87=FACE_OUTER_BOUND('',#126,.T.);
#88=FACE_OUTER_BOUND('',#127,.T.);
#89=FACE_OUTER_BOUND('',#129,.T.);
#90=FACE_OUTER_BOUND('',#135,.T.);
#91=FACE_OUTER_BOUND('',#136,.T.);
#92=FACE_OUTER_BOUND('',#137,.T.);
#93=FACE_OUTER_BOUND('',#138,.T.);
#94=FACE_OUTER_BOUND('',#140,.T.);
#95=FACE_OUTER_BOUND('',#141,.T.);
#96=FACE_OUTER_BOUND('',#142,.T.);
#97=FACE_OUTER_BOUND('',#143,.T.);
#98=FACE_OUTER_BOUND('',#145,.T.);
#99=EDGE_LOOP('',(#421,#422,#423,#424));
#100=EDGE_LOOP('',(#425,#426,#427,#428));
#101=EDGE_LOOP('',(#429));
#102=EDGE_LOOP('',(#430));
#103=EDGE_LOOP('',(#431,#432,#433,#434));
#104=EDGE_LOOP('',(#435,#436,#437,#438));
#105=EDGE_LOOP('',(#439,#440,#441,#442));
#106=EDGE_LOOP('',(#443,#444,#445,#446));
#107=EDGE_LOOP('',(#447,#448,#449,#450));
#108=EDGE_LOOP('',(#451,#452,#453,#454));
#109=EDGE_LOOP('',(#455,#456,#457,#458));
#110=EDGE_LOOP('',(#459,#460,#461,#462));
#111=EDGE_LOOP('',(#463,#464,#465,#466));
#112=EDGE_LOOP('',(#467,#468,#469,#470));
#113=EDGE_LOOP('',(#471,#472,#473,#474));
#114=EDGE_LOOP('',(#475,#476,#477,#478));
#115=EDGE_LOOP('',(#479,#480,#481,#482));
#116=EDGE_LOOP('',(#483,#484,#485,#486));
#117=EDGE_LOOP('',(#487,#488,#489,#490));
#118=EDGE_LOOP('',(#491,#492,#493,#494));
#119=EDGE_LOOP('',(#495,#496,#497,#498));
#120=EDGE_LOOP('',(#499,#500,#501,#502));
#121=EDGE_LOOP('',(#503,#504,#505,#506));
#122=EDGE_LOOP('',(#507,#508,#509,#510));
#123=EDGE_LOOP('',(#511,#512,#513,#514));
#124=EDGE_LOOP('',(#515,#516,#517,#518));
#125=EDGE_LOOP('',(#519,#520,#521,#522));
#126=EDGE_LOOP('',(#523,#524,#525,#526));
#127=EDGE_LOOP('',(#527,#528,#529,#530));
#128=EDGE_LOOP('',(#531));
#129=EDGE_LOOP('',(#532,#533,#534,#535));
#130=EDGE_LOOP('',(#536));
#131=EDGE_LOOP('',(#537,#538,#539,#540));
#132=EDGE_LOOP('',(#541,#542,#543,#544));
#133=EDGE_LOOP('',(#545,#546,#547,#548));
#134=EDGE_LOOP('',(#549,#550,#551,#552));
#135=EDGE_LOOP('',(#553,#554,#555,#556));
#136=EDGE_LOOP('',(#557));
#137=EDGE_LOOP('',(#558,#559,#560,#561));
#138=EDGE_LOOP('',(#562));
#139=EDGE_LOOP('',(#563));
#140=EDGE_LOOP('',(#564));
#141=EDGE_LOOP('',(#565,#566,#567,#568));
#142=EDGE_LOOP('',(#569,#570,#571,#572));
#143=EDGE_LOOP('',(#573));
#144=EDGE_LOOP('',(#574));
#145=EDGE_LOOP('',(#575));
#146=EDGE_LOOP('',(#576));
#147=LINE('',#860,#213);
#148=LINE('',#866,#214);
#149=LINE('',#872,#215);
#150=LINE('',#874,#216);
#151=LINE('',#876,#217);
#152=LINE('',#877,#218);
#153=LINE('',#880,#219);
#154=LINE('',#882,#220);
#155=LINE('',#883,#221);
#156=LINE('',#886,#222);
#157=LINE('',#888,#223);
#158=LINE('',#889,#224);
#159=LINE('',#891,#225);
#160=LINE('',#892,#226);
#161=LINE('',#897,#227);
#162=LINE('',#899,#228);
#163=LINE('',#901,#229);
#164=LINE('',#902,#230);
#165=LINE('',#905,#231);
#166=LINE('',#907,#232);
#167=LINE('',#908,#233);
#168=LINE('',#911,#234);
#169=LINE('',#913,#235);
#170=LINE('',#914,#236);
#171=LINE('',#916,#237);
#172=LINE('',#917,#238);
#173=LINE('',#922,#239);
#174=LINE('',#924,#240);
#175=LINE('',#926,#241);
#176=LINE('',#927,#242);
#177=LINE('',#930,#243);
#178=LINE('',#932,#244);
#179=LINE('',#933,#245);
#180=LINE('',#936,#246);
#181=LINE('',#938,#247);
#182=LINE('',#939,#248);
#183=LINE('',#941,#249);
#184=LINE('',#942,#250);
#185=LINE('',#947,#251);
#186=LINE('',#949,#252);
#187=LINE('',#951,#253);
#188=LINE('',#952,#254);
#189=LINE('',#955,#255);
#190=LINE('',#957,#256);
#191=LINE('',#958,#257);
#192=LINE('',#961,#258);
#193=LINE('',#963,#259);
#194=LINE('',#964,#260);
#195=LINE('',#966,#261);
#196=LINE('',#967,#262);
#197=LINE('',#972,#263);
#198=LINE('',#974,#264);
#199=LINE('',#976,#265);
#200=LINE('',#977,#266);
#201=LINE('',#980,#267);
#202=LINE('',#982,#268);
#203=LINE('',#983,#269);
#204=LINE('',#986,#270);
#205=LINE('',#988,#271);
#206=LINE('',#989,#272);
#207=LINE('',#991,#273);
#208=LINE('',#992,#274);
#209=LINE('',#999,#275);
#210=LINE('',#1006,#276);
#211=LINE('',#1014,#277);
#212=LINE('',#1020,#278);
#213=VECTOR('',#693,0.10414);
#214=VECTOR('',#700,0.18542);
#215=VECTOR('',#707,1.);
#216=VECTOR('',#708,1.);
#217=VECTOR('',#709,1.);
#218=VECTOR('',#710,1.);
#219=VECTOR('',#713,1.);
#220=VECTOR('',#714,1.);
#221=VECTOR('',#715,1.);
#222=VECTOR('',#718,1.);
#223=VECTOR('',#719,1.);
#224=VECTOR('',#720,1.);
#225=VECTOR('',#723,1.);
#226=VECTOR('',#724,1.);
#227=VECTOR('',#729,1.);
#228=VECTOR('',#730,1.);
#229=VECTOR('',#731,1.);
#230=VECTOR('',#732,1.);
#231=VECTOR('',#735,1.);
#232=VECTOR('',#736,1.);
#233=VECTOR('',#737,1.);
#234=VECTOR('',#740,1.);
#235=VECTOR('',#741,1.);
#236=VECTOR('',#742,1.);
#237=VECTOR('',#745,1.);
#238=VECTOR('',#746,1.);
#239=VECTOR('',#751,1.);
#240=VECTOR('',#752,1.);
#241=VECTOR('',#753,1.);
#242=VECTOR('',#754,1.);
#243=VECTOR('',#757,1.);
#244=VECTOR('',#758,1.);
#245=VECTOR('',#759,1.);
#246=VECTOR('',#762,1.);
#247=VECTOR('',#763,1.);
#248=VECTOR('',#764,1.);
#249=VECTOR('',#767,1.);
#250=VECTOR('',#768,1.);
#251=VECTOR('',#773,1.);
#252=VECTOR('',#774,1.);
#253=VECTOR('',#775,1.);
#254=VECTOR('',#776,1.);
#255=VECTOR('',#779,1.);
#256=VECTOR('',#780,1.);
#257=VECTOR('',#781,1.);
#258=VECTOR('',#784,1.);
#259=VECTOR('',#785,1.);
#260=VECTOR('',#786,1.);
#261=VECTOR('',#789,1.);
#262=VECTOR('',#790,1.);
#263=VECTOR('',#795,1.);
#264=VECTOR('',#796,1.);
#265=VECTOR('',#797,1.);
#266=VECTOR('',#798,1.);
#267=VECTOR('',#801,1.);
#268=VECTOR('',#802,1.);
#269=VECTOR('',#803,1.);
#270=VECTOR('',#806,1.);
#271=VECTOR('',#807,1.);
#272=VECTOR('',#808,1.);
#273=VECTOR('',#811,1.);
#274=VECTOR('',#812,1.);
#275=VECTOR('',#821,0.0254);
#276=VECTOR('',#830,0.048);
#277=VECTOR('',#841,0.0485);
#278=VECTOR('',#848,0.10364);
#279=CIRCLE('',#638,0.10414);
#280=CIRCLE('',#639,0.10414);
#281=CIRCLE('',#641,0.18542);
#282=CIRCLE('',#642,0.18542);
#283=CIRCLE('',#671,0.0254);
#284=CIRCLE('',#672,0.0254);
#285=CIRCLE('',#675,0.048);
#286=CIRCLE('',#676,0.048);
#287=CIRCLE('',#680,0.0485);
#288=CIRCLE('',#681,0.0485);
#289=CIRCLE('',#683,0.10364);
#290=CIRCLE('',#684,0.10364);
#291=VERTEX_POINT('',#857);
#292=VERTEX_POINT('',#859);
#293=VERTEX_POINT('',#863);
#294=VERTEX_POINT('',#865);
#295=VERTEX_POINT('',#870);
#296=VERTEX_POINT('',#871);
#297=VERTEX_POINT('',#873);
#298=VERTEX_POINT('',#875);
#299=VERTEX_POINT('',#879);
#300=VERTEX_POINT('',#881);
#301=VERTEX_POINT('',#885);
#302=VERTEX_POINT('',#887);
#303=VERTEX_POINT('',#895);
#304=VERTEX_POINT('',#896);
#305=VERTEX_POINT('',#898);
#306=VERTEX_POINT('',#900);
#307=VERTEX_POINT('',#904);
#308=VERTEX_POINT('',#906);
#309=VERTEX_POINT('',#910);
#310=VERTEX_POINT('',#912);
#311=VERTEX_POINT('',#920);
#312=VERTEX_POINT('',#921);
#313=VERTEX_POINT('',#923);
#314=VERTEX_POINT('',#925);
#315=VERTEX_POINT('',#929);
#316=VERTEX_POINT('',#931);
#317=VERTEX_POINT('',#935);
#318=VERTEX_POINT('',#937);
#319=VERTEX_POINT('',#945);
#320=VERTEX_POINT('',#946);
#321=VERTEX_POINT('',#948);
#322=VERTEX_POINT('',#950);
#323=VERTEX_POINT('',#954);
#324=VERTEX_POINT('',#956);
#325=VERTEX_POINT('',#960);
#326=VERTEX_POINT('',#962);
#327=VERTEX_POINT('',#970);
#328=VERTEX_POINT('',#971);
#329=VERTEX_POINT('',#973);
#330=VERTEX_POINT('',#975);
#331=VERTEX_POINT('',#979);
#332=VERTEX_POINT('',#981);
#333=VERTEX_POINT('',#985);
#334=VERTEX_POINT('',#987);
#335=VERTEX_POINT('',#996);
#336=VERTEX_POINT('',#998);
#337=VERTEX_POINT('',#1003);
#338=VERTEX_POINT('',#1005);
#339=VERTEX_POINT('',#1011);
#340=VERTEX_POINT('',#1013);
#341=VERTEX_POINT('',#1017);
#342=VERTEX_POINT('',#1019);
#343=EDGE_CURVE('',#291,#291,#279,.T.);
#344=EDGE_CURVE('',#291,#292,#147,.T.);
#345=EDGE_CURVE('',#292,#292,#280,.T.);
#346=EDGE_CURVE('',#293,#293,#281,.T.);
#347=EDGE_CURVE('',#293,#294,#148,.T.);
#348=EDGE_CURVE('',#294,#294,#282,.T.);
#349=EDGE_CURVE('',#295,#296,#149,.T.);
#350=EDGE_CURVE('',#296,#297,#150,.T.);
#351=EDGE_CURVE('',#298,#297,#151,.T.);
#352=EDGE_CURVE('',#295,#298,#152,.T.);
#353=EDGE_CURVE('',#299,#295,#153,.T.);
#354=EDGE_CURVE('',#300,#298,#154,.T.);
#355=EDGE_CURVE('',#299,#300,#155,.T.);
#356=EDGE_CURVE('',#301,#299,#156,.T.);
#357=EDGE_CURVE('',#302,#300,#157,.T.);
#358=EDGE_CURVE('',#301,#302,#158,.T.);
#359=EDGE_CURVE('',#296,#301,#159,.T.);
#360=EDGE_CURVE('',#297,#302,#160,.T.);
#361=EDGE_CURVE('',#303,#304,#161,.T.);
#362=EDGE_CURVE('',#304,#305,#162,.T.);
#363=EDGE_CURVE('',#306,#305,#163,.T.);
#364=EDGE_CURVE('',#303,#306,#164,.T.);
#365=EDGE_CURVE('',#307,#303,#165,.T.);
#366=EDGE_CURVE('',#308,#306,#166,.T.);
#367=EDGE_CURVE('',#307,#308,#167,.T.);
#368=EDGE_CURVE('',#309,#307,#168,.T.);
#369=EDGE_CURVE('',#310,#308,#169,.T.);
#370=EDGE_CURVE('',#309,#310,#170,.T.);
#371=EDGE_CURVE('',#304,#309,#171,.T.);
#372=EDGE_CURVE('',#305,#310,#172,.T.);
#373=EDGE_CURVE('',#311,#312,#173,.T.);
#374=EDGE_CURVE('',#312,#313,#174,.T.);
#375=EDGE_CURVE('',#314,#313,#175,.T.);
#376=EDGE_CURVE('',#311,#314,#176,.T.);
#377=EDGE_CURVE('',#315,#311,#177,.T.);
#378=EDGE_CURVE('',#316,#314,#178,.T.);
#379=EDGE_CURVE('',#315,#316,#179,.T.);
#380=EDGE_CURVE('',#317,#315,#180,.T.);
#381=EDGE_CURVE('',#318,#316,#181,.T.);
#382=EDGE_CURVE('',#317,#318,#182,.T.);
#383=EDGE_CURVE('',#312,#317,#183,.T.);
#384=EDGE_CURVE('',#313,#318,#184,.T.);
#385=EDGE_CURVE('',#319,#320,#185,.T.);
#386=EDGE_CURVE('',#320,#321,#186,.T.);
#387=EDGE_CURVE('',#322,#321,#187,.T.);
#388=EDGE_CURVE('',#319,#322,#188,.T.);
#389=EDGE_CURVE('',#323,#319,#189,.T.);
#390=EDGE_CURVE('',#324,#322,#190,.T.);
#391=EDGE_CURVE('',#323,#324,#191,.T.);
#392=EDGE_CURVE('',#325,#323,#192,.T.);
#393=EDGE_CURVE('',#326,#324,#193,.T.);
#394=EDGE_CURVE('',#325,#326,#194,.T.);
#395=EDGE_CURVE('',#320,#325,#195,.T.);
#396=EDGE_CURVE('',#321,#326,#196,.T.);
#397=EDGE_CURVE('',#327,#328,#197,.T.);
#398=EDGE_CURVE('',#328,#329,#198,.T.);
#399=EDGE_CURVE('',#330,#329,#199,.T.);
#400=EDGE_CURVE('',#327,#330,#200,.T.);
#401=EDGE_CURVE('',#331,#327,#201,.T.);
#402=EDGE_CURVE('',#332,#330,#202,.T.);
#403=EDGE_CURVE('',#331,#332,#203,.T.);
#404=EDGE_CURVE('',#333,#331,#204,.T.);
#405=EDGE_CURVE('',#334,#332,#205,.T.);
#406=EDGE_CURVE('',#333,#334,#206,.T.);
#407=EDGE_CURVE('',#328,#333,#207,.T.);
#408=EDGE_CURVE('',#329,#334,#208,.T.);
#409=EDGE_CURVE('',#335,#335,#283,.T.);
#410=EDGE_CURVE('',#335,#336,#209,.T.);
#411=EDGE_CURVE('',#336,#336,#284,.T.);
#412=EDGE_CURVE('',#337,#337,#285,.T.);
#413=EDGE_CURVE('',#337,#338,#210,.T.);
#414=EDGE_CURVE('',#338,#338,#286,.T.);
#415=EDGE_CURVE('',#339,#339,#287,.T.);
#416=EDGE_CURVE('',#339,#340,#211,.T.);
#417=EDGE_CURVE('',#340,#340,#288,.T.);
#418=EDGE_CURVE('',#341,#341,#289,.T.);
#419=EDGE_CURVE('',#341,#342,#212,.T.);
#420=EDGE_CURVE('',#342,#342,#290,.T.);
#421=ORIENTED_EDGE('',*,*,#343,.F.);
#422=ORIENTED_EDGE('',*,*,#344,.T.);
#423=ORIENTED_EDGE('',*,*,#345,.F.);
#424=ORIENTED_EDGE('',*,*,#344,.F.);
#425=ORIENTED_EDGE('',*,*,#346,.F.);
#426=ORIENTED_EDGE('',*,*,#347,.T.);
#427=ORIENTED_EDGE('',*,*,#348,.F.);
#428=ORIENTED_EDGE('',*,*,#347,.F.);
#429=ORIENTED_EDGE('',*,*,#346,.T.);
#430=ORIENTED_EDGE('',*,*,#345,.T.);
#431=ORIENTED_EDGE('',*,*,#349,.T.);
#432=ORIENTED_EDGE('',*,*,#350,.T.);
#433=ORIENTED_EDGE('',*,*,#351,.F.);
#434=ORIENTED_EDGE('',*,*,#352,.F.);
#435=ORIENTED_EDGE('',*,*,#353,.T.);
#436=ORIENTED_EDGE('',*,*,#352,.T.);
#437=ORIENTED_EDGE('',*,*,#354,.F.);
#438=ORIENTED_EDGE('',*,*,#355,.F.);
#439=ORIENTED_EDGE('',*,*,#356,.T.);
#440=ORIENTED_EDGE('',*,*,#355,.T.);
#441=ORIENTED_EDGE('',*,*,#357,.F.);
#442=ORIENTED_EDGE('',*,*,#358,.F.);
#443=ORIENTED_EDGE('',*,*,#359,.T.);
#444=ORIENTED_EDGE('',*,*,#358,.T.);
#445=ORIENTED_EDGE('',*,*,#360,.F.);
#446=ORIENTED_EDGE('',*,*,#350,.F.);
#447=ORIENTED_EDGE('',*,*,#359,.F.);
#448=ORIENTED_EDGE('',*,*,#349,.F.);
#449=ORIENTED_EDGE('',*,*,#353,.F.);
#450=ORIENTED_EDGE('',*,*,#356,.F.);
#451=ORIENTED_EDGE('',*,*,#361,.T.);
#452=ORIENTED_EDGE('',*,*,#362,.T.);
#453=ORIENTED_EDGE('',*,*,#363,.F.);
#454=ORIENTED_EDGE('',*,*,#364,.F.);
#455=ORIENTED_EDGE('',*,*,#365,.T.);
#456=ORIENTED_EDGE('',*,*,#364,.T.);
#457=ORIENTED_EDGE('',*,*,#366,.F.);
#458=ORIENTED_EDGE('',*,*,#367,.F.);
#459=ORIENTED_EDGE('',*,*,#368,.T.);
#460=ORIENTED_EDGE('',*,*,#367,.T.);
#461=ORIENTED_EDGE('',*,*,#369,.F.);
#462=ORIENTED_EDGE('',*,*,#370,.F.);
#463=ORIENTED_EDGE('',*,*,#371,.T.);
#464=ORIENTED_EDGE('',*,*,#370,.T.);
#465=ORIENTED_EDGE('',*,*,#372,.F.);
#466=ORIENTED_EDGE('',*,*,#362,.F.);
#467=ORIENTED_EDGE('',*,*,#371,.F.);
#468=ORIENTED_EDGE('',*,*,#361,.F.);
#469=ORIENTED_EDGE('',*,*,#365,.F.);
#470=ORIENTED_EDGE('',*,*,#368,.F.);
#471=ORIENTED_EDGE('',*,*,#373,.T.);
#472=ORIENTED_EDGE('',*,*,#374,.T.);
#473=ORIENTED_EDGE('',*,*,#375,.F.);
#474=ORIENTED_EDGE('',*,*,#376,.F.);
#475=ORIENTED_EDGE('',*,*,#377,.T.);
#476=ORIENTED_EDGE('',*,*,#376,.T.);
#477=ORIENTED_EDGE('',*,*,#378,.F.);
#478=ORIENTED_EDGE('',*,*,#379,.F.);
#479=ORIENTED_EDGE('',*,*,#380,.T.);
#480=ORIENTED_EDGE('',*,*,#379,.T.);
#481=ORIENTED_EDGE('',*,*,#381,.F.);
#482=ORIENTED_EDGE('',*,*,#382,.F.);
#483=ORIENTED_EDGE('',*,*,#383,.T.);
#484=ORIENTED_EDGE('',*,*,#382,.T.);
#485=ORIENTED_EDGE('',*,*,#384,.F.);
#486=ORIENTED_EDGE('',*,*,#374,.F.);
#487=ORIENTED_EDGE('',*,*,#383,.F.);
#488=ORIENTED_EDGE('',*,*,#373,.F.);
#489=ORIENTED_EDGE('',*,*,#377,.F.);
#490=ORIENTED_EDGE('',*,*,#380,.F.);
#491=ORIENTED_EDGE('',*,*,#385,.T.);
#492=ORIENTED_EDGE('',*,*,#386,.T.);
#493=ORIENTED_EDGE('',*,*,#387,.F.);
#494=ORIENTED_EDGE('',*,*,#388,.F.);
#495=ORIENTED_EDGE('',*,*,#389,.T.);
#496=ORIENTED_EDGE('',*,*,#388,.T.);
#497=ORIENTED_EDGE('',*,*,#390,.F.);
#498=ORIENTED_EDGE('',*,*,#391,.F.);
#499=ORIENTED_EDGE('',*,*,#392,.T.);
#500=ORIENTED_EDGE('',*,*,#391,.T.);
#501=ORIENTED_EDGE('',*,*,#393,.F.);
#502=ORIENTED_EDGE('',*,*,#394,.F.);
#503=ORIENTED_EDGE('',*,*,#395,.T.);
#504=ORIENTED_EDGE('',*,*,#394,.T.);
#505=ORIENTED_EDGE('',*,*,#396,.F.);
#506=ORIENTED_EDGE('',*,*,#386,.F.);
#507=ORIENTED_EDGE('',*,*,#395,.F.);
#508=ORIENTED_EDGE('',*,*,#385,.F.);
#509=ORIENTED_EDGE('',*,*,#389,.F.);
#510=ORIENTED_EDGE('',*,*,#392,.F.);
#511=ORIENTED_EDGE('',*,*,#397,.T.);
#512=ORIENTED_EDGE('',*,*,#398,.T.);
#513=ORIENTED_EDGE('',*,*,#399,.F.);
#514=ORIENTED_EDGE('',*,*,#400,.F.);
#515=ORIENTED_EDGE('',*,*,#401,.T.);
#516=ORIENTED_EDGE('',*,*,#400,.T.);
#517=ORIENTED_EDGE('',*,*,#402,.F.);
#518=ORIENTED_EDGE('',*,*,#403,.F.);
#519=ORIENTED_EDGE('',*,*,#404,.T.);
#520=ORIENTED_EDGE('',*,*,#403,.T.);
#521=ORIENTED_EDGE('',*,*,#405,.F.);
#522=ORIENTED_EDGE('',*,*,#406,.F.);
#523=ORIENTED_EDGE('',*,*,#407,.T.);
#524=ORIENTED_EDGE('',*,*,#406,.T.);
#525=ORIENTED_EDGE('',*,*,#408,.F.);
#526=ORIENTED_EDGE('',*,*,#398,.F.);
#527=ORIENTED_EDGE('',*,*,#408,.T.);
#528=ORIENTED_EDGE('',*,*,#405,.T.);
#529=ORIENTED_EDGE('',*,*,#402,.T.);
#530=ORIENTED_EDGE('',*,*,#399,.T.);
#531=ORIENTED_EDGE('',*,*,#348,.T.);
#532=ORIENTED_EDGE('',*,*,#407,.F.);
#533=ORIENTED_EDGE('',*,*,#397,.F.);
#534=ORIENTED_EDGE('',*,*,#401,.F.);
#535=ORIENTED_EDGE('',*,*,#404,.F.);
#536=ORIENTED_EDGE('',*,*,#343,.T.);
#537=ORIENTED_EDGE('',*,*,#351,.T.);
#538=ORIENTED_EDGE('',*,*,#360,.T.);
#539=ORIENTED_EDGE('',*,*,#357,.T.);
#540=ORIENTED_EDGE('',*,*,#354,.T.);
#541=ORIENTED_EDGE('',*,*,#363,.T.);
#542=ORIENTED_EDGE('',*,*,#372,.T.);
#543=ORIENTED_EDGE('',*,*,#369,.T.);
#544=ORIENTED_EDGE('',*,*,#366,.T.);
#545=ORIENTED_EDGE('',*,*,#375,.T.);
#546=ORIENTED_EDGE('',*,*,#384,.T.);
#547=ORIENTED_EDGE('',*,*,#381,.T.);
#548=ORIENTED_EDGE('',*,*,#378,.T.);
#549=ORIENTED_EDGE('',*,*,#387,.T.);
#550=ORIENTED_EDGE('',*,*,#396,.T.);
#551=ORIENTED_EDGE('',*,*,#393,.T.);
#552=ORIENTED_EDGE('',*,*,#390,.T.);
#553=ORIENTED_EDGE('',*,*,#409,.F.);
#554=ORIENTED_EDGE('',*,*,#410,.T.);
#555=ORIENTED_EDGE('',*,*,#411,.F.);
#556=ORIENTED_EDGE('',*,*,#410,.F.);
#557=ORIENTED_EDGE('',*,*,#409,.T.);
#558=ORIENTED_EDGE('',*,*,#412,.F.);
#559=ORIENTED_EDGE('',*,*,#413,.T.);
#560=ORIENTED_EDGE('',*,*,#414,.T.);
#561=ORIENTED_EDGE('',*,*,#413,.F.);
#562=ORIENTED_EDGE('',*,*,#412,.T.);
#563=ORIENTED_EDGE('',*,*,#411,.T.);
#564=ORIENTED_EDGE('',*,*,#414,.F.);
#565=ORIENTED_EDGE('',*,*,#415,.F.);
#566=ORIENTED_EDGE('',*,*,#416,.T.);
#567=ORIENTED_EDGE('',*,*,#417,.F.);
#568=ORIENTED_EDGE('',*,*,#416,.F.);
#569=ORIENTED_EDGE('',*,*,#418,.F.);
#570=ORIENTED_EDGE('',*,*,#419,.T.);
#571=ORIENTED_EDGE('',*,*,#420,.T.);
#572=ORIENTED_EDGE('',*,*,#419,.F.);
#573=ORIENTED_EDGE('',*,*,#418,.T.);
#574=ORIENTED_EDGE('',*,*,#417,.T.);
#575=ORIENTED_EDGE('',*,*,#420,.F.);
#576=ORIENTED_EDGE('',*,*,#415,.T.);
#577=CYLINDRICAL_SURFACE('',#637,0.10414);
#578=CYLINDRICAL_SURFACE('',#640,0.18542);
#579=CYLINDRICAL_SURFACE('',#670,0.0254);
#580=CYLINDRICAL_SURFACE('',#674,0.048);
#581=CYLINDRICAL_SURFACE('',#679,0.0485);
#582=CYLINDRICAL_SURFACE('',#682,0.10364);
#583=ADVANCED_FACE('',(#61),#577,.F.);
#584=ADVANCED_FACE('',(#62),#578,.T.);
#585=ADVANCED_FACE('',(#63,#19),#29,.T.);
#586=ADVANCED_FACE('',(#64),#30,.T.);
#587=ADVANCED_FACE('',(#65),#31,.T.);
#588=ADVANCED_FACE('',(#66),#32,.T.);
#589=ADVANCED_FACE('',(#67),#33,.T.);
#590=ADVANCED_FACE('',(#68),#34,.F.);
#591=ADVANCED_FACE('',(#69),#35,.T.);
#592=ADVANCED_FACE('',(#70),#36,.T.);
#593=ADVANCED_FACE('',(#71),#37,.T.);
#594=ADVANCED_FACE('',(#72),#38,.T.);
#595=ADVANCED_FACE('',(#73),#39,.F.);
#596=ADVANCED_FACE('',(#74),#40,.T.);
#597=ADVANCED_FACE('',(#75),#41,.T.);
#598=ADVANCED_FACE('',(#76),#42,.T.);
#599=ADVANCED_FACE('',(#77),#43,.T.);
#600=ADVANCED_FACE('',(#78),#44,.F.);
#601=ADVANCED_FACE('',(#79),#45,.T.);
#602=ADVANCED_FACE('',(#80),#46,.T.);
#603=ADVANCED_FACE('',(#81),#47,.T.);
#604=ADVANCED_FACE('',(#82),#48,.T.);
#605=ADVANCED_FACE('',(#83),#49,.F.);
#606=ADVANCED_FACE('',(#84),#50,.T.);
#607=ADVANCED_FACE('',(#85),#51,.T.);
#608=ADVANCED_FACE('',(#86),#52,.T.);
#609=ADVANCED_FACE('',(#87),#53,.T.);
#610=ADVANCED_FACE('',(#88,#20),#54,.T.);
#611=ADVANCED_FACE('',(#89,#21,#22,#23,#24,#25),#55,.F.);
#612=ADVANCED_FACE('',(#90),#579,.T.);
#613=ADVANCED_FACE('',(#91),#56,.T.);
#614=ADVANCED_FACE('',(#92),#580,.T.);
#615=ADVANCED_FACE('',(#93,#26),#57,.T.);
#616=ADVANCED_FACE('',(#94),#58,.F.);
#617=ADVANCED_FACE('',(#95),#581,.F.);
#618=ADVANCED_FACE('',(#96),#582,.T.);
#619=ADVANCED_FACE('',(#97,#27),#59,.T.);
#620=ADVANCED_FACE('',(#98,#28),#60,.F.);
#621=CLOSED_SHELL('',(#583,#584,#585,#586,#587,#588,#589,#590,#591,#592,
#593,#594,#595,#596,#597,#598,#599,#600,#601,#602,#603,#604,#605,#606,#607,
#608,#609,#610,#611));
#622=CLOSED_SHELL('',(#612,#613,#614,#615,#616));
#623=CLOSED_SHELL('',(#617,#618,#619,#620));
#624=DERIVED_UNIT_ELEMENT(#626,1.);
#625=DERIVED_UNIT_ELEMENT(#1029,-3.);
#626=(
MASS_UNIT()
NAMED_UNIT(*)
SI_UNIT(.KILO.,.GRAM.)
);
#627=DERIVED_UNIT((#624,#625));
#628=MEASURE_REPRESENTATION_ITEM('density measure',
POSITIVE_RATIO_MEASURE(7850.),#627);
#629=PROPERTY_DEFINITION_REPRESENTATION(#634,#631);
#630=PROPERTY_DEFINITION_REPRESENTATION(#635,#632);
#631=REPRESENTATION('material name',(#633),#1026);
#632=REPRESENTATION('density',(#628),#1026);
#633=DESCRIPTIVE_REPRESENTATION_ITEM('Steel','Steel');
#634=PROPERTY_DEFINITION('material property','material name',#1036);
#635=PROPERTY_DEFINITION('material property','density of part',#1036);
#636=AXIS2_PLACEMENT_3D('',#855,#687,#688);
#637=AXIS2_PLACEMENT_3D('',#856,#689,#690);
#638=AXIS2_PLACEMENT_3D('',#858,#691,#692);
#639=AXIS2_PLACEMENT_3D('',#861,#694,#695);
#640=AXIS2_PLACEMENT_3D('',#862,#696,#697);
#641=AXIS2_PLACEMENT_3D('',#864,#698,#699);
#642=AXIS2_PLACEMENT_3D('',#867,#701,#702);
#643=AXIS2_PLACEMENT_3D('',#868,#703,#704);
#644=AXIS2_PLACEMENT_3D('',#869,#705,#706);
#645=AXIS2_PLACEMENT_3D('',#878,#711,#712);
#646=AXIS2_PLACEMENT_3D('',#884,#716,#717);
#647=AXIS2_PLACEMENT_3D('',#890,#721,#722);
#648=AXIS2_PLACEMENT_3D('',#893,#725,#726);
#649=AXIS2_PLACEMENT_3D('',#894,#727,#728);
#650=AXIS2_PLACEMENT_3D('',#903,#733,#734);
#651=AXIS2_PLACEMENT_3D('',#909,#738,#739);
#652=AXIS2_PLACEMENT_3D('',#915,#743,#744);
#653=AXIS2_PLACEMENT_3D('',#918,#747,#748);
#654=AXIS2_PLACEMENT_3D('',#919,#749,#750);
#655=AXIS2_PLACEMENT_3D('',#928,#755,#756);
#656=AXIS2_PLACEMENT_3D('',#934,#760,#761);
#657=AXIS2_PLACEMENT_3D('',#940,#765,#766);
#658=AXIS2_PLACEMENT_3D('',#943,#769,#770);
#659=AXIS2_PLACEMENT_3D('',#944,#771,#772);
#660=AXIS2_PLACEMENT_3D('',#953,#777,#778);
#661=AXIS2_PLACEMENT_3D('',#959,#782,#783);
#662=AXIS2_PLACEMENT_3D('',#965,#787,#788);
#663=AXIS2_PLACEMENT_3D('',#968,#791,#792);
#664=AXIS2_PLACEMENT_3D('',#969,#793,#794);
#665=AXIS2_PLACEMENT_3D('',#978,#799,#800);
#666=AXIS2_PLACEMENT_3D('',#984,#804,#805);
#667=AXIS2_PLACEMENT_3D('',#990,#809,#810);
#668=AXIS2_PLACEMENT_3D('',#993,#813,#814);
#669=AXIS2_PLACEMENT_3D('',#994,#815,#816);
#670=AXIS2_PLACEMENT_3D('',#995,#817,#818);
#671=AXIS2_PLACEMENT_3D('',#997,#819,#820);
#672=AXIS2_PLACEMENT_3D('',#1000,#822,#823);
#673=AXIS2_PLACEMENT_3D('',#1001,#824,#825);
#674=AXIS2_PLACEMENT_3D('',#1002,#826,#827);
#675=AXIS2_PLACEMENT_3D('',#1004,#828,#829);
#676=AXIS2_PLACEMENT_3D('',#1007,#831,#832);
#677=AXIS2_PLACEMENT_3D('',#1008,#833,#834);
#678=AXIS2_PLACEMENT_3D('',#1009,#835,#836);
#679=AXIS2_PLACEMENT_3D('',#1010,#837,#838);
#680=AXIS2_PLACEMENT_3D('',#1012,#839,#840);
#681=AXIS2_PLACEMENT_3D('',#1015,#842,#843);
#682=AXIS2_PLACEMENT_3D('',#1016,#844,#845);
#683=AXIS2_PLACEMENT_3D('',#1018,#846,#847);
#684=AXIS2_PLACEMENT_3D('',#1021,#849,#850);
#685=AXIS2_PLACEMENT_3D('',#1022,#851,#852);
#686=AXIS2_PLACEMENT_3D('',#1023,#853,#854);
#687=DIRECTION('axis',(0.,0.,1.));
#688=DIRECTION('refdir',(1.,0.,0.));
#689=DIRECTION('center_axis',(0.,0.,1.));
#690=DIRECTION('ref_axis',(1.,0.,0.));
#691=DIRECTION('center_axis',(0.,0.,1.));
#692=DIRECTION('ref_axis',(1.,0.,0.));
#693=DIRECTION('',(0.,0.,1.));
#694=DIRECTION('center_axis',(0.,0.,-1.));
#695=DIRECTION('ref_axis',(1.,0.,0.));
#696=DIRECTION('center_axis',(0.,0.,1.));
#697=DIRECTION('ref_axis',(1.,0.,0.));
#698=DIRECTION('center_axis',(0.,0.,1.));
#699=DIRECTION('ref_axis',(1.,0.,0.));
#700=DIRECTION('',(0.,0.,-1.));
#701=DIRECTION('center_axis',(0.,0.,-1.));
#702=DIRECTION('ref_axis',(1.,0.,0.));
#703=DIRECTION('center_axis',(0.,0.,1.));
#704=DIRECTION('ref_axis',(1.,0.,0.));
#705=DIRECTION('center_axis',(0.,1.,0.));
#706=DIRECTION('ref_axis',(-1.,0.,0.));
#707=DIRECTION('',(-1.,0.,0.));
#708=DIRECTION('',(0.,0.,1.));
#709=DIRECTION('',(-1.,0.,0.));
#710=DIRECTION('',(0.,0.,1.));
#711=DIRECTION('center_axis',(1.,0.,0.));
#712=DIRECTION('ref_axis',(0.,1.,0.));
#713=DIRECTION('',(0.,1.,0.));
#714=DIRECTION('',(0.,1.,0.));
#715=DIRECTION('',(0.,0.,1.));
#716=DIRECTION('center_axis',(0.,-1.,0.));
#717=DIRECTION('ref_axis',(1.,0.,0.));
#718=DIRECTION('',(1.,0.,0.));
#719=DIRECTION('',(1.,0.,0.));
#720=DIRECTION('',(0.,0.,1.));
#721=DIRECTION('center_axis',(-1.,0.,0.));
#722=DIRECTION('ref_axis',(0.,-1.,0.));
#723=DIRECTION('',(0.,-1.,0.));
#724=DIRECTION('',(0.,-1.,0.));
#725=DIRECTION('center_axis',(0.,0.,1.));
#726=DIRECTION('ref_axis',(1.,0.,0.));
#727=DIRECTION('center_axis',(0.,1.,0.));
#728=DIRECTION('ref_axis',(-1.,0.,0.));
#729=DIRECTION('',(-1.,0.,0.));
#730=DIRECTION('',(0.,0.,1.));
#731=DIRECTION('',(-1.,0.,0.));
#732=DIRECTION('',(0.,0.,1.));
#733=DIRECTION('center_axis',(1.,0.,0.));
#734=DIRECTION('ref_axis',(0.,1.,0.));
#735=DIRECTION('',(0.,1.,0.));
#736=DIRECTION('',(0.,1.,0.));
#737=DIRECTION('',(0.,0.,1.));
#738=DIRECTION('center_axis',(0.,-1.,0.));
#739=DIRECTION('ref_axis',(1.,0.,0.));
#740=DIRECTION('',(1.,0.,0.));
#741=DIRECTION('',(1.,0.,0.));
#742=DIRECTION('',(0.,0.,1.));
#743=DIRECTION('center_axis',(-1.,0.,0.));
#744=DIRECTION('ref_axis',(0.,-1.,0.));
#745=DIRECTION('',(0.,-1.,0.));
#746=DIRECTION('',(0.,-1.,0.));
#747=DIRECTION('center_axis',(0.,0.,1.));
#748=DIRECTION('ref_axis',(1.,0.,0.));
#749=DIRECTION('center_axis',(0.,1.,0.));
#750=DIRECTION('ref_axis',(-1.,0.,0.));
#751=DIRECTION('',(-1.,0.,0.));
#752=DIRECTION('',(0.,0.,1.));
#753=DIRECTION('',(-1.,0.,0.));
#754=DIRECTION('',(0.,0.,1.));
#755=DIRECTION('center_axis',(1.,0.,0.));
#756=DIRECTION('ref_axis',(0.,1.,0.));
#757=DIRECTION('',(0.,1.,0.));
#758=DIRECTION('',(0.,1.,0.));
#759=DIRECTION('',(0.,0.,1.));
#760=DIRECTION('center_axis',(0.,-1.,0.));
#761=DIRECTION('ref_axis',(1.,0.,0.));
#762=DIRECTION('',(1.,0.,0.));
#763=DIRECTION('',(1.,0.,0.));
#764=DIRECTION('',(0.,0.,1.));
#765=DIRECTION('center_axis',(-1.,0.,0.));
#766=DIRECTION('ref_axis',(0.,-1.,0.));
#767=DIRECTION('',(0.,-1.,0.));
#768=DIRECTION('',(0.,-1.,0.));
#769=DIRECTION('center_axis',(0.,0.,1.));
#770=DIRECTION('ref_axis',(1.,0.,0.));
#771=DIRECTION('center_axis',(0.,1.,0.));
#772=DIRECTION('ref_axis',(-1.,0.,0.));
#773=DIRECTION('',(-1.,0.,0.));
#774=DIRECTION('',(0.,0.,1.));
#775=DIRECTION('',(-1.,0.,0.));
#776=DIRECTION('',(0.,0.,1.));
#777=DIRECTION('center_axis',(1.,0.,0.));
#778=DIRECTION('ref_axis',(0.,1.,0.));
#779=DIRECTION('',(0.,1.,0.));
#780=DIRECTION('',(0.,1.,0.));
#781=DIRECTION('',(0.,0.,1.));
#782=DIRECTION('center_axis',(0.,-1.,0.));
#783=DIRECTION('ref_axis',(1.,0.,0.));
#784=DIRECTION('',(1.,0.,0.));
#785=DIRECTION('',(1.,0.,0.));
#786=DIRECTION('',(0.,0.,1.));
#787=DIRECTION('center_axis',(-1.,0.,0.));
#788=DIRECTION('ref_axis',(0.,-1.,0.));
#789=DIRECTION('',(0.,-1.,0.));
#790=DIRECTION('',(0.,-1.,0.));
#791=DIRECTION('center_axis',(0.,0.,1.));
#792=DIRECTION('ref_axis',(1.,0.,0.));
#793=DIRECTION('center_axis',(0.,1.,0.));
#794=DIRECTION('ref_axis',(-1.,0.,0.));
#795=DIRECTION('',(-1.,0.,0.));
#796=DIRECTION('',(0.,0.,1.));
#797=DIRECTION('',(-1.,0.,0.));
#798=DIRECTION('',(0.,0.,1.));
#799=DIRECTION('center_axis',(1.,0.,0.));
#800=DIRECTION('ref_axis',(0.,1.,0.));
#801=DIRECTION('',(0.,1.,0.));
#802=DIRECTION('',(0.,1.,0.));
#803=DIRECTION('',(0.,0.,1.));
#804=DIRECTION('center_axis',(0.,-1.,0.));
#805=DIRECTION('ref_axis',(1.,0.,0.));
#806=DIRECTION('',(1.,0.,0.));
#807=DIRECTION('',(1.,0.,0.));
#808=DIRECTION('',(0.,0.,1.));
#809=DIRECTION('center_axis',(-1.,0.,0.));
#810=DIRECTION('ref_axis',(0.,-1.,0.));
#811=DIRECTION('',(0.,-1.,0.));
#812=DIRECTION('',(0.,-1.,0.));
#813=DIRECTION('center_axis',(0.,0.,1.));
#814=DIRECTION('ref_axis',(1.,0.,0.));
#815=DIRECTION('center_axis',(0.,0.,1.));
#816=DIRECTION('ref_axis',(1.,0.,0.));
#817=DIRECTION('center_axis',(0.,0.,1.));
#818=DIRECTION('ref_axis',(1.,0.,0.));
#819=DIRECTION('center_axis',(0.,0.,1.));
#820=DIRECTION('ref_axis',(1.,0.,0.));
#821=DIRECTION('',(0.,0.,-1.));
#822=DIRECTION('center_axis',(0.,0.,-1.));
#823=DIRECTION('ref_axis',(1.,0.,0.));
#824=DIRECTION('center_axis',(0.,0.,1.));
#825=DIRECTION('ref_axis',(1.,0.,0.));
#826=DIRECTION('center_axis',(0.,0.,1.));
#827=DIRECTION('ref_axis',(1.,0.,0.));
#828=DIRECTION('center_axis',(0.,0.,1.));
#829=DIRECTION('ref_axis',(1.,0.,0.));
#830=DIRECTION('',(0.,0.,-1.));
#831=DIRECTION('center_axis',(0.,0.,1.));
#832=DIRECTION('ref_axis',(1.,0.,0.));
#833=DIRECTION('center_axis',(0.,0.,1.));
#834=DIRECTION('ref_axis',(1.,0.,0.));
#835=DIRECTION('center_axis',(0.,0.,1.));
#836=DIRECTION('ref_axis',(1.,0.,0.));
#837=DIRECTION('center_axis',(0.,0.,1.));
#838=DIRECTION('ref_axis',(1.,0.,0.));
#839=DIRECTION('center_axis',(0.,0.,1.));
#840=DIRECTION('ref_axis',(1.,0.,0.));
#841=DIRECTION('',(0.,0.,1.));
#842=DIRECTION('center_axis',(0.,0.,-1.));
#843=DIRECTION('ref_axis',(1.,0.,0.));
#844=DIRECTION('center_axis',(0.,0.,1.));
#845=DIRECTION('ref_axis',(1.,0.,0.));
#846=DIRECTION('center_axis',(0.,0.,1.));
#847=DIRECTION('ref_axis',(1.,0.,0.));
#848=DIRECTION('',(0.,0.,-1.));
#849=DIRECTION('center_axis',(0.,0.,1.));
#850=DIRECTION('ref_axis',(1.,0.,0.));
#851=DIRECTION('center_axis',(0.,0.,1.));
#852=DIRECTION('ref_axis',(1.,0.,0.));
#853=DIRECTION('center_axis',(0.,0.,1.));
#854=DIRECTION('ref_axis',(1.,0.,0.));
#855=CARTESIAN_POINT('',(0.,0.,0.));
#856=CARTESIAN_POINT('Origin',(0.,0.,0.));
#857=CARTESIAN_POINT('',(-0.10414,-1.27534717663205E-17,0.));
#858=CARTESIAN_POINT('Origin',(0.,0.,0.));
#859=CARTESIAN_POINT('',(-0.10414,-1.27534717663205E-17,0.76));
#860=CARTESIAN_POINT('',(-0.10414,-1.27534717663205E-17,0.));
#861=CARTESIAN_POINT('Origin',(0.,0.,0.76));
#862=CARTESIAN_POINT('Origin',(0.,0.,0.18));
#863=CARTESIAN_POINT('',(-0.18542,-2.27074009497902E-17,0.76));
#864=CARTESIAN_POINT('Origin',(0.,0.,0.76));
#865=CARTESIAN_POINT('',(-0.18542,-2.27074009497902E-17,0.18));
#866=CARTESIAN_POINT('',(-0.18542,-2.27074009497902E-17,0.18));
#867=CARTESIAN_POINT('Origin',(0.,0.,0.18));
#868=CARTESIAN_POINT('Origin',(0.,0.,0.76));
#869=CARTESIAN_POINT('Origin',(0.305,0.305,-0.39));
#870=CARTESIAN_POINT('',(0.305,0.305,-0.39));
#871=CARTESIAN_POINT('',(0.203,0.305,-0.39));
#872=CARTESIAN_POINT('',(0.305,0.305,-0.39));
#873=CARTESIAN_POINT('',(0.203,0.305,0.));
#874=CARTESIAN_POINT('',(0.203,0.305,-0.39));
#875=CARTESIAN_POINT('',(0.305,0.305,0.));
#876=CARTESIAN_POINT('',(0.1525,0.305,0.));
#877=CARTESIAN_POINT('',(0.305,0.305,-0.39));
#878=CARTESIAN_POINT('Origin',(0.305,0.203,-0.39));
#879=CARTESIAN_POINT('',(0.305,0.203,-0.39));
#880=CARTESIAN_POINT('',(0.305,0.203,-0.39));
#881=CARTESIAN_POINT('',(0.305,0.203,0.));
#882=CARTESIAN_POINT('',(0.305,0.1015,0.));
#883=CARTESIAN_POINT('',(0.305,0.203,-0.39));
#884=CARTESIAN_POINT('Origin',(0.203,0.203,-0.39));
#885=CARTESIAN_POINT('',(0.203,0.203,-0.39));
#886=CARTESIAN_POINT('',(0.203,0.203,-0.39));
#887=CARTESIAN_POINT('',(0.203,0.203,0.));
#888=CARTESIAN_POINT('',(0.1015,0.203,0.));
#889=CARTESIAN_POINT('',(0.203,0.203,-0.39));
#890=CARTESIAN_POINT('Origin',(0.203,0.305,-0.39));
#891=CARTESIAN_POINT('',(0.203,0.305,-0.39));
#892=CARTESIAN_POINT('',(0.203,0.1525,0.));
#893=CARTESIAN_POINT('Origin',(0.254,0.254,-0.39));
#894=CARTESIAN_POINT('Origin',(0.305,-0.203,-0.39));
#895=CARTESIAN_POINT('',(0.305,-0.203,-0.39));
#896=CARTESIAN_POINT('',(0.203,-0.203,-0.39));
#897=CARTESIAN_POINT('',(0.305,-0.203,-0.39));
#898=CARTESIAN_POINT('',(0.203,-0.203,0.));
#899=CARTESIAN_POINT('',(0.203,-0.203,-0.39));
#900=CARTESIAN_POINT('',(0.305,-0.203,0.));
#901=CARTESIAN_POINT('',(0.1525,-0.203,0.));
#902=CARTESIAN_POINT('',(0.305,-0.203,-0.39));
#903=CARTESIAN_POINT('Origin',(0.305,-0.305,-0.39));
#904=CARTESIAN_POINT('',(0.305,-0.305,-0.39));
#905=CARTESIAN_POINT('',(0.305,-0.305,-0.39));
#906=CARTESIAN_POINT('',(0.305,-0.305,0.));
#907=CARTESIAN_POINT('',(0.305,-0.1525,0.));
#908=CARTESIAN_POINT('',(0.305,-0.305,-0.39));
#909=CARTESIAN_POINT('Origin',(0.203,-0.305,-0.39));
#910=CARTESIAN_POINT('',(0.203,-0.305,-0.39));
#911=CARTESIAN_POINT('',(0.203,-0.305,-0.39));
#912=CARTESIAN_POINT('',(0.203,-0.305,0.));
#913=CARTESIAN_POINT('',(0.1015,-0.305,0.));
#914=CARTESIAN_POINT('',(0.203,-0.305,-0.39));
#915=CARTESIAN_POINT('Origin',(0.203,-0.203,-0.39));
#916=CARTESIAN_POINT('',(0.203,-0.203,-0.39));
#917=CARTESIAN_POINT('',(0.203,-0.1015,0.));
#918=CARTESIAN_POINT('Origin',(0.254,-0.254,-0.39));
#919=CARTESIAN_POINT('Origin',(-0.203,0.305,-0.39));
#920=CARTESIAN_POINT('',(-0.203,0.305,-0.39));
#921=CARTESIAN_POINT('',(-0.305,0.305,-0.39));
#922=CARTESIAN_POINT('',(-0.203,0.305,-0.39));
#923=CARTESIAN_POINT('',(-0.305,0.305,0.));
#924=CARTESIAN_POINT('',(-0.305,0.305,-0.39));
#925=CARTESIAN_POINT('',(-0.203,0.305,0.));
#926=CARTESIAN_POINT('',(-0.1015,0.305,0.));
#927=CARTESIAN_POINT('',(-0.203,0.305,-0.39));
#928=CARTESIAN_POINT('Origin',(-0.203,0.203,-0.39));
#929=CARTESIAN_POINT('',(-0.203,0.203,-0.39));
#930=CARTESIAN_POINT('',(-0.203,0.203,-0.39));
#931=CARTESIAN_POINT('',(-0.203,0.203,0.));
#932=CARTESIAN_POINT('',(-0.203,0.1015,0.));
#933=CARTESIAN_POINT('',(-0.203,0.203,-0.39));
#934=CARTESIAN_POINT('Origin',(-0.305,0.203,-0.39));
#935=CARTESIAN_POINT('',(-0.305,0.203,-0.39));
#936=CARTESIAN_POINT('',(-0.305,0.203,-0.39));
#937=CARTESIAN_POINT('',(-0.305,0.203,0.));
#938=CARTESIAN_POINT('',(-0.1525,0.203,0.));
#939=CARTESIAN_POINT('',(-0.305,0.203,-0.39));
#940=CARTESIAN_POINT('Origin',(-0.305,0.305,-0.39));
#941=CARTESIAN_POINT('',(-0.305,0.305,-0.39));
#942=CARTESIAN_POINT('',(-0.305,0.1525,0.));
#943=CARTESIAN_POINT('Origin',(-0.254,0.254,-0.39));
#944=CARTESIAN_POINT('Origin',(-0.203,-0.203,-0.39));
#945=CARTESIAN_POINT('',(-0.203,-0.203,-0.39));
#946=CARTESIAN_POINT('',(-0.305,-0.203,-0.39));
#947=CARTESIAN_POINT('',(-0.203,-0.203,-0.39));
#948=CARTESIAN_POINT('',(-0.305,-0.203,0.));
#949=CARTESIAN_POINT('',(-0.305,-0.203,-0.39));
#950=CARTESIAN_POINT('',(-0.203,-0.203,0.));
#951=CARTESIAN_POINT('',(-0.1015,-0.203,0.));
#952=CARTESIAN_POINT('',(-0.203,-0.203,-0.39));
#953=CARTESIAN_POINT('Origin',(-0.203,-0.305,-0.39));
#954=CARTESIAN_POINT('',(-0.203,-0.305,-0.39));
#955=CARTESIAN_POINT('',(-0.203,-0.305,-0.39));
#956=CARTESIAN_POINT('',(-0.203,-0.305,0.));
#957=CARTESIAN_POINT('',(-0.203,-0.1525,0.));
#958=CARTESIAN_POINT('',(-0.203,-0.305,-0.39));
#959=CARTESIAN_POINT('Origin',(-0.305,-0.305,-0.39));
#960=CARTESIAN_POINT('',(-0.305,-0.305,-0.39));
#961=CARTESIAN_POINT('',(-0.305,-0.305,-0.39));
#962=CARTESIAN_POINT('',(-0.305,-0.305,0.));
#963=CARTESIAN_POINT('',(-0.1525,-0.305,0.));
#964=CARTESIAN_POINT('',(-0.305,-0.305,-0.39));
#965=CARTESIAN_POINT('Origin',(-0.305,-0.203,-0.39));
#966=CARTESIAN_POINT('',(-0.305,-0.203,-0.39));
#967=CARTESIAN_POINT('',(-0.305,-0.1015,0.));
#968=CARTESIAN_POINT('Origin',(-0.254,-0.254,-0.39));
#969=CARTESIAN_POINT('Origin',(0.35,0.35,0.));
#970=CARTESIAN_POINT('',(0.35,0.35,0.));
#971=CARTESIAN_POINT('',(-0.35,0.35,0.));
#972=CARTESIAN_POINT('',(0.35,0.35,0.));
#973=CARTESIAN_POINT('',(-0.35,0.35,0.18));
#974=CARTESIAN_POINT('',(-0.35,0.35,0.));
#975=CARTESIAN_POINT('',(0.35,0.35,0.18));
#976=CARTESIAN_POINT('',(0.35,0.35,0.18));
#977=CARTESIAN_POINT('',(0.35,0.35,0.));
#978=CARTESIAN_POINT('Origin',(0.35,-0.35,0.));
#979=CARTESIAN_POINT('',(0.35,-0.35,0.));
#980=CARTESIAN_POINT('',(0.35,-0.35,0.));
#981=CARTESIAN_POINT('',(0.35,-0.35,0.18));
#982=CARTESIAN_POINT('',(0.35,-0.35,0.18));
#983=CARTESIAN_POINT('',(0.35,-0.35,0.));
#984=CARTESIAN_POINT('Origin',(-0.35,-0.35,0.));
#985=CARTESIAN_POINT('',(-0.35,-0.35,0.));
#986=CARTESIAN_POINT('',(-0.35,-0.35,0.));
#987=CARTESIAN_POINT('',(-0.35,-0.35,0.18));
#988=CARTESIAN_POINT('',(-0.35,-0.35,0.18));
#989=CARTESIAN_POINT('',(-0.35,-0.35,0.));
#990=CARTESIAN_POINT('Origin',(-0.35,0.35,0.));
#991=CARTESIAN_POINT('',(-0.35,0.35,0.));
#992=CARTESIAN_POINT('',(-0.35,0.35,0.18));
#993=CARTESIAN_POINT('Origin',(0.,0.,0.18));
#994=CARTESIAN_POINT('Origin',(0.,0.,0.));
#995=CARTESIAN_POINT('Origin',(0.,0.,0.18));
#996=CARTESIAN_POINT('',(-0.0254,-3.11060286983428E-18,0.69));
#997=CARTESIAN_POINT('Origin',(0.,0.,0.69));
#998=CARTESIAN_POINT('',(-0.0254,-3.11060286983428E-18,0.18));
#999=CARTESIAN_POINT('',(-0.0254,-3.11060286983428E-18,0.18));
#1000=CARTESIAN_POINT('Origin',(0.,0.,0.18));
#1001=CARTESIAN_POINT('Origin',(0.,0.,0.69));
#1002=CARTESIAN_POINT('Origin',(0.,0.,-0.39));
#1003=CARTESIAN_POINT('',(-0.048,-5.8783046359073E-18,0.18));
#1004=CARTESIAN_POINT('Origin',(0.,0.,0.18));
#1005=CARTESIAN_POINT('',(-0.048,-5.8783046359073E-18,-0.39));
#1006=CARTESIAN_POINT('',(-0.048,-5.8783046359073E-18,-0.39));
#1007=CARTESIAN_POINT('Origin',(0.,0.,-0.39));
#1008=CARTESIAN_POINT('Origin',(0.,0.,0.18));
#1009=CARTESIAN_POINT('Origin',(0.,0.,-0.39));
#1010=CARTESIAN_POINT('Origin',(0.,0.,0.));
#1011=CARTESIAN_POINT('',(-0.0485,-5.93953697586466E-18,0.));
#1012=CARTESIAN_POINT('Origin',(0.,0.,0.));
#1013=CARTESIAN_POINT('',(-0.0485,-5.93953697586466E-18,0.58));
#1014=CARTESIAN_POINT('',(-0.0485,-5.93953697586466E-18,0.));
#1015=CARTESIAN_POINT('Origin',(0.,0.,0.58));
#1016=CARTESIAN_POINT('Origin',(0.,0.,0.));
#1017=CARTESIAN_POINT('',(-0.10364,-1.26922394263632E-17,0.58));
#1018=CARTESIAN_POINT('Origin',(0.,0.,0.58));
#1019=CARTESIAN_POINT('',(-0.10364,-1.26922394263632E-17,0.));
#1020=CARTESIAN_POINT('',(-0.10364,-1.26922394263632E-17,0.));
#1021=CARTESIAN_POINT('Origin',(0.,0.,0.));
#1022=CARTESIAN_POINT('Origin',(0.,0.,0.58));
#1023=CARTESIAN_POINT('Origin',(0.,0.,0.));
#1024=UNCERTAINTY_MEASURE_WITH_UNIT(LENGTH_MEASURE(0.001),#1028,
'DISTANCE_ACCURACY_VALUE',
'Maximum model space distance between geometric entities at asserted c
onnectivities');
#1025=UNCERTAINTY_MEASURE_WITH_UNIT(LENGTH_MEASURE(0.001),#1028,
'DISTANCE_ACCURACY_VALUE',
'Maximum model space distance between geometric entities at asserted c
onnectivities');
#1026=(
GEOMETRIC_REPRESENTATION_CONTEXT(3)
GLOBAL_UNCERTAINTY_ASSIGNED_CONTEXT((#1024))
GLOBAL_UNIT_ASSIGNED_CONTEXT((#1028,#1030,#1031))
REPRESENTATION_CONTEXT('','3D')
);
#1027=(
GEOMETRIC_REPRESENTATION_CONTEXT(3)
GLOBAL_UNCERTAINTY_ASSIGNED_CONTEXT((#1025))
GLOBAL_UNIT_ASSIGNED_CONTEXT((#1028,#1030,#1031))
REPRESENTATION_CONTEXT('','3D')
);
#1028=(
LENGTH_UNIT()
NAMED_UNIT(*)
SI_UNIT(.CENTI.,.METRE.)
);
#1029=(
LENGTH_UNIT()
NAMED_UNIT(*)
SI_UNIT($,.METRE.)
);
#1030=(
NAMED_UNIT(*)
PLANE_ANGLE_UNIT()
SI_UNIT($,.RADIAN.)
);
#1031=(
NAMED_UNIT(*)
SI_UNIT($,.STERADIAN.)
SOLID_ANGLE_UNIT()
);
#1032=SHAPE_DEFINITION_REPRESENTATION(#1033,#1034);
#1033=PRODUCT_DEFINITION_SHAPE('',$,#1036);
#1034=SHAPE_REPRESENTATION('',(#636),#1026);
#1035=PRODUCT_DEFINITION_CONTEXT('part definition',#1040,'design');
#1036=PRODUCT_DEFINITION('142138',
'Amphenol RF 142138 - drawing reconstruction; mating details reference',
#1037,#1035);
#1037=PRODUCT_DEFINITION_FORMATION('',$,#1042);
#1038=PRODUCT_RELATED_PRODUCT_CATEGORY(
'Amphenol RF 142138 - drawing reconstruction; mating details reference',
'Amphenol RF 142138 - drawing reconstruction; mating details reference',
(#1042));
#1039=APPLICATION_PROTOCOL_DEFINITION('international standard',
'automotive_design',2009,#1040);
#1040=APPLICATION_CONTEXT(
'Core Data for Automotive Mechanical Design Process');
#1041=PRODUCT_CONTEXT('part definition',#1040,'mechanical');
#1042=PRODUCT('142138',
'Amphenol RF 142138 - drawing reconstruction; mating details reference',

'Manufacturer Rev B mounting dimensions; no scaled SMA. Undimensioned 
mating barrel/internal details are visual references. See provenance J
SON.',(#1041));
#1043=PRESENTATION_STYLE_ASSIGNMENT((#1046));
#1044=PRESENTATION_STYLE_ASSIGNMENT((#1047));
#1045=PRESENTATION_STYLE_ASSIGNMENT((#1048));
#1046=SURFACE_STYLE_USAGE(.BOTH.,#1049);
#1047=SURFACE_STYLE_USAGE(.BOTH.,#1050);
#1048=SURFACE_STYLE_USAGE(.BOTH.,#1051);
#1049=SURFACE_SIDE_STYLE('',(#1052));
#1050=SURFACE_SIDE_STYLE('',(#1053));
#1051=SURFACE_SIDE_STYLE('',(#1054));
#1052=SURFACE_STYLE_FILL_AREA(#1055);
#1053=SURFACE_STYLE_FILL_AREA(#1056);
#1054=SURFACE_STYLE_FILL_AREA(#1057);
#1055=FILL_AREA_STYLE('Steel - Satin',(#1058));
#1056=FILL_AREA_STYLE('Gold-finished brass visual reference',(#1059));
#1057=FILL_AREA_STYLE('Natural PTFE visual reference',(#1060));
#1058=FILL_AREA_STYLE_COLOUR('Steel - Satin',#1061);
#1059=FILL_AREA_STYLE_COLOUR('Gold-finished brass visual reference',#1062);
#1060=FILL_AREA_STYLE_COLOUR('Natural PTFE visual reference',#1063);
#1061=COLOUR_RGB('Steel - Satin',0.627450980392157,0.627450980392157,0.627450980392157);
#1062=COLOUR_RGB('Gold-finished brass visual reference',0.952941176470588,
0.796078431372549,0.486274509803922);
#1063=COLOUR_RGB('Natural PTFE visual reference',0.701960784313725,0.701960784313725,
0.701960784313725);
ENDSEC;
END-ISO-10303-21;
