<?xml version="1.0" standalone="no"?>
 <!DOCTYPE svg PUBLIC "-//W3C//DTD SVG 1.1//EN" 
 "http://www.w3.org/Graphics/SVG/1.1/DTD/svg11.dtd"> 
<svg
  xmlns:svg="http://www.w3.org/2000/svg"
  xmlns="http://www.w3.org/2000/svg"
  xmlns:xlink="http://www.w3.org/1999/xlink"
  xmlns:inkscape="http://www.inkscape.org/namespaces/inkscape"
  version="1.1"
  width="15.9766mm" height="15.6972mm" viewBox="0.0000 0.0000 15.9766 15.6972">
<title>SVG Image created as usb-front.svg date 2026-09-07T16:05:36 </title>
  <desc>Image generated by PCBNEW </desc>
<g style="fill:#000000; fill-opacity:1.0000;stroke:#000000; stroke-opacity:1.0000;
stroke-linecap:round; stroke-linejoin:round;"
 transform="translate(0 0) scale(1 1)">
<path style="fill:#C83434; fill-opacity:1.0000; stroke:none;fill-rule:evenodd;"
d="M 2.9250,7.8500
2.9288,7.8309
2.9396,7.8146
2.9559,7.8038
2.9750,7.8000
3.5450,7.8000
3.5641,7.8038
3.5804,7.8146
3.5912,7.8309
3.5950,7.8500
3.5950,8.1500
3.5912,8.1691
3.5804,8.1854
3.5641,8.1962
3.5450,8.2000
2.9750,8.2000
2.9559,8.1962
2.9396,8.1854
2.9288,8.1691
2.9250,8.1500
Z" /> 
<path style="fill:#C83434; fill-opacity:1.0000; stroke:none;fill-rule:evenodd;"
d="M 4.4050,7.8500
4.4088,7.8309
4.4196,7.8146
4.4359,7.8038
4.4550,7.8000
5.0250,7.8000
5.0441,7.8038
5.0604,7.8146
5.0712,7.8309
5.0750,7.8500
5.0750,8.1500
5.0712,8.1691
5.0604,8.1854
5.0441,8.1962
5.0250,8.2000
4.4550,8.2000
4.4359,8.1962
4.4196,8.1854
4.4088,8.1691
4.4050,8.1500
Z" /> 
</g>
<g style="fill:#C83434; fill-opacity:1.0000; stroke:none;">
<circle cx="3.9000" cy="10.1400" r="0.4000" /> 
<path style="fill:#C83434; fill-opacity:1.0000; stroke:none;fill-rule:evenodd;"
d="M 4.3950,10.5900
4.3950,9.7900
5.0450,9.7900
5.0450,10.5900
Z" /> 
<path style="fill:#C83434; fill-opacity:1.0000; stroke:none;fill-rule:evenodd;"
d="M 5.2450,10.5900
5.2450,9.7900
5.8950,9.7900
5.8950,10.5900
Z" /> 
<path style="fill:#C83434; fill-opacity:1.0000; stroke:none;fill-rule:evenodd;"
d="M 6.6000,10.5900
6.6000,9.7900
6.9000,9.7900
6.9000,10.5900
Z" /> 
<path style="fill:#C83434; fill-opacity:1.0000; stroke:none;fill-rule:evenodd;"
d="M 7.6000,10.5900
7.6000,9.7900
7.9000,9.7900
7.9000,10.5900
Z" /> 
<path style="fill:#C83434; fill-opacity:1.0000; stroke:none;fill-rule:evenodd;"
d="M 8.1000,10.5900
8.1000,9.7900
8.4000,9.7900
8.4000,10.5900
Z" /> 
<path style="fill:#C83434; fill-opacity:1.0000; stroke:none;fill-rule:evenodd;"
d="M 9.1000,10.5900
9.1000,9.7900
9.4000,9.7900
9.4000,10.5900
Z" /> 
<path style="fill:#C83434; fill-opacity:1.0000; stroke:none;fill-rule:evenodd;"
d="M 10.1050,10.5900
10.1050,9.7900
10.7550,9.7900
10.7550,10.5900
Z" /> 
<path style="fill:#C83434; fill-opacity:1.0000; stroke:none;fill-rule:evenodd;"
d="M 10.9550,10.5900
10.9550,9.7900
11.6050,9.7900
11.6050,10.5900
Z" /> 
<path style="fill:#C83434; fill-opacity:1.0000; stroke:none;fill-rule:evenodd;"
d="M 10.9550,10.5900
10.9550,9.7900
11.6050,9.7900
11.6050,10.5900
Z" /> 
<circle cx="12.1000" cy="10.1400" r="0.4000" /> 
<path style="fill:#C83434; fill-opacity:1.0000; stroke:none;fill-rule:evenodd;"
d="M 10.1050,10.5900
10.1050,9.7900
10.7550,9.7900
10.7550,10.5900
Z" /> 
<path style="fill:#C83434; fill-opacity:1.0000; stroke:none;fill-rule:evenodd;"
d="M 9.6000,10.5900
9.6000,9.7900
9.9000,9.7900
9.9000,10.5900
Z" /> 
<path style="fill:#C83434; fill-opacity:1.0000; stroke:none;fill-rule:evenodd;"
d="M 8.6000,10.5900
8.6000,9.7900
8.9000,9.7900
8.9000,10.5900
Z" /> 
<path style="fill:#C83434; fill-opacity:1.0000; stroke:none;fill-rule:evenodd;"
d="M 7.1000,10.5900
7.1000,9.7900
7.4000,9.7900
7.4000,10.5900
Z" /> 
<path style="fill:#C83434; fill-opacity:1.0000; stroke:none;fill-rule:evenodd;"
d="M 6.1000,10.5900
6.1000,9.7900
6.4000,9.7900
6.4000,10.5900
Z" /> 
<path style="fill:#C83434; fill-opacity:1.0000; stroke:none;fill-rule:evenodd;"
d="M 5.2450,10.5900
5.2450,9.7900
5.8950,9.7900
5.8950,10.5900
Z" /> 
<path style="fill:#C83434; fill-opacity:1.0000; stroke:none;fill-rule:evenodd;"
d="M 4.3950,10.5900
4.3950,9.7900
5.0450,9.7900
5.0450,10.5900
Z" /> 
</g>
<g style="fill:none; 
stroke:#C83434; stroke-width:1.0000; stroke-opacity:1; 
stroke-linecap:round; stroke-linejoin:round;">
<path d="M2.3500 9.8650
L2.3500 11.0150
" />
<path d="M2.3500 13.8650
L2.3500 15.0150
" />
<path d="M13.6500 9.8650
L13.6500 11.0150
" />
<path d="M13.6500 13.8650
L13.6500 15.0150
" />
<path style="fill:#C83434; fill-opacity:1.0000; stroke:none;fill-rule:evenodd;"
d="M 8.4500,7.5000
8.4309,7.4962
8.4146,7.4854
8.4038,7.4691
8.4000,7.4500
8.4000,6.9850
8.4038,6.9659
8.4146,6.9496
8.4309,6.9388
8.4500,6.9350
8.5500,6.9350
8.5691,6.9388
8.5854,6.9496
8.5962,6.9659
8.6000,6.9850
8.6000,7.4500
8.5962,7.4691
8.5854,7.4854
8.5691,7.4962
8.5500,7.5000
Z" /> 
<path style="fill:#C83434; fill-opacity:1.0000; stroke:none;fill-rule:evenodd;"
d="M 8.9500,7.5000
8.9309,7.4962
8.9146,7.4854
8.9038,7.4691
8.9000,7.4500
8.9000,6.9850
8.9038,6.9659
8.9146,6.9496
8.9309,6.9388
8.9500,6.9350
9.0500,6.9350
9.0691,6.9388
9.0854,6.9496
9.0962,6.9659
9.1000,6.9850
9.1000,7.4500
9.0962,7.4691
9.0854,7.4854
9.0691,7.4962
9.0500,7.5000
Z" /> 
<path style="fill:#C83434; fill-opacity:1.0000; stroke:none;fill-rule:evenodd;"
d="M 9.4000,7.5000
9.3809,7.4962
9.3646,7.4854
9.3538,7.4691
9.3500,7.4500
9.3500,6.9850
9.3538,6.9659
9.3646,6.9496
9.3809,6.9388
9.4000,6.9350
9.6000,6.9350
9.6191,6.9388
9.6354,6.9496
9.6462,6.9659
9.6500,6.9850
9.6500,7.4500
9.6462,7.4691
9.6354,7.4854
9.6191,7.4962
9.6000,7.5000
Z" /> 
<path style="fill:#C83434; fill-opacity:1.0000; stroke:none;fill-rule:evenodd;"
d="M 9.3500,7.2000
9.3309,7.1962
9.3146,7.1854
9.3038,7.1691
9.3000,7.1500
9.3000,6.4500
9.3038,6.4309
9.3146,6.4146
9.3309,6.4038
9.3500,6.4000
9.6500,6.4000
9.6691,6.4038
9.6854,6.4146
9.6962,6.4309
9.7000,6.4500
9.7000,7.1500
9.6962,7.1691
9.6854,7.1854
9.6691,7.1962
9.6500,7.2000
Z" /> 
<path style="fill:#C83434; fill-opacity:1.0000; stroke:none;fill-rule:evenodd;"
d="M 9.9500,7.5000
9.9309,7.4962
9.9146,7.4854
9.9038,7.4691
9.9000,7.4500
9.9000,6.9850
9.9038,6.9659
9.9146,6.9496
9.9309,6.9388
9.9500,6.9350
10.0500,6.9350
10.0691,6.9388
10.0854,6.9496
10.0962,6.9659
10.1000,6.9850
10.1000,7.4500
10.0962,7.4691
10.0854,7.4854
10.0691,7.4962
10.0500,7.5000
Z" /> 
<path style="fill:#C83434; fill-opacity:1.0000; stroke:none;fill-rule:evenodd;"
d="M 10.4500,7.5000
10.4309,7.4962
10.4146,7.4854
10.4038,7.4691
10.4000,7.4500
10.4000,6.9850
10.4038,6.9659
10.4146,6.9496
10.4309,6.9388
10.4500,6.9350
10.5500,6.9350
10.5691,6.9388
10.5854,6.9496
10.5962,6.9659
10.6000,6.9850
10.6000,7.4500
10.5962,7.4691
10.5854,7.4854
10.5691,7.4962
10.5500,7.5000
Z" /> 
<path style="fill:#C83434; fill-opacity:1.0000; stroke:none;fill-rule:evenodd;"
d="M 10.4500,6.6650
10.4309,6.6612
10.4146,6.6504
10.4038,6.6341
10.4000,6.6150
10.4000,6.1500
10.4038,6.1309
10.4146,6.1146
10.4309,6.1038
10.4500,6.1000
10.5500,6.1000
10.5691,6.1038
10.5854,6.1146
10.5962,6.1309
10.6000,6.1500
10.6000,6.6150
10.5962,6.6341
10.5854,6.6504
10.5691,6.6612
10.5500,6.6650
Z" /> 
<path style="fill:#C83434; fill-opacity:1.0000; stroke:none;fill-rule:evenodd;"
d="M 9.9500,6.6650
9.9309,6.6612
9.9146,6.6504
9.9038,6.6341
9.9000,6.6150
9.9000,6.1500
9.9038,6.1309
9.9146,6.1146
9.9309,6.1038
9.9500,6.1000
10.0500,6.1000
10.0691,6.1038
10.0854,6.1146
10.0962,6.1309
10.1000,6.1500
10.1000,6.6150
10.0962,6.6341
10.0854,6.6504
10.0691,6.6612
10.0500,6.6650
Z" /> 
<path style="fill:#C83434; fill-opacity:1.0000; stroke:none;fill-rule:evenodd;"
d="M 9.4000,6.6650
9.3809,6.6612
9.3646,6.6504
9.3538,6.6341
9.3500,6.6150
9.3500,6.1500
9.3538,6.1309
9.3646,6.1146
9.3809,6.1038
9.4000,6.1000
9.6000,6.1000
9.6191,6.1038
9.6354,6.1146
9.6462,6.1309
9.6500,6.1500
9.6500,6.6150
9.6462,6.6341
9.6354,6.6504
9.6191,6.6612
9.6000,6.6650
Z" /> 
<path style="fill:#C83434; fill-opacity:1.0000; stroke:none;fill-rule:evenodd;"
d="M 8.9500,6.6650
8.9309,6.6612
8.9146,6.6504
8.9038,6.6341
8.9000,6.6150
8.9000,6.1500
8.9038,6.1309
8.9146,6.1146
8.9309,6.1038
8.9500,6.1000
9.0500,6.1000
9.0691,6.1038
9.0854,6.1146
9.0962,6.1309
9.1000,6.1500
9.1000,6.6150
9.0962,6.6341
9.0854,6.6504
9.0691,6.6612
9.0500,6.6650
Z" /> 
<path style="fill:#C83434; fill-opacity:1.0000; stroke:none;fill-rule:evenodd;"
d="M 8.4500,6.6650
8.4309,6.6612
8.4146,6.6504
8.4038,6.6341
8.4000,6.6150
8.4000,6.1500
8.4038,6.1309
8.4146,6.1146
8.4309,6.1038
8.4500,6.1000
8.5500,6.1000
8.5691,6.1038
8.5854,6.1146
8.5962,6.1309
8.6000,6.1500
8.6000,6.6150
8.5962,6.6341
8.5854,6.6504
8.5691,6.6612
8.5500,6.6650
Z" /> 
<path style="fill:#C83434; fill-opacity:1.0000; stroke:none;fill-rule:evenodd;"
d="M 2.8500,5.1500
2.8500,3.8500
4.1500,3.8500
4.1500,5.1500
Z" /> 
</g>
<g style="fill:#C83434; fill-opacity:1.0000; stroke:none;">
<circle cx="5.3000" cy="4.5000" r="0.6500" /> 
<circle cx="7.1000" cy="4.5000" r="0.6500" /> 
<circle cx="8.9000" cy="4.5000" r="0.6500" /> 
<circle cx="10.7000" cy="4.5000" r="0.6500" /> 
<circle cx="12.5000" cy="4.5000" r="0.6500" /> 
<circle cx="11.2800" cy="9.2500" r="0.3000" /> 
<circle cx="5.2500" cy="8.0000" r="0.3000" /> 
<circle cx="4.7200" cy="9.2500" r="0.3000" /> 
<circle cx="9.5000" cy="5.6000" r="0.2250" /> 
<circle cx="8.1250" cy="7.2750" r="0.2250" /> 
<circle cx="6.7500" cy="9.3000" r="0.2250" /> 
<circle cx="7.7500" cy="9.3000" r="0.2250" /> 
<circle cx="8.7500" cy="9.3000" r="0.2250" /> 
<circle cx="10.3500" cy="7.9000" r="0.2250" /> 
<circle cx="10.8250" cy="8.3000" r="0.2250" /> 
<circle cx="7.2500" cy="8.9000" r="0.2250" /> 
<circle cx="8.2500" cy="8.9000" r="0.2250" /> 
<circle cx="8.9250" cy="5.8250" r="0.2250" /> 
<circle cx="9.7500" cy="9.3000" r="0.2250" /> 
</g>
<g style="fill:none; 
stroke:#C83434; stroke-width:0.6000; stroke-opacity:1; 
stroke-linecap:round; stroke-linejoin:round;">
<path d="M10.4250 10.1000
L10.4250 9.4500
" />
</g>
<g style="fill:none; 
stroke:#C83434; stroke-width:0.3000; stroke-opacity:1; 
stroke-linecap:round; stroke-linejoin:round;">
<path d="M5.5750 9.2250
L5.5750 10.2000
" />
</g>
<g style="fill:none; 
stroke:#C83434; stroke-width:0.6000; stroke-opacity:1; 
stroke-linecap:round; stroke-linejoin:round;">
<path d="M3.5000 4.7000
L3.5000 4.5000
" />
</g>
<g style="fill:none; 
stroke:#C83434; stroke-width:0.3000; stroke-opacity:1; 
stroke-linecap:round; stroke-linejoin:round;">
<path d="M10.4300 10.1900
L10.4300 10.1000
" />
</g>
<g style="fill:none; 
stroke:#C83434; stroke-width:0.6000; stroke-opacity:1; 
stroke-linecap:round; stroke-linejoin:round;">
<path d="M6.0250 8.3250
L6.0250 7.2250
" />
</g>
<g style="fill:none; 
stroke:#C83434; stroke-width:0.3000; stroke-opacity:1; 
stroke-linecap:round; stroke-linejoin:round;">
<path d="M3.9000 8.6500
L5.0000 8.6500
" />
</g>
<g style="fill:none; 
stroke:#C83434; stroke-width:0.6000; stroke-opacity:1; 
stroke-linecap:round; stroke-linejoin:round;">
<path d="M5.5700 10.1000
L5.5750 10.1000
" />
</g>
<g style="fill:none; 
stroke:#C83434; stroke-width:0.3000; stroke-opacity:1; 
stroke-linecap:round; stroke-linejoin:round;">
<path d="M3.2600 8.0000
L3.2500 8.0000
" />
<path d="M5.5700 10.1900
L5.5700 10.1000
" />
</g>
<g style="fill:none; 
stroke:#C83434; stroke-width:0.6000; stroke-opacity:1; 
stroke-linecap:round; stroke-linejoin:round;">
<path d="M5.5750 10.1000
L5.5750 8.7750
" />
</g>
<g style="fill:none; 
stroke:#C83434; stroke-width:0.3000; stroke-opacity:1; 
stroke-linecap:round; stroke-linejoin:round;">
<path d="M5.0000 8.6500
L5.5750 9.2250
" />
</g>
<g style="fill:none; 
stroke:#C83434; stroke-width:0.6000; stroke-opacity:1; 
stroke-linecap:round; stroke-linejoin:round;">
<path d="M10.4250 9.4500
L10.4500 9.4250
" />
<path d="M3.5000 4.7000
L3.5000 4.5000
" />
<path d="M6.7750 7.9750
L3.5000 4.7000
" />
</g>
<g style="fill:none; 
stroke:#C83434; stroke-width:0.3000; stroke-opacity:1; 
stroke-linecap:round; stroke-linejoin:round;">
<path d="M3.2500 8.0000
L3.9000 8.6500
" />
</g>
<g style="fill:none; 
stroke:#C83434; stroke-width:0.6000; stroke-opacity:1; 
stroke-linecap:round; stroke-linejoin:round;">
<path d="M10.4500 9.0000
L9.4250 7.9750
" />
<path d="M5.5750 8.7750
L6.0250 8.3250
" />
<path d="M10.4300 10.1000
L10.4250 10.1000
" />
</g>
<g style="fill:none; 
stroke:#C83434; stroke-width:0.3000; stroke-opacity:1; 
stroke-linecap:round; stroke-linejoin:round;">
<path d="M5.5750 10.2000
L5.5700 10.1900
" />
</g>
<g style="fill:none; 
stroke:#C83434; stroke-width:0.6000; stroke-opacity:1; 
stroke-linecap:round; stroke-linejoin:round;">
<path d="M10.4500 9.4250
L10.4500 9.0000
" />
<path d="M6.0250 7.2250
L3.5000 4.7000
" />
<path d="M9.4250 7.9750
L6.7750 7.9750
" />
</g>
<g style="fill:none; 
stroke:#C83434; stroke-width:0.2000; stroke-opacity:1; 
stroke-linecap:round; stroke-linejoin:round;">
<path d="M9.5000 6.3825
L9.5000 5.6000
" />
</g>
<g style="fill:none; 
stroke:#C83434; stroke-width:0.3000; stroke-opacity:1; 
stroke-linecap:round; stroke-linejoin:round;">
<path d="M11.2800 10.1900
L11.2800 9.2500
" />
<path d="M4.7200 10.1900
L4.7200 9.2500
" />
<path d="M4.7400 8.0000
L5.2500 8.0000
" />
</g>
<g style="fill:none; 
stroke:#C83434; stroke-width:0.1500; stroke-opacity:1; 
stroke-linecap:round; stroke-linejoin:round;">
<path d="M8.1250 7.2750
L8.4500 7.2750
" />
<path d="M8.5000 7.2250
L8.5000 7.2175
" />
<path d="M6.7500 10.1900
L6.7500 9.3000
" />
<path d="M7.1000 4.9750
L7.1000 4.5000
" />
<path d="M8.4500 7.2750
L8.5000 7.2250
" />
<path d="M8.5000 6.3750
L7.1000 4.9750
" />
<path d="M8.5000 6.3825
L8.5000 6.3750
" />
<path d="M8.5000 7.2175
L8.5000 6.3825
" />
<path d="M10.0000 7.2250
L10.0000 7.2175
" />
<path d="M10.3500 7.9000
L10.0000 7.5500
" />
<path d="M10.0000 6.3750
L10.0000 5.2000
" />
<path d="M10.0000 5.2000
L10.7000 4.5000
" />
<path d="M8.7500 10.1900
L8.7500 9.3000
" />
<path d="M10.0000 7.5500
L10.0000 7.2250
" />
<path d="M10.0000 6.3825
L10.0000 6.3750
" />
<path d="M10.0000 7.2175
L10.0000 6.3825
" />
<path d="M7.7500 10.1900
L7.7500 9.3000
" />
<path d="M10.0000 7.2250
L10.0000 7.2175
" />
<path d="M10.0000 7.5500
L10.0000 7.2250
" />
<path d="M10.3500 7.9000
L10.0000 7.5500
" />
<path d="M10.5000 6.3825
L10.5000 6.3750
" />
<path d="M12.3750 4.5000
L12.5000 4.5000
" />
<path d="M7.2500 10.1900
L7.2500 8.9000
" />
<path d="M10.5000 7.2250
L10.5000 7.2175
" />
<path d="M8.2500 10.1900
L8.2500 8.9000
" />
<path d="M10.8250 8.3000
L10.8250 7.5500
" />
<path d="M10.8250 7.5500
L10.5000 7.2250
" />
<path d="M10.8250 7.5500
L10.5000 7.2250
" />
<path d="M10.8250 8.3000
L10.8250 7.5500
" />
<path d="M10.5000 6.3750
L12.3750 4.5000
" />
<path d="M10.5000 7.2250
L10.5000 7.2175
" />
<path d="M10.5000 7.2175
L10.5000 6.3825
" />
<path d="M9.0000 7.2175
L9.0000 6.3825
" />
<path d="M8.9250 7.1500
L9.0000 7.2250
" />
<path d="M9.0000 4.6000
L8.9000 4.5000
" />
<path d="M8.9250 5.8250
L8.9250 7.1500
" />
<path d="M9.0000 7.2250
L9.0000 7.2175
" />
<path d="M9.0000 6.3825
L9.0000 6.3750
" />
<path d="M9.7500 10.1900
L9.7500 9.3000
" />
<path d="M9.0000 6.3750
L9.0000 4.6000
" />
<path style="fill:#C83434; fill-opacity:1.0000; stroke:none;fill-rule:evenodd;"
d="M 13.2097,0.2222
13.2305,0.2630
13.2767,0.5578
13.3658,0.9132
13.4867,1.2591
13.6383,1.5926
13.8194,1.9111
14.0285,2.2120
14.0285,2.2120
14.0285,2.2120
14.2639,2.4928
14.2639,2.4928
14.2639,2.4928
14.5237,2.7511
14.5237,2.7511
14.8057,2.9850
14.8057,2.9850
14.8057,2.9850
15.1078,3.1924
15.1078,3.1924
15.1078,3.1924
15.1078,3.1925
15.4272,3.3718
15.4273,3.3718
15.4273,3.3718
15.4273,3.3718
15.4273,3.3718
15.7557,3.5189
15.7946,3.5601
15.7995,3.5864
15.7995,11.1255
15.7778,11.1778
15.7255,11.1995
14.2601,11.1995
14.1864,11.2300
14.1300,11.2864
14.0995,11.3601
14.0995,15.4455
14.0778,15.4978
14.0255,15.5195
13.2251,15.5195
13.1728,15.4978
13.1580,15.4767
12.7324,14.5605
12.7255,14.5293
12.7255,11.3872
12.7472,11.3348
12.7625,11.3231
12.8016,11.3005
12.8855,11.2166
12.9448,11.1139
12.9755,10.9993
12.9755,10.9993
12.9755,10.8807
12.9755,10.8807
12.9448,10.7661
12.9448,10.7661
12.8855,10.6634
12.8855,10.6634
12.8855,10.6634
12.8016,10.5795
12.8016,10.5795
12.8016,10.5795
12.6989,10.5202
12.6989,10.5202
12.5843,10.4895
12.5843,10.4895
12.5649,10.4895
10.9795,10.4895
10.9272,10.4678
10.9055,10.4155
10.9055,9.7752
10.8968,9.7313
10.8880,9.7181
10.8755,9.6770
10.8755,9.5873
10.8780,9.5682
10.9005,9.4843
10.9005,9.4843
10.9005,8.9407
10.9005,8.9407
10.9003,8.9399
10.8776,8.8554
10.8723,8.8355
10.8723,8.8355
10.8723,8.8355
10.8698,8.8261
10.8698,8.8261
10.8433,8.7803
10.8359,8.7241
10.8704,8.6792
10.8883,8.6718
10.9699,8.6499
11.0556,8.6005
11.1255,8.5306
11.1749,8.4449
11.2005,8.3494
11.2005,8.3494
11.2005,8.2506
11.2005,8.2506
11.1749,8.1551
11.1749,8.1551
11.1617,8.1321
11.1255,8.0694
11.0722,8.0161
11.0505,7.9638
11.0505,7.5051
11.0505,7.5051
11.0162,7.4223
11.0162,7.4223
10.7722,7.1783
10.7505,7.1259
10.7505,6.9653
10.7425,6.9251
10.7389,6.9068
10.7389,6.9068
10.7380,6.9054
10.7370,6.9024
10.7361,6.9000
10.7363,6.8999
10.7255,6.8643
10.7255,6.7357
10.7363,6.7001
10.7361,6.7000
10.7370,6.6976
10.7380,6.6946
10.7389,6.6932
10.7505,6.6347
10.7505,6.4741
10.7722,6.4217
11.3195,5.8744
11.9962,5.1977
12.0485,5.1761
12.0896,5.1885
12.1208,5.2094
12.2394,5.2585
12.2665,5.2697
12.4212,5.3005
12.4212,5.3005
12.5788,5.3005
12.5788,5.3005
12.7335,5.2697
12.8792,5.2094
13.0103,5.1218
13.1218,5.0103
13.2094,4.8792
13.2697,4.7335
13.3005,4.5788
13.3005,4.4212
13.2697,4.2665
13.2094,4.1208
13.1218,3.9897
13.0103,3.8782
12.8792,3.7906
12.8792,3.7906
12.8792,3.7906
12.8792,3.7906
12.7335,3.7303
12.7335,3.7303
12.6227,3.7082
12.5788,3.6995
12.4212,3.6995
12.3773,3.7082
12.2665,3.7303
12.2665,3.7303
12.1208,3.7906
11.9897,3.8782
11.9897,3.8782
11.8782,3.9897
11.8782,3.9897
11.7906,4.1208
11.7303,4.2665
11.7303,4.2665
11.6995,4.4212
11.6995,4.5788
11.7303,4.7335
11.7303,4.7335
11.7384,4.7531
11.7384,4.8097
11.7223,4.8337
10.6280,5.9281
10.5757,5.9497
10.5710,5.9495
10.5697,5.9495
10.4303,5.9495
10.4010,5.9553
10.3718,5.9611
10.3406,5.9820
10.2851,5.9930
10.2380,5.9615
10.2255,5.9204
10.2255,5.3241
10.2472,5.2717
10.2779,5.2410
10.3302,5.2194
10.3585,5.2250
10.4665,5.2697
10.6212,5.3005
10.6212,5.3005
10.7788,5.3005
10.7788,5.3005
10.9335,5.2697
11.0792,5.2094
11.2103,5.1218
11.3218,5.0103
11.4094,4.8792
11.4697,4.7335
11.5005,4.5788
11.5005,4.4212
11.4697,4.2665
11.4094,4.1208
11.3218,3.9897
11.2103,3.8782
11.0792,3.7906
11.0792,3.7906
11.0792,3.7906
11.0792,3.7906
10.9335,3.7303
10.9335,3.7303
10.8227,3.7082
10.7788,3.6995
10.6212,3.6995
10.5773,3.7082
10.4665,3.7303
10.4665,3.7303
10.3208,3.7906
10.1897,3.8782
10.1897,3.8782
10.0782,3.9897
10.0782,3.9897
9.9906,4.1208
9.9303,4.2665
9.9303,4.2665
9.8995,4.4212
9.8995,4.5788
9.9303,4.7335
9.9303,4.7335
9.9750,4.8415
9.9750,4.8981
9.9590,4.9221
9.8723,5.0088
9.8088,5.0723
9.8032,5.0859
9.7745,5.1551
9.7745,5.2535
9.7745,5.2535
9.7745,6.0293
9.7637,6.0649
9.7639,6.0650
9.7630,6.0674
9.7620,6.0704
9.7611,6.0718
9.7611,6.0718
9.7495,6.1303
9.7495,6.6347
9.7611,6.6932
9.7620,6.6946
9.7630,6.6976
9.7639,6.7000
9.7637,6.7001
9.7745,6.7357
9.7745,6.8643
9.7637,6.8999
9.7639,6.9000
9.7630,6.9024
9.7620,6.9054
9.7611,6.9068
9.7495,6.9653
9.7495,7.4697
9.7564,7.5043
9.7453,7.5599
9.6982,7.5914
9.6468,7.5829
9.5989,7.5552
9.5989,7.5552
9.5989,7.5552
9.5976,7.5549
9.5747,7.5487
9.5747,7.5487
9.4843,7.5245
9.3245,7.5245
9.2722,7.5028
9.2505,7.4505
9.2505,6.9653
9.2425,6.9251
9.2389,6.9068
9.2389,6.9068
9.2380,6.9054
9.2370,6.9024
9.2361,6.9000
9.2363,6.8999
9.2255,6.8643
9.2255,6.7357
9.2363,6.7001
9.2361,6.7000
9.2370,6.6976
9.2380,6.6946
9.2389,6.6932
9.2505,6.6347
9.2505,6.1303
9.2389,6.0718
9.2385,6.0698
9.2470,6.0183
9.2749,5.9699
9.3005,5.8744
9.3005,5.8744
9.3005,5.7756
9.3005,5.7756
9.2749,5.6801
9.2749,5.6801
9.2354,5.6117
9.2255,5.5747
9.2255,5.2811
9.2472,5.2287
9.2712,5.2127
9.2792,5.2094
9.4103,5.1218
9.5218,5.0103
9.6094,4.8792
9.6697,4.7335
9.7005,4.5788
9.7005,4.4212
9.6697,4.2665
9.6094,4.1208
9.5218,3.9897
9.4103,3.8782
9.2792,3.7906
9.2792,3.7906
9.2792,3.7906
9.2792,3.7906
9.1335,3.7303
9.1335,3.7303
9.0227,3.7082
8.9788,3.6995
8.8212,3.6995
8.7773,3.7082
8.6665,3.7303
8.6665,3.7303
8.5208,3.7906
8.3897,3.8782
8.3897,3.8782
8.2782,3.9897
8.2782,3.9897
8.1906,4.1208
8.1303,4.2665
8.1303,4.2665
8.0995,4.4212
8.0995,4.5788
8.1303,4.7335
8.1303,4.7335
8.1906,4.8792
8.1906,4.8792
8.1906,4.8792
8.2782,5.0103
8.3897,5.1218
8.5208,5.2094
8.5208,5.2094
8.5208,5.2094
8.6394,5.2585
8.6665,5.2697
8.7050,5.2774
8.7149,5.2794
8.7620,5.3108
8.7745,5.3519
8.7745,5.4356
8.7528,5.4879
8.7375,5.4997
8.6944,5.5245
8.6245,5.5944
8.5751,5.6801
8.5751,5.6801
8.5495,5.7756
8.5495,5.8755
8.5278,5.9278
8.4755,5.9495
8.4266,5.9495
8.4266,5.9479
8.3773,5.9329
8.3720,5.9281
7.6403,5.1964
7.6186,5.1441
7.6403,5.0918
7.7218,5.0103
7.8094,4.8792
7.8697,4.7335
7.9005,4.5788
7.9005,4.4212
7.8697,4.2665
7.8094,4.1208
7.7218,3.9897
7.6103,3.8782
7.4792,3.7906
7.4792,3.7906
7.4792,3.7906
7.4792,3.7906
7.3335,3.7303
7.3335,3.7303
7.2227,3.7082
7.1788,3.6995
7.0212,3.6995
6.9773,3.7082
6.8665,3.7303
6.8665,3.7303
6.7208,3.7906
6.5897,3.8782
6.5897,3.8782
6.4782,3.9897
6.4782,3.9897
6.3906,4.1208
6.3303,4.2665
6.3303,4.2665
6.2995,4.4212
6.2995,4.5788
6.3303,4.7335
6.3303,4.7335
6.3906,4.8792
6.3906,4.8792
6.3906,4.8792
6.4782,5.0103
6.5897,5.1218
6.7208,5.2094
6.7208,5.2094
6.7208,5.2094
6.8394,5.2585
6.8665,5.2697
7.0212,5.3005
7.0759,5.3005
7.1283,5.3222
8.2278,6.4217
8.2495,6.4741
8.2495,6.6347
8.2611,6.6932
8.2620,6.6946
8.2630,6.6976
8.2639,6.7000
8.2637,6.7001
8.2745,6.7357
8.2745,6.8299
8.2528,6.8822
8.2005,6.9039
8.1814,6.9014
8.1744,6.8995
8.1744,6.8995
8.0756,6.8995
8.0756,6.8995
7.9801,6.9251
7.9801,6.9251
7.8944,6.9745
7.8245,7.0444
7.7751,7.1301
7.7751,7.1301
7.7495,7.2256
7.7495,7.3244
7.7751,7.4199
7.7760,7.4222
7.7760,7.4234
7.7763,7.4246
7.7760,7.4247
7.7760,7.4788
7.7360,7.5189
7.7077,7.5245
6.9923,7.5245
6.9399,7.5028
4.3222,4.8851
4.3005,4.8327
4.3005,3.8352
4.2918,3.7913
4.2585,3.7415
4.2417,3.7303
4.2087,3.7082
4.1648,3.6995
2.8352,3.6995
2.8132,3.7039
2.7913,3.7082
2.7415,3.7415
2.7415,3.7415
2.7082,3.7913
2.6995,3.8352
2.6995,5.1648
2.7082,5.2087
2.7381,5.2535
2.7415,5.2585
2.7913,5.2918
2.8352,5.3005
3.4327,5.3005
3.4851,5.3222
5.5528,7.3899
5.5745,7.4423
5.5745,8.1077
5.5528,8.1601
5.2963,8.4166
5.2439,8.4383
5.1916,8.4166
5.1845,8.4095
5.1160,8.3700
5.1160,8.3700
5.0396,8.3495
5.0396,8.3495
4.0551,8.3495
4.0028,8.3278
3.7672,8.0922
3.7455,8.0399
3.7455,7.8303
3.7455,7.8303
3.7339,7.7718
3.6896,7.7054
3.6481,7.6777
3.6232,7.6611
3.6232,7.6611
3.5940,7.6553
3.5647,7.6495
2.9553,7.6495
2.9260,7.6553
2.8968,7.6611
2.8304,7.7054
2.8304,7.7054
2.7861,7.7718
2.7745,7.8303
2.7745,8.1697
2.7861,8.2282
2.8011,8.2506
2.8304,8.2946
2.8575,8.3126
2.8968,8.3389
2.8968,8.3389
2.8968,8.3389
2.9553,8.3505
3.1449,8.3505
3.1972,8.3722
3.6595,8.8345
3.7155,8.8905
3.7840,8.9300
3.7840,8.9300
3.7840,8.9300
3.8210,8.9399
3.8604,8.9505
3.8604,8.9505
3.8604,8.9505
3.9396,8.9505
4.8449,8.9505
4.8972,8.9722
5.1028,9.1778
5.1245,9.2301
5.1245,9.6770
5.1120,9.7181
5.1032,9.7313
5.0945,9.7752
5.0945,10.4155
5.0728,10.4678
5.0205,10.4895
3.4157,10.4895
3.3011,10.5202
3.3011,10.5202
3.1984,10.5795
3.1145,10.6634
3.0552,10.7661
3.0552,10.7661
3.0245,10.8807
3.0245,10.9993
3.0552,11.1139
3.0552,11.1139
3.1145,11.2166
3.1145,11.2166
3.1145,11.2166
3.1984,11.3005
3.2375,11.3231
3.2720,11.3680
3.2745,11.3872
3.2745,14.5293
3.2676,14.5605
2.8420,15.4767
2.8003,15.5150
2.7749,15.5195
1.9745,15.5195
1.9222,15.4978
1.9005,15.4455
1.9005,11.3601
1.9005,11.3601
1.8700,11.2864
1.8700,11.2864
1.8136,11.2300
1.8136,11.2300
1.7399,11.1995
0.2745,11.1995
0.2222,11.1778
0.2005,11.1255
0.2005,3.5864
0.2222,3.5341
0.2443,3.5189
0.5727,3.3718
0.5727,3.3718
0.5728,3.3718
0.7585,3.2675
0.8922,3.1924
1.1943,2.9850
1.4763,2.7511
1.7361,2.4928
1.9715,2.2120
2.1806,1.9111
2.3617,1.5926
2.5133,1.2591
2.6342,0.9132
2.7233,0.5578
2.7695,0.2630
2.7990,0.2147
2.8426,0.2005
13.1574,0.2005
Z" /> 
</g>
<g style="fill:none; 
stroke:#F2EDA1; stroke-width:0.1500; stroke-opacity:1; 
stroke-linecap:round; stroke-linejoin:round;">
<text x="3.5000" y="3.4500"
textLength="1.2024" font-size="1.3333" lengthAdjust="spacingAndGlyphs"
text-anchor="middle" opacity="0" stroke-opacity="0">1</text>
<g class="stroked-text"><desc>1</desc>
<path d="M3.7857 3.4048
L3.2143 3.4048
" />
<path d="M3.5000 3.4048
L3.5000 2.4048
" />
<path d="M3.5000 2.4048
L3.4048 2.5477
" />
<path d="M3.4048 2.5477
L3.3095 2.6429
" />
<path d="M3.3095 2.6429
L3.2143 2.6905
" />
</g><text x="3.7000" y="7.1500"
textLength="4.1071" font-size="1.3333" lengthAdjust="spacingAndGlyphs"
text-anchor="middle" opacity="0" stroke-opacity="0">D901</text>
<g class="stroked-text"><desc>D901</desc>
<path d="M2.0095 7.1048
L2.0095 6.1048
" />
<path d="M2.0095 6.1048
L2.2476 6.1048
" />
<path d="M2.2476 6.1048
L2.3905 6.1524
" />
<path d="M2.3905 6.1524
L2.4857 6.2477
" />
<path d="M2.4857 6.2477
L2.5333 6.3429
" />
<path d="M2.5333 6.3429
L2.5810 6.5334
" />
<path d="M2.5810 6.5334
L2.5810 6.6762
" />
<path d="M2.5810 6.6762
L2.5333 6.8667
" />
<path d="M2.5333 6.8667
L2.4857 6.9620
" />
<path d="M2.4857 6.9620
L2.3905 7.0572
" />
<path d="M2.3905 7.0572
L2.2476 7.1048
" />
<path d="M2.2476 7.1048
L2.0095 7.1048
" />
<path d="M3.0571 7.1048
L3.2476 7.1048
" />
<path d="M3.2476 7.1048
L3.3429 7.0572
" />
<path d="M3.3429 7.0572
L3.3905 7.0096
" />
<path d="M3.3905 7.0096
L3.4857 6.8667
" />
<path d="M3.4857 6.8667
L3.5333 6.6762
" />
<path d="M3.5333 6.6762
L3.5333 6.2953
" />
<path d="M3.5333 6.2953
L3.4857 6.2001
" />
<path d="M3.4857 6.2001
L3.4381 6.1524
" />
<path d="M3.4381 6.1524
L3.3429 6.1048
" />
<path d="M3.3429 6.1048
L3.1524 6.1048
" />
<path d="M3.1524 6.1048
L3.0571 6.1524
" />
<path d="M3.0571 6.1524
L3.0095 6.2001
" />
<path d="M3.0095 6.2001
L2.9619 6.2953
" />
<path d="M2.9619 6.2953
L2.9619 6.5334
" />
<path d="M2.9619 6.5334
L3.0095 6.6286
" />
<path d="M3.0095 6.6286
L3.0571 6.6762
" />
<path d="M3.0571 6.6762
L3.1524 6.7239
" />
<path d="M3.1524 6.7239
L3.3429 6.7239
" />
<path d="M3.3429 6.7239
L3.4381 6.6762
" />
<path d="M3.4381 6.6762
L3.4857 6.6286
" />
<path d="M3.4857 6.6286
L3.5333 6.5334
" />
<path d="M4.1524 6.1048
L4.2476 6.1048
" />
<path d="M4.2476 6.1048
L4.3429 6.1524
" />
<path d="M4.3429 6.1524
L4.3905 6.2001
" />
<path d="M4.3905 6.2001
L4.4381 6.2953
" />
<path d="M4.4381 6.2953
L4.4857 6.4858
" />
<path d="M4.4857 6.4858
L4.4857 6.7239
" />
<path d="M4.4857 6.7239
L4.4381 6.9143
" />
<path d="M4.4381 6.9143
L4.3905 7.0096
" />
<path d="M4.3905 7.0096
L4.3429 7.0572
" />
<path d="M4.3429 7.0572
L4.2476 7.1048
" />
<path d="M4.2476 7.1048
L4.1524 7.1048
" />
<path d="M4.1524 7.1048
L4.0571 7.0572
" />
<path d="M4.0571 7.0572
L4.0095 7.0096
" />
<path d="M4.0095 7.0096
L3.9619 6.9143
" />
<path d="M3.9619 6.9143
L3.9143 6.7239
" />
<path d="M3.9143 6.7239
L3.9143 6.4858
" />
<path d="M3.9143 6.4858
L3.9619 6.2953
" />
<path d="M3.9619 6.2953
L4.0095 6.2001
" />
<path d="M4.0095 6.2001
L4.0571 6.1524
" />
<path d="M4.0571 6.1524
L4.1524 6.1048
" />
<path d="M5.4381 7.1048
L4.8667 7.1048
" />
<path d="M5.1524 7.1048
L5.1524 6.1048
" />
<path d="M5.1524 6.1048
L5.0571 6.2477
" />
<path d="M5.0571 6.2477
L4.9619 6.3429
" />
<path d="M4.9619 6.3429
L4.8667 6.3905
" />
</g><text x="5.3000" y="3.4500"
textLength="1.2024" font-size="1.3333" lengthAdjust="spacingAndGlyphs"
text-anchor="middle" opacity="0" stroke-opacity="0">2</text>
<g class="stroked-text"><desc>2</desc>
<path d="M5.0143 2.5001
L5.0619 2.4524
" />
<path d="M5.0619 2.4524
L5.1571 2.4048
" />
<path d="M5.1571 2.4048
L5.3952 2.4048
" />
<path d="M5.3952 2.4048
L5.4905 2.4524
" />
<path d="M5.4905 2.4524
L5.5381 2.5001
" />
<path d="M5.5381 2.5001
L5.5857 2.5953
" />
<path d="M5.5857 2.5953
L5.5857 2.6905
" />
<path d="M5.5857 2.6905
L5.5381 2.8334
" />
<path d="M5.5381 2.8334
L4.9667 3.4048
" />
<path d="M4.9667 3.4048
L5.5857 3.4048
" />
</g><text x="7.1000" y="3.4500"
textLength="1.2024" font-size="1.3333" lengthAdjust="spacingAndGlyphs"
text-anchor="middle" opacity="0" stroke-opacity="0">3</text>
<g class="stroked-text"><desc>3</desc>
<path d="M6.7667 2.4048
L7.3857 2.4048
" />
<path d="M7.3857 2.4048
L7.0524 2.7858
" />
<path d="M7.0524 2.7858
L7.1952 2.7858
" />
<path d="M7.1952 2.7858
L7.2905 2.8334
" />
<path d="M7.2905 2.8334
L7.3381 2.8810
" />
<path d="M7.3381 2.8810
L7.3857 2.9762
" />
<path d="M7.3857 2.9762
L7.3857 3.2143
" />
<path d="M7.3857 3.2143
L7.3381 3.3096
" />
<path d="M7.3381 3.3096
L7.2905 3.3572
" />
<path d="M7.2905 3.3572
L7.1952 3.4048
" />
<path d="M7.1952 3.4048
L6.9095 3.4048
" />
<path d="M6.9095 3.4048
L6.8143 3.3572
" />
<path d="M6.8143 3.3572
L6.7667 3.3096
" />
</g><text x="8.0000" y="2.0000"
textLength="4.2024" font-size="1.3333" lengthAdjust="spacingAndGlyphs"
text-anchor="middle" opacity="0" stroke-opacity="0">USB6</text>
<g class="stroked-text"><desc>USB6</desc>
<path d="M6.2619 0.9548
L6.2619 1.7643
" />
<path d="M6.2619 1.7643
L6.3095 1.8596
" />
<path d="M6.3095 1.8596
L6.3571 1.9072
" />
<path d="M6.3571 1.9072
L6.4524 1.9548
" />
<path d="M6.4524 1.9548
L6.6429 1.9548
" />
<path d="M6.6429 1.9548
L6.7381 1.9072
" />
<path d="M6.7381 1.9072
L6.7857 1.8596
" />
<path d="M6.7857 1.8596
L6.8333 1.7643
" />
<path d="M6.8333 1.7643
L6.8333 0.9548
" />
<path d="M7.2619 1.9072
L7.4048 1.9548
" />
<path d="M7.4048 1.9548
L7.6429 1.9548
" />
<path d="M7.6429 1.9548
L7.7381 1.9072
" />
<path d="M7.7381 1.9072
L7.7857 1.8596
" />
<path d="M7.7857 1.8596
L7.8333 1.7643
" />
<path d="M7.8333 1.7643
L7.8333 1.6691
" />
<path d="M7.8333 1.6691
L7.7857 1.5739
" />
<path d="M7.7857 1.5739
L7.7381 1.5262
" />
<path d="M7.7381 1.5262
L7.6429 1.4786
" />
<path d="M7.6429 1.4786
L7.4524 1.4310
" />
<path d="M7.4524 1.4310
L7.3571 1.3834
" />
<path d="M7.3571 1.3834
L7.3095 1.3358
" />
<path d="M7.3095 1.3358
L7.2619 1.2405
" />
<path d="M7.2619 1.2405
L7.2619 1.1453
" />
<path d="M7.2619 1.1453
L7.3095 1.0501
" />
<path d="M7.3095 1.0501
L7.3571 1.0024
" />
<path d="M7.3571 1.0024
L7.4524 0.9548
" />
<path d="M7.4524 0.9548
L7.6905 0.9548
" />
<path d="M7.6905 0.9548
L7.8333 1.0024
" />
<path d="M8.5952 1.4310
L8.7381 1.4786
" />
<path d="M8.7381 1.4786
L8.7857 1.5262
" />
<path d="M8.7857 1.5262
L8.8333 1.6215
" />
<path d="M8.8333 1.6215
L8.8333 1.7643
" />
<path d="M8.8333 1.7643
L8.7857 1.8596
" />
<path d="M8.7857 1.8596
L8.7381 1.9072
" />
<path d="M8.7381 1.9072
L8.6429 1.9548
" />
<path d="M8.6429 1.9548
L8.2619 1.9548
" />
<path d="M8.2619 1.9548
L8.2619 0.9548
" />
<path d="M8.2619 0.9548
L8.5952 0.9548
" />
<path d="M8.5952 0.9548
L8.6905 1.0024
" />
<path d="M8.6905 1.0024
L8.7381 1.0501
" />
<path d="M8.7381 1.0501
L8.7857 1.1453
" />
<path d="M8.7857 1.1453
L8.7857 1.2405
" />
<path d="M8.7857 1.2405
L8.7381 1.3358
" />
<path d="M8.7381 1.3358
L8.6905 1.3834
" />
<path d="M8.6905 1.3834
L8.5952 1.4310
" />
<path d="M8.5952 1.4310
L8.2619 1.4310
" />
<path d="M9.6905 0.9548
L9.5000 0.9548
" />
<path d="M9.5000 0.9548
L9.4048 1.0024
" />
<path d="M9.4048 1.0024
L9.3571 1.0501
" />
<path d="M9.3571 1.0501
L9.2619 1.1929
" />
<path d="M9.2619 1.1929
L9.2143 1.3834
" />
<path d="M9.2143 1.3834
L9.2143 1.7643
" />
<path d="M9.2143 1.7643
L9.2619 1.8596
" />
<path d="M9.2619 1.8596
L9.3095 1.9072
" />
<path d="M9.3095 1.9072
L9.4048 1.9548
" />
<path d="M9.4048 1.9548
L9.5952 1.9548
" />
<path d="M9.5952 1.9548
L9.6905 1.9072
" />
<path d="M9.6905 1.9072
L9.7381 1.8596
" />
<path d="M9.7381 1.8596
L9.7857 1.7643
" />
<path d="M9.7857 1.7643
L9.7857 1.5262
" />
<path d="M9.7857 1.5262
L9.7381 1.4310
" />
<path d="M9.7381 1.4310
L9.6905 1.3834
" />
<path d="M9.6905 1.3834
L9.5952 1.3358
" />
<path d="M9.5952 1.3358
L9.4048 1.3358
" />
<path d="M9.4048 1.3358
L9.3095 1.3834
" />
<path d="M9.3095 1.3834
L9.2619 1.4310
" />
<path d="M9.2619 1.4310
L9.2143 1.5262
" />
</g><text x="8.9000" y="3.4500"
textLength="1.2024" font-size="1.3333" lengthAdjust="spacingAndGlyphs"
text-anchor="middle" opacity="0" stroke-opacity="0">4</text>
<g class="stroked-text"><desc>4</desc>
<path d="M9.0905 2.7382
L9.0905 3.4048
" />
<path d="M8.8524 2.3572
L8.6143 3.0715
" />
<path d="M8.6143 3.0715
L9.2333 3.0715
" />
</g><text x="10.7000" y="3.4500"
textLength="1.2024" font-size="1.3333" lengthAdjust="spacingAndGlyphs"
text-anchor="middle" opacity="0" stroke-opacity="0">5</text>
<g class="stroked-text"><desc>5</desc>
<path d="M10.9381 2.4048
L10.4619 2.4048
" />
<path d="M10.4619 2.4048
L10.4143 2.8810
" />
<path d="M10.4143 2.8810
L10.4619 2.8334
" />
<path d="M10.4619 2.8334
L10.5571 2.7858
" />
<path d="M10.5571 2.7858
L10.7952 2.7858
" />
<path d="M10.7952 2.7858
L10.8905 2.8334
" />
<path d="M10.8905 2.8334
L10.9381 2.8810
" />
<path d="M10.9381 2.8810
L10.9857 2.9762
" />
<path d="M10.9857 2.9762
L10.9857 3.2143
" />
<path d="M10.9857 3.2143
L10.9381 3.3096
" />
<path d="M10.9381 3.3096
L10.8905 3.3572
" />
<path d="M10.8905 3.3572
L10.7952 3.4048
" />
<path d="M10.7952 3.4048
L10.5571 3.4048
" />
<path d="M10.5571 3.4048
L10.4619 3.3572
" />
<path d="M10.4619 3.3572
L10.4143 3.3096
" />
</g><text x="12.5000" y="3.4500"
textLength="1.2024" font-size="1.3333" lengthAdjust="spacingAndGlyphs"
text-anchor="middle" opacity="0" stroke-opacity="0">6</text>
<g class="stroked-text"><desc>6</desc>
<path d="M12.6905 2.4048
L12.5000 2.4048
" />
<path d="M12.5000 2.4048
L12.4048 2.4524
" />
<path d="M12.4048 2.4524
L12.3571 2.5001
" />
<path d="M12.3571 2.5001
L12.2619 2.6429
" />
<path d="M12.2619 2.6429
L12.2143 2.8334
" />
<path d="M12.2143 2.8334
L12.2143 3.2143
" />
<path d="M12.2143 3.2143
L12.2619 3.3096
" />
<path d="M12.2619 3.3096
L12.3095 3.3572
" />
<path d="M12.3095 3.3572
L12.4048 3.4048
" />
<path d="M12.4048 3.4048
L12.5952 3.4048
" />
<path d="M12.5952 3.4048
L12.6905 3.3572
" />
<path d="M12.6905 3.3572
L12.7381 3.3096
" />
<path d="M12.7381 3.3096
L12.7857 3.2143
" />
<path d="M12.7857 3.2143
L12.7857 2.9762
" />
<path d="M12.7857 2.9762
L12.7381 2.8810
" />
<path d="M12.7381 2.8810
L12.6905 2.8334
" />
<path d="M12.6905 2.8334
L12.5952 2.7858
" />
<path d="M12.5952 2.7858
L12.4048 2.7858
" />
<path d="M12.4048 2.7858
L12.3095 2.8334
" />
<path d="M12.3095 2.8334
L12.2619 2.8810
" />
<path d="M12.2619 2.8810
L12.2143 2.9762
" />
</g><text x="13.0000" y="7.8000"
textLength="4.1548" font-size="1.3333" lengthAdjust="spacingAndGlyphs"
text-anchor="middle" opacity="0" stroke-opacity="0">U901</text>
<g class="stroked-text"><desc>U901</desc>
<path d="M11.2857 6.7548
L11.2857 7.5643
" />
<path d="M11.2857 7.5643
L11.3333 7.6596
" />
<path d="M11.3333 7.6596
L11.3810 7.7072
" />
<path d="M11.3810 7.7072
L11.4762 7.7548
" />
<path d="M11.4762 7.7548
L11.6667 7.7548
" />
<path d="M11.6667 7.7548
L11.7619 7.7072
" />
<path d="M11.7619 7.7072
L11.8095 7.6596
" />
<path d="M11.8095 7.6596
L11.8571 7.5643
" />
<path d="M11.8571 7.5643
L11.8571 6.7548
" />
<path d="M12.3810 7.7548
L12.5714 7.7548
" />
<path d="M12.5714 7.7548
L12.6667 7.7072
" />
<path d="M12.6667 7.7072
L12.7143 7.6596
" />
<path d="M12.7143 7.6596
L12.8095 7.5167
" />
<path d="M12.8095 7.5167
L12.8571 7.3262
" />
<path d="M12.8571 7.3262
L12.8571 6.9453
" />
<path d="M12.8571 6.9453
L12.8095 6.8501
" />
<path d="M12.8095 6.8501
L12.7619 6.8024
" />
<path d="M12.7619 6.8024
L12.6667 6.7548
" />
<path d="M12.6667 6.7548
L12.4762 6.7548
" />
<path d="M12.4762 6.7548
L12.3810 6.8024
" />
<path d="M12.3810 6.8024
L12.3333 6.8501
" />
<path d="M12.3333 6.8501
L12.2857 6.9453
" />
<path d="M12.2857 6.9453
L12.2857 7.1834
" />
<path d="M12.2857 7.1834
L12.3333 7.2786
" />
<path d="M12.3333 7.2786
L12.3810 7.3262
" />
<path d="M12.3810 7.3262
L12.4762 7.3739
" />
<path d="M12.4762 7.3739
L12.6667 7.3739
" />
<path d="M12.6667 7.3739
L12.7619 7.3262
" />
<path d="M12.7619 7.3262
L12.8095 7.2786
" />
<path d="M12.8095 7.2786
L12.8571 7.1834
" />
<path d="M13.4762 6.7548
L13.5714 6.7548
" />
<path d="M13.5714 6.7548
L13.6667 6.8024
" />
<path d="M13.6667 6.8024
L13.7143 6.8501
" />
<path d="M13.7143 6.8501
L13.7619 6.9453
" />
<path d="M13.7619 6.9453
L13.8095 7.1358
" />
<path d="M13.8095 7.1358
L13.8095 7.3739
" />
<path d="M13.8095 7.3739
L13.7619 7.5643
" />
<path d="M13.7619 7.5643
L13.7143 7.6596
" />
<path d="M13.7143 7.6596
L13.6667 7.7072
" />
<path d="M13.6667 7.7072
L13.5714 7.7548
" />
<path d="M13.5714 7.7548
L13.4762 7.7548
" />
<path d="M13.4762 7.7548
L13.3810 7.7072
" />
<path d="M13.3810 7.7072
L13.3333 7.6596
" />
<path d="M13.3333 7.6596
L13.2857 7.5643
" />
<path d="M13.2857 7.5643
L13.2381 7.3739
" />
<path d="M13.2381 7.3739
L13.2381 7.1358
" />
<path d="M13.2381 7.1358
L13.2857 6.9453
" />
<path d="M13.2857 6.9453
L13.3333 6.8501
" />
<path d="M13.3333 6.8501
L13.3810 6.8024
" />
<path d="M13.3810 6.8024
L13.4762 6.7548
" />
<path d="M14.7619 7.7548
L14.1905 7.7548
" />
<path d="M14.4762 7.7548
L14.4762 6.7548
" />
<path d="M14.4762 6.7548
L14.3810 6.8977
" />
<path d="M14.3810 6.8977
L14.2857 6.9929
" />
<path d="M14.2857 6.9929
L14.1905 7.0405
" />
</g></g>
<g style="fill:none; 
stroke:#D0D2CD; stroke-width:0.0500; stroke-opacity:1; 
stroke-linecap:round; stroke-linejoin:round;">
<path d="M0.0000 11.4000
L0.0000 3.3914
" />
<path d="M1.7000 11.4000
L0.0000 11.4000
" />
<path d="M1.7000 15.7200
L1.7000 11.4000
" />
<path d="M-0.0000 3.3914 A3.8500 3.8500 0.0 0 0 2.5919 0.0000" />
<path d="M2.5919 0.0000
L13.4081 0.0000
" />
<path d="M2.9500 15.7200
L1.7000 15.7200
" />
<path d="M3.4750 10.6900 A0.2500 0.2500 0.0 0 0 3.4750 11.1900" />
<path d="M3.4750 11.1900
L3.4750 14.5900
" />
<path d="M3.4750 14.5900
L2.9500 15.7200
" />
<path d="M12.5250 10.6900
L3.4750 10.6900
" />
<path d="M12.5250 11.1900 A0.2500 0.2500 0.0 0 0 12.5250 10.6900" />
<path d="M12.5250 14.5900
L12.5250 11.1900
" />
<path d="M13.0500 15.7200
L12.5250 14.5900
" />
<path d="M14.3000 11.4000
L14.3000 15.7200
" />
<path d="M14.3000 15.7200
L13.0500 15.7200
" />
<path d="M13.4081 -0.0000 A3.8500 3.8500 0.0 0 0 16.0000 3.3914" />
<path d="M16.0000 3.3914
L16.0000 11.4000
" />
<path d="M16.0000 11.4000
L14.3000 11.4000
" />
</g>
<g style="fill:#FFFFFF; fill-opacity:1.0000; stroke:none;">
<circle cx="11.2800" cy="9.2500" r="0.1500" /> 
<circle cx="5.2500" cy="8.0000" r="0.1500" /> 
<circle cx="4.7200" cy="9.2500" r="0.1500" /> 
<circle cx="9.5000" cy="5.6000" r="0.1000" /> 
<circle cx="8.1250" cy="7.2750" r="0.1000" /> 
<circle cx="6.7500" cy="9.3000" r="0.1000" /> 
<circle cx="7.7500" cy="9.3000" r="0.1000" /> 
<circle cx="8.7500" cy="9.3000" r="0.1000" /> 
<circle cx="10.3500" cy="7.9000" r="0.1000" /> 
<circle cx="10.8250" cy="8.3000" r="0.1000" /> 
<circle cx="7.2500" cy="8.9000" r="0.1000" /> 
<circle cx="8.2500" cy="8.9000" r="0.1000" /> 
<circle cx="8.9250" cy="5.8250" r="0.1000" /> 
<circle cx="9.7500" cy="9.3000" r="0.1000" /> 
</g>
<g style="fill:#FFFFFF; fill-opacity:1.0000; stroke:none;">
<circle cx="3.9000" cy="10.1400" r="0.2500" /> 
</g>
<g style="fill:#FFFFFF; fill-opacity:1.0000; stroke:none;">
<circle cx="12.1000" cy="10.1400" r="0.2500" /> 
</g>
<g style="fill:none; 
stroke:#FFFFFF; stroke-width:0.5000; stroke-opacity:1; 
stroke-linecap:round; stroke-linejoin:round;">
<path d="M2.3500 9.8650
L2.3500 11.0150
" />
</g>
<g style="fill:none; 
stroke:#FFFFFF; stroke-width:0.5000; stroke-opacity:1; 
stroke-linecap:round; stroke-linejoin:round;">
<path d="M2.3500 13.8650
L2.3500 15.0150
" />
</g>
<g style="fill:none; 
stroke:#FFFFFF; stroke-width:0.5000; stroke-opacity:1; 
stroke-linecap:round; stroke-linejoin:round;">
<path d="M13.6500 9.8650
L13.6500 11.0150
" />
</g>
<g style="fill:none; 
stroke:#FFFFFF; stroke-width:0.5000; stroke-opacity:1; 
stroke-linecap:round; stroke-linejoin:round;">
<path d="M13.6500 13.8650
L13.6500 15.0150
" />
</g>
<g style="fill:#FFFFFF; fill-opacity:1.0000; stroke:none;">
<circle cx="3.5000" cy="4.5000" r="0.4000" /> 
</g>
<g style="fill:#FFFFFF; fill-opacity:1.0000; stroke:none;">
<circle cx="5.3000" cy="4.5000" r="0.4000" /> 
</g>
<g style="fill:#FFFFFF; fill-opacity:1.0000; stroke:none;">
<circle cx="7.1000" cy="4.5000" r="0.4000" /> 
</g>
<g style="fill:#FFFFFF; fill-opacity:1.0000; stroke:none;">
<circle cx="8.9000" cy="4.5000" r="0.4000" /> 
</g>
<g style="fill:#FFFFFF; fill-opacity:1.0000; stroke:none;">
<circle cx="10.7000" cy="4.5000" r="0.4000" /> 
</g>
<g style="fill:#FFFFFF; fill-opacity:1.0000; stroke:none;">
<circle cx="12.5000" cy="4.5000" r="0.4000" /> 
</g> 
</svg>
