%TF.GenerationSoftware,KiCad,Pcbnew,10.0.6*%
%TF.CreationDate,2026-09-08T00:55:51+02:00*%
%TF.ProjectId,Trimix_Analyzer,5472696d-6978-45f4-916e-616c797a6572,A3-placement-01*%
%TF.SameCoordinates,Original*%
%TF.FileFunction,Copper,L4,Bot*%
%TF.FilePolarity,Positive*%
%FSLAX46Y46*%
G04 Gerber Fmt 4.6, Leading zero omitted, Abs format (unit mm)*
G04 Created by KiCad (PCBNEW 10.0.6) date 2026-09-08 00:55:51*
%MOMM*%
%LPD*%
G01*
G04 APERTURE LIST*
G04 Aperture macros list*
%AMRoundRect*
0 Rectangle with rounded corners*
0 $1 Rounding radius*
0 $2 $3 $4 $5 $6 $7 $8 $9 X,Y pos of 4 corners*
0 Add a 4 corners polygon primitive as box body*
4,1,4,$2,$3,$4,$5,$6,$7,$8,$9,$2,$3,0*
0 Add four circle primitives for the rounded corners*
1,1,$1+$1,$2,$3*
1,1,$1+$1,$4,$5*
1,1,$1+$1,$6,$7*
1,1,$1+$1,$8,$9*
0 Add four rect primitives between the rounded corners*
20,1,$1+$1,$2,$3,$4,$5,0*
20,1,$1+$1,$4,$5,$6,$7,0*
20,1,$1+$1,$6,$7,$8,$9,0*
20,1,$1+$1,$8,$9,$2,$3,0*%
G04 Aperture macros list end*
%TA.AperFunction,ComponentPad*%
%ADD10RoundRect,0.250000X-0.675000X-0.675000X0.675000X-0.675000X0.675000X0.675000X-0.675000X0.675000X0*%
%TD*%
%TA.AperFunction,ComponentPad*%
%ADD11C,1.850000*%
%TD*%
%TA.AperFunction,ComponentPad*%
%ADD12R,1.700000X1.700000*%
%TD*%
%TA.AperFunction,ComponentPad*%
%ADD13C,1.700000*%
%TD*%
%TA.AperFunction,ComponentPad*%
%ADD14RoundRect,0.250000X0.600000X0.725000X-0.600000X0.725000X-0.600000X-0.725000X0.600000X-0.725000X0*%
%TD*%
%TA.AperFunction,ComponentPad*%
%ADD15O,1.700000X1.950000*%
%TD*%
%TA.AperFunction,ComponentPad*%
%ADD16C,2.240000*%
%TD*%
%TA.AperFunction,ComponentPad*%
%ADD17C,2.740000*%
%TD*%
%TA.AperFunction,ComponentPad*%
%ADD18C,0.400000*%
%TD*%
%TA.AperFunction,HeatsinkPad*%
%ADD19C,0.500000*%
%TD*%
%TA.AperFunction,HeatsinkPad*%
%ADD20R,2.700000X2.700000*%
%TD*%
%TA.AperFunction,ComponentPad*%
%ADD21R,1.300000X1.300000*%
%TD*%
%TA.AperFunction,ComponentPad*%
%ADD22C,1.300000*%
%TD*%
%TA.AperFunction,SMDPad,CuDef*%
%ADD23RoundRect,0.200000X0.275000X-0.200000X0.275000X0.200000X-0.275000X0.200000X-0.275000X-0.200000X0*%
%TD*%
%TA.AperFunction,SMDPad,CuDef*%
%ADD24C,0.800000*%
%TD*%
%TA.AperFunction,SMDPad,CuDef*%
%ADD25RoundRect,0.135000X-0.135000X-0.185000X0.135000X-0.185000X0.135000X0.185000X-0.135000X0.185000X0*%
%TD*%
%TA.AperFunction,SMDPad,CuDef*%
%ADD26C,1.000000*%
%TD*%
%TA.AperFunction,SMDPad,CuDef*%
%ADD27RoundRect,0.225000X-0.250000X0.225000X-0.250000X-0.225000X0.250000X-0.225000X0.250000X0.225000X0*%
%TD*%
%TA.AperFunction,SMDPad,CuDef*%
%ADD28RoundRect,0.200000X-0.200000X-0.275000X0.200000X-0.275000X0.200000X0.275000X-0.200000X0.275000X0*%
%TD*%
%TA.AperFunction,SMDPad,CuDef*%
%ADD29RoundRect,0.140000X-0.170000X0.140000X-0.170000X-0.140000X0.170000X-0.140000X0.170000X0.140000X0*%
%TD*%
%TA.AperFunction,SMDPad,CuDef*%
%ADD30RoundRect,0.250000X-0.325000X-0.650000X0.325000X-0.650000X0.325000X0.650000X-0.325000X0.650000X0*%
%TD*%
%TA.AperFunction,SMDPad,CuDef*%
%ADD31RoundRect,0.050000X-0.250000X-0.100000X0.250000X-0.100000X0.250000X0.100000X-0.250000X0.100000X0*%
%TD*%
%TA.AperFunction,SMDPad,CuDef*%
%ADD32RoundRect,0.050000X-0.075000X-0.275000X0.075000X-0.275000X0.075000X0.275000X-0.075000X0.275000X0*%
%TD*%
%TA.AperFunction,SMDPad,CuDef*%
%ADD33RoundRect,0.050000X-0.250000X-0.075000X0.250000X-0.075000X0.250000X0.075000X-0.250000X0.075000X0*%
%TD*%
%TA.AperFunction,SMDPad,CuDef*%
%ADD34RoundRect,0.050000X-0.100000X-1.150000X0.100000X-1.150000X0.100000X1.150000X-0.100000X1.150000X0*%
%TD*%
%TA.AperFunction,ViaPad*%
%ADD35C,0.500000*%
%TD*%
%TA.AperFunction,ViaPad*%
%ADD36C,0.600000*%
%TD*%
%TA.AperFunction,ViaPad*%
%ADD37C,0.450000*%
%TD*%
%TA.AperFunction,ViaPad*%
%ADD38C,0.400000*%
%TD*%
%TA.AperFunction,Conductor*%
%ADD39C,0.150000*%
%TD*%
%TA.AperFunction,Conductor*%
%ADD40C,0.200000*%
%TD*%
%TA.AperFunction,Conductor*%
%ADD41C,0.400000*%
%TD*%
%TA.AperFunction,Conductor*%
%ADD42C,1.000000*%
%TD*%
%TA.AperFunction,Conductor*%
%ADD43C,0.300000*%
%TD*%
%TA.AperFunction,Conductor*%
%ADD44C,0.250000*%
%TD*%
G04 APERTURE END LIST*
D10*
%TO.P,J102,1,Pin_1_1*%
%TO.N,PACK_P*%
X14900000Y-93000000D03*
D11*
%TO.P,J102,2,Pin_2_2*%
%TO.N,GND*%
X19100000Y-93000000D03*
%TD*%
D12*
%TO.P,J501,1,Pin_1_1*%
%TO.N,HE_3V0*%
X4000000Y-34960000D03*
D13*
%TO.P,J501,2,Pin_2_2*%
%TO.N,HE_SENSE*%
X4000000Y-37500000D03*
%TO.P,J501,3,Pin_3_3*%
%TO.N,GND*%
X4000000Y-40040000D03*
%TD*%
D14*
%TO.P,J701,1,5.28V_1*%
%TO.N,CO_5V28*%
X26450000Y-29525000D03*
D15*
%TO.P,J701,2,GND_2*%
%TO.N,GND*%
X23950000Y-29525000D03*
%TO.P,J701,3,CO_TX_3*%
%TO.N,CO_TX_CABLE*%
X21450000Y-29525000D03*
%TO.P,J701,4,CO_RX_4*%
%TO.N,CO_RX_CABLE*%
X18950000Y-29525000D03*
%TD*%
D14*
%TO.P,J601,1,VIN_1*%
%TO.N,BME_VIN*%
X26450000Y-21525000D03*
D15*
%TO.P,J601,2,GND_2*%
%TO.N,GND*%
X23950000Y-21525000D03*
%TO.P,J601,3,SCL_3*%
%TO.N,BME_SCL*%
X21450000Y-21525000D03*
%TO.P,J601,4,SDA_4*%
%TO.N,BME_SDA*%
X18950000Y-21525000D03*
%TD*%
D12*
%TO.P,J801,1,Pin_1_1*%
%TO.N,Net-(J801-Pin_1)*%
X3724999Y-51500000D03*
D13*
%TO.P,J801,2,Pin_2_2*%
%TO.N,GND*%
X6264999Y-51500000D03*
%TD*%
D16*
%TO.P,J402,1,In_1*%
%TO.N,O2_B_RAW_P*%
X4450000Y-16600000D03*
D17*
%TO.P,J402,2,Ext_2*%
%TO.N,O2_B_RAW_N*%
X1910000Y-14060000D03*
X1910000Y-19140000D03*
X6990000Y-14060000D03*
X6990000Y-19140000D03*
%TD*%
D12*
%TO.P,J103,1,Pin_1_1*%
%TO.N,/01  CHARGING + BATTERY/PACK_TS*%
X4000000Y-77725000D03*
D13*
%TO.P,J103,2,Pin_2_2*%
%TO.N,GND*%
X4000000Y-80265000D03*
%TD*%
D12*
%TO.P,J104,1,A_1*%
%TO.N,VSYS*%
X4000000Y-69725000D03*
D13*
%TO.P,J104,2,B_2*%
%TO.N,CHARGE_ARM*%
X4000000Y-72265000D03*
%TD*%
D12*
%TO.P,J802,1,Pin_1_1*%
%TO.N,BUTTON_LED_A*%
X5725000Y-55300000D03*
D13*
%TO.P,J802,2,Pin_2_2*%
%TO.N,GND*%
X8265000Y-55300000D03*
%TD*%
D12*
%TO.P,J301,1,Pin_1_1*%
%TO.N,HOST_3V3*%
X27265000Y-69245000D03*
D13*
%TO.P,J301,2,Pin_2_2*%
%TO.N,HOST_5V*%
X24725000Y-69245000D03*
%TO.P,J301,3,Pin_3_3*%
%TO.N,HOST_3V3*%
X27265000Y-66705000D03*
%TO.P,J301,4,Pin_4_4*%
%TO.N,HOST_5V*%
X24725000Y-66705000D03*
%TO.P,J301,5,Pin_5_5*%
%TO.N,GND*%
X27265000Y-64165000D03*
%TO.P,J301,6,Pin_6_6*%
X24725000Y-64165000D03*
%TO.P,J301,7,Pin_7_7*%
%TO.N,unconnected-(J301-Pin_7-Pad7)*%
X27265000Y-61625000D03*
%TO.P,J301,8,Pin_8_8*%
%TO.N,POWER_KILL_N*%
X24725000Y-61625000D03*
%TO.P,J301,9,Pin_9_9*%
%TO.N,CO_UART_EN*%
X27265000Y-59085000D03*
%TO.P,J301,10,Pin_10_10*%
%TO.N,CO_UART_RX*%
X24725000Y-59085000D03*
%TO.P,J301,11,Pin_11_11*%
%TO.N,USB_ILIM_AUTH*%
X27265000Y-56545000D03*
%TO.P,J301,12,Pin_12_12*%
%TO.N,CO_UART_TX*%
X24725000Y-56545000D03*
%TO.P,J301,13,Pin_13_13*%
%TO.N,CHG_INT_N*%
X27265000Y-54005000D03*
%TO.P,J301,14,Pin_14_14*%
%TO.N,I2C_SCL*%
X24725000Y-54005000D03*
%TO.P,J301,15,Pin_15_15*%
%TO.N,unconnected-(J301-Pin_15-Pad15)*%
X27265000Y-51465000D03*
%TO.P,J301,16,Pin_16_16*%
%TO.N,GND*%
X24725000Y-51465000D03*
%TO.P,J301,17,Pin_17_17*%
%TO.N,HE_ENABLE*%
X27265000Y-48925000D03*
%TO.P,J301,18,Pin_18_18*%
%TO.N,HOST_3V3*%
X24725000Y-48925000D03*
%TO.P,J301,19,Pin_19_19*%
%TO.N,POWER_INT_N*%
X27265000Y-46385000D03*
%TO.P,J301,20,Pin_20_20*%
%TO.N,unconnected-(J301-Pin_20-Pad20)*%
X24725000Y-46385000D03*
%TO.P,J301,21,Pin_21_21*%
%TO.N,I2C_SDA*%
X27265000Y-43845000D03*
%TO.P,J301,22,Pin_22_22*%
%TO.N,unconnected-(J301-Pin_22-Pad22)*%
X24725000Y-43845000D03*
%TO.P,J301,23,Pin_23_23*%
%TO.N,unconnected-(J301-Pin_23-Pad23)*%
X27265000Y-41305000D03*
%TO.P,J301,24,Pin_24_24*%
%TO.N,unconnected-(J301-Pin_24-Pad24)*%
X24725000Y-41305000D03*
%TO.P,J301,25,Pin_25_25*%
%TO.N,unconnected-(J301-Pin_25-Pad25)*%
X27265000Y-38765000D03*
%TO.P,J301,26,Pin_26_26*%
%TO.N,unconnected-(J301-Pin_26-Pad26)*%
X24725000Y-38765000D03*
%TD*%
D18*
%TO.P,U201,15,PGND/EP_15*%
%TO.N,GND*%
X12500000Y-60000000D03*
X12500000Y-60500000D03*
X12500000Y-61000000D03*
X12500000Y-61500000D03*
X12500000Y-62000000D03*
X13000000Y-60000000D03*
X13000000Y-60500000D03*
X13000000Y-61000000D03*
X13000000Y-61500000D03*
X13000000Y-62000000D03*
X13500000Y-60000000D03*
X13500000Y-60500000D03*
X13500000Y-61000000D03*
X13500000Y-61500000D03*
X13500000Y-62000000D03*
%TD*%
D19*
%TO.P,U101,25,PGND_25*%
%TO.N,GND*%
X11900000Y-82900000D03*
X11900000Y-84000000D03*
X11900000Y-85100000D03*
X13000000Y-82900000D03*
X13000000Y-84000000D03*
D20*
X13000000Y-84000000D03*
D19*
X13000000Y-85100000D03*
X14100000Y-82900000D03*
X14100000Y-84000000D03*
X14100000Y-85100000D03*
%TD*%
D21*
%TO.P,J101,1,1_1*%
%TO.N,USB_5V*%
X10250000Y-97000000D03*
D22*
%TO.P,J101,2,2_2*%
%TO.N,GND*%
X12050000Y-97000000D03*
%TO.P,J101,3,3_3*%
%TO.N,USB_CC1*%
X13850000Y-97000000D03*
%TO.P,J101,4,4_4*%
%TO.N,USB_CC2*%
X15650000Y-97000000D03*
%TO.P,J101,5,5_5*%
%TO.N,USB_D_P*%
X17450000Y-97000000D03*
%TO.P,J101,6,6_6*%
%TO.N,USB_D_M*%
X19250000Y-97000000D03*
%TD*%
D12*
%TO.P,J401,1,Pin_1_1*%
%TO.N,O2_A_RAW_P*%
X4900000Y-24460000D03*
D13*
%TO.P,J401,2,Pin_2_2*%
%TO.N,O2_A_RAW_N*%
X4900000Y-27000000D03*
%TO.P,J401,3,Pin_3_3*%
%TO.N,unconnected-(J401-Pin_3-Pad3)*%
X4900000Y-29540000D03*
%TD*%
D23*
%TO.P,R121,1*%
%TO.N,USB_5V*%
X8750000Y-85625000D03*
%TO.P,R121,2*%
%TO.N,USB_OVP_UPPER*%
X8750000Y-83975000D03*
%TD*%
D24*
%TO.P,TP1013,1*%
%TO.N,/01  CHARGING + BATTERY/CHG_STAT_N*%
X10150000Y-83900000D03*
%TD*%
D25*
%TO.P,R119,1*%
%TO.N,USB_LIMIT_SET*%
X4640000Y-88150000D03*
%TO.P,R119,2*%
%TO.N,GND*%
X5660000Y-88150000D03*
%TD*%
D26*
%TO.P,TP1007,1,1_1*%
%TO.N,POWER_EN*%
X21001277Y-60750000D03*
%TD*%
D23*
%TO.P,R126,1*%
%TO.N,USB_OVP_ILM*%
X18750000Y-90825000D03*
%TO.P,R126,2*%
%TO.N,GND*%
X18750000Y-89175000D03*
%TD*%
D27*
%TO.P,C115,1*%
%TO.N,USB_5V*%
X12000000Y-91975000D03*
%TO.P,C115,2*%
%TO.N,GND*%
X12000000Y-93525000D03*
%TD*%
D28*
%TO.P,R122,1*%
%TO.N,USB_OVP_UPPER*%
X9625000Y-87800000D03*
%TO.P,R122,2*%
%TO.N,USB_OVP_SET*%
X11275000Y-87800000D03*
%TD*%
D23*
%TO.P,R124,1*%
%TO.N,USB_5V*%
X16000000Y-87175000D03*
%TO.P,R124,2*%
%TO.N,USB_OVP_UVLO*%
X16000000Y-85525000D03*
%TD*%
D29*
%TO.P,C116,1*%
%TO.N,USB_OVP_DVDT*%
X16500000Y-88570000D03*
%TO.P,C116,2*%
%TO.N,GND*%
X16500000Y-89530000D03*
%TD*%
D28*
%TO.P,R123,1*%
%TO.N,USB_OVP_SET*%
X12900000Y-87600000D03*
%TO.P,R123,2*%
%TO.N,GND*%
X14550000Y-87600000D03*
%TD*%
D30*
%TO.P,C114,1*%
%TO.N,USB_OVP_5V*%
X8425000Y-90000000D03*
%TO.P,C114,2*%
%TO.N,GND*%
X11375000Y-90000000D03*
%TD*%
D23*
%TO.P,R128,1*%
%TO.N,USB_PERMISSION_Q_N*%
X8500000Y-93575000D03*
%TO.P,R128,2*%
%TO.N,GND*%
X8500000Y-91925000D03*
%TD*%
%TO.P,R125,1*%
%TO.N,USB_OVP_UVLO*%
X17750000Y-87775000D03*
%TO.P,R125,2*%
%TO.N,GND*%
X17750000Y-86125000D03*
%TD*%
%TO.P,R127,1*%
%TO.N,USB_OVP_5V*%
X10250000Y-93575000D03*
%TO.P,R127,2*%
%TO.N,GND*%
X10250000Y-91925000D03*
%TD*%
D31*
%TO.P,U115,1,EN/UVLO_1*%
%TO.N,USB_OVP_UVLO*%
X13600000Y-90700000D03*
D32*
X13775000Y-90875000D03*
D33*
%TO.P,U115,2,OVLO_2*%
%TO.N,USB_OVP_SET*%
X13600000Y-90225000D03*
%TO.P,U115,3,AUXOFF_3*%
%TO.N,USB_CC_INT_N*%
X13600000Y-89775000D03*
D31*
%TO.P,U115,4,FLT_4*%
%TO.N,unconnected-(U115-FLT-Pad4)*%
X13600000Y-89300000D03*
D32*
X13775000Y-89125000D03*
D34*
%TO.P,U115,5,IN_5*%
%TO.N,USB_5V*%
X14250000Y-90000000D03*
%TO.P,U115,6,OUT_6*%
%TO.N,USB_OVP_5V*%
X14750000Y-90000000D03*
D32*
%TO.P,U115,7,DVDT_7*%
%TO.N,USB_OVP_DVDT*%
X15225000Y-89125000D03*
D31*
X15400000Y-89300000D03*
D33*
%TO.P,U115,8,GND_8*%
%TO.N,GND*%
X15400000Y-89775000D03*
%TO.P,U115,9,ILM_9*%
%TO.N,USB_OVP_ILM*%
X15400000Y-90225000D03*
D32*
%TO.P,U115,10,ITIMER_10*%
%TO.N,unconnected-(U115-ITIMER-Pad10)*%
X15225000Y-90875000D03*
D31*
X15400000Y-90700000D03*
%TD*%
D35*
%TO.N,GND*%
X12800000Y-93950000D03*
X11146600Y-86280800D03*
D36*
X5750000Y-82425000D03*
X2100000Y-25735000D03*
X4775000Y-49700000D03*
D35*
X24200000Y-79100000D03*
D36*
X13025000Y-39400000D03*
X20500000Y-66800000D03*
X9275000Y-49100000D03*
X19825000Y-75250000D03*
X6200000Y-79525000D03*
X11100000Y-91100000D03*
X7675000Y-31300000D03*
X28000000Y-84225000D03*
X22000000Y-62425000D03*
X20750000Y-88300000D03*
X13200000Y-68250000D03*
X17275000Y-38400000D03*
X7750000Y-85525000D03*
X19062500Y-85950000D03*
X20462500Y-57800000D03*
X23350000Y-54250000D03*
X15925000Y-28500000D03*
X1000000Y-56050000D03*
X4950000Y-59250000D03*
X19062500Y-78700000D03*
X5350000Y-62100000D03*
X15775000Y-58500000D03*
D35*
X15925000Y-83575000D03*
D36*
X8000000Y-71775000D03*
D37*
X25400000Y-79200000D03*
D36*
X10450000Y-90500000D03*
X19925000Y-72250000D03*
X12775000Y-46900000D03*
X27200000Y-96175000D03*
X10462500Y-56475000D03*
X14375000Y-34850000D03*
D35*
X20300000Y-87850000D03*
D36*
X20750000Y-91925000D03*
X22000000Y-42925000D03*
D37*
X25200000Y-75900000D03*
D35*
X28200000Y-71950000D03*
D36*
X23812500Y-96700000D03*
X6900000Y-92450000D03*
X16325000Y-37400000D03*
D35*
X26650000Y-72400000D03*
D36*
X4025000Y-54200000D03*
X12600000Y-21400000D03*
X9275000Y-45300000D03*
X20450000Y-43350000D03*
X20450000Y-59600000D03*
X17512500Y-68300000D03*
X18800000Y-45400000D03*
X24300000Y-82000000D03*
X11075000Y-55950000D03*
X18275000Y-64000000D03*
X22612500Y-85800000D03*
X5350000Y-65500000D03*
X15100000Y-47775000D03*
X6525000Y-57000000D03*
X28500000Y-79425000D03*
X18950000Y-68250000D03*
X16650000Y-32250000D03*
X4000000Y-45587500D03*
X9200000Y-32225000D03*
X16700000Y-59025000D03*
X3175000Y-90750000D03*
X22000000Y-77125000D03*
X5350000Y-68900000D03*
X3700000Y-87750000D03*
%TO.N,PACK_P*%
X1278600Y-89113100D03*
X16027100Y-72901400D03*
D37*
X16950000Y-85200000D03*
D36*
X20695000Y-86827600D03*
D35*
%TO.N,HOST_3V3*%
X23628700Y-78649800D03*
X16679000Y-40953700D03*
X19750000Y-68650000D03*
X19990500Y-70860100D03*
X7700000Y-74900000D03*
X1200000Y-62050000D03*
D37*
X24500000Y-75980000D03*
D35*
X17935400Y-37802900D03*
X22000000Y-83250000D03*
X20452700Y-65492600D03*
X11850000Y-70750000D03*
X25469000Y-80301100D03*
X11000000Y-94250000D03*
X27825000Y-72975000D03*
X2450000Y-74000000D03*
X26000000Y-83750000D03*
%TO.N,/01  CHARGING + BATTERY/BQ_REGN*%
X6700000Y-85400000D03*
X9704500Y-76253600D03*
D37*
X12790000Y-81150000D03*
D35*
X1100000Y-83000000D03*
X3800000Y-88500000D03*
X3400000Y-81600000D03*
D36*
%TO.N,HE_AIN_N*%
X5771300Y-44323200D03*
X13987500Y-44356300D03*
X5610800Y-33774600D03*
%TO.N,HE_3V0*%
X2792000Y-41149700D03*
X19022000Y-46858100D03*
X7037400Y-42266500D03*
%TO.N,HE_EXC_DIV*%
X18233100Y-48957800D03*
X6769000Y-47603700D03*
%TO.N,VOUT_5V*%
X10250000Y-51000000D03*
X8529500Y-67549700D03*
X1250000Y-78486100D03*
X13178100Y-52977600D03*
X2212800Y-48218100D03*
D35*
X10400000Y-48900000D03*
D36*
X1309600Y-56992700D03*
X14204900Y-69351200D03*
X8496900Y-60958100D03*
X2263600Y-66260300D03*
%TO.N,PB_FILTERED_N*%
X6729800Y-71458900D03*
X7458500Y-57002700D03*
D35*
%TO.N,/01  CHARGING + BATTERY/PACK_TS*%
X10840800Y-82142200D03*
X10150000Y-89075000D03*
D37*
X13750000Y-86600000D03*
D36*
%TO.N,CO_UART_EN*%
X23177500Y-58366400D03*
X15415900Y-50136400D03*
%TO.N,VSYS*%
X19345000Y-71511800D03*
X11400000Y-54025000D03*
X7772400Y-95949100D03*
X15705600Y-61605600D03*
X20486900Y-95757000D03*
D35*
X14950000Y-95600000D03*
D36*
X15200000Y-59900000D03*
D37*
X15840000Y-84250000D03*
D36*
X3374100Y-93761400D03*
X7050700Y-88804800D03*
X21000000Y-80589200D03*
X4157100Y-57182100D03*
D37*
%TO.N,/01  CHARGING + BATTERY/BQ_BTST*%
X13500000Y-81200000D03*
D36*
X20100000Y-81350000D03*
%TO.N,O2_VMID*%
X15235100Y-37324900D03*
X11755100Y-31308200D03*
X5377000Y-37025700D03*
X2323400Y-29050100D03*
X8067100Y-44101500D03*
X7370100Y-36377800D03*
%TO.N,BME_VIN*%
X5610800Y-71796000D03*
D35*
X1250000Y-58900000D03*
X1250000Y-63650000D03*
X2300000Y-69775000D03*
D36*
X20618500Y-40797000D03*
%TO.N,USB_PERMISSION_Q*%
X16182700Y-91701700D03*
X22042700Y-87173200D03*
X25950700Y-82058300D03*
%TO.N,CO_5V28*%
X20212500Y-54929600D03*
X22820300Y-51437200D03*
%TO.N,CO_RX_CABLE*%
X28825000Y-31842300D03*
%TO.N,Net-(U801-ONT)*%
X8531600Y-69336000D03*
D35*
X10269900Y-70714500D03*
D36*
X10218500Y-55326200D03*
%TO.N,BME_SDA*%
X1968300Y-68614000D03*
X23315800Y-37123200D03*
X6844400Y-44400500D03*
%TO.N,HOST_5V*%
X10000000Y-49650000D03*
X10250000Y-52150000D03*
X14000000Y-50850000D03*
%TO.N,USB_ILIM_AUTH*%
X28807500Y-69147700D03*
X20870200Y-85165700D03*
X28065700Y-89325400D03*
X22499700Y-79998600D03*
%TO.N,BME_SCL*%
X2156700Y-67081700D03*
X8045700Y-50136000D03*
X5876500Y-48741500D03*
D35*
%TO.N,I2C_SCL*%
X15750000Y-79550000D03*
X19250000Y-74750000D03*
X6358100Y-87583200D03*
D37*
X26600000Y-76700000D03*
D35*
X25300000Y-75125000D03*
X18200000Y-77100000D03*
X20500000Y-69600000D03*
X25356300Y-71812800D03*
X24457400Y-36479800D03*
D36*
X4290500Y-85299500D03*
D35*
X25998400Y-62778000D03*
X19400000Y-72800000D03*
D37*
X9980000Y-84750000D03*
D35*
X18959700Y-31702400D03*
D36*
%TO.N,CO_LOGIC_3V0*%
X13960200Y-47651700D03*
X17069700Y-43188500D03*
X2849900Y-53058400D03*
X13191200Y-45278500D03*
%TO.N,O2_B_AIN_N*%
X14171300Y-31451500D03*
X11635200Y-23174200D03*
%TO.N,O2_B_AIN_P*%
X9209600Y-33835600D03*
X13357300Y-31529100D03*
X10098600Y-23013100D03*
X2312600Y-38549000D03*
%TO.N,HE_ENABLE*%
X10076400Y-53888800D03*
X18639900Y-53887600D03*
D35*
%TO.N,I2C_SDA*%
X28157800Y-62959300D03*
X25955100Y-71362000D03*
D37*
X26650000Y-77750000D03*
D35*
X17800000Y-78519300D03*
X26450000Y-74050000D03*
X23012500Y-63524100D03*
X16800000Y-79519300D03*
D37*
X10200000Y-85500000D03*
D36*
%TO.N,CHARGE_ARM*%
X17741000Y-77735500D03*
X6100000Y-80617600D03*
D35*
%TO.N,/01  CHARGING + BATTERY/CHG_CE_N*%
X17167000Y-80894500D03*
X3240300Y-91502200D03*
X6400000Y-88350000D03*
D37*
X12750000Y-86650000D03*
D36*
%TO.N,O2_B_RAW_P*%
X1278600Y-38037000D03*
%TO.N,CO_FB*%
X17719200Y-62085300D03*
X16463500Y-54485900D03*
X19026500Y-54952900D03*
%TO.N,HE_AIN_P*%
X13161400Y-42753100D03*
X9900600Y-37287600D03*
X7678000Y-51847100D03*
%TO.N,Net-(U801-PDT)*%
X14597200Y-68204100D03*
X14873700Y-53121300D03*
X13161400Y-66668700D03*
%TO.N,Net-(J801-Pin_1)*%
X3014600Y-74819400D03*
%TO.N,O2_A_RAW_P*%
X8686700Y-21152900D03*
D35*
%TO.N,USB_PERMISSION_CLR_N*%
X13200000Y-95050000D03*
D36*
X20151500Y-84467100D03*
X12254600Y-95104600D03*
D35*
X20900000Y-91150000D03*
X22700000Y-85050000D03*
D37*
%TO.N,CHG_INT_N*%
X11750000Y-86800000D03*
D35*
X20150000Y-82800000D03*
X11250000Y-78350000D03*
X15950000Y-88350000D03*
X18300000Y-82300000D03*
X19950000Y-74300000D03*
X16800000Y-87800000D03*
X17850000Y-85250000D03*
X22150000Y-98200000D03*
X17000000Y-78550000D03*
X15750000Y-78350000D03*
X9100000Y-97100000D03*
X8450000Y-98200000D03*
%TO.N,USB_LIMIT_FAULT_N*%
X6000000Y-92050000D03*
X2047900Y-93452100D03*
D36*
%TO.N,O2_B_RAW_N*%
X15184500Y-34732600D03*
%TO.N,BUTTON_LED_A*%
X5508800Y-69953700D03*
X2260900Y-75873500D03*
%TO.N,CO_TX_3V0*%
X11600000Y-41532500D03*
X23346100Y-38724100D03*
%TO.N,USB_CHG_5V*%
X7100000Y-90350000D03*
X10100000Y-82750000D03*
D37*
%TO.N,USB_CC1*%
X23600000Y-77150000D03*
%TO.N,USB_CC2*%
X23600000Y-77850000D03*
D35*
X25100000Y-88600000D03*
X15650000Y-95500000D03*
%TO.N,USB_VBUS_DET*%
X22050000Y-70850000D03*
X24900000Y-79675000D03*
D37*
%TO.N,USB_CC_INT_N*%
X26100000Y-78900000D03*
D38*
X13600000Y-89775000D03*
D35*
X25074500Y-87211800D03*
X16700000Y-90300000D03*
X22200000Y-88350000D03*
D36*
%TO.N,POWER_INT_N*%
X22368900Y-66830800D03*
X15922200Y-56365000D03*
X5736000Y-73232000D03*
%TO.N,USB_5V*%
X23602000Y-70710800D03*
X23911500Y-72521000D03*
X13000000Y-91650000D03*
X22250900Y-80985500D03*
D35*
X20350000Y-97200000D03*
D36*
X1693900Y-85246400D03*
X2444500Y-86951300D03*
D35*
X22000000Y-82000000D03*
X17600000Y-79600000D03*
X16399999Y-80800000D03*
%TO.N,USB_OVP_5V*%
X18350000Y-94600000D03*
X14800000Y-91600000D03*
D36*
X13300000Y-92400000D03*
X8000000Y-88550000D03*
D35*
X20000000Y-94300000D03*
D36*
X24412700Y-84033400D03*
D35*
%TO.N,USB_LIMIT_SET*%
X4950000Y-88850000D03*
D36*
%TO.N,CO_UART_RX*%
X10123100Y-47191500D03*
%TO.N,CO_UART_TX*%
X15704600Y-46835100D03*
%TO.N,CO_RX_3V0*%
X15553500Y-45110100D03*
X28807500Y-40094000D03*
D35*
%TO.N,GAUGE_ALERT_N*%
X17190000Y-72035000D03*
X11950000Y-71650000D03*
X9700000Y-72150000D03*
X11250000Y-73900000D03*
D36*
%TO.N,USB_VBUS_SENSE*%
X22218000Y-89102200D03*
X20535300Y-92822800D03*
%TO.N,POWER_EN*%
X7893100Y-66484000D03*
X21254900Y-59272300D03*
X14702200Y-58411600D03*
%TO.N,POWER_KILL_N*%
X16268700Y-53058300D03*
X2334600Y-81733200D03*
%TO.N,USB_PERMISSION_Q_N*%
X22653500Y-96916600D03*
X22765600Y-81879400D03*
D37*
%TO.N,/01  CHARGING + BATTERY/CHG_STAT_N*%
X10150000Y-84000000D03*
D35*
%TO.N,USB_D_P*%
X1000000Y-84800000D03*
D37*
X28050000Y-73750000D03*
D35*
X6800000Y-96700000D03*
X23400000Y-68900000D03*
X5000000Y-92300000D03*
X9500000Y-95000000D03*
%TO.N,USB_D_M*%
X23500000Y-94600000D03*
X19250000Y-94700000D03*
X27950000Y-75200000D03*
X28900000Y-78700000D03*
D37*
%TO.N,USB_OVP_SET*%
X12200000Y-87800000D03*
X12400000Y-90300000D03*
%TD*%
%TO.N,GND*%
D39*
X3900000Y-87550000D02*
X3700000Y-87750000D01*
D40*
X6900000Y-92450000D02*
X7975000Y-92450000D01*
D39*
X16500000Y-89530000D02*
X18750000Y-89175000D01*
D40*
X19062500Y-85950000D02*
X17925000Y-85950000D01*
X12300000Y-93825000D02*
X12650000Y-93825000D01*
X12000000Y-93525000D02*
X12300000Y-93825000D01*
D39*
X14100000Y-85100000D02*
X14325000Y-85325000D01*
X15400000Y-89775000D02*
X15770000Y-89840000D01*
X11100000Y-91100000D02*
X11475000Y-90725000D01*
X11475000Y-90612500D02*
X11375000Y-90512500D01*
D40*
X18700000Y-88550000D02*
X18700000Y-89200000D01*
X7975000Y-92450000D02*
X8500000Y-91925000D01*
X19091800Y-89175000D02*
X18750000Y-89175000D01*
X8500000Y-91925000D02*
X10250000Y-91925000D01*
X20750000Y-88300000D02*
X19091800Y-89175000D01*
X10250000Y-91925000D02*
X10300000Y-91975000D01*
X17925000Y-85950000D02*
X17750000Y-86125000D01*
X20300000Y-87850000D02*
X18700000Y-88550000D01*
D39*
X4925000Y-87550000D02*
X3900000Y-87550000D01*
X11375000Y-90512500D02*
X11375000Y-90000000D01*
D40*
X12650000Y-93825000D02*
X12800000Y-93950000D01*
D39*
X5660000Y-88150000D02*
X4925000Y-87550000D01*
X11475000Y-90612500D02*
X11475000Y-90500000D01*
X11475000Y-90725000D02*
X11475000Y-90612500D01*
X15770000Y-89840000D02*
X16500000Y-89530000D01*
X14325000Y-85325000D02*
X14325000Y-87600000D01*
%TO.N,PACK_P*%
D41*
X16027100Y-72901400D02*
X16127099Y-73001400D01*
X18133300Y-84016700D02*
X20695000Y-86578500D01*
X16127099Y-73001400D02*
X16127099Y-74422000D01*
X6313200Y-84235900D02*
X3989500Y-84235900D01*
X12768400Y-82037500D02*
X16154000Y-82037500D01*
X16154000Y-82037500D02*
X18133300Y-84016700D01*
X20695000Y-86578500D02*
X20695000Y-86827600D01*
X3989500Y-84235900D02*
X1278600Y-86946800D01*
X10640000Y-79909100D02*
X16127100Y-74422000D01*
X10640000Y-79909100D02*
X6313200Y-84235900D01*
X18133300Y-84016700D02*
X16950000Y-85200000D01*
X10640000Y-79909100D02*
X12768400Y-82037500D01*
X1278600Y-86946800D02*
X1278600Y-89113100D01*
%TO.N,HOST_3V3*%
D39*
X24500000Y-75980000D02*
X24500000Y-78215700D01*
X22500000Y-83100000D02*
X25350000Y-83100000D01*
X23450000Y-80300000D02*
X25469000Y-80300000D01*
X23450000Y-78828500D02*
X23450000Y-80300000D01*
X24250000Y-78465700D02*
X23812800Y-78465700D01*
X25469000Y-80300000D02*
X25469000Y-80301100D01*
X11850000Y-70750000D02*
X11875000Y-70750000D01*
X11875000Y-70750000D02*
X12425000Y-70200000D01*
X25350000Y-83100000D02*
X26000000Y-83750000D01*
X18200000Y-70200000D02*
X19750000Y-68650000D01*
X23628700Y-78649800D02*
X23450000Y-78828500D01*
X22000000Y-83250000D02*
X22500000Y-83100000D01*
X23812800Y-78465700D02*
X23628700Y-78649800D01*
X12425000Y-70200000D02*
X18200000Y-70200000D01*
X24500000Y-78215700D02*
X24250000Y-78465700D01*
%TO.N,/01  CHARGING + BATTERY/BQ_REGN*%
X2500000Y-82300000D02*
X2450000Y-82350000D01*
X2600000Y-82300000D02*
X2500000Y-82300000D01*
X3400000Y-81600000D02*
X3350000Y-81600000D01*
X2700000Y-82250000D02*
X2650000Y-82250000D01*
X2450000Y-82350000D02*
X1750000Y-82350000D01*
X1750000Y-82350000D02*
X1100000Y-83000000D01*
X2650000Y-82250000D02*
X2600000Y-82300000D01*
X3350000Y-81600000D02*
X2700000Y-82250000D01*
%TO.N,HE_AIN_N*%
X8273100Y-44711100D02*
X8007000Y-44977200D01*
X13039600Y-44356300D02*
X12684800Y-44711100D01*
X8007000Y-44977200D02*
X6425300Y-44977200D01*
X13987500Y-44356300D02*
X13039600Y-44356300D01*
X6425300Y-44977200D02*
X5771300Y-44323200D01*
X12684800Y-44711100D02*
X8273100Y-44711100D01*
%TO.N,HE_3V0*%
X5175600Y-44580400D02*
X6571900Y-45976700D01*
X3908800Y-42266500D02*
X2792000Y-41149700D01*
X5175600Y-42266500D02*
X5175600Y-44580400D01*
X6571900Y-45976700D02*
X18140600Y-45976700D01*
X5175600Y-42266500D02*
X3908800Y-42266500D01*
X5175600Y-42266500D02*
X7037400Y-42266500D01*
X18140600Y-45976700D02*
X19022000Y-46858100D01*
%TO.N,HE_EXC_DIV*%
X18233100Y-48957800D02*
X17628500Y-48353200D01*
X7518500Y-48353200D02*
X6769000Y-47603700D01*
X17628500Y-48353200D02*
X7518500Y-48353200D01*
%TO.N,VOUT_5V*%
D41*
X1953800Y-66260300D02*
X2263600Y-66260300D01*
X4724500Y-60958100D02*
X8496900Y-60958100D01*
X2901900Y-56992700D02*
X2901900Y-59135500D01*
X4361000Y-48218200D02*
X2212800Y-48218200D01*
X1250000Y-78486100D02*
X1250000Y-66964100D01*
X9672600Y-52794000D02*
X8393000Y-52794000D01*
X2901900Y-56992700D02*
X2901900Y-54277200D01*
X8393000Y-52794000D02*
X8393000Y-51509800D01*
X9856200Y-52977600D02*
X9672600Y-52794000D01*
X2901900Y-56992700D02*
X1309600Y-56992700D01*
X8529500Y-67549700D02*
X11413700Y-67549700D01*
X2212800Y-48218200D02*
X2212800Y-48218100D01*
X13215200Y-69351200D02*
X14204900Y-69351200D01*
X13178100Y-52977600D02*
X9856200Y-52977600D01*
X2263600Y-66260300D02*
X2263600Y-63419000D01*
X2263600Y-63419000D02*
X4724500Y-60958100D01*
X1250000Y-66964100D02*
X1953800Y-66260300D01*
X4385100Y-52794000D02*
X8393000Y-52794000D01*
X2901900Y-59135500D02*
X4724500Y-60958100D01*
X8393000Y-51509800D02*
X7035100Y-50151900D01*
X11413700Y-67549700D02*
X13215200Y-69351200D01*
X10250000Y-51000000D02*
X8456000Y-52794000D01*
X7035100Y-50151900D02*
X6294700Y-50151900D01*
X2901900Y-54277200D02*
X4385100Y-52794000D01*
X6294700Y-50151900D02*
X4361000Y-48218200D01*
%TO.N,/01  CHARGING + BATTERY/PACK_TS*%
D39*
X10550000Y-86050000D02*
X10550000Y-88300000D01*
X12913600Y-85763600D02*
X11611600Y-85763600D01*
X11611600Y-85763600D02*
X10840800Y-84992800D01*
X13750000Y-86600000D02*
X12913600Y-85763600D01*
X10900000Y-85700000D02*
X10550000Y-86050000D01*
X10550000Y-88300000D02*
X10150000Y-88700000D01*
X10840800Y-84992800D02*
X10840800Y-82142200D01*
X10150000Y-88700000D02*
X10150000Y-89075000D01*
X11548000Y-85700000D02*
X10900000Y-85700000D01*
%TO.N,VSYS*%
D42*
X15705600Y-61605600D02*
X15705600Y-60916500D01*
D41*
X24624600Y-72903600D02*
X24624600Y-72225200D01*
D43*
X11400000Y-54025000D02*
X11550000Y-54175000D01*
D41*
X8285500Y-96462200D02*
X8858100Y-96462200D01*
X3374100Y-92299400D02*
X6868700Y-88804800D01*
D39*
X8825000Y-96350000D02*
X9350000Y-95825000D01*
D42*
X15705600Y-60916500D02*
X12889700Y-58100600D01*
D41*
X23911200Y-71511800D02*
X19345000Y-71511800D01*
X22701700Y-74826500D02*
X24624600Y-72903600D01*
D42*
X4000000Y-68173300D02*
X4000000Y-69725000D01*
D41*
X7772400Y-95949100D02*
X8285500Y-96462200D01*
D39*
X12750000Y-95600000D02*
X14950000Y-95600000D01*
X8400000Y-96325000D02*
X8825000Y-96350000D01*
D41*
X8858100Y-96462200D02*
X9428100Y-95892200D01*
X24624600Y-72225200D02*
X23911200Y-71511800D01*
D42*
X12819700Y-64491500D02*
X7873500Y-64491500D01*
D43*
X11550000Y-54175000D02*
X11550000Y-55300000D01*
D42*
X7873500Y-64491500D02*
X4191700Y-68173300D01*
X15705600Y-61605600D02*
X12819700Y-64491500D01*
X5075600Y-58100600D02*
X4157100Y-57182100D01*
D43*
X12889700Y-56639700D02*
X12889700Y-58100600D01*
X11550000Y-55300000D02*
X12889700Y-56639700D01*
D42*
X12889700Y-58100600D02*
X5075600Y-58100600D01*
D39*
X12500000Y-95700000D02*
X12750000Y-95600000D01*
D41*
X3374100Y-93761400D02*
X3374100Y-92299400D01*
X6868700Y-88804800D02*
X7050700Y-88804800D01*
X22701700Y-78660000D02*
X22701700Y-74826500D01*
X21000000Y-80361700D02*
X22701700Y-78660000D01*
D39*
X9350000Y-95825000D02*
X12500000Y-95700000D01*
D42*
X4191700Y-68173300D02*
X4000000Y-68173300D01*
D39*
X7772400Y-95949100D02*
X8400000Y-96325000D01*
D41*
X20351700Y-95892200D02*
X20486900Y-95757000D01*
X21000000Y-80589200D02*
X21000000Y-80361700D01*
%TO.N,/01  CHARGING + BATTERY/BQ_BTST*%
D44*
X13500000Y-81200000D02*
X14500000Y-80200000D01*
X18950000Y-80200000D02*
X20100000Y-81350000D01*
X14500000Y-80200000D02*
X18950000Y-80200000D01*
%TO.N,O2_VMID*%
D39*
X6722200Y-37025700D02*
X5377000Y-37025700D01*
X7370100Y-36377800D02*
X6722200Y-37025700D01*
%TO.N,BME_VIN*%
X1250000Y-58900000D02*
X600000Y-59550000D01*
X600000Y-63000000D02*
X1250000Y-63650000D01*
X600000Y-59550000D02*
X600000Y-63000000D01*
%TO.N,USB_PERMISSION_Q*%
X22003000Y-87173200D02*
X19570100Y-84740300D01*
X25326200Y-82682800D02*
X25950700Y-82058300D01*
X22042700Y-87173200D02*
X22003000Y-87173200D01*
X19570100Y-84740300D02*
X19570100Y-84193200D01*
X21080500Y-82682800D02*
X25326200Y-82682800D01*
X19570100Y-84193200D02*
X21080500Y-82682800D01*
%TO.N,CO_5V28*%
X22820300Y-51437200D02*
X22820300Y-52321800D01*
X22820300Y-52321800D02*
X20212500Y-54929600D01*
%TO.N,CO_RX_CABLE*%
X18950000Y-29525000D02*
X20076700Y-29525000D01*
X21971500Y-31842300D02*
X28825000Y-31842300D01*
X20076700Y-29525000D02*
X20076700Y-29947500D01*
X20076700Y-29947500D02*
X21971500Y-31842300D01*
%TO.N,Net-(U801-ONT)*%
X10971600Y-70406000D02*
X11300000Y-70734400D01*
X8531600Y-69336000D02*
X9901600Y-69336000D01*
X10578400Y-70406000D02*
X10971600Y-70406000D01*
X9901600Y-69336000D02*
X10971600Y-70406000D01*
X10269900Y-70714500D02*
X10578400Y-70406000D01*
%TO.N,BME_SDA*%
X22865100Y-37123200D02*
X23315800Y-37123200D01*
X18950000Y-21525000D02*
X17823300Y-21525000D01*
X18493400Y-32751500D02*
X6844400Y-44400500D01*
X17823300Y-21525000D02*
X17823300Y-32081400D01*
X17823300Y-32081400D02*
X18493400Y-32751500D01*
X18493400Y-32751500D02*
X22865100Y-37123200D01*
%TO.N,HOST_5V*%
D41*
X13346000Y-52150000D02*
X13346000Y-51504000D01*
X14172000Y-52976000D02*
X14172000Y-53411800D01*
X18975200Y-60955200D02*
X24725000Y-66705000D01*
X18975200Y-58215000D02*
X18975200Y-60955200D01*
X13346000Y-51504000D02*
X14000000Y-50850000D01*
X11200000Y-50850000D02*
X14000000Y-50850000D01*
X14172000Y-53411800D02*
X18975200Y-58215000D01*
X10000000Y-49650000D02*
X11200000Y-50850000D01*
X13346000Y-52150000D02*
X14172000Y-52976000D01*
X13346000Y-52150000D02*
X10250000Y-52150000D01*
%TO.N,USB_ILIM_AUTH*%
D39*
X24693500Y-83450100D02*
X28065700Y-86822300D01*
X20870200Y-85165700D02*
X22585800Y-83450100D01*
X22585800Y-83450100D02*
X24693500Y-83450100D01*
X28065700Y-86822300D02*
X28065700Y-89325400D01*
%TO.N,BME_SCL*%
X6651200Y-48741500D02*
X5876500Y-48741500D01*
X8045700Y-50136000D02*
X6651200Y-48741500D01*
%TO.N,I2C_SCL*%
X8750000Y-87725000D02*
X8608200Y-87583200D01*
X25998400Y-55278400D02*
X25998400Y-62778000D01*
X24725000Y-54005000D02*
X25998400Y-55278400D01*
X18200000Y-77100000D02*
X17550000Y-77150000D01*
X25356300Y-71812800D02*
X25356300Y-74276300D01*
X15750000Y-79250000D02*
X15750000Y-79550000D01*
X17300000Y-77350000D02*
X15750000Y-79250000D01*
X6502200Y-87583200D02*
X6358100Y-87583200D01*
X25300000Y-75125000D02*
X25100000Y-74532600D01*
X8608200Y-87583200D02*
X6502200Y-87583200D01*
X18959700Y-31702400D02*
X23737100Y-36479800D01*
X26600000Y-75520000D02*
X26600000Y-76700000D01*
X23737100Y-36479800D02*
X24457400Y-36479800D01*
X4290500Y-85299500D02*
X4665000Y-84925000D01*
X25356300Y-74276300D02*
X26600000Y-75520000D01*
X25100000Y-74532600D02*
X25356300Y-74276300D01*
X17550000Y-77150000D02*
X17300000Y-77350000D01*
%TO.N,CO_LOGIC_3V0*%
X1633600Y-51842100D02*
X2849900Y-53058400D01*
X9156500Y-47827300D02*
X8332900Y-47003700D01*
X1633600Y-47880300D02*
X1633600Y-51842100D01*
X2510200Y-47003700D02*
X1633600Y-47880300D01*
X13784600Y-47827300D02*
X9156500Y-47827300D01*
X13191200Y-45278500D02*
X14556700Y-45278500D01*
X8332900Y-47003700D02*
X2510200Y-47003700D01*
X13960200Y-47651700D02*
X13784600Y-47827300D01*
X14556700Y-45278500D02*
X16646700Y-43188500D01*
X16646700Y-43188500D02*
X17069700Y-43188500D01*
%TO.N,O2_B_AIN_P*%
X5498700Y-36086700D02*
X3750200Y-36086700D01*
X2312600Y-37524300D02*
X2312600Y-38549000D01*
X7749800Y-33835600D02*
X5498700Y-36086700D01*
X3750200Y-36086700D02*
X2312600Y-37524300D01*
X13357300Y-31529100D02*
X11050800Y-33835600D01*
X9209600Y-33835600D02*
X7749800Y-33835600D01*
X11050800Y-33835600D02*
X9209600Y-33835600D01*
%TO.N,HE_ENABLE*%
X22332500Y-50195000D02*
X18639900Y-53887600D01*
X27265000Y-48925000D02*
X25995000Y-50195000D01*
X25995000Y-50195000D02*
X22332500Y-50195000D01*
%TO.N,I2C_SDA*%
X26960000Y-75800000D02*
X27131100Y-75971100D01*
X25955100Y-72935100D02*
X26960000Y-73940000D01*
X25698800Y-63318800D02*
X25380900Y-63000900D01*
X26450000Y-74050000D02*
X26450000Y-73430000D01*
X26720600Y-62959300D02*
X26361100Y-63318800D01*
X26361100Y-63318800D02*
X25698800Y-63318800D01*
X27131100Y-75971100D02*
X27131100Y-77268900D01*
X26960000Y-73940000D02*
X26960000Y-75800000D01*
X25380900Y-63000900D02*
X23535700Y-63000900D01*
X28157800Y-62959300D02*
X26720600Y-62959300D01*
X27131100Y-77268900D02*
X26650000Y-77750000D01*
X25955100Y-71362000D02*
X25955100Y-72935100D01*
X23535700Y-63000900D02*
X23012500Y-63524100D01*
%TO.N,CHARGE_ARM*%
X6797800Y-80252800D02*
X6100000Y-80617600D01*
X4000000Y-72311500D02*
X6797800Y-75109300D01*
X6797800Y-75109300D02*
X6797800Y-80252800D01*
X4000000Y-72265000D02*
X4000000Y-72311500D01*
%TO.N,/01  CHARGING + BATTERY/CHG_CE_N*%
X3240300Y-91502200D02*
X6400000Y-88350000D01*
%TO.N,CO_FB*%
X18447600Y-62085300D02*
X24252200Y-67889900D01*
X17719200Y-62085300D02*
X18447600Y-62085300D01*
X19637300Y-55563700D02*
X19026500Y-54952900D01*
X19637300Y-60910300D02*
X19637300Y-55563700D01*
X19026500Y-54952900D02*
X16930500Y-54952900D01*
X25922600Y-67183300D02*
X25922600Y-66226700D01*
X24162000Y-65435000D02*
X19637300Y-60910300D01*
X25922600Y-66226700D02*
X25130900Y-65435000D01*
X25130900Y-65435000D02*
X24162000Y-65435000D01*
X16930500Y-54952900D02*
X16463500Y-54485900D01*
X25216000Y-67889900D02*
X25922600Y-67183300D01*
X24252200Y-67889900D02*
X25216000Y-67889900D01*
%TO.N,Net-(U801-PDT)*%
X14597200Y-68104500D02*
X14597200Y-68204100D01*
X13161400Y-66668700D02*
X14597200Y-68104500D01*
%TO.N,O2_A_RAW_P*%
X6026700Y-24460000D02*
X6026700Y-23661600D01*
X8535400Y-21152900D02*
X8686700Y-21152900D01*
X6026700Y-23661600D02*
X8535400Y-21152900D01*
X4900000Y-24460000D02*
X6026700Y-24460000D01*
%TO.N,USB_PERMISSION_CLR_N*%
X23150000Y-85500000D02*
X23200000Y-85800000D01*
X23200000Y-85800000D02*
X22800000Y-89300000D01*
X22700000Y-85050000D02*
X23150000Y-85500000D01*
X22800000Y-89300000D02*
X22600000Y-89550000D01*
X22600000Y-89550000D02*
X20900000Y-91150000D01*
%TO.N,CHG_INT_N*%
X8850000Y-98350000D02*
X8450000Y-98200000D01*
X21650000Y-98350000D02*
X8850000Y-98350000D01*
X22150000Y-98200000D02*
X21650000Y-98350000D01*
%TO.N,O2_B_RAW_N*%
X6990000Y-14060000D02*
X1910000Y-14060000D01*
%TO.N,BUTTON_LED_A*%
X1886200Y-75498800D02*
X2260900Y-75873500D01*
X5508800Y-69953700D02*
X5508800Y-70321700D01*
X3756700Y-70883700D02*
X1886200Y-72754200D01*
X4946800Y-70883700D02*
X3756700Y-70883700D01*
X1886200Y-72754200D02*
X1886200Y-75498800D01*
X5508800Y-70321700D02*
X4946800Y-70883700D01*
%TO.N,CO_TX_3V0*%
X11600000Y-41532500D02*
X20785700Y-41532500D01*
X20785700Y-41532500D02*
X23346100Y-38972100D01*
X23346100Y-38972100D02*
X23346100Y-38724100D01*
%TO.N,USB_CC2*%
X15650000Y-97000000D02*
X15650000Y-95500000D01*
%TO.N,USB_VBUS_DET*%
X26250000Y-70900000D02*
X26450000Y-71100000D01*
X27200000Y-72250000D02*
X27450000Y-75800000D01*
X22050000Y-70850000D02*
X23500000Y-70100000D01*
X27500000Y-76000000D02*
X27500000Y-77400000D01*
X26450000Y-71100000D02*
X27200000Y-72250000D01*
X27500000Y-77400000D02*
X26500000Y-79250000D01*
X23850000Y-70150000D02*
X25900000Y-70800000D01*
X26250000Y-79400000D02*
X25400000Y-79750000D01*
X23500000Y-70100000D02*
X23850000Y-70150000D01*
X25400000Y-79750000D02*
X24900000Y-79675000D01*
X25900000Y-70800000D02*
X26250000Y-70900000D01*
X27450000Y-75800000D02*
X27500000Y-76000000D01*
X26500000Y-79250000D02*
X26250000Y-79400000D01*
%TO.N,USB_CC_INT_N*%
X20950000Y-89525000D02*
X21925000Y-88575000D01*
X21925000Y-88575000D02*
X22200000Y-88350000D01*
X16700000Y-90300000D02*
X20950000Y-89525000D01*
%TO.N,POWER_INT_N*%
X17950300Y-63166500D02*
X17100000Y-62316200D01*
X15159100Y-70572900D02*
X12500000Y-73232000D01*
X18626800Y-70572900D02*
X15159100Y-70572900D01*
X17100000Y-62316200D02*
X17100000Y-59440700D01*
X22368900Y-66830800D02*
X18626800Y-70572900D01*
X12500000Y-73232000D02*
X5736000Y-73232000D01*
X22368900Y-66509300D02*
X19026100Y-63166500D01*
X22368900Y-66830800D02*
X22368900Y-66509300D01*
X19026100Y-63166500D02*
X17950300Y-63166500D01*
X17276700Y-59264000D02*
X17276700Y-57719500D01*
X17100000Y-59440700D02*
X17276700Y-59264000D01*
X17276700Y-57719500D02*
X15922200Y-56365000D01*
%TO.N,USB_5V*%
X16649999Y-81050000D02*
X16649999Y-81150000D01*
D41*
X22943000Y-73489500D02*
X17498900Y-73489500D01*
X21544900Y-95819500D02*
X25794800Y-95819500D01*
D39*
X8100000Y-86250000D02*
X8050000Y-86250000D01*
X7450000Y-86850000D02*
X7250000Y-86850000D01*
X22250000Y-74600000D02*
X18600000Y-78250000D01*
D41*
X5541000Y-83634200D02*
X3306100Y-83634200D01*
D39*
X22250000Y-74550000D02*
X22250000Y-74600000D01*
X16950000Y-81400000D02*
X17000000Y-81450000D01*
D41*
X13000000Y-91700000D02*
X12725000Y-91975000D01*
X20769600Y-95044200D02*
X21544900Y-95819500D01*
D39*
X16649999Y-81150000D02*
X16700000Y-81200000D01*
D41*
X10309300Y-77548400D02*
X10309300Y-78865900D01*
X3258600Y-86951300D02*
X3897800Y-86312100D01*
D39*
X23500000Y-72900000D02*
X23500000Y-73000000D01*
X19800000Y-81900000D02*
X19850000Y-81900000D01*
X18450000Y-78550000D02*
X18450000Y-78750000D01*
X7250000Y-86850000D02*
X7197300Y-86922500D01*
X14250000Y-88500000D02*
X15400000Y-88500000D01*
X14250000Y-91450000D02*
X14000000Y-91700000D01*
X20350000Y-97200000D02*
X21544900Y-95819500D01*
X16900000Y-81400000D02*
X16950000Y-81400000D01*
X19700000Y-81850000D02*
X19750000Y-81850000D01*
X22900000Y-73600000D02*
X22900000Y-73900000D01*
D41*
X17498900Y-73964000D02*
X17498900Y-73489500D01*
D39*
X18600000Y-78250000D02*
X18600000Y-78300000D01*
X18500000Y-78400000D02*
X18500000Y-78500000D01*
X16399999Y-80800000D02*
X16649999Y-81050000D01*
X22900000Y-73900000D02*
X22250000Y-74550000D01*
X14250000Y-90000000D02*
X14250000Y-88500000D01*
D41*
X17498900Y-73489500D02*
X17498900Y-73116000D01*
X25870200Y-80985500D02*
X22250900Y-80985500D01*
D39*
X14250000Y-90000000D02*
X14250000Y-91450000D01*
X16800000Y-81350000D02*
X16850000Y-81350000D01*
X16850000Y-81350000D02*
X16900000Y-81400000D01*
D41*
X28767400Y-92846900D02*
X28767400Y-83882700D01*
D39*
X15400000Y-88500000D02*
X15400000Y-87175000D01*
D41*
X25794800Y-95819500D02*
X28767400Y-92846900D01*
X14000000Y-91700000D02*
X13000000Y-91700000D01*
D39*
X19900000Y-81950000D02*
X21950000Y-81950000D01*
X19750000Y-81850000D02*
X19800000Y-81900000D01*
D41*
X28767400Y-83882700D02*
X25870200Y-80985500D01*
D39*
X16700000Y-81200000D02*
X16700000Y-81250000D01*
X18450000Y-78750000D02*
X17600000Y-79600000D01*
X19850000Y-81900000D02*
X19900000Y-81950000D01*
D41*
X21387800Y-77852900D02*
X17498900Y-73964000D01*
X3306100Y-83634200D02*
X1693900Y-85246400D01*
D39*
X23500000Y-73000000D02*
X22900000Y-73600000D01*
X23911500Y-72521000D02*
X23500000Y-72900000D01*
D41*
X3897800Y-86312100D02*
X6586900Y-86312100D01*
X23911500Y-72521000D02*
X22943000Y-73489500D01*
D39*
X17000000Y-81450000D02*
X19300000Y-81450000D01*
X19300000Y-81450000D02*
X19700000Y-81850000D01*
D41*
X10309300Y-78865900D02*
X5541000Y-83634200D01*
X16369200Y-71986300D02*
X16750000Y-72550000D01*
D39*
X21950000Y-81950000D02*
X22000000Y-82000000D01*
X8750000Y-85625000D02*
X8100000Y-86250000D01*
X18500000Y-78500000D02*
X18450000Y-78550000D01*
D41*
X12725000Y-91975000D02*
X12000000Y-91975000D01*
D39*
X8050000Y-86250000D02*
X7450000Y-86850000D01*
X16700000Y-81250000D02*
X16800000Y-81350000D01*
X18600000Y-78300000D02*
X18500000Y-78400000D01*
D41*
X16369200Y-71986300D02*
X15871400Y-71986300D01*
X2444500Y-86951300D02*
X3258600Y-86951300D01*
X15871400Y-71986300D02*
X10309300Y-77548400D01*
X6586900Y-86312100D02*
X7197300Y-86922500D01*
X16750000Y-72550000D02*
X17498900Y-73116000D01*
D39*
X15400000Y-87175000D02*
X16000000Y-87175000D01*
%TO.N,USB_OVP_5V*%
X17075000Y-94575000D02*
X18350000Y-94600000D01*
X13350000Y-93750000D02*
X13450000Y-93825100D01*
D41*
X13450000Y-93825100D02*
X13450000Y-92400000D01*
D39*
X13350000Y-93500000D02*
X13350000Y-93750000D01*
D41*
X8425000Y-88900000D02*
X8000000Y-88550000D01*
D39*
X12650000Y-92800000D02*
X13350000Y-93500000D01*
D44*
X14750000Y-91550000D02*
X14800000Y-91600000D01*
D39*
X10550000Y-93450000D02*
X10700000Y-93450000D01*
X13975000Y-94175000D02*
X17075000Y-94575000D01*
X20000000Y-94300000D02*
X20032300Y-94334600D01*
D41*
X8425000Y-90000000D02*
X8425000Y-88900000D01*
X13959500Y-94334600D02*
X13450000Y-93825100D01*
X22471100Y-91895800D02*
X20032300Y-94334600D01*
X22471100Y-90651000D02*
X22471100Y-91895800D01*
X24412700Y-88709400D02*
X22471100Y-90651000D01*
D39*
X11450000Y-92800000D02*
X11500000Y-92750000D01*
X12500000Y-92750000D02*
X12550000Y-92800000D01*
X12550000Y-92800000D02*
X12650000Y-92800000D01*
X13725000Y-93925000D02*
X13975000Y-94175000D01*
X11350000Y-92800000D02*
X11450000Y-92800000D01*
X10400000Y-93600000D02*
X10550000Y-93450000D01*
D44*
X14750000Y-90000000D02*
X14750000Y-91550000D01*
D41*
X24412700Y-84033400D02*
X24412700Y-88709400D01*
D39*
X10700000Y-93450000D02*
X11350000Y-92800000D01*
D41*
X20032300Y-94334600D02*
X20027100Y-94339800D01*
D39*
X10250000Y-93575000D02*
X10400000Y-93600000D01*
X11500000Y-92750000D02*
X12500000Y-92750000D01*
X13300000Y-92400000D02*
X13725000Y-93925000D01*
%TO.N,USB_LIMIT_SET*%
X4640000Y-88150000D02*
X4950000Y-88850000D01*
%TO.N,CO_RX_3V0*%
X15982100Y-45110100D02*
X15553500Y-45110100D01*
X18765400Y-42326800D02*
X15982100Y-45110100D01*
X21803200Y-42326800D02*
X18765400Y-42326800D01*
X28807500Y-40094000D02*
X24036000Y-40094000D01*
X24036000Y-40094000D02*
X21803200Y-42326800D01*
%TO.N,GAUGE_ALERT_N*%
X9700000Y-72150000D02*
X11950000Y-71650000D01*
%TO.N,POWER_EN*%
X16528800Y-60238200D02*
X16528800Y-61933900D01*
X21001277Y-60750000D02*
X21000000Y-59975000D01*
X21000000Y-59975000D02*
X21225000Y-59750000D01*
X16528800Y-61933900D02*
X11978700Y-66484000D01*
X14702200Y-58411600D02*
X16528800Y-60238200D01*
X11978700Y-66484000D02*
X7893100Y-66484000D01*
X21225000Y-59300000D02*
X21254900Y-59272300D01*
X21225000Y-59750000D02*
X21225000Y-59300000D01*
%TO.N,USB_PERMISSION_Q_N*%
X21576500Y-97993600D02*
X22653500Y-96916600D01*
X7161600Y-94913400D02*
X7161600Y-96164100D01*
X8991100Y-97993600D02*
X21576500Y-97993600D01*
X7161600Y-96164100D02*
X8991100Y-97993600D01*
X8500000Y-93575000D02*
X7161600Y-94913400D01*
%TO.N,USB_D_P*%
X16300000Y-96150000D02*
X17450000Y-97000000D01*
X12000000Y-94550000D02*
X12050000Y-94500000D01*
X11850000Y-94650000D02*
X11950000Y-94550000D01*
X13700000Y-94800000D02*
X13800000Y-94800000D01*
X11450000Y-95000000D02*
X11800000Y-94650000D01*
X5000000Y-92300000D02*
X6800000Y-94100000D01*
X4250000Y-81550000D02*
X1000000Y-84800000D01*
X6400000Y-81550000D02*
X4250000Y-81550000D01*
X19050000Y-70950000D02*
X18950000Y-71050000D01*
X9850000Y-77350000D02*
X9800000Y-77400000D01*
X9900000Y-77250000D02*
X9850000Y-77300000D01*
X18900000Y-71050000D02*
X18450000Y-71500000D01*
X13400000Y-94500000D02*
X13700000Y-94800000D01*
X9850000Y-77300000D02*
X9850000Y-77350000D01*
X18450000Y-71500000D02*
X15650000Y-71500000D01*
X6800000Y-94100000D02*
X6800000Y-96700000D01*
X19800000Y-70350000D02*
X19700000Y-70350000D01*
X9800000Y-77400000D02*
X9800000Y-78150000D01*
X15650000Y-71500000D02*
X15600000Y-71550000D01*
X13850000Y-94850000D02*
X15900000Y-94850000D01*
X11800000Y-94650000D02*
X11850000Y-94650000D01*
X15900000Y-94850000D02*
X16300000Y-95000000D01*
X11950000Y-94550000D02*
X12000000Y-94550000D01*
X13800000Y-94800000D02*
X13850000Y-94850000D01*
X23400000Y-68900000D02*
X22000000Y-70300000D01*
X18950000Y-71050000D02*
X18900000Y-71050000D01*
X9900000Y-77200000D02*
X9900000Y-77250000D01*
X22000000Y-70300000D02*
X19850000Y-70300000D01*
X15600000Y-71550000D02*
X15550000Y-71550000D01*
X16300000Y-95000000D02*
X16300000Y-96150000D01*
X19700000Y-70350000D02*
X19100000Y-70950000D01*
X19100000Y-70950000D02*
X19050000Y-70950000D01*
X15550000Y-71550000D02*
X9900000Y-77200000D01*
X9800000Y-78150000D02*
X6400000Y-81550000D01*
X19850000Y-70300000D02*
X19800000Y-70350000D01*
X12050000Y-94500000D02*
X13400000Y-94500000D01*
X9500000Y-95000000D02*
X11450000Y-95000000D01*
%TO.N,USB_D_M*%
X21000000Y-94600000D02*
X20950000Y-94550000D01*
X20550000Y-94550000D02*
X20450000Y-94650000D01*
X20300000Y-94800000D02*
X20200000Y-94800000D01*
X20200000Y-94800000D02*
X20150000Y-94850000D01*
X19400000Y-94850000D02*
X19250000Y-94700000D01*
X20950000Y-94550000D02*
X20550000Y-94550000D01*
X20350000Y-94750000D02*
X20300000Y-94800000D01*
X23500000Y-94600000D02*
X21000000Y-94600000D01*
X19250000Y-97000000D02*
X19250000Y-94700000D01*
X27950000Y-77750000D02*
X28900000Y-78700000D01*
X20350000Y-94700000D02*
X20350000Y-94750000D01*
X20400000Y-94650000D02*
X20400000Y-94700000D01*
X20450000Y-94650000D02*
X20400000Y-94650000D01*
X20400000Y-94700000D02*
X20350000Y-94700000D01*
X27950000Y-75200000D02*
X27950000Y-77750000D01*
X20150000Y-94850000D02*
X19400000Y-94850000D01*
%TO.N,USB_OVP_UPPER*%
X9500000Y-85050000D02*
X9500000Y-85150000D01*
X9250000Y-84700000D02*
X9300000Y-84750000D01*
X9300000Y-84850000D02*
X9500000Y-85050000D01*
X8750000Y-83975000D02*
X9250000Y-84450000D01*
X9300000Y-84750000D02*
X9300000Y-84850000D01*
X9550000Y-87750000D02*
X9625000Y-87800000D01*
X9250000Y-84450000D02*
X9250000Y-84700000D01*
X9550000Y-85200000D02*
X9550000Y-87750000D01*
X9500000Y-85150000D02*
X9550000Y-85200000D01*
%TO.N,USB_OVP_ILM*%
X16610000Y-91290000D02*
X16690000Y-91370000D01*
X15810000Y-90290000D02*
X16489999Y-91040000D01*
X17740000Y-91400000D02*
X18750000Y-90825000D01*
X16690000Y-91370000D02*
X16820000Y-91440000D01*
X17000000Y-91470000D02*
X17590000Y-91460000D01*
X16489999Y-91040000D02*
X16530000Y-91180000D01*
X16820000Y-91440000D02*
X17000000Y-91470000D01*
X16530000Y-91180000D02*
X16610000Y-91290000D01*
X17590000Y-91460000D02*
X17740000Y-91400000D01*
X15400000Y-90225000D02*
X15810000Y-90290000D01*
%TO.N,USB_OVP_SET*%
X12675000Y-87600000D02*
X11475000Y-87600000D01*
X13600000Y-90260000D02*
X12400000Y-90300000D01*
X11475000Y-87600000D02*
X11275000Y-87800000D01*
X12200000Y-87800000D02*
X12900000Y-87600000D01*
%TO.N,USB_OVP_UVLO*%
X13300000Y-90975000D02*
X13675000Y-90975000D01*
X13600000Y-90700000D02*
X13300000Y-90975000D01*
X17750000Y-87471700D02*
X16000000Y-85721700D01*
X13675000Y-90975000D02*
X13775000Y-90875000D01*
X16000000Y-85721700D02*
X16000000Y-85525000D01*
X17750000Y-87775000D02*
X17750000Y-87471700D01*
%TO.N,USB_OVP_DVDT*%
X15225000Y-89125000D02*
X15400000Y-89300000D01*
X15400000Y-89300000D02*
X16500000Y-88570000D01*
%TO.N,unconnected-(U115-FLT-Pad4)*%
X13775000Y-89125000D02*
X13600000Y-89300000D01*
%TO.N,unconnected-(U115-ITIMER-Pad10)*%
X15400000Y-90700000D02*
X15225000Y-90875000D01*
%TD*%
M02*
