M48
; DRILL file KiCad 10.0.6 date 2026-09-08T00:55:51
; FORMAT={-:-/ absolute / metric / decimal}
; #@! TF.CreationDate,2026-09-08T00:55:51+02:00
; #@! TF.GenerationSoftware,Kicad,Pcbnew,10.0.6
; #@! TF.FileFunction,Plated,1,4,PTH
FMAT,2
METRIC
; #@! TA.AperFunction,Plated,PTH,ViaDrill
T1C0.200
; #@! TA.AperFunction,Plated,PTH,ComponentDrill
T2C0.200
; #@! TA.AperFunction,Plated,PTH,ViaDrill
T3C0.250
; #@! TA.AperFunction,Plated,PTH,ViaDrill
T4C0.300
; #@! TA.AperFunction,Plated,PTH,ComponentDrill
T5C0.800
; #@! TA.AperFunction,Plated,PTH,ComponentDrill
T6C0.950
; #@! TA.AperFunction,Plated,PTH,ComponentDrill
T7C1.000
; #@! TA.AperFunction,Plated,PTH,ComponentDrill
T8C1.020
; #@! TA.AperFunction,Plated,PTH,ComponentDrill
T9C1.200
; #@! TA.AperFunction,Plated,PTH,ComponentDrill
T10C1.700
%
G90
G05
T1
X9.98Y-84.75
X10.15Y-84.0
X10.2Y-85.5
X11.75Y-86.8
X12.2Y-87.8
X12.4Y-90.3
X12.75Y-86.65
X12.79Y-81.15
X13.5Y-81.2
X13.6Y-89.775
X13.75Y-86.6
X15.84Y-84.25
X16.95Y-85.2
X23.6Y-77.15
X23.6Y-77.85
X24.5Y-75.98
X25.2Y-75.9
X25.4Y-79.2
X26.1Y-78.9
X26.6Y-76.7
X26.65Y-77.75
X28.05Y-73.75
T2
X11.9Y-82.9
X11.9Y-84.0
X11.9Y-85.1
X12.5Y-60.0
X12.5Y-60.5
X12.5Y-61.0
X12.5Y-61.5
X12.5Y-62.0
X13.0Y-60.0
X13.0Y-60.5
X13.0Y-61.0
X13.0Y-61.5
X13.0Y-62.0
X13.0Y-82.9
X13.0Y-84.0
X13.0Y-85.1
X13.5Y-60.0
X13.5Y-60.5
X13.5Y-61.0
X13.5Y-61.5
X13.5Y-62.0
X14.1Y-82.9
X14.1Y-84.0
X14.1Y-85.1
T3
X1.0Y-84.8
X1.1Y-83.0
X1.2Y-62.05
X1.25Y-58.9
X1.25Y-63.65
X2.048Y-93.452
X2.3Y-69.775
X2.45Y-74.0
X3.24Y-91.502
X3.4Y-81.6
X3.8Y-88.5
X4.95Y-88.85
X5.0Y-92.3
X6.0Y-92.05
X6.358Y-87.583
X6.4Y-88.35
X6.7Y-85.4
X6.8Y-96.7
X7.7Y-74.9
X8.45Y-98.2
X9.1Y-97.1
X9.5Y-95.0
X9.7Y-72.15
X9.704Y-76.254
X10.15Y-89.075
X10.27Y-70.715
X10.4Y-48.9
X10.841Y-82.142
X11.0Y-94.25
X11.147Y-86.281
X11.25Y-73.9
X11.25Y-78.35
X11.85Y-70.75
X11.95Y-71.65
X12.8Y-93.95
X13.2Y-95.05
X14.8Y-91.6
X14.95Y-95.6
X15.65Y-95.5
X15.75Y-78.35
X15.75Y-79.55
X15.925Y-83.575
X15.95Y-88.35
X16.4Y-80.8
X16.679Y-40.954
X16.7Y-90.3
X16.8Y-79.519
X16.8Y-87.8
X17.0Y-78.55
X17.167Y-80.894
X17.19Y-72.035
X17.6Y-79.6
X17.8Y-78.519
X17.85Y-85.25
X17.935Y-37.803
X18.2Y-77.1
X18.3Y-82.3
X18.35Y-94.6
X18.96Y-31.702
X19.25Y-74.75
X19.25Y-94.7
X19.4Y-72.8
X19.75Y-68.65
X19.95Y-74.3
X19.991Y-70.86
X20.0Y-94.3
X20.15Y-82.8
X20.3Y-87.85
X20.35Y-97.2
X20.453Y-65.493
X20.5Y-69.6
X20.9Y-91.15
X22.0Y-82.0
X22.0Y-83.25
X22.05Y-70.85
X22.15Y-98.2
X22.2Y-88.35
X22.7Y-85.05
X23.012Y-63.524
X23.4Y-68.9
X23.5Y-94.6
X23.629Y-78.65
X24.2Y-79.1
X24.457Y-36.48
X24.9Y-79.675
X25.075Y-87.212
X25.1Y-88.6
X25.3Y-75.125
X25.356Y-71.813
X25.469Y-80.301
X25.955Y-71.362
X25.998Y-62.778
X26.0Y-83.75
X26.45Y-74.05
X26.65Y-72.4
X27.825Y-72.975
X27.95Y-75.2
X28.158Y-62.959
X28.2Y-71.95
X28.9Y-78.7
T4
X1.0Y-56.05
X1.25Y-78.486
X1.279Y-38.037
X1.279Y-89.113
X1.31Y-56.993
X1.694Y-85.246
X1.968Y-68.614
X2.1Y-25.735
X2.157Y-67.082
X2.213Y-48.218
X2.261Y-75.873
X2.264Y-66.26
X2.313Y-38.549
X2.323Y-29.05
X2.335Y-81.733
X2.444Y-86.951
X2.792Y-41.15
X2.85Y-53.058
X3.015Y-74.819
X3.175Y-90.75
X3.374Y-93.761
X3.7Y-87.75
X4.0Y-45.587
X4.025Y-54.2
X4.157Y-57.182
X4.29Y-85.299
X4.775Y-49.7
X4.95Y-59.25
X5.35Y-62.1
X5.35Y-65.5
X5.35Y-68.9
X5.377Y-37.026
X5.509Y-69.954
X5.611Y-33.775
X5.611Y-71.796
X5.736Y-73.232
X5.75Y-82.425
X5.771Y-44.323
X5.877Y-48.741
X6.1Y-80.618
X6.2Y-79.525
X6.525Y-57.0
X6.73Y-71.459
X6.769Y-47.604
X6.844Y-44.401
X6.9Y-92.45
X7.037Y-42.267
X7.051Y-88.805
X7.1Y-90.35
X7.37Y-36.378
X7.458Y-57.003
X7.675Y-31.3
X7.678Y-51.847
X7.75Y-85.525
X7.772Y-95.949
X7.893Y-66.484
X8.0Y-71.775
X8.0Y-88.55
X8.046Y-50.136
X8.067Y-44.102
X8.497Y-60.958
X8.529Y-67.55
X8.532Y-69.336
X8.687Y-21.153
X9.2Y-32.225
X9.21Y-33.836
X9.275Y-45.3
X9.275Y-49.1
X9.901Y-37.288
X10.0Y-49.65
X10.076Y-53.889
X10.099Y-23.013
X10.1Y-82.75
X10.123Y-47.191
X10.218Y-55.326
X10.25Y-51.0
X10.25Y-52.15
X10.45Y-90.5
X10.463Y-56.475
X11.075Y-55.95
X11.1Y-91.1
X11.4Y-54.025
X11.6Y-41.532
X11.635Y-23.174
X11.755Y-31.308
X12.255Y-95.105
X12.6Y-21.4
X12.775Y-46.9
X13.0Y-91.65
X13.025Y-39.4
X13.161Y-42.753
X13.161Y-66.669
X13.178Y-52.978
X13.191Y-45.279
X13.2Y-68.25
X13.3Y-92.4
X13.357Y-31.529
X13.96Y-47.652
X13.987Y-44.356
X14.0Y-50.85
X14.171Y-31.451
X14.205Y-69.351
X14.375Y-34.85
X14.597Y-68.204
X14.702Y-58.412
X14.874Y-53.121
X15.1Y-47.775
X15.184Y-34.733
X15.2Y-59.9
X15.235Y-37.325
X15.416Y-50.136
X15.553Y-45.11
X15.705Y-46.835
X15.706Y-61.606
X15.775Y-58.5
X15.922Y-56.365
X15.925Y-28.5
X16.027Y-72.901
X16.183Y-91.702
X16.269Y-53.058
X16.325Y-37.4
X16.463Y-54.486
X16.65Y-32.25
X16.7Y-59.025
X17.07Y-43.188
X17.275Y-38.4
X17.512Y-68.3
X17.719Y-62.085
X17.741Y-77.736
X18.233Y-48.958
X18.275Y-64.0
X18.64Y-53.888
X18.8Y-45.4
X18.95Y-68.25
X19.022Y-46.858
X19.026Y-54.953
X19.062Y-78.7
X19.062Y-85.95
X19.345Y-71.512
X19.825Y-75.25
X19.925Y-72.25
X20.1Y-81.35
X20.151Y-84.467
X20.212Y-54.93
X20.45Y-43.35
X20.45Y-59.6
X20.462Y-57.8
X20.487Y-95.757
X20.5Y-66.8
X20.535Y-92.823
X20.618Y-40.797
X20.695Y-86.828
X20.75Y-88.3
X20.75Y-91.925
X20.87Y-85.166
X21.0Y-80.589
X21.255Y-59.272
X22.0Y-42.925
X22.0Y-62.425
X22.0Y-77.125
X22.043Y-87.173
X22.218Y-89.102
X22.251Y-80.986
X22.369Y-66.831
X22.5Y-79.999
X22.613Y-85.8
X22.653Y-96.917
X22.766Y-81.879
X22.82Y-51.437
X23.177Y-58.366
X23.316Y-37.123
X23.346Y-38.724
X23.35Y-54.25
X23.602Y-70.711
X23.812Y-96.7
X23.912Y-72.521
X24.3Y-82.0
X24.413Y-84.033
X25.951Y-82.058
X27.2Y-96.175
X28.0Y-84.225
X28.066Y-89.325
X28.5Y-79.425
X28.807Y-40.094
X28.807Y-69.148
X28.825Y-31.842
T5
X10.25Y-97.0
X12.05Y-97.0
X13.85Y-97.0
X15.65Y-97.0
X17.45Y-97.0
X19.25Y-97.0
T6
X18.95Y-21.525
X18.95Y-29.525
X21.45Y-21.525
X21.45Y-29.525
X23.95Y-21.525
X23.95Y-29.525
X26.45Y-21.525
X26.45Y-29.525
T7
X3.725Y-51.5
X4.0Y-34.96
X4.0Y-37.5
X4.0Y-40.04
X4.0Y-69.725
X4.0Y-72.265
X4.0Y-77.725
X4.0Y-80.265
X4.9Y-24.46
X4.9Y-27.0
X4.9Y-29.54
X5.725Y-55.3
X6.265Y-51.5
X8.265Y-55.3
X14.9Y-93.0
X19.1Y-93.0
T8
X24.725Y-38.765
X24.725Y-41.305
X24.725Y-43.845
X24.725Y-46.385
X24.725Y-48.925
X24.725Y-51.465
X24.725Y-54.005
X24.725Y-56.545
X24.725Y-59.085
X24.725Y-61.625
X24.725Y-64.165
X24.725Y-66.705
X24.725Y-69.245
X27.265Y-38.765
X27.265Y-41.305
X27.265Y-43.845
X27.265Y-46.385
X27.265Y-48.925
X27.265Y-51.465
X27.265Y-54.005
X27.265Y-56.545
X27.265Y-59.085
X27.265Y-61.625
X27.265Y-64.165
X27.265Y-66.705
X27.265Y-69.245
T9
X4.45Y-16.6
T10
X1.91Y-14.06
X1.91Y-19.14
X6.99Y-14.06
X6.99Y-19.14
M30
